<?xml version="1.0" encoding="utf-8" standalone="no"?>
<!DOCTYPE svg PUBLIC "-//W3C//DTD SVG 1.1//EN"
  "http://www.w3.org/Graphics/SVG/1.1/DTD/svg11.dtd">
<svg xmlns:xlink="http://www.w3.org/1999/xlink" width="614.399531pt" height="470.158594pt" viewBox="0 0 614.399531 470.158594" xmlns="http://www.w3.org/2000/svg" version="1.1">
 <metadata>
  <rdf:RDF xmlns:dc="http://purl.org/dc/elements/1.1/" xmlns:cc="http://creativecommons.org/ns#" xmlns:rdf="http://www.w3.org/1999/02/22-rdf-syntax-ns#">
   <cc:Work>
    <dc:type rdf:resource="http://purl.org/dc/dcmitype/StillImage"/>
    <dc:date>2026-07-16T15:19:14.093124</dc:date>
    <dc:format>image/svg+xml</dc:format>
    <dc:creator>
     <cc:Agent>
      <dc:title>Matplotlib v3.11.0, https://matplotlib.org/</dc:title>
     </cc:Agent>
    </dc:creator>
   </cc:Work>
  </rdf:RDF>
 </metadata>
 <defs>
  <style type="text/css">*{stroke-linejoin: round; stroke-linecap: butt}</style>
 </defs>
 <g id="figure_1">
  <g id="patch_1">
   <path d="M 0 470.158594 
L 614.399531 470.158594 
L 614.399531 0 
L 0 0 
z
" style="fill: #ffffff"/>
  </g>
  <g id="axes_1">
   <g id="patch_2">
    <path d="M 49.199531 414.957187 
L 607.199531 414.957187 
L 607.199531 26.877187 
L 49.199531 26.877187 
z
" style="fill: #ffffff"/>
   </g>
   <g id="matplotlib.axis_1">
    <g id="xtick_1">
     <g id="line2d_1">
      <path d="M 74.563168 414.957187 
L 74.563168 26.877187 
" clip-path="url(#pd1d4ab3f56)" style="fill: none; stroke: #cccccc; stroke-opacity: 0.3; stroke-linecap: round"/>
     </g>
     <g id="text_1">
      <!-- 0 -->
      <g style="fill: #262626" transform="translate(69.314105 436.99332) scale(0.165 -0.165)">
       <defs>
        <path id="DejaVuSans-13" d="M 2034 4250 
Q 1547 4250 1301 3770 
Q 1056 3291 1056 2328 
Q 1056 1369 1301 889 
Q 1547 409 2034 409 
Q 2525 409 2770 889 
Q 3016 1369 3016 2328 
Q 3016 3291 2770 3770 
Q 2525 4250 2034 4250 
z
M 2034 4750 
Q 2819 4750 3233 4129 
Q 3647 3509 3647 2328 
Q 3647 1150 3233 529 
Q 2819 -91 2034 -91 
Q 1250 -91 836 529 
Q 422 1150 422 2328 
Q 422 3509 836 4129 
Q 1250 4750 2034 4750 
z
" transform="scale(0.015625)"/>
       </defs>
       <use xlink:href="#DejaVuSans-13"/>
      </g>
     </g>
    </g>
    <g id="xtick_2">
     <g id="line2d_2">
      <path d="M 144.53182 414.957187 
L 144.53182 26.877187 
" clip-path="url(#pd1d4ab3f56)" style="fill: none; stroke: #cccccc; stroke-opacity: 0.3; stroke-linecap: round"/>
     </g>
     <g id="text_2">
      <!-- 10 -->
      <g style="fill: #262626" transform="translate(134.033695 436.99332) scale(0.165 -0.165)">
       <defs>
        <path id="DejaVuSans-14" d="M 794 531 
L 1825 531 
L 1825 4091 
L 703 3866 
L 703 4441 
L 1819 4666 
L 2450 4666 
L 2450 531 
L 3481 531 
L 3481 0 
L 794 0 
L 794 531 
z
" transform="scale(0.015625)"/>
       </defs>
       <use xlink:href="#DejaVuSans-14"/>
       <use xlink:href="#DejaVuSans-13" transform="translate(63.625 0)"/>
      </g>
     </g>
    </g>
    <g id="xtick_3">
     <g id="line2d_3">
      <path d="M 214.500472 414.957187 
L 214.500472 26.877187 
" clip-path="url(#pd1d4ab3f56)" style="fill: none; stroke: #cccccc; stroke-opacity: 0.3; stroke-linecap: round"/>
     </g>
     <g id="text_3">
      <!-- 20 -->
      <g style="fill: #262626" transform="translate(204.002347 436.99332) scale(0.165 -0.165)">
       <defs>
        <path id="DejaVuSans-15" d="M 1228 531 
L 3431 531 
L 3431 0 
L 469 0 
L 469 531 
Q 828 903 1448 1529 
Q 2069 2156 2228 2338 
Q 2531 2678 2651 2914 
Q 2772 3150 2772 3378 
Q 2772 3750 2511 3984 
Q 2250 4219 1831 4219 
Q 1534 4219 1204 4116 
Q 875 4013 500 3803 
L 500 4441 
Q 881 4594 1212 4672 
Q 1544 4750 1819 4750 
Q 2544 4750 2975 4387 
Q 3406 4025 3406 3419 
Q 3406 3131 3298 2873 
Q 3191 2616 2906 2266 
Q 2828 2175 2409 1742 
Q 1991 1309 1228 531 
z
" transform="scale(0.015625)"/>
       </defs>
       <use xlink:href="#DejaVuSans-15"/>
       <use xlink:href="#DejaVuSans-13" transform="translate(63.625 0)"/>
      </g>
     </g>
    </g>
    <g id="xtick_4">
     <g id="line2d_4">
      <path d="M 284.469124 414.957187 
L 284.469124 26.877187 
" clip-path="url(#pd1d4ab3f56)" style="fill: none; stroke: #cccccc; stroke-opacity: 0.3; stroke-linecap: round"/>
     </g>
     <g id="text_4">
      <!-- 30 -->
      <g style="fill: #262626" transform="translate(273.970999 436.99332) scale(0.165 -0.165)">
       <defs>
        <path id="DejaVuSans-16" d="M 2597 2516 
Q 3050 2419 3304 2112 
Q 3559 1806 3559 1356 
Q 3559 666 3084 287 
Q 2609 -91 1734 -91 
Q 1441 -91 1130 -33 
Q 819 25 488 141 
L 488 750 
Q 750 597 1062 519 
Q 1375 441 1716 441 
Q 2309 441 2620 675 
Q 2931 909 2931 1356 
Q 2931 1769 2642 2001 
Q 2353 2234 1838 2234 
L 1294 2234 
L 1294 2753 
L 1863 2753 
Q 2328 2753 2575 2939 
Q 2822 3125 2822 3475 
Q 2822 3834 2567 4026 
Q 2313 4219 1838 4219 
Q 1578 4219 1281 4162 
Q 984 4106 628 3988 
L 628 4550 
Q 988 4650 1302 4700 
Q 1616 4750 1894 4750 
Q 2613 4750 3031 4423 
Q 3450 4097 3450 3541 
Q 3450 3153 3228 2886 
Q 3006 2619 2597 2516 
z
" transform="scale(0.015625)"/>
       </defs>
       <use xlink:href="#DejaVuSans-16"/>
       <use xlink:href="#DejaVuSans-13" transform="translate(63.625 0)"/>
      </g>
     </g>
    </g>
    <g id="xtick_5">
     <g id="line2d_5">
      <path d="M 354.437776 414.957187 
L 354.437776 26.877187 
" clip-path="url(#pd1d4ab3f56)" style="fill: none; stroke: #cccccc; stroke-opacity: 0.3; stroke-linecap: round"/>
     </g>
     <g id="text_5">
      <!-- 40 -->
      <g style="fill: #262626" transform="translate(343.939651 436.99332) scale(0.165 -0.165)">
       <defs>
        <path id="DejaVuSans-17" d="M 2419 4116 
L 825 1625 
L 2419 1625 
L 2419 4116 
z
M 2253 4666 
L 3047 4666 
L 3047 1625 
L 3713 1625 
L 3713 1100 
L 3047 1100 
L 3047 0 
L 2419 0 
L 2419 1100 
L 313 1100 
L 313 1709 
L 2253 4666 
z
" transform="scale(0.015625)"/>
       </defs>
       <use xlink:href="#DejaVuSans-17"/>
       <use xlink:href="#DejaVuSans-13" transform="translate(63.625 0)"/>
      </g>
     </g>
    </g>
    <g id="xtick_6">
     <g id="line2d_6">
      <path d="M 424.406428 414.957187 
L 424.406428 26.877187 
" clip-path="url(#pd1d4ab3f56)" style="fill: none; stroke: #cccccc; stroke-opacity: 0.3; stroke-linecap: round"/>
     </g>
     <g id="text_6">
      <!-- 50 -->
      <g style="fill: #262626" transform="translate(413.908303 436.99332) scale(0.165 -0.165)">
       <defs>
        <path id="DejaVuSans-18" d="M 691 4666 
L 3169 4666 
L 3169 4134 
L 1269 4134 
L 1269 2991 
Q 1406 3038 1543 3061 
Q 1681 3084 1819 3084 
Q 2600 3084 3056 2656 
Q 3513 2228 3513 1497 
Q 3513 744 3044 326 
Q 2575 -91 1722 -91 
Q 1428 -91 1123 -41 
Q 819 9 494 109 
L 494 744 
Q 775 591 1075 516 
Q 1375 441 1709 441 
Q 2250 441 2565 725 
Q 2881 1009 2881 1497 
Q 2881 1984 2565 2268 
Q 2250 2553 1709 2553 
Q 1456 2553 1204 2497 
Q 953 2441 691 2322 
L 691 4666 
z
" transform="scale(0.015625)"/>
       </defs>
       <use xlink:href="#DejaVuSans-18"/>
       <use xlink:href="#DejaVuSans-13" transform="translate(63.625 0)"/>
      </g>
     </g>
    </g>
    <g id="xtick_7">
     <g id="line2d_7">
      <path d="M 494.37508 414.957187 
L 494.37508 26.877187 
" clip-path="url(#pd1d4ab3f56)" style="fill: none; stroke: #cccccc; stroke-opacity: 0.3; stroke-linecap: round"/>
     </g>
     <g id="text_7">
      <!-- 60 -->
      <g style="fill: #262626" transform="translate(483.876955 436.99332) scale(0.165 -0.165)">
       <defs>
        <path id="DejaVuSans-19" d="M 2113 2584 
Q 1688 2584 1439 2293 
Q 1191 2003 1191 1497 
Q 1191 994 1439 701 
Q 1688 409 2113 409 
Q 2538 409 2786 701 
Q 3034 994 3034 1497 
Q 3034 2003 2786 2293 
Q 2538 2584 2113 2584 
z
M 3366 4563 
L 3366 3988 
Q 3128 4100 2886 4159 
Q 2644 4219 2406 4219 
Q 1781 4219 1451 3797 
Q 1122 3375 1075 2522 
Q 1259 2794 1537 2939 
Q 1816 3084 2150 3084 
Q 2853 3084 3261 2657 
Q 3669 2231 3669 1497 
Q 3669 778 3244 343 
Q 2819 -91 2113 -91 
Q 1303 -91 875 529 
Q 447 1150 447 2328 
Q 447 3434 972 4092 
Q 1497 4750 2381 4750 
Q 2619 4750 2861 4703 
Q 3103 4656 3366 4563 
z
" transform="scale(0.015625)"/>
       </defs>
       <use xlink:href="#DejaVuSans-19"/>
       <use xlink:href="#DejaVuSans-13" transform="translate(63.625 0)"/>
      </g>
     </g>
    </g>
    <g id="xtick_8">
     <g id="line2d_8">
      <path d="M 564.343732 414.957187 
L 564.343732 26.877187 
" clip-path="url(#pd1d4ab3f56)" style="fill: none; stroke: #cccccc; stroke-opacity: 0.3; stroke-linecap: round"/>
     </g>
     <g id="text_8">
      <!-- 70 -->
      <g style="fill: #262626" transform="translate(553.845607 436.99332) scale(0.165 -0.165)">
       <defs>
        <path id="DejaVuSans-1a" d="M 525 4666 
L 3525 4666 
L 3525 4397 
L 1831 0 
L 1172 0 
L 2766 4134 
L 525 4134 
L 525 4666 
z
" transform="scale(0.015625)"/>
       </defs>
       <use xlink:href="#DejaVuSans-1a"/>
       <use xlink:href="#DejaVuSans-13" transform="translate(63.625 0)"/>
      </g>
     </g>
    </g>
    <g id="text_9">
     <!-- Time Overhead (%) -->
     <g style="fill: #262626" transform="translate(240.917813 458.634375) scale(0.18 -0.18)">
      <defs>
       <path id="DejaVuSans-37" d="M -19 4666 
L 3928 4666 
L 3928 4134 
L 2272 4134 
L 2272 0 
L 1638 0 
L 1638 4134 
L -19 4134 
L -19 4666 
z
" transform="scale(0.015625)"/>
       <path id="DejaVuSans-4c" d="M 603 3500 
L 1178 3500 
L 1178 0 
L 603 0 
L 603 3500 
z
M 603 4863 
L 1178 4863 
L 1178 4134 
L 603 4134 
L 603 4863 
z
" transform="scale(0.015625)"/>
       <path id="DejaVuSans-50" d="M 3328 2828 
Q 3544 3216 3844 3400 
Q 4144 3584 4550 3584 
Q 5097 3584 5394 3201 
Q 5691 2819 5691 2113 
L 5691 0 
L 5113 0 
L 5113 2094 
Q 5113 2597 4934 2840 
Q 4756 3084 4391 3084 
Q 3944 3084 3684 2787 
Q 3425 2491 3425 1978 
L 3425 0 
L 2847 0 
L 2847 2094 
Q 2847 2600 2669 2842 
Q 2491 3084 2119 3084 
Q 1678 3084 1418 2786 
Q 1159 2488 1159 1978 
L 1159 0 
L 581 0 
L 581 3500 
L 1159 3500 
L 1159 2956 
Q 1356 3278 1631 3431 
Q 1906 3584 2284 3584 
Q 2666 3584 2933 3390 
Q 3200 3197 3328 2828 
z
" transform="scale(0.015625)"/>
       <path id="DejaVuSans-48" d="M 3597 1894 
L 3597 1613 
L 953 1613 
Q 991 1019 1311 708 
Q 1631 397 2203 397 
Q 2534 397 2845 478 
Q 3156 559 3463 722 
L 3463 178 
Q 3153 47 2828 -22 
Q 2503 -91 2169 -91 
Q 1331 -91 842 396 
Q 353 884 353 1716 
Q 353 2575 817 3079 
Q 1281 3584 2069 3584 
Q 2775 3584 3186 3129 
Q 3597 2675 3597 1894 
z
M 3022 2063 
Q 3016 2534 2758 2815 
Q 2500 3097 2075 3097 
Q 1594 3097 1305 2825 
Q 1016 2553 972 2059 
L 3022 2063 
z
" transform="scale(0.015625)"/>
       <path id="DejaVuSans-3" transform="scale(0.015625)"/>
       <path id="DejaVuSans-32" d="M 2522 4238 
Q 1834 4238 1429 3725 
Q 1025 3213 1025 2328 
Q 1025 1447 1429 934 
Q 1834 422 2522 422 
Q 3209 422 3611 934 
Q 4013 1447 4013 2328 
Q 4013 3213 3611 3725 
Q 3209 4238 2522 4238 
z
M 2522 4750 
Q 3503 4750 4090 4092 
Q 4678 3434 4678 2328 
Q 4678 1225 4090 567 
Q 3503 -91 2522 -91 
Q 1538 -91 948 565 
Q 359 1222 359 2328 
Q 359 3434 948 4092 
Q 1538 4750 2522 4750 
z
" transform="scale(0.015625)"/>
       <path id="DejaVuSans-59" d="M 191 3500 
L 800 3500 
L 1894 563 
L 2988 3500 
L 3597 3500 
L 2284 0 
L 1503 0 
L 191 3500 
z
" transform="scale(0.015625)"/>
       <path id="DejaVuSans-55" d="M 2631 2963 
Q 2534 3019 2420 3045 
Q 2306 3072 2169 3072 
Q 1681 3072 1420 2755 
Q 1159 2438 1159 1844 
L 1159 0 
L 581 0 
L 581 3500 
L 1159 3500 
L 1159 2956 
Q 1341 3275 1631 3429 
Q 1922 3584 2338 3584 
Q 2397 3584 2469 3576 
Q 2541 3569 2628 3553 
L 2631 2963 
z
" transform="scale(0.015625)"/>
       <path id="DejaVuSans-4b" d="M 3513 2113 
L 3513 0 
L 2938 0 
L 2938 2094 
Q 2938 2591 2744 2837 
Q 2550 3084 2163 3084 
Q 1697 3084 1428 2787 
Q 1159 2491 1159 1978 
L 1159 0 
L 581 0 
L 581 4863 
L 1159 4863 
L 1159 2956 
Q 1366 3272 1645 3428 
Q 1925 3584 2291 3584 
Q 2894 3584 3203 3211 
Q 3513 2838 3513 2113 
z
" transform="scale(0.015625)"/>
       <path id="DejaVuSans-44" d="M 2194 1759 
Q 1497 1759 1228 1600 
Q 959 1441 959 1056 
Q 959 750 1161 570 
Q 1363 391 1709 391 
Q 2188 391 2477 730 
Q 2766 1069 2766 1631 
L 2766 1759 
L 2194 1759 
z
M 3341 1997 
L 3341 0 
L 2766 0 
L 2766 531 
Q 2569 213 2275 61 
Q 1981 -91 1556 -91 
Q 1019 -91 701 211 
Q 384 513 384 1019 
Q 384 1609 779 1909 
Q 1175 2209 1959 2209 
L 2766 2209 
L 2766 2266 
Q 2766 2663 2505 2880 
Q 2244 3097 1772 3097 
Q 1472 3097 1187 3025 
Q 903 2953 641 2809 
L 641 3341 
Q 956 3463 1253 3523 
Q 1550 3584 1831 3584 
Q 2591 3584 2966 3190 
Q 3341 2797 3341 1997 
z
" transform="scale(0.015625)"/>
       <path id="DejaVuSans-47" d="M 2906 2969 
L 2906 4863 
L 3481 4863 
L 3481 0 
L 2906 0 
L 2906 525 
Q 2725 213 2448 61 
Q 2172 -91 1784 -91 
Q 1150 -91 751 415 
Q 353 922 353 1747 
Q 353 2572 751 3078 
Q 1150 3584 1784 3584 
Q 2172 3584 2448 3432 
Q 2725 3281 2906 2969 
z
M 947 1747 
Q 947 1113 1208 752 
Q 1469 391 1925 391 
Q 2381 391 2643 752 
Q 2906 1113 2906 1747 
Q 2906 2381 2643 2742 
Q 2381 3103 1925 3103 
Q 1469 3103 1208 2742 
Q 947 2381 947 1747 
z
" transform="scale(0.015625)"/>
       <path id="DejaVuSans-b" d="M 1984 4856 
Q 1566 4138 1362 3434 
Q 1159 2731 1159 2009 
Q 1159 1288 1364 580 
Q 1569 -128 1984 -844 
L 1484 -844 
Q 1016 -109 783 600 
Q 550 1309 550 2009 
Q 550 2706 781 3412 
Q 1013 4119 1484 4856 
L 1984 4856 
z
" transform="scale(0.015625)"/>
       <path id="DejaVuSans-8" d="M 4653 2053 
Q 4381 2053 4226 1822 
Q 4072 1591 4072 1178 
Q 4072 772 4226 539 
Q 4381 306 4653 306 
Q 4919 306 5073 539 
Q 5228 772 5228 1178 
Q 5228 1588 5073 1820 
Q 4919 2053 4653 2053 
z
M 4653 2450 
Q 5147 2450 5437 2106 
Q 5728 1763 5728 1178 
Q 5728 594 5436 251 
Q 5144 -91 4653 -91 
Q 4153 -91 3862 251 
Q 3572 594 3572 1178 
Q 3572 1766 3864 2108 
Q 4156 2450 4653 2450 
z
M 1428 4353 
Q 1159 4353 1004 4120 
Q 850 3888 850 3481 
Q 850 3069 1003 2837 
Q 1156 2606 1428 2606 
Q 1700 2606 1854 2837 
Q 2009 3069 2009 3481 
Q 2009 3884 1853 4118 
Q 1697 4353 1428 4353 
z
M 4250 4750 
L 4750 4750 
L 1831 -91 
L 1331 -91 
L 4250 4750 
z
M 1428 4750 
Q 1922 4750 2215 4408 
Q 2509 4066 2509 3481 
Q 2509 2891 2217 2550 
Q 1925 2209 1428 2209 
Q 931 2209 642 2551 
Q 353 2894 353 3481 
Q 353 4063 643 4406 
Q 934 4750 1428 4750 
z
" transform="scale(0.015625)"/>
       <path id="DejaVuSans-c" d="M 513 4856 
L 1013 4856 
Q 1481 4119 1714 3412 
Q 1947 2706 1947 2009 
Q 1947 1309 1714 600 
Q 1481 -109 1013 -844 
L 513 -844 
Q 928 -128 1133 580 
Q 1338 1288 1338 2009 
Q 1338 2731 1133 3434 
Q 928 4138 513 4856 
z
" transform="scale(0.015625)"/>
      </defs>
      <use xlink:href="#DejaVuSans-37"/>
      <use xlink:href="#DejaVuSans-4c" transform="translate(58 0)"/>
      <use xlink:href="#DejaVuSans-50" transform="translate(85.78125 0)"/>
      <use xlink:href="#DejaVuSans-48" transform="translate(183.1875 0)"/>
      <use xlink:href="#DejaVuSans-3" transform="translate(244.71875 0)"/>
      <use xlink:href="#DejaVuSans-32" transform="translate(276.5 0)"/>
      <use xlink:href="#DejaVuSans-59" transform="translate(355.21875 0)"/>
      <use xlink:href="#DejaVuSans-48" transform="translate(414.40625 0)"/>
      <use xlink:href="#DejaVuSans-55" transform="translate(475.9375 0)"/>
      <use xlink:href="#DejaVuSans-4b" transform="translate(515.296875 0)"/>
      <use xlink:href="#DejaVuSans-48" transform="translate(578.671875 0)"/>
      <use xlink:href="#DejaVuSans-44" transform="translate(640.203125 0)"/>
      <use xlink:href="#DejaVuSans-47" transform="translate(701.484375 0)"/>
      <use xlink:href="#DejaVuSans-3" transform="translate(764.96875 0)"/>
      <use xlink:href="#DejaVuSans-b" transform="translate(796.75 0)"/>
      <use xlink:href="#DejaVuSans-8" transform="translate(835.765625 0)"/>
      <use xlink:href="#DejaVuSans-c" transform="translate(930.78125 0)"/>
     </g>
    </g>
   </g>
   <g id="matplotlib.axis_2">
    <g id="ytick_1">
     <g id="line2d_9">
      <path d="M 49.199531 397.317187 
L 607.199531 397.317187 
" clip-path="url(#pd1d4ab3f56)" style="fill: none; stroke: #cccccc; stroke-opacity: 0.3; stroke-linecap: round"/>
     </g>
     <g id="text_10">
      <!-- 0 -->
      <g style="fill: #262626" transform="translate(29.201406 403.585254) scale(0.165 -0.165)">
       <use xlink:href="#DejaVuSans-13"/>
      </g>
     </g>
    </g>
    <g id="ytick_2">
     <g id="line2d_10">
      <path d="M 49.199531 340.137285 
L 607.199531 340.137285 
" clip-path="url(#pd1d4ab3f56)" style="fill: none; stroke: #cccccc; stroke-opacity: 0.3; stroke-linecap: round"/>
     </g>
     <g id="text_11">
      <!-- 1 -->
      <g style="fill: #262626" transform="translate(29.201406 346.405351) scale(0.165 -0.165)">
       <use xlink:href="#DejaVuSans-14"/>
      </g>
     </g>
    </g>
    <g id="ytick_3">
     <g id="line2d_11">
      <path d="M 49.199531 282.957382 
L 607.199531 282.957382 
" clip-path="url(#pd1d4ab3f56)" style="fill: none; stroke: #cccccc; stroke-opacity: 0.3; stroke-linecap: round"/>
     </g>
     <g id="text_12">
      <!-- 2 -->
      <g style="fill: #262626" transform="translate(29.201406 289.225448) scale(0.165 -0.165)">
       <use xlink:href="#DejaVuSans-15"/>
      </g>
     </g>
    </g>
    <g id="ytick_4">
     <g id="line2d_12">
      <path d="M 49.199531 225.777479 
L 607.199531 225.777479 
" clip-path="url(#pd1d4ab3f56)" style="fill: none; stroke: #cccccc; stroke-opacity: 0.3; stroke-linecap: round"/>
     </g>
     <g id="text_13">
      <!-- 3 -->
      <g style="fill: #262626" transform="translate(29.201406 232.045546) scale(0.165 -0.165)">
       <use xlink:href="#DejaVuSans-16"/>
      </g>
     </g>
    </g>
    <g id="ytick_5">
     <g id="line2d_13">
      <path d="M 49.199531 168.597576 
L 607.199531 168.597576 
" clip-path="url(#pd1d4ab3f56)" style="fill: none; stroke: #cccccc; stroke-opacity: 0.3; stroke-linecap: round"/>
     </g>
     <g id="text_14">
      <!-- 4 -->
      <g style="fill: #262626" transform="translate(29.201406 174.865643) scale(0.165 -0.165)">
       <use xlink:href="#DejaVuSans-17"/>
      </g>
     </g>
    </g>
    <g id="ytick_6">
     <g id="line2d_14">
      <path d="M 49.199531 111.417674 
L 607.199531 111.417674 
" clip-path="url(#pd1d4ab3f56)" style="fill: none; stroke: #cccccc; stroke-opacity: 0.3; stroke-linecap: round"/>
     </g>
     <g id="text_15">
      <!-- 5 -->
      <g style="fill: #262626" transform="translate(29.201406 117.68574) scale(0.165 -0.165)">
       <use xlink:href="#DejaVuSans-18"/>
      </g>
     </g>
    </g>
    <g id="ytick_7">
     <g id="line2d_15">
      <path d="M 49.199531 54.237771 
L 607.199531 54.237771 
" clip-path="url(#pd1d4ab3f56)" style="fill: none; stroke: #cccccc; stroke-opacity: 0.3; stroke-linecap: round"/>
     </g>
     <g id="text_16">
      <!-- 6 -->
      <g style="fill: #262626" transform="translate(29.201406 60.505837) scale(0.165 -0.165)">
       <use xlink:href="#DejaVuSans-19"/>
      </g>
     </g>
    </g>
    <g id="text_17">
     <!-- CO₂ Savings (%) -->
     <g style="fill: #262626" transform="translate(20.877187 294.351562) rotate(-90) scale(0.18 -0.18)">
      <defs>
       <path id="DejaVuSans-26" d="M 4122 4306 
L 4122 3641 
Q 3803 3938 3442 4084 
Q 3081 4231 2675 4231 
Q 1875 4231 1450 3742 
Q 1025 3253 1025 2328 
Q 1025 1406 1450 917 
Q 1875 428 2675 428 
Q 3081 428 3442 575 
Q 3803 722 4122 1019 
L 4122 359 
Q 3791 134 3420 21 
Q 3050 -91 2638 -91 
Q 1578 -91 968 557 
Q 359 1206 359 2328 
Q 359 3453 968 4101 
Q 1578 4750 2638 4750 
Q 3056 4750 3426 4639 
Q 3797 4528 4122 4306 
z
" transform="scale(0.015625)"/>
       <path id="DejaVuSans-b5d" d="M 838 356 
L 2163 356 
L 2163 0 
L 294 0 
L 294 343 
Q 400 440 597 615 
Q 1672 1568 1672 1862 
Q 1672 2068 1509 2194 
Q 1347 2321 1081 2321 
Q 919 2321 728 2266 
Q 538 2212 313 2103 
L 313 2487 
Q 553 2575 761 2618 
Q 969 2662 1147 2662 
Q 1600 2662 1872 2456 
Q 2144 2250 2144 1912 
Q 2144 1478 1109 590 
Q 934 440 838 356 
z
" transform="scale(0.015625)"/>
       <path id="DejaVuSans-36" d="M 3425 4513 
L 3425 3897 
Q 3066 4069 2747 4153 
Q 2428 4238 2131 4238 
Q 1616 4238 1336 4038 
Q 1056 3838 1056 3469 
Q 1056 3159 1242 3001 
Q 1428 2844 1947 2747 
L 2328 2669 
Q 3034 2534 3370 2195 
Q 3706 1856 3706 1288 
Q 3706 609 3251 259 
Q 2797 -91 1919 -91 
Q 1588 -91 1214 -16 
Q 841 59 441 206 
L 441 856 
Q 825 641 1194 531 
Q 1563 422 1919 422 
Q 2459 422 2753 634 
Q 3047 847 3047 1241 
Q 3047 1584 2836 1778 
Q 2625 1972 2144 2069 
L 1759 2144 
Q 1053 2284 737 2584 
Q 422 2884 422 3419 
Q 422 4038 858 4394 
Q 1294 4750 2059 4750 
Q 2388 4750 2728 4690 
Q 3069 4631 3425 4513 
z
" transform="scale(0.015625)"/>
       <path id="DejaVuSans-51" d="M 3513 2113 
L 3513 0 
L 2938 0 
L 2938 2094 
Q 2938 2591 2744 2837 
Q 2550 3084 2163 3084 
Q 1697 3084 1428 2787 
Q 1159 2491 1159 1978 
L 1159 0 
L 581 0 
L 581 3500 
L 1159 3500 
L 1159 2956 
Q 1366 3272 1645 3428 
Q 1925 3584 2291 3584 
Q 2894 3584 3203 3211 
Q 3513 2838 3513 2113 
z
" transform="scale(0.015625)"/>
       <path id="DejaVuSans-4a" d="M 2906 1791 
Q 2906 2416 2648 2759 
Q 2391 3103 1925 3103 
Q 1463 3103 1205 2759 
Q 947 2416 947 1791 
Q 947 1169 1205 825 
Q 1463 481 1925 481 
Q 2391 481 2648 825 
Q 2906 1169 2906 1791 
z
M 3481 434 
Q 3481 -459 3084 -895 
Q 2688 -1331 1869 -1331 
Q 1566 -1331 1297 -1286 
Q 1028 -1241 775 -1147 
L 775 -588 
Q 1028 -725 1275 -790 
Q 1522 -856 1778 -856 
Q 2344 -856 2625 -561 
Q 2906 -266 2906 331 
L 2906 616 
Q 2728 306 2450 153 
Q 2172 0 1784 0 
Q 1141 0 747 490 
Q 353 981 353 1791 
Q 353 2603 747 3093 
Q 1141 3584 1784 3584 
Q 2172 3584 2450 3431 
Q 2728 3278 2906 2969 
L 2906 3500 
L 3481 3500 
L 3481 434 
z
" transform="scale(0.015625)"/>
       <path id="DejaVuSans-56" d="M 2834 3397 
L 2834 2853 
Q 2591 2978 2328 3040 
Q 2066 3103 1784 3103 
Q 1356 3103 1142 2972 
Q 928 2841 928 2578 
Q 928 2378 1081 2264 
Q 1234 2150 1697 2047 
L 1894 2003 
Q 2506 1872 2764 1633 
Q 3022 1394 3022 966 
Q 3022 478 2636 193 
Q 2250 -91 1575 -91 
Q 1294 -91 989 -36 
Q 684 19 347 128 
L 347 722 
Q 666 556 975 473 
Q 1284 391 1588 391 
Q 1994 391 2212 530 
Q 2431 669 2431 922 
Q 2431 1156 2273 1281 
Q 2116 1406 1581 1522 
L 1381 1569 
Q 847 1681 609 1914 
Q 372 2147 372 2553 
Q 372 3047 722 3315 
Q 1072 3584 1716 3584 
Q 2034 3584 2315 3537 
Q 2597 3491 2834 3397 
z
" transform="scale(0.015625)"/>
      </defs>
      <use xlink:href="#DejaVuSans-26"/>
      <use xlink:href="#DejaVuSans-32" transform="translate(69.828125 0)"/>
      <use xlink:href="#DejaVuSans-b5d" transform="translate(148.546875 0)"/>
      <use xlink:href="#DejaVuSans-3" transform="translate(188.640625 0)"/>
      <use xlink:href="#DejaVuSans-36" transform="translate(220.421875 0)"/>
      <use xlink:href="#DejaVuSans-44" transform="translate(283.90625 0)"/>
      <use xlink:href="#DejaVuSans-59" transform="translate(345.1875 0)"/>
      <use xlink:href="#DejaVuSans-4c" transform="translate(404.375 0)"/>
      <use xlink:href="#DejaVuSans-51" transform="translate(432.15625 0)"/>
      <use xlink:href="#DejaVuSans-4a" transform="translate(495.53125 0)"/>
      <use xlink:href="#DejaVuSans-56" transform="translate(559.015625 0)"/>
      <use xlink:href="#DejaVuSans-3" transform="translate(611.109375 0)"/>
      <use xlink:href="#DejaVuSans-b" transform="translate(642.890625 0)"/>
      <use xlink:href="#DejaVuSans-8" transform="translate(681.90625 0)"/>
      <use xlink:href="#DejaVuSans-c" transform="translate(776.921875 0)"/>
     </g>
    </g>
   </g>
   <g id="line2d_16">
    <path d="M 74.563168 397.317187 
L 75.262854 395.029991 
L 75.962541 394.458192 
L 75.962541 391.599197 
L 76.662227 388.168403 
L 77.361914 387.024805 
L 78.0616 386.453006 
L 87.857212 385.881207 
L 90.655958 368.727236 
L 103.950001 367.583638 
L 108.148121 366.44004 
L 109.547494 355.575858 
L 113.045926 351.001466 
L 124.940597 348.71427 
L 129.138716 278.954789 
L 152.228371 257.226426 
L 176.017713 233.782666 
L 194.209563 218.344092 
L 204.005174 208.623508 
L 241.088559 184.607949 
L 273.973826 179.461758 
L 294.964422 173.743768 
L 301.2616 173.171969 
L 306.159406 169.741175 
L 315.955017 166.882179 
L 323.651569 165.166782 
L 326.450315 161.164189 
L 329.249061 160.59239 
L 336.945613 152.587204 
L 363.533701 149.15641 
L 364.933074 141.151223 
L 385.923669 127.428046 
L 398.518027 122.281855 
L 410.412697 121.138257 
L 425.106114 117.707463 
L 436.301099 114.276669 
L 447.496083 107.98688 
L 455.192635 99.409894 
L 462.889186 93.120105 
L 474.783857 82.827722 
L 479.681663 77.109732 
L 490.176961 73.678938 
L 502.771318 73.107139 
L 504.170691 70.819943 
L 515.365675 69.676345 
L 527.260346 69.104546 
L 527.960033 67.389149 
L 528.659719 66.81735 
L 530.059092 65.673752 
L 531.458465 65.101952 
L 536.356271 64.530153 
L 537.755644 63.386555 
L 538.455331 62.242957 
L 539.854704 59.955761 
L 540.55439 58.812163 
L 541.254077 58.240364 
L 541.953763 57.668565 
L 551.749375 55.381369 
L 552.449061 54.237771 
L 553.148748 53.665972 
L 554.548121 53.094173 
L 555.247807 51.950575 
L 565.743105 50.806977 
L 566.442791 49.663379 
L 567.142478 49.09158 
L 578.337462 46.804384 
L 579.037149 45.660786 
L 579.736835 45.088987 
L 580.436522 44.517187 
" clip-path="url(#pd1d4ab3f56)" style="fill: none; stroke: #2563eb; stroke-width: 2; stroke-linecap: round"/>
    <defs>
     <path id="m8a45dcb720" d="M 0 2 
C 0.530406 2 1.03916 1.789267 1.414214 1.414214 
C 1.789267 1.03916 2 0.530406 2 0 
C 2 -0.530406 1.789267 -1.03916 1.414214 -1.414214 
C 1.03916 -1.789267 0.530406 -2 0 -2 
C -0.530406 -2 -1.03916 -1.789267 -1.414214 -1.414214 
C -1.789267 -1.03916 -2 -0.530406 -2 0 
C -2 0.530406 -1.789267 1.03916 -1.414214 1.414214 
C -1.03916 1.789267 -0.530406 2 0 2 
z
" style="stroke: #2563eb"/>
    </defs>
    <g clip-path="url(#pd1d4ab3f56)">
     <use xlink:href="#m8a45dcb720" x="74.563168" y="397.317187" style="fill: #2563eb; stroke: #2563eb"/>
     <use xlink:href="#m8a45dcb720" x="75.262854" y="395.029991" style="fill: #2563eb; stroke: #2563eb"/>
     <use xlink:href="#m8a45dcb720" x="75.962541" y="394.458192" style="fill: #2563eb; stroke: #2563eb"/>
     <use xlink:href="#m8a45dcb720" x="75.962541" y="391.599197" style="fill: #2563eb; stroke: #2563eb"/>
     <use xlink:href="#m8a45dcb720" x="76.662227" y="388.168403" style="fill: #2563eb; stroke: #2563eb"/>
     <use xlink:href="#m8a45dcb720" x="77.361914" y="387.024805" style="fill: #2563eb; stroke: #2563eb"/>
     <use xlink:href="#m8a45dcb720" x="78.0616" y="386.453006" style="fill: #2563eb; stroke: #2563eb"/>
     <use xlink:href="#m8a45dcb720" x="87.857212" y="385.881207" style="fill: #2563eb; stroke: #2563eb"/>
     <use xlink:href="#m8a45dcb720" x="90.655958" y="368.727236" style="fill: #2563eb; stroke: #2563eb"/>
     <use xlink:href="#m8a45dcb720" x="103.950001" y="367.583638" style="fill: #2563eb; stroke: #2563eb"/>
     <use xlink:href="#m8a45dcb720" x="108.148121" y="366.44004" style="fill: #2563eb; stroke: #2563eb"/>
     <use xlink:href="#m8a45dcb720" x="109.547494" y="355.575858" style="fill: #2563eb; stroke: #2563eb"/>
     <use xlink:href="#m8a45dcb720" x="113.045926" y="351.001466" style="fill: #2563eb; stroke: #2563eb"/>
     <use xlink:href="#m8a45dcb720" x="124.940597" y="348.71427" style="fill: #2563eb; stroke: #2563eb"/>
     <use xlink:href="#m8a45dcb720" x="129.138716" y="278.954789" style="fill: #2563eb; stroke: #2563eb"/>
     <use xlink:href="#m8a45dcb720" x="152.228371" y="257.226426" style="fill: #2563eb; stroke: #2563eb"/>
     <use xlink:href="#m8a45dcb720" x="176.017713" y="233.782666" style="fill: #2563eb; stroke: #2563eb"/>
     <use xlink:href="#m8a45dcb720" x="194.209563" y="218.344092" style="fill: #2563eb; stroke: #2563eb"/>
     <use xlink:href="#m8a45dcb720" x="204.005174" y="208.623508" style="fill: #2563eb; stroke: #2563eb"/>
     <use xlink:href="#m8a45dcb720" x="241.088559" y="184.607949" style="fill: #2563eb; stroke: #2563eb"/>
     <use xlink:href="#m8a45dcb720" x="273.973826" y="179.461758" style="fill: #2563eb; stroke: #2563eb"/>
     <use xlink:href="#m8a45dcb720" x="294.964422" y="173.743768" style="fill: #2563eb; stroke: #2563eb"/>
     <use xlink:href="#m8a45dcb720" x="301.2616" y="173.171969" style="fill: #2563eb; stroke: #2563eb"/>
     <use xlink:href="#m8a45dcb720" x="306.159406" y="169.741175" style="fill: #2563eb; stroke: #2563eb"/>
     <use xlink:href="#m8a45dcb720" x="315.955017" y="166.882179" style="fill: #2563eb; stroke: #2563eb"/>
     <use xlink:href="#m8a45dcb720" x="323.651569" y="165.166782" style="fill: #2563eb; stroke: #2563eb"/>
     <use xlink:href="#m8a45dcb720" x="326.450315" y="161.164189" style="fill: #2563eb; stroke: #2563eb"/>
     <use xlink:href="#m8a45dcb720" x="329.249061" y="160.59239" style="fill: #2563eb; stroke: #2563eb"/>
     <use xlink:href="#m8a45dcb720" x="336.945613" y="152.587204" style="fill: #2563eb; stroke: #2563eb"/>
     <use xlink:href="#m8a45dcb720" x="363.533701" y="149.15641" style="fill: #2563eb; stroke: #2563eb"/>
     <use xlink:href="#m8a45dcb720" x="364.933074" y="141.151223" style="fill: #2563eb; stroke: #2563eb"/>
     <use xlink:href="#m8a45dcb720" x="385.923669" y="127.428046" style="fill: #2563eb; stroke: #2563eb"/>
     <use xlink:href="#m8a45dcb720" x="398.518027" y="122.281855" style="fill: #2563eb; stroke: #2563eb"/>
     <use xlink:href="#m8a45dcb720" x="410.412697" y="121.138257" style="fill: #2563eb; stroke: #2563eb"/>
     <use xlink:href="#m8a45dcb720" x="425.106114" y="117.707463" style="fill: #2563eb; stroke: #2563eb"/>
     <use xlink:href="#m8a45dcb720" x="436.301099" y="114.276669" style="fill: #2563eb; stroke: #2563eb"/>
     <use xlink:href="#m8a45dcb720" x="447.496083" y="107.98688" style="fill: #2563eb; stroke: #2563eb"/>
     <use xlink:href="#m8a45dcb720" x="455.192635" y="99.409894" style="fill: #2563eb; stroke: #2563eb"/>
     <use xlink:href="#m8a45dcb720" x="462.889186" y="93.120105" style="fill: #2563eb; stroke: #2563eb"/>
     <use xlink:href="#m8a45dcb720" x="474.783857" y="82.827722" style="fill: #2563eb; stroke: #2563eb"/>
     <use xlink:href="#m8a45dcb720" x="479.681663" y="77.109732" style="fill: #2563eb; stroke: #2563eb"/>
     <use xlink:href="#m8a45dcb720" x="490.176961" y="73.678938" style="fill: #2563eb; stroke: #2563eb"/>
     <use xlink:href="#m8a45dcb720" x="502.771318" y="73.107139" style="fill: #2563eb; stroke: #2563eb"/>
     <use xlink:href="#m8a45dcb720" x="504.170691" y="70.819943" style="fill: #2563eb; stroke: #2563eb"/>
     <use xlink:href="#m8a45dcb720" x="515.365675" y="69.676345" style="fill: #2563eb; stroke: #2563eb"/>
     <use xlink:href="#m8a45dcb720" x="527.260346" y="69.104546" style="fill: #2563eb; stroke: #2563eb"/>
     <use xlink:href="#m8a45dcb720" x="527.960033" y="67.389149" style="fill: #2563eb; stroke: #2563eb"/>
     <use xlink:href="#m8a45dcb720" x="528.659719" y="66.81735" style="fill: #2563eb; stroke: #2563eb"/>
     <use xlink:href="#m8a45dcb720" x="530.059092" y="65.673752" style="fill: #2563eb; stroke: #2563eb"/>
     <use xlink:href="#m8a45dcb720" x="531.458465" y="65.101952" style="fill: #2563eb; stroke: #2563eb"/>
     <use xlink:href="#m8a45dcb720" x="536.356271" y="64.530153" style="fill: #2563eb; stroke: #2563eb"/>
     <use xlink:href="#m8a45dcb720" x="537.755644" y="63.386555" style="fill: #2563eb; stroke: #2563eb"/>
     <use xlink:href="#m8a45dcb720" x="538.455331" y="62.242957" style="fill: #2563eb; stroke: #2563eb"/>
     <use xlink:href="#m8a45dcb720" x="539.854704" y="59.955761" style="fill: #2563eb; stroke: #2563eb"/>
     <use xlink:href="#m8a45dcb720" x="540.55439" y="58.812163" style="fill: #2563eb; stroke: #2563eb"/>
     <use xlink:href="#m8a45dcb720" x="541.254077" y="58.240364" style="fill: #2563eb; stroke: #2563eb"/>
     <use xlink:href="#m8a45dcb720" x="541.953763" y="57.668565" style="fill: #2563eb; stroke: #2563eb"/>
     <use xlink:href="#m8a45dcb720" x="551.749375" y="55.381369" style="fill: #2563eb; stroke: #2563eb"/>
     <use xlink:href="#m8a45dcb720" x="552.449061" y="54.237771" style="fill: #2563eb; stroke: #2563eb"/>
     <use xlink:href="#m8a45dcb720" x="553.148748" y="53.665972" style="fill: #2563eb; stroke: #2563eb"/>
     <use xlink:href="#m8a45dcb720" x="554.548121" y="53.094173" style="fill: #2563eb; stroke: #2563eb"/>
     <use xlink:href="#m8a45dcb720" x="555.247807" y="51.950575" style="fill: #2563eb; stroke: #2563eb"/>
     <use xlink:href="#m8a45dcb720" x="565.743105" y="50.806977" style="fill: #2563eb; stroke: #2563eb"/>
     <use xlink:href="#m8a45dcb720" x="566.442791" y="49.663379" style="fill: #2563eb; stroke: #2563eb"/>
     <use xlink:href="#m8a45dcb720" x="567.142478" y="49.09158" style="fill: #2563eb; stroke: #2563eb"/>
     <use xlink:href="#m8a45dcb720" x="578.337462" y="46.804384" style="fill: #2563eb; stroke: #2563eb"/>
     <use xlink:href="#m8a45dcb720" x="579.037149" y="45.660786" style="fill: #2563eb; stroke: #2563eb"/>
     <use xlink:href="#m8a45dcb720" x="579.736835" y="45.088987" style="fill: #2563eb; stroke: #2563eb"/>
     <use xlink:href="#m8a45dcb720" x="580.436522" y="44.517187" style="fill: #2563eb; stroke: #2563eb"/>
    </g>
   </g>
   <g id="line2d_17">
    <path d="M 74.563168 397.317187 
L 75.262854 396.173589 
L 75.262854 395.60179 
L 75.262854 395.029991 
L 75.262854 394.458192 
L 75.962541 392.170996 
L 76.662227 391.027398 
L 77.361914 390.455599 
L 78.0616 389.8838 
L 78.0616 389.312001 
L 79.460973 388.740202 
L 79.460973 387.024805 
L 82.259719 386.453006 
L 82.259719 382.450413 
L 82.259719 381.878614 
L 84.358779 379.019619 
L 85.058465 378.44782 
L 87.857212 376.732423 
L 88.556898 374.445226 
L 89.956271 373.301628 
L 90.655958 372.729829 
L 90.655958 372.15803 
L 93.454704 367.011839 
L 97.652823 365.868241 
L 101.151255 365.296442 
L 101.151255 364.152844 
L 101.850942 362.437447 
L 103.250315 361.293849 
L 103.250315 360.150251 
L 107.448434 357.291256 
L 110.946867 355.575858 
L 111.646553 349.857868 
L 119.343105 349.286069 
L 119.343105 346.998873 
L 120.742478 345.855275 
L 121.442164 342.424481 
L 122.841538 341.280883 
L 130.538089 335.562893 
L 136.835268 333.847495 
L 138.234641 330.9885 
L 138.934327 325.27051 
L 141.033387 321.839716 
L 142.43276 321.267917 
L 151.528685 319.55252 
L 153.627744 315.549927 
L 159.924923 314.406329 
L 161.324296 312.119132 
L 165.522415 308.116539 
L 168.321161 304.685745 
L 169.720534 302.398549 
L 182.314892 295.536961 
L 182.314892 294.393363 
L 188.61207 293.249764 
L 190.71113 290.962568 
L 192.110503 286.388176 
L 192.81019 283.529181 
L 193.509876 282.385583 
L 197.707995 281.813784 
L 198.407682 281.241985 
L 201.206428 280.670186 
L 201.906114 280.098387 
L 211.701726 277.811191 
L 211.701726 277.239392 
L 211.701726 276.667593 
L 213.101099 276.095794 
L 213.800785 275.523995 
L 214.500472 274.952196 
L 214.500472 274.380397 
L 224.296083 272.0932 
L 224.995769 271.521401 
L 225.695456 270.949602 
L 237.590127 270.377803 
L 238.289813 268.662406 
L 239.689186 267.518808 
L 241.088559 266.947009 
L 243.887306 266.37521 
L 244.586992 265.803411 
L 246.686052 265.231612 
L 261.379469 264.659813 
L 332.747494 264.088014 
L 334.146867 263.516215 
L 336.245926 262.944416 
L 338.344986 262.372617 
L 338.344986 261.800818 
L 341.843418 261.229019 
L 352.338716 260.65722 
" clip-path="url(#pd1d4ab3f56)" style="fill: none; stroke: #dc2626; stroke-width: 2; stroke-linecap: round"/>
    <defs>
     <path id="ma7b6746ca4" d="M 0 2 
C 0.530406 2 1.03916 1.789267 1.414214 1.414214 
C 1.789267 1.03916 2 0.530406 2 0 
C 2 -0.530406 1.789267 -1.03916 1.414214 -1.414214 
C 1.03916 -1.789267 0.530406 -2 0 -2 
C -0.530406 -2 -1.03916 -1.789267 -1.414214 -1.414214 
C -1.789267 -1.03916 -2 -0.530406 -2 0 
C -2 0.530406 -1.789267 1.03916 -1.414214 1.414214 
C -1.03916 1.789267 -0.530406 2 0 2 
z
" style="stroke: #dc2626"/>
    </defs>
    <g clip-path="url(#pd1d4ab3f56)">
     <use xlink:href="#ma7b6746ca4" x="74.563168" y="397.317187" style="fill: #dc2626; stroke: #dc2626"/>
     <use xlink:href="#ma7b6746ca4" x="75.262854" y="396.173589" style="fill: #dc2626; stroke: #dc2626"/>
     <use xlink:href="#ma7b6746ca4" x="75.262854" y="395.60179" style="fill: #dc2626; stroke: #dc2626"/>
     <use xlink:href="#ma7b6746ca4" x="75.262854" y="395.029991" style="fill: #dc2626; stroke: #dc2626"/>
     <use xlink:href="#ma7b6746ca4" x="75.262854" y="394.458192" style="fill: #dc2626; stroke: #dc2626"/>
     <use xlink:href="#ma7b6746ca4" x="75.962541" y="392.170996" style="fill: #dc2626; stroke: #dc2626"/>
     <use xlink:href="#ma7b6746ca4" x="76.662227" y="391.027398" style="fill: #dc2626; stroke: #dc2626"/>
     <use xlink:href="#ma7b6746ca4" x="77.361914" y="390.455599" style="fill: #dc2626; stroke: #dc2626"/>
     <use xlink:href="#ma7b6746ca4" x="78.0616" y="389.8838" style="fill: #dc2626; stroke: #dc2626"/>
     <use xlink:href="#ma7b6746ca4" x="78.0616" y="389.312001" style="fill: #dc2626; stroke: #dc2626"/>
     <use xlink:href="#ma7b6746ca4" x="79.460973" y="388.740202" style="fill: #dc2626; stroke: #dc2626"/>
     <use xlink:href="#ma7b6746ca4" x="79.460973" y="387.024805" style="fill: #dc2626; stroke: #dc2626"/>
     <use xlink:href="#ma7b6746ca4" x="82.259719" y="386.453006" style="fill: #dc2626; stroke: #dc2626"/>
     <use xlink:href="#ma7b6746ca4" x="82.259719" y="382.450413" style="fill: #dc2626; stroke: #dc2626"/>
     <use xlink:href="#ma7b6746ca4" x="82.259719" y="381.878614" style="fill: #dc2626; stroke: #dc2626"/>
     <use xlink:href="#ma7b6746ca4" x="84.358779" y="379.019619" style="fill: #dc2626; stroke: #dc2626"/>
     <use xlink:href="#ma7b6746ca4" x="85.058465" y="378.44782" style="fill: #dc2626; stroke: #dc2626"/>
     <use xlink:href="#ma7b6746ca4" x="87.857212" y="376.732423" style="fill: #dc2626; stroke: #dc2626"/>
     <use xlink:href="#ma7b6746ca4" x="88.556898" y="374.445226" style="fill: #dc2626; stroke: #dc2626"/>
     <use xlink:href="#ma7b6746ca4" x="89.956271" y="373.301628" style="fill: #dc2626; stroke: #dc2626"/>
     <use xlink:href="#ma7b6746ca4" x="90.655958" y="372.729829" style="fill: #dc2626; stroke: #dc2626"/>
     <use xlink:href="#ma7b6746ca4" x="90.655958" y="372.15803" style="fill: #dc2626; stroke: #dc2626"/>
     <use xlink:href="#ma7b6746ca4" x="93.454704" y="367.011839" style="fill: #dc2626; stroke: #dc2626"/>
     <use xlink:href="#ma7b6746ca4" x="97.652823" y="365.868241" style="fill: #dc2626; stroke: #dc2626"/>
     <use xlink:href="#ma7b6746ca4" x="101.151255" y="365.296442" style="fill: #dc2626; stroke: #dc2626"/>
     <use xlink:href="#ma7b6746ca4" x="101.151255" y="364.152844" style="fill: #dc2626; stroke: #dc2626"/>
     <use xlink:href="#ma7b6746ca4" x="101.850942" y="362.437447" style="fill: #dc2626; stroke: #dc2626"/>
     <use xlink:href="#ma7b6746ca4" x="103.250315" y="361.293849" style="fill: #dc2626; stroke: #dc2626"/>
     <use xlink:href="#ma7b6746ca4" x="103.250315" y="360.150251" style="fill: #dc2626; stroke: #dc2626"/>
     <use xlink:href="#ma7b6746ca4" x="107.448434" y="357.291256" style="fill: #dc2626; stroke: #dc2626"/>
     <use xlink:href="#ma7b6746ca4" x="110.946867" y="355.575858" style="fill: #dc2626; stroke: #dc2626"/>
     <use xlink:href="#ma7b6746ca4" x="111.646553" y="349.857868" style="fill: #dc2626; stroke: #dc2626"/>
     <use xlink:href="#ma7b6746ca4" x="119.343105" y="349.286069" style="fill: #dc2626; stroke: #dc2626"/>
     <use xlink:href="#ma7b6746ca4" x="119.343105" y="346.998873" style="fill: #dc2626; stroke: #dc2626"/>
     <use xlink:href="#ma7b6746ca4" x="120.742478" y="345.855275" style="fill: #dc2626; stroke: #dc2626"/>
     <use xlink:href="#ma7b6746ca4" x="121.442164" y="342.424481" style="fill: #dc2626; stroke: #dc2626"/>
     <use xlink:href="#ma7b6746ca4" x="122.841538" y="341.280883" style="fill: #dc2626; stroke: #dc2626"/>
     <use xlink:href="#ma7b6746ca4" x="130.538089" y="335.562893" style="fill: #dc2626; stroke: #dc2626"/>
     <use xlink:href="#ma7b6746ca4" x="136.835268" y="333.847495" style="fill: #dc2626; stroke: #dc2626"/>
     <use xlink:href="#ma7b6746ca4" x="138.234641" y="330.9885" style="fill: #dc2626; stroke: #dc2626"/>
     <use xlink:href="#ma7b6746ca4" x="138.934327" y="325.27051" style="fill: #dc2626; stroke: #dc2626"/>
     <use xlink:href="#ma7b6746ca4" x="141.033387" y="321.839716" style="fill: #dc2626; stroke: #dc2626"/>
     <use xlink:href="#ma7b6746ca4" x="142.43276" y="321.267917" style="fill: #dc2626; stroke: #dc2626"/>
     <use xlink:href="#ma7b6746ca4" x="151.528685" y="319.55252" style="fill: #dc2626; stroke: #dc2626"/>
     <use xlink:href="#ma7b6746ca4" x="153.627744" y="315.549927" style="fill: #dc2626; stroke: #dc2626"/>
     <use xlink:href="#ma7b6746ca4" x="159.924923" y="314.406329" style="fill: #dc2626; stroke: #dc2626"/>
     <use xlink:href="#ma7b6746ca4" x="161.324296" y="312.119132" style="fill: #dc2626; stroke: #dc2626"/>
     <use xlink:href="#ma7b6746ca4" x="165.522415" y="308.116539" style="fill: #dc2626; stroke: #dc2626"/>
     <use xlink:href="#ma7b6746ca4" x="168.321161" y="304.685745" style="fill: #dc2626; stroke: #dc2626"/>
     <use xlink:href="#ma7b6746ca4" x="169.720534" y="302.398549" style="fill: #dc2626; stroke: #dc2626"/>
     <use xlink:href="#ma7b6746ca4" x="182.314892" y="295.536961" style="fill: #dc2626; stroke: #dc2626"/>
     <use xlink:href="#ma7b6746ca4" x="182.314892" y="294.393363" style="fill: #dc2626; stroke: #dc2626"/>
     <use xlink:href="#ma7b6746ca4" x="188.61207" y="293.249764" style="fill: #dc2626; stroke: #dc2626"/>
     <use xlink:href="#ma7b6746ca4" x="190.71113" y="290.962568" style="fill: #dc2626; stroke: #dc2626"/>
     <use xlink:href="#ma7b6746ca4" x="192.110503" y="286.388176" style="fill: #dc2626; stroke: #dc2626"/>
     <use xlink:href="#ma7b6746ca4" x="192.81019" y="283.529181" style="fill: #dc2626; stroke: #dc2626"/>
     <use xlink:href="#ma7b6746ca4" x="193.509876" y="282.385583" style="fill: #dc2626; stroke: #dc2626"/>
     <use xlink:href="#ma7b6746ca4" x="197.707995" y="281.813784" style="fill: #dc2626; stroke: #dc2626"/>
     <use xlink:href="#ma7b6746ca4" x="198.407682" y="281.241985" style="fill: #dc2626; stroke: #dc2626"/>
     <use xlink:href="#ma7b6746ca4" x="201.206428" y="280.670186" style="fill: #dc2626; stroke: #dc2626"/>
     <use xlink:href="#ma7b6746ca4" x="201.906114" y="280.098387" style="fill: #dc2626; stroke: #dc2626"/>
     <use xlink:href="#ma7b6746ca4" x="211.701726" y="277.811191" style="fill: #dc2626; stroke: #dc2626"/>
     <use xlink:href="#ma7b6746ca4" x="211.701726" y="277.239392" style="fill: #dc2626; stroke: #dc2626"/>
     <use xlink:href="#ma7b6746ca4" x="211.701726" y="276.667593" style="fill: #dc2626; stroke: #dc2626"/>
     <use xlink:href="#ma7b6746ca4" x="213.101099" y="276.095794" style="fill: #dc2626; stroke: #dc2626"/>
     <use xlink:href="#ma7b6746ca4" x="213.800785" y="275.523995" style="fill: #dc2626; stroke: #dc2626"/>
     <use xlink:href="#ma7b6746ca4" x="214.500472" y="274.952196" style="fill: #dc2626; stroke: #dc2626"/>
     <use xlink:href="#ma7b6746ca4" x="214.500472" y="274.380397" style="fill: #dc2626; stroke: #dc2626"/>
     <use xlink:href="#ma7b6746ca4" x="224.296083" y="272.0932" style="fill: #dc2626; stroke: #dc2626"/>
     <use xlink:href="#ma7b6746ca4" x="224.995769" y="271.521401" style="fill: #dc2626; stroke: #dc2626"/>
     <use xlink:href="#ma7b6746ca4" x="225.695456" y="270.949602" style="fill: #dc2626; stroke: #dc2626"/>
     <use xlink:href="#ma7b6746ca4" x="237.590127" y="270.377803" style="fill: #dc2626; stroke: #dc2626"/>
     <use xlink:href="#ma7b6746ca4" x="238.289813" y="268.662406" style="fill: #dc2626; stroke: #dc2626"/>
     <use xlink:href="#ma7b6746ca4" x="239.689186" y="267.518808" style="fill: #dc2626; stroke: #dc2626"/>
     <use xlink:href="#ma7b6746ca4" x="241.088559" y="266.947009" style="fill: #dc2626; stroke: #dc2626"/>
     <use xlink:href="#ma7b6746ca4" x="243.887306" y="266.37521" style="fill: #dc2626; stroke: #dc2626"/>
     <use xlink:href="#ma7b6746ca4" x="244.586992" y="265.803411" style="fill: #dc2626; stroke: #dc2626"/>
     <use xlink:href="#ma7b6746ca4" x="246.686052" y="265.231612" style="fill: #dc2626; stroke: #dc2626"/>
     <use xlink:href="#ma7b6746ca4" x="261.379469" y="264.659813" style="fill: #dc2626; stroke: #dc2626"/>
     <use xlink:href="#ma7b6746ca4" x="332.747494" y="264.088014" style="fill: #dc2626; stroke: #dc2626"/>
     <use xlink:href="#ma7b6746ca4" x="334.146867" y="263.516215" style="fill: #dc2626; stroke: #dc2626"/>
     <use xlink:href="#ma7b6746ca4" x="336.245926" y="262.944416" style="fill: #dc2626; stroke: #dc2626"/>
     <use xlink:href="#ma7b6746ca4" x="338.344986" y="262.372617" style="fill: #dc2626; stroke: #dc2626"/>
     <use xlink:href="#ma7b6746ca4" x="338.344986" y="261.800818" style="fill: #dc2626; stroke: #dc2626"/>
     <use xlink:href="#ma7b6746ca4" x="341.843418" y="261.229019" style="fill: #dc2626; stroke: #dc2626"/>
     <use xlink:href="#ma7b6746ca4" x="352.338716" y="260.65722" style="fill: #dc2626; stroke: #dc2626"/>
    </g>
   </g>
   <g id="patch_3">
    <path d="M 49.199531 414.957187 
L 49.199531 26.877187 
" style="fill: none; stroke: #cccccc; stroke-width: 1.25; stroke-linejoin: miter; stroke-linecap: square"/>
   </g>
   <g id="patch_4">
    <path d="M 607.199531 414.957187 
L 607.199531 26.877187 
" style="fill: none; stroke: #cccccc; stroke-width: 1.25; stroke-linejoin: miter; stroke-linecap: square"/>
   </g>
   <g id="patch_5">
    <path d="M 49.199531 414.957187 
L 607.199531 414.957187 
" style="fill: none; stroke: #cccccc; stroke-width: 1.25; stroke-linejoin: miter; stroke-linecap: square"/>
   </g>
   <g id="patch_6">
    <path d="M 49.199531 26.877187 
L 607.199531 26.877187 
" style="fill: none; stroke: #cccccc; stroke-width: 1.25; stroke-linejoin: miter; stroke-linecap: square"/>
   </g>
   <g id="text_18">
    <!-- Pareto Frontiers: CO₂ Savings vs Overhead — CN -->
    <g style="fill: #262626" transform="translate(109.209844 20.877187) scale(0.18 -0.18)">
     <defs>
      <path id="DejaVuSans-33" d="M 1259 4147 
L 1259 2394 
L 2053 2394 
Q 2494 2394 2734 2622 
Q 2975 2850 2975 3272 
Q 2975 3691 2734 3919 
Q 2494 4147 2053 4147 
L 1259 4147 
z
M 628 4666 
L 2053 4666 
Q 2838 4666 3239 4311 
Q 3641 3956 3641 3272 
Q 3641 2581 3239 2228 
Q 2838 1875 2053 1875 
L 1259 1875 
L 1259 0 
L 628 0 
L 628 4666 
z
" transform="scale(0.015625)"/>
      <path id="DejaVuSans-57" d="M 1172 4494 
L 1172 3500 
L 2356 3500 
L 2356 3053 
L 1172 3053 
L 1172 1153 
Q 1172 725 1289 603 
Q 1406 481 1766 481 
L 2356 481 
L 2356 0 
L 1766 0 
Q 1100 0 847 248 
Q 594 497 594 1153 
L 594 3053 
L 172 3053 
L 172 3500 
L 594 3500 
L 594 4494 
L 1172 4494 
z
" transform="scale(0.015625)"/>
      <path id="DejaVuSans-52" d="M 1959 3097 
Q 1497 3097 1228 2736 
Q 959 2375 959 1747 
Q 959 1119 1226 758 
Q 1494 397 1959 397 
Q 2419 397 2687 759 
Q 2956 1122 2956 1747 
Q 2956 2369 2687 2733 
Q 2419 3097 1959 3097 
z
M 1959 3584 
Q 2709 3584 3137 3096 
Q 3566 2609 3566 1747 
Q 3566 888 3137 398 
Q 2709 -91 1959 -91 
Q 1206 -91 779 398 
Q 353 888 353 1747 
Q 353 2609 779 3096 
Q 1206 3584 1959 3584 
z
" transform="scale(0.015625)"/>
      <path id="DejaVuSans-29" d="M 628 4666 
L 3309 4666 
L 3309 4134 
L 1259 4134 
L 1259 2759 
L 3109 2759 
L 3109 2228 
L 1259 2228 
L 1259 0 
L 628 0 
L 628 4666 
z
" transform="scale(0.015625)"/>
      <path id="DejaVuSans-1d" d="M 750 794 
L 1409 794 
L 1409 0 
L 750 0 
L 750 794 
z
M 750 3309 
L 1409 3309 
L 1409 2516 
L 750 2516 
L 750 3309 
z
" transform="scale(0.015625)"/>
      <path id="DejaVuSans-af6" d="M 313 1978 
L 6088 1978 
L 6088 1528 
L 313 1528 
L 313 1978 
z
" transform="scale(0.015625)"/>
      <path id="DejaVuSans-31" d="M 628 4666 
L 1478 4666 
L 3547 763 
L 3547 4666 
L 4159 4666 
L 4159 0 
L 3309 0 
L 1241 3903 
L 1241 0 
L 628 0 
L 628 4666 
z
" transform="scale(0.015625)"/>
     </defs>
     <use xlink:href="#DejaVuSans-33"/>
     <use xlink:href="#DejaVuSans-44" transform="translate(55.8125 0)"/>
     <use xlink:href="#DejaVuSans-55" transform="translate(117.09375 0)"/>
     <use xlink:href="#DejaVuSans-48" transform="translate(156 0)"/>
     <use xlink:href="#DejaVuSans-57" transform="translate(217.53125 0)"/>
     <use xlink:href="#DejaVuSans-52" transform="translate(256.734375 0)"/>
     <use xlink:href="#DejaVuSans-3" transform="translate(317.921875 0)"/>
     <use xlink:href="#DejaVuSans-29" transform="translate(349.703125 0)"/>
     <use xlink:href="#DejaVuSans-55" transform="translate(399.9375 0)"/>
     <use xlink:href="#DejaVuSans-52" transform="translate(438.84375 0)"/>
     <use xlink:href="#DejaVuSans-51" transform="translate(500.03125 0)"/>
     <use xlink:href="#DejaVuSans-57" transform="translate(563.40625 0)"/>
     <use xlink:href="#DejaVuSans-4c" transform="translate(602.609375 0)"/>
     <use xlink:href="#DejaVuSans-48" transform="translate(630.390625 0)"/>
     <use xlink:href="#DejaVuSans-55" transform="translate(691.921875 0)"/>
     <use xlink:href="#DejaVuSans-56" transform="translate(733.03125 0)"/>
     <use xlink:href="#DejaVuSans-1d" transform="translate(785.125 0)"/>
     <use xlink:href="#DejaVuSans-3" transform="translate(818.8125 0)"/>
     <use xlink:href="#DejaVuSans-26" transform="translate(850.59375 0)"/>
     <use xlink:href="#DejaVuSans-32" transform="translate(920.421875 0)"/>
     <use xlink:href="#DejaVuSans-b5d" transform="translate(999.140625 0)"/>
     <use xlink:href="#DejaVuSans-3" transform="translate(1039.234375 0)"/>
     <use xlink:href="#DejaVuSans-36" transform="translate(1071.015625 0)"/>
     <use xlink:href="#DejaVuSans-44" transform="translate(1134.5 0)"/>
     <use xlink:href="#DejaVuSans-59" transform="translate(1195.78125 0)"/>
     <use xlink:href="#DejaVuSans-4c" transform="translate(1254.96875 0)"/>
     <use xlink:href="#DejaVuSans-51" transform="translate(1282.75 0)"/>
     <use xlink:href="#DejaVuSans-4a" transform="translate(1346.125 0)"/>
     <use xlink:href="#DejaVuSans-56" transform="translate(1409.609375 0)"/>
     <use xlink:href="#DejaVuSans-3" transform="translate(1461.703125 0)"/>
     <use xlink:href="#DejaVuSans-59" transform="translate(1493.484375 0)"/>
     <use xlink:href="#DejaVuSans-56" transform="translate(1552.671875 0)"/>
     <use xlink:href="#DejaVuSans-3" transform="translate(1604.765625 0)"/>
     <use xlink:href="#DejaVuSans-32" transform="translate(1636.546875 0)"/>
     <use xlink:href="#DejaVuSans-59" transform="translate(1715.265625 0)"/>
     <use xlink:href="#DejaVuSans-48" transform="translate(1774.453125 0)"/>
     <use xlink:href="#DejaVuSans-55" transform="translate(1835.984375 0)"/>
     <use xlink:href="#DejaVuSans-4b" transform="translate(1875.34375 0)"/>
     <use xlink:href="#DejaVuSans-48" transform="translate(1938.71875 0)"/>
     <use xlink:href="#DejaVuSans-44" transform="translate(2000.25 0)"/>
     <use xlink:href="#DejaVuSans-47" transform="translate(2061.53125 0)"/>
     <use xlink:href="#DejaVuSans-3" transform="translate(2125.015625 0)"/>
     <use xlink:href="#DejaVuSans-af6" transform="translate(2156.796875 0)"/>
     <use xlink:href="#DejaVuSans-3" transform="translate(2256.796875 0)"/>
     <use xlink:href="#DejaVuSans-26" transform="translate(2288.578125 0)"/>
     <use xlink:href="#DejaVuSans-31" transform="translate(2358.40625 0)"/>
    </g>
   </g>
   <g id="legend_1">
    <g id="patch_7">
     <path d="M 453.659531 410.457187 
L 600.899531 410.457187 
Q 602.699531 410.457187 602.699531 408.657187 
L 602.699531 355.554375 
Q 602.699531 353.754375 600.899531 353.754375 
L 453.659531 353.754375 
Q 451.859531 353.754375 451.859531 355.554375 
L 451.859531 408.657187 
Q 451.859531 410.457187 453.659531 410.457187 
z
" style="fill: #ffffff; opacity: 0.8; stroke: #cccccc; stroke-linejoin: miter"/>
    </g>
    <g id="line2d_18">
     <path d="M 455.459531 361.042969 
L 464.459531 361.042969 
L 473.459531 361.042969 
" style="fill: none; stroke: #2563eb; stroke-width: 2; stroke-linecap: round"/>
     <g>
      <use xlink:href="#m8a45dcb720" x="464.459531" y="361.042969" style="fill: #2563eb; stroke: #2563eb"/>
     </g>
    </g>
    <g id="text_19">
     <!-- DeepSeek V3 frontier -->
     <g style="fill: #262626" transform="translate(480.659531 364.192969) scale(0.09 -0.09)">
      <defs>
       <path id="DejaVuSans-27" d="M 1259 4147 
L 1259 519 
L 2022 519 
Q 2988 519 3436 956 
Q 3884 1394 3884 2338 
Q 3884 3275 3436 3711 
Q 2988 4147 2022 4147 
L 1259 4147 
z
M 628 4666 
L 1925 4666 
Q 3281 4666 3915 4102 
Q 4550 3538 4550 2338 
Q 4550 1131 3912 565 
Q 3275 0 1925 0 
L 628 0 
L 628 4666 
z
" transform="scale(0.015625)"/>
       <path id="DejaVuSans-53" d="M 1159 525 
L 1159 -1331 
L 581 -1331 
L 581 3500 
L 1159 3500 
L 1159 2969 
Q 1341 3281 1617 3432 
Q 1894 3584 2278 3584 
Q 2916 3584 3314 3078 
Q 3713 2572 3713 1747 
Q 3713 922 3314 415 
Q 2916 -91 2278 -91 
Q 1894 -91 1617 61 
Q 1341 213 1159 525 
z
M 3116 1747 
Q 3116 2381 2855 2742 
Q 2594 3103 2138 3103 
Q 1681 3103 1420 2742 
Q 1159 2381 1159 1747 
Q 1159 1113 1420 752 
Q 1681 391 2138 391 
Q 2594 391 2855 752 
Q 3116 1113 3116 1747 
z
" transform="scale(0.015625)"/>
       <path id="DejaVuSans-4e" d="M 581 4863 
L 1159 4863 
L 1159 1991 
L 2875 3500 
L 3609 3500 
L 1753 1863 
L 3688 0 
L 2938 0 
L 1159 1709 
L 1159 0 
L 581 0 
L 581 4863 
z
" transform="scale(0.015625)"/>
       <path id="DejaVuSans-39" d="M 1831 0 
L 50 4666 
L 709 4666 
L 2188 738 
L 3669 4666 
L 4325 4666 
L 2547 0 
L 1831 0 
z
" transform="scale(0.015625)"/>
       <path id="DejaVuSans-49" d="M 2375 4863 
L 2375 4384 
L 1825 4384 
Q 1516 4384 1395 4259 
Q 1275 4134 1275 3809 
L 1275 3500 
L 2222 3500 
L 2222 3053 
L 1275 3053 
L 1275 0 
L 697 0 
L 697 3053 
L 147 3053 
L 147 3500 
L 697 3500 
L 697 3744 
Q 697 4328 969 4595 
Q 1241 4863 1831 4863 
L 2375 4863 
z
" transform="scale(0.015625)"/>
      </defs>
      <use xlink:href="#DejaVuSans-27"/>
      <use xlink:href="#DejaVuSans-48" transform="translate(77 0)"/>
      <use xlink:href="#DejaVuSans-48" transform="translate(138.53125 0)"/>
      <use xlink:href="#DejaVuSans-53" transform="translate(200.0625 0)"/>
      <use xlink:href="#DejaVuSans-36" transform="translate(263.546875 0)"/>
      <use xlink:href="#DejaVuSans-48" transform="translate(327.03125 0)"/>
      <use xlink:href="#DejaVuSans-48" transform="translate(388.5625 0)"/>
      <use xlink:href="#DejaVuSans-4e" transform="translate(450.09375 0)"/>
      <use xlink:href="#DejaVuSans-3" transform="translate(508 0)"/>
      <use xlink:href="#DejaVuSans-39" transform="translate(539.78125 0)"/>
      <use xlink:href="#DejaVuSans-16" transform="translate(608.1875 0)"/>
      <use xlink:href="#DejaVuSans-3" transform="translate(671.8125 0)"/>
      <use xlink:href="#DejaVuSans-49" transform="translate(703.59375 0)"/>
      <use xlink:href="#DejaVuSans-55" transform="translate(738.796875 0)"/>
      <use xlink:href="#DejaVuSans-52" transform="translate(777.703125 0)"/>
      <use xlink:href="#DejaVuSans-51" transform="translate(838.890625 0)"/>
      <use xlink:href="#DejaVuSans-57" transform="translate(902.265625 0)"/>
      <use xlink:href="#DejaVuSans-4c" transform="translate(941.46875 0)"/>
      <use xlink:href="#DejaVuSans-48" transform="translate(969.25 0)"/>
      <use xlink:href="#DejaVuSans-55" transform="translate(1030.78125 0)"/>
     </g>
    </g>
    <g id="PathCollection_1">
     <defs>
      <path id="med8a0e4779" d="M 0 -7.071068 
L -1.587554 -2.18508 
L -6.724985 -2.18508 
L -2.568716 0.834626 
L -4.156269 5.720614 
L -0 2.700907 
L 4.156269 5.720614 
L 2.568716 0.834626 
L 6.724985 -2.18508 
L 1.587554 -2.18508 
z
" style="stroke: #000000"/>
     </defs>
     <g>
      <use xlink:href="#med8a0e4779" x="464.459531" y="375.331172" style="fill: #ff0000; stroke: #000000"/>
     </g>
    </g>
    <g id="text_20">
     <!-- DeepSeek V3 best (0.531) -->
     <g style="fill: #262626" transform="translate(480.659531 377.693672) scale(0.09 -0.09)">
      <defs>
       <path id="DejaVuSans-45" d="M 3116 1747 
Q 3116 2381 2855 2742 
Q 2594 3103 2138 3103 
Q 1681 3103 1420 2742 
Q 1159 2381 1159 1747 
Q 1159 1113 1420 752 
Q 1681 391 2138 391 
Q 2594 391 2855 752 
Q 3116 1113 3116 1747 
z
M 1159 2969 
Q 1341 3281 1617 3432 
Q 1894 3584 2278 3584 
Q 2916 3584 3314 3078 
Q 3713 2572 3713 1747 
Q 3713 922 3314 415 
Q 2916 -91 2278 -91 
Q 1894 -91 1617 61 
Q 1341 213 1159 525 
L 1159 0 
L 581 0 
L 581 4863 
L 1159 4863 
L 1159 2969 
z
" transform="scale(0.015625)"/>
       <path id="DejaVuSans-11" d="M 684 794 
L 1344 794 
L 1344 0 
L 684 0 
L 684 794 
z
" transform="scale(0.015625)"/>
      </defs>
      <use xlink:href="#DejaVuSans-27"/>
      <use xlink:href="#DejaVuSans-48" transform="translate(77 0)"/>
      <use xlink:href="#DejaVuSans-48" transform="translate(138.53125 0)"/>
      <use xlink:href="#DejaVuSans-53" transform="translate(200.0625 0)"/>
      <use xlink:href="#DejaVuSans-36" transform="translate(263.546875 0)"/>
      <use xlink:href="#DejaVuSans-48" transform="translate(327.03125 0)"/>
      <use xlink:href="#DejaVuSans-48" transform="translate(388.5625 0)"/>
      <use xlink:href="#DejaVuSans-4e" transform="translate(450.09375 0)"/>
      <use xlink:href="#DejaVuSans-3" transform="translate(508 0)"/>
      <use xlink:href="#DejaVuSans-39" transform="translate(539.78125 0)"/>
      <use xlink:href="#DejaVuSans-16" transform="translate(608.1875 0)"/>
      <use xlink:href="#DejaVuSans-3" transform="translate(671.8125 0)"/>
      <use xlink:href="#DejaVuSans-45" transform="translate(703.59375 0)"/>
      <use xlink:href="#DejaVuSans-48" transform="translate(767.078125 0)"/>
      <use xlink:href="#DejaVuSans-56" transform="translate(828.609375 0)"/>
      <use xlink:href="#DejaVuSans-57" transform="translate(880.703125 0)"/>
      <use xlink:href="#DejaVuSans-3" transform="translate(919.90625 0)"/>
      <use xlink:href="#DejaVuSans-b" transform="translate(951.6875 0)"/>
      <use xlink:href="#DejaVuSans-13" transform="translate(990.703125 0)"/>
      <use xlink:href="#DejaVuSans-11" transform="translate(1054.328125 0)"/>
      <use xlink:href="#DejaVuSans-18" transform="translate(1086.109375 0)"/>
      <use xlink:href="#DejaVuSans-16" transform="translate(1149.734375 0)"/>
      <use xlink:href="#DejaVuSans-14" transform="translate(1213.359375 0)"/>
      <use xlink:href="#DejaVuSans-c" transform="translate(1276.984375 0)"/>
     </g>
    </g>
    <g id="line2d_19">
     <path d="M 455.459531 388.044375 
L 464.459531 388.044375 
L 473.459531 388.044375 
" style="fill: none; stroke: #dc2626; stroke-width: 2; stroke-linecap: round"/>
     <g>
      <use xlink:href="#ma7b6746ca4" x="464.459531" y="388.044375" style="fill: #dc2626; stroke: #dc2626"/>
     </g>
    </g>
    <g id="text_21">
     <!-- Kimi K2 frontier -->
     <g style="fill: #262626" transform="translate(480.659531 391.194375) scale(0.09 -0.09)">
      <defs>
       <path id="DejaVuSans-2e" d="M 628 4666 
L 1259 4666 
L 1259 2694 
L 3353 4666 
L 4166 4666 
L 1850 2491 
L 4331 0 
L 3500 0 
L 1259 2247 
L 1259 0 
L 628 0 
L 628 4666 
z
" transform="scale(0.015625)"/>
      </defs>
      <use xlink:href="#DejaVuSans-2e"/>
      <use xlink:href="#DejaVuSans-4c" transform="translate(65.578125 0)"/>
      <use xlink:href="#DejaVuSans-50" transform="translate(93.359375 0)"/>
      <use xlink:href="#DejaVuSans-4c" transform="translate(190.765625 0)"/>
      <use xlink:href="#DejaVuSans-3" transform="translate(218.546875 0)"/>
      <use xlink:href="#DejaVuSans-2e" transform="translate(250.328125 0)"/>
      <use xlink:href="#DejaVuSans-15" transform="translate(315.90625 0)"/>
      <use xlink:href="#DejaVuSans-3" transform="translate(379.53125 0)"/>
      <use xlink:href="#DejaVuSans-49" transform="translate(411.3125 0)"/>
      <use xlink:href="#DejaVuSans-55" transform="translate(446.515625 0)"/>
      <use xlink:href="#DejaVuSans-52" transform="translate(485.421875 0)"/>
      <use xlink:href="#DejaVuSans-51" transform="translate(546.609375 0)"/>
      <use xlink:href="#DejaVuSans-57" transform="translate(609.984375 0)"/>
      <use xlink:href="#DejaVuSans-4c" transform="translate(649.1875 0)"/>
      <use xlink:href="#DejaVuSans-48" transform="translate(676.96875 0)"/>
      <use xlink:href="#DejaVuSans-55" transform="translate(738.5 0)"/>
     </g>
    </g>
    <g id="PathCollection_2">
     <g>
      <use xlink:href="#med8a0e4779" x="464.459531" y="402.332578" style="fill: #ff0000; stroke: #000000"/>
     </g>
    </g>
    <g id="text_22">
     <!-- Kimi K2 best (0.512) -->
     <g style="fill: #262626" transform="translate(480.659531 404.695078) scale(0.09 -0.09)">
      <use xlink:href="#DejaVuSans-2e"/>
      <use xlink:href="#DejaVuSans-4c" transform="translate(65.578125 0)"/>
      <use xlink:href="#DejaVuSans-50" transform="translate(93.359375 0)"/>
      <use xlink:href="#DejaVuSans-4c" transform="translate(190.765625 0)"/>
      <use xlink:href="#DejaVuSans-3" transform="translate(218.546875 0)"/>
      <use xlink:href="#DejaVuSans-2e" transform="translate(250.328125 0)"/>
      <use xlink:href="#DejaVuSans-15" transform="translate(315.90625 0)"/>
      <use xlink:href="#DejaVuSans-3" transform="translate(379.53125 0)"/>
      <use xlink:href="#DejaVuSans-45" transform="translate(411.3125 0)"/>
      <use xlink:href="#DejaVuSans-48" transform="translate(474.796875 0)"/>
      <use xlink:href="#DejaVuSans-56" transform="translate(536.328125 0)"/>
      <use xlink:href="#DejaVuSans-57" transform="translate(588.421875 0)"/>
      <use xlink:href="#DejaVuSans-3" transform="translate(627.625 0)"/>
      <use xlink:href="#DejaVuSans-b" transform="translate(659.40625 0)"/>
      <use xlink:href="#DejaVuSans-13" transform="translate(698.421875 0)"/>
      <use xlink:href="#DejaVuSans-11" transform="translate(762.046875 0)"/>
      <use xlink:href="#DejaVuSans-18" transform="translate(793.828125 0)"/>
      <use xlink:href="#DejaVuSans-14" transform="translate(857.453125 0)"/>
      <use xlink:href="#DejaVuSans-15" transform="translate(921.078125 0)"/>
      <use xlink:href="#DejaVuSans-c" transform="translate(984.703125 0)"/>
     </g>
    </g>
   </g>
   <g id="PathCollection_3">
    <g clip-path="url(#pd1d4ab3f56)">
     <use xlink:href="#med8a0e4779" x="581.835895" y="44.517187" style="fill: #ff0000; stroke: #000000"/>
    </g>
   </g>
   <g id="PathCollection_4">
    <g clip-path="url(#pd1d4ab3f56)">
     <use xlink:href="#med8a0e4779" x="355.137462" y="260.65722" style="fill: #ff0000; stroke: #000000"/>
    </g>
   </g>
  </g>
 </g>
 <defs>
  <clipPath id="pd1d4ab3f56">
   <rect x="49.199531" y="26.877187" width="558" height="388.08"/>
  </clipPath>
 </defs>
</svg>
