<?xml version="1.0" encoding="utf-8" standalone="no"?>
<!DOCTYPE svg PUBLIC "-//W3C//DTD SVG 1.1//EN"
  "http://www.w3.org/Graphics/SVG/1.1/DTD/svg11.dtd">
<svg xmlns:xlink="http://www.w3.org/1999/xlink" width="629.089864pt" height="470.158594pt" viewBox="0 0 629.089864 470.158594" xmlns="http://www.w3.org/2000/svg" version="1.1">
 <metadata>
  <rdf:RDF xmlns:dc="http://purl.org/dc/elements/1.1/" xmlns:cc="http://creativecommons.org/ns#" xmlns:rdf="http://www.w3.org/1999/02/22-rdf-syntax-ns#">
   <cc:Work>
    <dc:type rdf:resource="http://purl.org/dc/dcmitype/StillImage"/>
    <dc:date>2026-07-16T15:19:13.647159</dc:date>
    <dc:format>image/svg+xml</dc:format>
    <dc:creator>
     <cc:Agent>
      <dc:title>Matplotlib v3.11.0, https://matplotlib.org/</dc:title>
     </cc:Agent>
    </dc:creator>
   </cc:Work>
  </rdf:RDF>
 </metadata>
 <defs>
  <style type="text/css">*{stroke-linejoin: round; stroke-linecap: butt}</style>
 </defs>
 <g id="figure_1">
  <g id="patch_1">
   <path d="M -0 470.158594 
L 629.089864 470.158594 
L 629.089864 0 
L -0 0 
z
" style="fill: #ffffff"/>
  </g>
  <g id="axes_1">
   <g id="patch_2">
    <path d="M 59.697656 414.957187 
L 617.697656 414.957187 
L 617.697656 26.877187 
L 59.697656 26.877187 
z
" style="fill: #ffffff"/>
   </g>
   <g id="matplotlib.axis_1">
    <g id="xtick_1">
     <g id="line2d_1">
      <path d="M 85.061293 414.957187 
L 85.061293 26.877187 
" clip-path="url(#pccdff9e4ac)" style="fill: none; stroke: #cccccc; stroke-opacity: 0.3; stroke-linecap: round"/>
     </g>
     <g id="text_1">
      <!-- 0 -->
      <g style="fill: #262626" transform="translate(79.81223 436.99332) scale(0.165 -0.165)">
       <defs>
        <path id="DejaVuSans-13" d="M 2034 4250 
Q 1547 4250 1301 3770 
Q 1056 3291 1056 2328 
Q 1056 1369 1301 889 
Q 1547 409 2034 409 
Q 2525 409 2770 889 
Q 3016 1369 3016 2328 
Q 3016 3291 2770 3770 
Q 2525 4250 2034 4250 
z
M 2034 4750 
Q 2819 4750 3233 4129 
Q 3647 3509 3647 2328 
Q 3647 1150 3233 529 
Q 2819 -91 2034 -91 
Q 1250 -91 836 529 
Q 422 1150 422 2328 
Q 422 3509 836 4129 
Q 1250 4750 2034 4750 
z
" transform="scale(0.015625)"/>
       </defs>
       <use xlink:href="#DejaVuSans-13"/>
      </g>
     </g>
    </g>
    <g id="xtick_2">
     <g id="line2d_2">
      <path d="M 150.196466 414.957187 
L 150.196466 26.877187 
" clip-path="url(#pccdff9e4ac)" style="fill: none; stroke: #cccccc; stroke-opacity: 0.3; stroke-linecap: round"/>
     </g>
     <g id="text_2">
      <!-- 25 -->
      <g style="fill: #262626" transform="translate(139.698341 436.99332) scale(0.165 -0.165)">
       <defs>
        <path id="DejaVuSans-15" d="M 1228 531 
L 3431 531 
L 3431 0 
L 469 0 
L 469 531 
Q 828 903 1448 1529 
Q 2069 2156 2228 2338 
Q 2531 2678 2651 2914 
Q 2772 3150 2772 3378 
Q 2772 3750 2511 3984 
Q 2250 4219 1831 4219 
Q 1534 4219 1204 4116 
Q 875 4013 500 3803 
L 500 4441 
Q 881 4594 1212 4672 
Q 1544 4750 1819 4750 
Q 2544 4750 2975 4387 
Q 3406 4025 3406 3419 
Q 3406 3131 3298 2873 
Q 3191 2616 2906 2266 
Q 2828 2175 2409 1742 
Q 1991 1309 1228 531 
z
" transform="scale(0.015625)"/>
        <path id="DejaVuSans-18" d="M 691 4666 
L 3169 4666 
L 3169 4134 
L 1269 4134 
L 1269 2991 
Q 1406 3038 1543 3061 
Q 1681 3084 1819 3084 
Q 2600 3084 3056 2656 
Q 3513 2228 3513 1497 
Q 3513 744 3044 326 
Q 2575 -91 1722 -91 
Q 1428 -91 1123 -41 
Q 819 9 494 109 
L 494 744 
Q 775 591 1075 516 
Q 1375 441 1709 441 
Q 2250 441 2565 725 
Q 2881 1009 2881 1497 
Q 2881 1984 2565 2268 
Q 2250 2553 1709 2553 
Q 1456 2553 1204 2497 
Q 953 2441 691 2322 
L 691 4666 
z
" transform="scale(0.015625)"/>
       </defs>
       <use xlink:href="#DejaVuSans-15"/>
       <use xlink:href="#DejaVuSans-18" transform="translate(63.625 0)"/>
      </g>
     </g>
    </g>
    <g id="xtick_3">
     <g id="line2d_3">
      <path d="M 215.331639 414.957187 
L 215.331639 26.877187 
" clip-path="url(#pccdff9e4ac)" style="fill: none; stroke: #cccccc; stroke-opacity: 0.3; stroke-linecap: round"/>
     </g>
     <g id="text_3">
      <!-- 50 -->
      <g style="fill: #262626" transform="translate(204.833514 436.99332) scale(0.165 -0.165)">
       <use xlink:href="#DejaVuSans-18"/>
       <use xlink:href="#DejaVuSans-13" transform="translate(63.625 0)"/>
      </g>
     </g>
    </g>
    <g id="xtick_4">
     <g id="line2d_4">
      <path d="M 280.466812 414.957187 
L 280.466812 26.877187 
" clip-path="url(#pccdff9e4ac)" style="fill: none; stroke: #cccccc; stroke-opacity: 0.3; stroke-linecap: round"/>
     </g>
     <g id="text_4">
      <!-- 75 -->
      <g style="fill: #262626" transform="translate(269.968687 436.99332) scale(0.165 -0.165)">
       <defs>
        <path id="DejaVuSans-1a" d="M 525 4666 
L 3525 4666 
L 3525 4397 
L 1831 0 
L 1172 0 
L 2766 4134 
L 525 4134 
L 525 4666 
z
" transform="scale(0.015625)"/>
       </defs>
       <use xlink:href="#DejaVuSans-1a"/>
       <use xlink:href="#DejaVuSans-18" transform="translate(63.625 0)"/>
      </g>
     </g>
    </g>
    <g id="xtick_5">
     <g id="line2d_5">
      <path d="M 345.601985 414.957187 
L 345.601985 26.877187 
" clip-path="url(#pccdff9e4ac)" style="fill: none; stroke: #cccccc; stroke-opacity: 0.3; stroke-linecap: round"/>
     </g>
     <g id="text_5">
      <!-- 100 -->
      <g style="fill: #262626" transform="translate(329.854797 436.99332) scale(0.165 -0.165)">
       <defs>
        <path id="DejaVuSans-14" d="M 794 531 
L 1825 531 
L 1825 4091 
L 703 3866 
L 703 4441 
L 1819 4666 
L 2450 4666 
L 2450 531 
L 3481 531 
L 3481 0 
L 794 0 
L 794 531 
z
" transform="scale(0.015625)"/>
       </defs>
       <use xlink:href="#DejaVuSans-14"/>
       <use xlink:href="#DejaVuSans-13" transform="translate(63.625 0)"/>
       <use xlink:href="#DejaVuSans-13" transform="translate(127.25 0)"/>
      </g>
     </g>
    </g>
    <g id="xtick_6">
     <g id="line2d_6">
      <path d="M 410.737158 414.957187 
L 410.737158 26.877187 
" clip-path="url(#pccdff9e4ac)" style="fill: none; stroke: #cccccc; stroke-opacity: 0.3; stroke-linecap: round"/>
     </g>
     <g id="text_6">
      <!-- 125 -->
      <g style="fill: #262626" transform="translate(394.98997 436.99332) scale(0.165 -0.165)">
       <use xlink:href="#DejaVuSans-14"/>
       <use xlink:href="#DejaVuSans-15" transform="translate(63.625 0)"/>
       <use xlink:href="#DejaVuSans-18" transform="translate(127.25 0)"/>
      </g>
     </g>
    </g>
    <g id="xtick_7">
     <g id="line2d_7">
      <path d="M 475.872331 414.957187 
L 475.872331 26.877187 
" clip-path="url(#pccdff9e4ac)" style="fill: none; stroke: #cccccc; stroke-opacity: 0.3; stroke-linecap: round"/>
     </g>
     <g id="text_7">
      <!-- 150 -->
      <g style="fill: #262626" transform="translate(460.125143 436.99332) scale(0.165 -0.165)">
       <use xlink:href="#DejaVuSans-14"/>
       <use xlink:href="#DejaVuSans-18" transform="translate(63.625 0)"/>
       <use xlink:href="#DejaVuSans-13" transform="translate(127.25 0)"/>
      </g>
     </g>
    </g>
    <g id="xtick_8">
     <g id="line2d_8">
      <path d="M 541.007504 414.957187 
L 541.007504 26.877187 
" clip-path="url(#pccdff9e4ac)" style="fill: none; stroke: #cccccc; stroke-opacity: 0.3; stroke-linecap: round"/>
     </g>
     <g id="text_8">
      <!-- 175 -->
      <g style="fill: #262626" transform="translate(525.260316 436.99332) scale(0.165 -0.165)">
       <use xlink:href="#DejaVuSans-14"/>
       <use xlink:href="#DejaVuSans-1a" transform="translate(63.625 0)"/>
       <use xlink:href="#DejaVuSans-18" transform="translate(127.25 0)"/>
      </g>
     </g>
    </g>
    <g id="xtick_9">
     <g id="line2d_9">
      <path d="M 606.142677 414.957187 
L 606.142677 26.877187 
" clip-path="url(#pccdff9e4ac)" style="fill: none; stroke: #cccccc; stroke-opacity: 0.3; stroke-linecap: round"/>
     </g>
     <g id="text_9">
      <!-- 200 -->
      <g style="fill: #262626" transform="translate(590.395489 436.99332) scale(0.165 -0.165)">
       <use xlink:href="#DejaVuSans-15"/>
       <use xlink:href="#DejaVuSans-13" transform="translate(63.625 0)"/>
       <use xlink:href="#DejaVuSans-13" transform="translate(127.25 0)"/>
      </g>
     </g>
    </g>
    <g id="text_10">
     <!-- Time Overhead (%) -->
     <g style="fill: #262626" transform="translate(251.415938 458.634375) scale(0.18 -0.18)">
      <defs>
       <path id="DejaVuSans-37" d="M -19 4666 
L 3928 4666 
L 3928 4134 
L 2272 4134 
L 2272 0 
L 1638 0 
L 1638 4134 
L -19 4134 
L -19 4666 
z
" transform="scale(0.015625)"/>
       <path id="DejaVuSans-4c" d="M 603 3500 
L 1178 3500 
L 1178 0 
L 603 0 
L 603 3500 
z
M 603 4863 
L 1178 4863 
L 1178 4134 
L 603 4134 
L 603 4863 
z
" transform="scale(0.015625)"/>
       <path id="DejaVuSans-50" d="M 3328 2828 
Q 3544 3216 3844 3400 
Q 4144 3584 4550 3584 
Q 5097 3584 5394 3201 
Q 5691 2819 5691 2113 
L 5691 0 
L 5113 0 
L 5113 2094 
Q 5113 2597 4934 2840 
Q 4756 3084 4391 3084 
Q 3944 3084 3684 2787 
Q 3425 2491 3425 1978 
L 3425 0 
L 2847 0 
L 2847 2094 
Q 2847 2600 2669 2842 
Q 2491 3084 2119 3084 
Q 1678 3084 1418 2786 
Q 1159 2488 1159 1978 
L 1159 0 
L 581 0 
L 581 3500 
L 1159 3500 
L 1159 2956 
Q 1356 3278 1631 3431 
Q 1906 3584 2284 3584 
Q 2666 3584 2933 3390 
Q 3200 3197 3328 2828 
z
" transform="scale(0.015625)"/>
       <path id="DejaVuSans-48" d="M 3597 1894 
L 3597 1613 
L 953 1613 
Q 991 1019 1311 708 
Q 1631 397 2203 397 
Q 2534 397 2845 478 
Q 3156 559 3463 722 
L 3463 178 
Q 3153 47 2828 -22 
Q 2503 -91 2169 -91 
Q 1331 -91 842 396 
Q 353 884 353 1716 
Q 353 2575 817 3079 
Q 1281 3584 2069 3584 
Q 2775 3584 3186 3129 
Q 3597 2675 3597 1894 
z
M 3022 2063 
Q 3016 2534 2758 2815 
Q 2500 3097 2075 3097 
Q 1594 3097 1305 2825 
Q 1016 2553 972 2059 
L 3022 2063 
z
" transform="scale(0.015625)"/>
       <path id="DejaVuSans-3" transform="scale(0.015625)"/>
       <path id="DejaVuSans-32" d="M 2522 4238 
Q 1834 4238 1429 3725 
Q 1025 3213 1025 2328 
Q 1025 1447 1429 934 
Q 1834 422 2522 422 
Q 3209 422 3611 934 
Q 4013 1447 4013 2328 
Q 4013 3213 3611 3725 
Q 3209 4238 2522 4238 
z
M 2522 4750 
Q 3503 4750 4090 4092 
Q 4678 3434 4678 2328 
Q 4678 1225 4090 567 
Q 3503 -91 2522 -91 
Q 1538 -91 948 565 
Q 359 1222 359 2328 
Q 359 3434 948 4092 
Q 1538 4750 2522 4750 
z
" transform="scale(0.015625)"/>
       <path id="DejaVuSans-59" d="M 191 3500 
L 800 3500 
L 1894 563 
L 2988 3500 
L 3597 3500 
L 2284 0 
L 1503 0 
L 191 3500 
z
" transform="scale(0.015625)"/>
       <path id="DejaVuSans-55" d="M 2631 2963 
Q 2534 3019 2420 3045 
Q 2306 3072 2169 3072 
Q 1681 3072 1420 2755 
Q 1159 2438 1159 1844 
L 1159 0 
L 581 0 
L 581 3500 
L 1159 3500 
L 1159 2956 
Q 1341 3275 1631 3429 
Q 1922 3584 2338 3584 
Q 2397 3584 2469 3576 
Q 2541 3569 2628 3553 
L 2631 2963 
z
" transform="scale(0.015625)"/>
       <path id="DejaVuSans-4b" d="M 3513 2113 
L 3513 0 
L 2938 0 
L 2938 2094 
Q 2938 2591 2744 2837 
Q 2550 3084 2163 3084 
Q 1697 3084 1428 2787 
Q 1159 2491 1159 1978 
L 1159 0 
L 581 0 
L 581 4863 
L 1159 4863 
L 1159 2956 
Q 1366 3272 1645 3428 
Q 1925 3584 2291 3584 
Q 2894 3584 3203 3211 
Q 3513 2838 3513 2113 
z
" transform="scale(0.015625)"/>
       <path id="DejaVuSans-44" d="M 2194 1759 
Q 1497 1759 1228 1600 
Q 959 1441 959 1056 
Q 959 750 1161 570 
Q 1363 391 1709 391 
Q 2188 391 2477 730 
Q 2766 1069 2766 1631 
L 2766 1759 
L 2194 1759 
z
M 3341 1997 
L 3341 0 
L 2766 0 
L 2766 531 
Q 2569 213 2275 61 
Q 1981 -91 1556 -91 
Q 1019 -91 701 211 
Q 384 513 384 1019 
Q 384 1609 779 1909 
Q 1175 2209 1959 2209 
L 2766 2209 
L 2766 2266 
Q 2766 2663 2505 2880 
Q 2244 3097 1772 3097 
Q 1472 3097 1187 3025 
Q 903 2953 641 2809 
L 641 3341 
Q 956 3463 1253 3523 
Q 1550 3584 1831 3584 
Q 2591 3584 2966 3190 
Q 3341 2797 3341 1997 
z
" transform="scale(0.015625)"/>
       <path id="DejaVuSans-47" d="M 2906 2969 
L 2906 4863 
L 3481 4863 
L 3481 0 
L 2906 0 
L 2906 525 
Q 2725 213 2448 61 
Q 2172 -91 1784 -91 
Q 1150 -91 751 415 
Q 353 922 353 1747 
Q 353 2572 751 3078 
Q 1150 3584 1784 3584 
Q 2172 3584 2448 3432 
Q 2725 3281 2906 2969 
z
M 947 1747 
Q 947 1113 1208 752 
Q 1469 391 1925 391 
Q 2381 391 2643 752 
Q 2906 1113 2906 1747 
Q 2906 2381 2643 2742 
Q 2381 3103 1925 3103 
Q 1469 3103 1208 2742 
Q 947 2381 947 1747 
z
" transform="scale(0.015625)"/>
       <path id="DejaVuSans-b" d="M 1984 4856 
Q 1566 4138 1362 3434 
Q 1159 2731 1159 2009 
Q 1159 1288 1364 580 
Q 1569 -128 1984 -844 
L 1484 -844 
Q 1016 -109 783 600 
Q 550 1309 550 2009 
Q 550 2706 781 3412 
Q 1013 4119 1484 4856 
L 1984 4856 
z
" transform="scale(0.015625)"/>
       <path id="DejaVuSans-8" d="M 4653 2053 
Q 4381 2053 4226 1822 
Q 4072 1591 4072 1178 
Q 4072 772 4226 539 
Q 4381 306 4653 306 
Q 4919 306 5073 539 
Q 5228 772 5228 1178 
Q 5228 1588 5073 1820 
Q 4919 2053 4653 2053 
z
M 4653 2450 
Q 5147 2450 5437 2106 
Q 5728 1763 5728 1178 
Q 5728 594 5436 251 
Q 5144 -91 4653 -91 
Q 4153 -91 3862 251 
Q 3572 594 3572 1178 
Q 3572 1766 3864 2108 
Q 4156 2450 4653 2450 
z
M 1428 4353 
Q 1159 4353 1004 4120 
Q 850 3888 850 3481 
Q 850 3069 1003 2837 
Q 1156 2606 1428 2606 
Q 1700 2606 1854 2837 
Q 2009 3069 2009 3481 
Q 2009 3884 1853 4118 
Q 1697 4353 1428 4353 
z
M 4250 4750 
L 4750 4750 
L 1831 -91 
L 1331 -91 
L 4250 4750 
z
M 1428 4750 
Q 1922 4750 2215 4408 
Q 2509 4066 2509 3481 
Q 2509 2891 2217 2550 
Q 1925 2209 1428 2209 
Q 931 2209 642 2551 
Q 353 2894 353 3481 
Q 353 4063 643 4406 
Q 934 4750 1428 4750 
z
" transform="scale(0.015625)"/>
       <path id="DejaVuSans-c" d="M 513 4856 
L 1013 4856 
Q 1481 4119 1714 3412 
Q 1947 2706 1947 2009 
Q 1947 1309 1714 600 
Q 1481 -109 1013 -844 
L 513 -844 
Q 928 -128 1133 580 
Q 1338 1288 1338 2009 
Q 1338 2731 1133 3434 
Q 928 4138 513 4856 
z
" transform="scale(0.015625)"/>
      </defs>
      <use xlink:href="#DejaVuSans-37"/>
      <use xlink:href="#DejaVuSans-4c" transform="translate(58 0)"/>
      <use xlink:href="#DejaVuSans-50" transform="translate(85.78125 0)"/>
      <use xlink:href="#DejaVuSans-48" transform="translate(183.1875 0)"/>
      <use xlink:href="#DejaVuSans-3" transform="translate(244.71875 0)"/>
      <use xlink:href="#DejaVuSans-32" transform="translate(276.5 0)"/>
      <use xlink:href="#DejaVuSans-59" transform="translate(355.21875 0)"/>
      <use xlink:href="#DejaVuSans-48" transform="translate(414.40625 0)"/>
      <use xlink:href="#DejaVuSans-55" transform="translate(475.9375 0)"/>
      <use xlink:href="#DejaVuSans-4b" transform="translate(515.296875 0)"/>
      <use xlink:href="#DejaVuSans-48" transform="translate(578.671875 0)"/>
      <use xlink:href="#DejaVuSans-44" transform="translate(640.203125 0)"/>
      <use xlink:href="#DejaVuSans-47" transform="translate(701.484375 0)"/>
      <use xlink:href="#DejaVuSans-3" transform="translate(764.96875 0)"/>
      <use xlink:href="#DejaVuSans-b" transform="translate(796.75 0)"/>
      <use xlink:href="#DejaVuSans-8" transform="translate(835.765625 0)"/>
      <use xlink:href="#DejaVuSans-c" transform="translate(930.78125 0)"/>
     </g>
    </g>
   </g>
   <g id="matplotlib.axis_2">
    <g id="ytick_1">
     <g id="line2d_10">
      <path d="M 59.697656 397.317187 
L 617.697656 397.317187 
" clip-path="url(#pccdff9e4ac)" style="fill: none; stroke: #cccccc; stroke-opacity: 0.3; stroke-linecap: round"/>
     </g>
     <g id="text_11">
      <!-- 0 -->
      <g style="fill: #262626" transform="translate(39.699531 403.585254) scale(0.165 -0.165)">
       <use xlink:href="#DejaVuSans-13"/>
      </g>
     </g>
    </g>
    <g id="ytick_2">
     <g id="line2d_11">
      <path d="M 59.697656 343.322697 
L 617.697656 343.322697 
" clip-path="url(#pccdff9e4ac)" style="fill: none; stroke: #cccccc; stroke-opacity: 0.3; stroke-linecap: round"/>
     </g>
     <g id="text_12">
      <!-- 5 -->
      <g style="fill: #262626" transform="translate(39.699531 349.590764) scale(0.165 -0.165)">
       <use xlink:href="#DejaVuSans-18"/>
      </g>
     </g>
    </g>
    <g id="ytick_3">
     <g id="line2d_12">
      <path d="M 59.697656 289.328207 
L 617.697656 289.328207 
" clip-path="url(#pccdff9e4ac)" style="fill: none; stroke: #cccccc; stroke-opacity: 0.3; stroke-linecap: round"/>
     </g>
     <g id="text_13">
      <!-- 10 -->
      <g style="fill: #262626" transform="translate(29.201406 295.596273) scale(0.165 -0.165)">
       <use xlink:href="#DejaVuSans-14"/>
       <use xlink:href="#DejaVuSans-13" transform="translate(63.625 0)"/>
      </g>
     </g>
    </g>
    <g id="ytick_4">
     <g id="line2d_13">
      <path d="M 59.697656 235.333716 
L 617.697656 235.333716 
" clip-path="url(#pccdff9e4ac)" style="fill: none; stroke: #cccccc; stroke-opacity: 0.3; stroke-linecap: round"/>
     </g>
     <g id="text_14">
      <!-- 15 -->
      <g style="fill: #262626" transform="translate(29.201406 241.601783) scale(0.165 -0.165)">
       <use xlink:href="#DejaVuSans-14"/>
       <use xlink:href="#DejaVuSans-18" transform="translate(63.625 0)"/>
      </g>
     </g>
    </g>
    <g id="ytick_5">
     <g id="line2d_14">
      <path d="M 59.697656 181.339226 
L 617.697656 181.339226 
" clip-path="url(#pccdff9e4ac)" style="fill: none; stroke: #cccccc; stroke-opacity: 0.3; stroke-linecap: round"/>
     </g>
     <g id="text_15">
      <!-- 20 -->
      <g style="fill: #262626" transform="translate(29.201406 187.607292) scale(0.165 -0.165)">
       <use xlink:href="#DejaVuSans-15"/>
       <use xlink:href="#DejaVuSans-13" transform="translate(63.625 0)"/>
      </g>
     </g>
    </g>
    <g id="ytick_6">
     <g id="line2d_15">
      <path d="M 59.697656 127.344736 
L 617.697656 127.344736 
" clip-path="url(#pccdff9e4ac)" style="fill: none; stroke: #cccccc; stroke-opacity: 0.3; stroke-linecap: round"/>
     </g>
     <g id="text_16">
      <!-- 25 -->
      <g style="fill: #262626" transform="translate(29.201406 133.612802) scale(0.165 -0.165)">
       <use xlink:href="#DejaVuSans-15"/>
       <use xlink:href="#DejaVuSans-18" transform="translate(63.625 0)"/>
      </g>
     </g>
    </g>
    <g id="ytick_7">
     <g id="line2d_16">
      <path d="M 59.697656 73.350245 
L 617.697656 73.350245 
" clip-path="url(#pccdff9e4ac)" style="fill: none; stroke: #cccccc; stroke-opacity: 0.3; stroke-linecap: round"/>
     </g>
     <g id="text_17">
      <!-- 30 -->
      <g style="fill: #262626" transform="translate(29.201406 79.618312) scale(0.165 -0.165)">
       <defs>
        <path id="DejaVuSans-16" d="M 2597 2516 
Q 3050 2419 3304 2112 
Q 3559 1806 3559 1356 
Q 3559 666 3084 287 
Q 2609 -91 1734 -91 
Q 1441 -91 1130 -33 
Q 819 25 488 141 
L 488 750 
Q 750 597 1062 519 
Q 1375 441 1716 441 
Q 2309 441 2620 675 
Q 2931 909 2931 1356 
Q 2931 1769 2642 2001 
Q 2353 2234 1838 2234 
L 1294 2234 
L 1294 2753 
L 1863 2753 
Q 2328 2753 2575 2939 
Q 2822 3125 2822 3475 
Q 2822 3834 2567 4026 
Q 2313 4219 1838 4219 
Q 1578 4219 1281 4162 
Q 984 4106 628 3988 
L 628 4550 
Q 988 4650 1302 4700 
Q 1616 4750 1894 4750 
Q 2613 4750 3031 4423 
Q 3450 4097 3450 3541 
Q 3450 3153 3228 2886 
Q 3006 2619 2597 2516 
z
" transform="scale(0.015625)"/>
       </defs>
       <use xlink:href="#DejaVuSans-16"/>
       <use xlink:href="#DejaVuSans-13" transform="translate(63.625 0)"/>
      </g>
     </g>
    </g>
    <g id="text_18">
     <!-- CO₂ Savings (%) -->
     <g style="fill: #262626" transform="translate(20.877188 294.351562) rotate(-90) scale(0.18 -0.18)">
      <defs>
       <path id="DejaVuSans-26" d="M 4122 4306 
L 4122 3641 
Q 3803 3938 3442 4084 
Q 3081 4231 2675 4231 
Q 1875 4231 1450 3742 
Q 1025 3253 1025 2328 
Q 1025 1406 1450 917 
Q 1875 428 2675 428 
Q 3081 428 3442 575 
Q 3803 722 4122 1019 
L 4122 359 
Q 3791 134 3420 21 
Q 3050 -91 2638 -91 
Q 1578 -91 968 557 
Q 359 1206 359 2328 
Q 359 3453 968 4101 
Q 1578 4750 2638 4750 
Q 3056 4750 3426 4639 
Q 3797 4528 4122 4306 
z
" transform="scale(0.015625)"/>
       <path id="DejaVuSans-b5d" d="M 838 356 
L 2163 356 
L 2163 0 
L 294 0 
L 294 343 
Q 400 440 597 615 
Q 1672 1568 1672 1862 
Q 1672 2068 1509 2194 
Q 1347 2321 1081 2321 
Q 919 2321 728 2266 
Q 538 2212 313 2103 
L 313 2487 
Q 553 2575 761 2618 
Q 969 2662 1147 2662 
Q 1600 2662 1872 2456 
Q 2144 2250 2144 1912 
Q 2144 1478 1109 590 
Q 934 440 838 356 
z
" transform="scale(0.015625)"/>
       <path id="DejaVuSans-36" d="M 3425 4513 
L 3425 3897 
Q 3066 4069 2747 4153 
Q 2428 4238 2131 4238 
Q 1616 4238 1336 4038 
Q 1056 3838 1056 3469 
Q 1056 3159 1242 3001 
Q 1428 2844 1947 2747 
L 2328 2669 
Q 3034 2534 3370 2195 
Q 3706 1856 3706 1288 
Q 3706 609 3251 259 
Q 2797 -91 1919 -91 
Q 1588 -91 1214 -16 
Q 841 59 441 206 
L 441 856 
Q 825 641 1194 531 
Q 1563 422 1919 422 
Q 2459 422 2753 634 
Q 3047 847 3047 1241 
Q 3047 1584 2836 1778 
Q 2625 1972 2144 2069 
L 1759 2144 
Q 1053 2284 737 2584 
Q 422 2884 422 3419 
Q 422 4038 858 4394 
Q 1294 4750 2059 4750 
Q 2388 4750 2728 4690 
Q 3069 4631 3425 4513 
z
" transform="scale(0.015625)"/>
       <path id="DejaVuSans-51" d="M 3513 2113 
L 3513 0 
L 2938 0 
L 2938 2094 
Q 2938 2591 2744 2837 
Q 2550 3084 2163 3084 
Q 1697 3084 1428 2787 
Q 1159 2491 1159 1978 
L 1159 0 
L 581 0 
L 581 3500 
L 1159 3500 
L 1159 2956 
Q 1366 3272 1645 3428 
Q 1925 3584 2291 3584 
Q 2894 3584 3203 3211 
Q 3513 2838 3513 2113 
z
" transform="scale(0.015625)"/>
       <path id="DejaVuSans-4a" d="M 2906 1791 
Q 2906 2416 2648 2759 
Q 2391 3103 1925 3103 
Q 1463 3103 1205 2759 
Q 947 2416 947 1791 
Q 947 1169 1205 825 
Q 1463 481 1925 481 
Q 2391 481 2648 825 
Q 2906 1169 2906 1791 
z
M 3481 434 
Q 3481 -459 3084 -895 
Q 2688 -1331 1869 -1331 
Q 1566 -1331 1297 -1286 
Q 1028 -1241 775 -1147 
L 775 -588 
Q 1028 -725 1275 -790 
Q 1522 -856 1778 -856 
Q 2344 -856 2625 -561 
Q 2906 -266 2906 331 
L 2906 616 
Q 2728 306 2450 153 
Q 2172 0 1784 0 
Q 1141 0 747 490 
Q 353 981 353 1791 
Q 353 2603 747 3093 
Q 1141 3584 1784 3584 
Q 2172 3584 2450 3431 
Q 2728 3278 2906 2969 
L 2906 3500 
L 3481 3500 
L 3481 434 
z
" transform="scale(0.015625)"/>
       <path id="DejaVuSans-56" d="M 2834 3397 
L 2834 2853 
Q 2591 2978 2328 3040 
Q 2066 3103 1784 3103 
Q 1356 3103 1142 2972 
Q 928 2841 928 2578 
Q 928 2378 1081 2264 
Q 1234 2150 1697 2047 
L 1894 2003 
Q 2506 1872 2764 1633 
Q 3022 1394 3022 966 
Q 3022 478 2636 193 
Q 2250 -91 1575 -91 
Q 1294 -91 989 -36 
Q 684 19 347 128 
L 347 722 
Q 666 556 975 473 
Q 1284 391 1588 391 
Q 1994 391 2212 530 
Q 2431 669 2431 922 
Q 2431 1156 2273 1281 
Q 2116 1406 1581 1522 
L 1381 1569 
Q 847 1681 609 1914 
Q 372 2147 372 2553 
Q 372 3047 722 3315 
Q 1072 3584 1716 3584 
Q 2034 3584 2315 3537 
Q 2597 3491 2834 3397 
z
" transform="scale(0.015625)"/>
      </defs>
      <use xlink:href="#DejaVuSans-26"/>
      <use xlink:href="#DejaVuSans-32" transform="translate(69.828125 0)"/>
      <use xlink:href="#DejaVuSans-b5d" transform="translate(148.546875 0)"/>
      <use xlink:href="#DejaVuSans-3" transform="translate(188.640625 0)"/>
      <use xlink:href="#DejaVuSans-36" transform="translate(220.421875 0)"/>
      <use xlink:href="#DejaVuSans-44" transform="translate(283.90625 0)"/>
      <use xlink:href="#DejaVuSans-59" transform="translate(345.1875 0)"/>
      <use xlink:href="#DejaVuSans-4c" transform="translate(404.375 0)"/>
      <use xlink:href="#DejaVuSans-51" transform="translate(432.15625 0)"/>
      <use xlink:href="#DejaVuSans-4a" transform="translate(495.53125 0)"/>
      <use xlink:href="#DejaVuSans-56" transform="translate(559.015625 0)"/>
      <use xlink:href="#DejaVuSans-3" transform="translate(611.109375 0)"/>
      <use xlink:href="#DejaVuSans-b" transform="translate(642.890625 0)"/>
      <use xlink:href="#DejaVuSans-8" transform="translate(681.90625 0)"/>
      <use xlink:href="#DejaVuSans-c" transform="translate(776.921875 0)"/>
     </g>
    </g>
   </g>
   <g id="line2d_17">
    <path d="M 85.061293 397.317187 
L 85.582374 396.777243 
L 86.885077 395.589364 
L 86.885077 393.213606 
L 88.969403 392.241705 
L 90.532647 383.27862 
L 97.046164 381.442807 
L 97.567246 372.803689 
L 98.348868 365.460438 
L 104.341304 361.03289 
L 107.988874 356.497353 
L 109.291577 353.905617 
L 113.199687 342.99873 
L 115.805094 341.162918 
L 122.058071 322.372835 
L 128.311047 311.573937 
L 138.472134 304.87862 
L 147.069977 281.984956 
L 152.541332 267.190466 
L 164.526204 263.51884 
L 179.116482 258.875314 
L 189.277569 239.437298 
L 193.967302 232.957959 
L 216.113261 218.05548 
L 216.894883 206.608648 
L 224.971644 200.885232 
L 245.033277 171.728207 
L 266.918696 158.66154 
L 281.769515 155.313882 
L 312.773857 148.402587 
L 319.026834 144.299006 
L 320.850619 119.893496 
L 326.843055 118.38165 
L 355.24199 116.32986 
L 361.755507 115.573937 
L 374.261461 99.159612 
L 382.859304 80.693496 
L 397.449582 76.913882 
L 400.054989 73.782201 
L 428.453925 64.38716 
L 436.009605 63.415259 
L 461.542593 56.287986 
L 475.872331 55.85603 
L 501.9264 53.048317 
L 505.573969 51.64446 
L 509.742621 50.888537 
L 510.524243 50.348592 
L 524.332899 49.916637 
L 524.853981 49.484681 
L 529.022632 49.268703 
L 529.543713 48.836747 
L 534.233446 48.620769 
L 538.662637 47.864846 
L 539.444259 47.648868 
L 552.992375 46.892945 
L 553.513457 46.460989 
L 557.942649 46.353 
L 558.203189 46.245011 
L 558.46373 45.921044 
L 586.602125 45.813055 
L 586.602125 45.597077 
L 587.383747 45.165121 
L 591.552398 45.057132 
L 592.073479 44.841154 
L 592.073479 44.625176 
L 592.33402 44.517187 
" clip-path="url(#pccdff9e4ac)" style="fill: none; stroke: #2563eb; stroke-width: 2; stroke-linecap: round"/>
    <defs>
     <path id="m21ed7fff1f" d="M 0 2 
C 0.530406 2 1.03916 1.789267 1.414214 1.414214 
C 1.789267 1.03916 2 0.530406 2 0 
C 2 -0.530406 1.789267 -1.03916 1.414214 -1.414214 
C 1.03916 -1.789267 0.530406 -2 0 -2 
C -0.530406 -2 -1.03916 -1.789267 -1.414214 -1.414214 
C -1.789267 -1.03916 -2 -0.530406 -2 0 
C -2 0.530406 -1.789267 1.03916 -1.414214 1.414214 
C -1.03916 1.789267 -0.530406 2 0 2 
z
" style="stroke: #2563eb"/>
    </defs>
    <g clip-path="url(#pccdff9e4ac)">
     <use xlink:href="#m21ed7fff1f" x="85.061293" y="397.317187" style="fill: #2563eb; stroke: #2563eb"/>
     <use xlink:href="#m21ed7fff1f" x="85.582374" y="396.777243" style="fill: #2563eb; stroke: #2563eb"/>
     <use xlink:href="#m21ed7fff1f" x="86.885077" y="395.589364" style="fill: #2563eb; stroke: #2563eb"/>
     <use xlink:href="#m21ed7fff1f" x="86.885077" y="393.213606" style="fill: #2563eb; stroke: #2563eb"/>
     <use xlink:href="#m21ed7fff1f" x="88.969403" y="392.241705" style="fill: #2563eb; stroke: #2563eb"/>
     <use xlink:href="#m21ed7fff1f" x="90.532647" y="383.27862" style="fill: #2563eb; stroke: #2563eb"/>
     <use xlink:href="#m21ed7fff1f" x="97.046164" y="381.442807" style="fill: #2563eb; stroke: #2563eb"/>
     <use xlink:href="#m21ed7fff1f" x="97.567246" y="372.803689" style="fill: #2563eb; stroke: #2563eb"/>
     <use xlink:href="#m21ed7fff1f" x="98.348868" y="365.460438" style="fill: #2563eb; stroke: #2563eb"/>
     <use xlink:href="#m21ed7fff1f" x="104.341304" y="361.03289" style="fill: #2563eb; stroke: #2563eb"/>
     <use xlink:href="#m21ed7fff1f" x="107.988874" y="356.497353" style="fill: #2563eb; stroke: #2563eb"/>
     <use xlink:href="#m21ed7fff1f" x="109.291577" y="353.905617" style="fill: #2563eb; stroke: #2563eb"/>
     <use xlink:href="#m21ed7fff1f" x="113.199687" y="342.99873" style="fill: #2563eb; stroke: #2563eb"/>
     <use xlink:href="#m21ed7fff1f" x="115.805094" y="341.162918" style="fill: #2563eb; stroke: #2563eb"/>
     <use xlink:href="#m21ed7fff1f" x="122.058071" y="322.372835" style="fill: #2563eb; stroke: #2563eb"/>
     <use xlink:href="#m21ed7fff1f" x="128.311047" y="311.573937" style="fill: #2563eb; stroke: #2563eb"/>
     <use xlink:href="#m21ed7fff1f" x="138.472134" y="304.87862" style="fill: #2563eb; stroke: #2563eb"/>
     <use xlink:href="#m21ed7fff1f" x="147.069977" y="281.984956" style="fill: #2563eb; stroke: #2563eb"/>
     <use xlink:href="#m21ed7fff1f" x="152.541332" y="267.190466" style="fill: #2563eb; stroke: #2563eb"/>
     <use xlink:href="#m21ed7fff1f" x="164.526204" y="263.51884" style="fill: #2563eb; stroke: #2563eb"/>
     <use xlink:href="#m21ed7fff1f" x="179.116482" y="258.875314" style="fill: #2563eb; stroke: #2563eb"/>
     <use xlink:href="#m21ed7fff1f" x="189.277569" y="239.437298" style="fill: #2563eb; stroke: #2563eb"/>
     <use xlink:href="#m21ed7fff1f" x="193.967302" y="232.957959" style="fill: #2563eb; stroke: #2563eb"/>
     <use xlink:href="#m21ed7fff1f" x="216.113261" y="218.05548" style="fill: #2563eb; stroke: #2563eb"/>
     <use xlink:href="#m21ed7fff1f" x="216.894883" y="206.608648" style="fill: #2563eb; stroke: #2563eb"/>
     <use xlink:href="#m21ed7fff1f" x="224.971644" y="200.885232" style="fill: #2563eb; stroke: #2563eb"/>
     <use xlink:href="#m21ed7fff1f" x="245.033277" y="171.728207" style="fill: #2563eb; stroke: #2563eb"/>
     <use xlink:href="#m21ed7fff1f" x="266.918696" y="158.66154" style="fill: #2563eb; stroke: #2563eb"/>
     <use xlink:href="#m21ed7fff1f" x="281.769515" y="155.313882" style="fill: #2563eb; stroke: #2563eb"/>
     <use xlink:href="#m21ed7fff1f" x="312.773857" y="148.402587" style="fill: #2563eb; stroke: #2563eb"/>
     <use xlink:href="#m21ed7fff1f" x="319.026834" y="144.299006" style="fill: #2563eb; stroke: #2563eb"/>
     <use xlink:href="#m21ed7fff1f" x="320.850619" y="119.893496" style="fill: #2563eb; stroke: #2563eb"/>
     <use xlink:href="#m21ed7fff1f" x="326.843055" y="118.38165" style="fill: #2563eb; stroke: #2563eb"/>
     <use xlink:href="#m21ed7fff1f" x="355.24199" y="116.32986" style="fill: #2563eb; stroke: #2563eb"/>
     <use xlink:href="#m21ed7fff1f" x="361.755507" y="115.573937" style="fill: #2563eb; stroke: #2563eb"/>
     <use xlink:href="#m21ed7fff1f" x="374.261461" y="99.159612" style="fill: #2563eb; stroke: #2563eb"/>
     <use xlink:href="#m21ed7fff1f" x="382.859304" y="80.693496" style="fill: #2563eb; stroke: #2563eb"/>
     <use xlink:href="#m21ed7fff1f" x="397.449582" y="76.913882" style="fill: #2563eb; stroke: #2563eb"/>
     <use xlink:href="#m21ed7fff1f" x="400.054989" y="73.782201" style="fill: #2563eb; stroke: #2563eb"/>
     <use xlink:href="#m21ed7fff1f" x="428.453925" y="64.38716" style="fill: #2563eb; stroke: #2563eb"/>
     <use xlink:href="#m21ed7fff1f" x="436.009605" y="63.415259" style="fill: #2563eb; stroke: #2563eb"/>
     <use xlink:href="#m21ed7fff1f" x="461.542593" y="56.287986" style="fill: #2563eb; stroke: #2563eb"/>
     <use xlink:href="#m21ed7fff1f" x="475.872331" y="55.85603" style="fill: #2563eb; stroke: #2563eb"/>
     <use xlink:href="#m21ed7fff1f" x="501.9264" y="53.048317" style="fill: #2563eb; stroke: #2563eb"/>
     <use xlink:href="#m21ed7fff1f" x="505.573969" y="51.64446" style="fill: #2563eb; stroke: #2563eb"/>
     <use xlink:href="#m21ed7fff1f" x="509.742621" y="50.888537" style="fill: #2563eb; stroke: #2563eb"/>
     <use xlink:href="#m21ed7fff1f" x="510.524243" y="50.348592" style="fill: #2563eb; stroke: #2563eb"/>
     <use xlink:href="#m21ed7fff1f" x="524.332899" y="49.916637" style="fill: #2563eb; stroke: #2563eb"/>
     <use xlink:href="#m21ed7fff1f" x="524.853981" y="49.484681" style="fill: #2563eb; stroke: #2563eb"/>
     <use xlink:href="#m21ed7fff1f" x="529.022632" y="49.268703" style="fill: #2563eb; stroke: #2563eb"/>
     <use xlink:href="#m21ed7fff1f" x="529.543713" y="48.836747" style="fill: #2563eb; stroke: #2563eb"/>
     <use xlink:href="#m21ed7fff1f" x="534.233446" y="48.620769" style="fill: #2563eb; stroke: #2563eb"/>
     <use xlink:href="#m21ed7fff1f" x="538.662637" y="47.864846" style="fill: #2563eb; stroke: #2563eb"/>
     <use xlink:href="#m21ed7fff1f" x="539.444259" y="47.648868" style="fill: #2563eb; stroke: #2563eb"/>
     <use xlink:href="#m21ed7fff1f" x="552.992375" y="46.892945" style="fill: #2563eb; stroke: #2563eb"/>
     <use xlink:href="#m21ed7fff1f" x="553.513457" y="46.460989" style="fill: #2563eb; stroke: #2563eb"/>
     <use xlink:href="#m21ed7fff1f" x="557.942649" y="46.353" style="fill: #2563eb; stroke: #2563eb"/>
     <use xlink:href="#m21ed7fff1f" x="558.203189" y="46.245011" style="fill: #2563eb; stroke: #2563eb"/>
     <use xlink:href="#m21ed7fff1f" x="558.46373" y="45.921044" style="fill: #2563eb; stroke: #2563eb"/>
     <use xlink:href="#m21ed7fff1f" x="586.602125" y="45.813055" style="fill: #2563eb; stroke: #2563eb"/>
     <use xlink:href="#m21ed7fff1f" x="586.602125" y="45.597077" style="fill: #2563eb; stroke: #2563eb"/>
     <use xlink:href="#m21ed7fff1f" x="587.383747" y="45.165121" style="fill: #2563eb; stroke: #2563eb"/>
     <use xlink:href="#m21ed7fff1f" x="591.552398" y="45.057132" style="fill: #2563eb; stroke: #2563eb"/>
     <use xlink:href="#m21ed7fff1f" x="592.073479" y="44.841154" style="fill: #2563eb; stroke: #2563eb"/>
     <use xlink:href="#m21ed7fff1f" x="592.073479" y="44.625176" style="fill: #2563eb; stroke: #2563eb"/>
     <use xlink:href="#m21ed7fff1f" x="592.33402" y="44.517187" style="fill: #2563eb; stroke: #2563eb"/>
    </g>
   </g>
   <g id="line2d_18">
    <path d="M 85.061293 397.317187 
L 85.321833 397.209199 
L 85.321833 397.10121 
L 85.321833 396.993221 
L 85.582374 396.777243 
L 85.842915 396.453276 
L 86.363996 396.345287 
L 86.885077 395.913331 
L 86.885077 395.805342 
L 87.145618 395.157408 
L 87.92724 392.349694 
L 92.616973 391.917738 
L 93.919676 384.35851 
L 99.651571 384.142532 
L 104.080763 377.879171 
L 104.080763 367.188262 
L 117.107798 345.806444 
L 122.318612 326.152449 
L 135.866728 307.146389 
L 136.127268 306.498455 
L 143.422408 300.559061 
L 149.154303 300.235094 
L 165.568366 283.496802 
L 172.602965 281.660989 
L 184.848378 267.8384 
L 187.193244 266.974488 
L 191.361895 265.570631 
L 195.791087 264.166774 
L 212.20515 257.25548 
L 214.550017 256.715535 
L 219.239749 254.663744 
L 324.758729 252.719942 
L 325.540351 249.80424 
L 328.406299 247.320493 
L 332.57495 242.568978 
L 334.398735 241.489088 
L 336.48306 241.057132 
L 337.525223 237.277518 
L 341.693874 236.413606 
L 343.517659 235.009749 
L 345.601985 234.469805 
L 347.946851 234.145838 
L 348.207392 233.605893 
L 350.031176 232.418014 
L 352.115502 232.094047 
L 352.897124 231.77008 
L 356.023612 231.446113 
L 358.368478 231.014157 
L 360.452804 230.582201 
L 361.494967 229.718289 
L 362.53713 228.854378 
L 364.881996 228.530411 
L 367.226862 228.314433 
L 368.790106 228.206444 
L 370.874432 227.666499 
L 370.874432 225.722697 
L 372.958757 225.074763 
L 375.303623 224.642807 
L 377.387949 223.022973 
L 379.732815 222.806995 
L 383.119844 222.483028 
L 384.683088 222.26705 
L 387.027955 221.835094 
L 387.549036 221.619116 
L 390.936065 221.511127 
L 391.196606 221.403138 
L 391.717687 221.18716 
L 394.062553 220.971182 
L 394.583635 219.999281 
L 396.928501 219.783303 
L 404.22364 219.567325 
L 418.032297 219.351347 
L 419.07446 219.02738 
L 419.335 218.919391 
L 419.595541 218.595424 
L 420.116622 218.379446 
" clip-path="url(#pccdff9e4ac)" style="fill: none; stroke: #dc2626; stroke-width: 2; stroke-linecap: round"/>
    <defs>
     <path id="mb1b6317e2d" d="M 0 2 
C 0.530406 2 1.03916 1.789267 1.414214 1.414214 
C 1.789267 1.03916 2 0.530406 2 0 
C 2 -0.530406 1.789267 -1.03916 1.414214 -1.414214 
C 1.03916 -1.789267 0.530406 -2 0 -2 
C -0.530406 -2 -1.03916 -1.789267 -1.414214 -1.414214 
C -1.789267 -1.03916 -2 -0.530406 -2 0 
C -2 0.530406 -1.789267 1.03916 -1.414214 1.414214 
C -1.03916 1.789267 -0.530406 2 0 2 
z
" style="stroke: #dc2626"/>
    </defs>
    <g clip-path="url(#pccdff9e4ac)">
     <use xlink:href="#mb1b6317e2d" x="85.061293" y="397.317187" style="fill: #dc2626; stroke: #dc2626"/>
     <use xlink:href="#mb1b6317e2d" x="85.321833" y="397.209199" style="fill: #dc2626; stroke: #dc2626"/>
     <use xlink:href="#mb1b6317e2d" x="85.321833" y="397.10121" style="fill: #dc2626; stroke: #dc2626"/>
     <use xlink:href="#mb1b6317e2d" x="85.321833" y="396.993221" style="fill: #dc2626; stroke: #dc2626"/>
     <use xlink:href="#mb1b6317e2d" x="85.582374" y="396.777243" style="fill: #dc2626; stroke: #dc2626"/>
     <use xlink:href="#mb1b6317e2d" x="85.842915" y="396.453276" style="fill: #dc2626; stroke: #dc2626"/>
     <use xlink:href="#mb1b6317e2d" x="86.363996" y="396.345287" style="fill: #dc2626; stroke: #dc2626"/>
     <use xlink:href="#mb1b6317e2d" x="86.885077" y="395.913331" style="fill: #dc2626; stroke: #dc2626"/>
     <use xlink:href="#mb1b6317e2d" x="86.885077" y="395.805342" style="fill: #dc2626; stroke: #dc2626"/>
     <use xlink:href="#mb1b6317e2d" x="87.145618" y="395.157408" style="fill: #dc2626; stroke: #dc2626"/>
     <use xlink:href="#mb1b6317e2d" x="87.92724" y="392.349694" style="fill: #dc2626; stroke: #dc2626"/>
     <use xlink:href="#mb1b6317e2d" x="92.616973" y="391.917738" style="fill: #dc2626; stroke: #dc2626"/>
     <use xlink:href="#mb1b6317e2d" x="93.919676" y="384.35851" style="fill: #dc2626; stroke: #dc2626"/>
     <use xlink:href="#mb1b6317e2d" x="99.651571" y="384.142532" style="fill: #dc2626; stroke: #dc2626"/>
     <use xlink:href="#mb1b6317e2d" x="104.080763" y="377.879171" style="fill: #dc2626; stroke: #dc2626"/>
     <use xlink:href="#mb1b6317e2d" x="104.080763" y="367.188262" style="fill: #dc2626; stroke: #dc2626"/>
     <use xlink:href="#mb1b6317e2d" x="117.107798" y="345.806444" style="fill: #dc2626; stroke: #dc2626"/>
     <use xlink:href="#mb1b6317e2d" x="122.318612" y="326.152449" style="fill: #dc2626; stroke: #dc2626"/>
     <use xlink:href="#mb1b6317e2d" x="135.866728" y="307.146389" style="fill: #dc2626; stroke: #dc2626"/>
     <use xlink:href="#mb1b6317e2d" x="136.127268" y="306.498455" style="fill: #dc2626; stroke: #dc2626"/>
     <use xlink:href="#mb1b6317e2d" x="143.422408" y="300.559061" style="fill: #dc2626; stroke: #dc2626"/>
     <use xlink:href="#mb1b6317e2d" x="149.154303" y="300.235094" style="fill: #dc2626; stroke: #dc2626"/>
     <use xlink:href="#mb1b6317e2d" x="165.568366" y="283.496802" style="fill: #dc2626; stroke: #dc2626"/>
     <use xlink:href="#mb1b6317e2d" x="172.602965" y="281.660989" style="fill: #dc2626; stroke: #dc2626"/>
     <use xlink:href="#mb1b6317e2d" x="184.848378" y="267.8384" style="fill: #dc2626; stroke: #dc2626"/>
     <use xlink:href="#mb1b6317e2d" x="187.193244" y="266.974488" style="fill: #dc2626; stroke: #dc2626"/>
     <use xlink:href="#mb1b6317e2d" x="191.361895" y="265.570631" style="fill: #dc2626; stroke: #dc2626"/>
     <use xlink:href="#mb1b6317e2d" x="195.791087" y="264.166774" style="fill: #dc2626; stroke: #dc2626"/>
     <use xlink:href="#mb1b6317e2d" x="212.20515" y="257.25548" style="fill: #dc2626; stroke: #dc2626"/>
     <use xlink:href="#mb1b6317e2d" x="214.550017" y="256.715535" style="fill: #dc2626; stroke: #dc2626"/>
     <use xlink:href="#mb1b6317e2d" x="219.239749" y="254.663744" style="fill: #dc2626; stroke: #dc2626"/>
     <use xlink:href="#mb1b6317e2d" x="324.758729" y="252.719942" style="fill: #dc2626; stroke: #dc2626"/>
     <use xlink:href="#mb1b6317e2d" x="325.540351" y="249.80424" style="fill: #dc2626; stroke: #dc2626"/>
     <use xlink:href="#mb1b6317e2d" x="328.406299" y="247.320493" style="fill: #dc2626; stroke: #dc2626"/>
     <use xlink:href="#mb1b6317e2d" x="332.57495" y="242.568978" style="fill: #dc2626; stroke: #dc2626"/>
     <use xlink:href="#mb1b6317e2d" x="334.398735" y="241.489088" style="fill: #dc2626; stroke: #dc2626"/>
     <use xlink:href="#mb1b6317e2d" x="336.48306" y="241.057132" style="fill: #dc2626; stroke: #dc2626"/>
     <use xlink:href="#mb1b6317e2d" x="337.525223" y="237.277518" style="fill: #dc2626; stroke: #dc2626"/>
     <use xlink:href="#mb1b6317e2d" x="341.693874" y="236.413606" style="fill: #dc2626; stroke: #dc2626"/>
     <use xlink:href="#mb1b6317e2d" x="343.517659" y="235.009749" style="fill: #dc2626; stroke: #dc2626"/>
     <use xlink:href="#mb1b6317e2d" x="345.601985" y="234.469805" style="fill: #dc2626; stroke: #dc2626"/>
     <use xlink:href="#mb1b6317e2d" x="347.946851" y="234.145838" style="fill: #dc2626; stroke: #dc2626"/>
     <use xlink:href="#mb1b6317e2d" x="348.207392" y="233.605893" style="fill: #dc2626; stroke: #dc2626"/>
     <use xlink:href="#mb1b6317e2d" x="350.031176" y="232.418014" style="fill: #dc2626; stroke: #dc2626"/>
     <use xlink:href="#mb1b6317e2d" x="352.115502" y="232.094047" style="fill: #dc2626; stroke: #dc2626"/>
     <use xlink:href="#mb1b6317e2d" x="352.897124" y="231.77008" style="fill: #dc2626; stroke: #dc2626"/>
     <use xlink:href="#mb1b6317e2d" x="356.023612" y="231.446113" style="fill: #dc2626; stroke: #dc2626"/>
     <use xlink:href="#mb1b6317e2d" x="358.368478" y="231.014157" style="fill: #dc2626; stroke: #dc2626"/>
     <use xlink:href="#mb1b6317e2d" x="360.452804" y="230.582201" style="fill: #dc2626; stroke: #dc2626"/>
     <use xlink:href="#mb1b6317e2d" x="361.494967" y="229.718289" style="fill: #dc2626; stroke: #dc2626"/>
     <use xlink:href="#mb1b6317e2d" x="362.53713" y="228.854378" style="fill: #dc2626; stroke: #dc2626"/>
     <use xlink:href="#mb1b6317e2d" x="364.881996" y="228.530411" style="fill: #dc2626; stroke: #dc2626"/>
     <use xlink:href="#mb1b6317e2d" x="367.226862" y="228.314433" style="fill: #dc2626; stroke: #dc2626"/>
     <use xlink:href="#mb1b6317e2d" x="368.790106" y="228.206444" style="fill: #dc2626; stroke: #dc2626"/>
     <use xlink:href="#mb1b6317e2d" x="370.874432" y="227.666499" style="fill: #dc2626; stroke: #dc2626"/>
     <use xlink:href="#mb1b6317e2d" x="370.874432" y="225.722697" style="fill: #dc2626; stroke: #dc2626"/>
     <use xlink:href="#mb1b6317e2d" x="372.958757" y="225.074763" style="fill: #dc2626; stroke: #dc2626"/>
     <use xlink:href="#mb1b6317e2d" x="375.303623" y="224.642807" style="fill: #dc2626; stroke: #dc2626"/>
     <use xlink:href="#mb1b6317e2d" x="377.387949" y="223.022973" style="fill: #dc2626; stroke: #dc2626"/>
     <use xlink:href="#mb1b6317e2d" x="379.732815" y="222.806995" style="fill: #dc2626; stroke: #dc2626"/>
     <use xlink:href="#mb1b6317e2d" x="383.119844" y="222.483028" style="fill: #dc2626; stroke: #dc2626"/>
     <use xlink:href="#mb1b6317e2d" x="384.683088" y="222.26705" style="fill: #dc2626; stroke: #dc2626"/>
     <use xlink:href="#mb1b6317e2d" x="387.027955" y="221.835094" style="fill: #dc2626; stroke: #dc2626"/>
     <use xlink:href="#mb1b6317e2d" x="387.549036" y="221.619116" style="fill: #dc2626; stroke: #dc2626"/>
     <use xlink:href="#mb1b6317e2d" x="390.936065" y="221.511127" style="fill: #dc2626; stroke: #dc2626"/>
     <use xlink:href="#mb1b6317e2d" x="391.196606" y="221.403138" style="fill: #dc2626; stroke: #dc2626"/>
     <use xlink:href="#mb1b6317e2d" x="391.717687" y="221.18716" style="fill: #dc2626; stroke: #dc2626"/>
     <use xlink:href="#mb1b6317e2d" x="394.062553" y="220.971182" style="fill: #dc2626; stroke: #dc2626"/>
     <use xlink:href="#mb1b6317e2d" x="394.583635" y="219.999281" style="fill: #dc2626; stroke: #dc2626"/>
     <use xlink:href="#mb1b6317e2d" x="396.928501" y="219.783303" style="fill: #dc2626; stroke: #dc2626"/>
     <use xlink:href="#mb1b6317e2d" x="404.22364" y="219.567325" style="fill: #dc2626; stroke: #dc2626"/>
     <use xlink:href="#mb1b6317e2d" x="418.032297" y="219.351347" style="fill: #dc2626; stroke: #dc2626"/>
     <use xlink:href="#mb1b6317e2d" x="419.07446" y="219.02738" style="fill: #dc2626; stroke: #dc2626"/>
     <use xlink:href="#mb1b6317e2d" x="419.335" y="218.919391" style="fill: #dc2626; stroke: #dc2626"/>
     <use xlink:href="#mb1b6317e2d" x="419.595541" y="218.595424" style="fill: #dc2626; stroke: #dc2626"/>
     <use xlink:href="#mb1b6317e2d" x="420.116622" y="218.379446" style="fill: #dc2626; stroke: #dc2626"/>
    </g>
   </g>
   <g id="patch_3">
    <path d="M 59.697656 414.957187 
L 59.697656 26.877187 
" style="fill: none; stroke: #cccccc; stroke-width: 1.25; stroke-linejoin: miter; stroke-linecap: square"/>
   </g>
   <g id="patch_4">
    <path d="M 617.697656 414.957187 
L 617.697656 26.877187 
" style="fill: none; stroke: #cccccc; stroke-width: 1.25; stroke-linejoin: miter; stroke-linecap: square"/>
   </g>
   <g id="patch_5">
    <path d="M 59.697656 414.957187 
L 617.697656 414.957187 
" style="fill: none; stroke: #cccccc; stroke-width: 1.25; stroke-linejoin: miter; stroke-linecap: square"/>
   </g>
   <g id="patch_6">
    <path d="M 59.697656 26.877187 
L 617.697656 26.877187 
" style="fill: none; stroke: #cccccc; stroke-width: 1.25; stroke-linejoin: miter; stroke-linecap: square"/>
   </g>
   <g id="text_19">
    <!-- Pareto Frontiers: CO₂ Savings vs Overhead — IT -->
    <g style="fill: #262626" transform="translate(124.573594 20.877187) scale(0.18 -0.18)">
     <defs>
      <path id="DejaVuSans-33" d="M 1259 4147 
L 1259 2394 
L 2053 2394 
Q 2494 2394 2734 2622 
Q 2975 2850 2975 3272 
Q 2975 3691 2734 3919 
Q 2494 4147 2053 4147 
L 1259 4147 
z
M 628 4666 
L 2053 4666 
Q 2838 4666 3239 4311 
Q 3641 3956 3641 3272 
Q 3641 2581 3239 2228 
Q 2838 1875 2053 1875 
L 1259 1875 
L 1259 0 
L 628 0 
L 628 4666 
z
" transform="scale(0.015625)"/>
      <path id="DejaVuSans-57" d="M 1172 4494 
L 1172 3500 
L 2356 3500 
L 2356 3053 
L 1172 3053 
L 1172 1153 
Q 1172 725 1289 603 
Q 1406 481 1766 481 
L 2356 481 
L 2356 0 
L 1766 0 
Q 1100 0 847 248 
Q 594 497 594 1153 
L 594 3053 
L 172 3053 
L 172 3500 
L 594 3500 
L 594 4494 
L 1172 4494 
z
" transform="scale(0.015625)"/>
      <path id="DejaVuSans-52" d="M 1959 3097 
Q 1497 3097 1228 2736 
Q 959 2375 959 1747 
Q 959 1119 1226 758 
Q 1494 397 1959 397 
Q 2419 397 2687 759 
Q 2956 1122 2956 1747 
Q 2956 2369 2687 2733 
Q 2419 3097 1959 3097 
z
M 1959 3584 
Q 2709 3584 3137 3096 
Q 3566 2609 3566 1747 
Q 3566 888 3137 398 
Q 2709 -91 1959 -91 
Q 1206 -91 779 398 
Q 353 888 353 1747 
Q 353 2609 779 3096 
Q 1206 3584 1959 3584 
z
" transform="scale(0.015625)"/>
      <path id="DejaVuSans-29" d="M 628 4666 
L 3309 4666 
L 3309 4134 
L 1259 4134 
L 1259 2759 
L 3109 2759 
L 3109 2228 
L 1259 2228 
L 1259 0 
L 628 0 
L 628 4666 
z
" transform="scale(0.015625)"/>
      <path id="DejaVuSans-1d" d="M 750 794 
L 1409 794 
L 1409 0 
L 750 0 
L 750 794 
z
M 750 3309 
L 1409 3309 
L 1409 2516 
L 750 2516 
L 750 3309 
z
" transform="scale(0.015625)"/>
      <path id="DejaVuSans-af6" d="M 313 1978 
L 6088 1978 
L 6088 1528 
L 313 1528 
L 313 1978 
z
" transform="scale(0.015625)"/>
      <path id="DejaVuSans-2c" d="M 628 4666 
L 1259 4666 
L 1259 0 
L 628 0 
L 628 4666 
z
" transform="scale(0.015625)"/>
     </defs>
     <use xlink:href="#DejaVuSans-33"/>
     <use xlink:href="#DejaVuSans-44" transform="translate(55.8125 0)"/>
     <use xlink:href="#DejaVuSans-55" transform="translate(117.09375 0)"/>
     <use xlink:href="#DejaVuSans-48" transform="translate(156 0)"/>
     <use xlink:href="#DejaVuSans-57" transform="translate(217.53125 0)"/>
     <use xlink:href="#DejaVuSans-52" transform="translate(256.734375 0)"/>
     <use xlink:href="#DejaVuSans-3" transform="translate(317.921875 0)"/>
     <use xlink:href="#DejaVuSans-29" transform="translate(349.703125 0)"/>
     <use xlink:href="#DejaVuSans-55" transform="translate(399.9375 0)"/>
     <use xlink:href="#DejaVuSans-52" transform="translate(438.84375 0)"/>
     <use xlink:href="#DejaVuSans-51" transform="translate(500.03125 0)"/>
     <use xlink:href="#DejaVuSans-57" transform="translate(563.40625 0)"/>
     <use xlink:href="#DejaVuSans-4c" transform="translate(602.609375 0)"/>
     <use xlink:href="#DejaVuSans-48" transform="translate(630.390625 0)"/>
     <use xlink:href="#DejaVuSans-55" transform="translate(691.921875 0)"/>
     <use xlink:href="#DejaVuSans-56" transform="translate(733.03125 0)"/>
     <use xlink:href="#DejaVuSans-1d" transform="translate(785.125 0)"/>
     <use xlink:href="#DejaVuSans-3" transform="translate(818.8125 0)"/>
     <use xlink:href="#DejaVuSans-26" transform="translate(850.59375 0)"/>
     <use xlink:href="#DejaVuSans-32" transform="translate(920.421875 0)"/>
     <use xlink:href="#DejaVuSans-b5d" transform="translate(999.140625 0)"/>
     <use xlink:href="#DejaVuSans-3" transform="translate(1039.234375 0)"/>
     <use xlink:href="#DejaVuSans-36" transform="translate(1071.015625 0)"/>
     <use xlink:href="#DejaVuSans-44" transform="translate(1134.5 0)"/>
     <use xlink:href="#DejaVuSans-59" transform="translate(1195.78125 0)"/>
     <use xlink:href="#DejaVuSans-4c" transform="translate(1254.96875 0)"/>
     <use xlink:href="#DejaVuSans-51" transform="translate(1282.75 0)"/>
     <use xlink:href="#DejaVuSans-4a" transform="translate(1346.125 0)"/>
     <use xlink:href="#DejaVuSans-56" transform="translate(1409.609375 0)"/>
     <use xlink:href="#DejaVuSans-3" transform="translate(1461.703125 0)"/>
     <use xlink:href="#DejaVuSans-59" transform="translate(1493.484375 0)"/>
     <use xlink:href="#DejaVuSans-56" transform="translate(1552.671875 0)"/>
     <use xlink:href="#DejaVuSans-3" transform="translate(1604.765625 0)"/>
     <use xlink:href="#DejaVuSans-32" transform="translate(1636.546875 0)"/>
     <use xlink:href="#DejaVuSans-59" transform="translate(1715.265625 0)"/>
     <use xlink:href="#DejaVuSans-48" transform="translate(1774.453125 0)"/>
     <use xlink:href="#DejaVuSans-55" transform="translate(1835.984375 0)"/>
     <use xlink:href="#DejaVuSans-4b" transform="translate(1875.34375 0)"/>
     <use xlink:href="#DejaVuSans-48" transform="translate(1938.71875 0)"/>
     <use xlink:href="#DejaVuSans-44" transform="translate(2000.25 0)"/>
     <use xlink:href="#DejaVuSans-47" transform="translate(2061.53125 0)"/>
     <use xlink:href="#DejaVuSans-3" transform="translate(2125.015625 0)"/>
     <use xlink:href="#DejaVuSans-af6" transform="translate(2156.796875 0)"/>
     <use xlink:href="#DejaVuSans-3" transform="translate(2256.796875 0)"/>
     <use xlink:href="#DejaVuSans-2c" transform="translate(2288.578125 0)"/>
     <use xlink:href="#DejaVuSans-37" transform="translate(2318.078125 0)"/>
    </g>
   </g>
   <g id="legend_1">
    <g id="patch_7">
     <path d="M 464.157656 410.457187 
L 611.397656 410.457187 
Q 613.197656 410.457187 613.197656 408.657187 
L 613.197656 355.554375 
Q 613.197656 353.754375 611.397656 353.754375 
L 464.157656 353.754375 
Q 462.357656 353.754375 462.357656 355.554375 
L 462.357656 408.657187 
Q 462.357656 410.457187 464.157656 410.457187 
z
" style="fill: #ffffff; opacity: 0.8; stroke: #cccccc; stroke-linejoin: miter"/>
    </g>
    <g id="line2d_19">
     <path d="M 465.957656 361.042969 
L 474.957656 361.042969 
L 483.957656 361.042969 
" style="fill: none; stroke: #2563eb; stroke-width: 2; stroke-linecap: round"/>
     <g>
      <use xlink:href="#m21ed7fff1f" x="474.957656" y="361.042969" style="fill: #2563eb; stroke: #2563eb"/>
     </g>
    </g>
    <g id="text_20">
     <!-- DeepSeek V3 frontier -->
     <g style="fill: #262626" transform="translate(491.157656 364.192969) scale(0.09 -0.09)">
      <defs>
       <path id="DejaVuSans-27" d="M 1259 4147 
L 1259 519 
L 2022 519 
Q 2988 519 3436 956 
Q 3884 1394 3884 2338 
Q 3884 3275 3436 3711 
Q 2988 4147 2022 4147 
L 1259 4147 
z
M 628 4666 
L 1925 4666 
Q 3281 4666 3915 4102 
Q 4550 3538 4550 2338 
Q 4550 1131 3912 565 
Q 3275 0 1925 0 
L 628 0 
L 628 4666 
z
" transform="scale(0.015625)"/>
       <path id="DejaVuSans-53" d="M 1159 525 
L 1159 -1331 
L 581 -1331 
L 581 3500 
L 1159 3500 
L 1159 2969 
Q 1341 3281 1617 3432 
Q 1894 3584 2278 3584 
Q 2916 3584 3314 3078 
Q 3713 2572 3713 1747 
Q 3713 922 3314 415 
Q 2916 -91 2278 -91 
Q 1894 -91 1617 61 
Q 1341 213 1159 525 
z
M 3116 1747 
Q 3116 2381 2855 2742 
Q 2594 3103 2138 3103 
Q 1681 3103 1420 2742 
Q 1159 2381 1159 1747 
Q 1159 1113 1420 752 
Q 1681 391 2138 391 
Q 2594 391 2855 752 
Q 3116 1113 3116 1747 
z
" transform="scale(0.015625)"/>
       <path id="DejaVuSans-4e" d="M 581 4863 
L 1159 4863 
L 1159 1991 
L 2875 3500 
L 3609 3500 
L 1753 1863 
L 3688 0 
L 2938 0 
L 1159 1709 
L 1159 0 
L 581 0 
L 581 4863 
z
" transform="scale(0.015625)"/>
       <path id="DejaVuSans-39" d="M 1831 0 
L 50 4666 
L 709 4666 
L 2188 738 
L 3669 4666 
L 4325 4666 
L 2547 0 
L 1831 0 
z
" transform="scale(0.015625)"/>
       <path id="DejaVuSans-49" d="M 2375 4863 
L 2375 4384 
L 1825 4384 
Q 1516 4384 1395 4259 
Q 1275 4134 1275 3809 
L 1275 3500 
L 2222 3500 
L 2222 3053 
L 1275 3053 
L 1275 0 
L 697 0 
L 697 3053 
L 147 3053 
L 147 3500 
L 697 3500 
L 697 3744 
Q 697 4328 969 4595 
Q 1241 4863 1831 4863 
L 2375 4863 
z
" transform="scale(0.015625)"/>
      </defs>
      <use xlink:href="#DejaVuSans-27"/>
      <use xlink:href="#DejaVuSans-48" transform="translate(77 0)"/>
      <use xlink:href="#DejaVuSans-48" transform="translate(138.53125 0)"/>
      <use xlink:href="#DejaVuSans-53" transform="translate(200.0625 0)"/>
      <use xlink:href="#DejaVuSans-36" transform="translate(263.546875 0)"/>
      <use xlink:href="#DejaVuSans-48" transform="translate(327.03125 0)"/>
      <use xlink:href="#DejaVuSans-48" transform="translate(388.5625 0)"/>
      <use xlink:href="#DejaVuSans-4e" transform="translate(450.09375 0)"/>
      <use xlink:href="#DejaVuSans-3" transform="translate(508 0)"/>
      <use xlink:href="#DejaVuSans-39" transform="translate(539.78125 0)"/>
      <use xlink:href="#DejaVuSans-16" transform="translate(608.1875 0)"/>
      <use xlink:href="#DejaVuSans-3" transform="translate(671.8125 0)"/>
      <use xlink:href="#DejaVuSans-49" transform="translate(703.59375 0)"/>
      <use xlink:href="#DejaVuSans-55" transform="translate(738.796875 0)"/>
      <use xlink:href="#DejaVuSans-52" transform="translate(777.703125 0)"/>
      <use xlink:href="#DejaVuSans-51" transform="translate(838.890625 0)"/>
      <use xlink:href="#DejaVuSans-57" transform="translate(902.265625 0)"/>
      <use xlink:href="#DejaVuSans-4c" transform="translate(941.46875 0)"/>
      <use xlink:href="#DejaVuSans-48" transform="translate(969.25 0)"/>
      <use xlink:href="#DejaVuSans-55" transform="translate(1030.78125 0)"/>
     </g>
    </g>
    <g id="PathCollection_1">
     <defs>
      <path id="m826435cafe" d="M 0 -7.071068 
L -1.587554 -2.18508 
L -6.724985 -2.18508 
L -2.568716 0.834626 
L -4.156269 5.720614 
L -0 2.700907 
L 4.156269 5.720614 
L 2.568716 0.834626 
L 6.724985 -2.18508 
L 1.587554 -2.18508 
z
" style="stroke: #000000"/>
     </defs>
     <g>
      <use xlink:href="#m826435cafe" x="474.957656" y="375.331172" style="fill: #ff0000; stroke: #000000"/>
     </g>
    </g>
    <g id="text_21">
     <!-- DeepSeek V3 best (0.663) -->
     <g style="fill: #262626" transform="translate(491.157656 377.693672) scale(0.09 -0.09)">
      <defs>
       <path id="DejaVuSans-45" d="M 3116 1747 
Q 3116 2381 2855 2742 
Q 2594 3103 2138 3103 
Q 1681 3103 1420 2742 
Q 1159 2381 1159 1747 
Q 1159 1113 1420 752 
Q 1681 391 2138 391 
Q 2594 391 2855 752 
Q 3116 1113 3116 1747 
z
M 1159 2969 
Q 1341 3281 1617 3432 
Q 1894 3584 2278 3584 
Q 2916 3584 3314 3078 
Q 3713 2572 3713 1747 
Q 3713 922 3314 415 
Q 2916 -91 2278 -91 
Q 1894 -91 1617 61 
Q 1341 213 1159 525 
L 1159 0 
L 581 0 
L 581 4863 
L 1159 4863 
L 1159 2969 
z
" transform="scale(0.015625)"/>
       <path id="DejaVuSans-11" d="M 684 794 
L 1344 794 
L 1344 0 
L 684 0 
L 684 794 
z
" transform="scale(0.015625)"/>
       <path id="DejaVuSans-19" d="M 2113 2584 
Q 1688 2584 1439 2293 
Q 1191 2003 1191 1497 
Q 1191 994 1439 701 
Q 1688 409 2113 409 
Q 2538 409 2786 701 
Q 3034 994 3034 1497 
Q 3034 2003 2786 2293 
Q 2538 2584 2113 2584 
z
M 3366 4563 
L 3366 3988 
Q 3128 4100 2886 4159 
Q 2644 4219 2406 4219 
Q 1781 4219 1451 3797 
Q 1122 3375 1075 2522 
Q 1259 2794 1537 2939 
Q 1816 3084 2150 3084 
Q 2853 3084 3261 2657 
Q 3669 2231 3669 1497 
Q 3669 778 3244 343 
Q 2819 -91 2113 -91 
Q 1303 -91 875 529 
Q 447 1150 447 2328 
Q 447 3434 972 4092 
Q 1497 4750 2381 4750 
Q 2619 4750 2861 4703 
Q 3103 4656 3366 4563 
z
" transform="scale(0.015625)"/>
      </defs>
      <use xlink:href="#DejaVuSans-27"/>
      <use xlink:href="#DejaVuSans-48" transform="translate(77 0)"/>
      <use xlink:href="#DejaVuSans-48" transform="translate(138.53125 0)"/>
      <use xlink:href="#DejaVuSans-53" transform="translate(200.0625 0)"/>
      <use xlink:href="#DejaVuSans-36" transform="translate(263.546875 0)"/>
      <use xlink:href="#DejaVuSans-48" transform="translate(327.03125 0)"/>
      <use xlink:href="#DejaVuSans-48" transform="translate(388.5625 0)"/>
      <use xlink:href="#DejaVuSans-4e" transform="translate(450.09375 0)"/>
      <use xlink:href="#DejaVuSans-3" transform="translate(508 0)"/>
      <use xlink:href="#DejaVuSans-39" transform="translate(539.78125 0)"/>
      <use xlink:href="#DejaVuSans-16" transform="translate(608.1875 0)"/>
      <use xlink:href="#DejaVuSans-3" transform="translate(671.8125 0)"/>
      <use xlink:href="#DejaVuSans-45" transform="translate(703.59375 0)"/>
      <use xlink:href="#DejaVuSans-48" transform="translate(767.078125 0)"/>
      <use xlink:href="#DejaVuSans-56" transform="translate(828.609375 0)"/>
      <use xlink:href="#DejaVuSans-57" transform="translate(880.703125 0)"/>
      <use xlink:href="#DejaVuSans-3" transform="translate(919.90625 0)"/>
      <use xlink:href="#DejaVuSans-b" transform="translate(951.6875 0)"/>
      <use xlink:href="#DejaVuSans-13" transform="translate(990.703125 0)"/>
      <use xlink:href="#DejaVuSans-11" transform="translate(1054.328125 0)"/>
      <use xlink:href="#DejaVuSans-19" transform="translate(1086.109375 0)"/>
      <use xlink:href="#DejaVuSans-19" transform="translate(1149.734375 0)"/>
      <use xlink:href="#DejaVuSans-16" transform="translate(1213.359375 0)"/>
      <use xlink:href="#DejaVuSans-c" transform="translate(1276.984375 0)"/>
     </g>
    </g>
    <g id="line2d_20">
     <path d="M 465.957656 388.044375 
L 474.957656 388.044375 
L 483.957656 388.044375 
" style="fill: none; stroke: #dc2626; stroke-width: 2; stroke-linecap: round"/>
     <g>
      <use xlink:href="#mb1b6317e2d" x="474.957656" y="388.044375" style="fill: #dc2626; stroke: #dc2626"/>
     </g>
    </g>
    <g id="text_22">
     <!-- Kimi K2 frontier -->
     <g style="fill: #262626" transform="translate(491.157656 391.194375) scale(0.09 -0.09)">
      <defs>
       <path id="DejaVuSans-2e" d="M 628 4666 
L 1259 4666 
L 1259 2694 
L 3353 4666 
L 4166 4666 
L 1850 2491 
L 4331 0 
L 3500 0 
L 1259 2247 
L 1259 0 
L 628 0 
L 628 4666 
z
" transform="scale(0.015625)"/>
      </defs>
      <use xlink:href="#DejaVuSans-2e"/>
      <use xlink:href="#DejaVuSans-4c" transform="translate(65.578125 0)"/>
      <use xlink:href="#DejaVuSans-50" transform="translate(93.359375 0)"/>
      <use xlink:href="#DejaVuSans-4c" transform="translate(190.765625 0)"/>
      <use xlink:href="#DejaVuSans-3" transform="translate(218.546875 0)"/>
      <use xlink:href="#DejaVuSans-2e" transform="translate(250.328125 0)"/>
      <use xlink:href="#DejaVuSans-15" transform="translate(315.90625 0)"/>
      <use xlink:href="#DejaVuSans-3" transform="translate(379.53125 0)"/>
      <use xlink:href="#DejaVuSans-49" transform="translate(411.3125 0)"/>
      <use xlink:href="#DejaVuSans-55" transform="translate(446.515625 0)"/>
      <use xlink:href="#DejaVuSans-52" transform="translate(485.421875 0)"/>
      <use xlink:href="#DejaVuSans-51" transform="translate(546.609375 0)"/>
      <use xlink:href="#DejaVuSans-57" transform="translate(609.984375 0)"/>
      <use xlink:href="#DejaVuSans-4c" transform="translate(649.1875 0)"/>
      <use xlink:href="#DejaVuSans-48" transform="translate(676.96875 0)"/>
      <use xlink:href="#DejaVuSans-55" transform="translate(738.5 0)"/>
     </g>
    </g>
    <g id="PathCollection_2">
     <g>
      <use xlink:href="#m826435cafe" x="474.957656" y="402.332578" style="fill: #ff0000; stroke: #000000"/>
     </g>
    </g>
    <g id="text_23">
     <!-- Kimi K2 best (0.583) -->
     <g style="fill: #262626" transform="translate(491.157656 404.695078) scale(0.09 -0.09)">
      <defs>
       <path id="DejaVuSans-1b" d="M 2034 2216 
Q 1584 2216 1326 1975 
Q 1069 1734 1069 1313 
Q 1069 891 1326 650 
Q 1584 409 2034 409 
Q 2484 409 2743 651 
Q 3003 894 3003 1313 
Q 3003 1734 2745 1975 
Q 2488 2216 2034 2216 
z
M 1403 2484 
Q 997 2584 770 2862 
Q 544 3141 544 3541 
Q 544 4100 942 4425 
Q 1341 4750 2034 4750 
Q 2731 4750 3128 4425 
Q 3525 4100 3525 3541 
Q 3525 3141 3298 2862 
Q 3072 2584 2669 2484 
Q 3125 2378 3379 2068 
Q 3634 1759 3634 1313 
Q 3634 634 3220 271 
Q 2806 -91 2034 -91 
Q 1263 -91 848 271 
Q 434 634 434 1313 
Q 434 1759 690 2068 
Q 947 2378 1403 2484 
z
M 1172 3481 
Q 1172 3119 1398 2916 
Q 1625 2713 2034 2713 
Q 2441 2713 2670 2916 
Q 2900 3119 2900 3481 
Q 2900 3844 2670 4047 
Q 2441 4250 2034 4250 
Q 1625 4250 1398 4047 
Q 1172 3844 1172 3481 
z
" transform="scale(0.015625)"/>
      </defs>
      <use xlink:href="#DejaVuSans-2e"/>
      <use xlink:href="#DejaVuSans-4c" transform="translate(65.578125 0)"/>
      <use xlink:href="#DejaVuSans-50" transform="translate(93.359375 0)"/>
      <use xlink:href="#DejaVuSans-4c" transform="translate(190.765625 0)"/>
      <use xlink:href="#DejaVuSans-3" transform="translate(218.546875 0)"/>
      <use xlink:href="#DejaVuSans-2e" transform="translate(250.328125 0)"/>
      <use xlink:href="#DejaVuSans-15" transform="translate(315.90625 0)"/>
      <use xlink:href="#DejaVuSans-3" transform="translate(379.53125 0)"/>
      <use xlink:href="#DejaVuSans-45" transform="translate(411.3125 0)"/>
      <use xlink:href="#DejaVuSans-48" transform="translate(474.796875 0)"/>
      <use xlink:href="#DejaVuSans-56" transform="translate(536.328125 0)"/>
      <use xlink:href="#DejaVuSans-57" transform="translate(588.421875 0)"/>
      <use xlink:href="#DejaVuSans-3" transform="translate(627.625 0)"/>
      <use xlink:href="#DejaVuSans-b" transform="translate(659.40625 0)"/>
      <use xlink:href="#DejaVuSans-13" transform="translate(698.421875 0)"/>
      <use xlink:href="#DejaVuSans-11" transform="translate(762.046875 0)"/>
      <use xlink:href="#DejaVuSans-18" transform="translate(793.828125 0)"/>
      <use xlink:href="#DejaVuSans-1b" transform="translate(857.453125 0)"/>
      <use xlink:href="#DejaVuSans-16" transform="translate(921.078125 0)"/>
      <use xlink:href="#DejaVuSans-c" transform="translate(984.703125 0)"/>
     </g>
    </g>
   </g>
   <g id="PathCollection_3">
    <g clip-path="url(#pccdff9e4ac)">
     <use xlink:href="#m826435cafe" x="592.33402" y="44.517187" style="fill: #ff0000; stroke: #000000"/>
    </g>
   </g>
   <g id="PathCollection_4">
    <g clip-path="url(#pccdff9e4ac)">
     <use xlink:href="#m826435cafe" x="421.419326" y="218.379446" style="fill: #ff0000; stroke: #000000"/>
    </g>
   </g>
  </g>
 </g>
 <defs>
  <clipPath id="pccdff9e4ac">
   <rect x="59.697656" y="26.877187" width="558" height="388.08"/>
  </clipPath>
 </defs>
</svg>
