<?xml version="1.0" encoding="utf-8" standalone="no"?>
<!DOCTYPE svg PUBLIC "-//W3C//DTD SVG 1.1//EN"
  "http://www.w3.org/Graphics/SVG/1.1/DTD/svg11.dtd">
<svg xmlns:xlink="http://www.w3.org/1999/xlink" width="631.501472pt" height="446.481094pt" viewBox="0 0 631.501472 446.481094" xmlns="http://www.w3.org/2000/svg" version="1.1">
 <metadata>
  <rdf:RDF xmlns:dc="http://purl.org/dc/elements/1.1/" xmlns:cc="http://creativecommons.org/ns#" xmlns:rdf="http://www.w3.org/1999/02/22-rdf-syntax-ns#">
   <cc:Work>
    <dc:type rdf:resource="http://purl.org/dc/dcmitype/StillImage"/>
    <dc:date>2026-07-22T22:27:50.591493</dc:date>
    <dc:format>image/svg+xml</dc:format>
    <dc:creator>
     <cc:Agent>
      <dc:title>Matplotlib v3.11.0, https://matplotlib.org/</dc:title>
     </cc:Agent>
    </dc:creator>
   </cc:Work>
  </rdf:RDF>
 </metadata>
 <defs>
  <style type="text/css">*{stroke-linejoin: round; stroke-linecap: butt}</style>
 </defs>
 <g id="figure_1">
  <g id="patch_1">
   <path d="M 0 446.481094 
L 631.501472 446.481094 
L 631.501472 0 
L 0 0 
z
" style="fill: #ffffff"/>
  </g>
  <g id="axes_1">
   <g id="patch_2">
    <path d="M 55.697344 395.28 
L 613.697344 395.28 
L 613.697344 7.2 
L 55.697344 7.2 
z
" style="fill: #ffffff"/>
   </g>
   <g id="matplotlib.axis_1">
    <g id="xtick_1">
     <g id="line2d_1">
      <path d="M 81.06098 395.28 
L 81.06098 7.2 
" clip-path="url(#p33207fd5cb)" style="fill: none; stroke: #cccccc; stroke-opacity: 0.3; stroke-linecap: round"/>
     </g>
     <g id="text_1">
      <!-- 0 -->
      <g style="fill: #262626" transform="translate(75.811918 417.316133) scale(0.165 -0.165)">
       <defs>
        <path id="DejaVuSans-13" d="M 2034 4250 
Q 1547 4250 1301 3770 
Q 1056 3291 1056 2328 
Q 1056 1369 1301 889 
Q 1547 409 2034 409 
Q 2525 409 2770 889 
Q 3016 1369 3016 2328 
Q 3016 3291 2770 3770 
Q 2525 4250 2034 4250 
z
M 2034 4750 
Q 2819 4750 3233 4129 
Q 3647 3509 3647 2328 
Q 3647 1150 3233 529 
Q 2819 -91 2034 -91 
Q 1250 -91 836 529 
Q 422 1150 422 2328 
Q 422 3509 836 4129 
Q 1250 4750 2034 4750 
z
" transform="scale(0.015625)"/>
       </defs>
       <use xlink:href="#DejaVuSans-13"/>
      </g>
     </g>
    </g>
    <g id="xtick_2">
     <g id="line2d_2">
      <path d="M 168.976531 395.28 
L 168.976531 7.2 
" clip-path="url(#p33207fd5cb)" style="fill: none; stroke: #cccccc; stroke-opacity: 0.3; stroke-linecap: round"/>
     </g>
     <g id="text_2">
      <!-- 20 -->
      <g style="fill: #262626" transform="translate(158.478406 417.316133) scale(0.165 -0.165)">
       <defs>
        <path id="DejaVuSans-15" d="M 1228 531 
L 3431 531 
L 3431 0 
L 469 0 
L 469 531 
Q 828 903 1448 1529 
Q 2069 2156 2228 2338 
Q 2531 2678 2651 2914 
Q 2772 3150 2772 3378 
Q 2772 3750 2511 3984 
Q 2250 4219 1831 4219 
Q 1534 4219 1204 4116 
Q 875 4013 500 3803 
L 500 4441 
Q 881 4594 1212 4672 
Q 1544 4750 1819 4750 
Q 2544 4750 2975 4387 
Q 3406 4025 3406 3419 
Q 3406 3131 3298 2873 
Q 3191 2616 2906 2266 
Q 2828 2175 2409 1742 
Q 1991 1309 1228 531 
z
" transform="scale(0.015625)"/>
       </defs>
       <use xlink:href="#DejaVuSans-15"/>
       <use xlink:href="#DejaVuSans-13" transform="translate(63.625 0)"/>
      </g>
     </g>
    </g>
    <g id="xtick_3">
     <g id="line2d_3">
      <path d="M 256.892081 395.28 
L 256.892081 7.2 
" clip-path="url(#p33207fd5cb)" style="fill: none; stroke: #cccccc; stroke-opacity: 0.3; stroke-linecap: round"/>
     </g>
     <g id="text_3">
      <!-- 40 -->
      <g style="fill: #262626" transform="translate(246.393956 417.316133) scale(0.165 -0.165)">
       <defs>
        <path id="DejaVuSans-17" d="M 2419 4116 
L 825 1625 
L 2419 1625 
L 2419 4116 
z
M 2253 4666 
L 3047 4666 
L 3047 1625 
L 3713 1625 
L 3713 1100 
L 3047 1100 
L 3047 0 
L 2419 0 
L 2419 1100 
L 313 1100 
L 313 1709 
L 2253 4666 
z
" transform="scale(0.015625)"/>
       </defs>
       <use xlink:href="#DejaVuSans-17"/>
       <use xlink:href="#DejaVuSans-13" transform="translate(63.625 0)"/>
      </g>
     </g>
    </g>
    <g id="xtick_4">
     <g id="line2d_4">
      <path d="M 344.807632 395.28 
L 344.807632 7.2 
" clip-path="url(#p33207fd5cb)" style="fill: none; stroke: #cccccc; stroke-opacity: 0.3; stroke-linecap: round"/>
     </g>
     <g id="text_4">
      <!-- 60 -->
      <g style="fill: #262626" transform="translate(334.309507 417.316133) scale(0.165 -0.165)">
       <defs>
        <path id="DejaVuSans-19" d="M 2113 2584 
Q 1688 2584 1439 2293 
Q 1191 2003 1191 1497 
Q 1191 994 1439 701 
Q 1688 409 2113 409 
Q 2538 409 2786 701 
Q 3034 994 3034 1497 
Q 3034 2003 2786 2293 
Q 2538 2584 2113 2584 
z
M 3366 4563 
L 3366 3988 
Q 3128 4100 2886 4159 
Q 2644 4219 2406 4219 
Q 1781 4219 1451 3797 
Q 1122 3375 1075 2522 
Q 1259 2794 1537 2939 
Q 1816 3084 2150 3084 
Q 2853 3084 3261 2657 
Q 3669 2231 3669 1497 
Q 3669 778 3244 343 
Q 2819 -91 2113 -91 
Q 1303 -91 875 529 
Q 447 1150 447 2328 
Q 447 3434 972 4092 
Q 1497 4750 2381 4750 
Q 2619 4750 2861 4703 
Q 3103 4656 3366 4563 
z
" transform="scale(0.015625)"/>
       </defs>
       <use xlink:href="#DejaVuSans-19"/>
       <use xlink:href="#DejaVuSans-13" transform="translate(63.625 0)"/>
      </g>
     </g>
    </g>
    <g id="xtick_5">
     <g id="line2d_5">
      <path d="M 432.723183 395.28 
L 432.723183 7.2 
" clip-path="url(#p33207fd5cb)" style="fill: none; stroke: #cccccc; stroke-opacity: 0.3; stroke-linecap: round"/>
     </g>
     <g id="text_5">
      <!-- 80 -->
      <g style="fill: #262626" transform="translate(422.225058 417.316133) scale(0.165 -0.165)">
       <defs>
        <path id="DejaVuSans-1b" d="M 2034 2216 
Q 1584 2216 1326 1975 
Q 1069 1734 1069 1313 
Q 1069 891 1326 650 
Q 1584 409 2034 409 
Q 2484 409 2743 651 
Q 3003 894 3003 1313 
Q 3003 1734 2745 1975 
Q 2488 2216 2034 2216 
z
M 1403 2484 
Q 997 2584 770 2862 
Q 544 3141 544 3541 
Q 544 4100 942 4425 
Q 1341 4750 2034 4750 
Q 2731 4750 3128 4425 
Q 3525 4100 3525 3541 
Q 3525 3141 3298 2862 
Q 3072 2584 2669 2484 
Q 3125 2378 3379 2068 
Q 3634 1759 3634 1313 
Q 3634 634 3220 271 
Q 2806 -91 2034 -91 
Q 1263 -91 848 271 
Q 434 634 434 1313 
Q 434 1759 690 2068 
Q 947 2378 1403 2484 
z
M 1172 3481 
Q 1172 3119 1398 2916 
Q 1625 2713 2034 2713 
Q 2441 2713 2670 2916 
Q 2900 3119 2900 3481 
Q 2900 3844 2670 4047 
Q 2441 4250 2034 4250 
Q 1625 4250 1398 4047 
Q 1172 3844 1172 3481 
z
" transform="scale(0.015625)"/>
       </defs>
       <use xlink:href="#DejaVuSans-1b"/>
       <use xlink:href="#DejaVuSans-13" transform="translate(63.625 0)"/>
      </g>
     </g>
    </g>
    <g id="xtick_6">
     <g id="line2d_6">
      <path d="M 520.638733 395.28 
L 520.638733 7.2 
" clip-path="url(#p33207fd5cb)" style="fill: none; stroke: #cccccc; stroke-opacity: 0.3; stroke-linecap: round"/>
     </g>
     <g id="text_6">
      <!-- 100 -->
      <g style="fill: #262626" transform="translate(504.891546 417.316133) scale(0.165 -0.165)">
       <defs>
        <path id="DejaVuSans-14" d="M 794 531 
L 1825 531 
L 1825 4091 
L 703 3866 
L 703 4441 
L 1819 4666 
L 2450 4666 
L 2450 531 
L 3481 531 
L 3481 0 
L 794 0 
L 794 531 
z
" transform="scale(0.015625)"/>
       </defs>
       <use xlink:href="#DejaVuSans-14"/>
       <use xlink:href="#DejaVuSans-13" transform="translate(63.625 0)"/>
       <use xlink:href="#DejaVuSans-13" transform="translate(127.25 0)"/>
      </g>
     </g>
    </g>
    <g id="xtick_7">
     <g id="line2d_7">
      <path d="M 608.554284 395.28 
L 608.554284 7.2 
" clip-path="url(#p33207fd5cb)" style="fill: none; stroke: #cccccc; stroke-opacity: 0.3; stroke-linecap: round"/>
     </g>
     <g id="text_7">
      <!-- 120 -->
      <g style="fill: #262626" transform="translate(592.807097 417.316133) scale(0.165 -0.165)">
       <use xlink:href="#DejaVuSans-14"/>
       <use xlink:href="#DejaVuSans-15" transform="translate(63.625 0)"/>
       <use xlink:href="#DejaVuSans-13" transform="translate(127.25 0)"/>
      </g>
     </g>
    </g>
    <g id="text_8">
     <!-- Time Overhead (%) -->
     <g style="fill: #262626" transform="translate(266.811563 435.917812) scale(0.14 -0.14)">
      <defs>
       <path id="DejaVuSans-37" d="M -19 4666 
L 3928 4666 
L 3928 4134 
L 2272 4134 
L 2272 0 
L 1638 0 
L 1638 4134 
L -19 4134 
L -19 4666 
z
" transform="scale(0.015625)"/>
       <path id="DejaVuSans-4c" d="M 603 3500 
L 1178 3500 
L 1178 0 
L 603 0 
L 603 3500 
z
M 603 4863 
L 1178 4863 
L 1178 4134 
L 603 4134 
L 603 4863 
z
" transform="scale(0.015625)"/>
       <path id="DejaVuSans-50" d="M 3328 2828 
Q 3544 3216 3844 3400 
Q 4144 3584 4550 3584 
Q 5097 3584 5394 3201 
Q 5691 2819 5691 2113 
L 5691 0 
L 5113 0 
L 5113 2094 
Q 5113 2597 4934 2840 
Q 4756 3084 4391 3084 
Q 3944 3084 3684 2787 
Q 3425 2491 3425 1978 
L 3425 0 
L 2847 0 
L 2847 2094 
Q 2847 2600 2669 2842 
Q 2491 3084 2119 3084 
Q 1678 3084 1418 2786 
Q 1159 2488 1159 1978 
L 1159 0 
L 581 0 
L 581 3500 
L 1159 3500 
L 1159 2956 
Q 1356 3278 1631 3431 
Q 1906 3584 2284 3584 
Q 2666 3584 2933 3390 
Q 3200 3197 3328 2828 
z
" transform="scale(0.015625)"/>
       <path id="DejaVuSans-48" d="M 3597 1894 
L 3597 1613 
L 953 1613 
Q 991 1019 1311 708 
Q 1631 397 2203 397 
Q 2534 397 2845 478 
Q 3156 559 3463 722 
L 3463 178 
Q 3153 47 2828 -22 
Q 2503 -91 2169 -91 
Q 1331 -91 842 396 
Q 353 884 353 1716 
Q 353 2575 817 3079 
Q 1281 3584 2069 3584 
Q 2775 3584 3186 3129 
Q 3597 2675 3597 1894 
z
M 3022 2063 
Q 3016 2534 2758 2815 
Q 2500 3097 2075 3097 
Q 1594 3097 1305 2825 
Q 1016 2553 972 2059 
L 3022 2063 
z
" transform="scale(0.015625)"/>
       <path id="DejaVuSans-3" transform="scale(0.015625)"/>
       <path id="DejaVuSans-32" d="M 2522 4238 
Q 1834 4238 1429 3725 
Q 1025 3213 1025 2328 
Q 1025 1447 1429 934 
Q 1834 422 2522 422 
Q 3209 422 3611 934 
Q 4013 1447 4013 2328 
Q 4013 3213 3611 3725 
Q 3209 4238 2522 4238 
z
M 2522 4750 
Q 3503 4750 4090 4092 
Q 4678 3434 4678 2328 
Q 4678 1225 4090 567 
Q 3503 -91 2522 -91 
Q 1538 -91 948 565 
Q 359 1222 359 2328 
Q 359 3434 948 4092 
Q 1538 4750 2522 4750 
z
" transform="scale(0.015625)"/>
       <path id="DejaVuSans-59" d="M 191 3500 
L 800 3500 
L 1894 563 
L 2988 3500 
L 3597 3500 
L 2284 0 
L 1503 0 
L 191 3500 
z
" transform="scale(0.015625)"/>
       <path id="DejaVuSans-55" d="M 2631 2963 
Q 2534 3019 2420 3045 
Q 2306 3072 2169 3072 
Q 1681 3072 1420 2755 
Q 1159 2438 1159 1844 
L 1159 0 
L 581 0 
L 581 3500 
L 1159 3500 
L 1159 2956 
Q 1341 3275 1631 3429 
Q 1922 3584 2338 3584 
Q 2397 3584 2469 3576 
Q 2541 3569 2628 3553 
L 2631 2963 
z
" transform="scale(0.015625)"/>
       <path id="DejaVuSans-4b" d="M 3513 2113 
L 3513 0 
L 2938 0 
L 2938 2094 
Q 2938 2591 2744 2837 
Q 2550 3084 2163 3084 
Q 1697 3084 1428 2787 
Q 1159 2491 1159 1978 
L 1159 0 
L 581 0 
L 581 4863 
L 1159 4863 
L 1159 2956 
Q 1366 3272 1645 3428 
Q 1925 3584 2291 3584 
Q 2894 3584 3203 3211 
Q 3513 2838 3513 2113 
z
" transform="scale(0.015625)"/>
       <path id="DejaVuSans-44" d="M 2194 1759 
Q 1497 1759 1228 1600 
Q 959 1441 959 1056 
Q 959 750 1161 570 
Q 1363 391 1709 391 
Q 2188 391 2477 730 
Q 2766 1069 2766 1631 
L 2766 1759 
L 2194 1759 
z
M 3341 1997 
L 3341 0 
L 2766 0 
L 2766 531 
Q 2569 213 2275 61 
Q 1981 -91 1556 -91 
Q 1019 -91 701 211 
Q 384 513 384 1019 
Q 384 1609 779 1909 
Q 1175 2209 1959 2209 
L 2766 2209 
L 2766 2266 
Q 2766 2663 2505 2880 
Q 2244 3097 1772 3097 
Q 1472 3097 1187 3025 
Q 903 2953 641 2809 
L 641 3341 
Q 956 3463 1253 3523 
Q 1550 3584 1831 3584 
Q 2591 3584 2966 3190 
Q 3341 2797 3341 1997 
z
" transform="scale(0.015625)"/>
       <path id="DejaVuSans-47" d="M 2906 2969 
L 2906 4863 
L 3481 4863 
L 3481 0 
L 2906 0 
L 2906 525 
Q 2725 213 2448 61 
Q 2172 -91 1784 -91 
Q 1150 -91 751 415 
Q 353 922 353 1747 
Q 353 2572 751 3078 
Q 1150 3584 1784 3584 
Q 2172 3584 2448 3432 
Q 2725 3281 2906 2969 
z
M 947 1747 
Q 947 1113 1208 752 
Q 1469 391 1925 391 
Q 2381 391 2643 752 
Q 2906 1113 2906 1747 
Q 2906 2381 2643 2742 
Q 2381 3103 1925 3103 
Q 1469 3103 1208 2742 
Q 947 2381 947 1747 
z
" transform="scale(0.015625)"/>
       <path id="DejaVuSans-b" d="M 1984 4856 
Q 1566 4138 1362 3434 
Q 1159 2731 1159 2009 
Q 1159 1288 1364 580 
Q 1569 -128 1984 -844 
L 1484 -844 
Q 1016 -109 783 600 
Q 550 1309 550 2009 
Q 550 2706 781 3412 
Q 1013 4119 1484 4856 
L 1984 4856 
z
" transform="scale(0.015625)"/>
       <path id="DejaVuSans-8" d="M 4653 2053 
Q 4381 2053 4226 1822 
Q 4072 1591 4072 1178 
Q 4072 772 4226 539 
Q 4381 306 4653 306 
Q 4919 306 5073 539 
Q 5228 772 5228 1178 
Q 5228 1588 5073 1820 
Q 4919 2053 4653 2053 
z
M 4653 2450 
Q 5147 2450 5437 2106 
Q 5728 1763 5728 1178 
Q 5728 594 5436 251 
Q 5144 -91 4653 -91 
Q 4153 -91 3862 251 
Q 3572 594 3572 1178 
Q 3572 1766 3864 2108 
Q 4156 2450 4653 2450 
z
M 1428 4353 
Q 1159 4353 1004 4120 
Q 850 3888 850 3481 
Q 850 3069 1003 2837 
Q 1156 2606 1428 2606 
Q 1700 2606 1854 2837 
Q 2009 3069 2009 3481 
Q 2009 3884 1853 4118 
Q 1697 4353 1428 4353 
z
M 4250 4750 
L 4750 4750 
L 1831 -91 
L 1331 -91 
L 4250 4750 
z
M 1428 4750 
Q 1922 4750 2215 4408 
Q 2509 4066 2509 3481 
Q 2509 2891 2217 2550 
Q 1925 2209 1428 2209 
Q 931 2209 642 2551 
Q 353 2894 353 3481 
Q 353 4063 643 4406 
Q 934 4750 1428 4750 
z
" transform="scale(0.015625)"/>
       <path id="DejaVuSans-c" d="M 513 4856 
L 1013 4856 
Q 1481 4119 1714 3412 
Q 1947 2706 1947 2009 
Q 1947 1309 1714 600 
Q 1481 -109 1013 -844 
L 513 -844 
Q 928 -128 1133 580 
Q 1338 1288 1338 2009 
Q 1338 2731 1133 3434 
Q 928 4138 513 4856 
z
" transform="scale(0.015625)"/>
      </defs>
      <use xlink:href="#DejaVuSans-37"/>
      <use xlink:href="#DejaVuSans-4c" transform="translate(58 0)"/>
      <use xlink:href="#DejaVuSans-50" transform="translate(85.78125 0)"/>
      <use xlink:href="#DejaVuSans-48" transform="translate(183.1875 0)"/>
      <use xlink:href="#DejaVuSans-3" transform="translate(244.71875 0)"/>
      <use xlink:href="#DejaVuSans-32" transform="translate(276.5 0)"/>
      <use xlink:href="#DejaVuSans-59" transform="translate(355.21875 0)"/>
      <use xlink:href="#DejaVuSans-48" transform="translate(414.40625 0)"/>
      <use xlink:href="#DejaVuSans-55" transform="translate(475.9375 0)"/>
      <use xlink:href="#DejaVuSans-4b" transform="translate(515.296875 0)"/>
      <use xlink:href="#DejaVuSans-48" transform="translate(578.671875 0)"/>
      <use xlink:href="#DejaVuSans-44" transform="translate(640.203125 0)"/>
      <use xlink:href="#DejaVuSans-47" transform="translate(701.484375 0)"/>
      <use xlink:href="#DejaVuSans-3" transform="translate(764.96875 0)"/>
      <use xlink:href="#DejaVuSans-b" transform="translate(796.75 0)"/>
      <use xlink:href="#DejaVuSans-8" transform="translate(835.765625 0)"/>
      <use xlink:href="#DejaVuSans-c" transform="translate(930.78125 0)"/>
     </g>
    </g>
   </g>
   <g id="matplotlib.axis_2">
    <g id="ytick_1">
     <g id="line2d_8">
      <path d="M 55.697344 377.64 
L 613.697344 377.64 
" clip-path="url(#p33207fd5cb)" style="fill: none; stroke: #cccccc; stroke-opacity: 0.3; stroke-linecap: round"/>
     </g>
     <g id="text_9">
      <!-- 0 -->
      <g style="fill: #262626" transform="translate(35.699219 383.908066) scale(0.165 -0.165)">
       <use xlink:href="#DejaVuSans-13"/>
      </g>
     </g>
    </g>
    <g id="ytick_2">
     <g id="line2d_9">
      <path d="M 55.697344 301.507069 
L 613.697344 301.507069 
" clip-path="url(#p33207fd5cb)" style="fill: none; stroke: #cccccc; stroke-opacity: 0.3; stroke-linecap: round"/>
     </g>
     <g id="text_10">
      <!-- 5 -->
      <g style="fill: #262626" transform="translate(35.699219 307.775136) scale(0.165 -0.165)">
       <defs>
        <path id="DejaVuSans-18" d="M 691 4666 
L 3169 4666 
L 3169 4134 
L 1269 4134 
L 1269 2991 
Q 1406 3038 1543 3061 
Q 1681 3084 1819 3084 
Q 2600 3084 3056 2656 
Q 3513 2228 3513 1497 
Q 3513 744 3044 326 
Q 2575 -91 1722 -91 
Q 1428 -91 1123 -41 
Q 819 9 494 109 
L 494 744 
Q 775 591 1075 516 
Q 1375 441 1709 441 
Q 2250 441 2565 725 
Q 2881 1009 2881 1497 
Q 2881 1984 2565 2268 
Q 2250 2553 1709 2553 
Q 1456 2553 1204 2497 
Q 953 2441 691 2322 
L 691 4666 
z
" transform="scale(0.015625)"/>
       </defs>
       <use xlink:href="#DejaVuSans-18"/>
      </g>
     </g>
    </g>
    <g id="ytick_3">
     <g id="line2d_10">
      <path d="M 55.697344 225.374139 
L 613.697344 225.374139 
" clip-path="url(#p33207fd5cb)" style="fill: none; stroke: #cccccc; stroke-opacity: 0.3; stroke-linecap: round"/>
     </g>
     <g id="text_11">
      <!-- 10 -->
      <g style="fill: #262626" transform="translate(25.201094 231.642205) scale(0.165 -0.165)">
       <use xlink:href="#DejaVuSans-14"/>
       <use xlink:href="#DejaVuSans-13" transform="translate(63.625 0)"/>
      </g>
     </g>
    </g>
    <g id="ytick_4">
     <g id="line2d_11">
      <path d="M 55.697344 149.241208 
L 613.697344 149.241208 
" clip-path="url(#p33207fd5cb)" style="fill: none; stroke: #cccccc; stroke-opacity: 0.3; stroke-linecap: round"/>
     </g>
     <g id="text_12">
      <!-- 15 -->
      <g style="fill: #262626" transform="translate(25.201094 155.509275) scale(0.165 -0.165)">
       <use xlink:href="#DejaVuSans-14"/>
       <use xlink:href="#DejaVuSans-18" transform="translate(63.625 0)"/>
      </g>
     </g>
    </g>
    <g id="ytick_5">
     <g id="line2d_12">
      <path d="M 55.697344 73.108278 
L 613.697344 73.108278 
" clip-path="url(#p33207fd5cb)" style="fill: none; stroke: #cccccc; stroke-opacity: 0.3; stroke-linecap: round"/>
     </g>
     <g id="text_13">
      <!-- 20 -->
      <g style="fill: #262626" transform="translate(25.201094 79.376344) scale(0.165 -0.165)">
       <use xlink:href="#DejaVuSans-15"/>
       <use xlink:href="#DejaVuSans-13" transform="translate(63.625 0)"/>
      </g>
     </g>
    </g>
    <g id="text_14">
     <!-- CO₂ Savings (%) -->
     <g style="fill: #262626" transform="translate(17.837813 258.355625) rotate(-90) scale(0.14 -0.14)">
      <defs>
       <path id="DejaVuSans-26" d="M 4122 4306 
L 4122 3641 
Q 3803 3938 3442 4084 
Q 3081 4231 2675 4231 
Q 1875 4231 1450 3742 
Q 1025 3253 1025 2328 
Q 1025 1406 1450 917 
Q 1875 428 2675 428 
Q 3081 428 3442 575 
Q 3803 722 4122 1019 
L 4122 359 
Q 3791 134 3420 21 
Q 3050 -91 2638 -91 
Q 1578 -91 968 557 
Q 359 1206 359 2328 
Q 359 3453 968 4101 
Q 1578 4750 2638 4750 
Q 3056 4750 3426 4639 
Q 3797 4528 4122 4306 
z
" transform="scale(0.015625)"/>
       <path id="DejaVuSans-b5d" d="M 838 356 
L 2163 356 
L 2163 0 
L 294 0 
L 294 343 
Q 400 440 597 615 
Q 1672 1568 1672 1862 
Q 1672 2068 1509 2194 
Q 1347 2321 1081 2321 
Q 919 2321 728 2266 
Q 538 2212 313 2103 
L 313 2487 
Q 553 2575 761 2618 
Q 969 2662 1147 2662 
Q 1600 2662 1872 2456 
Q 2144 2250 2144 1912 
Q 2144 1478 1109 590 
Q 934 440 838 356 
z
" transform="scale(0.015625)"/>
       <path id="DejaVuSans-36" d="M 3425 4513 
L 3425 3897 
Q 3066 4069 2747 4153 
Q 2428 4238 2131 4238 
Q 1616 4238 1336 4038 
Q 1056 3838 1056 3469 
Q 1056 3159 1242 3001 
Q 1428 2844 1947 2747 
L 2328 2669 
Q 3034 2534 3370 2195 
Q 3706 1856 3706 1288 
Q 3706 609 3251 259 
Q 2797 -91 1919 -91 
Q 1588 -91 1214 -16 
Q 841 59 441 206 
L 441 856 
Q 825 641 1194 531 
Q 1563 422 1919 422 
Q 2459 422 2753 634 
Q 3047 847 3047 1241 
Q 3047 1584 2836 1778 
Q 2625 1972 2144 2069 
L 1759 2144 
Q 1053 2284 737 2584 
Q 422 2884 422 3419 
Q 422 4038 858 4394 
Q 1294 4750 2059 4750 
Q 2388 4750 2728 4690 
Q 3069 4631 3425 4513 
z
" transform="scale(0.015625)"/>
       <path id="DejaVuSans-51" d="M 3513 2113 
L 3513 0 
L 2938 0 
L 2938 2094 
Q 2938 2591 2744 2837 
Q 2550 3084 2163 3084 
Q 1697 3084 1428 2787 
Q 1159 2491 1159 1978 
L 1159 0 
L 581 0 
L 581 3500 
L 1159 3500 
L 1159 2956 
Q 1366 3272 1645 3428 
Q 1925 3584 2291 3584 
Q 2894 3584 3203 3211 
Q 3513 2838 3513 2113 
z
" transform="scale(0.015625)"/>
       <path id="DejaVuSans-4a" d="M 2906 1791 
Q 2906 2416 2648 2759 
Q 2391 3103 1925 3103 
Q 1463 3103 1205 2759 
Q 947 2416 947 1791 
Q 947 1169 1205 825 
Q 1463 481 1925 481 
Q 2391 481 2648 825 
Q 2906 1169 2906 1791 
z
M 3481 434 
Q 3481 -459 3084 -895 
Q 2688 -1331 1869 -1331 
Q 1566 -1331 1297 -1286 
Q 1028 -1241 775 -1147 
L 775 -588 
Q 1028 -725 1275 -790 
Q 1522 -856 1778 -856 
Q 2344 -856 2625 -561 
Q 2906 -266 2906 331 
L 2906 616 
Q 2728 306 2450 153 
Q 2172 0 1784 0 
Q 1141 0 747 490 
Q 353 981 353 1791 
Q 353 2603 747 3093 
Q 1141 3584 1784 3584 
Q 2172 3584 2450 3431 
Q 2728 3278 2906 2969 
L 2906 3500 
L 3481 3500 
L 3481 434 
z
" transform="scale(0.015625)"/>
       <path id="DejaVuSans-56" d="M 2834 3397 
L 2834 2853 
Q 2591 2978 2328 3040 
Q 2066 3103 1784 3103 
Q 1356 3103 1142 2972 
Q 928 2841 928 2578 
Q 928 2378 1081 2264 
Q 1234 2150 1697 2047 
L 1894 2003 
Q 2506 1872 2764 1633 
Q 3022 1394 3022 966 
Q 3022 478 2636 193 
Q 2250 -91 1575 -91 
Q 1294 -91 989 -36 
Q 684 19 347 128 
L 347 722 
Q 666 556 975 473 
Q 1284 391 1588 391 
Q 1994 391 2212 530 
Q 2431 669 2431 922 
Q 2431 1156 2273 1281 
Q 2116 1406 1581 1522 
L 1381 1569 
Q 847 1681 609 1914 
Q 372 2147 372 2553 
Q 372 3047 722 3315 
Q 1072 3584 1716 3584 
Q 2034 3584 2315 3537 
Q 2597 3491 2834 3397 
z
" transform="scale(0.015625)"/>
      </defs>
      <use xlink:href="#DejaVuSans-26"/>
      <use xlink:href="#DejaVuSans-32" transform="translate(69.828125 0)"/>
      <use xlink:href="#DejaVuSans-b5d" transform="translate(148.546875 0)"/>
      <use xlink:href="#DejaVuSans-3" transform="translate(188.640625 0)"/>
      <use xlink:href="#DejaVuSans-36" transform="translate(220.421875 0)"/>
      <use xlink:href="#DejaVuSans-44" transform="translate(283.90625 0)"/>
      <use xlink:href="#DejaVuSans-59" transform="translate(345.1875 0)"/>
      <use xlink:href="#DejaVuSans-4c" transform="translate(404.375 0)"/>
      <use xlink:href="#DejaVuSans-51" transform="translate(432.15625 0)"/>
      <use xlink:href="#DejaVuSans-4a" transform="translate(495.53125 0)"/>
      <use xlink:href="#DejaVuSans-56" transform="translate(559.015625 0)"/>
      <use xlink:href="#DejaVuSans-3" transform="translate(611.109375 0)"/>
      <use xlink:href="#DejaVuSans-b" transform="translate(642.890625 0)"/>
      <use xlink:href="#DejaVuSans-8" transform="translate(681.90625 0)"/>
      <use xlink:href="#DejaVuSans-c" transform="translate(776.921875 0)"/>
     </g>
    </g>
   </g>
   <g id="line2d_13">
    <path d="M 81.06098 377.64 
L 81.940136 374.442417 
L 82.819291 373.833353 
L 82.819291 372.462961 
L 83.258869 371.701631 
L 83.698447 366.676858 
L 85.01718 361.652085 
L 86.335913 360.129426 
L 87.215069 358.454502 
L 87.654646 356.627311 
L 88.97338 350.079879 
L 88.97338 348.861752 
L 89.852535 348.404955 
L 91.171268 334.091964 
L 93.808735 325.108278 
L 95.127468 321.149366 
L 96.885779 315.210997 
L 98.64409 312.16568 
L 99.083668 311.40435 
L 100.402401 306.531843 
L 100.841979 305.16145 
L 102.160712 303.943323 
L 103.479446 296.939094 
L 104.798179 296.177764 
L 105.677334 294.350574 
L 106.116912 289.325801 
L 107.875223 288.716737 
L 109.193956 285.975952 
L 109.633534 282.017039 
L 110.952267 280.037583 
L 112.710578 279.42852 
L 113.589734 273.185619 
L 114.029312 270.5971 
L 118.425089 266.029124 
L 119.304245 260.243021 
L 121.062556 256.436375 
L 125.458333 255.065982 
L 125.458333 248.51855 
L 130.293688 237.707674 
L 132.491577 236.489547 
L 138.206088 225.526405 
L 139.524821 218.978973 
L 151.393421 209.081692 
L 152.272576 208.624894 
L 152.272576 202.229728 
L 163.701598 197.814018 
L 166.339064 190.962054 
L 166.778642 186.546344 
L 169.855686 183.04423 
L 176.009775 174.821873 
L 183.043019 169.7971 
L 184.361752 165.533656 
L 186.999219 162.488338 
L 193.592885 157.311299 
L 198.867818 152.438792 
L 208.098951 143.607372 
L 214.692617 135.537281 
L 224.802905 123.965076 
L 235.352772 118.178973 
L 236.671505 117.113112 
L 239.308971 116.504048 
L 246.781793 108.586224 
L 259.08997 106.14997 
L 259.529548 101.886526 
L 263.485748 100.059335 
L 274.475192 98.688943 
L 281.508436 97.775347 
L 290.299991 86.65994 
L 303.926901 84.375952 
L 313.597612 77.676254 
L 345.686788 76.001329 
L 348.763832 71.890151 
L 370.74272 67.778973 
L 371.621875 64.58139 
L 376.017653 62.906465 
L 394.479918 61.840604 
L 402.392318 54.531843 
L 423.052472 52.856918 
L 428.766983 45.548157 
L 446.350093 45.395891 
L 449.427137 44.482296 
L 453.822915 41.893776 
L 453.822915 40.066586 
L 459.537426 38.239396 
L 470.087292 37.478066 
L 477.999691 35.803142 
L 479.318425 35.041813 
L 485.912091 32.910091 
L 493.384913 32.453293 
L 509.64929 30.626103 
L 511.407601 29.560242 
L 518.001267 29.407976 
L 533.386488 28.189849 
L 541.298888 25.296798 
L 548.332132 24.84 
" clip-path="url(#p33207fd5cb)" style="fill: none; stroke: #2563eb; stroke-width: 2; stroke-linecap: round"/>
    <defs>
     <path id="m5743517f89" d="M 0 2 
C 0.530406 2 1.03916 1.789267 1.414214 1.414214 
C 1.789267 1.03916 2 0.530406 2 0 
C 2 -0.530406 1.789267 -1.03916 1.414214 -1.414214 
C 1.03916 -1.789267 0.530406 -2 0 -2 
C -0.530406 -2 -1.03916 -1.789267 -1.414214 -1.414214 
C -1.789267 -1.03916 -2 -0.530406 -2 0 
C -2 0.530406 -1.789267 1.03916 -1.414214 1.414214 
C -1.03916 1.789267 -0.530406 2 0 2 
z
" style="stroke: #2563eb"/>
    </defs>
    <g clip-path="url(#p33207fd5cb)">
     <use xlink:href="#m5743517f89" x="81.06098" y="377.64" style="fill: #2563eb; stroke: #2563eb"/>
     <use xlink:href="#m5743517f89" x="81.940136" y="374.442417" style="fill: #2563eb; stroke: #2563eb"/>
     <use xlink:href="#m5743517f89" x="82.819291" y="373.833353" style="fill: #2563eb; stroke: #2563eb"/>
     <use xlink:href="#m5743517f89" x="82.819291" y="372.462961" style="fill: #2563eb; stroke: #2563eb"/>
     <use xlink:href="#m5743517f89" x="83.258869" y="371.701631" style="fill: #2563eb; stroke: #2563eb"/>
     <use xlink:href="#m5743517f89" x="83.698447" y="366.676858" style="fill: #2563eb; stroke: #2563eb"/>
     <use xlink:href="#m5743517f89" x="85.01718" y="361.652085" style="fill: #2563eb; stroke: #2563eb"/>
     <use xlink:href="#m5743517f89" x="86.335913" y="360.129426" style="fill: #2563eb; stroke: #2563eb"/>
     <use xlink:href="#m5743517f89" x="87.215069" y="358.454502" style="fill: #2563eb; stroke: #2563eb"/>
     <use xlink:href="#m5743517f89" x="87.654646" y="356.627311" style="fill: #2563eb; stroke: #2563eb"/>
     <use xlink:href="#m5743517f89" x="88.97338" y="350.079879" style="fill: #2563eb; stroke: #2563eb"/>
     <use xlink:href="#m5743517f89" x="88.97338" y="348.861752" style="fill: #2563eb; stroke: #2563eb"/>
     <use xlink:href="#m5743517f89" x="89.852535" y="348.404955" style="fill: #2563eb; stroke: #2563eb"/>
     <use xlink:href="#m5743517f89" x="91.171268" y="334.091964" style="fill: #2563eb; stroke: #2563eb"/>
     <use xlink:href="#m5743517f89" x="93.808735" y="325.108278" style="fill: #2563eb; stroke: #2563eb"/>
     <use xlink:href="#m5743517f89" x="95.127468" y="321.149366" style="fill: #2563eb; stroke: #2563eb"/>
     <use xlink:href="#m5743517f89" x="96.885779" y="315.210997" style="fill: #2563eb; stroke: #2563eb"/>
     <use xlink:href="#m5743517f89" x="98.64409" y="312.16568" style="fill: #2563eb; stroke: #2563eb"/>
     <use xlink:href="#m5743517f89" x="99.083668" y="311.40435" style="fill: #2563eb; stroke: #2563eb"/>
     <use xlink:href="#m5743517f89" x="100.402401" y="306.531843" style="fill: #2563eb; stroke: #2563eb"/>
     <use xlink:href="#m5743517f89" x="100.841979" y="305.16145" style="fill: #2563eb; stroke: #2563eb"/>
     <use xlink:href="#m5743517f89" x="102.160712" y="303.943323" style="fill: #2563eb; stroke: #2563eb"/>
     <use xlink:href="#m5743517f89" x="103.479446" y="296.939094" style="fill: #2563eb; stroke: #2563eb"/>
     <use xlink:href="#m5743517f89" x="104.798179" y="296.177764" style="fill: #2563eb; stroke: #2563eb"/>
     <use xlink:href="#m5743517f89" x="105.677334" y="294.350574" style="fill: #2563eb; stroke: #2563eb"/>
     <use xlink:href="#m5743517f89" x="106.116912" y="289.325801" style="fill: #2563eb; stroke: #2563eb"/>
     <use xlink:href="#m5743517f89" x="107.875223" y="288.716737" style="fill: #2563eb; stroke: #2563eb"/>
     <use xlink:href="#m5743517f89" x="109.193956" y="285.975952" style="fill: #2563eb; stroke: #2563eb"/>
     <use xlink:href="#m5743517f89" x="109.633534" y="282.017039" style="fill: #2563eb; stroke: #2563eb"/>
     <use xlink:href="#m5743517f89" x="110.952267" y="280.037583" style="fill: #2563eb; stroke: #2563eb"/>
     <use xlink:href="#m5743517f89" x="112.710578" y="279.42852" style="fill: #2563eb; stroke: #2563eb"/>
     <use xlink:href="#m5743517f89" x="113.589734" y="273.185619" style="fill: #2563eb; stroke: #2563eb"/>
     <use xlink:href="#m5743517f89" x="114.029312" y="270.5971" style="fill: #2563eb; stroke: #2563eb"/>
     <use xlink:href="#m5743517f89" x="118.425089" y="266.029124" style="fill: #2563eb; stroke: #2563eb"/>
     <use xlink:href="#m5743517f89" x="119.304245" y="260.243021" style="fill: #2563eb; stroke: #2563eb"/>
     <use xlink:href="#m5743517f89" x="121.062556" y="256.436375" style="fill: #2563eb; stroke: #2563eb"/>
     <use xlink:href="#m5743517f89" x="125.458333" y="255.065982" style="fill: #2563eb; stroke: #2563eb"/>
     <use xlink:href="#m5743517f89" x="125.458333" y="248.51855" style="fill: #2563eb; stroke: #2563eb"/>
     <use xlink:href="#m5743517f89" x="130.293688" y="237.707674" style="fill: #2563eb; stroke: #2563eb"/>
     <use xlink:href="#m5743517f89" x="132.491577" y="236.489547" style="fill: #2563eb; stroke: #2563eb"/>
     <use xlink:href="#m5743517f89" x="138.206088" y="225.526405" style="fill: #2563eb; stroke: #2563eb"/>
     <use xlink:href="#m5743517f89" x="139.524821" y="218.978973" style="fill: #2563eb; stroke: #2563eb"/>
     <use xlink:href="#m5743517f89" x="151.393421" y="209.081692" style="fill: #2563eb; stroke: #2563eb"/>
     <use xlink:href="#m5743517f89" x="152.272576" y="208.624894" style="fill: #2563eb; stroke: #2563eb"/>
     <use xlink:href="#m5743517f89" x="152.272576" y="202.229728" style="fill: #2563eb; stroke: #2563eb"/>
     <use xlink:href="#m5743517f89" x="163.701598" y="197.814018" style="fill: #2563eb; stroke: #2563eb"/>
     <use xlink:href="#m5743517f89" x="166.339064" y="190.962054" style="fill: #2563eb; stroke: #2563eb"/>
     <use xlink:href="#m5743517f89" x="166.778642" y="186.546344" style="fill: #2563eb; stroke: #2563eb"/>
     <use xlink:href="#m5743517f89" x="169.855686" y="183.04423" style="fill: #2563eb; stroke: #2563eb"/>
     <use xlink:href="#m5743517f89" x="176.009775" y="174.821873" style="fill: #2563eb; stroke: #2563eb"/>
     <use xlink:href="#m5743517f89" x="183.043019" y="169.7971" style="fill: #2563eb; stroke: #2563eb"/>
     <use xlink:href="#m5743517f89" x="184.361752" y="165.533656" style="fill: #2563eb; stroke: #2563eb"/>
     <use xlink:href="#m5743517f89" x="186.999219" y="162.488338" style="fill: #2563eb; stroke: #2563eb"/>
     <use xlink:href="#m5743517f89" x="193.592885" y="157.311299" style="fill: #2563eb; stroke: #2563eb"/>
     <use xlink:href="#m5743517f89" x="198.867818" y="152.438792" style="fill: #2563eb; stroke: #2563eb"/>
     <use xlink:href="#m5743517f89" x="208.098951" y="143.607372" style="fill: #2563eb; stroke: #2563eb"/>
     <use xlink:href="#m5743517f89" x="214.692617" y="135.537281" style="fill: #2563eb; stroke: #2563eb"/>
     <use xlink:href="#m5743517f89" x="224.802905" y="123.965076" style="fill: #2563eb; stroke: #2563eb"/>
     <use xlink:href="#m5743517f89" x="235.352772" y="118.178973" style="fill: #2563eb; stroke: #2563eb"/>
     <use xlink:href="#m5743517f89" x="236.671505" y="117.113112" style="fill: #2563eb; stroke: #2563eb"/>
     <use xlink:href="#m5743517f89" x="239.308971" y="116.504048" style="fill: #2563eb; stroke: #2563eb"/>
     <use xlink:href="#m5743517f89" x="246.781793" y="108.586224" style="fill: #2563eb; stroke: #2563eb"/>
     <use xlink:href="#m5743517f89" x="259.08997" y="106.14997" style="fill: #2563eb; stroke: #2563eb"/>
     <use xlink:href="#m5743517f89" x="259.529548" y="101.886526" style="fill: #2563eb; stroke: #2563eb"/>
     <use xlink:href="#m5743517f89" x="263.485748" y="100.059335" style="fill: #2563eb; stroke: #2563eb"/>
     <use xlink:href="#m5743517f89" x="274.475192" y="98.688943" style="fill: #2563eb; stroke: #2563eb"/>
     <use xlink:href="#m5743517f89" x="281.508436" y="97.775347" style="fill: #2563eb; stroke: #2563eb"/>
     <use xlink:href="#m5743517f89" x="290.299991" y="86.65994" style="fill: #2563eb; stroke: #2563eb"/>
     <use xlink:href="#m5743517f89" x="303.926901" y="84.375952" style="fill: #2563eb; stroke: #2563eb"/>
     <use xlink:href="#m5743517f89" x="313.597612" y="77.676254" style="fill: #2563eb; stroke: #2563eb"/>
     <use xlink:href="#m5743517f89" x="345.686788" y="76.001329" style="fill: #2563eb; stroke: #2563eb"/>
     <use xlink:href="#m5743517f89" x="348.763832" y="71.890151" style="fill: #2563eb; stroke: #2563eb"/>
     <use xlink:href="#m5743517f89" x="370.74272" y="67.778973" style="fill: #2563eb; stroke: #2563eb"/>
     <use xlink:href="#m5743517f89" x="371.621875" y="64.58139" style="fill: #2563eb; stroke: #2563eb"/>
     <use xlink:href="#m5743517f89" x="376.017653" y="62.906465" style="fill: #2563eb; stroke: #2563eb"/>
     <use xlink:href="#m5743517f89" x="394.479918" y="61.840604" style="fill: #2563eb; stroke: #2563eb"/>
     <use xlink:href="#m5743517f89" x="402.392318" y="54.531843" style="fill: #2563eb; stroke: #2563eb"/>
     <use xlink:href="#m5743517f89" x="423.052472" y="52.856918" style="fill: #2563eb; stroke: #2563eb"/>
     <use xlink:href="#m5743517f89" x="428.766983" y="45.548157" style="fill: #2563eb; stroke: #2563eb"/>
     <use xlink:href="#m5743517f89" x="446.350093" y="45.395891" style="fill: #2563eb; stroke: #2563eb"/>
     <use xlink:href="#m5743517f89" x="449.427137" y="44.482296" style="fill: #2563eb; stroke: #2563eb"/>
     <use xlink:href="#m5743517f89" x="453.822915" y="41.893776" style="fill: #2563eb; stroke: #2563eb"/>
     <use xlink:href="#m5743517f89" x="453.822915" y="40.066586" style="fill: #2563eb; stroke: #2563eb"/>
     <use xlink:href="#m5743517f89" x="459.537426" y="38.239396" style="fill: #2563eb; stroke: #2563eb"/>
     <use xlink:href="#m5743517f89" x="470.087292" y="37.478066" style="fill: #2563eb; stroke: #2563eb"/>
     <use xlink:href="#m5743517f89" x="477.999691" y="35.803142" style="fill: #2563eb; stroke: #2563eb"/>
     <use xlink:href="#m5743517f89" x="479.318425" y="35.041813" style="fill: #2563eb; stroke: #2563eb"/>
     <use xlink:href="#m5743517f89" x="485.912091" y="32.910091" style="fill: #2563eb; stroke: #2563eb"/>
     <use xlink:href="#m5743517f89" x="493.384913" y="32.453293" style="fill: #2563eb; stroke: #2563eb"/>
     <use xlink:href="#m5743517f89" x="509.64929" y="30.626103" style="fill: #2563eb; stroke: #2563eb"/>
     <use xlink:href="#m5743517f89" x="511.407601" y="29.560242" style="fill: #2563eb; stroke: #2563eb"/>
     <use xlink:href="#m5743517f89" x="518.001267" y="29.407976" style="fill: #2563eb; stroke: #2563eb"/>
     <use xlink:href="#m5743517f89" x="533.386488" y="28.189849" style="fill: #2563eb; stroke: #2563eb"/>
     <use xlink:href="#m5743517f89" x="541.298888" y="25.296798" style="fill: #2563eb; stroke: #2563eb"/>
     <use xlink:href="#m5743517f89" x="548.332132" y="24.84" style="fill: #2563eb; stroke: #2563eb"/>
    </g>
   </g>
   <g id="line2d_14">
    <path d="M 81.06098 377.64 
L 81.940136 374.442417 
L 81.940136 373.376556 
L 82.379713 372.310695 
L 83.258869 368.504048 
L 83.258869 368.199517 
L 84.138024 366.067795 
L 84.577602 365.154199 
L 85.01718 364.545136 
L 85.456758 363.479275 
L 86.775491 362.108882 
L 87.215069 360.129426 
L 87.654646 359.672628 
L 88.533802 356.627311 
L 90.292113 356.322779 
L 90.731691 352.668399 
L 91.610846 351.450272 
L 92.050424 343.684713 
L 92.929579 341.857523 
L 93.369157 330.133051 
L 93.808735 327.24 
L 96.446201 323.890151 
L 97.325357 318.104048 
L 99.962824 311.861148 
L 100.841979 307.74997 
L 105.237757 305.618248 
L 105.677334 294.807372 
L 110.073112 284.910091 
L 115.787623 273.185619 
L 120.622978 263.288338 
L 123.700022 257.197704 
L 126.337489 254.000121 
L 130.293688 252.477462 
L 131.172844 249.432145 
L 133.810311 247.300423 
L 135.129044 246.539094 
L 139.085244 241.057523 
L 142.162288 239.839396 
L 142.601866 239.68713 
L 146.118488 237.250876 
L 147.876799 233.596495 
L 150.514265 232.987432 
L 154.470465 231.007976 
L 154.910043 230.551178 
L 161.503709 229.02852 
L 162.382864 227.505861 
L 164.141175 227.353595 
L 164.141175 226.592266 
L 165.020331 224.765076 
L 165.899486 223.090151 
L 166.339064 222.481088 
L 167.21822 221.719758 
L 171.613997 221.110695 
L 171.613997 218.826707 
L 173.811886 215.78139 
L 176.449353 215.476858 
L 176.88893 215.324592 
L 178.647241 213.040604 
L 180.84513 209.386224 
L 185.680485 209.081692 
L 186.999219 208.472628 
L 191.394996 204.056918 
L 192.713729 202.686526 
L 192.713729 201.620665 
L 196.230351 201.011601 
L 200.626129 199.184411 
L 203.263596 197.509486 
L 203.703173 196.900423 
L 205.021907 196.595891 
L 206.34064 195.073233 
L 206.34064 193.855106 
L 219.088395 190.048459 
L 219.088395 189.743927 
L 234.034038 188.830332 
L 234.473616 187.764471 
L 234.473616 187.307674 
L 234.913194 186.69861 
L 234.913194 186.394079 
L 576.02553 186.241813 
L 576.904686 186.089547 
L 583.498352 184.110091 
L 587.454552 182.2829 
L 588.333707 182.130634 
" clip-path="url(#p33207fd5cb)" style="fill: none; stroke: #dc2626; stroke-width: 2; stroke-linecap: round"/>
    <defs>
     <path id="m747b927449" d="M 0 2 
C 0.530406 2 1.03916 1.789267 1.414214 1.414214 
C 1.789267 1.03916 2 0.530406 2 0 
C 2 -0.530406 1.789267 -1.03916 1.414214 -1.414214 
C 1.03916 -1.789267 0.530406 -2 0 -2 
C -0.530406 -2 -1.03916 -1.789267 -1.414214 -1.414214 
C -1.789267 -1.03916 -2 -0.530406 -2 0 
C -2 0.530406 -1.789267 1.03916 -1.414214 1.414214 
C -1.03916 1.789267 -0.530406 2 0 2 
z
" style="stroke: #dc2626"/>
    </defs>
    <g clip-path="url(#p33207fd5cb)">
     <use xlink:href="#m747b927449" x="81.06098" y="377.64" style="fill: #dc2626; stroke: #dc2626"/>
     <use xlink:href="#m747b927449" x="81.940136" y="374.442417" style="fill: #dc2626; stroke: #dc2626"/>
     <use xlink:href="#m747b927449" x="81.940136" y="373.376556" style="fill: #dc2626; stroke: #dc2626"/>
     <use xlink:href="#m747b927449" x="82.379713" y="372.310695" style="fill: #dc2626; stroke: #dc2626"/>
     <use xlink:href="#m747b927449" x="83.258869" y="368.504048" style="fill: #dc2626; stroke: #dc2626"/>
     <use xlink:href="#m747b927449" x="83.258869" y="368.199517" style="fill: #dc2626; stroke: #dc2626"/>
     <use xlink:href="#m747b927449" x="84.138024" y="366.067795" style="fill: #dc2626; stroke: #dc2626"/>
     <use xlink:href="#m747b927449" x="84.577602" y="365.154199" style="fill: #dc2626; stroke: #dc2626"/>
     <use xlink:href="#m747b927449" x="85.01718" y="364.545136" style="fill: #dc2626; stroke: #dc2626"/>
     <use xlink:href="#m747b927449" x="85.456758" y="363.479275" style="fill: #dc2626; stroke: #dc2626"/>
     <use xlink:href="#m747b927449" x="86.775491" y="362.108882" style="fill: #dc2626; stroke: #dc2626"/>
     <use xlink:href="#m747b927449" x="87.215069" y="360.129426" style="fill: #dc2626; stroke: #dc2626"/>
     <use xlink:href="#m747b927449" x="87.654646" y="359.672628" style="fill: #dc2626; stroke: #dc2626"/>
     <use xlink:href="#m747b927449" x="88.533802" y="356.627311" style="fill: #dc2626; stroke: #dc2626"/>
     <use xlink:href="#m747b927449" x="90.292113" y="356.322779" style="fill: #dc2626; stroke: #dc2626"/>
     <use xlink:href="#m747b927449" x="90.731691" y="352.668399" style="fill: #dc2626; stroke: #dc2626"/>
     <use xlink:href="#m747b927449" x="91.610846" y="351.450272" style="fill: #dc2626; stroke: #dc2626"/>
     <use xlink:href="#m747b927449" x="92.050424" y="343.684713" style="fill: #dc2626; stroke: #dc2626"/>
     <use xlink:href="#m747b927449" x="92.929579" y="341.857523" style="fill: #dc2626; stroke: #dc2626"/>
     <use xlink:href="#m747b927449" x="93.369157" y="330.133051" style="fill: #dc2626; stroke: #dc2626"/>
     <use xlink:href="#m747b927449" x="93.808735" y="327.24" style="fill: #dc2626; stroke: #dc2626"/>
     <use xlink:href="#m747b927449" x="96.446201" y="323.890151" style="fill: #dc2626; stroke: #dc2626"/>
     <use xlink:href="#m747b927449" x="97.325357" y="318.104048" style="fill: #dc2626; stroke: #dc2626"/>
     <use xlink:href="#m747b927449" x="99.962824" y="311.861148" style="fill: #dc2626; stroke: #dc2626"/>
     <use xlink:href="#m747b927449" x="100.841979" y="307.74997" style="fill: #dc2626; stroke: #dc2626"/>
     <use xlink:href="#m747b927449" x="105.237757" y="305.618248" style="fill: #dc2626; stroke: #dc2626"/>
     <use xlink:href="#m747b927449" x="105.677334" y="294.807372" style="fill: #dc2626; stroke: #dc2626"/>
     <use xlink:href="#m747b927449" x="110.073112" y="284.910091" style="fill: #dc2626; stroke: #dc2626"/>
     <use xlink:href="#m747b927449" x="115.787623" y="273.185619" style="fill: #dc2626; stroke: #dc2626"/>
     <use xlink:href="#m747b927449" x="120.622978" y="263.288338" style="fill: #dc2626; stroke: #dc2626"/>
     <use xlink:href="#m747b927449" x="123.700022" y="257.197704" style="fill: #dc2626; stroke: #dc2626"/>
     <use xlink:href="#m747b927449" x="126.337489" y="254.000121" style="fill: #dc2626; stroke: #dc2626"/>
     <use xlink:href="#m747b927449" x="130.293688" y="252.477462" style="fill: #dc2626; stroke: #dc2626"/>
     <use xlink:href="#m747b927449" x="131.172844" y="249.432145" style="fill: #dc2626; stroke: #dc2626"/>
     <use xlink:href="#m747b927449" x="133.810311" y="247.300423" style="fill: #dc2626; stroke: #dc2626"/>
     <use xlink:href="#m747b927449" x="135.129044" y="246.539094" style="fill: #dc2626; stroke: #dc2626"/>
     <use xlink:href="#m747b927449" x="139.085244" y="241.057523" style="fill: #dc2626; stroke: #dc2626"/>
     <use xlink:href="#m747b927449" x="142.162288" y="239.839396" style="fill: #dc2626; stroke: #dc2626"/>
     <use xlink:href="#m747b927449" x="142.601866" y="239.68713" style="fill: #dc2626; stroke: #dc2626"/>
     <use xlink:href="#m747b927449" x="146.118488" y="237.250876" style="fill: #dc2626; stroke: #dc2626"/>
     <use xlink:href="#m747b927449" x="147.876799" y="233.596495" style="fill: #dc2626; stroke: #dc2626"/>
     <use xlink:href="#m747b927449" x="150.514265" y="232.987432" style="fill: #dc2626; stroke: #dc2626"/>
     <use xlink:href="#m747b927449" x="154.470465" y="231.007976" style="fill: #dc2626; stroke: #dc2626"/>
     <use xlink:href="#m747b927449" x="154.910043" y="230.551178" style="fill: #dc2626; stroke: #dc2626"/>
     <use xlink:href="#m747b927449" x="161.503709" y="229.02852" style="fill: #dc2626; stroke: #dc2626"/>
     <use xlink:href="#m747b927449" x="162.382864" y="227.505861" style="fill: #dc2626; stroke: #dc2626"/>
     <use xlink:href="#m747b927449" x="164.141175" y="227.353595" style="fill: #dc2626; stroke: #dc2626"/>
     <use xlink:href="#m747b927449" x="164.141175" y="226.592266" style="fill: #dc2626; stroke: #dc2626"/>
     <use xlink:href="#m747b927449" x="165.020331" y="224.765076" style="fill: #dc2626; stroke: #dc2626"/>
     <use xlink:href="#m747b927449" x="165.899486" y="223.090151" style="fill: #dc2626; stroke: #dc2626"/>
     <use xlink:href="#m747b927449" x="166.339064" y="222.481088" style="fill: #dc2626; stroke: #dc2626"/>
     <use xlink:href="#m747b927449" x="167.21822" y="221.719758" style="fill: #dc2626; stroke: #dc2626"/>
     <use xlink:href="#m747b927449" x="171.613997" y="221.110695" style="fill: #dc2626; stroke: #dc2626"/>
     <use xlink:href="#m747b927449" x="171.613997" y="218.826707" style="fill: #dc2626; stroke: #dc2626"/>
     <use xlink:href="#m747b927449" x="173.811886" y="215.78139" style="fill: #dc2626; stroke: #dc2626"/>
     <use xlink:href="#m747b927449" x="176.449353" y="215.476858" style="fill: #dc2626; stroke: #dc2626"/>
     <use xlink:href="#m747b927449" x="176.88893" y="215.324592" style="fill: #dc2626; stroke: #dc2626"/>
     <use xlink:href="#m747b927449" x="178.647241" y="213.040604" style="fill: #dc2626; stroke: #dc2626"/>
     <use xlink:href="#m747b927449" x="180.84513" y="209.386224" style="fill: #dc2626; stroke: #dc2626"/>
     <use xlink:href="#m747b927449" x="185.680485" y="209.081692" style="fill: #dc2626; stroke: #dc2626"/>
     <use xlink:href="#m747b927449" x="186.999219" y="208.472628" style="fill: #dc2626; stroke: #dc2626"/>
     <use xlink:href="#m747b927449" x="191.394996" y="204.056918" style="fill: #dc2626; stroke: #dc2626"/>
     <use xlink:href="#m747b927449" x="192.713729" y="202.686526" style="fill: #dc2626; stroke: #dc2626"/>
     <use xlink:href="#m747b927449" x="192.713729" y="201.620665" style="fill: #dc2626; stroke: #dc2626"/>
     <use xlink:href="#m747b927449" x="196.230351" y="201.011601" style="fill: #dc2626; stroke: #dc2626"/>
     <use xlink:href="#m747b927449" x="200.626129" y="199.184411" style="fill: #dc2626; stroke: #dc2626"/>
     <use xlink:href="#m747b927449" x="203.263596" y="197.509486" style="fill: #dc2626; stroke: #dc2626"/>
     <use xlink:href="#m747b927449" x="203.703173" y="196.900423" style="fill: #dc2626; stroke: #dc2626"/>
     <use xlink:href="#m747b927449" x="205.021907" y="196.595891" style="fill: #dc2626; stroke: #dc2626"/>
     <use xlink:href="#m747b927449" x="206.34064" y="195.073233" style="fill: #dc2626; stroke: #dc2626"/>
     <use xlink:href="#m747b927449" x="206.34064" y="193.855106" style="fill: #dc2626; stroke: #dc2626"/>
     <use xlink:href="#m747b927449" x="219.088395" y="190.048459" style="fill: #dc2626; stroke: #dc2626"/>
     <use xlink:href="#m747b927449" x="219.088395" y="189.743927" style="fill: #dc2626; stroke: #dc2626"/>
     <use xlink:href="#m747b927449" x="234.034038" y="188.830332" style="fill: #dc2626; stroke: #dc2626"/>
     <use xlink:href="#m747b927449" x="234.473616" y="187.764471" style="fill: #dc2626; stroke: #dc2626"/>
     <use xlink:href="#m747b927449" x="234.473616" y="187.307674" style="fill: #dc2626; stroke: #dc2626"/>
     <use xlink:href="#m747b927449" x="234.913194" y="186.69861" style="fill: #dc2626; stroke: #dc2626"/>
     <use xlink:href="#m747b927449" x="234.913194" y="186.394079" style="fill: #dc2626; stroke: #dc2626"/>
     <use xlink:href="#m747b927449" x="576.02553" y="186.241813" style="fill: #dc2626; stroke: #dc2626"/>
     <use xlink:href="#m747b927449" x="576.904686" y="186.089547" style="fill: #dc2626; stroke: #dc2626"/>
     <use xlink:href="#m747b927449" x="583.498352" y="184.110091" style="fill: #dc2626; stroke: #dc2626"/>
     <use xlink:href="#m747b927449" x="587.454552" y="182.2829" style="fill: #dc2626; stroke: #dc2626"/>
     <use xlink:href="#m747b927449" x="588.333707" y="182.130634" style="fill: #dc2626; stroke: #dc2626"/>
    </g>
   </g>
   <g id="patch_3">
    <path d="M 55.697344 395.28 
L 55.697344 7.2 
" style="fill: none; stroke: #cccccc; stroke-width: 1.25; stroke-linejoin: miter; stroke-linecap: square"/>
   </g>
   <g id="patch_4">
    <path d="M 613.697344 395.28 
L 613.697344 7.2 
" style="fill: none; stroke: #cccccc; stroke-width: 1.25; stroke-linejoin: miter; stroke-linecap: square"/>
   </g>
   <g id="patch_5">
    <path d="M 55.697344 395.28 
L 613.697344 395.28 
" style="fill: none; stroke: #cccccc; stroke-width: 1.25; stroke-linejoin: miter; stroke-linecap: square"/>
   </g>
   <g id="patch_6">
    <path d="M 55.697344 7.2 
L 613.697344 7.2 
" style="fill: none; stroke: #cccccc; stroke-width: 1.25; stroke-linejoin: miter; stroke-linecap: square"/>
   </g>
   <g id="legend_1">
    <g id="patch_7">
     <path d="M 374.857344 388.28 
L 603.897344 388.28 
Q 606.697344 388.28 606.697344 385.48 
L 606.697344 302.875625 
Q 606.697344 300.075625 603.897344 300.075625 
L 374.857344 300.075625 
Q 372.057344 300.075625 372.057344 302.875625 
L 372.057344 385.48 
Q 372.057344 388.28 374.857344 388.28 
z
" style="fill: #ffffff; opacity: 0.8; stroke: #cccccc; stroke-linejoin: miter"/>
    </g>
    <g id="line2d_15">
     <path d="M 377.657344 311.413437 
L 391.657344 311.413437 
L 405.657344 311.413437 
" style="fill: none; stroke: #2563eb; stroke-width: 2; stroke-linecap: round"/>
     <g>
      <use xlink:href="#m5743517f89" x="391.657344" y="311.413437" style="fill: #2563eb; stroke: #2563eb"/>
     </g>
    </g>
    <g id="text_15">
     <!-- DeepSeek V3 frontier -->
     <g style="fill: #262626" transform="translate(416.857344 316.313437) scale(0.14 -0.14)">
      <defs>
       <path id="DejaVuSans-27" d="M 1259 4147 
L 1259 519 
L 2022 519 
Q 2988 519 3436 956 
Q 3884 1394 3884 2338 
Q 3884 3275 3436 3711 
Q 2988 4147 2022 4147 
L 1259 4147 
z
M 628 4666 
L 1925 4666 
Q 3281 4666 3915 4102 
Q 4550 3538 4550 2338 
Q 4550 1131 3912 565 
Q 3275 0 1925 0 
L 628 0 
L 628 4666 
z
" transform="scale(0.015625)"/>
       <path id="DejaVuSans-53" d="M 1159 525 
L 1159 -1331 
L 581 -1331 
L 581 3500 
L 1159 3500 
L 1159 2969 
Q 1341 3281 1617 3432 
Q 1894 3584 2278 3584 
Q 2916 3584 3314 3078 
Q 3713 2572 3713 1747 
Q 3713 922 3314 415 
Q 2916 -91 2278 -91 
Q 1894 -91 1617 61 
Q 1341 213 1159 525 
z
M 3116 1747 
Q 3116 2381 2855 2742 
Q 2594 3103 2138 3103 
Q 1681 3103 1420 2742 
Q 1159 2381 1159 1747 
Q 1159 1113 1420 752 
Q 1681 391 2138 391 
Q 2594 391 2855 752 
Q 3116 1113 3116 1747 
z
" transform="scale(0.015625)"/>
       <path id="DejaVuSans-4e" d="M 581 4863 
L 1159 4863 
L 1159 1991 
L 2875 3500 
L 3609 3500 
L 1753 1863 
L 3688 0 
L 2938 0 
L 1159 1709 
L 1159 0 
L 581 0 
L 581 4863 
z
" transform="scale(0.015625)"/>
       <path id="DejaVuSans-39" d="M 1831 0 
L 50 4666 
L 709 4666 
L 2188 738 
L 3669 4666 
L 4325 4666 
L 2547 0 
L 1831 0 
z
" transform="scale(0.015625)"/>
       <path id="DejaVuSans-16" d="M 2597 2516 
Q 3050 2419 3304 2112 
Q 3559 1806 3559 1356 
Q 3559 666 3084 287 
Q 2609 -91 1734 -91 
Q 1441 -91 1130 -33 
Q 819 25 488 141 
L 488 750 
Q 750 597 1062 519 
Q 1375 441 1716 441 
Q 2309 441 2620 675 
Q 2931 909 2931 1356 
Q 2931 1769 2642 2001 
Q 2353 2234 1838 2234 
L 1294 2234 
L 1294 2753 
L 1863 2753 
Q 2328 2753 2575 2939 
Q 2822 3125 2822 3475 
Q 2822 3834 2567 4026 
Q 2313 4219 1838 4219 
Q 1578 4219 1281 4162 
Q 984 4106 628 3988 
L 628 4550 
Q 988 4650 1302 4700 
Q 1616 4750 1894 4750 
Q 2613 4750 3031 4423 
Q 3450 4097 3450 3541 
Q 3450 3153 3228 2886 
Q 3006 2619 2597 2516 
z
" transform="scale(0.015625)"/>
       <path id="DejaVuSans-49" d="M 2375 4863 
L 2375 4384 
L 1825 4384 
Q 1516 4384 1395 4259 
Q 1275 4134 1275 3809 
L 1275 3500 
L 2222 3500 
L 2222 3053 
L 1275 3053 
L 1275 0 
L 697 0 
L 697 3053 
L 147 3053 
L 147 3500 
L 697 3500 
L 697 3744 
Q 697 4328 969 4595 
Q 1241 4863 1831 4863 
L 2375 4863 
z
" transform="scale(0.015625)"/>
       <path id="DejaVuSans-52" d="M 1959 3097 
Q 1497 3097 1228 2736 
Q 959 2375 959 1747 
Q 959 1119 1226 758 
Q 1494 397 1959 397 
Q 2419 397 2687 759 
Q 2956 1122 2956 1747 
Q 2956 2369 2687 2733 
Q 2419 3097 1959 3097 
z
M 1959 3584 
Q 2709 3584 3137 3096 
Q 3566 2609 3566 1747 
Q 3566 888 3137 398 
Q 2709 -91 1959 -91 
Q 1206 -91 779 398 
Q 353 888 353 1747 
Q 353 2609 779 3096 
Q 1206 3584 1959 3584 
z
" transform="scale(0.015625)"/>
       <path id="DejaVuSans-57" d="M 1172 4494 
L 1172 3500 
L 2356 3500 
L 2356 3053 
L 1172 3053 
L 1172 1153 
Q 1172 725 1289 603 
Q 1406 481 1766 481 
L 2356 481 
L 2356 0 
L 1766 0 
Q 1100 0 847 248 
Q 594 497 594 1153 
L 594 3053 
L 172 3053 
L 172 3500 
L 594 3500 
L 594 4494 
L 1172 4494 
z
" transform="scale(0.015625)"/>
      </defs>
      <use xlink:href="#DejaVuSans-27"/>
      <use xlink:href="#DejaVuSans-48" transform="translate(77 0)"/>
      <use xlink:href="#DejaVuSans-48" transform="translate(138.53125 0)"/>
      <use xlink:href="#DejaVuSans-53" transform="translate(200.0625 0)"/>
      <use xlink:href="#DejaVuSans-36" transform="translate(263.546875 0)"/>
      <use xlink:href="#DejaVuSans-48" transform="translate(327.03125 0)"/>
      <use xlink:href="#DejaVuSans-48" transform="translate(388.5625 0)"/>
      <use xlink:href="#DejaVuSans-4e" transform="translate(450.09375 0)"/>
      <use xlink:href="#DejaVuSans-3" transform="translate(508 0)"/>
      <use xlink:href="#DejaVuSans-39" transform="translate(539.78125 0)"/>
      <use xlink:href="#DejaVuSans-16" transform="translate(608.1875 0)"/>
      <use xlink:href="#DejaVuSans-3" transform="translate(671.8125 0)"/>
      <use xlink:href="#DejaVuSans-49" transform="translate(703.59375 0)"/>
      <use xlink:href="#DejaVuSans-55" transform="translate(738.796875 0)"/>
      <use xlink:href="#DejaVuSans-52" transform="translate(777.703125 0)"/>
      <use xlink:href="#DejaVuSans-51" transform="translate(838.890625 0)"/>
      <use xlink:href="#DejaVuSans-57" transform="translate(902.265625 0)"/>
      <use xlink:href="#DejaVuSans-4c" transform="translate(941.46875 0)"/>
      <use xlink:href="#DejaVuSans-48" transform="translate(969.25 0)"/>
      <use xlink:href="#DejaVuSans-55" transform="translate(1030.78125 0)"/>
     </g>
    </g>
    <g id="PathCollection_1">
     <defs>
      <path id="m3295ed6410" d="M 0 -7.071068 
L -1.587554 -2.18508 
L -6.724985 -2.18508 
L -2.568716 0.834626 
L -4.156269 5.720614 
L -0 2.700907 
L 4.156269 5.720614 
L 2.568716 0.834626 
L 6.724985 -2.18508 
L 1.587554 -2.18508 
z
" style="stroke: #000000"/>
     </defs>
     <g>
      <use xlink:href="#m3295ed6410" x="391.657344" y="333.639531" style="fill: #ff0000; stroke: #000000"/>
     </g>
    </g>
    <g id="text_16">
     <!-- DeepSeek V3 best (0.616) -->
     <g style="fill: #262626" transform="translate(416.857344 337.314531) scale(0.14 -0.14)">
      <defs>
       <path id="DejaVuSans-45" d="M 3116 1747 
Q 3116 2381 2855 2742 
Q 2594 3103 2138 3103 
Q 1681 3103 1420 2742 
Q 1159 2381 1159 1747 
Q 1159 1113 1420 752 
Q 1681 391 2138 391 
Q 2594 391 2855 752 
Q 3116 1113 3116 1747 
z
M 1159 2969 
Q 1341 3281 1617 3432 
Q 1894 3584 2278 3584 
Q 2916 3584 3314 3078 
Q 3713 2572 3713 1747 
Q 3713 922 3314 415 
Q 2916 -91 2278 -91 
Q 1894 -91 1617 61 
Q 1341 213 1159 525 
L 1159 0 
L 581 0 
L 581 4863 
L 1159 4863 
L 1159 2969 
z
" transform="scale(0.015625)"/>
       <path id="DejaVuSans-11" d="M 684 794 
L 1344 794 
L 1344 0 
L 684 0 
L 684 794 
z
" transform="scale(0.015625)"/>
      </defs>
      <use xlink:href="#DejaVuSans-27"/>
      <use xlink:href="#DejaVuSans-48" transform="translate(77 0)"/>
      <use xlink:href="#DejaVuSans-48" transform="translate(138.53125 0)"/>
      <use xlink:href="#DejaVuSans-53" transform="translate(200.0625 0)"/>
      <use xlink:href="#DejaVuSans-36" transform="translate(263.546875 0)"/>
      <use xlink:href="#DejaVuSans-48" transform="translate(327.03125 0)"/>
      <use xlink:href="#DejaVuSans-48" transform="translate(388.5625 0)"/>
      <use xlink:href="#DejaVuSans-4e" transform="translate(450.09375 0)"/>
      <use xlink:href="#DejaVuSans-3" transform="translate(508 0)"/>
      <use xlink:href="#DejaVuSans-39" transform="translate(539.78125 0)"/>
      <use xlink:href="#DejaVuSans-16" transform="translate(608.1875 0)"/>
      <use xlink:href="#DejaVuSans-3" transform="translate(671.8125 0)"/>
      <use xlink:href="#DejaVuSans-45" transform="translate(703.59375 0)"/>
      <use xlink:href="#DejaVuSans-48" transform="translate(767.078125 0)"/>
      <use xlink:href="#DejaVuSans-56" transform="translate(828.609375 0)"/>
      <use xlink:href="#DejaVuSans-57" transform="translate(880.703125 0)"/>
      <use xlink:href="#DejaVuSans-3" transform="translate(919.90625 0)"/>
      <use xlink:href="#DejaVuSans-b" transform="translate(951.6875 0)"/>
      <use xlink:href="#DejaVuSans-13" transform="translate(990.703125 0)"/>
      <use xlink:href="#DejaVuSans-11" transform="translate(1054.328125 0)"/>
      <use xlink:href="#DejaVuSans-19" transform="translate(1086.109375 0)"/>
      <use xlink:href="#DejaVuSans-14" transform="translate(1149.734375 0)"/>
      <use xlink:href="#DejaVuSans-19" transform="translate(1213.359375 0)"/>
      <use xlink:href="#DejaVuSans-c" transform="translate(1276.984375 0)"/>
     </g>
    </g>
    <g id="line2d_16">
     <path d="M 377.657344 353.415625 
L 391.657344 353.415625 
L 405.657344 353.415625 
" style="fill: none; stroke: #dc2626; stroke-width: 2; stroke-linecap: round"/>
     <g>
      <use xlink:href="#m747b927449" x="391.657344" y="353.415625" style="fill: #dc2626; stroke: #dc2626"/>
     </g>
    </g>
    <g id="text_17">
     <!-- Kimi K2 frontier -->
     <g style="fill: #262626" transform="translate(416.857344 358.315625) scale(0.14 -0.14)">
      <defs>
       <path id="DejaVuSans-2e" d="M 628 4666 
L 1259 4666 
L 1259 2694 
L 3353 4666 
L 4166 4666 
L 1850 2491 
L 4331 0 
L 3500 0 
L 1259 2247 
L 1259 0 
L 628 0 
L 628 4666 
z
" transform="scale(0.015625)"/>
      </defs>
      <use xlink:href="#DejaVuSans-2e"/>
      <use xlink:href="#DejaVuSans-4c" transform="translate(65.578125 0)"/>
      <use xlink:href="#DejaVuSans-50" transform="translate(93.359375 0)"/>
      <use xlink:href="#DejaVuSans-4c" transform="translate(190.765625 0)"/>
      <use xlink:href="#DejaVuSans-3" transform="translate(218.546875 0)"/>
      <use xlink:href="#DejaVuSans-2e" transform="translate(250.328125 0)"/>
      <use xlink:href="#DejaVuSans-15" transform="translate(315.90625 0)"/>
      <use xlink:href="#DejaVuSans-3" transform="translate(379.53125 0)"/>
      <use xlink:href="#DejaVuSans-49" transform="translate(411.3125 0)"/>
      <use xlink:href="#DejaVuSans-55" transform="translate(446.515625 0)"/>
      <use xlink:href="#DejaVuSans-52" transform="translate(485.421875 0)"/>
      <use xlink:href="#DejaVuSans-51" transform="translate(546.609375 0)"/>
      <use xlink:href="#DejaVuSans-57" transform="translate(609.984375 0)"/>
      <use xlink:href="#DejaVuSans-4c" transform="translate(649.1875 0)"/>
      <use xlink:href="#DejaVuSans-48" transform="translate(676.96875 0)"/>
      <use xlink:href="#DejaVuSans-55" transform="translate(738.5 0)"/>
     </g>
    </g>
    <g id="PathCollection_2">
     <g>
      <use xlink:href="#m3295ed6410" x="391.657344" y="375.641719" style="fill: #ff0000; stroke: #000000"/>
     </g>
    </g>
    <g id="text_18">
     <!-- Kimi K2 best (0.564) -->
     <g style="fill: #262626" transform="translate(416.857344 379.316719) scale(0.14 -0.14)">
      <use xlink:href="#DejaVuSans-2e"/>
      <use xlink:href="#DejaVuSans-4c" transform="translate(65.578125 0)"/>
      <use xlink:href="#DejaVuSans-50" transform="translate(93.359375 0)"/>
      <use xlink:href="#DejaVuSans-4c" transform="translate(190.765625 0)"/>
      <use xlink:href="#DejaVuSans-3" transform="translate(218.546875 0)"/>
      <use xlink:href="#DejaVuSans-2e" transform="translate(250.328125 0)"/>
      <use xlink:href="#DejaVuSans-15" transform="translate(315.90625 0)"/>
      <use xlink:href="#DejaVuSans-3" transform="translate(379.53125 0)"/>
      <use xlink:href="#DejaVuSans-45" transform="translate(411.3125 0)"/>
      <use xlink:href="#DejaVuSans-48" transform="translate(474.796875 0)"/>
      <use xlink:href="#DejaVuSans-56" transform="translate(536.328125 0)"/>
      <use xlink:href="#DejaVuSans-57" transform="translate(588.421875 0)"/>
      <use xlink:href="#DejaVuSans-3" transform="translate(627.625 0)"/>
      <use xlink:href="#DejaVuSans-b" transform="translate(659.40625 0)"/>
      <use xlink:href="#DejaVuSans-13" transform="translate(698.421875 0)"/>
      <use xlink:href="#DejaVuSans-11" transform="translate(762.046875 0)"/>
      <use xlink:href="#DejaVuSans-18" transform="translate(793.828125 0)"/>
      <use xlink:href="#DejaVuSans-19" transform="translate(857.453125 0)"/>
      <use xlink:href="#DejaVuSans-17" transform="translate(921.078125 0)"/>
      <use xlink:href="#DejaVuSans-c" transform="translate(984.703125 0)"/>
     </g>
    </g>
   </g>
   <g id="PathCollection_3">
    <g clip-path="url(#p33207fd5cb)">
     <use xlink:href="#m3295ed6410" x="548.332132" y="24.84" style="fill: #ff0000; stroke: #000000"/>
    </g>
   </g>
   <g id="PathCollection_4">
    <g clip-path="url(#p33207fd5cb)">
     <use xlink:href="#m3295ed6410" x="588.333707" y="182.130634" style="fill: #ff0000; stroke: #000000"/>
    </g>
   </g>
  </g>
 </g>
 <defs>
  <clipPath id="p33207fd5cb">
   <rect x="55.697344" y="7.2" width="558" height="388.08"/>
  </clipPath>
 </defs>
</svg>
