<?xml version="1.0" encoding="utf-8" standalone="no"?>
<!DOCTYPE svg PUBLIC "-//W3C//DTD SVG 1.1//EN"
  "http://www.w3.org/Graphics/SVG/1.1/DTD/svg11.dtd">
<svg xmlns:xlink="http://www.w3.org/1999/xlink" width="619.635602pt" height="446.481094pt" viewBox="0 0 619.635602 446.481094" xmlns="http://www.w3.org/2000/svg" version="1.1">
 <metadata>
  <rdf:RDF xmlns:dc="http://purl.org/dc/elements/1.1/" xmlns:cc="http://creativecommons.org/ns#" xmlns:rdf="http://www.w3.org/1999/02/22-rdf-syntax-ns#">
   <cc:Work>
    <dc:type rdf:resource="http://purl.org/dc/dcmitype/StillImage"/>
    <dc:date>2026-07-22T17:12:43.975044</dc:date>
    <dc:format>image/svg+xml</dc:format>
    <dc:creator>
     <cc:Agent>
      <dc:title>Matplotlib v3.11.0, https://matplotlib.org/</dc:title>
     </cc:Agent>
    </dc:creator>
   </cc:Work>
  </rdf:RDF>
 </metadata>
 <defs>
  <style type="text/css">*{stroke-linejoin: round; stroke-linecap: butt}</style>
 </defs>
 <g id="figure_1">
  <g id="patch_1">
   <path d="M 0 446.481094 
L 619.635602 446.481094 
L 619.635602 0 
L 0 0 
z
" style="fill: #ffffff"/>
  </g>
  <g id="axes_1">
   <g id="patch_2">
    <path d="M 45.199219 395.28 
L 603.199219 395.28 
L 603.199219 7.2 
L 45.199219 7.2 
z
" style="fill: #ffffff"/>
   </g>
   <g id="matplotlib.axis_1">
    <g id="xtick_1">
     <g id="line2d_1">
      <path d="M 70.562855 395.28 
L 70.562855 7.2 
" clip-path="url(#pfd9a79aebc)" style="fill: none; stroke: #cccccc; stroke-opacity: 0.3; stroke-linecap: round"/>
     </g>
     <g id="text_1">
      <!-- 0 -->
      <g style="fill: #262626" transform="translate(65.313793 417.316133) scale(0.165 -0.165)">
       <defs>
        <path id="DejaVuSans-13" d="M 2034 4250 
Q 1547 4250 1301 3770 
Q 1056 3291 1056 2328 
Q 1056 1369 1301 889 
Q 1547 409 2034 409 
Q 2525 409 2770 889 
Q 3016 1369 3016 2328 
Q 3016 3291 2770 3770 
Q 2525 4250 2034 4250 
z
M 2034 4750 
Q 2819 4750 3233 4129 
Q 3647 3509 3647 2328 
Q 3647 1150 3233 529 
Q 2819 -91 2034 -91 
Q 1250 -91 836 529 
Q 422 1150 422 2328 
Q 422 3509 836 4129 
Q 1250 4750 2034 4750 
z
" transform="scale(0.015625)"/>
       </defs>
       <use xlink:href="#DejaVuSans-13"/>
      </g>
     </g>
    </g>
    <g id="xtick_2">
     <g id="line2d_2">
      <path d="M 158.250448 395.28 
L 158.250448 7.2 
" clip-path="url(#pfd9a79aebc)" style="fill: none; stroke: #cccccc; stroke-opacity: 0.3; stroke-linecap: round"/>
     </g>
     <g id="text_2">
      <!-- 20 -->
      <g style="fill: #262626" transform="translate(147.752323 417.316133) scale(0.165 -0.165)">
       <defs>
        <path id="DejaVuSans-15" d="M 1228 531 
L 3431 531 
L 3431 0 
L 469 0 
L 469 531 
Q 828 903 1448 1529 
Q 2069 2156 2228 2338 
Q 2531 2678 2651 2914 
Q 2772 3150 2772 3378 
Q 2772 3750 2511 3984 
Q 2250 4219 1831 4219 
Q 1534 4219 1204 4116 
Q 875 4013 500 3803 
L 500 4441 
Q 881 4594 1212 4672 
Q 1544 4750 1819 4750 
Q 2544 4750 2975 4387 
Q 3406 4025 3406 3419 
Q 3406 3131 3298 2873 
Q 3191 2616 2906 2266 
Q 2828 2175 2409 1742 
Q 1991 1309 1228 531 
z
" transform="scale(0.015625)"/>
       </defs>
       <use xlink:href="#DejaVuSans-15"/>
       <use xlink:href="#DejaVuSans-13" transform="translate(63.625 0)"/>
      </g>
     </g>
    </g>
    <g id="xtick_3">
     <g id="line2d_3">
      <path d="M 245.938042 395.28 
L 245.938042 7.2 
" clip-path="url(#pfd9a79aebc)" style="fill: none; stroke: #cccccc; stroke-opacity: 0.3; stroke-linecap: round"/>
     </g>
     <g id="text_3">
      <!-- 40 -->
      <g style="fill: #262626" transform="translate(235.439917 417.316133) scale(0.165 -0.165)">
       <defs>
        <path id="DejaVuSans-17" d="M 2419 4116 
L 825 1625 
L 2419 1625 
L 2419 4116 
z
M 2253 4666 
L 3047 4666 
L 3047 1625 
L 3713 1625 
L 3713 1100 
L 3047 1100 
L 3047 0 
L 2419 0 
L 2419 1100 
L 313 1100 
L 313 1709 
L 2253 4666 
z
" transform="scale(0.015625)"/>
       </defs>
       <use xlink:href="#DejaVuSans-17"/>
       <use xlink:href="#DejaVuSans-13" transform="translate(63.625 0)"/>
      </g>
     </g>
    </g>
    <g id="xtick_4">
     <g id="line2d_4">
      <path d="M 333.625635 395.28 
L 333.625635 7.2 
" clip-path="url(#pfd9a79aebc)" style="fill: none; stroke: #cccccc; stroke-opacity: 0.3; stroke-linecap: round"/>
     </g>
     <g id="text_4">
      <!-- 60 -->
      <g style="fill: #262626" transform="translate(323.12751 417.316133) scale(0.165 -0.165)">
       <defs>
        <path id="DejaVuSans-19" d="M 2113 2584 
Q 1688 2584 1439 2293 
Q 1191 2003 1191 1497 
Q 1191 994 1439 701 
Q 1688 409 2113 409 
Q 2538 409 2786 701 
Q 3034 994 3034 1497 
Q 3034 2003 2786 2293 
Q 2538 2584 2113 2584 
z
M 3366 4563 
L 3366 3988 
Q 3128 4100 2886 4159 
Q 2644 4219 2406 4219 
Q 1781 4219 1451 3797 
Q 1122 3375 1075 2522 
Q 1259 2794 1537 2939 
Q 1816 3084 2150 3084 
Q 2853 3084 3261 2657 
Q 3669 2231 3669 1497 
Q 3669 778 3244 343 
Q 2819 -91 2113 -91 
Q 1303 -91 875 529 
Q 447 1150 447 2328 
Q 447 3434 972 4092 
Q 1497 4750 2381 4750 
Q 2619 4750 2861 4703 
Q 3103 4656 3366 4563 
z
" transform="scale(0.015625)"/>
       </defs>
       <use xlink:href="#DejaVuSans-19"/>
       <use xlink:href="#DejaVuSans-13" transform="translate(63.625 0)"/>
      </g>
     </g>
    </g>
    <g id="xtick_5">
     <g id="line2d_5">
      <path d="M 421.313228 395.28 
L 421.313228 7.2 
" clip-path="url(#pfd9a79aebc)" style="fill: none; stroke: #cccccc; stroke-opacity: 0.3; stroke-linecap: round"/>
     </g>
     <g id="text_5">
      <!-- 80 -->
      <g style="fill: #262626" transform="translate(410.815103 417.316133) scale(0.165 -0.165)">
       <defs>
        <path id="DejaVuSans-1b" d="M 2034 2216 
Q 1584 2216 1326 1975 
Q 1069 1734 1069 1313 
Q 1069 891 1326 650 
Q 1584 409 2034 409 
Q 2484 409 2743 651 
Q 3003 894 3003 1313 
Q 3003 1734 2745 1975 
Q 2488 2216 2034 2216 
z
M 1403 2484 
Q 997 2584 770 2862 
Q 544 3141 544 3541 
Q 544 4100 942 4425 
Q 1341 4750 2034 4750 
Q 2731 4750 3128 4425 
Q 3525 4100 3525 3541 
Q 3525 3141 3298 2862 
Q 3072 2584 2669 2484 
Q 3125 2378 3379 2068 
Q 3634 1759 3634 1313 
Q 3634 634 3220 271 
Q 2806 -91 2034 -91 
Q 1263 -91 848 271 
Q 434 634 434 1313 
Q 434 1759 690 2068 
Q 947 2378 1403 2484 
z
M 1172 3481 
Q 1172 3119 1398 2916 
Q 1625 2713 2034 2713 
Q 2441 2713 2670 2916 
Q 2900 3119 2900 3481 
Q 2900 3844 2670 4047 
Q 2441 4250 2034 4250 
Q 1625 4250 1398 4047 
Q 1172 3844 1172 3481 
z
" transform="scale(0.015625)"/>
       </defs>
       <use xlink:href="#DejaVuSans-1b"/>
       <use xlink:href="#DejaVuSans-13" transform="translate(63.625 0)"/>
      </g>
     </g>
    </g>
    <g id="xtick_6">
     <g id="line2d_6">
      <path d="M 509.000822 395.28 
L 509.000822 7.2 
" clip-path="url(#pfd9a79aebc)" style="fill: none; stroke: #cccccc; stroke-opacity: 0.3; stroke-linecap: round"/>
     </g>
     <g id="text_6">
      <!-- 100 -->
      <g style="fill: #262626" transform="translate(493.253634 417.316133) scale(0.165 -0.165)">
       <defs>
        <path id="DejaVuSans-14" d="M 794 531 
L 1825 531 
L 1825 4091 
L 703 3866 
L 703 4441 
L 1819 4666 
L 2450 4666 
L 2450 531 
L 3481 531 
L 3481 0 
L 794 0 
L 794 531 
z
" transform="scale(0.015625)"/>
       </defs>
       <use xlink:href="#DejaVuSans-14"/>
       <use xlink:href="#DejaVuSans-13" transform="translate(63.625 0)"/>
       <use xlink:href="#DejaVuSans-13" transform="translate(127.25 0)"/>
      </g>
     </g>
    </g>
    <g id="xtick_7">
     <g id="line2d_7">
      <path d="M 596.688415 395.28 
L 596.688415 7.2 
" clip-path="url(#pfd9a79aebc)" style="fill: none; stroke: #cccccc; stroke-opacity: 0.3; stroke-linecap: round"/>
     </g>
     <g id="text_7">
      <!-- 120 -->
      <g style="fill: #262626" transform="translate(580.941227 417.316133) scale(0.165 -0.165)">
       <use xlink:href="#DejaVuSans-14"/>
       <use xlink:href="#DejaVuSans-15" transform="translate(63.625 0)"/>
       <use xlink:href="#DejaVuSans-13" transform="translate(127.25 0)"/>
      </g>
     </g>
    </g>
    <g id="text_8">
     <!-- Time Overhead (%) -->
     <g style="fill: #262626" transform="translate(256.313437 435.917812) scale(0.14 -0.14)">
      <defs>
       <path id="DejaVuSans-37" d="M -19 4666 
L 3928 4666 
L 3928 4134 
L 2272 4134 
L 2272 0 
L 1638 0 
L 1638 4134 
L -19 4134 
L -19 4666 
z
" transform="scale(0.015625)"/>
       <path id="DejaVuSans-4c" d="M 603 3500 
L 1178 3500 
L 1178 0 
L 603 0 
L 603 3500 
z
M 603 4863 
L 1178 4863 
L 1178 4134 
L 603 4134 
L 603 4863 
z
" transform="scale(0.015625)"/>
       <path id="DejaVuSans-50" d="M 3328 2828 
Q 3544 3216 3844 3400 
Q 4144 3584 4550 3584 
Q 5097 3584 5394 3201 
Q 5691 2819 5691 2113 
L 5691 0 
L 5113 0 
L 5113 2094 
Q 5113 2597 4934 2840 
Q 4756 3084 4391 3084 
Q 3944 3084 3684 2787 
Q 3425 2491 3425 1978 
L 3425 0 
L 2847 0 
L 2847 2094 
Q 2847 2600 2669 2842 
Q 2491 3084 2119 3084 
Q 1678 3084 1418 2786 
Q 1159 2488 1159 1978 
L 1159 0 
L 581 0 
L 581 3500 
L 1159 3500 
L 1159 2956 
Q 1356 3278 1631 3431 
Q 1906 3584 2284 3584 
Q 2666 3584 2933 3390 
Q 3200 3197 3328 2828 
z
" transform="scale(0.015625)"/>
       <path id="DejaVuSans-48" d="M 3597 1894 
L 3597 1613 
L 953 1613 
Q 991 1019 1311 708 
Q 1631 397 2203 397 
Q 2534 397 2845 478 
Q 3156 559 3463 722 
L 3463 178 
Q 3153 47 2828 -22 
Q 2503 -91 2169 -91 
Q 1331 -91 842 396 
Q 353 884 353 1716 
Q 353 2575 817 3079 
Q 1281 3584 2069 3584 
Q 2775 3584 3186 3129 
Q 3597 2675 3597 1894 
z
M 3022 2063 
Q 3016 2534 2758 2815 
Q 2500 3097 2075 3097 
Q 1594 3097 1305 2825 
Q 1016 2553 972 2059 
L 3022 2063 
z
" transform="scale(0.015625)"/>
       <path id="DejaVuSans-3" transform="scale(0.015625)"/>
       <path id="DejaVuSans-32" d="M 2522 4238 
Q 1834 4238 1429 3725 
Q 1025 3213 1025 2328 
Q 1025 1447 1429 934 
Q 1834 422 2522 422 
Q 3209 422 3611 934 
Q 4013 1447 4013 2328 
Q 4013 3213 3611 3725 
Q 3209 4238 2522 4238 
z
M 2522 4750 
Q 3503 4750 4090 4092 
Q 4678 3434 4678 2328 
Q 4678 1225 4090 567 
Q 3503 -91 2522 -91 
Q 1538 -91 948 565 
Q 359 1222 359 2328 
Q 359 3434 948 4092 
Q 1538 4750 2522 4750 
z
" transform="scale(0.015625)"/>
       <path id="DejaVuSans-59" d="M 191 3500 
L 800 3500 
L 1894 563 
L 2988 3500 
L 3597 3500 
L 2284 0 
L 1503 0 
L 191 3500 
z
" transform="scale(0.015625)"/>
       <path id="DejaVuSans-55" d="M 2631 2963 
Q 2534 3019 2420 3045 
Q 2306 3072 2169 3072 
Q 1681 3072 1420 2755 
Q 1159 2438 1159 1844 
L 1159 0 
L 581 0 
L 581 3500 
L 1159 3500 
L 1159 2956 
Q 1341 3275 1631 3429 
Q 1922 3584 2338 3584 
Q 2397 3584 2469 3576 
Q 2541 3569 2628 3553 
L 2631 2963 
z
" transform="scale(0.015625)"/>
       <path id="DejaVuSans-4b" d="M 3513 2113 
L 3513 0 
L 2938 0 
L 2938 2094 
Q 2938 2591 2744 2837 
Q 2550 3084 2163 3084 
Q 1697 3084 1428 2787 
Q 1159 2491 1159 1978 
L 1159 0 
L 581 0 
L 581 4863 
L 1159 4863 
L 1159 2956 
Q 1366 3272 1645 3428 
Q 1925 3584 2291 3584 
Q 2894 3584 3203 3211 
Q 3513 2838 3513 2113 
z
" transform="scale(0.015625)"/>
       <path id="DejaVuSans-44" d="M 2194 1759 
Q 1497 1759 1228 1600 
Q 959 1441 959 1056 
Q 959 750 1161 570 
Q 1363 391 1709 391 
Q 2188 391 2477 730 
Q 2766 1069 2766 1631 
L 2766 1759 
L 2194 1759 
z
M 3341 1997 
L 3341 0 
L 2766 0 
L 2766 531 
Q 2569 213 2275 61 
Q 1981 -91 1556 -91 
Q 1019 -91 701 211 
Q 384 513 384 1019 
Q 384 1609 779 1909 
Q 1175 2209 1959 2209 
L 2766 2209 
L 2766 2266 
Q 2766 2663 2505 2880 
Q 2244 3097 1772 3097 
Q 1472 3097 1187 3025 
Q 903 2953 641 2809 
L 641 3341 
Q 956 3463 1253 3523 
Q 1550 3584 1831 3584 
Q 2591 3584 2966 3190 
Q 3341 2797 3341 1997 
z
" transform="scale(0.015625)"/>
       <path id="DejaVuSans-47" d="M 2906 2969 
L 2906 4863 
L 3481 4863 
L 3481 0 
L 2906 0 
L 2906 525 
Q 2725 213 2448 61 
Q 2172 -91 1784 -91 
Q 1150 -91 751 415 
Q 353 922 353 1747 
Q 353 2572 751 3078 
Q 1150 3584 1784 3584 
Q 2172 3584 2448 3432 
Q 2725 3281 2906 2969 
z
M 947 1747 
Q 947 1113 1208 752 
Q 1469 391 1925 391 
Q 2381 391 2643 752 
Q 2906 1113 2906 1747 
Q 2906 2381 2643 2742 
Q 2381 3103 1925 3103 
Q 1469 3103 1208 2742 
Q 947 2381 947 1747 
z
" transform="scale(0.015625)"/>
       <path id="DejaVuSans-b" d="M 1984 4856 
Q 1566 4138 1362 3434 
Q 1159 2731 1159 2009 
Q 1159 1288 1364 580 
Q 1569 -128 1984 -844 
L 1484 -844 
Q 1016 -109 783 600 
Q 550 1309 550 2009 
Q 550 2706 781 3412 
Q 1013 4119 1484 4856 
L 1984 4856 
z
" transform="scale(0.015625)"/>
       <path id="DejaVuSans-8" d="M 4653 2053 
Q 4381 2053 4226 1822 
Q 4072 1591 4072 1178 
Q 4072 772 4226 539 
Q 4381 306 4653 306 
Q 4919 306 5073 539 
Q 5228 772 5228 1178 
Q 5228 1588 5073 1820 
Q 4919 2053 4653 2053 
z
M 4653 2450 
Q 5147 2450 5437 2106 
Q 5728 1763 5728 1178 
Q 5728 594 5436 251 
Q 5144 -91 4653 -91 
Q 4153 -91 3862 251 
Q 3572 594 3572 1178 
Q 3572 1766 3864 2108 
Q 4156 2450 4653 2450 
z
M 1428 4353 
Q 1159 4353 1004 4120 
Q 850 3888 850 3481 
Q 850 3069 1003 2837 
Q 1156 2606 1428 2606 
Q 1700 2606 1854 2837 
Q 2009 3069 2009 3481 
Q 2009 3884 1853 4118 
Q 1697 4353 1428 4353 
z
M 4250 4750 
L 4750 4750 
L 1831 -91 
L 1331 -91 
L 4250 4750 
z
M 1428 4750 
Q 1922 4750 2215 4408 
Q 2509 4066 2509 3481 
Q 2509 2891 2217 2550 
Q 1925 2209 1428 2209 
Q 931 2209 642 2551 
Q 353 2894 353 3481 
Q 353 4063 643 4406 
Q 934 4750 1428 4750 
z
" transform="scale(0.015625)"/>
       <path id="DejaVuSans-c" d="M 513 4856 
L 1013 4856 
Q 1481 4119 1714 3412 
Q 1947 2706 1947 2009 
Q 1947 1309 1714 600 
Q 1481 -109 1013 -844 
L 513 -844 
Q 928 -128 1133 580 
Q 1338 1288 1338 2009 
Q 1338 2731 1133 3434 
Q 928 4138 513 4856 
z
" transform="scale(0.015625)"/>
      </defs>
      <use xlink:href="#DejaVuSans-37"/>
      <use xlink:href="#DejaVuSans-4c" transform="translate(58 0)"/>
      <use xlink:href="#DejaVuSans-50" transform="translate(85.78125 0)"/>
      <use xlink:href="#DejaVuSans-48" transform="translate(183.1875 0)"/>
      <use xlink:href="#DejaVuSans-3" transform="translate(244.71875 0)"/>
      <use xlink:href="#DejaVuSans-32" transform="translate(276.5 0)"/>
      <use xlink:href="#DejaVuSans-59" transform="translate(355.21875 0)"/>
      <use xlink:href="#DejaVuSans-48" transform="translate(414.40625 0)"/>
      <use xlink:href="#DejaVuSans-55" transform="translate(475.9375 0)"/>
      <use xlink:href="#DejaVuSans-4b" transform="translate(515.296875 0)"/>
      <use xlink:href="#DejaVuSans-48" transform="translate(578.671875 0)"/>
      <use xlink:href="#DejaVuSans-44" transform="translate(640.203125 0)"/>
      <use xlink:href="#DejaVuSans-47" transform="translate(701.484375 0)"/>
      <use xlink:href="#DejaVuSans-3" transform="translate(764.96875 0)"/>
      <use xlink:href="#DejaVuSans-b" transform="translate(796.75 0)"/>
      <use xlink:href="#DejaVuSans-8" transform="translate(835.765625 0)"/>
      <use xlink:href="#DejaVuSans-c" transform="translate(930.78125 0)"/>
     </g>
    </g>
   </g>
   <g id="matplotlib.axis_2">
    <g id="ytick_1">
     <g id="line2d_8">
      <path d="M 45.199219 377.64 
L 603.199219 377.64 
" clip-path="url(#pfd9a79aebc)" style="fill: none; stroke: #cccccc; stroke-opacity: 0.3; stroke-linecap: round"/>
     </g>
     <g id="text_9">
      <!-- 0 -->
      <g style="fill: #262626" transform="translate(25.201094 383.908066) scale(0.165 -0.165)">
       <use xlink:href="#DejaVuSans-13"/>
      </g>
     </g>
    </g>
    <g id="ytick_2">
     <g id="line2d_9">
      <path d="M 45.199219 303.131024 
L 603.199219 303.131024 
" clip-path="url(#pfd9a79aebc)" style="fill: none; stroke: #cccccc; stroke-opacity: 0.3; stroke-linecap: round"/>
     </g>
     <g id="text_10">
      <!-- 2 -->
      <g style="fill: #262626" transform="translate(25.201094 309.399091) scale(0.165 -0.165)">
       <use xlink:href="#DejaVuSans-15"/>
      </g>
     </g>
    </g>
    <g id="ytick_3">
     <g id="line2d_10">
      <path d="M 45.199219 228.622049 
L 603.199219 228.622049 
" clip-path="url(#pfd9a79aebc)" style="fill: none; stroke: #cccccc; stroke-opacity: 0.3; stroke-linecap: round"/>
     </g>
     <g id="text_11">
      <!-- 4 -->
      <g style="fill: #262626" transform="translate(25.201094 234.890115) scale(0.165 -0.165)">
       <use xlink:href="#DejaVuSans-17"/>
      </g>
     </g>
    </g>
    <g id="ytick_4">
     <g id="line2d_11">
      <path d="M 45.199219 154.113073 
L 603.199219 154.113073 
" clip-path="url(#pfd9a79aebc)" style="fill: none; stroke: #cccccc; stroke-opacity: 0.3; stroke-linecap: round"/>
     </g>
     <g id="text_12">
      <!-- 6 -->
      <g style="fill: #262626" transform="translate(25.201094 160.381139) scale(0.165 -0.165)">
       <use xlink:href="#DejaVuSans-19"/>
      </g>
     </g>
    </g>
    <g id="ytick_5">
     <g id="line2d_12">
      <path d="M 45.199219 79.604097 
L 603.199219 79.604097 
" clip-path="url(#pfd9a79aebc)" style="fill: none; stroke: #cccccc; stroke-opacity: 0.3; stroke-linecap: round"/>
     </g>
     <g id="text_13">
      <!-- 8 -->
      <g style="fill: #262626" transform="translate(25.201094 85.872164) scale(0.165 -0.165)">
       <use xlink:href="#DejaVuSans-1b"/>
      </g>
     </g>
    </g>
    <g id="text_14">
     <!-- CO₂ Savings (%) -->
     <g style="fill: #262626" transform="translate(17.837812 258.355625) rotate(-90) scale(0.14 -0.14)">
      <defs>
       <path id="DejaVuSans-26" d="M 4122 4306 
L 4122 3641 
Q 3803 3938 3442 4084 
Q 3081 4231 2675 4231 
Q 1875 4231 1450 3742 
Q 1025 3253 1025 2328 
Q 1025 1406 1450 917 
Q 1875 428 2675 428 
Q 3081 428 3442 575 
Q 3803 722 4122 1019 
L 4122 359 
Q 3791 134 3420 21 
Q 3050 -91 2638 -91 
Q 1578 -91 968 557 
Q 359 1206 359 2328 
Q 359 3453 968 4101 
Q 1578 4750 2638 4750 
Q 3056 4750 3426 4639 
Q 3797 4528 4122 4306 
z
" transform="scale(0.015625)"/>
       <path id="DejaVuSans-b5d" d="M 838 356 
L 2163 356 
L 2163 0 
L 294 0 
L 294 343 
Q 400 440 597 615 
Q 1672 1568 1672 1862 
Q 1672 2068 1509 2194 
Q 1347 2321 1081 2321 
Q 919 2321 728 2266 
Q 538 2212 313 2103 
L 313 2487 
Q 553 2575 761 2618 
Q 969 2662 1147 2662 
Q 1600 2662 1872 2456 
Q 2144 2250 2144 1912 
Q 2144 1478 1109 590 
Q 934 440 838 356 
z
" transform="scale(0.015625)"/>
       <path id="DejaVuSans-36" d="M 3425 4513 
L 3425 3897 
Q 3066 4069 2747 4153 
Q 2428 4238 2131 4238 
Q 1616 4238 1336 4038 
Q 1056 3838 1056 3469 
Q 1056 3159 1242 3001 
Q 1428 2844 1947 2747 
L 2328 2669 
Q 3034 2534 3370 2195 
Q 3706 1856 3706 1288 
Q 3706 609 3251 259 
Q 2797 -91 1919 -91 
Q 1588 -91 1214 -16 
Q 841 59 441 206 
L 441 856 
Q 825 641 1194 531 
Q 1563 422 1919 422 
Q 2459 422 2753 634 
Q 3047 847 3047 1241 
Q 3047 1584 2836 1778 
Q 2625 1972 2144 2069 
L 1759 2144 
Q 1053 2284 737 2584 
Q 422 2884 422 3419 
Q 422 4038 858 4394 
Q 1294 4750 2059 4750 
Q 2388 4750 2728 4690 
Q 3069 4631 3425 4513 
z
" transform="scale(0.015625)"/>
       <path id="DejaVuSans-51" d="M 3513 2113 
L 3513 0 
L 2938 0 
L 2938 2094 
Q 2938 2591 2744 2837 
Q 2550 3084 2163 3084 
Q 1697 3084 1428 2787 
Q 1159 2491 1159 1978 
L 1159 0 
L 581 0 
L 581 3500 
L 1159 3500 
L 1159 2956 
Q 1366 3272 1645 3428 
Q 1925 3584 2291 3584 
Q 2894 3584 3203 3211 
Q 3513 2838 3513 2113 
z
" transform="scale(0.015625)"/>
       <path id="DejaVuSans-4a" d="M 2906 1791 
Q 2906 2416 2648 2759 
Q 2391 3103 1925 3103 
Q 1463 3103 1205 2759 
Q 947 2416 947 1791 
Q 947 1169 1205 825 
Q 1463 481 1925 481 
Q 2391 481 2648 825 
Q 2906 1169 2906 1791 
z
M 3481 434 
Q 3481 -459 3084 -895 
Q 2688 -1331 1869 -1331 
Q 1566 -1331 1297 -1286 
Q 1028 -1241 775 -1147 
L 775 -588 
Q 1028 -725 1275 -790 
Q 1522 -856 1778 -856 
Q 2344 -856 2625 -561 
Q 2906 -266 2906 331 
L 2906 616 
Q 2728 306 2450 153 
Q 2172 0 1784 0 
Q 1141 0 747 490 
Q 353 981 353 1791 
Q 353 2603 747 3093 
Q 1141 3584 1784 3584 
Q 2172 3584 2450 3431 
Q 2728 3278 2906 2969 
L 2906 3500 
L 3481 3500 
L 3481 434 
z
" transform="scale(0.015625)"/>
       <path id="DejaVuSans-56" d="M 2834 3397 
L 2834 2853 
Q 2591 2978 2328 3040 
Q 2066 3103 1784 3103 
Q 1356 3103 1142 2972 
Q 928 2841 928 2578 
Q 928 2378 1081 2264 
Q 1234 2150 1697 2047 
L 1894 2003 
Q 2506 1872 2764 1633 
Q 3022 1394 3022 966 
Q 3022 478 2636 193 
Q 2250 -91 1575 -91 
Q 1294 -91 989 -36 
Q 684 19 347 128 
L 347 722 
Q 666 556 975 473 
Q 1284 391 1588 391 
Q 1994 391 2212 530 
Q 2431 669 2431 922 
Q 2431 1156 2273 1281 
Q 2116 1406 1581 1522 
L 1381 1569 
Q 847 1681 609 1914 
Q 372 2147 372 2553 
Q 372 3047 722 3315 
Q 1072 3584 1716 3584 
Q 2034 3584 2315 3537 
Q 2597 3491 2834 3397 
z
" transform="scale(0.015625)"/>
      </defs>
      <use xlink:href="#DejaVuSans-26"/>
      <use xlink:href="#DejaVuSans-32" transform="translate(69.828125 0)"/>
      <use xlink:href="#DejaVuSans-b5d" transform="translate(148.546875 0)"/>
      <use xlink:href="#DejaVuSans-3" transform="translate(188.640625 0)"/>
      <use xlink:href="#DejaVuSans-36" transform="translate(220.421875 0)"/>
      <use xlink:href="#DejaVuSans-44" transform="translate(283.90625 0)"/>
      <use xlink:href="#DejaVuSans-59" transform="translate(345.1875 0)"/>
      <use xlink:href="#DejaVuSans-4c" transform="translate(404.375 0)"/>
      <use xlink:href="#DejaVuSans-51" transform="translate(432.15625 0)"/>
      <use xlink:href="#DejaVuSans-4a" transform="translate(495.53125 0)"/>
      <use xlink:href="#DejaVuSans-56" transform="translate(559.015625 0)"/>
      <use xlink:href="#DejaVuSans-3" transform="translate(611.109375 0)"/>
      <use xlink:href="#DejaVuSans-b" transform="translate(642.890625 0)"/>
      <use xlink:href="#DejaVuSans-8" transform="translate(681.90625 0)"/>
      <use xlink:href="#DejaVuSans-c" transform="translate(776.921875 0)"/>
     </g>
    </g>
   </g>
   <g id="line2d_13">
    <path d="M 70.562855 377.64 
L 71.439731 376.89491 
L 71.878169 376.14982 
L 72.755045 374.287096 
L 74.070359 373.542006 
L 74.947235 371.306737 
L 77.577863 368.698923 
L 81.085366 359.012756 
L 85.031308 357.895121 
L 93.361629 353.797128 
L 93.800067 351.934403 
L 93.800067 337.777698 
L 110.899148 336.287518 
L 110.899148 328.836621 
L 113.968214 325.111172 
L 115.721966 323.993537 
L 121.860097 318.405364 
L 123.613849 265.503992 
L 137.205426 245.386568 
L 157.81201 217.445702 
L 168.334522 214.092798 
L 174.911091 199.563548 
L 180.172347 197.328279 
L 191.571734 189.504836 
L 200.340493 185.034298 
L 208.232377 183.544118 
L 217.439574 182.426484 
L 222.700829 169.014868 
L 226.646771 168.642323 
L 228.400523 167.897233 
L 236.730844 164.171785 
L 242.868976 161.56397 
L 255.145239 138.466188 
L 266.983064 129.525111 
L 275.313385 117.97622 
L 291.097152 117.603675 
L 299.427474 106.054784 
L 307.319357 101.95679 
L 312.580613 97.486251 
L 317.40343 97.113706 
L 318.280306 96.368617 
L 323.541562 93.388258 
L 326.610628 92.270623 
L 331.433445 91.152988 
L 333.625635 89.662809 
L 337.133139 88.917719 
L 341.517518 88.172629 
L 341.955956 85.564815 
L 343.27127 83.329546 
L 347.217212 81.466822 
L 352.478468 80.721732 
L 352.916906 78.486463 
L 358.616599 75.878648 
L 359.931913 73.270834 
L 413.859783 72.525744 
L 416.051973 69.91793 
L 424.820732 69.545385 
L 431.397302 68.427751 
L 433.151053 65.819937 
L 437.973871 63.584667 
L 440.166061 61.349398 
L 443.673565 60.604308 
L 447.181068 58.369039 
L 448.057944 56.87886 
L 455.072952 56.13377 
L 456.388266 53.153411 
L 456.388266 52.780866 
L 456.826704 52.408321 
L 458.580455 49.427962 
L 459.018893 48.682872 
L 465.595463 44.957423 
L 466.910777 44.584879 
L 472.61047 43.467244 
L 473.487346 39.36925 
L 480.502354 37.506526 
L 484.009858 37.133981 
L 488.394237 32.663442 
L 492.340179 32.290898 
L 505.493318 29.310539 
L 512.946763 28.937994 
L 520.838647 28.192904 
L 568.189947 27.820359 
L 568.628385 27.447814 
L 569.505261 26.33018 
L 570.382137 25.58509 
L 576.081831 25.212545 
L 576.520268 24.84 
" clip-path="url(#pfd9a79aebc)" style="fill: none; stroke: #2563eb; stroke-width: 2; stroke-linecap: round"/>
    <defs>
     <path id="md74418252a" d="M 0 2 
C 0.530406 2 1.03916 1.789267 1.414214 1.414214 
C 1.789267 1.03916 2 0.530406 2 0 
C 2 -0.530406 1.789267 -1.03916 1.414214 -1.414214 
C 1.03916 -1.789267 0.530406 -2 0 -2 
C -0.530406 -2 -1.03916 -1.789267 -1.414214 -1.414214 
C -1.789267 -1.03916 -2 -0.530406 -2 0 
C -2 0.530406 -1.789267 1.03916 -1.414214 1.414214 
C -1.03916 1.789267 -0.530406 2 0 2 
z
" style="stroke: #2563eb"/>
    </defs>
    <g clip-path="url(#pfd9a79aebc)">
     <use xlink:href="#md74418252a" x="70.562855" y="377.64" style="fill: #2563eb; stroke: #2563eb"/>
     <use xlink:href="#md74418252a" x="71.439731" y="376.89491" style="fill: #2563eb; stroke: #2563eb"/>
     <use xlink:href="#md74418252a" x="71.878169" y="376.14982" style="fill: #2563eb; stroke: #2563eb"/>
     <use xlink:href="#md74418252a" x="72.755045" y="374.287096" style="fill: #2563eb; stroke: #2563eb"/>
     <use xlink:href="#md74418252a" x="74.070359" y="373.542006" style="fill: #2563eb; stroke: #2563eb"/>
     <use xlink:href="#md74418252a" x="74.947235" y="371.306737" style="fill: #2563eb; stroke: #2563eb"/>
     <use xlink:href="#md74418252a" x="77.577863" y="368.698923" style="fill: #2563eb; stroke: #2563eb"/>
     <use xlink:href="#md74418252a" x="81.085366" y="359.012756" style="fill: #2563eb; stroke: #2563eb"/>
     <use xlink:href="#md74418252a" x="85.031308" y="357.895121" style="fill: #2563eb; stroke: #2563eb"/>
     <use xlink:href="#md74418252a" x="93.361629" y="353.797128" style="fill: #2563eb; stroke: #2563eb"/>
     <use xlink:href="#md74418252a" x="93.800067" y="351.934403" style="fill: #2563eb; stroke: #2563eb"/>
     <use xlink:href="#md74418252a" x="93.800067" y="337.777698" style="fill: #2563eb; stroke: #2563eb"/>
     <use xlink:href="#md74418252a" x="110.899148" y="336.287518" style="fill: #2563eb; stroke: #2563eb"/>
     <use xlink:href="#md74418252a" x="110.899148" y="328.836621" style="fill: #2563eb; stroke: #2563eb"/>
     <use xlink:href="#md74418252a" x="113.968214" y="325.111172" style="fill: #2563eb; stroke: #2563eb"/>
     <use xlink:href="#md74418252a" x="115.721966" y="323.993537" style="fill: #2563eb; stroke: #2563eb"/>
     <use xlink:href="#md74418252a" x="121.860097" y="318.405364" style="fill: #2563eb; stroke: #2563eb"/>
     <use xlink:href="#md74418252a" x="123.613849" y="265.503992" style="fill: #2563eb; stroke: #2563eb"/>
     <use xlink:href="#md74418252a" x="137.205426" y="245.386568" style="fill: #2563eb; stroke: #2563eb"/>
     <use xlink:href="#md74418252a" x="157.81201" y="217.445702" style="fill: #2563eb; stroke: #2563eb"/>
     <use xlink:href="#md74418252a" x="168.334522" y="214.092798" style="fill: #2563eb; stroke: #2563eb"/>
     <use xlink:href="#md74418252a" x="174.911091" y="199.563548" style="fill: #2563eb; stroke: #2563eb"/>
     <use xlink:href="#md74418252a" x="180.172347" y="197.328279" style="fill: #2563eb; stroke: #2563eb"/>
     <use xlink:href="#md74418252a" x="191.571734" y="189.504836" style="fill: #2563eb; stroke: #2563eb"/>
     <use xlink:href="#md74418252a" x="200.340493" y="185.034298" style="fill: #2563eb; stroke: #2563eb"/>
     <use xlink:href="#md74418252a" x="208.232377" y="183.544118" style="fill: #2563eb; stroke: #2563eb"/>
     <use xlink:href="#md74418252a" x="217.439574" y="182.426484" style="fill: #2563eb; stroke: #2563eb"/>
     <use xlink:href="#md74418252a" x="222.700829" y="169.014868" style="fill: #2563eb; stroke: #2563eb"/>
     <use xlink:href="#md74418252a" x="226.646771" y="168.642323" style="fill: #2563eb; stroke: #2563eb"/>
     <use xlink:href="#md74418252a" x="228.400523" y="167.897233" style="fill: #2563eb; stroke: #2563eb"/>
     <use xlink:href="#md74418252a" x="236.730844" y="164.171785" style="fill: #2563eb; stroke: #2563eb"/>
     <use xlink:href="#md74418252a" x="242.868976" y="161.56397" style="fill: #2563eb; stroke: #2563eb"/>
     <use xlink:href="#md74418252a" x="255.145239" y="138.466188" style="fill: #2563eb; stroke: #2563eb"/>
     <use xlink:href="#md74418252a" x="266.983064" y="129.525111" style="fill: #2563eb; stroke: #2563eb"/>
     <use xlink:href="#md74418252a" x="275.313385" y="117.97622" style="fill: #2563eb; stroke: #2563eb"/>
     <use xlink:href="#md74418252a" x="291.097152" y="117.603675" style="fill: #2563eb; stroke: #2563eb"/>
     <use xlink:href="#md74418252a" x="299.427474" y="106.054784" style="fill: #2563eb; stroke: #2563eb"/>
     <use xlink:href="#md74418252a" x="307.319357" y="101.95679" style="fill: #2563eb; stroke: #2563eb"/>
     <use xlink:href="#md74418252a" x="312.580613" y="97.486251" style="fill: #2563eb; stroke: #2563eb"/>
     <use xlink:href="#md74418252a" x="317.40343" y="97.113706" style="fill: #2563eb; stroke: #2563eb"/>
     <use xlink:href="#md74418252a" x="318.280306" y="96.368617" style="fill: #2563eb; stroke: #2563eb"/>
     <use xlink:href="#md74418252a" x="323.541562" y="93.388258" style="fill: #2563eb; stroke: #2563eb"/>
     <use xlink:href="#md74418252a" x="326.610628" y="92.270623" style="fill: #2563eb; stroke: #2563eb"/>
     <use xlink:href="#md74418252a" x="331.433445" y="91.152988" style="fill: #2563eb; stroke: #2563eb"/>
     <use xlink:href="#md74418252a" x="333.625635" y="89.662809" style="fill: #2563eb; stroke: #2563eb"/>
     <use xlink:href="#md74418252a" x="337.133139" y="88.917719" style="fill: #2563eb; stroke: #2563eb"/>
     <use xlink:href="#md74418252a" x="341.517518" y="88.172629" style="fill: #2563eb; stroke: #2563eb"/>
     <use xlink:href="#md74418252a" x="341.955956" y="85.564815" style="fill: #2563eb; stroke: #2563eb"/>
     <use xlink:href="#md74418252a" x="343.27127" y="83.329546" style="fill: #2563eb; stroke: #2563eb"/>
     <use xlink:href="#md74418252a" x="347.217212" y="81.466822" style="fill: #2563eb; stroke: #2563eb"/>
     <use xlink:href="#md74418252a" x="352.478468" y="80.721732" style="fill: #2563eb; stroke: #2563eb"/>
     <use xlink:href="#md74418252a" x="352.916906" y="78.486463" style="fill: #2563eb; stroke: #2563eb"/>
     <use xlink:href="#md74418252a" x="358.616599" y="75.878648" style="fill: #2563eb; stroke: #2563eb"/>
     <use xlink:href="#md74418252a" x="359.931913" y="73.270834" style="fill: #2563eb; stroke: #2563eb"/>
     <use xlink:href="#md74418252a" x="413.859783" y="72.525744" style="fill: #2563eb; stroke: #2563eb"/>
     <use xlink:href="#md74418252a" x="416.051973" y="69.91793" style="fill: #2563eb; stroke: #2563eb"/>
     <use xlink:href="#md74418252a" x="424.820732" y="69.545385" style="fill: #2563eb; stroke: #2563eb"/>
     <use xlink:href="#md74418252a" x="431.397302" y="68.427751" style="fill: #2563eb; stroke: #2563eb"/>
     <use xlink:href="#md74418252a" x="433.151053" y="65.819937" style="fill: #2563eb; stroke: #2563eb"/>
     <use xlink:href="#md74418252a" x="437.973871" y="63.584667" style="fill: #2563eb; stroke: #2563eb"/>
     <use xlink:href="#md74418252a" x="440.166061" y="61.349398" style="fill: #2563eb; stroke: #2563eb"/>
     <use xlink:href="#md74418252a" x="443.673565" y="60.604308" style="fill: #2563eb; stroke: #2563eb"/>
     <use xlink:href="#md74418252a" x="447.181068" y="58.369039" style="fill: #2563eb; stroke: #2563eb"/>
     <use xlink:href="#md74418252a" x="448.057944" y="56.87886" style="fill: #2563eb; stroke: #2563eb"/>
     <use xlink:href="#md74418252a" x="455.072952" y="56.13377" style="fill: #2563eb; stroke: #2563eb"/>
     <use xlink:href="#md74418252a" x="456.388266" y="53.153411" style="fill: #2563eb; stroke: #2563eb"/>
     <use xlink:href="#md74418252a" x="456.388266" y="52.780866" style="fill: #2563eb; stroke: #2563eb"/>
     <use xlink:href="#md74418252a" x="456.826704" y="52.408321" style="fill: #2563eb; stroke: #2563eb"/>
     <use xlink:href="#md74418252a" x="458.580455" y="49.427962" style="fill: #2563eb; stroke: #2563eb"/>
     <use xlink:href="#md74418252a" x="459.018893" y="48.682872" style="fill: #2563eb; stroke: #2563eb"/>
     <use xlink:href="#md74418252a" x="465.595463" y="44.957423" style="fill: #2563eb; stroke: #2563eb"/>
     <use xlink:href="#md74418252a" x="466.910777" y="44.584879" style="fill: #2563eb; stroke: #2563eb"/>
     <use xlink:href="#md74418252a" x="472.61047" y="43.467244" style="fill: #2563eb; stroke: #2563eb"/>
     <use xlink:href="#md74418252a" x="473.487346" y="39.36925" style="fill: #2563eb; stroke: #2563eb"/>
     <use xlink:href="#md74418252a" x="480.502354" y="37.506526" style="fill: #2563eb; stroke: #2563eb"/>
     <use xlink:href="#md74418252a" x="484.009858" y="37.133981" style="fill: #2563eb; stroke: #2563eb"/>
     <use xlink:href="#md74418252a" x="488.394237" y="32.663442" style="fill: #2563eb; stroke: #2563eb"/>
     <use xlink:href="#md74418252a" x="492.340179" y="32.290898" style="fill: #2563eb; stroke: #2563eb"/>
     <use xlink:href="#md74418252a" x="505.493318" y="29.310539" style="fill: #2563eb; stroke: #2563eb"/>
     <use xlink:href="#md74418252a" x="512.946763" y="28.937994" style="fill: #2563eb; stroke: #2563eb"/>
     <use xlink:href="#md74418252a" x="520.838647" y="28.192904" style="fill: #2563eb; stroke: #2563eb"/>
     <use xlink:href="#md74418252a" x="568.189947" y="27.820359" style="fill: #2563eb; stroke: #2563eb"/>
     <use xlink:href="#md74418252a" x="568.628385" y="27.447814" style="fill: #2563eb; stroke: #2563eb"/>
     <use xlink:href="#md74418252a" x="569.505261" y="26.33018" style="fill: #2563eb; stroke: #2563eb"/>
     <use xlink:href="#md74418252a" x="570.382137" y="25.58509" style="fill: #2563eb; stroke: #2563eb"/>
     <use xlink:href="#md74418252a" x="576.081831" y="25.212545" style="fill: #2563eb; stroke: #2563eb"/>
     <use xlink:href="#md74418252a" x="576.520268" y="24.84" style="fill: #2563eb; stroke: #2563eb"/>
    </g>
   </g>
   <g id="line2d_14">
    <path d="M 70.562855 377.64 
L 71.439731 376.522365 
L 71.439731 375.777276 
L 71.439731 375.032186 
L 71.878169 374.287096 
L 72.316607 373.542006 
L 74.070359 371.679282 
L 75.824111 370.934192 
L 78.016301 363.483295 
L 78.454739 359.757846 
L 80.646928 359.385301 
L 81.085366 359.012756 
L 81.085366 353.797128 
L 84.154432 353.052038 
L 84.154432 351.189314 
L 87.223498 345.228596 
L 89.854126 344.483506 
L 89.854126 342.620781 
L 92.046315 339.640422 
L 93.361629 337.777698 
L 94.238505 337.405153 
L 95.992257 335.169884 
L 96.430695 334.797339 
L 96.430695 334.424794 
L 96.430695 334.052249 
L 99.061323 330.699345 
L 99.499761 329.581711 
L 102.568827 327.346441 
L 102.568827 326.973897 
L 103.445703 325.111172 
L 105.637892 324.738627 
L 106.953206 322.875903 
L 106.953206 322.130813 
L 107.391644 315.79755 
L 110.46071 312.817191 
L 111.337586 312.444646 
L 114.406652 311.699556 
L 115.721966 309.091742 
L 115.721966 307.974108 
L 118.352593 306.856473 
L 118.352593 304.993749 
L 119.229469 303.876114 
L 120.106345 302.385935 
L 120.544783 302.01339 
L 121.421659 300.895755 
L 122.298535 298.660486 
L 124.490725 297.542851 
L 125.367601 296.797761 
L 125.367601 296.425216 
L 127.559791 296.052672 
L 127.559791 294.189947 
L 128.875105 293.444857 
L 128.875105 291.582133 
L 130.628857 290.464498 
L 131.067294 289.719409 
L 131.067294 288.974319 
L 133.697922 287.484139 
L 135.013236 285.99396 
L 135.890112 285.24887 
L 136.32855 284.876325 
L 137.205426 284.50378 
L 137.643864 283.758691 
L 137.643864 283.386146 
L 139.836054 282.641056 
L 141.151368 282.268511 
L 141.151368 281.895966 
L 142.90512 280.405787 
L 142.90512 280.033242 
L 144.220433 278.915607 
L 144.658871 278.170517 
L 145.535747 277.052883 
L 146.851061 276.680338 
L 146.851061 276.307793 
L 147.727937 275.190158 
L 148.166375 274.817614 
L 149.043251 272.954889 
L 149.920127 272.582344 
L 150.358565 271.837254 
L 150.358565 271.46471 
L 151.673879 271.092165 
L 152.112317 270.347075 
L 153.427631 269.22944 
L 154.304507 268.856895 
L 154.742945 268.484351 
L 154.742945 268.111806 
L 155.181383 267.739261 
L 155.619821 266.994171 
L 156.935135 266.249081 
L 156.935135 265.876536 
L 157.81201 265.503992 
L 158.250448 265.131447 
L 160.0042 264.758902 
L 161.757952 264.386357 
L 162.634828 264.013812 
L 162.634828 263.641267 
L 164.38858 263.268722 
L 164.38858 262.523633 
L 165.265456 261.405998 
L 167.457646 261.033453 
" clip-path="url(#pfd9a79aebc)" style="fill: none; stroke: #dc2626; stroke-width: 2; stroke-linecap: round"/>
    <defs>
     <path id="m4e8893dfb5" d="M 0 2 
C 0.530406 2 1.03916 1.789267 1.414214 1.414214 
C 1.789267 1.03916 2 0.530406 2 0 
C 2 -0.530406 1.789267 -1.03916 1.414214 -1.414214 
C 1.03916 -1.789267 0.530406 -2 0 -2 
C -0.530406 -2 -1.03916 -1.789267 -1.414214 -1.414214 
C -1.789267 -1.03916 -2 -0.530406 -2 0 
C -2 0.530406 -1.789267 1.03916 -1.414214 1.414214 
C -1.03916 1.789267 -0.530406 2 0 2 
z
" style="stroke: #dc2626"/>
    </defs>
    <g clip-path="url(#pfd9a79aebc)">
     <use xlink:href="#m4e8893dfb5" x="70.562855" y="377.64" style="fill: #dc2626; stroke: #dc2626"/>
     <use xlink:href="#m4e8893dfb5" x="71.439731" y="376.522365" style="fill: #dc2626; stroke: #dc2626"/>
     <use xlink:href="#m4e8893dfb5" x="71.439731" y="375.777276" style="fill: #dc2626; stroke: #dc2626"/>
     <use xlink:href="#m4e8893dfb5" x="71.439731" y="375.032186" style="fill: #dc2626; stroke: #dc2626"/>
     <use xlink:href="#m4e8893dfb5" x="71.878169" y="374.287096" style="fill: #dc2626; stroke: #dc2626"/>
     <use xlink:href="#m4e8893dfb5" x="72.316607" y="373.542006" style="fill: #dc2626; stroke: #dc2626"/>
     <use xlink:href="#m4e8893dfb5" x="74.070359" y="371.679282" style="fill: #dc2626; stroke: #dc2626"/>
     <use xlink:href="#m4e8893dfb5" x="75.824111" y="370.934192" style="fill: #dc2626; stroke: #dc2626"/>
     <use xlink:href="#m4e8893dfb5" x="78.016301" y="363.483295" style="fill: #dc2626; stroke: #dc2626"/>
     <use xlink:href="#m4e8893dfb5" x="78.454739" y="359.757846" style="fill: #dc2626; stroke: #dc2626"/>
     <use xlink:href="#m4e8893dfb5" x="80.646928" y="359.385301" style="fill: #dc2626; stroke: #dc2626"/>
     <use xlink:href="#m4e8893dfb5" x="81.085366" y="359.012756" style="fill: #dc2626; stroke: #dc2626"/>
     <use xlink:href="#m4e8893dfb5" x="81.085366" y="353.797128" style="fill: #dc2626; stroke: #dc2626"/>
     <use xlink:href="#m4e8893dfb5" x="84.154432" y="353.052038" style="fill: #dc2626; stroke: #dc2626"/>
     <use xlink:href="#m4e8893dfb5" x="84.154432" y="351.189314" style="fill: #dc2626; stroke: #dc2626"/>
     <use xlink:href="#m4e8893dfb5" x="87.223498" y="345.228596" style="fill: #dc2626; stroke: #dc2626"/>
     <use xlink:href="#m4e8893dfb5" x="89.854126" y="344.483506" style="fill: #dc2626; stroke: #dc2626"/>
     <use xlink:href="#m4e8893dfb5" x="89.854126" y="342.620781" style="fill: #dc2626; stroke: #dc2626"/>
     <use xlink:href="#m4e8893dfb5" x="92.046315" y="339.640422" style="fill: #dc2626; stroke: #dc2626"/>
     <use xlink:href="#m4e8893dfb5" x="93.361629" y="337.777698" style="fill: #dc2626; stroke: #dc2626"/>
     <use xlink:href="#m4e8893dfb5" x="94.238505" y="337.405153" style="fill: #dc2626; stroke: #dc2626"/>
     <use xlink:href="#m4e8893dfb5" x="95.992257" y="335.169884" style="fill: #dc2626; stroke: #dc2626"/>
     <use xlink:href="#m4e8893dfb5" x="96.430695" y="334.797339" style="fill: #dc2626; stroke: #dc2626"/>
     <use xlink:href="#m4e8893dfb5" x="96.430695" y="334.424794" style="fill: #dc2626; stroke: #dc2626"/>
     <use xlink:href="#m4e8893dfb5" x="96.430695" y="334.052249" style="fill: #dc2626; stroke: #dc2626"/>
     <use xlink:href="#m4e8893dfb5" x="99.061323" y="330.699345" style="fill: #dc2626; stroke: #dc2626"/>
     <use xlink:href="#m4e8893dfb5" x="99.499761" y="329.581711" style="fill: #dc2626; stroke: #dc2626"/>
     <use xlink:href="#m4e8893dfb5" x="102.568827" y="327.346441" style="fill: #dc2626; stroke: #dc2626"/>
     <use xlink:href="#m4e8893dfb5" x="102.568827" y="326.973897" style="fill: #dc2626; stroke: #dc2626"/>
     <use xlink:href="#m4e8893dfb5" x="103.445703" y="325.111172" style="fill: #dc2626; stroke: #dc2626"/>
     <use xlink:href="#m4e8893dfb5" x="105.637892" y="324.738627" style="fill: #dc2626; stroke: #dc2626"/>
     <use xlink:href="#m4e8893dfb5" x="106.953206" y="322.875903" style="fill: #dc2626; stroke: #dc2626"/>
     <use xlink:href="#m4e8893dfb5" x="106.953206" y="322.130813" style="fill: #dc2626; stroke: #dc2626"/>
     <use xlink:href="#m4e8893dfb5" x="107.391644" y="315.79755" style="fill: #dc2626; stroke: #dc2626"/>
     <use xlink:href="#m4e8893dfb5" x="110.46071" y="312.817191" style="fill: #dc2626; stroke: #dc2626"/>
     <use xlink:href="#m4e8893dfb5" x="111.337586" y="312.444646" style="fill: #dc2626; stroke: #dc2626"/>
     <use xlink:href="#m4e8893dfb5" x="114.406652" y="311.699556" style="fill: #dc2626; stroke: #dc2626"/>
     <use xlink:href="#m4e8893dfb5" x="115.721966" y="309.091742" style="fill: #dc2626; stroke: #dc2626"/>
     <use xlink:href="#m4e8893dfb5" x="115.721966" y="307.974108" style="fill: #dc2626; stroke: #dc2626"/>
     <use xlink:href="#m4e8893dfb5" x="118.352593" y="306.856473" style="fill: #dc2626; stroke: #dc2626"/>
     <use xlink:href="#m4e8893dfb5" x="118.352593" y="304.993749" style="fill: #dc2626; stroke: #dc2626"/>
     <use xlink:href="#m4e8893dfb5" x="119.229469" y="303.876114" style="fill: #dc2626; stroke: #dc2626"/>
     <use xlink:href="#m4e8893dfb5" x="120.106345" y="302.385935" style="fill: #dc2626; stroke: #dc2626"/>
     <use xlink:href="#m4e8893dfb5" x="120.544783" y="302.01339" style="fill: #dc2626; stroke: #dc2626"/>
     <use xlink:href="#m4e8893dfb5" x="121.421659" y="300.895755" style="fill: #dc2626; stroke: #dc2626"/>
     <use xlink:href="#m4e8893dfb5" x="122.298535" y="298.660486" style="fill: #dc2626; stroke: #dc2626"/>
     <use xlink:href="#m4e8893dfb5" x="124.490725" y="297.542851" style="fill: #dc2626; stroke: #dc2626"/>
     <use xlink:href="#m4e8893dfb5" x="125.367601" y="296.797761" style="fill: #dc2626; stroke: #dc2626"/>
     <use xlink:href="#m4e8893dfb5" x="125.367601" y="296.425216" style="fill: #dc2626; stroke: #dc2626"/>
     <use xlink:href="#m4e8893dfb5" x="127.559791" y="296.052672" style="fill: #dc2626; stroke: #dc2626"/>
     <use xlink:href="#m4e8893dfb5" x="127.559791" y="294.189947" style="fill: #dc2626; stroke: #dc2626"/>
     <use xlink:href="#m4e8893dfb5" x="128.875105" y="293.444857" style="fill: #dc2626; stroke: #dc2626"/>
     <use xlink:href="#m4e8893dfb5" x="128.875105" y="291.582133" style="fill: #dc2626; stroke: #dc2626"/>
     <use xlink:href="#m4e8893dfb5" x="130.628857" y="290.464498" style="fill: #dc2626; stroke: #dc2626"/>
     <use xlink:href="#m4e8893dfb5" x="131.067294" y="289.719409" style="fill: #dc2626; stroke: #dc2626"/>
     <use xlink:href="#m4e8893dfb5" x="131.067294" y="288.974319" style="fill: #dc2626; stroke: #dc2626"/>
     <use xlink:href="#m4e8893dfb5" x="133.697922" y="287.484139" style="fill: #dc2626; stroke: #dc2626"/>
     <use xlink:href="#m4e8893dfb5" x="135.013236" y="285.99396" style="fill: #dc2626; stroke: #dc2626"/>
     <use xlink:href="#m4e8893dfb5" x="135.890112" y="285.24887" style="fill: #dc2626; stroke: #dc2626"/>
     <use xlink:href="#m4e8893dfb5" x="136.32855" y="284.876325" style="fill: #dc2626; stroke: #dc2626"/>
     <use xlink:href="#m4e8893dfb5" x="137.205426" y="284.50378" style="fill: #dc2626; stroke: #dc2626"/>
     <use xlink:href="#m4e8893dfb5" x="137.643864" y="283.758691" style="fill: #dc2626; stroke: #dc2626"/>
     <use xlink:href="#m4e8893dfb5" x="137.643864" y="283.386146" style="fill: #dc2626; stroke: #dc2626"/>
     <use xlink:href="#m4e8893dfb5" x="139.836054" y="282.641056" style="fill: #dc2626; stroke: #dc2626"/>
     <use xlink:href="#m4e8893dfb5" x="141.151368" y="282.268511" style="fill: #dc2626; stroke: #dc2626"/>
     <use xlink:href="#m4e8893dfb5" x="141.151368" y="281.895966" style="fill: #dc2626; stroke: #dc2626"/>
     <use xlink:href="#m4e8893dfb5" x="142.90512" y="280.405787" style="fill: #dc2626; stroke: #dc2626"/>
     <use xlink:href="#m4e8893dfb5" x="142.90512" y="280.033242" style="fill: #dc2626; stroke: #dc2626"/>
     <use xlink:href="#m4e8893dfb5" x="144.220433" y="278.915607" style="fill: #dc2626; stroke: #dc2626"/>
     <use xlink:href="#m4e8893dfb5" x="144.658871" y="278.170517" style="fill: #dc2626; stroke: #dc2626"/>
     <use xlink:href="#m4e8893dfb5" x="145.535747" y="277.052883" style="fill: #dc2626; stroke: #dc2626"/>
     <use xlink:href="#m4e8893dfb5" x="146.851061" y="276.680338" style="fill: #dc2626; stroke: #dc2626"/>
     <use xlink:href="#m4e8893dfb5" x="146.851061" y="276.307793" style="fill: #dc2626; stroke: #dc2626"/>
     <use xlink:href="#m4e8893dfb5" x="147.727937" y="275.190158" style="fill: #dc2626; stroke: #dc2626"/>
     <use xlink:href="#m4e8893dfb5" x="148.166375" y="274.817614" style="fill: #dc2626; stroke: #dc2626"/>
     <use xlink:href="#m4e8893dfb5" x="149.043251" y="272.954889" style="fill: #dc2626; stroke: #dc2626"/>
     <use xlink:href="#m4e8893dfb5" x="149.920127" y="272.582344" style="fill: #dc2626; stroke: #dc2626"/>
     <use xlink:href="#m4e8893dfb5" x="150.358565" y="271.837254" style="fill: #dc2626; stroke: #dc2626"/>
     <use xlink:href="#m4e8893dfb5" x="150.358565" y="271.46471" style="fill: #dc2626; stroke: #dc2626"/>
     <use xlink:href="#m4e8893dfb5" x="151.673879" y="271.092165" style="fill: #dc2626; stroke: #dc2626"/>
     <use xlink:href="#m4e8893dfb5" x="152.112317" y="270.347075" style="fill: #dc2626; stroke: #dc2626"/>
     <use xlink:href="#m4e8893dfb5" x="153.427631" y="269.22944" style="fill: #dc2626; stroke: #dc2626"/>
     <use xlink:href="#m4e8893dfb5" x="154.304507" y="268.856895" style="fill: #dc2626; stroke: #dc2626"/>
     <use xlink:href="#m4e8893dfb5" x="154.742945" y="268.484351" style="fill: #dc2626; stroke: #dc2626"/>
     <use xlink:href="#m4e8893dfb5" x="154.742945" y="268.111806" style="fill: #dc2626; stroke: #dc2626"/>
     <use xlink:href="#m4e8893dfb5" x="155.181383" y="267.739261" style="fill: #dc2626; stroke: #dc2626"/>
     <use xlink:href="#m4e8893dfb5" x="155.619821" y="266.994171" style="fill: #dc2626; stroke: #dc2626"/>
     <use xlink:href="#m4e8893dfb5" x="156.935135" y="266.249081" style="fill: #dc2626; stroke: #dc2626"/>
     <use xlink:href="#m4e8893dfb5" x="156.935135" y="265.876536" style="fill: #dc2626; stroke: #dc2626"/>
     <use xlink:href="#m4e8893dfb5" x="157.81201" y="265.503992" style="fill: #dc2626; stroke: #dc2626"/>
     <use xlink:href="#m4e8893dfb5" x="158.250448" y="265.131447" style="fill: #dc2626; stroke: #dc2626"/>
     <use xlink:href="#m4e8893dfb5" x="160.0042" y="264.758902" style="fill: #dc2626; stroke: #dc2626"/>
     <use xlink:href="#m4e8893dfb5" x="161.757952" y="264.386357" style="fill: #dc2626; stroke: #dc2626"/>
     <use xlink:href="#m4e8893dfb5" x="162.634828" y="264.013812" style="fill: #dc2626; stroke: #dc2626"/>
     <use xlink:href="#m4e8893dfb5" x="162.634828" y="263.641267" style="fill: #dc2626; stroke: #dc2626"/>
     <use xlink:href="#m4e8893dfb5" x="164.38858" y="263.268722" style="fill: #dc2626; stroke: #dc2626"/>
     <use xlink:href="#m4e8893dfb5" x="164.38858" y="262.523633" style="fill: #dc2626; stroke: #dc2626"/>
     <use xlink:href="#m4e8893dfb5" x="165.265456" y="261.405998" style="fill: #dc2626; stroke: #dc2626"/>
     <use xlink:href="#m4e8893dfb5" x="167.457646" y="261.033453" style="fill: #dc2626; stroke: #dc2626"/>
    </g>
   </g>
   <g id="patch_3">
    <path d="M 45.199219 395.28 
L 45.199219 7.2 
" style="fill: none; stroke: #cccccc; stroke-width: 1.25; stroke-linejoin: miter; stroke-linecap: square"/>
   </g>
   <g id="patch_4">
    <path d="M 603.199219 395.28 
L 603.199219 7.2 
" style="fill: none; stroke: #cccccc; stroke-width: 1.25; stroke-linejoin: miter; stroke-linecap: square"/>
   </g>
   <g id="patch_5">
    <path d="M 45.199219 395.28 
L 603.199219 395.28 
" style="fill: none; stroke: #cccccc; stroke-width: 1.25; stroke-linejoin: miter; stroke-linecap: square"/>
   </g>
   <g id="patch_6">
    <path d="M 45.199219 7.2 
L 603.199219 7.2 
" style="fill: none; stroke: #cccccc; stroke-width: 1.25; stroke-linejoin: miter; stroke-linecap: square"/>
   </g>
   <g id="legend_1">
    <g id="patch_7">
     <path d="M 364.359219 388.28 
L 593.399219 388.28 
Q 596.199219 388.28 596.199219 385.48 
L 596.199219 302.875625 
Q 596.199219 300.075625 593.399219 300.075625 
L 364.359219 300.075625 
Q 361.559219 300.075625 361.559219 302.875625 
L 361.559219 385.48 
Q 361.559219 388.28 364.359219 388.28 
z
" style="fill: #ffffff; opacity: 0.8; stroke: #cccccc; stroke-linejoin: miter"/>
    </g>
    <g id="line2d_15">
     <path d="M 367.159219 311.413437 
L 381.159219 311.413437 
L 395.159219 311.413437 
" style="fill: none; stroke: #2563eb; stroke-width: 2; stroke-linecap: round"/>
     <g>
      <use xlink:href="#md74418252a" x="381.159219" y="311.413437" style="fill: #2563eb; stroke: #2563eb"/>
     </g>
    </g>
    <g id="text_15">
     <!-- DeepSeek V3 frontier -->
     <g style="fill: #262626" transform="translate(406.359219 316.313437) scale(0.14 -0.14)">
      <defs>
       <path id="DejaVuSans-27" d="M 1259 4147 
L 1259 519 
L 2022 519 
Q 2988 519 3436 956 
Q 3884 1394 3884 2338 
Q 3884 3275 3436 3711 
Q 2988 4147 2022 4147 
L 1259 4147 
z
M 628 4666 
L 1925 4666 
Q 3281 4666 3915 4102 
Q 4550 3538 4550 2338 
Q 4550 1131 3912 565 
Q 3275 0 1925 0 
L 628 0 
L 628 4666 
z
" transform="scale(0.015625)"/>
       <path id="DejaVuSans-53" d="M 1159 525 
L 1159 -1331 
L 581 -1331 
L 581 3500 
L 1159 3500 
L 1159 2969 
Q 1341 3281 1617 3432 
Q 1894 3584 2278 3584 
Q 2916 3584 3314 3078 
Q 3713 2572 3713 1747 
Q 3713 922 3314 415 
Q 2916 -91 2278 -91 
Q 1894 -91 1617 61 
Q 1341 213 1159 525 
z
M 3116 1747 
Q 3116 2381 2855 2742 
Q 2594 3103 2138 3103 
Q 1681 3103 1420 2742 
Q 1159 2381 1159 1747 
Q 1159 1113 1420 752 
Q 1681 391 2138 391 
Q 2594 391 2855 752 
Q 3116 1113 3116 1747 
z
" transform="scale(0.015625)"/>
       <path id="DejaVuSans-4e" d="M 581 4863 
L 1159 4863 
L 1159 1991 
L 2875 3500 
L 3609 3500 
L 1753 1863 
L 3688 0 
L 2938 0 
L 1159 1709 
L 1159 0 
L 581 0 
L 581 4863 
z
" transform="scale(0.015625)"/>
       <path id="DejaVuSans-39" d="M 1831 0 
L 50 4666 
L 709 4666 
L 2188 738 
L 3669 4666 
L 4325 4666 
L 2547 0 
L 1831 0 
z
" transform="scale(0.015625)"/>
       <path id="DejaVuSans-16" d="M 2597 2516 
Q 3050 2419 3304 2112 
Q 3559 1806 3559 1356 
Q 3559 666 3084 287 
Q 2609 -91 1734 -91 
Q 1441 -91 1130 -33 
Q 819 25 488 141 
L 488 750 
Q 750 597 1062 519 
Q 1375 441 1716 441 
Q 2309 441 2620 675 
Q 2931 909 2931 1356 
Q 2931 1769 2642 2001 
Q 2353 2234 1838 2234 
L 1294 2234 
L 1294 2753 
L 1863 2753 
Q 2328 2753 2575 2939 
Q 2822 3125 2822 3475 
Q 2822 3834 2567 4026 
Q 2313 4219 1838 4219 
Q 1578 4219 1281 4162 
Q 984 4106 628 3988 
L 628 4550 
Q 988 4650 1302 4700 
Q 1616 4750 1894 4750 
Q 2613 4750 3031 4423 
Q 3450 4097 3450 3541 
Q 3450 3153 3228 2886 
Q 3006 2619 2597 2516 
z
" transform="scale(0.015625)"/>
       <path id="DejaVuSans-49" d="M 2375 4863 
L 2375 4384 
L 1825 4384 
Q 1516 4384 1395 4259 
Q 1275 4134 1275 3809 
L 1275 3500 
L 2222 3500 
L 2222 3053 
L 1275 3053 
L 1275 0 
L 697 0 
L 697 3053 
L 147 3053 
L 147 3500 
L 697 3500 
L 697 3744 
Q 697 4328 969 4595 
Q 1241 4863 1831 4863 
L 2375 4863 
z
" transform="scale(0.015625)"/>
       <path id="DejaVuSans-52" d="M 1959 3097 
Q 1497 3097 1228 2736 
Q 959 2375 959 1747 
Q 959 1119 1226 758 
Q 1494 397 1959 397 
Q 2419 397 2687 759 
Q 2956 1122 2956 1747 
Q 2956 2369 2687 2733 
Q 2419 3097 1959 3097 
z
M 1959 3584 
Q 2709 3584 3137 3096 
Q 3566 2609 3566 1747 
Q 3566 888 3137 398 
Q 2709 -91 1959 -91 
Q 1206 -91 779 398 
Q 353 888 353 1747 
Q 353 2609 779 3096 
Q 1206 3584 1959 3584 
z
" transform="scale(0.015625)"/>
       <path id="DejaVuSans-57" d="M 1172 4494 
L 1172 3500 
L 2356 3500 
L 2356 3053 
L 1172 3053 
L 1172 1153 
Q 1172 725 1289 603 
Q 1406 481 1766 481 
L 2356 481 
L 2356 0 
L 1766 0 
Q 1100 0 847 248 
Q 594 497 594 1153 
L 594 3053 
L 172 3053 
L 172 3500 
L 594 3500 
L 594 4494 
L 1172 4494 
z
" transform="scale(0.015625)"/>
      </defs>
      <use xlink:href="#DejaVuSans-27"/>
      <use xlink:href="#DejaVuSans-48" transform="translate(77 0)"/>
      <use xlink:href="#DejaVuSans-48" transform="translate(138.53125 0)"/>
      <use xlink:href="#DejaVuSans-53" transform="translate(200.0625 0)"/>
      <use xlink:href="#DejaVuSans-36" transform="translate(263.546875 0)"/>
      <use xlink:href="#DejaVuSans-48" transform="translate(327.03125 0)"/>
      <use xlink:href="#DejaVuSans-48" transform="translate(388.5625 0)"/>
      <use xlink:href="#DejaVuSans-4e" transform="translate(450.09375 0)"/>
      <use xlink:href="#DejaVuSans-3" transform="translate(508 0)"/>
      <use xlink:href="#DejaVuSans-39" transform="translate(539.78125 0)"/>
      <use xlink:href="#DejaVuSans-16" transform="translate(608.1875 0)"/>
      <use xlink:href="#DejaVuSans-3" transform="translate(671.8125 0)"/>
      <use xlink:href="#DejaVuSans-49" transform="translate(703.59375 0)"/>
      <use xlink:href="#DejaVuSans-55" transform="translate(738.796875 0)"/>
      <use xlink:href="#DejaVuSans-52" transform="translate(777.703125 0)"/>
      <use xlink:href="#DejaVuSans-51" transform="translate(838.890625 0)"/>
      <use xlink:href="#DejaVuSans-57" transform="translate(902.265625 0)"/>
      <use xlink:href="#DejaVuSans-4c" transform="translate(941.46875 0)"/>
      <use xlink:href="#DejaVuSans-48" transform="translate(969.25 0)"/>
      <use xlink:href="#DejaVuSans-55" transform="translate(1030.78125 0)"/>
     </g>
    </g>
    <g id="PathCollection_1">
     <defs>
      <path id="m95e581da72" d="M 0 -7.071068 
L -1.587554 -2.18508 
L -6.724985 -2.18508 
L -2.568716 0.834626 
L -4.156269 5.720614 
L -0 2.700907 
L 4.156269 5.720614 
L 2.568716 0.834626 
L 6.724985 -2.18508 
L 1.587554 -2.18508 
z
" style="stroke: #000000"/>
     </defs>
     <g>
      <use xlink:href="#m95e581da72" x="381.159219" y="333.639531" style="fill: #ff0000; stroke: #000000"/>
     </g>
    </g>
    <g id="text_16">
     <!-- DeepSeek V3 best (0.547) -->
     <g style="fill: #262626" transform="translate(406.359219 337.314531) scale(0.14 -0.14)">
      <defs>
       <path id="DejaVuSans-45" d="M 3116 1747 
Q 3116 2381 2855 2742 
Q 2594 3103 2138 3103 
Q 1681 3103 1420 2742 
Q 1159 2381 1159 1747 
Q 1159 1113 1420 752 
Q 1681 391 2138 391 
Q 2594 391 2855 752 
Q 3116 1113 3116 1747 
z
M 1159 2969 
Q 1341 3281 1617 3432 
Q 1894 3584 2278 3584 
Q 2916 3584 3314 3078 
Q 3713 2572 3713 1747 
Q 3713 922 3314 415 
Q 2916 -91 2278 -91 
Q 1894 -91 1617 61 
Q 1341 213 1159 525 
L 1159 0 
L 581 0 
L 581 4863 
L 1159 4863 
L 1159 2969 
z
" transform="scale(0.015625)"/>
       <path id="DejaVuSans-11" d="M 684 794 
L 1344 794 
L 1344 0 
L 684 0 
L 684 794 
z
" transform="scale(0.015625)"/>
       <path id="DejaVuSans-18" d="M 691 4666 
L 3169 4666 
L 3169 4134 
L 1269 4134 
L 1269 2991 
Q 1406 3038 1543 3061 
Q 1681 3084 1819 3084 
Q 2600 3084 3056 2656 
Q 3513 2228 3513 1497 
Q 3513 744 3044 326 
Q 2575 -91 1722 -91 
Q 1428 -91 1123 -41 
Q 819 9 494 109 
L 494 744 
Q 775 591 1075 516 
Q 1375 441 1709 441 
Q 2250 441 2565 725 
Q 2881 1009 2881 1497 
Q 2881 1984 2565 2268 
Q 2250 2553 1709 2553 
Q 1456 2553 1204 2497 
Q 953 2441 691 2322 
L 691 4666 
z
" transform="scale(0.015625)"/>
       <path id="DejaVuSans-1a" d="M 525 4666 
L 3525 4666 
L 3525 4397 
L 1831 0 
L 1172 0 
L 2766 4134 
L 525 4134 
L 525 4666 
z
" transform="scale(0.015625)"/>
      </defs>
      <use xlink:href="#DejaVuSans-27"/>
      <use xlink:href="#DejaVuSans-48" transform="translate(77 0)"/>
      <use xlink:href="#DejaVuSans-48" transform="translate(138.53125 0)"/>
      <use xlink:href="#DejaVuSans-53" transform="translate(200.0625 0)"/>
      <use xlink:href="#DejaVuSans-36" transform="translate(263.546875 0)"/>
      <use xlink:href="#DejaVuSans-48" transform="translate(327.03125 0)"/>
      <use xlink:href="#DejaVuSans-48" transform="translate(388.5625 0)"/>
      <use xlink:href="#DejaVuSans-4e" transform="translate(450.09375 0)"/>
      <use xlink:href="#DejaVuSans-3" transform="translate(508 0)"/>
      <use xlink:href="#DejaVuSans-39" transform="translate(539.78125 0)"/>
      <use xlink:href="#DejaVuSans-16" transform="translate(608.1875 0)"/>
      <use xlink:href="#DejaVuSans-3" transform="translate(671.8125 0)"/>
      <use xlink:href="#DejaVuSans-45" transform="translate(703.59375 0)"/>
      <use xlink:href="#DejaVuSans-48" transform="translate(767.078125 0)"/>
      <use xlink:href="#DejaVuSans-56" transform="translate(828.609375 0)"/>
      <use xlink:href="#DejaVuSans-57" transform="translate(880.703125 0)"/>
      <use xlink:href="#DejaVuSans-3" transform="translate(919.90625 0)"/>
      <use xlink:href="#DejaVuSans-b" transform="translate(951.6875 0)"/>
      <use xlink:href="#DejaVuSans-13" transform="translate(990.703125 0)"/>
      <use xlink:href="#DejaVuSans-11" transform="translate(1054.328125 0)"/>
      <use xlink:href="#DejaVuSans-18" transform="translate(1086.109375 0)"/>
      <use xlink:href="#DejaVuSans-17" transform="translate(1149.734375 0)"/>
      <use xlink:href="#DejaVuSans-1a" transform="translate(1213.359375 0)"/>
      <use xlink:href="#DejaVuSans-c" transform="translate(1276.984375 0)"/>
     </g>
    </g>
    <g id="line2d_16">
     <path d="M 367.159219 353.415625 
L 381.159219 353.415625 
L 395.159219 353.415625 
" style="fill: none; stroke: #dc2626; stroke-width: 2; stroke-linecap: round"/>
     <g>
      <use xlink:href="#m4e8893dfb5" x="381.159219" y="353.415625" style="fill: #dc2626; stroke: #dc2626"/>
     </g>
    </g>
    <g id="text_17">
     <!-- Kimi K2 frontier -->
     <g style="fill: #262626" transform="translate(406.359219 358.315625) scale(0.14 -0.14)">
      <defs>
       <path id="DejaVuSans-2e" d="M 628 4666 
L 1259 4666 
L 1259 2694 
L 3353 4666 
L 4166 4666 
L 1850 2491 
L 4331 0 
L 3500 0 
L 1259 2247 
L 1259 0 
L 628 0 
L 628 4666 
z
" transform="scale(0.015625)"/>
      </defs>
      <use xlink:href="#DejaVuSans-2e"/>
      <use xlink:href="#DejaVuSans-4c" transform="translate(65.578125 0)"/>
      <use xlink:href="#DejaVuSans-50" transform="translate(93.359375 0)"/>
      <use xlink:href="#DejaVuSans-4c" transform="translate(190.765625 0)"/>
      <use xlink:href="#DejaVuSans-3" transform="translate(218.546875 0)"/>
      <use xlink:href="#DejaVuSans-2e" transform="translate(250.328125 0)"/>
      <use xlink:href="#DejaVuSans-15" transform="translate(315.90625 0)"/>
      <use xlink:href="#DejaVuSans-3" transform="translate(379.53125 0)"/>
      <use xlink:href="#DejaVuSans-49" transform="translate(411.3125 0)"/>
      <use xlink:href="#DejaVuSans-55" transform="translate(446.515625 0)"/>
      <use xlink:href="#DejaVuSans-52" transform="translate(485.421875 0)"/>
      <use xlink:href="#DejaVuSans-51" transform="translate(546.609375 0)"/>
      <use xlink:href="#DejaVuSans-57" transform="translate(609.984375 0)"/>
      <use xlink:href="#DejaVuSans-4c" transform="translate(649.1875 0)"/>
      <use xlink:href="#DejaVuSans-48" transform="translate(676.96875 0)"/>
      <use xlink:href="#DejaVuSans-55" transform="translate(738.5 0)"/>
     </g>
    </g>
    <g id="PathCollection_2">
     <g>
      <use xlink:href="#m95e581da72" x="381.159219" y="375.641719" style="fill: #ff0000; stroke: #000000"/>
     </g>
    </g>
    <g id="text_18">
     <!-- Kimi K2 best (0.516) -->
     <g style="fill: #262626" transform="translate(406.359219 379.316719) scale(0.14 -0.14)">
      <use xlink:href="#DejaVuSans-2e"/>
      <use xlink:href="#DejaVuSans-4c" transform="translate(65.578125 0)"/>
      <use xlink:href="#DejaVuSans-50" transform="translate(93.359375 0)"/>
      <use xlink:href="#DejaVuSans-4c" transform="translate(190.765625 0)"/>
      <use xlink:href="#DejaVuSans-3" transform="translate(218.546875 0)"/>
      <use xlink:href="#DejaVuSans-2e" transform="translate(250.328125 0)"/>
      <use xlink:href="#DejaVuSans-15" transform="translate(315.90625 0)"/>
      <use xlink:href="#DejaVuSans-3" transform="translate(379.53125 0)"/>
      <use xlink:href="#DejaVuSans-45" transform="translate(411.3125 0)"/>
      <use xlink:href="#DejaVuSans-48" transform="translate(474.796875 0)"/>
      <use xlink:href="#DejaVuSans-56" transform="translate(536.328125 0)"/>
      <use xlink:href="#DejaVuSans-57" transform="translate(588.421875 0)"/>
      <use xlink:href="#DejaVuSans-3" transform="translate(627.625 0)"/>
      <use xlink:href="#DejaVuSans-b" transform="translate(659.40625 0)"/>
      <use xlink:href="#DejaVuSans-13" transform="translate(698.421875 0)"/>
      <use xlink:href="#DejaVuSans-11" transform="translate(762.046875 0)"/>
      <use xlink:href="#DejaVuSans-18" transform="translate(793.828125 0)"/>
      <use xlink:href="#DejaVuSans-14" transform="translate(857.453125 0)"/>
      <use xlink:href="#DejaVuSans-19" transform="translate(921.078125 0)"/>
      <use xlink:href="#DejaVuSans-c" transform="translate(984.703125 0)"/>
     </g>
    </g>
   </g>
   <g id="PathCollection_3">
    <g clip-path="url(#pfd9a79aebc)">
     <use xlink:href="#m95e581da72" x="577.835582" y="24.84" style="fill: #ff0000; stroke: #000000"/>
    </g>
   </g>
   <g id="PathCollection_4">
    <g clip-path="url(#pfd9a79aebc)">
     <use xlink:href="#m95e581da72" x="167.896084" y="261.033453" style="fill: #ff0000; stroke: #000000"/>
    </g>
   </g>
  </g>
 </g>
 <defs>
  <clipPath id="pfd9a79aebc">
   <rect x="45.199219" y="7.2" width="558" height="388.08"/>
  </clipPath>
 </defs>
</svg>
