<?xml version="1.0" encoding="utf-8" standalone="no"?>
<!DOCTYPE svg PUBLIC "-//W3C//DTD SVG 1.1//EN"
  "http://www.w3.org/Graphics/SVG/1.1/DTD/svg11.dtd">
<svg xmlns:xlink="http://www.w3.org/1999/xlink" width="611.83679pt" height="457.310969pt" viewBox="0 0 611.83679 457.310969" xmlns="http://www.w3.org/2000/svg" version="1.1">
 <metadata>
  <rdf:RDF xmlns:dc="http://purl.org/dc/elements/1.1/" xmlns:cc="http://creativecommons.org/ns#" xmlns:rdf="http://www.w3.org/1999/02/22-rdf-syntax-ns#">
   <cc:Work>
    <dc:type rdf:resource="http://purl.org/dc/dcmitype/StillImage"/>
    <dc:date>2026-07-14T16:56:58.151777</dc:date>
    <dc:format>image/svg+xml</dc:format>
    <dc:creator>
     <cc:Agent>
      <dc:title>Matplotlib v3.11.0, https://matplotlib.org/</dc:title>
     </cc:Agent>
    </dc:creator>
   </cc:Work>
  </rdf:RDF>
 </metadata>
 <defs>
  <style type="text/css">*{stroke-linejoin: round; stroke-linecap: butt}</style>
 </defs>
 <g id="figure_1">
  <g id="patch_1">
   <path d="M -0 457.310969 
L 611.83679 457.310969 
L 611.83679 0 
L -0 0 
z
" style="fill: #ffffff"/>
  </g>
  <g id="axes_1">
   <g id="patch_2">
    <path d="M 41.599656 411.309937 
L 599.599656 411.309937 
L 599.599656 23.229938 
L 41.599656 23.229938 
z
" style="fill: #ffffff"/>
   </g>
   <g id="matplotlib.axis_1">
    <g id="xtick_1">
     <g id="line2d_1">
      <path d="M 66.963293 411.309937 
L 66.963293 23.229938 
" clip-path="url(#p0e2f6c7917)" style="fill: none; stroke: #cccccc; stroke-opacity: 0.3; stroke-linecap: round"/>
     </g>
     <g id="text_1">
      <!-- 0 -->
      <g style="fill: #262626" transform="translate(63.11398 430.003102) scale(0.121 -0.121)">
       <defs>
        <path id="DejaVuSans-13" d="M 2034 4250 
Q 1547 4250 1301 3770 
Q 1056 3291 1056 2328 
Q 1056 1369 1301 889 
Q 1547 409 2034 409 
Q 2525 409 2770 889 
Q 3016 1369 3016 2328 
Q 3016 3291 2770 3770 
Q 2525 4250 2034 4250 
z
M 2034 4750 
Q 2819 4750 3233 4129 
Q 3647 3509 3647 2328 
Q 3647 1150 3233 529 
Q 2819 -91 2034 -91 
Q 1250 -91 836 529 
Q 422 1150 422 2328 
Q 422 3509 836 4129 
Q 1250 4750 2034 4750 
z
" transform="scale(0.015625)"/>
       </defs>
       <use xlink:href="#DejaVuSans-13"/>
      </g>
     </g>
    </g>
    <g id="xtick_2">
     <g id="line2d_2">
      <path d="M 154.650886 411.309937 
L 154.650886 23.229938 
" clip-path="url(#p0e2f6c7917)" style="fill: none; stroke: #cccccc; stroke-opacity: 0.3; stroke-linecap: round"/>
     </g>
     <g id="text_2">
      <!-- 20 -->
      <g style="fill: #262626" transform="translate(146.952261 430.003102) scale(0.121 -0.121)">
       <defs>
        <path id="DejaVuSans-15" d="M 1228 531 
L 3431 531 
L 3431 0 
L 469 0 
L 469 531 
Q 828 903 1448 1529 
Q 2069 2156 2228 2338 
Q 2531 2678 2651 2914 
Q 2772 3150 2772 3378 
Q 2772 3750 2511 3984 
Q 2250 4219 1831 4219 
Q 1534 4219 1204 4116 
Q 875 4013 500 3803 
L 500 4441 
Q 881 4594 1212 4672 
Q 1544 4750 1819 4750 
Q 2544 4750 2975 4387 
Q 3406 4025 3406 3419 
Q 3406 3131 3298 2873 
Q 3191 2616 2906 2266 
Q 2828 2175 2409 1742 
Q 1991 1309 1228 531 
z
" transform="scale(0.015625)"/>
       </defs>
       <use xlink:href="#DejaVuSans-15"/>
       <use xlink:href="#DejaVuSans-13" transform="translate(63.625 0)"/>
      </g>
     </g>
    </g>
    <g id="xtick_3">
     <g id="line2d_3">
      <path d="M 242.338479 411.309937 
L 242.338479 23.229938 
" clip-path="url(#p0e2f6c7917)" style="fill: none; stroke: #cccccc; stroke-opacity: 0.3; stroke-linecap: round"/>
     </g>
     <g id="text_3">
      <!-- 40 -->
      <g style="fill: #262626" transform="translate(234.639854 430.003102) scale(0.121 -0.121)">
       <defs>
        <path id="DejaVuSans-17" d="M 2419 4116 
L 825 1625 
L 2419 1625 
L 2419 4116 
z
M 2253 4666 
L 3047 4666 
L 3047 1625 
L 3713 1625 
L 3713 1100 
L 3047 1100 
L 3047 0 
L 2419 0 
L 2419 1100 
L 313 1100 
L 313 1709 
L 2253 4666 
z
" transform="scale(0.015625)"/>
       </defs>
       <use xlink:href="#DejaVuSans-17"/>
       <use xlink:href="#DejaVuSans-13" transform="translate(63.625 0)"/>
      </g>
     </g>
    </g>
    <g id="xtick_4">
     <g id="line2d_4">
      <path d="M 330.026073 411.309937 
L 330.026073 23.229938 
" clip-path="url(#p0e2f6c7917)" style="fill: none; stroke: #cccccc; stroke-opacity: 0.3; stroke-linecap: round"/>
     </g>
     <g id="text_4">
      <!-- 60 -->
      <g style="fill: #262626" transform="translate(322.327448 430.003102) scale(0.121 -0.121)">
       <defs>
        <path id="DejaVuSans-19" d="M 2113 2584 
Q 1688 2584 1439 2293 
Q 1191 2003 1191 1497 
Q 1191 994 1439 701 
Q 1688 409 2113 409 
Q 2538 409 2786 701 
Q 3034 994 3034 1497 
Q 3034 2003 2786 2293 
Q 2538 2584 2113 2584 
z
M 3366 4563 
L 3366 3988 
Q 3128 4100 2886 4159 
Q 2644 4219 2406 4219 
Q 1781 4219 1451 3797 
Q 1122 3375 1075 2522 
Q 1259 2794 1537 2939 
Q 1816 3084 2150 3084 
Q 2853 3084 3261 2657 
Q 3669 2231 3669 1497 
Q 3669 778 3244 343 
Q 2819 -91 2113 -91 
Q 1303 -91 875 529 
Q 447 1150 447 2328 
Q 447 3434 972 4092 
Q 1497 4750 2381 4750 
Q 2619 4750 2861 4703 
Q 3103 4656 3366 4563 
z
" transform="scale(0.015625)"/>
       </defs>
       <use xlink:href="#DejaVuSans-19"/>
       <use xlink:href="#DejaVuSans-13" transform="translate(63.625 0)"/>
      </g>
     </g>
    </g>
    <g id="xtick_5">
     <g id="line2d_5">
      <path d="M 417.713666 411.309937 
L 417.713666 23.229938 
" clip-path="url(#p0e2f6c7917)" style="fill: none; stroke: #cccccc; stroke-opacity: 0.3; stroke-linecap: round"/>
     </g>
     <g id="text_5">
      <!-- 80 -->
      <g style="fill: #262626" transform="translate(410.015041 430.003102) scale(0.121 -0.121)">
       <defs>
        <path id="DejaVuSans-1b" d="M 2034 2216 
Q 1584 2216 1326 1975 
Q 1069 1734 1069 1313 
Q 1069 891 1326 650 
Q 1584 409 2034 409 
Q 2484 409 2743 651 
Q 3003 894 3003 1313 
Q 3003 1734 2745 1975 
Q 2488 2216 2034 2216 
z
M 1403 2484 
Q 997 2584 770 2862 
Q 544 3141 544 3541 
Q 544 4100 942 4425 
Q 1341 4750 2034 4750 
Q 2731 4750 3128 4425 
Q 3525 4100 3525 3541 
Q 3525 3141 3298 2862 
Q 3072 2584 2669 2484 
Q 3125 2378 3379 2068 
Q 3634 1759 3634 1313 
Q 3634 634 3220 271 
Q 2806 -91 2034 -91 
Q 1263 -91 848 271 
Q 434 634 434 1313 
Q 434 1759 690 2068 
Q 947 2378 1403 2484 
z
M 1172 3481 
Q 1172 3119 1398 2916 
Q 1625 2713 2034 2713 
Q 2441 2713 2670 2916 
Q 2900 3119 2900 3481 
Q 2900 3844 2670 4047 
Q 2441 4250 2034 4250 
Q 1625 4250 1398 4047 
Q 1172 3844 1172 3481 
z
" transform="scale(0.015625)"/>
       </defs>
       <use xlink:href="#DejaVuSans-1b"/>
       <use xlink:href="#DejaVuSans-13" transform="translate(63.625 0)"/>
      </g>
     </g>
    </g>
    <g id="xtick_6">
     <g id="line2d_6">
      <path d="M 505.401259 411.309937 
L 505.401259 23.229938 
" clip-path="url(#p0e2f6c7917)" style="fill: none; stroke: #cccccc; stroke-opacity: 0.3; stroke-linecap: round"/>
     </g>
     <g id="text_6">
      <!-- 100 -->
      <g style="fill: #262626" transform="translate(493.853322 430.003102) scale(0.121 -0.121)">
       <defs>
        <path id="DejaVuSans-14" d="M 794 531 
L 1825 531 
L 1825 4091 
L 703 3866 
L 703 4441 
L 1819 4666 
L 2450 4666 
L 2450 531 
L 3481 531 
L 3481 0 
L 794 0 
L 794 531 
z
" transform="scale(0.015625)"/>
       </defs>
       <use xlink:href="#DejaVuSans-14"/>
       <use xlink:href="#DejaVuSans-13" transform="translate(63.625 0)"/>
       <use xlink:href="#DejaVuSans-13" transform="translate(127.25 0)"/>
      </g>
     </g>
    </g>
    <g id="xtick_7">
     <g id="line2d_7">
      <path d="M 593.088852 411.309937 
L 593.088852 23.229938 
" clip-path="url(#p0e2f6c7917)" style="fill: none; stroke: #cccccc; stroke-opacity: 0.3; stroke-linecap: round"/>
     </g>
     <g id="text_7">
      <!-- 120 -->
      <g style="fill: #262626" transform="translate(581.540915 430.003102) scale(0.121 -0.121)">
       <use xlink:href="#DejaVuSans-14"/>
       <use xlink:href="#DejaVuSans-15" transform="translate(63.625 0)"/>
       <use xlink:href="#DejaVuSans-13" transform="translate(127.25 0)"/>
      </g>
     </g>
    </g>
    <g id="text_8">
     <!-- Time Overhead (%) -->
     <g style="fill: #262626" transform="translate(256.593062 446.939875) scale(0.132 -0.132)">
      <defs>
       <path id="DejaVuSans-37" d="M -19 4666 
L 3928 4666 
L 3928 4134 
L 2272 4134 
L 2272 0 
L 1638 0 
L 1638 4134 
L -19 4134 
L -19 4666 
z
" transform="scale(0.015625)"/>
       <path id="DejaVuSans-4c" d="M 603 3500 
L 1178 3500 
L 1178 0 
L 603 0 
L 603 3500 
z
M 603 4863 
L 1178 4863 
L 1178 4134 
L 603 4134 
L 603 4863 
z
" transform="scale(0.015625)"/>
       <path id="DejaVuSans-50" d="M 3328 2828 
Q 3544 3216 3844 3400 
Q 4144 3584 4550 3584 
Q 5097 3584 5394 3201 
Q 5691 2819 5691 2113 
L 5691 0 
L 5113 0 
L 5113 2094 
Q 5113 2597 4934 2840 
Q 4756 3084 4391 3084 
Q 3944 3084 3684 2787 
Q 3425 2491 3425 1978 
L 3425 0 
L 2847 0 
L 2847 2094 
Q 2847 2600 2669 2842 
Q 2491 3084 2119 3084 
Q 1678 3084 1418 2786 
Q 1159 2488 1159 1978 
L 1159 0 
L 581 0 
L 581 3500 
L 1159 3500 
L 1159 2956 
Q 1356 3278 1631 3431 
Q 1906 3584 2284 3584 
Q 2666 3584 2933 3390 
Q 3200 3197 3328 2828 
z
" transform="scale(0.015625)"/>
       <path id="DejaVuSans-48" d="M 3597 1894 
L 3597 1613 
L 953 1613 
Q 991 1019 1311 708 
Q 1631 397 2203 397 
Q 2534 397 2845 478 
Q 3156 559 3463 722 
L 3463 178 
Q 3153 47 2828 -22 
Q 2503 -91 2169 -91 
Q 1331 -91 842 396 
Q 353 884 353 1716 
Q 353 2575 817 3079 
Q 1281 3584 2069 3584 
Q 2775 3584 3186 3129 
Q 3597 2675 3597 1894 
z
M 3022 2063 
Q 3016 2534 2758 2815 
Q 2500 3097 2075 3097 
Q 1594 3097 1305 2825 
Q 1016 2553 972 2059 
L 3022 2063 
z
" transform="scale(0.015625)"/>
       <path id="DejaVuSans-3" transform="scale(0.015625)"/>
       <path id="DejaVuSans-32" d="M 2522 4238 
Q 1834 4238 1429 3725 
Q 1025 3213 1025 2328 
Q 1025 1447 1429 934 
Q 1834 422 2522 422 
Q 3209 422 3611 934 
Q 4013 1447 4013 2328 
Q 4013 3213 3611 3725 
Q 3209 4238 2522 4238 
z
M 2522 4750 
Q 3503 4750 4090 4092 
Q 4678 3434 4678 2328 
Q 4678 1225 4090 567 
Q 3503 -91 2522 -91 
Q 1538 -91 948 565 
Q 359 1222 359 2328 
Q 359 3434 948 4092 
Q 1538 4750 2522 4750 
z
" transform="scale(0.015625)"/>
       <path id="DejaVuSans-59" d="M 191 3500 
L 800 3500 
L 1894 563 
L 2988 3500 
L 3597 3500 
L 2284 0 
L 1503 0 
L 191 3500 
z
" transform="scale(0.015625)"/>
       <path id="DejaVuSans-55" d="M 2631 2963 
Q 2534 3019 2420 3045 
Q 2306 3072 2169 3072 
Q 1681 3072 1420 2755 
Q 1159 2438 1159 1844 
L 1159 0 
L 581 0 
L 581 3500 
L 1159 3500 
L 1159 2956 
Q 1341 3275 1631 3429 
Q 1922 3584 2338 3584 
Q 2397 3584 2469 3576 
Q 2541 3569 2628 3553 
L 2631 2963 
z
" transform="scale(0.015625)"/>
       <path id="DejaVuSans-4b" d="M 3513 2113 
L 3513 0 
L 2938 0 
L 2938 2094 
Q 2938 2591 2744 2837 
Q 2550 3084 2163 3084 
Q 1697 3084 1428 2787 
Q 1159 2491 1159 1978 
L 1159 0 
L 581 0 
L 581 4863 
L 1159 4863 
L 1159 2956 
Q 1366 3272 1645 3428 
Q 1925 3584 2291 3584 
Q 2894 3584 3203 3211 
Q 3513 2838 3513 2113 
z
" transform="scale(0.015625)"/>
       <path id="DejaVuSans-44" d="M 2194 1759 
Q 1497 1759 1228 1600 
Q 959 1441 959 1056 
Q 959 750 1161 570 
Q 1363 391 1709 391 
Q 2188 391 2477 730 
Q 2766 1069 2766 1631 
L 2766 1759 
L 2194 1759 
z
M 3341 1997 
L 3341 0 
L 2766 0 
L 2766 531 
Q 2569 213 2275 61 
Q 1981 -91 1556 -91 
Q 1019 -91 701 211 
Q 384 513 384 1019 
Q 384 1609 779 1909 
Q 1175 2209 1959 2209 
L 2766 2209 
L 2766 2266 
Q 2766 2663 2505 2880 
Q 2244 3097 1772 3097 
Q 1472 3097 1187 3025 
Q 903 2953 641 2809 
L 641 3341 
Q 956 3463 1253 3523 
Q 1550 3584 1831 3584 
Q 2591 3584 2966 3190 
Q 3341 2797 3341 1997 
z
" transform="scale(0.015625)"/>
       <path id="DejaVuSans-47" d="M 2906 2969 
L 2906 4863 
L 3481 4863 
L 3481 0 
L 2906 0 
L 2906 525 
Q 2725 213 2448 61 
Q 2172 -91 1784 -91 
Q 1150 -91 751 415 
Q 353 922 353 1747 
Q 353 2572 751 3078 
Q 1150 3584 1784 3584 
Q 2172 3584 2448 3432 
Q 2725 3281 2906 2969 
z
M 947 1747 
Q 947 1113 1208 752 
Q 1469 391 1925 391 
Q 2381 391 2643 752 
Q 2906 1113 2906 1747 
Q 2906 2381 2643 2742 
Q 2381 3103 1925 3103 
Q 1469 3103 1208 2742 
Q 947 2381 947 1747 
z
" transform="scale(0.015625)"/>
       <path id="DejaVuSans-b" d="M 1984 4856 
Q 1566 4138 1362 3434 
Q 1159 2731 1159 2009 
Q 1159 1288 1364 580 
Q 1569 -128 1984 -844 
L 1484 -844 
Q 1016 -109 783 600 
Q 550 1309 550 2009 
Q 550 2706 781 3412 
Q 1013 4119 1484 4856 
L 1984 4856 
z
" transform="scale(0.015625)"/>
       <path id="DejaVuSans-8" d="M 4653 2053 
Q 4381 2053 4226 1822 
Q 4072 1591 4072 1178 
Q 4072 772 4226 539 
Q 4381 306 4653 306 
Q 4919 306 5073 539 
Q 5228 772 5228 1178 
Q 5228 1588 5073 1820 
Q 4919 2053 4653 2053 
z
M 4653 2450 
Q 5147 2450 5437 2106 
Q 5728 1763 5728 1178 
Q 5728 594 5436 251 
Q 5144 -91 4653 -91 
Q 4153 -91 3862 251 
Q 3572 594 3572 1178 
Q 3572 1766 3864 2108 
Q 4156 2450 4653 2450 
z
M 1428 4353 
Q 1159 4353 1004 4120 
Q 850 3888 850 3481 
Q 850 3069 1003 2837 
Q 1156 2606 1428 2606 
Q 1700 2606 1854 2837 
Q 2009 3069 2009 3481 
Q 2009 3884 1853 4118 
Q 1697 4353 1428 4353 
z
M 4250 4750 
L 4750 4750 
L 1831 -91 
L 1331 -91 
L 4250 4750 
z
M 1428 4750 
Q 1922 4750 2215 4408 
Q 2509 4066 2509 3481 
Q 2509 2891 2217 2550 
Q 1925 2209 1428 2209 
Q 931 2209 642 2551 
Q 353 2894 353 3481 
Q 353 4063 643 4406 
Q 934 4750 1428 4750 
z
" transform="scale(0.015625)"/>
       <path id="DejaVuSans-c" d="M 513 4856 
L 1013 4856 
Q 1481 4119 1714 3412 
Q 1947 2706 1947 2009 
Q 1947 1309 1714 600 
Q 1481 -109 1013 -844 
L 513 -844 
Q 928 -128 1133 580 
Q 1338 1288 1338 2009 
Q 1338 2731 1133 3434 
Q 928 4138 513 4856 
z
" transform="scale(0.015625)"/>
      </defs>
      <use xlink:href="#DejaVuSans-37"/>
      <use xlink:href="#DejaVuSans-4c" transform="translate(58 0)"/>
      <use xlink:href="#DejaVuSans-50" transform="translate(85.78125 0)"/>
      <use xlink:href="#DejaVuSans-48" transform="translate(183.1875 0)"/>
      <use xlink:href="#DejaVuSans-3" transform="translate(244.71875 0)"/>
      <use xlink:href="#DejaVuSans-32" transform="translate(276.5 0)"/>
      <use xlink:href="#DejaVuSans-59" transform="translate(355.21875 0)"/>
      <use xlink:href="#DejaVuSans-48" transform="translate(414.40625 0)"/>
      <use xlink:href="#DejaVuSans-55" transform="translate(475.9375 0)"/>
      <use xlink:href="#DejaVuSans-4b" transform="translate(515.296875 0)"/>
      <use xlink:href="#DejaVuSans-48" transform="translate(578.671875 0)"/>
      <use xlink:href="#DejaVuSans-44" transform="translate(640.203125 0)"/>
      <use xlink:href="#DejaVuSans-47" transform="translate(701.484375 0)"/>
      <use xlink:href="#DejaVuSans-3" transform="translate(764.96875 0)"/>
      <use xlink:href="#DejaVuSans-b" transform="translate(796.75 0)"/>
      <use xlink:href="#DejaVuSans-8" transform="translate(835.765625 0)"/>
      <use xlink:href="#DejaVuSans-c" transform="translate(930.78125 0)"/>
     </g>
    </g>
   </g>
   <g id="matplotlib.axis_2">
    <g id="ytick_1">
     <g id="line2d_8">
      <path d="M 41.599656 393.669937 
L 599.599656 393.669937 
" clip-path="url(#p0e2f6c7917)" style="fill: none; stroke: #cccccc; stroke-opacity: 0.3; stroke-linecap: round"/>
     </g>
     <g id="text_9">
      <!-- 0 -->
      <g style="fill: #262626" transform="translate(24.401031 398.26652) scale(0.121 -0.121)">
       <use xlink:href="#DejaVuSans-13"/>
      </g>
     </g>
    </g>
    <g id="ytick_2">
     <g id="line2d_9">
      <path d="M 41.599656 319.160962 
L 599.599656 319.160962 
" clip-path="url(#p0e2f6c7917)" style="fill: none; stroke: #cccccc; stroke-opacity: 0.3; stroke-linecap: round"/>
     </g>
     <g id="text_10">
      <!-- 2 -->
      <g style="fill: #262626" transform="translate(24.401031 323.757544) scale(0.121 -0.121)">
       <use xlink:href="#DejaVuSans-15"/>
      </g>
     </g>
    </g>
    <g id="ytick_3">
     <g id="line2d_10">
      <path d="M 41.599656 244.651986 
L 599.599656 244.651986 
" clip-path="url(#p0e2f6c7917)" style="fill: none; stroke: #cccccc; stroke-opacity: 0.3; stroke-linecap: round"/>
     </g>
     <g id="text_11">
      <!-- 4 -->
      <g style="fill: #262626" transform="translate(24.401031 249.248568) scale(0.121 -0.121)">
       <use xlink:href="#DejaVuSans-17"/>
      </g>
     </g>
    </g>
    <g id="ytick_4">
     <g id="line2d_11">
      <path d="M 41.599656 170.14301 
L 599.599656 170.14301 
" clip-path="url(#p0e2f6c7917)" style="fill: none; stroke: #cccccc; stroke-opacity: 0.3; stroke-linecap: round"/>
     </g>
     <g id="text_12">
      <!-- 6 -->
      <g style="fill: #262626" transform="translate(24.401031 174.739592) scale(0.121 -0.121)">
       <use xlink:href="#DejaVuSans-19"/>
      </g>
     </g>
    </g>
    <g id="ytick_5">
     <g id="line2d_12">
      <path d="M 41.599656 95.634035 
L 599.599656 95.634035 
" clip-path="url(#p0e2f6c7917)" style="fill: none; stroke: #cccccc; stroke-opacity: 0.3; stroke-linecap: round"/>
     </g>
     <g id="text_13">
      <!-- 8 -->
      <g style="fill: #262626" transform="translate(24.401031 100.230617) scale(0.121 -0.121)">
       <use xlink:href="#DejaVuSans-1b"/>
      </g>
     </g>
    </g>
    <g id="text_14">
     <!-- CO₂ Savings (%) -->
     <g style="fill: #262626" transform="translate(17.229938 271.121812) rotate(-90) scale(0.132 -0.132)">
      <defs>
       <path id="DejaVuSans-26" d="M 4122 4306 
L 4122 3641 
Q 3803 3938 3442 4084 
Q 3081 4231 2675 4231 
Q 1875 4231 1450 3742 
Q 1025 3253 1025 2328 
Q 1025 1406 1450 917 
Q 1875 428 2675 428 
Q 3081 428 3442 575 
Q 3803 722 4122 1019 
L 4122 359 
Q 3791 134 3420 21 
Q 3050 -91 2638 -91 
Q 1578 -91 968 557 
Q 359 1206 359 2328 
Q 359 3453 968 4101 
Q 1578 4750 2638 4750 
Q 3056 4750 3426 4639 
Q 3797 4528 4122 4306 
z
" transform="scale(0.015625)"/>
       <path id="DejaVuSans-b5d" d="M 838 356 
L 2163 356 
L 2163 0 
L 294 0 
L 294 343 
Q 400 440 597 615 
Q 1672 1568 1672 1862 
Q 1672 2068 1509 2194 
Q 1347 2321 1081 2321 
Q 919 2321 728 2266 
Q 538 2212 313 2103 
L 313 2487 
Q 553 2575 761 2618 
Q 969 2662 1147 2662 
Q 1600 2662 1872 2456 
Q 2144 2250 2144 1912 
Q 2144 1478 1109 590 
Q 934 440 838 356 
z
" transform="scale(0.015625)"/>
       <path id="DejaVuSans-36" d="M 3425 4513 
L 3425 3897 
Q 3066 4069 2747 4153 
Q 2428 4238 2131 4238 
Q 1616 4238 1336 4038 
Q 1056 3838 1056 3469 
Q 1056 3159 1242 3001 
Q 1428 2844 1947 2747 
L 2328 2669 
Q 3034 2534 3370 2195 
Q 3706 1856 3706 1288 
Q 3706 609 3251 259 
Q 2797 -91 1919 -91 
Q 1588 -91 1214 -16 
Q 841 59 441 206 
L 441 856 
Q 825 641 1194 531 
Q 1563 422 1919 422 
Q 2459 422 2753 634 
Q 3047 847 3047 1241 
Q 3047 1584 2836 1778 
Q 2625 1972 2144 2069 
L 1759 2144 
Q 1053 2284 737 2584 
Q 422 2884 422 3419 
Q 422 4038 858 4394 
Q 1294 4750 2059 4750 
Q 2388 4750 2728 4690 
Q 3069 4631 3425 4513 
z
" transform="scale(0.015625)"/>
       <path id="DejaVuSans-51" d="M 3513 2113 
L 3513 0 
L 2938 0 
L 2938 2094 
Q 2938 2591 2744 2837 
Q 2550 3084 2163 3084 
Q 1697 3084 1428 2787 
Q 1159 2491 1159 1978 
L 1159 0 
L 581 0 
L 581 3500 
L 1159 3500 
L 1159 2956 
Q 1366 3272 1645 3428 
Q 1925 3584 2291 3584 
Q 2894 3584 3203 3211 
Q 3513 2838 3513 2113 
z
" transform="scale(0.015625)"/>
       <path id="DejaVuSans-4a" d="M 2906 1791 
Q 2906 2416 2648 2759 
Q 2391 3103 1925 3103 
Q 1463 3103 1205 2759 
Q 947 2416 947 1791 
Q 947 1169 1205 825 
Q 1463 481 1925 481 
Q 2391 481 2648 825 
Q 2906 1169 2906 1791 
z
M 3481 434 
Q 3481 -459 3084 -895 
Q 2688 -1331 1869 -1331 
Q 1566 -1331 1297 -1286 
Q 1028 -1241 775 -1147 
L 775 -588 
Q 1028 -725 1275 -790 
Q 1522 -856 1778 -856 
Q 2344 -856 2625 -561 
Q 2906 -266 2906 331 
L 2906 616 
Q 2728 306 2450 153 
Q 2172 0 1784 0 
Q 1141 0 747 490 
Q 353 981 353 1791 
Q 353 2603 747 3093 
Q 1141 3584 1784 3584 
Q 2172 3584 2450 3431 
Q 2728 3278 2906 2969 
L 2906 3500 
L 3481 3500 
L 3481 434 
z
" transform="scale(0.015625)"/>
       <path id="DejaVuSans-56" d="M 2834 3397 
L 2834 2853 
Q 2591 2978 2328 3040 
Q 2066 3103 1784 3103 
Q 1356 3103 1142 2972 
Q 928 2841 928 2578 
Q 928 2378 1081 2264 
Q 1234 2150 1697 2047 
L 1894 2003 
Q 2506 1872 2764 1633 
Q 3022 1394 3022 966 
Q 3022 478 2636 193 
Q 2250 -91 1575 -91 
Q 1294 -91 989 -36 
Q 684 19 347 128 
L 347 722 
Q 666 556 975 473 
Q 1284 391 1588 391 
Q 1994 391 2212 530 
Q 2431 669 2431 922 
Q 2431 1156 2273 1281 
Q 2116 1406 1581 1522 
L 1381 1569 
Q 847 1681 609 1914 
Q 372 2147 372 2553 
Q 372 3047 722 3315 
Q 1072 3584 1716 3584 
Q 2034 3584 2315 3537 
Q 2597 3491 2834 3397 
z
" transform="scale(0.015625)"/>
      </defs>
      <use xlink:href="#DejaVuSans-26"/>
      <use xlink:href="#DejaVuSans-32" transform="translate(69.828125 0)"/>
      <use xlink:href="#DejaVuSans-b5d" transform="translate(148.546875 0)"/>
      <use xlink:href="#DejaVuSans-3" transform="translate(188.640625 0)"/>
      <use xlink:href="#DejaVuSans-36" transform="translate(220.421875 0)"/>
      <use xlink:href="#DejaVuSans-44" transform="translate(283.90625 0)"/>
      <use xlink:href="#DejaVuSans-59" transform="translate(345.1875 0)"/>
      <use xlink:href="#DejaVuSans-4c" transform="translate(404.375 0)"/>
      <use xlink:href="#DejaVuSans-51" transform="translate(432.15625 0)"/>
      <use xlink:href="#DejaVuSans-4a" transform="translate(495.53125 0)"/>
      <use xlink:href="#DejaVuSans-56" transform="translate(559.015625 0)"/>
      <use xlink:href="#DejaVuSans-3" transform="translate(611.109375 0)"/>
      <use xlink:href="#DejaVuSans-b" transform="translate(642.890625 0)"/>
      <use xlink:href="#DejaVuSans-8" transform="translate(681.90625 0)"/>
      <use xlink:href="#DejaVuSans-c" transform="translate(776.921875 0)"/>
     </g>
    </g>
   </g>
   <g id="line2d_13">
    <path d="M 66.963293 393.669937 
L 67.840169 392.924848 
L 68.278607 392.179758 
L 69.155482 390.317034 
L 70.470796 389.571944 
L 71.347672 387.336675 
L 73.9783 384.72886 
L 77.485804 375.042694 
L 81.431746 373.925059 
L 89.762067 369.827065 
L 90.200505 367.964341 
L 90.200505 353.807635 
L 107.299586 352.317456 
L 107.299586 344.866558 
L 110.368651 341.14111 
L 112.122403 340.023475 
L 118.260535 334.435302 
L 120.014287 281.533929 
L 133.605864 261.416506 
L 154.212448 233.47564 
L 164.734959 230.122736 
L 171.311529 215.593486 
L 176.572784 213.358216 
L 187.972171 205.534774 
L 196.740931 201.064235 
L 204.632814 199.574056 
L 213.840011 198.456421 
L 219.101267 185.044806 
L 223.047209 184.672261 
L 224.800961 183.927171 
L 233.131282 180.201722 
L 239.269413 177.593908 
L 251.545677 154.496125 
L 263.383502 145.555048 
L 271.713823 134.006157 
L 287.49759 133.633612 
L 295.827911 122.084721 
L 303.719795 117.986727 
L 308.98105 113.516189 
L 313.803868 113.143644 
L 314.680744 112.398554 
L 319.941999 109.418195 
L 323.011065 108.300561 
L 327.833883 107.182926 
L 330.026073 105.692746 
L 333.533576 104.947657 
L 337.917956 104.202567 
L 338.356394 101.594753 
L 339.671708 99.359483 
L 343.617649 97.496759 
L 348.878905 96.751669 
L 349.317343 94.5164 
L 355.017037 91.908586 
L 356.332351 89.300772 
L 410.26022 88.555682 
L 412.45241 85.947868 
L 421.22117 85.575323 
L 427.797739 84.457688 
L 429.551491 81.849874 
L 434.374309 79.614605 
L 436.566498 77.379336 
L 440.074002 76.634246 
L 443.581506 74.398977 
L 444.458382 72.908797 
L 451.473389 72.163707 
L 452.788703 69.183348 
L 452.788703 68.810803 
L 453.227141 68.438259 
L 454.980893 65.457899 
L 455.419331 64.71281 
L 461.9959 60.987361 
L 463.311214 60.614816 
L 469.010908 59.497181 
L 469.887784 55.399188 
L 476.902791 53.536463 
L 480.410295 53.163918 
L 484.794675 48.69338 
L 488.740616 48.320835 
L 501.893755 45.340476 
L 509.347201 44.967931 
L 517.239084 44.222841 
L 564.590385 43.850297 
L 565.028823 43.477752 
L 565.905699 42.360117 
L 566.782574 41.615027 
L 572.482268 41.242482 
L 572.920706 40.869937 
" clip-path="url(#p0e2f6c7917)" style="fill: none; stroke: #2563eb; stroke-width: 2; stroke-linecap: round"/>
    <defs>
     <path id="md750155865" d="M 0 2 
C 0.530406 2 1.03916 1.789267 1.414214 1.414214 
C 1.789267 1.03916 2 0.530406 2 0 
C 2 -0.530406 1.789267 -1.03916 1.414214 -1.414214 
C 1.03916 -1.789267 0.530406 -2 0 -2 
C -0.530406 -2 -1.03916 -1.789267 -1.414214 -1.414214 
C -1.789267 -1.03916 -2 -0.530406 -2 0 
C -2 0.530406 -1.789267 1.03916 -1.414214 1.414214 
C -1.03916 1.789267 -0.530406 2 0 2 
z
" style="stroke: #2563eb"/>
    </defs>
    <g clip-path="url(#p0e2f6c7917)">
     <use xlink:href="#md750155865" x="66.963293" y="393.669937" style="fill: #2563eb; stroke: #2563eb"/>
     <use xlink:href="#md750155865" x="67.840169" y="392.924848" style="fill: #2563eb; stroke: #2563eb"/>
     <use xlink:href="#md750155865" x="68.278607" y="392.179758" style="fill: #2563eb; stroke: #2563eb"/>
     <use xlink:href="#md750155865" x="69.155482" y="390.317034" style="fill: #2563eb; stroke: #2563eb"/>
     <use xlink:href="#md750155865" x="70.470796" y="389.571944" style="fill: #2563eb; stroke: #2563eb"/>
     <use xlink:href="#md750155865" x="71.347672" y="387.336675" style="fill: #2563eb; stroke: #2563eb"/>
     <use xlink:href="#md750155865" x="73.9783" y="384.72886" style="fill: #2563eb; stroke: #2563eb"/>
     <use xlink:href="#md750155865" x="77.485804" y="375.042694" style="fill: #2563eb; stroke: #2563eb"/>
     <use xlink:href="#md750155865" x="81.431746" y="373.925059" style="fill: #2563eb; stroke: #2563eb"/>
     <use xlink:href="#md750155865" x="89.762067" y="369.827065" style="fill: #2563eb; stroke: #2563eb"/>
     <use xlink:href="#md750155865" x="90.200505" y="367.964341" style="fill: #2563eb; stroke: #2563eb"/>
     <use xlink:href="#md750155865" x="90.200505" y="353.807635" style="fill: #2563eb; stroke: #2563eb"/>
     <use xlink:href="#md750155865" x="107.299586" y="352.317456" style="fill: #2563eb; stroke: #2563eb"/>
     <use xlink:href="#md750155865" x="107.299586" y="344.866558" style="fill: #2563eb; stroke: #2563eb"/>
     <use xlink:href="#md750155865" x="110.368651" y="341.14111" style="fill: #2563eb; stroke: #2563eb"/>
     <use xlink:href="#md750155865" x="112.122403" y="340.023475" style="fill: #2563eb; stroke: #2563eb"/>
     <use xlink:href="#md750155865" x="118.260535" y="334.435302" style="fill: #2563eb; stroke: #2563eb"/>
     <use xlink:href="#md750155865" x="120.014287" y="281.533929" style="fill: #2563eb; stroke: #2563eb"/>
     <use xlink:href="#md750155865" x="133.605864" y="261.416506" style="fill: #2563eb; stroke: #2563eb"/>
     <use xlink:href="#md750155865" x="154.212448" y="233.47564" style="fill: #2563eb; stroke: #2563eb"/>
     <use xlink:href="#md750155865" x="164.734959" y="230.122736" style="fill: #2563eb; stroke: #2563eb"/>
     <use xlink:href="#md750155865" x="171.311529" y="215.593486" style="fill: #2563eb; stroke: #2563eb"/>
     <use xlink:href="#md750155865" x="176.572784" y="213.358216" style="fill: #2563eb; stroke: #2563eb"/>
     <use xlink:href="#md750155865" x="187.972171" y="205.534774" style="fill: #2563eb; stroke: #2563eb"/>
     <use xlink:href="#md750155865" x="196.740931" y="201.064235" style="fill: #2563eb; stroke: #2563eb"/>
     <use xlink:href="#md750155865" x="204.632814" y="199.574056" style="fill: #2563eb; stroke: #2563eb"/>
     <use xlink:href="#md750155865" x="213.840011" y="198.456421" style="fill: #2563eb; stroke: #2563eb"/>
     <use xlink:href="#md750155865" x="219.101267" y="185.044806" style="fill: #2563eb; stroke: #2563eb"/>
     <use xlink:href="#md750155865" x="223.047209" y="184.672261" style="fill: #2563eb; stroke: #2563eb"/>
     <use xlink:href="#md750155865" x="224.800961" y="183.927171" style="fill: #2563eb; stroke: #2563eb"/>
     <use xlink:href="#md750155865" x="233.131282" y="180.201722" style="fill: #2563eb; stroke: #2563eb"/>
     <use xlink:href="#md750155865" x="239.269413" y="177.593908" style="fill: #2563eb; stroke: #2563eb"/>
     <use xlink:href="#md750155865" x="251.545677" y="154.496125" style="fill: #2563eb; stroke: #2563eb"/>
     <use xlink:href="#md750155865" x="263.383502" y="145.555048" style="fill: #2563eb; stroke: #2563eb"/>
     <use xlink:href="#md750155865" x="271.713823" y="134.006157" style="fill: #2563eb; stroke: #2563eb"/>
     <use xlink:href="#md750155865" x="287.49759" y="133.633612" style="fill: #2563eb; stroke: #2563eb"/>
     <use xlink:href="#md750155865" x="295.827911" y="122.084721" style="fill: #2563eb; stroke: #2563eb"/>
     <use xlink:href="#md750155865" x="303.719795" y="117.986727" style="fill: #2563eb; stroke: #2563eb"/>
     <use xlink:href="#md750155865" x="308.98105" y="113.516189" style="fill: #2563eb; stroke: #2563eb"/>
     <use xlink:href="#md750155865" x="313.803868" y="113.143644" style="fill: #2563eb; stroke: #2563eb"/>
     <use xlink:href="#md750155865" x="314.680744" y="112.398554" style="fill: #2563eb; stroke: #2563eb"/>
     <use xlink:href="#md750155865" x="319.941999" y="109.418195" style="fill: #2563eb; stroke: #2563eb"/>
     <use xlink:href="#md750155865" x="323.011065" y="108.300561" style="fill: #2563eb; stroke: #2563eb"/>
     <use xlink:href="#md750155865" x="327.833883" y="107.182926" style="fill: #2563eb; stroke: #2563eb"/>
     <use xlink:href="#md750155865" x="330.026073" y="105.692746" style="fill: #2563eb; stroke: #2563eb"/>
     <use xlink:href="#md750155865" x="333.533576" y="104.947657" style="fill: #2563eb; stroke: #2563eb"/>
     <use xlink:href="#md750155865" x="337.917956" y="104.202567" style="fill: #2563eb; stroke: #2563eb"/>
     <use xlink:href="#md750155865" x="338.356394" y="101.594753" style="fill: #2563eb; stroke: #2563eb"/>
     <use xlink:href="#md750155865" x="339.671708" y="99.359483" style="fill: #2563eb; stroke: #2563eb"/>
     <use xlink:href="#md750155865" x="343.617649" y="97.496759" style="fill: #2563eb; stroke: #2563eb"/>
     <use xlink:href="#md750155865" x="348.878905" y="96.751669" style="fill: #2563eb; stroke: #2563eb"/>
     <use xlink:href="#md750155865" x="349.317343" y="94.5164" style="fill: #2563eb; stroke: #2563eb"/>
     <use xlink:href="#md750155865" x="355.017037" y="91.908586" style="fill: #2563eb; stroke: #2563eb"/>
     <use xlink:href="#md750155865" x="356.332351" y="89.300772" style="fill: #2563eb; stroke: #2563eb"/>
     <use xlink:href="#md750155865" x="410.26022" y="88.555682" style="fill: #2563eb; stroke: #2563eb"/>
     <use xlink:href="#md750155865" x="412.45241" y="85.947868" style="fill: #2563eb; stroke: #2563eb"/>
     <use xlink:href="#md750155865" x="421.22117" y="85.575323" style="fill: #2563eb; stroke: #2563eb"/>
     <use xlink:href="#md750155865" x="427.797739" y="84.457688" style="fill: #2563eb; stroke: #2563eb"/>
     <use xlink:href="#md750155865" x="429.551491" y="81.849874" style="fill: #2563eb; stroke: #2563eb"/>
     <use xlink:href="#md750155865" x="434.374309" y="79.614605" style="fill: #2563eb; stroke: #2563eb"/>
     <use xlink:href="#md750155865" x="436.566498" y="77.379336" style="fill: #2563eb; stroke: #2563eb"/>
     <use xlink:href="#md750155865" x="440.074002" y="76.634246" style="fill: #2563eb; stroke: #2563eb"/>
     <use xlink:href="#md750155865" x="443.581506" y="74.398977" style="fill: #2563eb; stroke: #2563eb"/>
     <use xlink:href="#md750155865" x="444.458382" y="72.908797" style="fill: #2563eb; stroke: #2563eb"/>
     <use xlink:href="#md750155865" x="451.473389" y="72.163707" style="fill: #2563eb; stroke: #2563eb"/>
     <use xlink:href="#md750155865" x="452.788703" y="69.183348" style="fill: #2563eb; stroke: #2563eb"/>
     <use xlink:href="#md750155865" x="452.788703" y="68.810803" style="fill: #2563eb; stroke: #2563eb"/>
     <use xlink:href="#md750155865" x="453.227141" y="68.438259" style="fill: #2563eb; stroke: #2563eb"/>
     <use xlink:href="#md750155865" x="454.980893" y="65.457899" style="fill: #2563eb; stroke: #2563eb"/>
     <use xlink:href="#md750155865" x="455.419331" y="64.71281" style="fill: #2563eb; stroke: #2563eb"/>
     <use xlink:href="#md750155865" x="461.9959" y="60.987361" style="fill: #2563eb; stroke: #2563eb"/>
     <use xlink:href="#md750155865" x="463.311214" y="60.614816" style="fill: #2563eb; stroke: #2563eb"/>
     <use xlink:href="#md750155865" x="469.010908" y="59.497181" style="fill: #2563eb; stroke: #2563eb"/>
     <use xlink:href="#md750155865" x="469.887784" y="55.399188" style="fill: #2563eb; stroke: #2563eb"/>
     <use xlink:href="#md750155865" x="476.902791" y="53.536463" style="fill: #2563eb; stroke: #2563eb"/>
     <use xlink:href="#md750155865" x="480.410295" y="53.163918" style="fill: #2563eb; stroke: #2563eb"/>
     <use xlink:href="#md750155865" x="484.794675" y="48.69338" style="fill: #2563eb; stroke: #2563eb"/>
     <use xlink:href="#md750155865" x="488.740616" y="48.320835" style="fill: #2563eb; stroke: #2563eb"/>
     <use xlink:href="#md750155865" x="501.893755" y="45.340476" style="fill: #2563eb; stroke: #2563eb"/>
     <use xlink:href="#md750155865" x="509.347201" y="44.967931" style="fill: #2563eb; stroke: #2563eb"/>
     <use xlink:href="#md750155865" x="517.239084" y="44.222841" style="fill: #2563eb; stroke: #2563eb"/>
     <use xlink:href="#md750155865" x="564.590385" y="43.850297" style="fill: #2563eb; stroke: #2563eb"/>
     <use xlink:href="#md750155865" x="565.028823" y="43.477752" style="fill: #2563eb; stroke: #2563eb"/>
     <use xlink:href="#md750155865" x="565.905699" y="42.360117" style="fill: #2563eb; stroke: #2563eb"/>
     <use xlink:href="#md750155865" x="566.782574" y="41.615027" style="fill: #2563eb; stroke: #2563eb"/>
     <use xlink:href="#md750155865" x="572.482268" y="41.242482" style="fill: #2563eb; stroke: #2563eb"/>
     <use xlink:href="#md750155865" x="572.920706" y="40.869937" style="fill: #2563eb; stroke: #2563eb"/>
    </g>
   </g>
   <g id="line2d_14">
    <path d="M 66.963293 393.669937 
L 67.840169 392.552303 
L 67.840169 391.807213 
L 67.840169 391.062123 
L 68.278607 390.317034 
L 68.717044 389.571944 
L 70.470796 387.709219 
L 72.224548 386.96413 
L 74.416738 379.513232 
L 74.855176 375.787783 
L 77.047366 375.415238 
L 77.485804 375.042694 
L 77.485804 369.827065 
L 80.55487 369.081976 
L 80.55487 367.219251 
L 83.623935 361.258533 
L 86.254563 360.513443 
L 86.254563 358.650719 
L 88.446753 355.67036 
L 89.762067 353.807635 
L 90.638943 353.435091 
L 92.392695 351.199821 
L 92.831133 350.827276 
L 92.831133 350.454732 
L 92.831133 350.082187 
L 95.46176 346.729283 
L 95.900198 345.611648 
L 98.969264 343.376379 
L 98.969264 343.003834 
L 99.84614 341.14111 
L 102.03833 340.768565 
L 103.353644 338.90584 
L 103.353644 338.160751 
L 103.792082 331.827488 
L 106.861148 328.847129 
L 107.738024 328.474584 
L 110.807089 327.729494 
L 112.122403 325.12168 
L 112.122403 324.004045 
L 114.753031 322.886411 
L 114.753031 321.023686 
L 115.629907 319.906052 
L 116.506783 318.415872 
L 116.945221 318.043327 
L 117.822097 316.925693 
L 118.698973 314.690423 
L 120.891162 313.572789 
L 121.768038 312.827699 
L 121.768038 312.455154 
L 123.960228 312.082609 
L 123.960228 310.219885 
L 125.275542 309.474795 
L 125.275542 307.612071 
L 127.029294 306.494436 
L 127.467732 305.749346 
L 127.467732 305.004256 
L 130.09836 303.514077 
L 131.413674 302.023897 
L 132.29055 301.278808 
L 132.728988 300.906263 
L 133.605864 300.533718 
L 134.044301 299.788628 
L 134.044301 299.416083 
L 136.236491 298.670993 
L 137.551805 298.298449 
L 137.551805 297.925904 
L 139.305557 296.435724 
L 139.305557 296.063179 
L 140.620871 294.945545 
L 141.059309 294.200455 
L 141.936185 293.08282 
L 143.251499 292.710275 
L 143.251499 292.337731 
L 144.128375 291.220096 
L 144.566813 290.847551 
L 145.443689 288.984827 
L 146.320565 288.612282 
L 146.759003 287.867192 
L 146.759003 287.494647 
L 148.074316 287.122102 
L 148.512754 286.377012 
L 149.828068 285.259378 
L 150.704944 284.886833 
L 151.143382 284.514288 
L 151.143382 284.141743 
L 151.58182 283.769198 
L 152.020258 283.024109 
L 153.335572 282.279019 
L 153.335572 281.906474 
L 154.212448 281.533929 
L 154.650886 281.161384 
L 156.404638 280.788839 
L 158.15839 280.416294 
L 159.035266 280.04375 
L 159.035266 279.671205 
L 160.789017 279.29866 
L 160.789017 278.55357 
L 161.665893 277.435935 
L 163.858083 277.063391 
" clip-path="url(#p0e2f6c7917)" style="fill: none; stroke: #dc2626; stroke-width: 2; stroke-linecap: round"/>
    <defs>
     <path id="m4c6c9dc278" d="M 0 2 
C 0.530406 2 1.03916 1.789267 1.414214 1.414214 
C 1.789267 1.03916 2 0.530406 2 0 
C 2 -0.530406 1.789267 -1.03916 1.414214 -1.414214 
C 1.03916 -1.789267 0.530406 -2 0 -2 
C -0.530406 -2 -1.03916 -1.789267 -1.414214 -1.414214 
C -1.789267 -1.03916 -2 -0.530406 -2 0 
C -2 0.530406 -1.789267 1.03916 -1.414214 1.414214 
C -1.03916 1.789267 -0.530406 2 0 2 
z
" style="stroke: #dc2626"/>
    </defs>
    <g clip-path="url(#p0e2f6c7917)">
     <use xlink:href="#m4c6c9dc278" x="66.963293" y="393.669937" style="fill: #dc2626; stroke: #dc2626"/>
     <use xlink:href="#m4c6c9dc278" x="67.840169" y="392.552303" style="fill: #dc2626; stroke: #dc2626"/>
     <use xlink:href="#m4c6c9dc278" x="67.840169" y="391.807213" style="fill: #dc2626; stroke: #dc2626"/>
     <use xlink:href="#m4c6c9dc278" x="67.840169" y="391.062123" style="fill: #dc2626; stroke: #dc2626"/>
     <use xlink:href="#m4c6c9dc278" x="68.278607" y="390.317034" style="fill: #dc2626; stroke: #dc2626"/>
     <use xlink:href="#m4c6c9dc278" x="68.717044" y="389.571944" style="fill: #dc2626; stroke: #dc2626"/>
     <use xlink:href="#m4c6c9dc278" x="70.470796" y="387.709219" style="fill: #dc2626; stroke: #dc2626"/>
     <use xlink:href="#m4c6c9dc278" x="72.224548" y="386.96413" style="fill: #dc2626; stroke: #dc2626"/>
     <use xlink:href="#m4c6c9dc278" x="74.416738" y="379.513232" style="fill: #dc2626; stroke: #dc2626"/>
     <use xlink:href="#m4c6c9dc278" x="74.855176" y="375.787783" style="fill: #dc2626; stroke: #dc2626"/>
     <use xlink:href="#m4c6c9dc278" x="77.047366" y="375.415238" style="fill: #dc2626; stroke: #dc2626"/>
     <use xlink:href="#m4c6c9dc278" x="77.485804" y="375.042694" style="fill: #dc2626; stroke: #dc2626"/>
     <use xlink:href="#m4c6c9dc278" x="77.485804" y="369.827065" style="fill: #dc2626; stroke: #dc2626"/>
     <use xlink:href="#m4c6c9dc278" x="80.55487" y="369.081976" style="fill: #dc2626; stroke: #dc2626"/>
     <use xlink:href="#m4c6c9dc278" x="80.55487" y="367.219251" style="fill: #dc2626; stroke: #dc2626"/>
     <use xlink:href="#m4c6c9dc278" x="83.623935" y="361.258533" style="fill: #dc2626; stroke: #dc2626"/>
     <use xlink:href="#m4c6c9dc278" x="86.254563" y="360.513443" style="fill: #dc2626; stroke: #dc2626"/>
     <use xlink:href="#m4c6c9dc278" x="86.254563" y="358.650719" style="fill: #dc2626; stroke: #dc2626"/>
     <use xlink:href="#m4c6c9dc278" x="88.446753" y="355.67036" style="fill: #dc2626; stroke: #dc2626"/>
     <use xlink:href="#m4c6c9dc278" x="89.762067" y="353.807635" style="fill: #dc2626; stroke: #dc2626"/>
     <use xlink:href="#m4c6c9dc278" x="90.638943" y="353.435091" style="fill: #dc2626; stroke: #dc2626"/>
     <use xlink:href="#m4c6c9dc278" x="92.392695" y="351.199821" style="fill: #dc2626; stroke: #dc2626"/>
     <use xlink:href="#m4c6c9dc278" x="92.831133" y="350.827276" style="fill: #dc2626; stroke: #dc2626"/>
     <use xlink:href="#m4c6c9dc278" x="92.831133" y="350.454732" style="fill: #dc2626; stroke: #dc2626"/>
     <use xlink:href="#m4c6c9dc278" x="92.831133" y="350.082187" style="fill: #dc2626; stroke: #dc2626"/>
     <use xlink:href="#m4c6c9dc278" x="95.46176" y="346.729283" style="fill: #dc2626; stroke: #dc2626"/>
     <use xlink:href="#m4c6c9dc278" x="95.900198" y="345.611648" style="fill: #dc2626; stroke: #dc2626"/>
     <use xlink:href="#m4c6c9dc278" x="98.969264" y="343.376379" style="fill: #dc2626; stroke: #dc2626"/>
     <use xlink:href="#m4c6c9dc278" x="98.969264" y="343.003834" style="fill: #dc2626; stroke: #dc2626"/>
     <use xlink:href="#m4c6c9dc278" x="99.84614" y="341.14111" style="fill: #dc2626; stroke: #dc2626"/>
     <use xlink:href="#m4c6c9dc278" x="102.03833" y="340.768565" style="fill: #dc2626; stroke: #dc2626"/>
     <use xlink:href="#m4c6c9dc278" x="103.353644" y="338.90584" style="fill: #dc2626; stroke: #dc2626"/>
     <use xlink:href="#m4c6c9dc278" x="103.353644" y="338.160751" style="fill: #dc2626; stroke: #dc2626"/>
     <use xlink:href="#m4c6c9dc278" x="103.792082" y="331.827488" style="fill: #dc2626; stroke: #dc2626"/>
     <use xlink:href="#m4c6c9dc278" x="106.861148" y="328.847129" style="fill: #dc2626; stroke: #dc2626"/>
     <use xlink:href="#m4c6c9dc278" x="107.738024" y="328.474584" style="fill: #dc2626; stroke: #dc2626"/>
     <use xlink:href="#m4c6c9dc278" x="110.807089" y="327.729494" style="fill: #dc2626; stroke: #dc2626"/>
     <use xlink:href="#m4c6c9dc278" x="112.122403" y="325.12168" style="fill: #dc2626; stroke: #dc2626"/>
     <use xlink:href="#m4c6c9dc278" x="112.122403" y="324.004045" style="fill: #dc2626; stroke: #dc2626"/>
     <use xlink:href="#m4c6c9dc278" x="114.753031" y="322.886411" style="fill: #dc2626; stroke: #dc2626"/>
     <use xlink:href="#m4c6c9dc278" x="114.753031" y="321.023686" style="fill: #dc2626; stroke: #dc2626"/>
     <use xlink:href="#m4c6c9dc278" x="115.629907" y="319.906052" style="fill: #dc2626; stroke: #dc2626"/>
     <use xlink:href="#m4c6c9dc278" x="116.506783" y="318.415872" style="fill: #dc2626; stroke: #dc2626"/>
     <use xlink:href="#m4c6c9dc278" x="116.945221" y="318.043327" style="fill: #dc2626; stroke: #dc2626"/>
     <use xlink:href="#m4c6c9dc278" x="117.822097" y="316.925693" style="fill: #dc2626; stroke: #dc2626"/>
     <use xlink:href="#m4c6c9dc278" x="118.698973" y="314.690423" style="fill: #dc2626; stroke: #dc2626"/>
     <use xlink:href="#m4c6c9dc278" x="120.891162" y="313.572789" style="fill: #dc2626; stroke: #dc2626"/>
     <use xlink:href="#m4c6c9dc278" x="121.768038" y="312.827699" style="fill: #dc2626; stroke: #dc2626"/>
     <use xlink:href="#m4c6c9dc278" x="121.768038" y="312.455154" style="fill: #dc2626; stroke: #dc2626"/>
     <use xlink:href="#m4c6c9dc278" x="123.960228" y="312.082609" style="fill: #dc2626; stroke: #dc2626"/>
     <use xlink:href="#m4c6c9dc278" x="123.960228" y="310.219885" style="fill: #dc2626; stroke: #dc2626"/>
     <use xlink:href="#m4c6c9dc278" x="125.275542" y="309.474795" style="fill: #dc2626; stroke: #dc2626"/>
     <use xlink:href="#m4c6c9dc278" x="125.275542" y="307.612071" style="fill: #dc2626; stroke: #dc2626"/>
     <use xlink:href="#m4c6c9dc278" x="127.029294" y="306.494436" style="fill: #dc2626; stroke: #dc2626"/>
     <use xlink:href="#m4c6c9dc278" x="127.467732" y="305.749346" style="fill: #dc2626; stroke: #dc2626"/>
     <use xlink:href="#m4c6c9dc278" x="127.467732" y="305.004256" style="fill: #dc2626; stroke: #dc2626"/>
     <use xlink:href="#m4c6c9dc278" x="130.09836" y="303.514077" style="fill: #dc2626; stroke: #dc2626"/>
     <use xlink:href="#m4c6c9dc278" x="131.413674" y="302.023897" style="fill: #dc2626; stroke: #dc2626"/>
     <use xlink:href="#m4c6c9dc278" x="132.29055" y="301.278808" style="fill: #dc2626; stroke: #dc2626"/>
     <use xlink:href="#m4c6c9dc278" x="132.728988" y="300.906263" style="fill: #dc2626; stroke: #dc2626"/>
     <use xlink:href="#m4c6c9dc278" x="133.605864" y="300.533718" style="fill: #dc2626; stroke: #dc2626"/>
     <use xlink:href="#m4c6c9dc278" x="134.044301" y="299.788628" style="fill: #dc2626; stroke: #dc2626"/>
     <use xlink:href="#m4c6c9dc278" x="134.044301" y="299.416083" style="fill: #dc2626; stroke: #dc2626"/>
     <use xlink:href="#m4c6c9dc278" x="136.236491" y="298.670993" style="fill: #dc2626; stroke: #dc2626"/>
     <use xlink:href="#m4c6c9dc278" x="137.551805" y="298.298449" style="fill: #dc2626; stroke: #dc2626"/>
     <use xlink:href="#m4c6c9dc278" x="137.551805" y="297.925904" style="fill: #dc2626; stroke: #dc2626"/>
     <use xlink:href="#m4c6c9dc278" x="139.305557" y="296.435724" style="fill: #dc2626; stroke: #dc2626"/>
     <use xlink:href="#m4c6c9dc278" x="139.305557" y="296.063179" style="fill: #dc2626; stroke: #dc2626"/>
     <use xlink:href="#m4c6c9dc278" x="140.620871" y="294.945545" style="fill: #dc2626; stroke: #dc2626"/>
     <use xlink:href="#m4c6c9dc278" x="141.059309" y="294.200455" style="fill: #dc2626; stroke: #dc2626"/>
     <use xlink:href="#m4c6c9dc278" x="141.936185" y="293.08282" style="fill: #dc2626; stroke: #dc2626"/>
     <use xlink:href="#m4c6c9dc278" x="143.251499" y="292.710275" style="fill: #dc2626; stroke: #dc2626"/>
     <use xlink:href="#m4c6c9dc278" x="143.251499" y="292.337731" style="fill: #dc2626; stroke: #dc2626"/>
     <use xlink:href="#m4c6c9dc278" x="144.128375" y="291.220096" style="fill: #dc2626; stroke: #dc2626"/>
     <use xlink:href="#m4c6c9dc278" x="144.566813" y="290.847551" style="fill: #dc2626; stroke: #dc2626"/>
     <use xlink:href="#m4c6c9dc278" x="145.443689" y="288.984827" style="fill: #dc2626; stroke: #dc2626"/>
     <use xlink:href="#m4c6c9dc278" x="146.320565" y="288.612282" style="fill: #dc2626; stroke: #dc2626"/>
     <use xlink:href="#m4c6c9dc278" x="146.759003" y="287.867192" style="fill: #dc2626; stroke: #dc2626"/>
     <use xlink:href="#m4c6c9dc278" x="146.759003" y="287.494647" style="fill: #dc2626; stroke: #dc2626"/>
     <use xlink:href="#m4c6c9dc278" x="148.074316" y="287.122102" style="fill: #dc2626; stroke: #dc2626"/>
     <use xlink:href="#m4c6c9dc278" x="148.512754" y="286.377012" style="fill: #dc2626; stroke: #dc2626"/>
     <use xlink:href="#m4c6c9dc278" x="149.828068" y="285.259378" style="fill: #dc2626; stroke: #dc2626"/>
     <use xlink:href="#m4c6c9dc278" x="150.704944" y="284.886833" style="fill: #dc2626; stroke: #dc2626"/>
     <use xlink:href="#m4c6c9dc278" x="151.143382" y="284.514288" style="fill: #dc2626; stroke: #dc2626"/>
     <use xlink:href="#m4c6c9dc278" x="151.143382" y="284.141743" style="fill: #dc2626; stroke: #dc2626"/>
     <use xlink:href="#m4c6c9dc278" x="151.58182" y="283.769198" style="fill: #dc2626; stroke: #dc2626"/>
     <use xlink:href="#m4c6c9dc278" x="152.020258" y="283.024109" style="fill: #dc2626; stroke: #dc2626"/>
     <use xlink:href="#m4c6c9dc278" x="153.335572" y="282.279019" style="fill: #dc2626; stroke: #dc2626"/>
     <use xlink:href="#m4c6c9dc278" x="153.335572" y="281.906474" style="fill: #dc2626; stroke: #dc2626"/>
     <use xlink:href="#m4c6c9dc278" x="154.212448" y="281.533929" style="fill: #dc2626; stroke: #dc2626"/>
     <use xlink:href="#m4c6c9dc278" x="154.650886" y="281.161384" style="fill: #dc2626; stroke: #dc2626"/>
     <use xlink:href="#m4c6c9dc278" x="156.404638" y="280.788839" style="fill: #dc2626; stroke: #dc2626"/>
     <use xlink:href="#m4c6c9dc278" x="158.15839" y="280.416294" style="fill: #dc2626; stroke: #dc2626"/>
     <use xlink:href="#m4c6c9dc278" x="159.035266" y="280.04375" style="fill: #dc2626; stroke: #dc2626"/>
     <use xlink:href="#m4c6c9dc278" x="159.035266" y="279.671205" style="fill: #dc2626; stroke: #dc2626"/>
     <use xlink:href="#m4c6c9dc278" x="160.789017" y="279.29866" style="fill: #dc2626; stroke: #dc2626"/>
     <use xlink:href="#m4c6c9dc278" x="160.789017" y="278.55357" style="fill: #dc2626; stroke: #dc2626"/>
     <use xlink:href="#m4c6c9dc278" x="161.665893" y="277.435935" style="fill: #dc2626; stroke: #dc2626"/>
     <use xlink:href="#m4c6c9dc278" x="163.858083" y="277.063391" style="fill: #dc2626; stroke: #dc2626"/>
    </g>
   </g>
   <g id="patch_3">
    <path d="M 41.599656 411.309937 
L 41.599656 23.229937 
" style="fill: none; stroke: #cccccc; stroke-width: 1.25; stroke-linejoin: miter; stroke-linecap: square"/>
   </g>
   <g id="patch_4">
    <path d="M 599.599656 411.309937 
L 599.599656 23.229937 
" style="fill: none; stroke: #cccccc; stroke-width: 1.25; stroke-linejoin: miter; stroke-linecap: square"/>
   </g>
   <g id="patch_5">
    <path d="M 41.599656 411.309937 
L 599.599656 411.309937 
" style="fill: none; stroke: #cccccc; stroke-width: 1.25; stroke-linejoin: miter; stroke-linecap: square"/>
   </g>
   <g id="patch_6">
    <path d="M 41.599656 23.229938 
L 599.599656 23.229938 
" style="fill: none; stroke: #cccccc; stroke-width: 1.25; stroke-linejoin: miter; stroke-linecap: square"/>
   </g>
   <g id="text_15">
    <!-- Pareto Frontiers: CO₂ Savings vs Overhead — US -->
    <g style="fill: #262626" transform="translate(160.533156 17.229938) scale(0.132 -0.132)">
     <defs>
      <path id="DejaVuSans-33" d="M 1259 4147 
L 1259 2394 
L 2053 2394 
Q 2494 2394 2734 2622 
Q 2975 2850 2975 3272 
Q 2975 3691 2734 3919 
Q 2494 4147 2053 4147 
L 1259 4147 
z
M 628 4666 
L 2053 4666 
Q 2838 4666 3239 4311 
Q 3641 3956 3641 3272 
Q 3641 2581 3239 2228 
Q 2838 1875 2053 1875 
L 1259 1875 
L 1259 0 
L 628 0 
L 628 4666 
z
" transform="scale(0.015625)"/>
      <path id="DejaVuSans-57" d="M 1172 4494 
L 1172 3500 
L 2356 3500 
L 2356 3053 
L 1172 3053 
L 1172 1153 
Q 1172 725 1289 603 
Q 1406 481 1766 481 
L 2356 481 
L 2356 0 
L 1766 0 
Q 1100 0 847 248 
Q 594 497 594 1153 
L 594 3053 
L 172 3053 
L 172 3500 
L 594 3500 
L 594 4494 
L 1172 4494 
z
" transform="scale(0.015625)"/>
      <path id="DejaVuSans-52" d="M 1959 3097 
Q 1497 3097 1228 2736 
Q 959 2375 959 1747 
Q 959 1119 1226 758 
Q 1494 397 1959 397 
Q 2419 397 2687 759 
Q 2956 1122 2956 1747 
Q 2956 2369 2687 2733 
Q 2419 3097 1959 3097 
z
M 1959 3584 
Q 2709 3584 3137 3096 
Q 3566 2609 3566 1747 
Q 3566 888 3137 398 
Q 2709 -91 1959 -91 
Q 1206 -91 779 398 
Q 353 888 353 1747 
Q 353 2609 779 3096 
Q 1206 3584 1959 3584 
z
" transform="scale(0.015625)"/>
      <path id="DejaVuSans-29" d="M 628 4666 
L 3309 4666 
L 3309 4134 
L 1259 4134 
L 1259 2759 
L 3109 2759 
L 3109 2228 
L 1259 2228 
L 1259 0 
L 628 0 
L 628 4666 
z
" transform="scale(0.015625)"/>
      <path id="DejaVuSans-1d" d="M 750 794 
L 1409 794 
L 1409 0 
L 750 0 
L 750 794 
z
M 750 3309 
L 1409 3309 
L 1409 2516 
L 750 2516 
L 750 3309 
z
" transform="scale(0.015625)"/>
      <path id="DejaVuSans-af6" d="M 313 1978 
L 6088 1978 
L 6088 1528 
L 313 1528 
L 313 1978 
z
" transform="scale(0.015625)"/>
      <path id="DejaVuSans-38" d="M 556 4666 
L 1191 4666 
L 1191 1831 
Q 1191 1081 1462 751 
Q 1734 422 2344 422 
Q 2950 422 3222 751 
Q 3494 1081 3494 1831 
L 3494 4666 
L 4128 4666 
L 4128 1753 
Q 4128 841 3676 375 
Q 3225 -91 2344 -91 
Q 1459 -91 1007 375 
Q 556 841 556 1753 
L 556 4666 
z
" transform="scale(0.015625)"/>
     </defs>
     <use xlink:href="#DejaVuSans-33"/>
     <use xlink:href="#DejaVuSans-44" transform="translate(55.8125 0)"/>
     <use xlink:href="#DejaVuSans-55" transform="translate(117.09375 0)"/>
     <use xlink:href="#DejaVuSans-48" transform="translate(156 0)"/>
     <use xlink:href="#DejaVuSans-57" transform="translate(217.53125 0)"/>
     <use xlink:href="#DejaVuSans-52" transform="translate(256.734375 0)"/>
     <use xlink:href="#DejaVuSans-3" transform="translate(317.921875 0)"/>
     <use xlink:href="#DejaVuSans-29" transform="translate(349.703125 0)"/>
     <use xlink:href="#DejaVuSans-55" transform="translate(399.9375 0)"/>
     <use xlink:href="#DejaVuSans-52" transform="translate(438.84375 0)"/>
     <use xlink:href="#DejaVuSans-51" transform="translate(500.03125 0)"/>
     <use xlink:href="#DejaVuSans-57" transform="translate(563.40625 0)"/>
     <use xlink:href="#DejaVuSans-4c" transform="translate(602.609375 0)"/>
     <use xlink:href="#DejaVuSans-48" transform="translate(630.390625 0)"/>
     <use xlink:href="#DejaVuSans-55" transform="translate(691.921875 0)"/>
     <use xlink:href="#DejaVuSans-56" transform="translate(733.03125 0)"/>
     <use xlink:href="#DejaVuSans-1d" transform="translate(785.125 0)"/>
     <use xlink:href="#DejaVuSans-3" transform="translate(818.8125 0)"/>
     <use xlink:href="#DejaVuSans-26" transform="translate(850.59375 0)"/>
     <use xlink:href="#DejaVuSans-32" transform="translate(920.421875 0)"/>
     <use xlink:href="#DejaVuSans-b5d" transform="translate(999.140625 0)"/>
     <use xlink:href="#DejaVuSans-3" transform="translate(1039.234375 0)"/>
     <use xlink:href="#DejaVuSans-36" transform="translate(1071.015625 0)"/>
     <use xlink:href="#DejaVuSans-44" transform="translate(1134.5 0)"/>
     <use xlink:href="#DejaVuSans-59" transform="translate(1195.78125 0)"/>
     <use xlink:href="#DejaVuSans-4c" transform="translate(1254.96875 0)"/>
     <use xlink:href="#DejaVuSans-51" transform="translate(1282.75 0)"/>
     <use xlink:href="#DejaVuSans-4a" transform="translate(1346.125 0)"/>
     <use xlink:href="#DejaVuSans-56" transform="translate(1409.609375 0)"/>
     <use xlink:href="#DejaVuSans-3" transform="translate(1461.703125 0)"/>
     <use xlink:href="#DejaVuSans-59" transform="translate(1493.484375 0)"/>
     <use xlink:href="#DejaVuSans-56" transform="translate(1552.671875 0)"/>
     <use xlink:href="#DejaVuSans-3" transform="translate(1604.765625 0)"/>
     <use xlink:href="#DejaVuSans-32" transform="translate(1636.546875 0)"/>
     <use xlink:href="#DejaVuSans-59" transform="translate(1715.265625 0)"/>
     <use xlink:href="#DejaVuSans-48" transform="translate(1774.453125 0)"/>
     <use xlink:href="#DejaVuSans-55" transform="translate(1835.984375 0)"/>
     <use xlink:href="#DejaVuSans-4b" transform="translate(1875.34375 0)"/>
     <use xlink:href="#DejaVuSans-48" transform="translate(1938.71875 0)"/>
     <use xlink:href="#DejaVuSans-44" transform="translate(2000.25 0)"/>
     <use xlink:href="#DejaVuSans-47" transform="translate(2061.53125 0)"/>
     <use xlink:href="#DejaVuSans-3" transform="translate(2125.015625 0)"/>
     <use xlink:href="#DejaVuSans-af6" transform="translate(2156.796875 0)"/>
     <use xlink:href="#DejaVuSans-3" transform="translate(2256.796875 0)"/>
     <use xlink:href="#DejaVuSans-38" transform="translate(2288.578125 0)"/>
     <use xlink:href="#DejaVuSans-36" transform="translate(2361.765625 0)"/>
    </g>
   </g>
   <g id="legend_1">
    <g id="patch_7">
     <path d="M 446.059656 406.809937 
L 593.299656 406.809937 
Q 595.099656 406.809937 595.099656 405.009937 
L 595.099656 351.907125 
Q 595.099656 350.107125 593.299656 350.107125 
L 446.059656 350.107125 
Q 444.259656 350.107125 444.259656 351.907125 
L 444.259656 405.009937 
Q 444.259656 406.809937 446.059656 406.809937 
z
" style="fill: #ffffff; opacity: 0.8; stroke: #cccccc; stroke-linejoin: miter"/>
    </g>
    <g id="line2d_15">
     <path d="M 447.859656 357.395719 
L 456.859656 357.395719 
L 465.859656 357.395719 
" style="fill: none; stroke: #2563eb; stroke-width: 2; stroke-linecap: round"/>
     <g>
      <use xlink:href="#md750155865" x="456.859656" y="357.395719" style="fill: #2563eb; stroke: #2563eb"/>
     </g>
    </g>
    <g id="text_16">
     <!-- DeepSeek V3 frontier -->
     <g style="fill: #262626" transform="translate(473.059656 360.545719) scale(0.09 -0.09)">
      <defs>
       <path id="DejaVuSans-27" d="M 1259 4147 
L 1259 519 
L 2022 519 
Q 2988 519 3436 956 
Q 3884 1394 3884 2338 
Q 3884 3275 3436 3711 
Q 2988 4147 2022 4147 
L 1259 4147 
z
M 628 4666 
L 1925 4666 
Q 3281 4666 3915 4102 
Q 4550 3538 4550 2338 
Q 4550 1131 3912 565 
Q 3275 0 1925 0 
L 628 0 
L 628 4666 
z
" transform="scale(0.015625)"/>
       <path id="DejaVuSans-53" d="M 1159 525 
L 1159 -1331 
L 581 -1331 
L 581 3500 
L 1159 3500 
L 1159 2969 
Q 1341 3281 1617 3432 
Q 1894 3584 2278 3584 
Q 2916 3584 3314 3078 
Q 3713 2572 3713 1747 
Q 3713 922 3314 415 
Q 2916 -91 2278 -91 
Q 1894 -91 1617 61 
Q 1341 213 1159 525 
z
M 3116 1747 
Q 3116 2381 2855 2742 
Q 2594 3103 2138 3103 
Q 1681 3103 1420 2742 
Q 1159 2381 1159 1747 
Q 1159 1113 1420 752 
Q 1681 391 2138 391 
Q 2594 391 2855 752 
Q 3116 1113 3116 1747 
z
" transform="scale(0.015625)"/>
       <path id="DejaVuSans-4e" d="M 581 4863 
L 1159 4863 
L 1159 1991 
L 2875 3500 
L 3609 3500 
L 1753 1863 
L 3688 0 
L 2938 0 
L 1159 1709 
L 1159 0 
L 581 0 
L 581 4863 
z
" transform="scale(0.015625)"/>
       <path id="DejaVuSans-39" d="M 1831 0 
L 50 4666 
L 709 4666 
L 2188 738 
L 3669 4666 
L 4325 4666 
L 2547 0 
L 1831 0 
z
" transform="scale(0.015625)"/>
       <path id="DejaVuSans-16" d="M 2597 2516 
Q 3050 2419 3304 2112 
Q 3559 1806 3559 1356 
Q 3559 666 3084 287 
Q 2609 -91 1734 -91 
Q 1441 -91 1130 -33 
Q 819 25 488 141 
L 488 750 
Q 750 597 1062 519 
Q 1375 441 1716 441 
Q 2309 441 2620 675 
Q 2931 909 2931 1356 
Q 2931 1769 2642 2001 
Q 2353 2234 1838 2234 
L 1294 2234 
L 1294 2753 
L 1863 2753 
Q 2328 2753 2575 2939 
Q 2822 3125 2822 3475 
Q 2822 3834 2567 4026 
Q 2313 4219 1838 4219 
Q 1578 4219 1281 4162 
Q 984 4106 628 3988 
L 628 4550 
Q 988 4650 1302 4700 
Q 1616 4750 1894 4750 
Q 2613 4750 3031 4423 
Q 3450 4097 3450 3541 
Q 3450 3153 3228 2886 
Q 3006 2619 2597 2516 
z
" transform="scale(0.015625)"/>
       <path id="DejaVuSans-49" d="M 2375 4863 
L 2375 4384 
L 1825 4384 
Q 1516 4384 1395 4259 
Q 1275 4134 1275 3809 
L 1275 3500 
L 2222 3500 
L 2222 3053 
L 1275 3053 
L 1275 0 
L 697 0 
L 697 3053 
L 147 3053 
L 147 3500 
L 697 3500 
L 697 3744 
Q 697 4328 969 4595 
Q 1241 4863 1831 4863 
L 2375 4863 
z
" transform="scale(0.015625)"/>
      </defs>
      <use xlink:href="#DejaVuSans-27"/>
      <use xlink:href="#DejaVuSans-48" transform="translate(77 0)"/>
      <use xlink:href="#DejaVuSans-48" transform="translate(138.53125 0)"/>
      <use xlink:href="#DejaVuSans-53" transform="translate(200.0625 0)"/>
      <use xlink:href="#DejaVuSans-36" transform="translate(263.546875 0)"/>
      <use xlink:href="#DejaVuSans-48" transform="translate(327.03125 0)"/>
      <use xlink:href="#DejaVuSans-48" transform="translate(388.5625 0)"/>
      <use xlink:href="#DejaVuSans-4e" transform="translate(450.09375 0)"/>
      <use xlink:href="#DejaVuSans-3" transform="translate(508 0)"/>
      <use xlink:href="#DejaVuSans-39" transform="translate(539.78125 0)"/>
      <use xlink:href="#DejaVuSans-16" transform="translate(608.1875 0)"/>
      <use xlink:href="#DejaVuSans-3" transform="translate(671.8125 0)"/>
      <use xlink:href="#DejaVuSans-49" transform="translate(703.59375 0)"/>
      <use xlink:href="#DejaVuSans-55" transform="translate(738.796875 0)"/>
      <use xlink:href="#DejaVuSans-52" transform="translate(777.703125 0)"/>
      <use xlink:href="#DejaVuSans-51" transform="translate(838.890625 0)"/>
      <use xlink:href="#DejaVuSans-57" transform="translate(902.265625 0)"/>
      <use xlink:href="#DejaVuSans-4c" transform="translate(941.46875 0)"/>
      <use xlink:href="#DejaVuSans-48" transform="translate(969.25 0)"/>
      <use xlink:href="#DejaVuSans-55" transform="translate(1030.78125 0)"/>
     </g>
    </g>
    <g id="PathCollection_1">
     <defs>
      <path id="mc8d59dac3c" d="M 0 -7.071068 
L -1.587554 -2.18508 
L -6.724985 -2.18508 
L -2.568716 0.834626 
L -4.156269 5.720614 
L -0 2.700907 
L 4.156269 5.720614 
L 2.568716 0.834626 
L 6.724985 -2.18508 
L 1.587554 -2.18508 
z
" style="stroke: #000000"/>
     </defs>
     <g>
      <use xlink:href="#mc8d59dac3c" x="456.859656" y="371.683922" style="fill: #ff0000; stroke: #000000"/>
     </g>
    </g>
    <g id="text_17">
     <!-- DeepSeek V3 best (0.547) -->
     <g style="fill: #262626" transform="translate(473.059656 374.046422) scale(0.09 -0.09)">
      <defs>
       <path id="DejaVuSans-45" d="M 3116 1747 
Q 3116 2381 2855 2742 
Q 2594 3103 2138 3103 
Q 1681 3103 1420 2742 
Q 1159 2381 1159 1747 
Q 1159 1113 1420 752 
Q 1681 391 2138 391 
Q 2594 391 2855 752 
Q 3116 1113 3116 1747 
z
M 1159 2969 
Q 1341 3281 1617 3432 
Q 1894 3584 2278 3584 
Q 2916 3584 3314 3078 
Q 3713 2572 3713 1747 
Q 3713 922 3314 415 
Q 2916 -91 2278 -91 
Q 1894 -91 1617 61 
Q 1341 213 1159 525 
L 1159 0 
L 581 0 
L 581 4863 
L 1159 4863 
L 1159 2969 
z
" transform="scale(0.015625)"/>
       <path id="DejaVuSans-11" d="M 684 794 
L 1344 794 
L 1344 0 
L 684 0 
L 684 794 
z
" transform="scale(0.015625)"/>
       <path id="DejaVuSans-18" d="M 691 4666 
L 3169 4666 
L 3169 4134 
L 1269 4134 
L 1269 2991 
Q 1406 3038 1543 3061 
Q 1681 3084 1819 3084 
Q 2600 3084 3056 2656 
Q 3513 2228 3513 1497 
Q 3513 744 3044 326 
Q 2575 -91 1722 -91 
Q 1428 -91 1123 -41 
Q 819 9 494 109 
L 494 744 
Q 775 591 1075 516 
Q 1375 441 1709 441 
Q 2250 441 2565 725 
Q 2881 1009 2881 1497 
Q 2881 1984 2565 2268 
Q 2250 2553 1709 2553 
Q 1456 2553 1204 2497 
Q 953 2441 691 2322 
L 691 4666 
z
" transform="scale(0.015625)"/>
       <path id="DejaVuSans-1a" d="M 525 4666 
L 3525 4666 
L 3525 4397 
L 1831 0 
L 1172 0 
L 2766 4134 
L 525 4134 
L 525 4666 
z
" transform="scale(0.015625)"/>
      </defs>
      <use xlink:href="#DejaVuSans-27"/>
      <use xlink:href="#DejaVuSans-48" transform="translate(77 0)"/>
      <use xlink:href="#DejaVuSans-48" transform="translate(138.53125 0)"/>
      <use xlink:href="#DejaVuSans-53" transform="translate(200.0625 0)"/>
      <use xlink:href="#DejaVuSans-36" transform="translate(263.546875 0)"/>
      <use xlink:href="#DejaVuSans-48" transform="translate(327.03125 0)"/>
      <use xlink:href="#DejaVuSans-48" transform="translate(388.5625 0)"/>
      <use xlink:href="#DejaVuSans-4e" transform="translate(450.09375 0)"/>
      <use xlink:href="#DejaVuSans-3" transform="translate(508 0)"/>
      <use xlink:href="#DejaVuSans-39" transform="translate(539.78125 0)"/>
      <use xlink:href="#DejaVuSans-16" transform="translate(608.1875 0)"/>
      <use xlink:href="#DejaVuSans-3" transform="translate(671.8125 0)"/>
      <use xlink:href="#DejaVuSans-45" transform="translate(703.59375 0)"/>
      <use xlink:href="#DejaVuSans-48" transform="translate(767.078125 0)"/>
      <use xlink:href="#DejaVuSans-56" transform="translate(828.609375 0)"/>
      <use xlink:href="#DejaVuSans-57" transform="translate(880.703125 0)"/>
      <use xlink:href="#DejaVuSans-3" transform="translate(919.90625 0)"/>
      <use xlink:href="#DejaVuSans-b" transform="translate(951.6875 0)"/>
      <use xlink:href="#DejaVuSans-13" transform="translate(990.703125 0)"/>
      <use xlink:href="#DejaVuSans-11" transform="translate(1054.328125 0)"/>
      <use xlink:href="#DejaVuSans-18" transform="translate(1086.109375 0)"/>
      <use xlink:href="#DejaVuSans-17" transform="translate(1149.734375 0)"/>
      <use xlink:href="#DejaVuSans-1a" transform="translate(1213.359375 0)"/>
      <use xlink:href="#DejaVuSans-c" transform="translate(1276.984375 0)"/>
     </g>
    </g>
    <g id="line2d_16">
     <path d="M 447.859656 384.397125 
L 456.859656 384.397125 
L 465.859656 384.397125 
" style="fill: none; stroke: #dc2626; stroke-width: 2; stroke-linecap: round"/>
     <g>
      <use xlink:href="#m4c6c9dc278" x="456.859656" y="384.397125" style="fill: #dc2626; stroke: #dc2626"/>
     </g>
    </g>
    <g id="text_18">
     <!-- Kimi K2 frontier -->
     <g style="fill: #262626" transform="translate(473.059656 387.547125) scale(0.09 -0.09)">
      <defs>
       <path id="DejaVuSans-2e" d="M 628 4666 
L 1259 4666 
L 1259 2694 
L 3353 4666 
L 4166 4666 
L 1850 2491 
L 4331 0 
L 3500 0 
L 1259 2247 
L 1259 0 
L 628 0 
L 628 4666 
z
" transform="scale(0.015625)"/>
      </defs>
      <use xlink:href="#DejaVuSans-2e"/>
      <use xlink:href="#DejaVuSans-4c" transform="translate(65.578125 0)"/>
      <use xlink:href="#DejaVuSans-50" transform="translate(93.359375 0)"/>
      <use xlink:href="#DejaVuSans-4c" transform="translate(190.765625 0)"/>
      <use xlink:href="#DejaVuSans-3" transform="translate(218.546875 0)"/>
      <use xlink:href="#DejaVuSans-2e" transform="translate(250.328125 0)"/>
      <use xlink:href="#DejaVuSans-15" transform="translate(315.90625 0)"/>
      <use xlink:href="#DejaVuSans-3" transform="translate(379.53125 0)"/>
      <use xlink:href="#DejaVuSans-49" transform="translate(411.3125 0)"/>
      <use xlink:href="#DejaVuSans-55" transform="translate(446.515625 0)"/>
      <use xlink:href="#DejaVuSans-52" transform="translate(485.421875 0)"/>
      <use xlink:href="#DejaVuSans-51" transform="translate(546.609375 0)"/>
      <use xlink:href="#DejaVuSans-57" transform="translate(609.984375 0)"/>
      <use xlink:href="#DejaVuSans-4c" transform="translate(649.1875 0)"/>
      <use xlink:href="#DejaVuSans-48" transform="translate(676.96875 0)"/>
      <use xlink:href="#DejaVuSans-55" transform="translate(738.5 0)"/>
     </g>
    </g>
    <g id="PathCollection_2">
     <g>
      <use xlink:href="#mc8d59dac3c" x="456.859656" y="398.685328" style="fill: #ff0000; stroke: #000000"/>
     </g>
    </g>
    <g id="text_19">
     <!-- Kimi K2 best (0.516) -->
     <g style="fill: #262626" transform="translate(473.059656 401.047828) scale(0.09 -0.09)">
      <use xlink:href="#DejaVuSans-2e"/>
      <use xlink:href="#DejaVuSans-4c" transform="translate(65.578125 0)"/>
      <use xlink:href="#DejaVuSans-50" transform="translate(93.359375 0)"/>
      <use xlink:href="#DejaVuSans-4c" transform="translate(190.765625 0)"/>
      <use xlink:href="#DejaVuSans-3" transform="translate(218.546875 0)"/>
      <use xlink:href="#DejaVuSans-2e" transform="translate(250.328125 0)"/>
      <use xlink:href="#DejaVuSans-15" transform="translate(315.90625 0)"/>
      <use xlink:href="#DejaVuSans-3" transform="translate(379.53125 0)"/>
      <use xlink:href="#DejaVuSans-45" transform="translate(411.3125 0)"/>
      <use xlink:href="#DejaVuSans-48" transform="translate(474.796875 0)"/>
      <use xlink:href="#DejaVuSans-56" transform="translate(536.328125 0)"/>
      <use xlink:href="#DejaVuSans-57" transform="translate(588.421875 0)"/>
      <use xlink:href="#DejaVuSans-3" transform="translate(627.625 0)"/>
      <use xlink:href="#DejaVuSans-b" transform="translate(659.40625 0)"/>
      <use xlink:href="#DejaVuSans-13" transform="translate(698.421875 0)"/>
      <use xlink:href="#DejaVuSans-11" transform="translate(762.046875 0)"/>
      <use xlink:href="#DejaVuSans-18" transform="translate(793.828125 0)"/>
      <use xlink:href="#DejaVuSans-14" transform="translate(857.453125 0)"/>
      <use xlink:href="#DejaVuSans-19" transform="translate(921.078125 0)"/>
      <use xlink:href="#DejaVuSans-c" transform="translate(984.703125 0)"/>
     </g>
    </g>
   </g>
   <g id="PathCollection_3">
    <g clip-path="url(#p0e2f6c7917)">
     <use xlink:href="#mc8d59dac3c" x="574.23602" y="40.869937" style="fill: #ff0000; stroke: #000000"/>
    </g>
   </g>
   <g id="PathCollection_4">
    <g clip-path="url(#p0e2f6c7917)">
     <use xlink:href="#mc8d59dac3c" x="164.296521" y="277.063391" style="fill: #ff0000; stroke: #000000"/>
    </g>
   </g>
  </g>
 </g>
 <defs>
  <clipPath id="p0e2f6c7917">
   <rect x="41.599656" y="23.229938" width="558" height="388.08"/>
  </clipPath>
 </defs>
</svg>
