<?xml version="1.0" encoding="utf-8" standalone="no"?>
<!DOCTYPE svg PUBLIC "-//W3C//DTD SVG 1.1//EN"
  "http://www.w3.org/Graphics/SVG/1.1/DTD/svg11.dtd">
<svg xmlns:xlink="http://www.w3.org/1999/xlink" width="625.089552pt" height="446.481094pt" viewBox="0 0 625.089552 446.481094" xmlns="http://www.w3.org/2000/svg" version="1.1">
 <metadata>
  <rdf:RDF xmlns:dc="http://purl.org/dc/elements/1.1/" xmlns:cc="http://creativecommons.org/ns#" xmlns:rdf="http://www.w3.org/1999/02/22-rdf-syntax-ns#">
   <cc:Work>
    <dc:type rdf:resource="http://purl.org/dc/dcmitype/StillImage"/>
    <dc:date>2026-07-22T22:27:50.783950</dc:date>
    <dc:format>image/svg+xml</dc:format>
    <dc:creator>
     <cc:Agent>
      <dc:title>Matplotlib v3.11.0, https://matplotlib.org/</dc:title>
     </cc:Agent>
    </dc:creator>
   </cc:Work>
  </rdf:RDF>
 </metadata>
 <defs>
  <style type="text/css">*{stroke-linejoin: round; stroke-linecap: butt}</style>
 </defs>
 <g id="figure_1">
  <g id="patch_1">
   <path d="M 0 446.481094 
L 625.089552 446.481094 
L 625.089552 0 
L 0 0 
z
" style="fill: #ffffff"/>
  </g>
  <g id="axes_1">
   <g id="patch_2">
    <path d="M 55.697344 395.28 
L 613.697344 395.28 
L 613.697344 7.2 
L 55.697344 7.2 
z
" style="fill: #ffffff"/>
   </g>
   <g id="matplotlib.axis_1">
    <g id="xtick_1">
     <g id="line2d_1">
      <path d="M 81.06098 395.28 
L 81.06098 7.2 
" clip-path="url(#p9fad410c66)" style="fill: none; stroke: #cccccc; stroke-opacity: 0.3; stroke-linecap: round"/>
     </g>
     <g id="text_1">
      <!-- 0 -->
      <g style="fill: #262626" transform="translate(75.811918 417.316133) scale(0.165 -0.165)">
       <defs>
        <path id="DejaVuSans-13" d="M 2034 4250 
Q 1547 4250 1301 3770 
Q 1056 3291 1056 2328 
Q 1056 1369 1301 889 
Q 1547 409 2034 409 
Q 2525 409 2770 889 
Q 3016 1369 3016 2328 
Q 3016 3291 2770 3770 
Q 2525 4250 2034 4250 
z
M 2034 4750 
Q 2819 4750 3233 4129 
Q 3647 3509 3647 2328 
Q 3647 1150 3233 529 
Q 2819 -91 2034 -91 
Q 1250 -91 836 529 
Q 422 1150 422 2328 
Q 422 3509 836 4129 
Q 1250 4750 2034 4750 
z
" transform="scale(0.015625)"/>
       </defs>
       <use xlink:href="#DejaVuSans-13"/>
      </g>
     </g>
    </g>
    <g id="xtick_2">
     <g id="line2d_2">
      <path d="M 146.196153 395.28 
L 146.196153 7.2 
" clip-path="url(#p9fad410c66)" style="fill: none; stroke: #cccccc; stroke-opacity: 0.3; stroke-linecap: round"/>
     </g>
     <g id="text_2">
      <!-- 25 -->
      <g style="fill: #262626" transform="translate(135.698028 417.316133) scale(0.165 -0.165)">
       <defs>
        <path id="DejaVuSans-15" d="M 1228 531 
L 3431 531 
L 3431 0 
L 469 0 
L 469 531 
Q 828 903 1448 1529 
Q 2069 2156 2228 2338 
Q 2531 2678 2651 2914 
Q 2772 3150 2772 3378 
Q 2772 3750 2511 3984 
Q 2250 4219 1831 4219 
Q 1534 4219 1204 4116 
Q 875 4013 500 3803 
L 500 4441 
Q 881 4594 1212 4672 
Q 1544 4750 1819 4750 
Q 2544 4750 2975 4387 
Q 3406 4025 3406 3419 
Q 3406 3131 3298 2873 
Q 3191 2616 2906 2266 
Q 2828 2175 2409 1742 
Q 1991 1309 1228 531 
z
" transform="scale(0.015625)"/>
        <path id="DejaVuSans-18" d="M 691 4666 
L 3169 4666 
L 3169 4134 
L 1269 4134 
L 1269 2991 
Q 1406 3038 1543 3061 
Q 1681 3084 1819 3084 
Q 2600 3084 3056 2656 
Q 3513 2228 3513 1497 
Q 3513 744 3044 326 
Q 2575 -91 1722 -91 
Q 1428 -91 1123 -41 
Q 819 9 494 109 
L 494 744 
Q 775 591 1075 516 
Q 1375 441 1709 441 
Q 2250 441 2565 725 
Q 2881 1009 2881 1497 
Q 2881 1984 2565 2268 
Q 2250 2553 1709 2553 
Q 1456 2553 1204 2497 
Q 953 2441 691 2322 
L 691 4666 
z
" transform="scale(0.015625)"/>
       </defs>
       <use xlink:href="#DejaVuSans-15"/>
       <use xlink:href="#DejaVuSans-18" transform="translate(63.625 0)"/>
      </g>
     </g>
    </g>
    <g id="xtick_3">
     <g id="line2d_3">
      <path d="M 211.331326 395.28 
L 211.331326 7.2 
" clip-path="url(#p9fad410c66)" style="fill: none; stroke: #cccccc; stroke-opacity: 0.3; stroke-linecap: round"/>
     </g>
     <g id="text_3">
      <!-- 50 -->
      <g style="fill: #262626" transform="translate(200.833201 417.316133) scale(0.165 -0.165)">
       <use xlink:href="#DejaVuSans-18"/>
       <use xlink:href="#DejaVuSans-13" transform="translate(63.625 0)"/>
      </g>
     </g>
    </g>
    <g id="xtick_4">
     <g id="line2d_4">
      <path d="M 276.466499 395.28 
L 276.466499 7.2 
" clip-path="url(#p9fad410c66)" style="fill: none; stroke: #cccccc; stroke-opacity: 0.3; stroke-linecap: round"/>
     </g>
     <g id="text_4">
      <!-- 75 -->
      <g style="fill: #262626" transform="translate(265.968374 417.316133) scale(0.165 -0.165)">
       <defs>
        <path id="DejaVuSans-1a" d="M 525 4666 
L 3525 4666 
L 3525 4397 
L 1831 0 
L 1172 0 
L 2766 4134 
L 525 4134 
L 525 4666 
z
" transform="scale(0.015625)"/>
       </defs>
       <use xlink:href="#DejaVuSans-1a"/>
       <use xlink:href="#DejaVuSans-18" transform="translate(63.625 0)"/>
      </g>
     </g>
    </g>
    <g id="xtick_5">
     <g id="line2d_5">
      <path d="M 341.601672 395.28 
L 341.601672 7.2 
" clip-path="url(#p9fad410c66)" style="fill: none; stroke: #cccccc; stroke-opacity: 0.3; stroke-linecap: round"/>
     </g>
     <g id="text_5">
      <!-- 100 -->
      <g style="fill: #262626" transform="translate(325.854485 417.316133) scale(0.165 -0.165)">
       <defs>
        <path id="DejaVuSans-14" d="M 794 531 
L 1825 531 
L 1825 4091 
L 703 3866 
L 703 4441 
L 1819 4666 
L 2450 4666 
L 2450 531 
L 3481 531 
L 3481 0 
L 794 0 
L 794 531 
z
" transform="scale(0.015625)"/>
       </defs>
       <use xlink:href="#DejaVuSans-14"/>
       <use xlink:href="#DejaVuSans-13" transform="translate(63.625 0)"/>
       <use xlink:href="#DejaVuSans-13" transform="translate(127.25 0)"/>
      </g>
     </g>
    </g>
    <g id="xtick_6">
     <g id="line2d_6">
      <path d="M 406.736845 395.28 
L 406.736845 7.2 
" clip-path="url(#p9fad410c66)" style="fill: none; stroke: #cccccc; stroke-opacity: 0.3; stroke-linecap: round"/>
     </g>
     <g id="text_6">
      <!-- 125 -->
      <g style="fill: #262626" transform="translate(390.989658 417.316133) scale(0.165 -0.165)">
       <use xlink:href="#DejaVuSans-14"/>
       <use xlink:href="#DejaVuSans-15" transform="translate(63.625 0)"/>
       <use xlink:href="#DejaVuSans-18" transform="translate(127.25 0)"/>
      </g>
     </g>
    </g>
    <g id="xtick_7">
     <g id="line2d_7">
      <path d="M 471.872018 395.28 
L 471.872018 7.2 
" clip-path="url(#p9fad410c66)" style="fill: none; stroke: #cccccc; stroke-opacity: 0.3; stroke-linecap: round"/>
     </g>
     <g id="text_7">
      <!-- 150 -->
      <g style="fill: #262626" transform="translate(456.124831 417.316133) scale(0.165 -0.165)">
       <use xlink:href="#DejaVuSans-14"/>
       <use xlink:href="#DejaVuSans-18" transform="translate(63.625 0)"/>
       <use xlink:href="#DejaVuSans-13" transform="translate(127.25 0)"/>
      </g>
     </g>
    </g>
    <g id="xtick_8">
     <g id="line2d_8">
      <path d="M 537.007191 395.28 
L 537.007191 7.2 
" clip-path="url(#p9fad410c66)" style="fill: none; stroke: #cccccc; stroke-opacity: 0.3; stroke-linecap: round"/>
     </g>
     <g id="text_8">
      <!-- 175 -->
      <g style="fill: #262626" transform="translate(521.260004 417.316133) scale(0.165 -0.165)">
       <use xlink:href="#DejaVuSans-14"/>
       <use xlink:href="#DejaVuSans-1a" transform="translate(63.625 0)"/>
       <use xlink:href="#DejaVuSans-18" transform="translate(127.25 0)"/>
      </g>
     </g>
    </g>
    <g id="xtick_9">
     <g id="line2d_9">
      <path d="M 602.142364 395.28 
L 602.142364 7.2 
" clip-path="url(#p9fad410c66)" style="fill: none; stroke: #cccccc; stroke-opacity: 0.3; stroke-linecap: round"/>
     </g>
     <g id="text_9">
      <!-- 200 -->
      <g style="fill: #262626" transform="translate(586.395177 417.316133) scale(0.165 -0.165)">
       <use xlink:href="#DejaVuSans-15"/>
       <use xlink:href="#DejaVuSans-13" transform="translate(63.625 0)"/>
       <use xlink:href="#DejaVuSans-13" transform="translate(127.25 0)"/>
      </g>
     </g>
    </g>
    <g id="text_10">
     <!-- Time Overhead (%) -->
     <g style="fill: #262626" transform="translate(266.811563 435.917812) scale(0.14 -0.14)">
      <defs>
       <path id="DejaVuSans-37" d="M -19 4666 
L 3928 4666 
L 3928 4134 
L 2272 4134 
L 2272 0 
L 1638 0 
L 1638 4134 
L -19 4134 
L -19 4666 
z
" transform="scale(0.015625)"/>
       <path id="DejaVuSans-4c" d="M 603 3500 
L 1178 3500 
L 1178 0 
L 603 0 
L 603 3500 
z
M 603 4863 
L 1178 4863 
L 1178 4134 
L 603 4134 
L 603 4863 
z
" transform="scale(0.015625)"/>
       <path id="DejaVuSans-50" d="M 3328 2828 
Q 3544 3216 3844 3400 
Q 4144 3584 4550 3584 
Q 5097 3584 5394 3201 
Q 5691 2819 5691 2113 
L 5691 0 
L 5113 0 
L 5113 2094 
Q 5113 2597 4934 2840 
Q 4756 3084 4391 3084 
Q 3944 3084 3684 2787 
Q 3425 2491 3425 1978 
L 3425 0 
L 2847 0 
L 2847 2094 
Q 2847 2600 2669 2842 
Q 2491 3084 2119 3084 
Q 1678 3084 1418 2786 
Q 1159 2488 1159 1978 
L 1159 0 
L 581 0 
L 581 3500 
L 1159 3500 
L 1159 2956 
Q 1356 3278 1631 3431 
Q 1906 3584 2284 3584 
Q 2666 3584 2933 3390 
Q 3200 3197 3328 2828 
z
" transform="scale(0.015625)"/>
       <path id="DejaVuSans-48" d="M 3597 1894 
L 3597 1613 
L 953 1613 
Q 991 1019 1311 708 
Q 1631 397 2203 397 
Q 2534 397 2845 478 
Q 3156 559 3463 722 
L 3463 178 
Q 3153 47 2828 -22 
Q 2503 -91 2169 -91 
Q 1331 -91 842 396 
Q 353 884 353 1716 
Q 353 2575 817 3079 
Q 1281 3584 2069 3584 
Q 2775 3584 3186 3129 
Q 3597 2675 3597 1894 
z
M 3022 2063 
Q 3016 2534 2758 2815 
Q 2500 3097 2075 3097 
Q 1594 3097 1305 2825 
Q 1016 2553 972 2059 
L 3022 2063 
z
" transform="scale(0.015625)"/>
       <path id="DejaVuSans-3" transform="scale(0.015625)"/>
       <path id="DejaVuSans-32" d="M 2522 4238 
Q 1834 4238 1429 3725 
Q 1025 3213 1025 2328 
Q 1025 1447 1429 934 
Q 1834 422 2522 422 
Q 3209 422 3611 934 
Q 4013 1447 4013 2328 
Q 4013 3213 3611 3725 
Q 3209 4238 2522 4238 
z
M 2522 4750 
Q 3503 4750 4090 4092 
Q 4678 3434 4678 2328 
Q 4678 1225 4090 567 
Q 3503 -91 2522 -91 
Q 1538 -91 948 565 
Q 359 1222 359 2328 
Q 359 3434 948 4092 
Q 1538 4750 2522 4750 
z
" transform="scale(0.015625)"/>
       <path id="DejaVuSans-59" d="M 191 3500 
L 800 3500 
L 1894 563 
L 2988 3500 
L 3597 3500 
L 2284 0 
L 1503 0 
L 191 3500 
z
" transform="scale(0.015625)"/>
       <path id="DejaVuSans-55" d="M 2631 2963 
Q 2534 3019 2420 3045 
Q 2306 3072 2169 3072 
Q 1681 3072 1420 2755 
Q 1159 2438 1159 1844 
L 1159 0 
L 581 0 
L 581 3500 
L 1159 3500 
L 1159 2956 
Q 1341 3275 1631 3429 
Q 1922 3584 2338 3584 
Q 2397 3584 2469 3576 
Q 2541 3569 2628 3553 
L 2631 2963 
z
" transform="scale(0.015625)"/>
       <path id="DejaVuSans-4b" d="M 3513 2113 
L 3513 0 
L 2938 0 
L 2938 2094 
Q 2938 2591 2744 2837 
Q 2550 3084 2163 3084 
Q 1697 3084 1428 2787 
Q 1159 2491 1159 1978 
L 1159 0 
L 581 0 
L 581 4863 
L 1159 4863 
L 1159 2956 
Q 1366 3272 1645 3428 
Q 1925 3584 2291 3584 
Q 2894 3584 3203 3211 
Q 3513 2838 3513 2113 
z
" transform="scale(0.015625)"/>
       <path id="DejaVuSans-44" d="M 2194 1759 
Q 1497 1759 1228 1600 
Q 959 1441 959 1056 
Q 959 750 1161 570 
Q 1363 391 1709 391 
Q 2188 391 2477 730 
Q 2766 1069 2766 1631 
L 2766 1759 
L 2194 1759 
z
M 3341 1997 
L 3341 0 
L 2766 0 
L 2766 531 
Q 2569 213 2275 61 
Q 1981 -91 1556 -91 
Q 1019 -91 701 211 
Q 384 513 384 1019 
Q 384 1609 779 1909 
Q 1175 2209 1959 2209 
L 2766 2209 
L 2766 2266 
Q 2766 2663 2505 2880 
Q 2244 3097 1772 3097 
Q 1472 3097 1187 3025 
Q 903 2953 641 2809 
L 641 3341 
Q 956 3463 1253 3523 
Q 1550 3584 1831 3584 
Q 2591 3584 2966 3190 
Q 3341 2797 3341 1997 
z
" transform="scale(0.015625)"/>
       <path id="DejaVuSans-47" d="M 2906 2969 
L 2906 4863 
L 3481 4863 
L 3481 0 
L 2906 0 
L 2906 525 
Q 2725 213 2448 61 
Q 2172 -91 1784 -91 
Q 1150 -91 751 415 
Q 353 922 353 1747 
Q 353 2572 751 3078 
Q 1150 3584 1784 3584 
Q 2172 3584 2448 3432 
Q 2725 3281 2906 2969 
z
M 947 1747 
Q 947 1113 1208 752 
Q 1469 391 1925 391 
Q 2381 391 2643 752 
Q 2906 1113 2906 1747 
Q 2906 2381 2643 2742 
Q 2381 3103 1925 3103 
Q 1469 3103 1208 2742 
Q 947 2381 947 1747 
z
" transform="scale(0.015625)"/>
       <path id="DejaVuSans-b" d="M 1984 4856 
Q 1566 4138 1362 3434 
Q 1159 2731 1159 2009 
Q 1159 1288 1364 580 
Q 1569 -128 1984 -844 
L 1484 -844 
Q 1016 -109 783 600 
Q 550 1309 550 2009 
Q 550 2706 781 3412 
Q 1013 4119 1484 4856 
L 1984 4856 
z
" transform="scale(0.015625)"/>
       <path id="DejaVuSans-8" d="M 4653 2053 
Q 4381 2053 4226 1822 
Q 4072 1591 4072 1178 
Q 4072 772 4226 539 
Q 4381 306 4653 306 
Q 4919 306 5073 539 
Q 5228 772 5228 1178 
Q 5228 1588 5073 1820 
Q 4919 2053 4653 2053 
z
M 4653 2450 
Q 5147 2450 5437 2106 
Q 5728 1763 5728 1178 
Q 5728 594 5436 251 
Q 5144 -91 4653 -91 
Q 4153 -91 3862 251 
Q 3572 594 3572 1178 
Q 3572 1766 3864 2108 
Q 4156 2450 4653 2450 
z
M 1428 4353 
Q 1159 4353 1004 4120 
Q 850 3888 850 3481 
Q 850 3069 1003 2837 
Q 1156 2606 1428 2606 
Q 1700 2606 1854 2837 
Q 2009 3069 2009 3481 
Q 2009 3884 1853 4118 
Q 1697 4353 1428 4353 
z
M 4250 4750 
L 4750 4750 
L 1831 -91 
L 1331 -91 
L 4250 4750 
z
M 1428 4750 
Q 1922 4750 2215 4408 
Q 2509 4066 2509 3481 
Q 2509 2891 2217 2550 
Q 1925 2209 1428 2209 
Q 931 2209 642 2551 
Q 353 2894 353 3481 
Q 353 4063 643 4406 
Q 934 4750 1428 4750 
z
" transform="scale(0.015625)"/>
       <path id="DejaVuSans-c" d="M 513 4856 
L 1013 4856 
Q 1481 4119 1714 3412 
Q 1947 2706 1947 2009 
Q 1947 1309 1714 600 
Q 1481 -109 1013 -844 
L 513 -844 
Q 928 -128 1133 580 
Q 1338 1288 1338 2009 
Q 1338 2731 1133 3434 
Q 928 4138 513 4856 
z
" transform="scale(0.015625)"/>
      </defs>
      <use xlink:href="#DejaVuSans-37"/>
      <use xlink:href="#DejaVuSans-4c" transform="translate(58 0)"/>
      <use xlink:href="#DejaVuSans-50" transform="translate(85.78125 0)"/>
      <use xlink:href="#DejaVuSans-48" transform="translate(183.1875 0)"/>
      <use xlink:href="#DejaVuSans-3" transform="translate(244.71875 0)"/>
      <use xlink:href="#DejaVuSans-32" transform="translate(276.5 0)"/>
      <use xlink:href="#DejaVuSans-59" transform="translate(355.21875 0)"/>
      <use xlink:href="#DejaVuSans-48" transform="translate(414.40625 0)"/>
      <use xlink:href="#DejaVuSans-55" transform="translate(475.9375 0)"/>
      <use xlink:href="#DejaVuSans-4b" transform="translate(515.296875 0)"/>
      <use xlink:href="#DejaVuSans-48" transform="translate(578.671875 0)"/>
      <use xlink:href="#DejaVuSans-44" transform="translate(640.203125 0)"/>
      <use xlink:href="#DejaVuSans-47" transform="translate(701.484375 0)"/>
      <use xlink:href="#DejaVuSans-3" transform="translate(764.96875 0)"/>
      <use xlink:href="#DejaVuSans-b" transform="translate(796.75 0)"/>
      <use xlink:href="#DejaVuSans-8" transform="translate(835.765625 0)"/>
      <use xlink:href="#DejaVuSans-c" transform="translate(930.78125 0)"/>
     </g>
    </g>
   </g>
   <g id="matplotlib.axis_2">
    <g id="ytick_1">
     <g id="line2d_10">
      <path d="M 55.697344 377.64 
L 613.697344 377.64 
" clip-path="url(#p9fad410c66)" style="fill: none; stroke: #cccccc; stroke-opacity: 0.3; stroke-linecap: round"/>
     </g>
     <g id="text_11">
      <!-- 0 -->
      <g style="fill: #262626" transform="translate(35.699219 383.908066) scale(0.165 -0.165)">
       <use xlink:href="#DejaVuSans-13"/>
      </g>
     </g>
    </g>
    <g id="ytick_2">
     <g id="line2d_11">
      <path d="M 55.697344 323.64551 
L 613.697344 323.64551 
" clip-path="url(#p9fad410c66)" style="fill: none; stroke: #cccccc; stroke-opacity: 0.3; stroke-linecap: round"/>
     </g>
     <g id="text_12">
      <!-- 5 -->
      <g style="fill: #262626" transform="translate(35.699219 329.913576) scale(0.165 -0.165)">
       <use xlink:href="#DejaVuSans-18"/>
      </g>
     </g>
    </g>
    <g id="ytick_3">
     <g id="line2d_12">
      <path d="M 55.697344 269.651019 
L 613.697344 269.651019 
" clip-path="url(#p9fad410c66)" style="fill: none; stroke: #cccccc; stroke-opacity: 0.3; stroke-linecap: round"/>
     </g>
     <g id="text_13">
      <!-- 10 -->
      <g style="fill: #262626" transform="translate(25.201094 275.919086) scale(0.165 -0.165)">
       <use xlink:href="#DejaVuSans-14"/>
       <use xlink:href="#DejaVuSans-13" transform="translate(63.625 0)"/>
      </g>
     </g>
    </g>
    <g id="ytick_4">
     <g id="line2d_13">
      <path d="M 55.697344 215.656529 
L 613.697344 215.656529 
" clip-path="url(#p9fad410c66)" style="fill: none; stroke: #cccccc; stroke-opacity: 0.3; stroke-linecap: round"/>
     </g>
     <g id="text_14">
      <!-- 15 -->
      <g style="fill: #262626" transform="translate(25.201094 221.924595) scale(0.165 -0.165)">
       <use xlink:href="#DejaVuSans-14"/>
       <use xlink:href="#DejaVuSans-18" transform="translate(63.625 0)"/>
      </g>
     </g>
    </g>
    <g id="ytick_5">
     <g id="line2d_14">
      <path d="M 55.697344 161.662039 
L 613.697344 161.662039 
" clip-path="url(#p9fad410c66)" style="fill: none; stroke: #cccccc; stroke-opacity: 0.3; stroke-linecap: round"/>
     </g>
     <g id="text_15">
      <!-- 20 -->
      <g style="fill: #262626" transform="translate(25.201094 167.930105) scale(0.165 -0.165)">
       <use xlink:href="#DejaVuSans-15"/>
       <use xlink:href="#DejaVuSans-13" transform="translate(63.625 0)"/>
      </g>
     </g>
    </g>
    <g id="ytick_6">
     <g id="line2d_15">
      <path d="M 55.697344 107.667548 
L 613.697344 107.667548 
" clip-path="url(#p9fad410c66)" style="fill: none; stroke: #cccccc; stroke-opacity: 0.3; stroke-linecap: round"/>
     </g>
     <g id="text_16">
      <!-- 25 -->
      <g style="fill: #262626" transform="translate(25.201094 113.935615) scale(0.165 -0.165)">
       <use xlink:href="#DejaVuSans-15"/>
       <use xlink:href="#DejaVuSans-18" transform="translate(63.625 0)"/>
      </g>
     </g>
    </g>
    <g id="ytick_7">
     <g id="line2d_16">
      <path d="M 55.697344 53.673058 
L 613.697344 53.673058 
" clip-path="url(#p9fad410c66)" style="fill: none; stroke: #cccccc; stroke-opacity: 0.3; stroke-linecap: round"/>
     </g>
     <g id="text_17">
      <!-- 30 -->
      <g style="fill: #262626" transform="translate(25.201094 59.941124) scale(0.165 -0.165)">
       <defs>
        <path id="DejaVuSans-16" d="M 2597 2516 
Q 3050 2419 3304 2112 
Q 3559 1806 3559 1356 
Q 3559 666 3084 287 
Q 2609 -91 1734 -91 
Q 1441 -91 1130 -33 
Q 819 25 488 141 
L 488 750 
Q 750 597 1062 519 
Q 1375 441 1716 441 
Q 2309 441 2620 675 
Q 2931 909 2931 1356 
Q 2931 1769 2642 2001 
Q 2353 2234 1838 2234 
L 1294 2234 
L 1294 2753 
L 1863 2753 
Q 2328 2753 2575 2939 
Q 2822 3125 2822 3475 
Q 2822 3834 2567 4026 
Q 2313 4219 1838 4219 
Q 1578 4219 1281 4162 
Q 984 4106 628 3988 
L 628 4550 
Q 988 4650 1302 4700 
Q 1616 4750 1894 4750 
Q 2613 4750 3031 4423 
Q 3450 4097 3450 3541 
Q 3450 3153 3228 2886 
Q 3006 2619 2597 2516 
z
" transform="scale(0.015625)"/>
       </defs>
       <use xlink:href="#DejaVuSans-16"/>
       <use xlink:href="#DejaVuSans-13" transform="translate(63.625 0)"/>
      </g>
     </g>
    </g>
    <g id="text_18">
     <!-- CO₂ Savings (%) -->
     <g style="fill: #262626" transform="translate(17.837813 258.355625) rotate(-90) scale(0.14 -0.14)">
      <defs>
       <path id="DejaVuSans-26" d="M 4122 4306 
L 4122 3641 
Q 3803 3938 3442 4084 
Q 3081 4231 2675 4231 
Q 1875 4231 1450 3742 
Q 1025 3253 1025 2328 
Q 1025 1406 1450 917 
Q 1875 428 2675 428 
Q 3081 428 3442 575 
Q 3803 722 4122 1019 
L 4122 359 
Q 3791 134 3420 21 
Q 3050 -91 2638 -91 
Q 1578 -91 968 557 
Q 359 1206 359 2328 
Q 359 3453 968 4101 
Q 1578 4750 2638 4750 
Q 3056 4750 3426 4639 
Q 3797 4528 4122 4306 
z
" transform="scale(0.015625)"/>
       <path id="DejaVuSans-b5d" d="M 838 356 
L 2163 356 
L 2163 0 
L 294 0 
L 294 343 
Q 400 440 597 615 
Q 1672 1568 1672 1862 
Q 1672 2068 1509 2194 
Q 1347 2321 1081 2321 
Q 919 2321 728 2266 
Q 538 2212 313 2103 
L 313 2487 
Q 553 2575 761 2618 
Q 969 2662 1147 2662 
Q 1600 2662 1872 2456 
Q 2144 2250 2144 1912 
Q 2144 1478 1109 590 
Q 934 440 838 356 
z
" transform="scale(0.015625)"/>
       <path id="DejaVuSans-36" d="M 3425 4513 
L 3425 3897 
Q 3066 4069 2747 4153 
Q 2428 4238 2131 4238 
Q 1616 4238 1336 4038 
Q 1056 3838 1056 3469 
Q 1056 3159 1242 3001 
Q 1428 2844 1947 2747 
L 2328 2669 
Q 3034 2534 3370 2195 
Q 3706 1856 3706 1288 
Q 3706 609 3251 259 
Q 2797 -91 1919 -91 
Q 1588 -91 1214 -16 
Q 841 59 441 206 
L 441 856 
Q 825 641 1194 531 
Q 1563 422 1919 422 
Q 2459 422 2753 634 
Q 3047 847 3047 1241 
Q 3047 1584 2836 1778 
Q 2625 1972 2144 2069 
L 1759 2144 
Q 1053 2284 737 2584 
Q 422 2884 422 3419 
Q 422 4038 858 4394 
Q 1294 4750 2059 4750 
Q 2388 4750 2728 4690 
Q 3069 4631 3425 4513 
z
" transform="scale(0.015625)"/>
       <path id="DejaVuSans-51" d="M 3513 2113 
L 3513 0 
L 2938 0 
L 2938 2094 
Q 2938 2591 2744 2837 
Q 2550 3084 2163 3084 
Q 1697 3084 1428 2787 
Q 1159 2491 1159 1978 
L 1159 0 
L 581 0 
L 581 3500 
L 1159 3500 
L 1159 2956 
Q 1366 3272 1645 3428 
Q 1925 3584 2291 3584 
Q 2894 3584 3203 3211 
Q 3513 2838 3513 2113 
z
" transform="scale(0.015625)"/>
       <path id="DejaVuSans-4a" d="M 2906 1791 
Q 2906 2416 2648 2759 
Q 2391 3103 1925 3103 
Q 1463 3103 1205 2759 
Q 947 2416 947 1791 
Q 947 1169 1205 825 
Q 1463 481 1925 481 
Q 2391 481 2648 825 
Q 2906 1169 2906 1791 
z
M 3481 434 
Q 3481 -459 3084 -895 
Q 2688 -1331 1869 -1331 
Q 1566 -1331 1297 -1286 
Q 1028 -1241 775 -1147 
L 775 -588 
Q 1028 -725 1275 -790 
Q 1522 -856 1778 -856 
Q 2344 -856 2625 -561 
Q 2906 -266 2906 331 
L 2906 616 
Q 2728 306 2450 153 
Q 2172 0 1784 0 
Q 1141 0 747 490 
Q 353 981 353 1791 
Q 353 2603 747 3093 
Q 1141 3584 1784 3584 
Q 2172 3584 2450 3431 
Q 2728 3278 2906 2969 
L 2906 3500 
L 3481 3500 
L 3481 434 
z
" transform="scale(0.015625)"/>
       <path id="DejaVuSans-56" d="M 2834 3397 
L 2834 2853 
Q 2591 2978 2328 3040 
Q 2066 3103 1784 3103 
Q 1356 3103 1142 2972 
Q 928 2841 928 2578 
Q 928 2378 1081 2264 
Q 1234 2150 1697 2047 
L 1894 2003 
Q 2506 1872 2764 1633 
Q 3022 1394 3022 966 
Q 3022 478 2636 193 
Q 2250 -91 1575 -91 
Q 1294 -91 989 -36 
Q 684 19 347 128 
L 347 722 
Q 666 556 975 473 
Q 1284 391 1588 391 
Q 1994 391 2212 530 
Q 2431 669 2431 922 
Q 2431 1156 2273 1281 
Q 2116 1406 1581 1522 
L 1381 1569 
Q 847 1681 609 1914 
Q 372 2147 372 2553 
Q 372 3047 722 3315 
Q 1072 3584 1716 3584 
Q 2034 3584 2315 3537 
Q 2597 3491 2834 3397 
z
" transform="scale(0.015625)"/>
      </defs>
      <use xlink:href="#DejaVuSans-26"/>
      <use xlink:href="#DejaVuSans-32" transform="translate(69.828125 0)"/>
      <use xlink:href="#DejaVuSans-b5d" transform="translate(148.546875 0)"/>
      <use xlink:href="#DejaVuSans-3" transform="translate(188.640625 0)"/>
      <use xlink:href="#DejaVuSans-36" transform="translate(220.421875 0)"/>
      <use xlink:href="#DejaVuSans-44" transform="translate(283.90625 0)"/>
      <use xlink:href="#DejaVuSans-59" transform="translate(345.1875 0)"/>
      <use xlink:href="#DejaVuSans-4c" transform="translate(404.375 0)"/>
      <use xlink:href="#DejaVuSans-51" transform="translate(432.15625 0)"/>
      <use xlink:href="#DejaVuSans-4a" transform="translate(495.53125 0)"/>
      <use xlink:href="#DejaVuSans-56" transform="translate(559.015625 0)"/>
      <use xlink:href="#DejaVuSans-3" transform="translate(611.109375 0)"/>
      <use xlink:href="#DejaVuSans-b" transform="translate(642.890625 0)"/>
      <use xlink:href="#DejaVuSans-8" transform="translate(681.90625 0)"/>
      <use xlink:href="#DejaVuSans-c" transform="translate(776.921875 0)"/>
     </g>
    </g>
   </g>
   <g id="line2d_17">
    <path d="M 81.06098 377.64 
L 81.582061 377.100055 
L 82.884765 375.912176 
L 82.884765 373.536419 
L 84.96909 372.564518 
L 86.532335 363.601433 
L 93.045852 361.76562 
L 93.566933 353.126501 
L 94.348555 345.783251 
L 100.340991 341.355702 
L 103.988561 336.820165 
L 105.291264 334.22843 
L 109.199375 323.321543 
L 111.804782 321.48573 
L 118.057758 302.695647 
L 124.310735 291.896749 
L 134.471822 285.201433 
L 143.069665 262.307769 
L 148.541019 247.513278 
L 160.525891 243.841653 
L 175.11617 239.198127 
L 185.277257 219.76011 
L 189.966989 213.280771 
L 212.112948 198.378292 
L 212.89457 186.93146 
L 220.971332 181.208044 
L 241.032965 152.051019 
L 262.918383 138.984353 
L 277.769203 135.636694 
L 308.773545 128.725399 
L 315.026522 124.621818 
L 316.850306 100.216309 
L 322.842742 98.704463 
L 351.241678 96.652672 
L 357.755195 95.896749 
L 370.261148 79.482424 
L 378.858991 61.016309 
L 393.44927 57.236694 
L 396.054677 54.105014 
L 424.453612 44.709972 
L 432.009292 43.738072 
L 457.54228 36.610799 
L 471.872018 36.178843 
L 497.926087 33.371129 
L 501.573657 31.967273 
L 505.742308 31.21135 
L 506.52393 30.671405 
L 520.332587 30.239449 
L 520.853668 29.807493 
L 525.022319 29.591515 
L 525.543401 29.159559 
L 530.233133 28.943581 
L 534.662325 28.187658 
L 535.443947 27.97168 
L 548.992063 27.215758 
L 549.513144 26.783802 
L 553.942336 26.675813 
L 554.202877 26.567824 
L 554.463417 26.243857 
L 582.601812 26.135868 
L 582.601812 25.91989 
L 583.383434 25.487934 
L 587.552085 25.379945 
L 588.073167 25.163967 
L 588.073167 24.947989 
L 588.333707 24.84 
" clip-path="url(#p9fad410c66)" style="fill: none; stroke: #2563eb; stroke-width: 2; stroke-linecap: round"/>
    <defs>
     <path id="mffbabf8d2c" d="M 0 2 
C 0.530406 2 1.03916 1.789267 1.414214 1.414214 
C 1.789267 1.03916 2 0.530406 2 0 
C 2 -0.530406 1.789267 -1.03916 1.414214 -1.414214 
C 1.03916 -1.789267 0.530406 -2 0 -2 
C -0.530406 -2 -1.03916 -1.789267 -1.414214 -1.414214 
C -1.789267 -1.03916 -2 -0.530406 -2 0 
C -2 0.530406 -1.789267 1.03916 -1.414214 1.414214 
C -1.03916 1.789267 -0.530406 2 0 2 
z
" style="stroke: #2563eb"/>
    </defs>
    <g clip-path="url(#p9fad410c66)">
     <use xlink:href="#mffbabf8d2c" x="81.06098" y="377.64" style="fill: #2563eb; stroke: #2563eb"/>
     <use xlink:href="#mffbabf8d2c" x="81.582061" y="377.100055" style="fill: #2563eb; stroke: #2563eb"/>
     <use xlink:href="#mffbabf8d2c" x="82.884765" y="375.912176" style="fill: #2563eb; stroke: #2563eb"/>
     <use xlink:href="#mffbabf8d2c" x="82.884765" y="373.536419" style="fill: #2563eb; stroke: #2563eb"/>
     <use xlink:href="#mffbabf8d2c" x="84.96909" y="372.564518" style="fill: #2563eb; stroke: #2563eb"/>
     <use xlink:href="#mffbabf8d2c" x="86.532335" y="363.601433" style="fill: #2563eb; stroke: #2563eb"/>
     <use xlink:href="#mffbabf8d2c" x="93.045852" y="361.76562" style="fill: #2563eb; stroke: #2563eb"/>
     <use xlink:href="#mffbabf8d2c" x="93.566933" y="353.126501" style="fill: #2563eb; stroke: #2563eb"/>
     <use xlink:href="#mffbabf8d2c" x="94.348555" y="345.783251" style="fill: #2563eb; stroke: #2563eb"/>
     <use xlink:href="#mffbabf8d2c" x="100.340991" y="341.355702" style="fill: #2563eb; stroke: #2563eb"/>
     <use xlink:href="#mffbabf8d2c" x="103.988561" y="336.820165" style="fill: #2563eb; stroke: #2563eb"/>
     <use xlink:href="#mffbabf8d2c" x="105.291264" y="334.22843" style="fill: #2563eb; stroke: #2563eb"/>
     <use xlink:href="#mffbabf8d2c" x="109.199375" y="323.321543" style="fill: #2563eb; stroke: #2563eb"/>
     <use xlink:href="#mffbabf8d2c" x="111.804782" y="321.48573" style="fill: #2563eb; stroke: #2563eb"/>
     <use xlink:href="#mffbabf8d2c" x="118.057758" y="302.695647" style="fill: #2563eb; stroke: #2563eb"/>
     <use xlink:href="#mffbabf8d2c" x="124.310735" y="291.896749" style="fill: #2563eb; stroke: #2563eb"/>
     <use xlink:href="#mffbabf8d2c" x="134.471822" y="285.201433" style="fill: #2563eb; stroke: #2563eb"/>
     <use xlink:href="#mffbabf8d2c" x="143.069665" y="262.307769" style="fill: #2563eb; stroke: #2563eb"/>
     <use xlink:href="#mffbabf8d2c" x="148.541019" y="247.513278" style="fill: #2563eb; stroke: #2563eb"/>
     <use xlink:href="#mffbabf8d2c" x="160.525891" y="243.841653" style="fill: #2563eb; stroke: #2563eb"/>
     <use xlink:href="#mffbabf8d2c" x="175.11617" y="239.198127" style="fill: #2563eb; stroke: #2563eb"/>
     <use xlink:href="#mffbabf8d2c" x="185.277257" y="219.76011" style="fill: #2563eb; stroke: #2563eb"/>
     <use xlink:href="#mffbabf8d2c" x="189.966989" y="213.280771" style="fill: #2563eb; stroke: #2563eb"/>
     <use xlink:href="#mffbabf8d2c" x="212.112948" y="198.378292" style="fill: #2563eb; stroke: #2563eb"/>
     <use xlink:href="#mffbabf8d2c" x="212.89457" y="186.93146" style="fill: #2563eb; stroke: #2563eb"/>
     <use xlink:href="#mffbabf8d2c" x="220.971332" y="181.208044" style="fill: #2563eb; stroke: #2563eb"/>
     <use xlink:href="#mffbabf8d2c" x="241.032965" y="152.051019" style="fill: #2563eb; stroke: #2563eb"/>
     <use xlink:href="#mffbabf8d2c" x="262.918383" y="138.984353" style="fill: #2563eb; stroke: #2563eb"/>
     <use xlink:href="#mffbabf8d2c" x="277.769203" y="135.636694" style="fill: #2563eb; stroke: #2563eb"/>
     <use xlink:href="#mffbabf8d2c" x="308.773545" y="128.725399" style="fill: #2563eb; stroke: #2563eb"/>
     <use xlink:href="#mffbabf8d2c" x="315.026522" y="124.621818" style="fill: #2563eb; stroke: #2563eb"/>
     <use xlink:href="#mffbabf8d2c" x="316.850306" y="100.216309" style="fill: #2563eb; stroke: #2563eb"/>
     <use xlink:href="#mffbabf8d2c" x="322.842742" y="98.704463" style="fill: #2563eb; stroke: #2563eb"/>
     <use xlink:href="#mffbabf8d2c" x="351.241678" y="96.652672" style="fill: #2563eb; stroke: #2563eb"/>
     <use xlink:href="#mffbabf8d2c" x="357.755195" y="95.896749" style="fill: #2563eb; stroke: #2563eb"/>
     <use xlink:href="#mffbabf8d2c" x="370.261148" y="79.482424" style="fill: #2563eb; stroke: #2563eb"/>
     <use xlink:href="#mffbabf8d2c" x="378.858991" y="61.016309" style="fill: #2563eb; stroke: #2563eb"/>
     <use xlink:href="#mffbabf8d2c" x="393.44927" y="57.236694" style="fill: #2563eb; stroke: #2563eb"/>
     <use xlink:href="#mffbabf8d2c" x="396.054677" y="54.105014" style="fill: #2563eb; stroke: #2563eb"/>
     <use xlink:href="#mffbabf8d2c" x="424.453612" y="44.709972" style="fill: #2563eb; stroke: #2563eb"/>
     <use xlink:href="#mffbabf8d2c" x="432.009292" y="43.738072" style="fill: #2563eb; stroke: #2563eb"/>
     <use xlink:href="#mffbabf8d2c" x="457.54228" y="36.610799" style="fill: #2563eb; stroke: #2563eb"/>
     <use xlink:href="#mffbabf8d2c" x="471.872018" y="36.178843" style="fill: #2563eb; stroke: #2563eb"/>
     <use xlink:href="#mffbabf8d2c" x="497.926087" y="33.371129" style="fill: #2563eb; stroke: #2563eb"/>
     <use xlink:href="#mffbabf8d2c" x="501.573657" y="31.967273" style="fill: #2563eb; stroke: #2563eb"/>
     <use xlink:href="#mffbabf8d2c" x="505.742308" y="31.21135" style="fill: #2563eb; stroke: #2563eb"/>
     <use xlink:href="#mffbabf8d2c" x="506.52393" y="30.671405" style="fill: #2563eb; stroke: #2563eb"/>
     <use xlink:href="#mffbabf8d2c" x="520.332587" y="30.239449" style="fill: #2563eb; stroke: #2563eb"/>
     <use xlink:href="#mffbabf8d2c" x="520.853668" y="29.807493" style="fill: #2563eb; stroke: #2563eb"/>
     <use xlink:href="#mffbabf8d2c" x="525.022319" y="29.591515" style="fill: #2563eb; stroke: #2563eb"/>
     <use xlink:href="#mffbabf8d2c" x="525.543401" y="29.159559" style="fill: #2563eb; stroke: #2563eb"/>
     <use xlink:href="#mffbabf8d2c" x="530.233133" y="28.943581" style="fill: #2563eb; stroke: #2563eb"/>
     <use xlink:href="#mffbabf8d2c" x="534.662325" y="28.187658" style="fill: #2563eb; stroke: #2563eb"/>
     <use xlink:href="#mffbabf8d2c" x="535.443947" y="27.97168" style="fill: #2563eb; stroke: #2563eb"/>
     <use xlink:href="#mffbabf8d2c" x="548.992063" y="27.215758" style="fill: #2563eb; stroke: #2563eb"/>
     <use xlink:href="#mffbabf8d2c" x="549.513144" y="26.783802" style="fill: #2563eb; stroke: #2563eb"/>
     <use xlink:href="#mffbabf8d2c" x="553.942336" y="26.675813" style="fill: #2563eb; stroke: #2563eb"/>
     <use xlink:href="#mffbabf8d2c" x="554.202877" y="26.567824" style="fill: #2563eb; stroke: #2563eb"/>
     <use xlink:href="#mffbabf8d2c" x="554.463417" y="26.243857" style="fill: #2563eb; stroke: #2563eb"/>
     <use xlink:href="#mffbabf8d2c" x="582.601812" y="26.135868" style="fill: #2563eb; stroke: #2563eb"/>
     <use xlink:href="#mffbabf8d2c" x="582.601812" y="25.91989" style="fill: #2563eb; stroke: #2563eb"/>
     <use xlink:href="#mffbabf8d2c" x="583.383434" y="25.487934" style="fill: #2563eb; stroke: #2563eb"/>
     <use xlink:href="#mffbabf8d2c" x="587.552085" y="25.379945" style="fill: #2563eb; stroke: #2563eb"/>
     <use xlink:href="#mffbabf8d2c" x="588.073167" y="25.163967" style="fill: #2563eb; stroke: #2563eb"/>
     <use xlink:href="#mffbabf8d2c" x="588.073167" y="24.947989" style="fill: #2563eb; stroke: #2563eb"/>
     <use xlink:href="#mffbabf8d2c" x="588.333707" y="24.84" style="fill: #2563eb; stroke: #2563eb"/>
    </g>
   </g>
   <g id="line2d_18">
    <path d="M 81.06098 377.64 
L 81.321521 377.532011 
L 81.321521 377.424022 
L 81.321521 377.316033 
L 81.582061 377.100055 
L 81.842602 376.776088 
L 82.363684 376.668099 
L 82.884765 376.236143 
L 82.884765 376.128154 
L 83.145306 375.48022 
L 83.926928 372.672507 
L 88.61666 372.240551 
L 89.919364 364.681322 
L 95.651259 364.465344 
L 100.080451 358.201983 
L 100.080451 347.511074 
L 113.107485 326.129256 
L 118.318299 306.475262 
L 131.866415 287.469201 
L 132.126956 286.821267 
L 139.422095 280.881873 
L 145.15399 280.557906 
L 161.568054 263.819614 
L 168.602653 261.983802 
L 180.848065 248.161212 
L 183.192931 247.2973 
L 187.361582 245.893444 
L 191.790774 244.489587 
L 208.204838 237.578292 
L 210.549704 237.038347 
L 215.239436 234.986556 
L 320.758417 233.042755 
L 321.540039 230.127052 
L 324.405986 227.643306 
L 328.574637 222.891791 
L 330.398422 221.811901 
L 332.482748 221.379945 
L 333.524911 217.600331 
L 337.693562 216.736419 
L 339.517347 215.332562 
L 341.601672 214.792617 
L 343.946538 214.46865 
L 344.207079 213.928705 
L 346.030864 212.740826 
L 348.115189 212.41686 
L 348.896811 212.092893 
L 352.0233 211.768926 
L 354.368166 211.33697 
L 356.452492 210.905014 
L 357.494654 210.041102 
L 358.536817 209.17719 
L 360.881683 208.853223 
L 363.22655 208.637245 
L 364.789794 208.529256 
L 366.874119 207.989311 
L 366.874119 206.04551 
L 368.958445 205.397576 
L 371.303311 204.96562 
L 373.387637 203.345785 
L 375.732503 203.129807 
L 379.119532 202.80584 
L 380.682776 202.589862 
L 383.027642 202.157906 
L 383.548723 201.941928 
L 386.935752 201.833939 
L 387.196293 201.72595 
L 387.717375 201.509972 
L 390.062241 201.293994 
L 390.583322 200.322094 
L 392.928188 200.106116 
L 400.223328 199.890138 
L 414.031984 199.67416 
L 415.074147 199.350193 
L 415.334688 199.242204 
L 415.595229 198.918237 
L 416.11631 198.702259 
" clip-path="url(#p9fad410c66)" style="fill: none; stroke: #dc2626; stroke-width: 2; stroke-linecap: round"/>
    <defs>
     <path id="m719872f8a6" d="M 0 2 
C 0.530406 2 1.03916 1.789267 1.414214 1.414214 
C 1.789267 1.03916 2 0.530406 2 0 
C 2 -0.530406 1.789267 -1.03916 1.414214 -1.414214 
C 1.03916 -1.789267 0.530406 -2 0 -2 
C -0.530406 -2 -1.03916 -1.789267 -1.414214 -1.414214 
C -1.789267 -1.03916 -2 -0.530406 -2 0 
C -2 0.530406 -1.789267 1.03916 -1.414214 1.414214 
C -1.03916 1.789267 -0.530406 2 0 2 
z
" style="stroke: #dc2626"/>
    </defs>
    <g clip-path="url(#p9fad410c66)">
     <use xlink:href="#m719872f8a6" x="81.06098" y="377.64" style="fill: #dc2626; stroke: #dc2626"/>
     <use xlink:href="#m719872f8a6" x="81.321521" y="377.532011" style="fill: #dc2626; stroke: #dc2626"/>
     <use xlink:href="#m719872f8a6" x="81.321521" y="377.424022" style="fill: #dc2626; stroke: #dc2626"/>
     <use xlink:href="#m719872f8a6" x="81.321521" y="377.316033" style="fill: #dc2626; stroke: #dc2626"/>
     <use xlink:href="#m719872f8a6" x="81.582061" y="377.100055" style="fill: #dc2626; stroke: #dc2626"/>
     <use xlink:href="#m719872f8a6" x="81.842602" y="376.776088" style="fill: #dc2626; stroke: #dc2626"/>
     <use xlink:href="#m719872f8a6" x="82.363684" y="376.668099" style="fill: #dc2626; stroke: #dc2626"/>
     <use xlink:href="#m719872f8a6" x="82.884765" y="376.236143" style="fill: #dc2626; stroke: #dc2626"/>
     <use xlink:href="#m719872f8a6" x="82.884765" y="376.128154" style="fill: #dc2626; stroke: #dc2626"/>
     <use xlink:href="#m719872f8a6" x="83.145306" y="375.48022" style="fill: #dc2626; stroke: #dc2626"/>
     <use xlink:href="#m719872f8a6" x="83.926928" y="372.672507" style="fill: #dc2626; stroke: #dc2626"/>
     <use xlink:href="#m719872f8a6" x="88.61666" y="372.240551" style="fill: #dc2626; stroke: #dc2626"/>
     <use xlink:href="#m719872f8a6" x="89.919364" y="364.681322" style="fill: #dc2626; stroke: #dc2626"/>
     <use xlink:href="#m719872f8a6" x="95.651259" y="364.465344" style="fill: #dc2626; stroke: #dc2626"/>
     <use xlink:href="#m719872f8a6" x="100.080451" y="358.201983" style="fill: #dc2626; stroke: #dc2626"/>
     <use xlink:href="#m719872f8a6" x="100.080451" y="347.511074" style="fill: #dc2626; stroke: #dc2626"/>
     <use xlink:href="#m719872f8a6" x="113.107485" y="326.129256" style="fill: #dc2626; stroke: #dc2626"/>
     <use xlink:href="#m719872f8a6" x="118.318299" y="306.475262" style="fill: #dc2626; stroke: #dc2626"/>
     <use xlink:href="#m719872f8a6" x="131.866415" y="287.469201" style="fill: #dc2626; stroke: #dc2626"/>
     <use xlink:href="#m719872f8a6" x="132.126956" y="286.821267" style="fill: #dc2626; stroke: #dc2626"/>
     <use xlink:href="#m719872f8a6" x="139.422095" y="280.881873" style="fill: #dc2626; stroke: #dc2626"/>
     <use xlink:href="#m719872f8a6" x="145.15399" y="280.557906" style="fill: #dc2626; stroke: #dc2626"/>
     <use xlink:href="#m719872f8a6" x="161.568054" y="263.819614" style="fill: #dc2626; stroke: #dc2626"/>
     <use xlink:href="#m719872f8a6" x="168.602653" y="261.983802" style="fill: #dc2626; stroke: #dc2626"/>
     <use xlink:href="#m719872f8a6" x="180.848065" y="248.161212" style="fill: #dc2626; stroke: #dc2626"/>
     <use xlink:href="#m719872f8a6" x="183.192931" y="247.2973" style="fill: #dc2626; stroke: #dc2626"/>
     <use xlink:href="#m719872f8a6" x="187.361582" y="245.893444" style="fill: #dc2626; stroke: #dc2626"/>
     <use xlink:href="#m719872f8a6" x="191.790774" y="244.489587" style="fill: #dc2626; stroke: #dc2626"/>
     <use xlink:href="#m719872f8a6" x="208.204838" y="237.578292" style="fill: #dc2626; stroke: #dc2626"/>
     <use xlink:href="#m719872f8a6" x="210.549704" y="237.038347" style="fill: #dc2626; stroke: #dc2626"/>
     <use xlink:href="#m719872f8a6" x="215.239436" y="234.986556" style="fill: #dc2626; stroke: #dc2626"/>
     <use xlink:href="#m719872f8a6" x="320.758417" y="233.042755" style="fill: #dc2626; stroke: #dc2626"/>
     <use xlink:href="#m719872f8a6" x="321.540039" y="230.127052" style="fill: #dc2626; stroke: #dc2626"/>
     <use xlink:href="#m719872f8a6" x="324.405986" y="227.643306" style="fill: #dc2626; stroke: #dc2626"/>
     <use xlink:href="#m719872f8a6" x="328.574637" y="222.891791" style="fill: #dc2626; stroke: #dc2626"/>
     <use xlink:href="#m719872f8a6" x="330.398422" y="221.811901" style="fill: #dc2626; stroke: #dc2626"/>
     <use xlink:href="#m719872f8a6" x="332.482748" y="221.379945" style="fill: #dc2626; stroke: #dc2626"/>
     <use xlink:href="#m719872f8a6" x="333.524911" y="217.600331" style="fill: #dc2626; stroke: #dc2626"/>
     <use xlink:href="#m719872f8a6" x="337.693562" y="216.736419" style="fill: #dc2626; stroke: #dc2626"/>
     <use xlink:href="#m719872f8a6" x="339.517347" y="215.332562" style="fill: #dc2626; stroke: #dc2626"/>
     <use xlink:href="#m719872f8a6" x="341.601672" y="214.792617" style="fill: #dc2626; stroke: #dc2626"/>
     <use xlink:href="#m719872f8a6" x="343.946538" y="214.46865" style="fill: #dc2626; stroke: #dc2626"/>
     <use xlink:href="#m719872f8a6" x="344.207079" y="213.928705" style="fill: #dc2626; stroke: #dc2626"/>
     <use xlink:href="#m719872f8a6" x="346.030864" y="212.740826" style="fill: #dc2626; stroke: #dc2626"/>
     <use xlink:href="#m719872f8a6" x="348.115189" y="212.41686" style="fill: #dc2626; stroke: #dc2626"/>
     <use xlink:href="#m719872f8a6" x="348.896811" y="212.092893" style="fill: #dc2626; stroke: #dc2626"/>
     <use xlink:href="#m719872f8a6" x="352.0233" y="211.768926" style="fill: #dc2626; stroke: #dc2626"/>
     <use xlink:href="#m719872f8a6" x="354.368166" y="211.33697" style="fill: #dc2626; stroke: #dc2626"/>
     <use xlink:href="#m719872f8a6" x="356.452492" y="210.905014" style="fill: #dc2626; stroke: #dc2626"/>
     <use xlink:href="#m719872f8a6" x="357.494654" y="210.041102" style="fill: #dc2626; stroke: #dc2626"/>
     <use xlink:href="#m719872f8a6" x="358.536817" y="209.17719" style="fill: #dc2626; stroke: #dc2626"/>
     <use xlink:href="#m719872f8a6" x="360.881683" y="208.853223" style="fill: #dc2626; stroke: #dc2626"/>
     <use xlink:href="#m719872f8a6" x="363.22655" y="208.637245" style="fill: #dc2626; stroke: #dc2626"/>
     <use xlink:href="#m719872f8a6" x="364.789794" y="208.529256" style="fill: #dc2626; stroke: #dc2626"/>
     <use xlink:href="#m719872f8a6" x="366.874119" y="207.989311" style="fill: #dc2626; stroke: #dc2626"/>
     <use xlink:href="#m719872f8a6" x="366.874119" y="206.04551" style="fill: #dc2626; stroke: #dc2626"/>
     <use xlink:href="#m719872f8a6" x="368.958445" y="205.397576" style="fill: #dc2626; stroke: #dc2626"/>
     <use xlink:href="#m719872f8a6" x="371.303311" y="204.96562" style="fill: #dc2626; stroke: #dc2626"/>
     <use xlink:href="#m719872f8a6" x="373.387637" y="203.345785" style="fill: #dc2626; stroke: #dc2626"/>
     <use xlink:href="#m719872f8a6" x="375.732503" y="203.129807" style="fill: #dc2626; stroke: #dc2626"/>
     <use xlink:href="#m719872f8a6" x="379.119532" y="202.80584" style="fill: #dc2626; stroke: #dc2626"/>
     <use xlink:href="#m719872f8a6" x="380.682776" y="202.589862" style="fill: #dc2626; stroke: #dc2626"/>
     <use xlink:href="#m719872f8a6" x="383.027642" y="202.157906" style="fill: #dc2626; stroke: #dc2626"/>
     <use xlink:href="#m719872f8a6" x="383.548723" y="201.941928" style="fill: #dc2626; stroke: #dc2626"/>
     <use xlink:href="#m719872f8a6" x="386.935752" y="201.833939" style="fill: #dc2626; stroke: #dc2626"/>
     <use xlink:href="#m719872f8a6" x="387.196293" y="201.72595" style="fill: #dc2626; stroke: #dc2626"/>
     <use xlink:href="#m719872f8a6" x="387.717375" y="201.509972" style="fill: #dc2626; stroke: #dc2626"/>
     <use xlink:href="#m719872f8a6" x="390.062241" y="201.293994" style="fill: #dc2626; stroke: #dc2626"/>
     <use xlink:href="#m719872f8a6" x="390.583322" y="200.322094" style="fill: #dc2626; stroke: #dc2626"/>
     <use xlink:href="#m719872f8a6" x="392.928188" y="200.106116" style="fill: #dc2626; stroke: #dc2626"/>
     <use xlink:href="#m719872f8a6" x="400.223328" y="199.890138" style="fill: #dc2626; stroke: #dc2626"/>
     <use xlink:href="#m719872f8a6" x="414.031984" y="199.67416" style="fill: #dc2626; stroke: #dc2626"/>
     <use xlink:href="#m719872f8a6" x="415.074147" y="199.350193" style="fill: #dc2626; stroke: #dc2626"/>
     <use xlink:href="#m719872f8a6" x="415.334688" y="199.242204" style="fill: #dc2626; stroke: #dc2626"/>
     <use xlink:href="#m719872f8a6" x="415.595229" y="198.918237" style="fill: #dc2626; stroke: #dc2626"/>
     <use xlink:href="#m719872f8a6" x="416.11631" y="198.702259" style="fill: #dc2626; stroke: #dc2626"/>
    </g>
   </g>
   <g id="patch_3">
    <path d="M 55.697344 395.28 
L 55.697344 7.2 
" style="fill: none; stroke: #cccccc; stroke-width: 1.25; stroke-linejoin: miter; stroke-linecap: square"/>
   </g>
   <g id="patch_4">
    <path d="M 613.697344 395.28 
L 613.697344 7.2 
" style="fill: none; stroke: #cccccc; stroke-width: 1.25; stroke-linejoin: miter; stroke-linecap: square"/>
   </g>
   <g id="patch_5">
    <path d="M 55.697344 395.28 
L 613.697344 395.28 
" style="fill: none; stroke: #cccccc; stroke-width: 1.25; stroke-linejoin: miter; stroke-linecap: square"/>
   </g>
   <g id="patch_6">
    <path d="M 55.697344 7.2 
L 613.697344 7.2 
" style="fill: none; stroke: #cccccc; stroke-width: 1.25; stroke-linejoin: miter; stroke-linecap: square"/>
   </g>
   <g id="legend_1">
    <g id="patch_7">
     <path d="M 374.857344 388.28 
L 603.897344 388.28 
Q 606.697344 388.28 606.697344 385.48 
L 606.697344 302.875625 
Q 606.697344 300.075625 603.897344 300.075625 
L 374.857344 300.075625 
Q 372.057344 300.075625 372.057344 302.875625 
L 372.057344 385.48 
Q 372.057344 388.28 374.857344 388.28 
z
" style="fill: #ffffff; opacity: 0.8; stroke: #cccccc; stroke-linejoin: miter"/>
    </g>
    <g id="line2d_19">
     <path d="M 377.657344 311.413437 
L 391.657344 311.413437 
L 405.657344 311.413437 
" style="fill: none; stroke: #2563eb; stroke-width: 2; stroke-linecap: round"/>
     <g>
      <use xlink:href="#mffbabf8d2c" x="391.657344" y="311.413437" style="fill: #2563eb; stroke: #2563eb"/>
     </g>
    </g>
    <g id="text_19">
     <!-- DeepSeek V3 frontier -->
     <g style="fill: #262626" transform="translate(416.857344 316.313437) scale(0.14 -0.14)">
      <defs>
       <path id="DejaVuSans-27" d="M 1259 4147 
L 1259 519 
L 2022 519 
Q 2988 519 3436 956 
Q 3884 1394 3884 2338 
Q 3884 3275 3436 3711 
Q 2988 4147 2022 4147 
L 1259 4147 
z
M 628 4666 
L 1925 4666 
Q 3281 4666 3915 4102 
Q 4550 3538 4550 2338 
Q 4550 1131 3912 565 
Q 3275 0 1925 0 
L 628 0 
L 628 4666 
z
" transform="scale(0.015625)"/>
       <path id="DejaVuSans-53" d="M 1159 525 
L 1159 -1331 
L 581 -1331 
L 581 3500 
L 1159 3500 
L 1159 2969 
Q 1341 3281 1617 3432 
Q 1894 3584 2278 3584 
Q 2916 3584 3314 3078 
Q 3713 2572 3713 1747 
Q 3713 922 3314 415 
Q 2916 -91 2278 -91 
Q 1894 -91 1617 61 
Q 1341 213 1159 525 
z
M 3116 1747 
Q 3116 2381 2855 2742 
Q 2594 3103 2138 3103 
Q 1681 3103 1420 2742 
Q 1159 2381 1159 1747 
Q 1159 1113 1420 752 
Q 1681 391 2138 391 
Q 2594 391 2855 752 
Q 3116 1113 3116 1747 
z
" transform="scale(0.015625)"/>
       <path id="DejaVuSans-4e" d="M 581 4863 
L 1159 4863 
L 1159 1991 
L 2875 3500 
L 3609 3500 
L 1753 1863 
L 3688 0 
L 2938 0 
L 1159 1709 
L 1159 0 
L 581 0 
L 581 4863 
z
" transform="scale(0.015625)"/>
       <path id="DejaVuSans-39" d="M 1831 0 
L 50 4666 
L 709 4666 
L 2188 738 
L 3669 4666 
L 4325 4666 
L 2547 0 
L 1831 0 
z
" transform="scale(0.015625)"/>
       <path id="DejaVuSans-49" d="M 2375 4863 
L 2375 4384 
L 1825 4384 
Q 1516 4384 1395 4259 
Q 1275 4134 1275 3809 
L 1275 3500 
L 2222 3500 
L 2222 3053 
L 1275 3053 
L 1275 0 
L 697 0 
L 697 3053 
L 147 3053 
L 147 3500 
L 697 3500 
L 697 3744 
Q 697 4328 969 4595 
Q 1241 4863 1831 4863 
L 2375 4863 
z
" transform="scale(0.015625)"/>
       <path id="DejaVuSans-52" d="M 1959 3097 
Q 1497 3097 1228 2736 
Q 959 2375 959 1747 
Q 959 1119 1226 758 
Q 1494 397 1959 397 
Q 2419 397 2687 759 
Q 2956 1122 2956 1747 
Q 2956 2369 2687 2733 
Q 2419 3097 1959 3097 
z
M 1959 3584 
Q 2709 3584 3137 3096 
Q 3566 2609 3566 1747 
Q 3566 888 3137 398 
Q 2709 -91 1959 -91 
Q 1206 -91 779 398 
Q 353 888 353 1747 
Q 353 2609 779 3096 
Q 1206 3584 1959 3584 
z
" transform="scale(0.015625)"/>
       <path id="DejaVuSans-57" d="M 1172 4494 
L 1172 3500 
L 2356 3500 
L 2356 3053 
L 1172 3053 
L 1172 1153 
Q 1172 725 1289 603 
Q 1406 481 1766 481 
L 2356 481 
L 2356 0 
L 1766 0 
Q 1100 0 847 248 
Q 594 497 594 1153 
L 594 3053 
L 172 3053 
L 172 3500 
L 594 3500 
L 594 4494 
L 1172 4494 
z
" transform="scale(0.015625)"/>
      </defs>
      <use xlink:href="#DejaVuSans-27"/>
      <use xlink:href="#DejaVuSans-48" transform="translate(77 0)"/>
      <use xlink:href="#DejaVuSans-48" transform="translate(138.53125 0)"/>
      <use xlink:href="#DejaVuSans-53" transform="translate(200.0625 0)"/>
      <use xlink:href="#DejaVuSans-36" transform="translate(263.546875 0)"/>
      <use xlink:href="#DejaVuSans-48" transform="translate(327.03125 0)"/>
      <use xlink:href="#DejaVuSans-48" transform="translate(388.5625 0)"/>
      <use xlink:href="#DejaVuSans-4e" transform="translate(450.09375 0)"/>
      <use xlink:href="#DejaVuSans-3" transform="translate(508 0)"/>
      <use xlink:href="#DejaVuSans-39" transform="translate(539.78125 0)"/>
      <use xlink:href="#DejaVuSans-16" transform="translate(608.1875 0)"/>
      <use xlink:href="#DejaVuSans-3" transform="translate(671.8125 0)"/>
      <use xlink:href="#DejaVuSans-49" transform="translate(703.59375 0)"/>
      <use xlink:href="#DejaVuSans-55" transform="translate(738.796875 0)"/>
      <use xlink:href="#DejaVuSans-52" transform="translate(777.703125 0)"/>
      <use xlink:href="#DejaVuSans-51" transform="translate(838.890625 0)"/>
      <use xlink:href="#DejaVuSans-57" transform="translate(902.265625 0)"/>
      <use xlink:href="#DejaVuSans-4c" transform="translate(941.46875 0)"/>
      <use xlink:href="#DejaVuSans-48" transform="translate(969.25 0)"/>
      <use xlink:href="#DejaVuSans-55" transform="translate(1030.78125 0)"/>
     </g>
    </g>
    <g id="PathCollection_1">
     <defs>
      <path id="mcac354d55f" d="M 0 -7.071068 
L -1.587554 -2.18508 
L -6.724985 -2.18508 
L -2.568716 0.834626 
L -4.156269 5.720614 
L -0 2.700907 
L 4.156269 5.720614 
L 2.568716 0.834626 
L 6.724985 -2.18508 
L 1.587554 -2.18508 
z
" style="stroke: #000000"/>
     </defs>
     <g>
      <use xlink:href="#mcac354d55f" x="391.657344" y="333.639531" style="fill: #ff0000; stroke: #000000"/>
     </g>
    </g>
    <g id="text_20">
     <!-- DeepSeek V3 best (0.663) -->
     <g style="fill: #262626" transform="translate(416.857344 337.314531) scale(0.14 -0.14)">
      <defs>
       <path id="DejaVuSans-45" d="M 3116 1747 
Q 3116 2381 2855 2742 
Q 2594 3103 2138 3103 
Q 1681 3103 1420 2742 
Q 1159 2381 1159 1747 
Q 1159 1113 1420 752 
Q 1681 391 2138 391 
Q 2594 391 2855 752 
Q 3116 1113 3116 1747 
z
M 1159 2969 
Q 1341 3281 1617 3432 
Q 1894 3584 2278 3584 
Q 2916 3584 3314 3078 
Q 3713 2572 3713 1747 
Q 3713 922 3314 415 
Q 2916 -91 2278 -91 
Q 1894 -91 1617 61 
Q 1341 213 1159 525 
L 1159 0 
L 581 0 
L 581 4863 
L 1159 4863 
L 1159 2969 
z
" transform="scale(0.015625)"/>
       <path id="DejaVuSans-11" d="M 684 794 
L 1344 794 
L 1344 0 
L 684 0 
L 684 794 
z
" transform="scale(0.015625)"/>
       <path id="DejaVuSans-19" d="M 2113 2584 
Q 1688 2584 1439 2293 
Q 1191 2003 1191 1497 
Q 1191 994 1439 701 
Q 1688 409 2113 409 
Q 2538 409 2786 701 
Q 3034 994 3034 1497 
Q 3034 2003 2786 2293 
Q 2538 2584 2113 2584 
z
M 3366 4563 
L 3366 3988 
Q 3128 4100 2886 4159 
Q 2644 4219 2406 4219 
Q 1781 4219 1451 3797 
Q 1122 3375 1075 2522 
Q 1259 2794 1537 2939 
Q 1816 3084 2150 3084 
Q 2853 3084 3261 2657 
Q 3669 2231 3669 1497 
Q 3669 778 3244 343 
Q 2819 -91 2113 -91 
Q 1303 -91 875 529 
Q 447 1150 447 2328 
Q 447 3434 972 4092 
Q 1497 4750 2381 4750 
Q 2619 4750 2861 4703 
Q 3103 4656 3366 4563 
z
" transform="scale(0.015625)"/>
      </defs>
      <use xlink:href="#DejaVuSans-27"/>
      <use xlink:href="#DejaVuSans-48" transform="translate(77 0)"/>
      <use xlink:href="#DejaVuSans-48" transform="translate(138.53125 0)"/>
      <use xlink:href="#DejaVuSans-53" transform="translate(200.0625 0)"/>
      <use xlink:href="#DejaVuSans-36" transform="translate(263.546875 0)"/>
      <use xlink:href="#DejaVuSans-48" transform="translate(327.03125 0)"/>
      <use xlink:href="#DejaVuSans-48" transform="translate(388.5625 0)"/>
      <use xlink:href="#DejaVuSans-4e" transform="translate(450.09375 0)"/>
      <use xlink:href="#DejaVuSans-3" transform="translate(508 0)"/>
      <use xlink:href="#DejaVuSans-39" transform="translate(539.78125 0)"/>
      <use xlink:href="#DejaVuSans-16" transform="translate(608.1875 0)"/>
      <use xlink:href="#DejaVuSans-3" transform="translate(671.8125 0)"/>
      <use xlink:href="#DejaVuSans-45" transform="translate(703.59375 0)"/>
      <use xlink:href="#DejaVuSans-48" transform="translate(767.078125 0)"/>
      <use xlink:href="#DejaVuSans-56" transform="translate(828.609375 0)"/>
      <use xlink:href="#DejaVuSans-57" transform="translate(880.703125 0)"/>
      <use xlink:href="#DejaVuSans-3" transform="translate(919.90625 0)"/>
      <use xlink:href="#DejaVuSans-b" transform="translate(951.6875 0)"/>
      <use xlink:href="#DejaVuSans-13" transform="translate(990.703125 0)"/>
      <use xlink:href="#DejaVuSans-11" transform="translate(1054.328125 0)"/>
      <use xlink:href="#DejaVuSans-19" transform="translate(1086.109375 0)"/>
      <use xlink:href="#DejaVuSans-19" transform="translate(1149.734375 0)"/>
      <use xlink:href="#DejaVuSans-16" transform="translate(1213.359375 0)"/>
      <use xlink:href="#DejaVuSans-c" transform="translate(1276.984375 0)"/>
     </g>
    </g>
    <g id="line2d_20">
     <path d="M 377.657344 353.415625 
L 391.657344 353.415625 
L 405.657344 353.415625 
" style="fill: none; stroke: #dc2626; stroke-width: 2; stroke-linecap: round"/>
     <g>
      <use xlink:href="#m719872f8a6" x="391.657344" y="353.415625" style="fill: #dc2626; stroke: #dc2626"/>
     </g>
    </g>
    <g id="text_21">
     <!-- Kimi K2 frontier -->
     <g style="fill: #262626" transform="translate(416.857344 358.315625) scale(0.14 -0.14)">
      <defs>
       <path id="DejaVuSans-2e" d="M 628 4666 
L 1259 4666 
L 1259 2694 
L 3353 4666 
L 4166 4666 
L 1850 2491 
L 4331 0 
L 3500 0 
L 1259 2247 
L 1259 0 
L 628 0 
L 628 4666 
z
" transform="scale(0.015625)"/>
      </defs>
      <use xlink:href="#DejaVuSans-2e"/>
      <use xlink:href="#DejaVuSans-4c" transform="translate(65.578125 0)"/>
      <use xlink:href="#DejaVuSans-50" transform="translate(93.359375 0)"/>
      <use xlink:href="#DejaVuSans-4c" transform="translate(190.765625 0)"/>
      <use xlink:href="#DejaVuSans-3" transform="translate(218.546875 0)"/>
      <use xlink:href="#DejaVuSans-2e" transform="translate(250.328125 0)"/>
      <use xlink:href="#DejaVuSans-15" transform="translate(315.90625 0)"/>
      <use xlink:href="#DejaVuSans-3" transform="translate(379.53125 0)"/>
      <use xlink:href="#DejaVuSans-49" transform="translate(411.3125 0)"/>
      <use xlink:href="#DejaVuSans-55" transform="translate(446.515625 0)"/>
      <use xlink:href="#DejaVuSans-52" transform="translate(485.421875 0)"/>
      <use xlink:href="#DejaVuSans-51" transform="translate(546.609375 0)"/>
      <use xlink:href="#DejaVuSans-57" transform="translate(609.984375 0)"/>
      <use xlink:href="#DejaVuSans-4c" transform="translate(649.1875 0)"/>
      <use xlink:href="#DejaVuSans-48" transform="translate(676.96875 0)"/>
      <use xlink:href="#DejaVuSans-55" transform="translate(738.5 0)"/>
     </g>
    </g>
    <g id="PathCollection_2">
     <g>
      <use xlink:href="#mcac354d55f" x="391.657344" y="375.641719" style="fill: #ff0000; stroke: #000000"/>
     </g>
    </g>
    <g id="text_22">
     <!-- Kimi K2 best (0.583) -->
     <g style="fill: #262626" transform="translate(416.857344 379.316719) scale(0.14 -0.14)">
      <defs>
       <path id="DejaVuSans-1b" d="M 2034 2216 
Q 1584 2216 1326 1975 
Q 1069 1734 1069 1313 
Q 1069 891 1326 650 
Q 1584 409 2034 409 
Q 2484 409 2743 651 
Q 3003 894 3003 1313 
Q 3003 1734 2745 1975 
Q 2488 2216 2034 2216 
z
M 1403 2484 
Q 997 2584 770 2862 
Q 544 3141 544 3541 
Q 544 4100 942 4425 
Q 1341 4750 2034 4750 
Q 2731 4750 3128 4425 
Q 3525 4100 3525 3541 
Q 3525 3141 3298 2862 
Q 3072 2584 2669 2484 
Q 3125 2378 3379 2068 
Q 3634 1759 3634 1313 
Q 3634 634 3220 271 
Q 2806 -91 2034 -91 
Q 1263 -91 848 271 
Q 434 634 434 1313 
Q 434 1759 690 2068 
Q 947 2378 1403 2484 
z
M 1172 3481 
Q 1172 3119 1398 2916 
Q 1625 2713 2034 2713 
Q 2441 2713 2670 2916 
Q 2900 3119 2900 3481 
Q 2900 3844 2670 4047 
Q 2441 4250 2034 4250 
Q 1625 4250 1398 4047 
Q 1172 3844 1172 3481 
z
" transform="scale(0.015625)"/>
      </defs>
      <use xlink:href="#DejaVuSans-2e"/>
      <use xlink:href="#DejaVuSans-4c" transform="translate(65.578125 0)"/>
      <use xlink:href="#DejaVuSans-50" transform="translate(93.359375 0)"/>
      <use xlink:href="#DejaVuSans-4c" transform="translate(190.765625 0)"/>
      <use xlink:href="#DejaVuSans-3" transform="translate(218.546875 0)"/>
      <use xlink:href="#DejaVuSans-2e" transform="translate(250.328125 0)"/>
      <use xlink:href="#DejaVuSans-15" transform="translate(315.90625 0)"/>
      <use xlink:href="#DejaVuSans-3" transform="translate(379.53125 0)"/>
      <use xlink:href="#DejaVuSans-45" transform="translate(411.3125 0)"/>
      <use xlink:href="#DejaVuSans-48" transform="translate(474.796875 0)"/>
      <use xlink:href="#DejaVuSans-56" transform="translate(536.328125 0)"/>
      <use xlink:href="#DejaVuSans-57" transform="translate(588.421875 0)"/>
      <use xlink:href="#DejaVuSans-3" transform="translate(627.625 0)"/>
      <use xlink:href="#DejaVuSans-b" transform="translate(659.40625 0)"/>
      <use xlink:href="#DejaVuSans-13" transform="translate(698.421875 0)"/>
      <use xlink:href="#DejaVuSans-11" transform="translate(762.046875 0)"/>
      <use xlink:href="#DejaVuSans-18" transform="translate(793.828125 0)"/>
      <use xlink:href="#DejaVuSans-1b" transform="translate(857.453125 0)"/>
      <use xlink:href="#DejaVuSans-16" transform="translate(921.078125 0)"/>
      <use xlink:href="#DejaVuSans-c" transform="translate(984.703125 0)"/>
     </g>
    </g>
   </g>
   <g id="PathCollection_3">
    <g clip-path="url(#p9fad410c66)">
     <use xlink:href="#mcac354d55f" x="588.333707" y="24.84" style="fill: #ff0000; stroke: #000000"/>
    </g>
   </g>
   <g id="PathCollection_4">
    <g clip-path="url(#p9fad410c66)">
     <use xlink:href="#mcac354d55f" x="417.419013" y="198.702259" style="fill: #ff0000; stroke: #000000"/>
    </g>
   </g>
  </g>
 </g>
 <defs>
  <clipPath id="p9fad410c66">
   <rect x="55.697344" y="7.2" width="558" height="388.08"/>
  </clipPath>
 </defs>
</svg>
