<?xml version="1.0" encoding="utf-8" standalone="no"?>
<!DOCTYPE svg PUBLIC "-//W3C//DTD SVG 1.1//EN"
  "http://www.w3.org/Graphics/SVG/1.1/DTD/svg11.dtd">
<svg xmlns:xlink="http://www.w3.org/1999/xlink" width="623.635915pt" height="470.158594pt" viewBox="0 0 623.635915 470.158594" xmlns="http://www.w3.org/2000/svg" version="1.1">
 <metadata>
  <rdf:RDF xmlns:dc="http://purl.org/dc/elements/1.1/" xmlns:cc="http://creativecommons.org/ns#" xmlns:rdf="http://www.w3.org/1999/02/22-rdf-syntax-ns#">
   <cc:Work>
    <dc:type rdf:resource="http://purl.org/dc/dcmitype/StillImage"/>
    <dc:date>2026-07-16T15:19:13.878679</dc:date>
    <dc:format>image/svg+xml</dc:format>
    <dc:creator>
     <cc:Agent>
      <dc:title>Matplotlib v3.11.0, https://matplotlib.org/</dc:title>
     </cc:Agent>
    </dc:creator>
   </cc:Work>
  </rdf:RDF>
 </metadata>
 <defs>
  <style type="text/css">*{stroke-linejoin: round; stroke-linecap: butt}</style>
 </defs>
 <g id="figure_1">
  <g id="patch_1">
   <path d="M 0 470.158594 
L 623.635915 470.158594 
L 623.635915 0 
L 0 0 
z
" style="fill: #ffffff"/>
  </g>
  <g id="axes_1">
   <g id="patch_2">
    <path d="M 49.199531 414.957187 
L 607.199531 414.957187 
L 607.199531 26.877187 
L 49.199531 26.877187 
z
" style="fill: #ffffff"/>
   </g>
   <g id="matplotlib.axis_1">
    <g id="xtick_1">
     <g id="line2d_1">
      <path d="M 74.563168 414.957187 
L 74.563168 26.877187 
" clip-path="url(#pd854ee41fb)" style="fill: none; stroke: #cccccc; stroke-opacity: 0.3; stroke-linecap: round"/>
     </g>
     <g id="text_1">
      <!-- 0 -->
      <g style="fill: #262626" transform="translate(69.314105 436.99332) scale(0.165 -0.165)">
       <defs>
        <path id="DejaVuSans-13" d="M 2034 4250 
Q 1547 4250 1301 3770 
Q 1056 3291 1056 2328 
Q 1056 1369 1301 889 
Q 1547 409 2034 409 
Q 2525 409 2770 889 
Q 3016 1369 3016 2328 
Q 3016 3291 2770 3770 
Q 2525 4250 2034 4250 
z
M 2034 4750 
Q 2819 4750 3233 4129 
Q 3647 3509 3647 2328 
Q 3647 1150 3233 529 
Q 2819 -91 2034 -91 
Q 1250 -91 836 529 
Q 422 1150 422 2328 
Q 422 3509 836 4129 
Q 1250 4750 2034 4750 
z
" transform="scale(0.015625)"/>
       </defs>
       <use xlink:href="#DejaVuSans-13"/>
      </g>
     </g>
    </g>
    <g id="xtick_2">
     <g id="line2d_2">
      <path d="M 162.250761 414.957187 
L 162.250761 26.877187 
" clip-path="url(#pd854ee41fb)" style="fill: none; stroke: #cccccc; stroke-opacity: 0.3; stroke-linecap: round"/>
     </g>
     <g id="text_2">
      <!-- 20 -->
      <g style="fill: #262626" transform="translate(151.752636 436.99332) scale(0.165 -0.165)">
       <defs>
        <path id="DejaVuSans-15" d="M 1228 531 
L 3431 531 
L 3431 0 
L 469 0 
L 469 531 
Q 828 903 1448 1529 
Q 2069 2156 2228 2338 
Q 2531 2678 2651 2914 
Q 2772 3150 2772 3378 
Q 2772 3750 2511 3984 
Q 2250 4219 1831 4219 
Q 1534 4219 1204 4116 
Q 875 4013 500 3803 
L 500 4441 
Q 881 4594 1212 4672 
Q 1544 4750 1819 4750 
Q 2544 4750 2975 4387 
Q 3406 4025 3406 3419 
Q 3406 3131 3298 2873 
Q 3191 2616 2906 2266 
Q 2828 2175 2409 1742 
Q 1991 1309 1228 531 
z
" transform="scale(0.015625)"/>
       </defs>
       <use xlink:href="#DejaVuSans-15"/>
       <use xlink:href="#DejaVuSans-13" transform="translate(63.625 0)"/>
      </g>
     </g>
    </g>
    <g id="xtick_3">
     <g id="line2d_3">
      <path d="M 249.938354 414.957187 
L 249.938354 26.877187 
" clip-path="url(#pd854ee41fb)" style="fill: none; stroke: #cccccc; stroke-opacity: 0.3; stroke-linecap: round"/>
     </g>
     <g id="text_3">
      <!-- 40 -->
      <g style="fill: #262626" transform="translate(239.440229 436.99332) scale(0.165 -0.165)">
       <defs>
        <path id="DejaVuSans-17" d="M 2419 4116 
L 825 1625 
L 2419 1625 
L 2419 4116 
z
M 2253 4666 
L 3047 4666 
L 3047 1625 
L 3713 1625 
L 3713 1100 
L 3047 1100 
L 3047 0 
L 2419 0 
L 2419 1100 
L 313 1100 
L 313 1709 
L 2253 4666 
z
" transform="scale(0.015625)"/>
       </defs>
       <use xlink:href="#DejaVuSans-17"/>
       <use xlink:href="#DejaVuSans-13" transform="translate(63.625 0)"/>
      </g>
     </g>
    </g>
    <g id="xtick_4">
     <g id="line2d_4">
      <path d="M 337.625948 414.957187 
L 337.625948 26.877187 
" clip-path="url(#pd854ee41fb)" style="fill: none; stroke: #cccccc; stroke-opacity: 0.3; stroke-linecap: round"/>
     </g>
     <g id="text_4">
      <!-- 60 -->
      <g style="fill: #262626" transform="translate(327.127823 436.99332) scale(0.165 -0.165)">
       <defs>
        <path id="DejaVuSans-19" d="M 2113 2584 
Q 1688 2584 1439 2293 
Q 1191 2003 1191 1497 
Q 1191 994 1439 701 
Q 1688 409 2113 409 
Q 2538 409 2786 701 
Q 3034 994 3034 1497 
Q 3034 2003 2786 2293 
Q 2538 2584 2113 2584 
z
M 3366 4563 
L 3366 3988 
Q 3128 4100 2886 4159 
Q 2644 4219 2406 4219 
Q 1781 4219 1451 3797 
Q 1122 3375 1075 2522 
Q 1259 2794 1537 2939 
Q 1816 3084 2150 3084 
Q 2853 3084 3261 2657 
Q 3669 2231 3669 1497 
Q 3669 778 3244 343 
Q 2819 -91 2113 -91 
Q 1303 -91 875 529 
Q 447 1150 447 2328 
Q 447 3434 972 4092 
Q 1497 4750 2381 4750 
Q 2619 4750 2861 4703 
Q 3103 4656 3366 4563 
z
" transform="scale(0.015625)"/>
       </defs>
       <use xlink:href="#DejaVuSans-19"/>
       <use xlink:href="#DejaVuSans-13" transform="translate(63.625 0)"/>
      </g>
     </g>
    </g>
    <g id="xtick_5">
     <g id="line2d_5">
      <path d="M 425.313541 414.957187 
L 425.313541 26.877187 
" clip-path="url(#pd854ee41fb)" style="fill: none; stroke: #cccccc; stroke-opacity: 0.3; stroke-linecap: round"/>
     </g>
     <g id="text_5">
      <!-- 80 -->
      <g style="fill: #262626" transform="translate(414.815416 436.99332) scale(0.165 -0.165)">
       <defs>
        <path id="DejaVuSans-1b" d="M 2034 2216 
Q 1584 2216 1326 1975 
Q 1069 1734 1069 1313 
Q 1069 891 1326 650 
Q 1584 409 2034 409 
Q 2484 409 2743 651 
Q 3003 894 3003 1313 
Q 3003 1734 2745 1975 
Q 2488 2216 2034 2216 
z
M 1403 2484 
Q 997 2584 770 2862 
Q 544 3141 544 3541 
Q 544 4100 942 4425 
Q 1341 4750 2034 4750 
Q 2731 4750 3128 4425 
Q 3525 4100 3525 3541 
Q 3525 3141 3298 2862 
Q 3072 2584 2669 2484 
Q 3125 2378 3379 2068 
Q 3634 1759 3634 1313 
Q 3634 634 3220 271 
Q 2806 -91 2034 -91 
Q 1263 -91 848 271 
Q 434 634 434 1313 
Q 434 1759 690 2068 
Q 947 2378 1403 2484 
z
M 1172 3481 
Q 1172 3119 1398 2916 
Q 1625 2713 2034 2713 
Q 2441 2713 2670 2916 
Q 2900 3119 2900 3481 
Q 2900 3844 2670 4047 
Q 2441 4250 2034 4250 
Q 1625 4250 1398 4047 
Q 1172 3844 1172 3481 
z
" transform="scale(0.015625)"/>
       </defs>
       <use xlink:href="#DejaVuSans-1b"/>
       <use xlink:href="#DejaVuSans-13" transform="translate(63.625 0)"/>
      </g>
     </g>
    </g>
    <g id="xtick_6">
     <g id="line2d_6">
      <path d="M 513.001134 414.957187 
L 513.001134 26.877187 
" clip-path="url(#pd854ee41fb)" style="fill: none; stroke: #cccccc; stroke-opacity: 0.3; stroke-linecap: round"/>
     </g>
     <g id="text_6">
      <!-- 100 -->
      <g style="fill: #262626" transform="translate(497.253947 436.99332) scale(0.165 -0.165)">
       <defs>
        <path id="DejaVuSans-14" d="M 794 531 
L 1825 531 
L 1825 4091 
L 703 3866 
L 703 4441 
L 1819 4666 
L 2450 4666 
L 2450 531 
L 3481 531 
L 3481 0 
L 794 0 
L 794 531 
z
" transform="scale(0.015625)"/>
       </defs>
       <use xlink:href="#DejaVuSans-14"/>
       <use xlink:href="#DejaVuSans-13" transform="translate(63.625 0)"/>
       <use xlink:href="#DejaVuSans-13" transform="translate(127.25 0)"/>
      </g>
     </g>
    </g>
    <g id="xtick_7">
     <g id="line2d_7">
      <path d="M 600.688727 414.957187 
L 600.688727 26.877187 
" clip-path="url(#pd854ee41fb)" style="fill: none; stroke: #cccccc; stroke-opacity: 0.3; stroke-linecap: round"/>
     </g>
     <g id="text_7">
      <!-- 120 -->
      <g style="fill: #262626" transform="translate(584.94154 436.99332) scale(0.165 -0.165)">
       <use xlink:href="#DejaVuSans-14"/>
       <use xlink:href="#DejaVuSans-15" transform="translate(63.625 0)"/>
       <use xlink:href="#DejaVuSans-13" transform="translate(127.25 0)"/>
      </g>
     </g>
    </g>
    <g id="text_8">
     <!-- Time Overhead (%) -->
     <g style="fill: #262626" transform="translate(240.917813 458.634375) scale(0.18 -0.18)">
      <defs>
       <path id="DejaVuSans-37" d="M -19 4666 
L 3928 4666 
L 3928 4134 
L 2272 4134 
L 2272 0 
L 1638 0 
L 1638 4134 
L -19 4134 
L -19 4666 
z
" transform="scale(0.015625)"/>
       <path id="DejaVuSans-4c" d="M 603 3500 
L 1178 3500 
L 1178 0 
L 603 0 
L 603 3500 
z
M 603 4863 
L 1178 4863 
L 1178 4134 
L 603 4134 
L 603 4863 
z
" transform="scale(0.015625)"/>
       <path id="DejaVuSans-50" d="M 3328 2828 
Q 3544 3216 3844 3400 
Q 4144 3584 4550 3584 
Q 5097 3584 5394 3201 
Q 5691 2819 5691 2113 
L 5691 0 
L 5113 0 
L 5113 2094 
Q 5113 2597 4934 2840 
Q 4756 3084 4391 3084 
Q 3944 3084 3684 2787 
Q 3425 2491 3425 1978 
L 3425 0 
L 2847 0 
L 2847 2094 
Q 2847 2600 2669 2842 
Q 2491 3084 2119 3084 
Q 1678 3084 1418 2786 
Q 1159 2488 1159 1978 
L 1159 0 
L 581 0 
L 581 3500 
L 1159 3500 
L 1159 2956 
Q 1356 3278 1631 3431 
Q 1906 3584 2284 3584 
Q 2666 3584 2933 3390 
Q 3200 3197 3328 2828 
z
" transform="scale(0.015625)"/>
       <path id="DejaVuSans-48" d="M 3597 1894 
L 3597 1613 
L 953 1613 
Q 991 1019 1311 708 
Q 1631 397 2203 397 
Q 2534 397 2845 478 
Q 3156 559 3463 722 
L 3463 178 
Q 3153 47 2828 -22 
Q 2503 -91 2169 -91 
Q 1331 -91 842 396 
Q 353 884 353 1716 
Q 353 2575 817 3079 
Q 1281 3584 2069 3584 
Q 2775 3584 3186 3129 
Q 3597 2675 3597 1894 
z
M 3022 2063 
Q 3016 2534 2758 2815 
Q 2500 3097 2075 3097 
Q 1594 3097 1305 2825 
Q 1016 2553 972 2059 
L 3022 2063 
z
" transform="scale(0.015625)"/>
       <path id="DejaVuSans-3" transform="scale(0.015625)"/>
       <path id="DejaVuSans-32" d="M 2522 4238 
Q 1834 4238 1429 3725 
Q 1025 3213 1025 2328 
Q 1025 1447 1429 934 
Q 1834 422 2522 422 
Q 3209 422 3611 934 
Q 4013 1447 4013 2328 
Q 4013 3213 3611 3725 
Q 3209 4238 2522 4238 
z
M 2522 4750 
Q 3503 4750 4090 4092 
Q 4678 3434 4678 2328 
Q 4678 1225 4090 567 
Q 3503 -91 2522 -91 
Q 1538 -91 948 565 
Q 359 1222 359 2328 
Q 359 3434 948 4092 
Q 1538 4750 2522 4750 
z
" transform="scale(0.015625)"/>
       <path id="DejaVuSans-59" d="M 191 3500 
L 800 3500 
L 1894 563 
L 2988 3500 
L 3597 3500 
L 2284 0 
L 1503 0 
L 191 3500 
z
" transform="scale(0.015625)"/>
       <path id="DejaVuSans-55" d="M 2631 2963 
Q 2534 3019 2420 3045 
Q 2306 3072 2169 3072 
Q 1681 3072 1420 2755 
Q 1159 2438 1159 1844 
L 1159 0 
L 581 0 
L 581 3500 
L 1159 3500 
L 1159 2956 
Q 1341 3275 1631 3429 
Q 1922 3584 2338 3584 
Q 2397 3584 2469 3576 
Q 2541 3569 2628 3553 
L 2631 2963 
z
" transform="scale(0.015625)"/>
       <path id="DejaVuSans-4b" d="M 3513 2113 
L 3513 0 
L 2938 0 
L 2938 2094 
Q 2938 2591 2744 2837 
Q 2550 3084 2163 3084 
Q 1697 3084 1428 2787 
Q 1159 2491 1159 1978 
L 1159 0 
L 581 0 
L 581 4863 
L 1159 4863 
L 1159 2956 
Q 1366 3272 1645 3428 
Q 1925 3584 2291 3584 
Q 2894 3584 3203 3211 
Q 3513 2838 3513 2113 
z
" transform="scale(0.015625)"/>
       <path id="DejaVuSans-44" d="M 2194 1759 
Q 1497 1759 1228 1600 
Q 959 1441 959 1056 
Q 959 750 1161 570 
Q 1363 391 1709 391 
Q 2188 391 2477 730 
Q 2766 1069 2766 1631 
L 2766 1759 
L 2194 1759 
z
M 3341 1997 
L 3341 0 
L 2766 0 
L 2766 531 
Q 2569 213 2275 61 
Q 1981 -91 1556 -91 
Q 1019 -91 701 211 
Q 384 513 384 1019 
Q 384 1609 779 1909 
Q 1175 2209 1959 2209 
L 2766 2209 
L 2766 2266 
Q 2766 2663 2505 2880 
Q 2244 3097 1772 3097 
Q 1472 3097 1187 3025 
Q 903 2953 641 2809 
L 641 3341 
Q 956 3463 1253 3523 
Q 1550 3584 1831 3584 
Q 2591 3584 2966 3190 
Q 3341 2797 3341 1997 
z
" transform="scale(0.015625)"/>
       <path id="DejaVuSans-47" d="M 2906 2969 
L 2906 4863 
L 3481 4863 
L 3481 0 
L 2906 0 
L 2906 525 
Q 2725 213 2448 61 
Q 2172 -91 1784 -91 
Q 1150 -91 751 415 
Q 353 922 353 1747 
Q 353 2572 751 3078 
Q 1150 3584 1784 3584 
Q 2172 3584 2448 3432 
Q 2725 3281 2906 2969 
z
M 947 1747 
Q 947 1113 1208 752 
Q 1469 391 1925 391 
Q 2381 391 2643 752 
Q 2906 1113 2906 1747 
Q 2906 2381 2643 2742 
Q 2381 3103 1925 3103 
Q 1469 3103 1208 2742 
Q 947 2381 947 1747 
z
" transform="scale(0.015625)"/>
       <path id="DejaVuSans-b" d="M 1984 4856 
Q 1566 4138 1362 3434 
Q 1159 2731 1159 2009 
Q 1159 1288 1364 580 
Q 1569 -128 1984 -844 
L 1484 -844 
Q 1016 -109 783 600 
Q 550 1309 550 2009 
Q 550 2706 781 3412 
Q 1013 4119 1484 4856 
L 1984 4856 
z
" transform="scale(0.015625)"/>
       <path id="DejaVuSans-8" d="M 4653 2053 
Q 4381 2053 4226 1822 
Q 4072 1591 4072 1178 
Q 4072 772 4226 539 
Q 4381 306 4653 306 
Q 4919 306 5073 539 
Q 5228 772 5228 1178 
Q 5228 1588 5073 1820 
Q 4919 2053 4653 2053 
z
M 4653 2450 
Q 5147 2450 5437 2106 
Q 5728 1763 5728 1178 
Q 5728 594 5436 251 
Q 5144 -91 4653 -91 
Q 4153 -91 3862 251 
Q 3572 594 3572 1178 
Q 3572 1766 3864 2108 
Q 4156 2450 4653 2450 
z
M 1428 4353 
Q 1159 4353 1004 4120 
Q 850 3888 850 3481 
Q 850 3069 1003 2837 
Q 1156 2606 1428 2606 
Q 1700 2606 1854 2837 
Q 2009 3069 2009 3481 
Q 2009 3884 1853 4118 
Q 1697 4353 1428 4353 
z
M 4250 4750 
L 4750 4750 
L 1831 -91 
L 1331 -91 
L 4250 4750 
z
M 1428 4750 
Q 1922 4750 2215 4408 
Q 2509 4066 2509 3481 
Q 2509 2891 2217 2550 
Q 1925 2209 1428 2209 
Q 931 2209 642 2551 
Q 353 2894 353 3481 
Q 353 4063 643 4406 
Q 934 4750 1428 4750 
z
" transform="scale(0.015625)"/>
       <path id="DejaVuSans-c" d="M 513 4856 
L 1013 4856 
Q 1481 4119 1714 3412 
Q 1947 2706 1947 2009 
Q 1947 1309 1714 600 
Q 1481 -109 1013 -844 
L 513 -844 
Q 928 -128 1133 580 
Q 1338 1288 1338 2009 
Q 1338 2731 1133 3434 
Q 928 4138 513 4856 
z
" transform="scale(0.015625)"/>
      </defs>
      <use xlink:href="#DejaVuSans-37"/>
      <use xlink:href="#DejaVuSans-4c" transform="translate(58 0)"/>
      <use xlink:href="#DejaVuSans-50" transform="translate(85.78125 0)"/>
      <use xlink:href="#DejaVuSans-48" transform="translate(183.1875 0)"/>
      <use xlink:href="#DejaVuSans-3" transform="translate(244.71875 0)"/>
      <use xlink:href="#DejaVuSans-32" transform="translate(276.5 0)"/>
      <use xlink:href="#DejaVuSans-59" transform="translate(355.21875 0)"/>
      <use xlink:href="#DejaVuSans-48" transform="translate(414.40625 0)"/>
      <use xlink:href="#DejaVuSans-55" transform="translate(475.9375 0)"/>
      <use xlink:href="#DejaVuSans-4b" transform="translate(515.296875 0)"/>
      <use xlink:href="#DejaVuSans-48" transform="translate(578.671875 0)"/>
      <use xlink:href="#DejaVuSans-44" transform="translate(640.203125 0)"/>
      <use xlink:href="#DejaVuSans-47" transform="translate(701.484375 0)"/>
      <use xlink:href="#DejaVuSans-3" transform="translate(764.96875 0)"/>
      <use xlink:href="#DejaVuSans-b" transform="translate(796.75 0)"/>
      <use xlink:href="#DejaVuSans-8" transform="translate(835.765625 0)"/>
      <use xlink:href="#DejaVuSans-c" transform="translate(930.78125 0)"/>
     </g>
    </g>
   </g>
   <g id="matplotlib.axis_2">
    <g id="ytick_1">
     <g id="line2d_8">
      <path d="M 49.199531 397.317187 
L 607.199531 397.317187 
" clip-path="url(#pd854ee41fb)" style="fill: none; stroke: #cccccc; stroke-opacity: 0.3; stroke-linecap: round"/>
     </g>
     <g id="text_9">
      <!-- 0 -->
      <g style="fill: #262626" transform="translate(29.201406 403.585254) scale(0.165 -0.165)">
       <use xlink:href="#DejaVuSans-13"/>
      </g>
     </g>
    </g>
    <g id="ytick_2">
     <g id="line2d_9">
      <path d="M 49.199531 322.808212 
L 607.199531 322.808212 
" clip-path="url(#pd854ee41fb)" style="fill: none; stroke: #cccccc; stroke-opacity: 0.3; stroke-linecap: round"/>
     </g>
     <g id="text_10">
      <!-- 2 -->
      <g style="fill: #262626" transform="translate(29.201406 329.076278) scale(0.165 -0.165)">
       <use xlink:href="#DejaVuSans-15"/>
      </g>
     </g>
    </g>
    <g id="ytick_3">
     <g id="line2d_10">
      <path d="M 49.199531 248.299236 
L 607.199531 248.299236 
" clip-path="url(#pd854ee41fb)" style="fill: none; stroke: #cccccc; stroke-opacity: 0.3; stroke-linecap: round"/>
     </g>
     <g id="text_11">
      <!-- 4 -->
      <g style="fill: #262626" transform="translate(29.201406 254.567302) scale(0.165 -0.165)">
       <use xlink:href="#DejaVuSans-17"/>
      </g>
     </g>
    </g>
    <g id="ytick_4">
     <g id="line2d_11">
      <path d="M 49.199531 173.79026 
L 607.199531 173.79026 
" clip-path="url(#pd854ee41fb)" style="fill: none; stroke: #cccccc; stroke-opacity: 0.3; stroke-linecap: round"/>
     </g>
     <g id="text_12">
      <!-- 6 -->
      <g style="fill: #262626" transform="translate(29.201406 180.058327) scale(0.165 -0.165)">
       <use xlink:href="#DejaVuSans-19"/>
      </g>
     </g>
    </g>
    <g id="ytick_5">
     <g id="line2d_12">
      <path d="M 49.199531 99.281285 
L 607.199531 99.281285 
" clip-path="url(#pd854ee41fb)" style="fill: none; stroke: #cccccc; stroke-opacity: 0.3; stroke-linecap: round"/>
     </g>
     <g id="text_13">
      <!-- 8 -->
      <g style="fill: #262626" transform="translate(29.201406 105.549351) scale(0.165 -0.165)">
       <use xlink:href="#DejaVuSans-1b"/>
      </g>
     </g>
    </g>
    <g id="text_14">
     <!-- CO₂ Savings (%) -->
     <g style="fill: #262626" transform="translate(20.877187 294.351562) rotate(-90) scale(0.18 -0.18)">
      <defs>
       <path id="DejaVuSans-26" d="M 4122 4306 
L 4122 3641 
Q 3803 3938 3442 4084 
Q 3081 4231 2675 4231 
Q 1875 4231 1450 3742 
Q 1025 3253 1025 2328 
Q 1025 1406 1450 917 
Q 1875 428 2675 428 
Q 3081 428 3442 575 
Q 3803 722 4122 1019 
L 4122 359 
Q 3791 134 3420 21 
Q 3050 -91 2638 -91 
Q 1578 -91 968 557 
Q 359 1206 359 2328 
Q 359 3453 968 4101 
Q 1578 4750 2638 4750 
Q 3056 4750 3426 4639 
Q 3797 4528 4122 4306 
z
" transform="scale(0.015625)"/>
       <path id="DejaVuSans-b5d" d="M 838 356 
L 2163 356 
L 2163 0 
L 294 0 
L 294 343 
Q 400 440 597 615 
Q 1672 1568 1672 1862 
Q 1672 2068 1509 2194 
Q 1347 2321 1081 2321 
Q 919 2321 728 2266 
Q 538 2212 313 2103 
L 313 2487 
Q 553 2575 761 2618 
Q 969 2662 1147 2662 
Q 1600 2662 1872 2456 
Q 2144 2250 2144 1912 
Q 2144 1478 1109 590 
Q 934 440 838 356 
z
" transform="scale(0.015625)"/>
       <path id="DejaVuSans-36" d="M 3425 4513 
L 3425 3897 
Q 3066 4069 2747 4153 
Q 2428 4238 2131 4238 
Q 1616 4238 1336 4038 
Q 1056 3838 1056 3469 
Q 1056 3159 1242 3001 
Q 1428 2844 1947 2747 
L 2328 2669 
Q 3034 2534 3370 2195 
Q 3706 1856 3706 1288 
Q 3706 609 3251 259 
Q 2797 -91 1919 -91 
Q 1588 -91 1214 -16 
Q 841 59 441 206 
L 441 856 
Q 825 641 1194 531 
Q 1563 422 1919 422 
Q 2459 422 2753 634 
Q 3047 847 3047 1241 
Q 3047 1584 2836 1778 
Q 2625 1972 2144 2069 
L 1759 2144 
Q 1053 2284 737 2584 
Q 422 2884 422 3419 
Q 422 4038 858 4394 
Q 1294 4750 2059 4750 
Q 2388 4750 2728 4690 
Q 3069 4631 3425 4513 
z
" transform="scale(0.015625)"/>
       <path id="DejaVuSans-51" d="M 3513 2113 
L 3513 0 
L 2938 0 
L 2938 2094 
Q 2938 2591 2744 2837 
Q 2550 3084 2163 3084 
Q 1697 3084 1428 2787 
Q 1159 2491 1159 1978 
L 1159 0 
L 581 0 
L 581 3500 
L 1159 3500 
L 1159 2956 
Q 1366 3272 1645 3428 
Q 1925 3584 2291 3584 
Q 2894 3584 3203 3211 
Q 3513 2838 3513 2113 
z
" transform="scale(0.015625)"/>
       <path id="DejaVuSans-4a" d="M 2906 1791 
Q 2906 2416 2648 2759 
Q 2391 3103 1925 3103 
Q 1463 3103 1205 2759 
Q 947 2416 947 1791 
Q 947 1169 1205 825 
Q 1463 481 1925 481 
Q 2391 481 2648 825 
Q 2906 1169 2906 1791 
z
M 3481 434 
Q 3481 -459 3084 -895 
Q 2688 -1331 1869 -1331 
Q 1566 -1331 1297 -1286 
Q 1028 -1241 775 -1147 
L 775 -588 
Q 1028 -725 1275 -790 
Q 1522 -856 1778 -856 
Q 2344 -856 2625 -561 
Q 2906 -266 2906 331 
L 2906 616 
Q 2728 306 2450 153 
Q 2172 0 1784 0 
Q 1141 0 747 490 
Q 353 981 353 1791 
Q 353 2603 747 3093 
Q 1141 3584 1784 3584 
Q 2172 3584 2450 3431 
Q 2728 3278 2906 2969 
L 2906 3500 
L 3481 3500 
L 3481 434 
z
" transform="scale(0.015625)"/>
       <path id="DejaVuSans-56" d="M 2834 3397 
L 2834 2853 
Q 2591 2978 2328 3040 
Q 2066 3103 1784 3103 
Q 1356 3103 1142 2972 
Q 928 2841 928 2578 
Q 928 2378 1081 2264 
Q 1234 2150 1697 2047 
L 1894 2003 
Q 2506 1872 2764 1633 
Q 3022 1394 3022 966 
Q 3022 478 2636 193 
Q 2250 -91 1575 -91 
Q 1294 -91 989 -36 
Q 684 19 347 128 
L 347 722 
Q 666 556 975 473 
Q 1284 391 1588 391 
Q 1994 391 2212 530 
Q 2431 669 2431 922 
Q 2431 1156 2273 1281 
Q 2116 1406 1581 1522 
L 1381 1569 
Q 847 1681 609 1914 
Q 372 2147 372 2553 
Q 372 3047 722 3315 
Q 1072 3584 1716 3584 
Q 2034 3584 2315 3537 
Q 2597 3491 2834 3397 
z
" transform="scale(0.015625)"/>
      </defs>
      <use xlink:href="#DejaVuSans-26"/>
      <use xlink:href="#DejaVuSans-32" transform="translate(69.828125 0)"/>
      <use xlink:href="#DejaVuSans-b5d" transform="translate(148.546875 0)"/>
      <use xlink:href="#DejaVuSans-3" transform="translate(188.640625 0)"/>
      <use xlink:href="#DejaVuSans-36" transform="translate(220.421875 0)"/>
      <use xlink:href="#DejaVuSans-44" transform="translate(283.90625 0)"/>
      <use xlink:href="#DejaVuSans-59" transform="translate(345.1875 0)"/>
      <use xlink:href="#DejaVuSans-4c" transform="translate(404.375 0)"/>
      <use xlink:href="#DejaVuSans-51" transform="translate(432.15625 0)"/>
      <use xlink:href="#DejaVuSans-4a" transform="translate(495.53125 0)"/>
      <use xlink:href="#DejaVuSans-56" transform="translate(559.015625 0)"/>
      <use xlink:href="#DejaVuSans-3" transform="translate(611.109375 0)"/>
      <use xlink:href="#DejaVuSans-b" transform="translate(642.890625 0)"/>
      <use xlink:href="#DejaVuSans-8" transform="translate(681.90625 0)"/>
      <use xlink:href="#DejaVuSans-c" transform="translate(776.921875 0)"/>
     </g>
    </g>
   </g>
   <g id="line2d_13">
    <path d="M 74.563168 397.317187 
L 75.440044 396.572098 
L 75.878482 395.827008 
L 76.755357 393.964284 
L 78.070671 393.219194 
L 78.947547 390.983925 
L 81.578175 388.37611 
L 85.085679 378.689944 
L 89.031621 377.572309 
L 97.361942 373.474315 
L 97.80038 371.611591 
L 97.80038 357.454885 
L 114.899461 355.964706 
L 114.899461 348.513808 
L 117.968526 344.78836 
L 119.722278 343.670725 
L 125.86041 338.082552 
L 127.614162 285.181179 
L 141.205739 265.063756 
L 161.812323 237.12289 
L 172.334834 233.769986 
L 178.911404 219.240736 
L 184.172659 217.005466 
L 195.572046 209.182024 
L 204.340806 204.711485 
L 212.232689 203.221306 
L 221.439886 202.103671 
L 226.701142 188.692056 
L 230.647084 188.319511 
L 232.400836 187.574421 
L 240.731157 183.848972 
L 246.869288 181.241158 
L 259.145552 158.143375 
L 270.983377 149.202298 
L 279.313698 137.653407 
L 295.097465 137.280862 
L 303.427786 125.731971 
L 311.31967 121.633977 
L 316.580925 117.163439 
L 321.403743 116.790894 
L 322.280619 116.045804 
L 327.541874 113.065445 
L 330.61094 111.947811 
L 335.433758 110.830176 
L 337.625948 109.339996 
L 341.133451 108.594907 
L 345.517831 107.849817 
L 345.956269 105.242003 
L 347.271583 103.006733 
L 351.217524 101.144009 
L 356.47878 100.398919 
L 356.917218 98.16365 
L 362.616912 95.555836 
L 363.932226 92.948022 
L 417.860095 92.202932 
L 420.052285 89.595118 
L 428.821045 89.222573 
L 435.397614 88.104938 
L 437.151366 85.497124 
L 441.974184 83.261855 
L 444.166373 81.026586 
L 447.673877 80.281496 
L 451.181381 78.046227 
L 452.058257 76.556047 
L 459.073264 75.810957 
L 460.388578 72.830598 
L 460.388578 72.458053 
L 460.827016 72.085509 
L 462.580768 69.105149 
L 463.019206 68.36006 
L 469.595775 64.634611 
L 470.911089 64.262066 
L 476.610783 63.144431 
L 477.487659 59.046438 
L 484.502666 57.183713 
L 488.01017 56.811168 
L 492.39455 52.34063 
L 496.340491 51.968085 
L 509.49363 48.987726 
L 516.947076 48.615181 
L 524.838959 47.870091 
L 572.19026 47.497547 
L 572.628698 47.125002 
L 573.505574 46.007367 
L 574.382449 45.262277 
L 580.082143 44.889732 
L 580.520581 44.517187 
" clip-path="url(#pd854ee41fb)" style="fill: none; stroke: #2563eb; stroke-width: 2; stroke-linecap: round"/>
    <defs>
     <path id="m1e0a442c5c" d="M 0 2 
C 0.530406 2 1.03916 1.789267 1.414214 1.414214 
C 1.789267 1.03916 2 0.530406 2 0 
C 2 -0.530406 1.789267 -1.03916 1.414214 -1.414214 
C 1.03916 -1.789267 0.530406 -2 0 -2 
C -0.530406 -2 -1.03916 -1.789267 -1.414214 -1.414214 
C -1.789267 -1.03916 -2 -0.530406 -2 0 
C -2 0.530406 -1.789267 1.03916 -1.414214 1.414214 
C -1.03916 1.789267 -0.530406 2 0 2 
z
" style="stroke: #2563eb"/>
    </defs>
    <g clip-path="url(#pd854ee41fb)">
     <use xlink:href="#m1e0a442c5c" x="74.563168" y="397.317187" style="fill: #2563eb; stroke: #2563eb"/>
     <use xlink:href="#m1e0a442c5c" x="75.440044" y="396.572098" style="fill: #2563eb; stroke: #2563eb"/>
     <use xlink:href="#m1e0a442c5c" x="75.878482" y="395.827008" style="fill: #2563eb; stroke: #2563eb"/>
     <use xlink:href="#m1e0a442c5c" x="76.755357" y="393.964284" style="fill: #2563eb; stroke: #2563eb"/>
     <use xlink:href="#m1e0a442c5c" x="78.070671" y="393.219194" style="fill: #2563eb; stroke: #2563eb"/>
     <use xlink:href="#m1e0a442c5c" x="78.947547" y="390.983925" style="fill: #2563eb; stroke: #2563eb"/>
     <use xlink:href="#m1e0a442c5c" x="81.578175" y="388.37611" style="fill: #2563eb; stroke: #2563eb"/>
     <use xlink:href="#m1e0a442c5c" x="85.085679" y="378.689944" style="fill: #2563eb; stroke: #2563eb"/>
     <use xlink:href="#m1e0a442c5c" x="89.031621" y="377.572309" style="fill: #2563eb; stroke: #2563eb"/>
     <use xlink:href="#m1e0a442c5c" x="97.361942" y="373.474315" style="fill: #2563eb; stroke: #2563eb"/>
     <use xlink:href="#m1e0a442c5c" x="97.80038" y="371.611591" style="fill: #2563eb; stroke: #2563eb"/>
     <use xlink:href="#m1e0a442c5c" x="97.80038" y="357.454885" style="fill: #2563eb; stroke: #2563eb"/>
     <use xlink:href="#m1e0a442c5c" x="114.899461" y="355.964706" style="fill: #2563eb; stroke: #2563eb"/>
     <use xlink:href="#m1e0a442c5c" x="114.899461" y="348.513808" style="fill: #2563eb; stroke: #2563eb"/>
     <use xlink:href="#m1e0a442c5c" x="117.968526" y="344.78836" style="fill: #2563eb; stroke: #2563eb"/>
     <use xlink:href="#m1e0a442c5c" x="119.722278" y="343.670725" style="fill: #2563eb; stroke: #2563eb"/>
     <use xlink:href="#m1e0a442c5c" x="125.86041" y="338.082552" style="fill: #2563eb; stroke: #2563eb"/>
     <use xlink:href="#m1e0a442c5c" x="127.614162" y="285.181179" style="fill: #2563eb; stroke: #2563eb"/>
     <use xlink:href="#m1e0a442c5c" x="141.205739" y="265.063756" style="fill: #2563eb; stroke: #2563eb"/>
     <use xlink:href="#m1e0a442c5c" x="161.812323" y="237.12289" style="fill: #2563eb; stroke: #2563eb"/>
     <use xlink:href="#m1e0a442c5c" x="172.334834" y="233.769986" style="fill: #2563eb; stroke: #2563eb"/>
     <use xlink:href="#m1e0a442c5c" x="178.911404" y="219.240736" style="fill: #2563eb; stroke: #2563eb"/>
     <use xlink:href="#m1e0a442c5c" x="184.172659" y="217.005466" style="fill: #2563eb; stroke: #2563eb"/>
     <use xlink:href="#m1e0a442c5c" x="195.572046" y="209.182024" style="fill: #2563eb; stroke: #2563eb"/>
     <use xlink:href="#m1e0a442c5c" x="204.340806" y="204.711485" style="fill: #2563eb; stroke: #2563eb"/>
     <use xlink:href="#m1e0a442c5c" x="212.232689" y="203.221306" style="fill: #2563eb; stroke: #2563eb"/>
     <use xlink:href="#m1e0a442c5c" x="221.439886" y="202.103671" style="fill: #2563eb; stroke: #2563eb"/>
     <use xlink:href="#m1e0a442c5c" x="226.701142" y="188.692056" style="fill: #2563eb; stroke: #2563eb"/>
     <use xlink:href="#m1e0a442c5c" x="230.647084" y="188.319511" style="fill: #2563eb; stroke: #2563eb"/>
     <use xlink:href="#m1e0a442c5c" x="232.400836" y="187.574421" style="fill: #2563eb; stroke: #2563eb"/>
     <use xlink:href="#m1e0a442c5c" x="240.731157" y="183.848972" style="fill: #2563eb; stroke: #2563eb"/>
     <use xlink:href="#m1e0a442c5c" x="246.869288" y="181.241158" style="fill: #2563eb; stroke: #2563eb"/>
     <use xlink:href="#m1e0a442c5c" x="259.145552" y="158.143375" style="fill: #2563eb; stroke: #2563eb"/>
     <use xlink:href="#m1e0a442c5c" x="270.983377" y="149.202298" style="fill: #2563eb; stroke: #2563eb"/>
     <use xlink:href="#m1e0a442c5c" x="279.313698" y="137.653407" style="fill: #2563eb; stroke: #2563eb"/>
     <use xlink:href="#m1e0a442c5c" x="295.097465" y="137.280862" style="fill: #2563eb; stroke: #2563eb"/>
     <use xlink:href="#m1e0a442c5c" x="303.427786" y="125.731971" style="fill: #2563eb; stroke: #2563eb"/>
     <use xlink:href="#m1e0a442c5c" x="311.31967" y="121.633977" style="fill: #2563eb; stroke: #2563eb"/>
     <use xlink:href="#m1e0a442c5c" x="316.580925" y="117.163439" style="fill: #2563eb; stroke: #2563eb"/>
     <use xlink:href="#m1e0a442c5c" x="321.403743" y="116.790894" style="fill: #2563eb; stroke: #2563eb"/>
     <use xlink:href="#m1e0a442c5c" x="322.280619" y="116.045804" style="fill: #2563eb; stroke: #2563eb"/>
     <use xlink:href="#m1e0a442c5c" x="327.541874" y="113.065445" style="fill: #2563eb; stroke: #2563eb"/>
     <use xlink:href="#m1e0a442c5c" x="330.61094" y="111.947811" style="fill: #2563eb; stroke: #2563eb"/>
     <use xlink:href="#m1e0a442c5c" x="335.433758" y="110.830176" style="fill: #2563eb; stroke: #2563eb"/>
     <use xlink:href="#m1e0a442c5c" x="337.625948" y="109.339996" style="fill: #2563eb; stroke: #2563eb"/>
     <use xlink:href="#m1e0a442c5c" x="341.133451" y="108.594907" style="fill: #2563eb; stroke: #2563eb"/>
     <use xlink:href="#m1e0a442c5c" x="345.517831" y="107.849817" style="fill: #2563eb; stroke: #2563eb"/>
     <use xlink:href="#m1e0a442c5c" x="345.956269" y="105.242003" style="fill: #2563eb; stroke: #2563eb"/>
     <use xlink:href="#m1e0a442c5c" x="347.271583" y="103.006733" style="fill: #2563eb; stroke: #2563eb"/>
     <use xlink:href="#m1e0a442c5c" x="351.217524" y="101.144009" style="fill: #2563eb; stroke: #2563eb"/>
     <use xlink:href="#m1e0a442c5c" x="356.47878" y="100.398919" style="fill: #2563eb; stroke: #2563eb"/>
     <use xlink:href="#m1e0a442c5c" x="356.917218" y="98.16365" style="fill: #2563eb; stroke: #2563eb"/>
     <use xlink:href="#m1e0a442c5c" x="362.616912" y="95.555836" style="fill: #2563eb; stroke: #2563eb"/>
     <use xlink:href="#m1e0a442c5c" x="363.932226" y="92.948022" style="fill: #2563eb; stroke: #2563eb"/>
     <use xlink:href="#m1e0a442c5c" x="417.860095" y="92.202932" style="fill: #2563eb; stroke: #2563eb"/>
     <use xlink:href="#m1e0a442c5c" x="420.052285" y="89.595118" style="fill: #2563eb; stroke: #2563eb"/>
     <use xlink:href="#m1e0a442c5c" x="428.821045" y="89.222573" style="fill: #2563eb; stroke: #2563eb"/>
     <use xlink:href="#m1e0a442c5c" x="435.397614" y="88.104938" style="fill: #2563eb; stroke: #2563eb"/>
     <use xlink:href="#m1e0a442c5c" x="437.151366" y="85.497124" style="fill: #2563eb; stroke: #2563eb"/>
     <use xlink:href="#m1e0a442c5c" x="441.974184" y="83.261855" style="fill: #2563eb; stroke: #2563eb"/>
     <use xlink:href="#m1e0a442c5c" x="444.166373" y="81.026586" style="fill: #2563eb; stroke: #2563eb"/>
     <use xlink:href="#m1e0a442c5c" x="447.673877" y="80.281496" style="fill: #2563eb; stroke: #2563eb"/>
     <use xlink:href="#m1e0a442c5c" x="451.181381" y="78.046227" style="fill: #2563eb; stroke: #2563eb"/>
     <use xlink:href="#m1e0a442c5c" x="452.058257" y="76.556047" style="fill: #2563eb; stroke: #2563eb"/>
     <use xlink:href="#m1e0a442c5c" x="459.073264" y="75.810957" style="fill: #2563eb; stroke: #2563eb"/>
     <use xlink:href="#m1e0a442c5c" x="460.388578" y="72.830598" style="fill: #2563eb; stroke: #2563eb"/>
     <use xlink:href="#m1e0a442c5c" x="460.388578" y="72.458053" style="fill: #2563eb; stroke: #2563eb"/>
     <use xlink:href="#m1e0a442c5c" x="460.827016" y="72.085509" style="fill: #2563eb; stroke: #2563eb"/>
     <use xlink:href="#m1e0a442c5c" x="462.580768" y="69.105149" style="fill: #2563eb; stroke: #2563eb"/>
     <use xlink:href="#m1e0a442c5c" x="463.019206" y="68.36006" style="fill: #2563eb; stroke: #2563eb"/>
     <use xlink:href="#m1e0a442c5c" x="469.595775" y="64.634611" style="fill: #2563eb; stroke: #2563eb"/>
     <use xlink:href="#m1e0a442c5c" x="470.911089" y="64.262066" style="fill: #2563eb; stroke: #2563eb"/>
     <use xlink:href="#m1e0a442c5c" x="476.610783" y="63.144431" style="fill: #2563eb; stroke: #2563eb"/>
     <use xlink:href="#m1e0a442c5c" x="477.487659" y="59.046438" style="fill: #2563eb; stroke: #2563eb"/>
     <use xlink:href="#m1e0a442c5c" x="484.502666" y="57.183713" style="fill: #2563eb; stroke: #2563eb"/>
     <use xlink:href="#m1e0a442c5c" x="488.01017" y="56.811168" style="fill: #2563eb; stroke: #2563eb"/>
     <use xlink:href="#m1e0a442c5c" x="492.39455" y="52.34063" style="fill: #2563eb; stroke: #2563eb"/>
     <use xlink:href="#m1e0a442c5c" x="496.340491" y="51.968085" style="fill: #2563eb; stroke: #2563eb"/>
     <use xlink:href="#m1e0a442c5c" x="509.49363" y="48.987726" style="fill: #2563eb; stroke: #2563eb"/>
     <use xlink:href="#m1e0a442c5c" x="516.947076" y="48.615181" style="fill: #2563eb; stroke: #2563eb"/>
     <use xlink:href="#m1e0a442c5c" x="524.838959" y="47.870091" style="fill: #2563eb; stroke: #2563eb"/>
     <use xlink:href="#m1e0a442c5c" x="572.19026" y="47.497547" style="fill: #2563eb; stroke: #2563eb"/>
     <use xlink:href="#m1e0a442c5c" x="572.628698" y="47.125002" style="fill: #2563eb; stroke: #2563eb"/>
     <use xlink:href="#m1e0a442c5c" x="573.505574" y="46.007367" style="fill: #2563eb; stroke: #2563eb"/>
     <use xlink:href="#m1e0a442c5c" x="574.382449" y="45.262277" style="fill: #2563eb; stroke: #2563eb"/>
     <use xlink:href="#m1e0a442c5c" x="580.082143" y="44.889732" style="fill: #2563eb; stroke: #2563eb"/>
     <use xlink:href="#m1e0a442c5c" x="580.520581" y="44.517187" style="fill: #2563eb; stroke: #2563eb"/>
    </g>
   </g>
   <g id="line2d_14">
    <path d="M 74.563168 397.317187 
L 75.440044 396.199553 
L 75.440044 395.454463 
L 75.440044 394.709373 
L 75.878482 393.964284 
L 76.316919 393.219194 
L 78.070671 391.356469 
L 79.824423 390.61138 
L 82.016613 383.160482 
L 82.455051 379.435033 
L 84.647241 379.062488 
L 85.085679 378.689944 
L 85.085679 373.474315 
L 88.154745 372.729226 
L 88.154745 370.866501 
L 91.22381 364.905783 
L 93.854438 364.160693 
L 93.854438 362.297969 
L 96.046628 359.31761 
L 97.361942 357.454885 
L 98.238818 357.082341 
L 99.99257 354.847071 
L 100.431008 354.474526 
L 100.431008 354.101982 
L 100.431008 353.729437 
L 103.061635 350.376533 
L 103.500073 349.258898 
L 106.569139 347.023629 
L 106.569139 346.651084 
L 107.446015 344.78836 
L 109.638205 344.415815 
L 110.953519 342.55309 
L 110.953519 341.808001 
L 111.391957 335.474738 
L 114.461023 332.494379 
L 115.337899 332.121834 
L 118.406964 331.376744 
L 119.722278 328.76893 
L 119.722278 327.651295 
L 122.352906 326.533661 
L 122.352906 324.670936 
L 123.229782 323.553302 
L 124.106658 322.063122 
L 124.545096 321.690577 
L 125.421972 320.572943 
L 126.298848 318.337673 
L 128.491037 317.220039 
L 129.367913 316.474949 
L 129.367913 316.102404 
L 131.560103 315.729859 
L 131.560103 313.867135 
L 132.875417 313.122045 
L 132.875417 311.259321 
L 134.629169 310.141686 
L 135.067607 309.396596 
L 135.067607 308.651506 
L 137.698235 307.161327 
L 139.013549 305.671147 
L 139.890425 304.926058 
L 140.328863 304.553513 
L 141.205739 304.180968 
L 141.644176 303.435878 
L 141.644176 303.063333 
L 143.836366 302.318243 
L 145.15168 301.945699 
L 145.15168 301.573154 
L 146.905432 300.082974 
L 146.905432 299.710429 
L 148.220746 298.592795 
L 148.659184 297.847705 
L 149.53606 296.73007 
L 150.851374 296.357525 
L 150.851374 295.984981 
L 151.72825 294.867346 
L 152.166688 294.494801 
L 153.043564 292.632077 
L 153.92044 292.259532 
L 154.358878 291.514442 
L 154.358878 291.141897 
L 155.674191 290.769352 
L 156.112629 290.024262 
L 157.427943 288.906628 
L 158.304819 288.534083 
L 158.743257 288.161538 
L 158.743257 287.788993 
L 159.181695 287.416448 
L 159.620133 286.671359 
L 160.935447 285.926269 
L 160.935447 285.553724 
L 161.812323 285.181179 
L 162.250761 284.808634 
L 164.004513 284.436089 
L 165.758265 284.063544 
L 166.635141 283.691 
L 166.635141 283.318455 
L 168.388892 282.94591 
L 168.388892 282.20082 
L 169.265768 281.083185 
L 171.457958 280.710641 
" clip-path="url(#pd854ee41fb)" style="fill: none; stroke: #dc2626; stroke-width: 2; stroke-linecap: round"/>
    <defs>
     <path id="m8a950ab2ee" d="M 0 2 
C 0.530406 2 1.03916 1.789267 1.414214 1.414214 
C 1.789267 1.03916 2 0.530406 2 0 
C 2 -0.530406 1.789267 -1.03916 1.414214 -1.414214 
C 1.03916 -1.789267 0.530406 -2 0 -2 
C -0.530406 -2 -1.03916 -1.789267 -1.414214 -1.414214 
C -1.789267 -1.03916 -2 -0.530406 -2 0 
C -2 0.530406 -1.789267 1.03916 -1.414214 1.414214 
C -1.03916 1.789267 -0.530406 2 0 2 
z
" style="stroke: #dc2626"/>
    </defs>
    <g clip-path="url(#pd854ee41fb)">
     <use xlink:href="#m8a950ab2ee" x="74.563168" y="397.317187" style="fill: #dc2626; stroke: #dc2626"/>
     <use xlink:href="#m8a950ab2ee" x="75.440044" y="396.199553" style="fill: #dc2626; stroke: #dc2626"/>
     <use xlink:href="#m8a950ab2ee" x="75.440044" y="395.454463" style="fill: #dc2626; stroke: #dc2626"/>
     <use xlink:href="#m8a950ab2ee" x="75.440044" y="394.709373" style="fill: #dc2626; stroke: #dc2626"/>
     <use xlink:href="#m8a950ab2ee" x="75.878482" y="393.964284" style="fill: #dc2626; stroke: #dc2626"/>
     <use xlink:href="#m8a950ab2ee" x="76.316919" y="393.219194" style="fill: #dc2626; stroke: #dc2626"/>
     <use xlink:href="#m8a950ab2ee" x="78.070671" y="391.356469" style="fill: #dc2626; stroke: #dc2626"/>
     <use xlink:href="#m8a950ab2ee" x="79.824423" y="390.61138" style="fill: #dc2626; stroke: #dc2626"/>
     <use xlink:href="#m8a950ab2ee" x="82.016613" y="383.160482" style="fill: #dc2626; stroke: #dc2626"/>
     <use xlink:href="#m8a950ab2ee" x="82.455051" y="379.435033" style="fill: #dc2626; stroke: #dc2626"/>
     <use xlink:href="#m8a950ab2ee" x="84.647241" y="379.062488" style="fill: #dc2626; stroke: #dc2626"/>
     <use xlink:href="#m8a950ab2ee" x="85.085679" y="378.689944" style="fill: #dc2626; stroke: #dc2626"/>
     <use xlink:href="#m8a950ab2ee" x="85.085679" y="373.474315" style="fill: #dc2626; stroke: #dc2626"/>
     <use xlink:href="#m8a950ab2ee" x="88.154745" y="372.729226" style="fill: #dc2626; stroke: #dc2626"/>
     <use xlink:href="#m8a950ab2ee" x="88.154745" y="370.866501" style="fill: #dc2626; stroke: #dc2626"/>
     <use xlink:href="#m8a950ab2ee" x="91.22381" y="364.905783" style="fill: #dc2626; stroke: #dc2626"/>
     <use xlink:href="#m8a950ab2ee" x="93.854438" y="364.160693" style="fill: #dc2626; stroke: #dc2626"/>
     <use xlink:href="#m8a950ab2ee" x="93.854438" y="362.297969" style="fill: #dc2626; stroke: #dc2626"/>
     <use xlink:href="#m8a950ab2ee" x="96.046628" y="359.31761" style="fill: #dc2626; stroke: #dc2626"/>
     <use xlink:href="#m8a950ab2ee" x="97.361942" y="357.454885" style="fill: #dc2626; stroke: #dc2626"/>
     <use xlink:href="#m8a950ab2ee" x="98.238818" y="357.082341" style="fill: #dc2626; stroke: #dc2626"/>
     <use xlink:href="#m8a950ab2ee" x="99.99257" y="354.847071" style="fill: #dc2626; stroke: #dc2626"/>
     <use xlink:href="#m8a950ab2ee" x="100.431008" y="354.474526" style="fill: #dc2626; stroke: #dc2626"/>
     <use xlink:href="#m8a950ab2ee" x="100.431008" y="354.101982" style="fill: #dc2626; stroke: #dc2626"/>
     <use xlink:href="#m8a950ab2ee" x="100.431008" y="353.729437" style="fill: #dc2626; stroke: #dc2626"/>
     <use xlink:href="#m8a950ab2ee" x="103.061635" y="350.376533" style="fill: #dc2626; stroke: #dc2626"/>
     <use xlink:href="#m8a950ab2ee" x="103.500073" y="349.258898" style="fill: #dc2626; stroke: #dc2626"/>
     <use xlink:href="#m8a950ab2ee" x="106.569139" y="347.023629" style="fill: #dc2626; stroke: #dc2626"/>
     <use xlink:href="#m8a950ab2ee" x="106.569139" y="346.651084" style="fill: #dc2626; stroke: #dc2626"/>
     <use xlink:href="#m8a950ab2ee" x="107.446015" y="344.78836" style="fill: #dc2626; stroke: #dc2626"/>
     <use xlink:href="#m8a950ab2ee" x="109.638205" y="344.415815" style="fill: #dc2626; stroke: #dc2626"/>
     <use xlink:href="#m8a950ab2ee" x="110.953519" y="342.55309" style="fill: #dc2626; stroke: #dc2626"/>
     <use xlink:href="#m8a950ab2ee" x="110.953519" y="341.808001" style="fill: #dc2626; stroke: #dc2626"/>
     <use xlink:href="#m8a950ab2ee" x="111.391957" y="335.474738" style="fill: #dc2626; stroke: #dc2626"/>
     <use xlink:href="#m8a950ab2ee" x="114.461023" y="332.494379" style="fill: #dc2626; stroke: #dc2626"/>
     <use xlink:href="#m8a950ab2ee" x="115.337899" y="332.121834" style="fill: #dc2626; stroke: #dc2626"/>
     <use xlink:href="#m8a950ab2ee" x="118.406964" y="331.376744" style="fill: #dc2626; stroke: #dc2626"/>
     <use xlink:href="#m8a950ab2ee" x="119.722278" y="328.76893" style="fill: #dc2626; stroke: #dc2626"/>
     <use xlink:href="#m8a950ab2ee" x="119.722278" y="327.651295" style="fill: #dc2626; stroke: #dc2626"/>
     <use xlink:href="#m8a950ab2ee" x="122.352906" y="326.533661" style="fill: #dc2626; stroke: #dc2626"/>
     <use xlink:href="#m8a950ab2ee" x="122.352906" y="324.670936" style="fill: #dc2626; stroke: #dc2626"/>
     <use xlink:href="#m8a950ab2ee" x="123.229782" y="323.553302" style="fill: #dc2626; stroke: #dc2626"/>
     <use xlink:href="#m8a950ab2ee" x="124.106658" y="322.063122" style="fill: #dc2626; stroke: #dc2626"/>
     <use xlink:href="#m8a950ab2ee" x="124.545096" y="321.690577" style="fill: #dc2626; stroke: #dc2626"/>
     <use xlink:href="#m8a950ab2ee" x="125.421972" y="320.572943" style="fill: #dc2626; stroke: #dc2626"/>
     <use xlink:href="#m8a950ab2ee" x="126.298848" y="318.337673" style="fill: #dc2626; stroke: #dc2626"/>
     <use xlink:href="#m8a950ab2ee" x="128.491037" y="317.220039" style="fill: #dc2626; stroke: #dc2626"/>
     <use xlink:href="#m8a950ab2ee" x="129.367913" y="316.474949" style="fill: #dc2626; stroke: #dc2626"/>
     <use xlink:href="#m8a950ab2ee" x="129.367913" y="316.102404" style="fill: #dc2626; stroke: #dc2626"/>
     <use xlink:href="#m8a950ab2ee" x="131.560103" y="315.729859" style="fill: #dc2626; stroke: #dc2626"/>
     <use xlink:href="#m8a950ab2ee" x="131.560103" y="313.867135" style="fill: #dc2626; stroke: #dc2626"/>
     <use xlink:href="#m8a950ab2ee" x="132.875417" y="313.122045" style="fill: #dc2626; stroke: #dc2626"/>
     <use xlink:href="#m8a950ab2ee" x="132.875417" y="311.259321" style="fill: #dc2626; stroke: #dc2626"/>
     <use xlink:href="#m8a950ab2ee" x="134.629169" y="310.141686" style="fill: #dc2626; stroke: #dc2626"/>
     <use xlink:href="#m8a950ab2ee" x="135.067607" y="309.396596" style="fill: #dc2626; stroke: #dc2626"/>
     <use xlink:href="#m8a950ab2ee" x="135.067607" y="308.651506" style="fill: #dc2626; stroke: #dc2626"/>
     <use xlink:href="#m8a950ab2ee" x="137.698235" y="307.161327" style="fill: #dc2626; stroke: #dc2626"/>
     <use xlink:href="#m8a950ab2ee" x="139.013549" y="305.671147" style="fill: #dc2626; stroke: #dc2626"/>
     <use xlink:href="#m8a950ab2ee" x="139.890425" y="304.926058" style="fill: #dc2626; stroke: #dc2626"/>
     <use xlink:href="#m8a950ab2ee" x="140.328863" y="304.553513" style="fill: #dc2626; stroke: #dc2626"/>
     <use xlink:href="#m8a950ab2ee" x="141.205739" y="304.180968" style="fill: #dc2626; stroke: #dc2626"/>
     <use xlink:href="#m8a950ab2ee" x="141.644176" y="303.435878" style="fill: #dc2626; stroke: #dc2626"/>
     <use xlink:href="#m8a950ab2ee" x="141.644176" y="303.063333" style="fill: #dc2626; stroke: #dc2626"/>
     <use xlink:href="#m8a950ab2ee" x="143.836366" y="302.318243" style="fill: #dc2626; stroke: #dc2626"/>
     <use xlink:href="#m8a950ab2ee" x="145.15168" y="301.945699" style="fill: #dc2626; stroke: #dc2626"/>
     <use xlink:href="#m8a950ab2ee" x="145.15168" y="301.573154" style="fill: #dc2626; stroke: #dc2626"/>
     <use xlink:href="#m8a950ab2ee" x="146.905432" y="300.082974" style="fill: #dc2626; stroke: #dc2626"/>
     <use xlink:href="#m8a950ab2ee" x="146.905432" y="299.710429" style="fill: #dc2626; stroke: #dc2626"/>
     <use xlink:href="#m8a950ab2ee" x="148.220746" y="298.592795" style="fill: #dc2626; stroke: #dc2626"/>
     <use xlink:href="#m8a950ab2ee" x="148.659184" y="297.847705" style="fill: #dc2626; stroke: #dc2626"/>
     <use xlink:href="#m8a950ab2ee" x="149.53606" y="296.73007" style="fill: #dc2626; stroke: #dc2626"/>
     <use xlink:href="#m8a950ab2ee" x="150.851374" y="296.357525" style="fill: #dc2626; stroke: #dc2626"/>
     <use xlink:href="#m8a950ab2ee" x="150.851374" y="295.984981" style="fill: #dc2626; stroke: #dc2626"/>
     <use xlink:href="#m8a950ab2ee" x="151.72825" y="294.867346" style="fill: #dc2626; stroke: #dc2626"/>
     <use xlink:href="#m8a950ab2ee" x="152.166688" y="294.494801" style="fill: #dc2626; stroke: #dc2626"/>
     <use xlink:href="#m8a950ab2ee" x="153.043564" y="292.632077" style="fill: #dc2626; stroke: #dc2626"/>
     <use xlink:href="#m8a950ab2ee" x="153.92044" y="292.259532" style="fill: #dc2626; stroke: #dc2626"/>
     <use xlink:href="#m8a950ab2ee" x="154.358878" y="291.514442" style="fill: #dc2626; stroke: #dc2626"/>
     <use xlink:href="#m8a950ab2ee" x="154.358878" y="291.141897" style="fill: #dc2626; stroke: #dc2626"/>
     <use xlink:href="#m8a950ab2ee" x="155.674191" y="290.769352" style="fill: #dc2626; stroke: #dc2626"/>
     <use xlink:href="#m8a950ab2ee" x="156.112629" y="290.024262" style="fill: #dc2626; stroke: #dc2626"/>
     <use xlink:href="#m8a950ab2ee" x="157.427943" y="288.906628" style="fill: #dc2626; stroke: #dc2626"/>
     <use xlink:href="#m8a950ab2ee" x="158.304819" y="288.534083" style="fill: #dc2626; stroke: #dc2626"/>
     <use xlink:href="#m8a950ab2ee" x="158.743257" y="288.161538" style="fill: #dc2626; stroke: #dc2626"/>
     <use xlink:href="#m8a950ab2ee" x="158.743257" y="287.788993" style="fill: #dc2626; stroke: #dc2626"/>
     <use xlink:href="#m8a950ab2ee" x="159.181695" y="287.416448" style="fill: #dc2626; stroke: #dc2626"/>
     <use xlink:href="#m8a950ab2ee" x="159.620133" y="286.671359" style="fill: #dc2626; stroke: #dc2626"/>
     <use xlink:href="#m8a950ab2ee" x="160.935447" y="285.926269" style="fill: #dc2626; stroke: #dc2626"/>
     <use xlink:href="#m8a950ab2ee" x="160.935447" y="285.553724" style="fill: #dc2626; stroke: #dc2626"/>
     <use xlink:href="#m8a950ab2ee" x="161.812323" y="285.181179" style="fill: #dc2626; stroke: #dc2626"/>
     <use xlink:href="#m8a950ab2ee" x="162.250761" y="284.808634" style="fill: #dc2626; stroke: #dc2626"/>
     <use xlink:href="#m8a950ab2ee" x="164.004513" y="284.436089" style="fill: #dc2626; stroke: #dc2626"/>
     <use xlink:href="#m8a950ab2ee" x="165.758265" y="284.063544" style="fill: #dc2626; stroke: #dc2626"/>
     <use xlink:href="#m8a950ab2ee" x="166.635141" y="283.691" style="fill: #dc2626; stroke: #dc2626"/>
     <use xlink:href="#m8a950ab2ee" x="166.635141" y="283.318455" style="fill: #dc2626; stroke: #dc2626"/>
     <use xlink:href="#m8a950ab2ee" x="168.388892" y="282.94591" style="fill: #dc2626; stroke: #dc2626"/>
     <use xlink:href="#m8a950ab2ee" x="168.388892" y="282.20082" style="fill: #dc2626; stroke: #dc2626"/>
     <use xlink:href="#m8a950ab2ee" x="169.265768" y="281.083185" style="fill: #dc2626; stroke: #dc2626"/>
     <use xlink:href="#m8a950ab2ee" x="171.457958" y="280.710641" style="fill: #dc2626; stroke: #dc2626"/>
    </g>
   </g>
   <g id="patch_3">
    <path d="M 49.199531 414.957187 
L 49.199531 26.877187 
" style="fill: none; stroke: #cccccc; stroke-width: 1.25; stroke-linejoin: miter; stroke-linecap: square"/>
   </g>
   <g id="patch_4">
    <path d="M 607.199531 414.957187 
L 607.199531 26.877187 
" style="fill: none; stroke: #cccccc; stroke-width: 1.25; stroke-linejoin: miter; stroke-linecap: square"/>
   </g>
   <g id="patch_5">
    <path d="M 49.199531 414.957187 
L 607.199531 414.957187 
" style="fill: none; stroke: #cccccc; stroke-width: 1.25; stroke-linejoin: miter; stroke-linecap: square"/>
   </g>
   <g id="patch_6">
    <path d="M 49.199531 26.877187 
L 607.199531 26.877187 
" style="fill: none; stroke: #cccccc; stroke-width: 1.25; stroke-linejoin: miter; stroke-linecap: square"/>
   </g>
   <g id="text_15">
    <!-- Pareto Frontiers: CO₂ Savings vs Overhead — US -->
    <g style="fill: #262626" transform="translate(109.927031 20.877187) scale(0.18 -0.18)">
     <defs>
      <path id="DejaVuSans-33" d="M 1259 4147 
L 1259 2394 
L 2053 2394 
Q 2494 2394 2734 2622 
Q 2975 2850 2975 3272 
Q 2975 3691 2734 3919 
Q 2494 4147 2053 4147 
L 1259 4147 
z
M 628 4666 
L 2053 4666 
Q 2838 4666 3239 4311 
Q 3641 3956 3641 3272 
Q 3641 2581 3239 2228 
Q 2838 1875 2053 1875 
L 1259 1875 
L 1259 0 
L 628 0 
L 628 4666 
z
" transform="scale(0.015625)"/>
      <path id="DejaVuSans-57" d="M 1172 4494 
L 1172 3500 
L 2356 3500 
L 2356 3053 
L 1172 3053 
L 1172 1153 
Q 1172 725 1289 603 
Q 1406 481 1766 481 
L 2356 481 
L 2356 0 
L 1766 0 
Q 1100 0 847 248 
Q 594 497 594 1153 
L 594 3053 
L 172 3053 
L 172 3500 
L 594 3500 
L 594 4494 
L 1172 4494 
z
" transform="scale(0.015625)"/>
      <path id="DejaVuSans-52" d="M 1959 3097 
Q 1497 3097 1228 2736 
Q 959 2375 959 1747 
Q 959 1119 1226 758 
Q 1494 397 1959 397 
Q 2419 397 2687 759 
Q 2956 1122 2956 1747 
Q 2956 2369 2687 2733 
Q 2419 3097 1959 3097 
z
M 1959 3584 
Q 2709 3584 3137 3096 
Q 3566 2609 3566 1747 
Q 3566 888 3137 398 
Q 2709 -91 1959 -91 
Q 1206 -91 779 398 
Q 353 888 353 1747 
Q 353 2609 779 3096 
Q 1206 3584 1959 3584 
z
" transform="scale(0.015625)"/>
      <path id="DejaVuSans-29" d="M 628 4666 
L 3309 4666 
L 3309 4134 
L 1259 4134 
L 1259 2759 
L 3109 2759 
L 3109 2228 
L 1259 2228 
L 1259 0 
L 628 0 
L 628 4666 
z
" transform="scale(0.015625)"/>
      <path id="DejaVuSans-1d" d="M 750 794 
L 1409 794 
L 1409 0 
L 750 0 
L 750 794 
z
M 750 3309 
L 1409 3309 
L 1409 2516 
L 750 2516 
L 750 3309 
z
" transform="scale(0.015625)"/>
      <path id="DejaVuSans-af6" d="M 313 1978 
L 6088 1978 
L 6088 1528 
L 313 1528 
L 313 1978 
z
" transform="scale(0.015625)"/>
      <path id="DejaVuSans-38" d="M 556 4666 
L 1191 4666 
L 1191 1831 
Q 1191 1081 1462 751 
Q 1734 422 2344 422 
Q 2950 422 3222 751 
Q 3494 1081 3494 1831 
L 3494 4666 
L 4128 4666 
L 4128 1753 
Q 4128 841 3676 375 
Q 3225 -91 2344 -91 
Q 1459 -91 1007 375 
Q 556 841 556 1753 
L 556 4666 
z
" transform="scale(0.015625)"/>
     </defs>
     <use xlink:href="#DejaVuSans-33"/>
     <use xlink:href="#DejaVuSans-44" transform="translate(55.8125 0)"/>
     <use xlink:href="#DejaVuSans-55" transform="translate(117.09375 0)"/>
     <use xlink:href="#DejaVuSans-48" transform="translate(156 0)"/>
     <use xlink:href="#DejaVuSans-57" transform="translate(217.53125 0)"/>
     <use xlink:href="#DejaVuSans-52" transform="translate(256.734375 0)"/>
     <use xlink:href="#DejaVuSans-3" transform="translate(317.921875 0)"/>
     <use xlink:href="#DejaVuSans-29" transform="translate(349.703125 0)"/>
     <use xlink:href="#DejaVuSans-55" transform="translate(399.9375 0)"/>
     <use xlink:href="#DejaVuSans-52" transform="translate(438.84375 0)"/>
     <use xlink:href="#DejaVuSans-51" transform="translate(500.03125 0)"/>
     <use xlink:href="#DejaVuSans-57" transform="translate(563.40625 0)"/>
     <use xlink:href="#DejaVuSans-4c" transform="translate(602.609375 0)"/>
     <use xlink:href="#DejaVuSans-48" transform="translate(630.390625 0)"/>
     <use xlink:href="#DejaVuSans-55" transform="translate(691.921875 0)"/>
     <use xlink:href="#DejaVuSans-56" transform="translate(733.03125 0)"/>
     <use xlink:href="#DejaVuSans-1d" transform="translate(785.125 0)"/>
     <use xlink:href="#DejaVuSans-3" transform="translate(818.8125 0)"/>
     <use xlink:href="#DejaVuSans-26" transform="translate(850.59375 0)"/>
     <use xlink:href="#DejaVuSans-32" transform="translate(920.421875 0)"/>
     <use xlink:href="#DejaVuSans-b5d" transform="translate(999.140625 0)"/>
     <use xlink:href="#DejaVuSans-3" transform="translate(1039.234375 0)"/>
     <use xlink:href="#DejaVuSans-36" transform="translate(1071.015625 0)"/>
     <use xlink:href="#DejaVuSans-44" transform="translate(1134.5 0)"/>
     <use xlink:href="#DejaVuSans-59" transform="translate(1195.78125 0)"/>
     <use xlink:href="#DejaVuSans-4c" transform="translate(1254.96875 0)"/>
     <use xlink:href="#DejaVuSans-51" transform="translate(1282.75 0)"/>
     <use xlink:href="#DejaVuSans-4a" transform="translate(1346.125 0)"/>
     <use xlink:href="#DejaVuSans-56" transform="translate(1409.609375 0)"/>
     <use xlink:href="#DejaVuSans-3" transform="translate(1461.703125 0)"/>
     <use xlink:href="#DejaVuSans-59" transform="translate(1493.484375 0)"/>
     <use xlink:href="#DejaVuSans-56" transform="translate(1552.671875 0)"/>
     <use xlink:href="#DejaVuSans-3" transform="translate(1604.765625 0)"/>
     <use xlink:href="#DejaVuSans-32" transform="translate(1636.546875 0)"/>
     <use xlink:href="#DejaVuSans-59" transform="translate(1715.265625 0)"/>
     <use xlink:href="#DejaVuSans-48" transform="translate(1774.453125 0)"/>
     <use xlink:href="#DejaVuSans-55" transform="translate(1835.984375 0)"/>
     <use xlink:href="#DejaVuSans-4b" transform="translate(1875.34375 0)"/>
     <use xlink:href="#DejaVuSans-48" transform="translate(1938.71875 0)"/>
     <use xlink:href="#DejaVuSans-44" transform="translate(2000.25 0)"/>
     <use xlink:href="#DejaVuSans-47" transform="translate(2061.53125 0)"/>
     <use xlink:href="#DejaVuSans-3" transform="translate(2125.015625 0)"/>
     <use xlink:href="#DejaVuSans-af6" transform="translate(2156.796875 0)"/>
     <use xlink:href="#DejaVuSans-3" transform="translate(2256.796875 0)"/>
     <use xlink:href="#DejaVuSans-38" transform="translate(2288.578125 0)"/>
     <use xlink:href="#DejaVuSans-36" transform="translate(2361.765625 0)"/>
    </g>
   </g>
   <g id="legend_1">
    <g id="patch_7">
     <path d="M 453.659531 410.457187 
L 600.899531 410.457187 
Q 602.699531 410.457187 602.699531 408.657187 
L 602.699531 355.554375 
Q 602.699531 353.754375 600.899531 353.754375 
L 453.659531 353.754375 
Q 451.859531 353.754375 451.859531 355.554375 
L 451.859531 408.657187 
Q 451.859531 410.457187 453.659531 410.457187 
z
" style="fill: #ffffff; opacity: 0.8; stroke: #cccccc; stroke-linejoin: miter"/>
    </g>
    <g id="line2d_15">
     <path d="M 455.459531 361.042969 
L 464.459531 361.042969 
L 473.459531 361.042969 
" style="fill: none; stroke: #2563eb; stroke-width: 2; stroke-linecap: round"/>
     <g>
      <use xlink:href="#m1e0a442c5c" x="464.459531" y="361.042969" style="fill: #2563eb; stroke: #2563eb"/>
     </g>
    </g>
    <g id="text_16">
     <!-- DeepSeek V3 frontier -->
     <g style="fill: #262626" transform="translate(480.659531 364.192969) scale(0.09 -0.09)">
      <defs>
       <path id="DejaVuSans-27" d="M 1259 4147 
L 1259 519 
L 2022 519 
Q 2988 519 3436 956 
Q 3884 1394 3884 2338 
Q 3884 3275 3436 3711 
Q 2988 4147 2022 4147 
L 1259 4147 
z
M 628 4666 
L 1925 4666 
Q 3281 4666 3915 4102 
Q 4550 3538 4550 2338 
Q 4550 1131 3912 565 
Q 3275 0 1925 0 
L 628 0 
L 628 4666 
z
" transform="scale(0.015625)"/>
       <path id="DejaVuSans-53" d="M 1159 525 
L 1159 -1331 
L 581 -1331 
L 581 3500 
L 1159 3500 
L 1159 2969 
Q 1341 3281 1617 3432 
Q 1894 3584 2278 3584 
Q 2916 3584 3314 3078 
Q 3713 2572 3713 1747 
Q 3713 922 3314 415 
Q 2916 -91 2278 -91 
Q 1894 -91 1617 61 
Q 1341 213 1159 525 
z
M 3116 1747 
Q 3116 2381 2855 2742 
Q 2594 3103 2138 3103 
Q 1681 3103 1420 2742 
Q 1159 2381 1159 1747 
Q 1159 1113 1420 752 
Q 1681 391 2138 391 
Q 2594 391 2855 752 
Q 3116 1113 3116 1747 
z
" transform="scale(0.015625)"/>
       <path id="DejaVuSans-4e" d="M 581 4863 
L 1159 4863 
L 1159 1991 
L 2875 3500 
L 3609 3500 
L 1753 1863 
L 3688 0 
L 2938 0 
L 1159 1709 
L 1159 0 
L 581 0 
L 581 4863 
z
" transform="scale(0.015625)"/>
       <path id="DejaVuSans-39" d="M 1831 0 
L 50 4666 
L 709 4666 
L 2188 738 
L 3669 4666 
L 4325 4666 
L 2547 0 
L 1831 0 
z
" transform="scale(0.015625)"/>
       <path id="DejaVuSans-16" d="M 2597 2516 
Q 3050 2419 3304 2112 
Q 3559 1806 3559 1356 
Q 3559 666 3084 287 
Q 2609 -91 1734 -91 
Q 1441 -91 1130 -33 
Q 819 25 488 141 
L 488 750 
Q 750 597 1062 519 
Q 1375 441 1716 441 
Q 2309 441 2620 675 
Q 2931 909 2931 1356 
Q 2931 1769 2642 2001 
Q 2353 2234 1838 2234 
L 1294 2234 
L 1294 2753 
L 1863 2753 
Q 2328 2753 2575 2939 
Q 2822 3125 2822 3475 
Q 2822 3834 2567 4026 
Q 2313 4219 1838 4219 
Q 1578 4219 1281 4162 
Q 984 4106 628 3988 
L 628 4550 
Q 988 4650 1302 4700 
Q 1616 4750 1894 4750 
Q 2613 4750 3031 4423 
Q 3450 4097 3450 3541 
Q 3450 3153 3228 2886 
Q 3006 2619 2597 2516 
z
" transform="scale(0.015625)"/>
       <path id="DejaVuSans-49" d="M 2375 4863 
L 2375 4384 
L 1825 4384 
Q 1516 4384 1395 4259 
Q 1275 4134 1275 3809 
L 1275 3500 
L 2222 3500 
L 2222 3053 
L 1275 3053 
L 1275 0 
L 697 0 
L 697 3053 
L 147 3053 
L 147 3500 
L 697 3500 
L 697 3744 
Q 697 4328 969 4595 
Q 1241 4863 1831 4863 
L 2375 4863 
z
" transform="scale(0.015625)"/>
      </defs>
      <use xlink:href="#DejaVuSans-27"/>
      <use xlink:href="#DejaVuSans-48" transform="translate(77 0)"/>
      <use xlink:href="#DejaVuSans-48" transform="translate(138.53125 0)"/>
      <use xlink:href="#DejaVuSans-53" transform="translate(200.0625 0)"/>
      <use xlink:href="#DejaVuSans-36" transform="translate(263.546875 0)"/>
      <use xlink:href="#DejaVuSans-48" transform="translate(327.03125 0)"/>
      <use xlink:href="#DejaVuSans-48" transform="translate(388.5625 0)"/>
      <use xlink:href="#DejaVuSans-4e" transform="translate(450.09375 0)"/>
      <use xlink:href="#DejaVuSans-3" transform="translate(508 0)"/>
      <use xlink:href="#DejaVuSans-39" transform="translate(539.78125 0)"/>
      <use xlink:href="#DejaVuSans-16" transform="translate(608.1875 0)"/>
      <use xlink:href="#DejaVuSans-3" transform="translate(671.8125 0)"/>
      <use xlink:href="#DejaVuSans-49" transform="translate(703.59375 0)"/>
      <use xlink:href="#DejaVuSans-55" transform="translate(738.796875 0)"/>
      <use xlink:href="#DejaVuSans-52" transform="translate(777.703125 0)"/>
      <use xlink:href="#DejaVuSans-51" transform="translate(838.890625 0)"/>
      <use xlink:href="#DejaVuSans-57" transform="translate(902.265625 0)"/>
      <use xlink:href="#DejaVuSans-4c" transform="translate(941.46875 0)"/>
      <use xlink:href="#DejaVuSans-48" transform="translate(969.25 0)"/>
      <use xlink:href="#DejaVuSans-55" transform="translate(1030.78125 0)"/>
     </g>
    </g>
    <g id="PathCollection_1">
     <defs>
      <path id="m987c1ad4f4" d="M 0 -7.071068 
L -1.587554 -2.18508 
L -6.724985 -2.18508 
L -2.568716 0.834626 
L -4.156269 5.720614 
L -0 2.700907 
L 4.156269 5.720614 
L 2.568716 0.834626 
L 6.724985 -2.18508 
L 1.587554 -2.18508 
z
" style="stroke: #000000"/>
     </defs>
     <g>
      <use xlink:href="#m987c1ad4f4" x="464.459531" y="375.331172" style="fill: #ff0000; stroke: #000000"/>
     </g>
    </g>
    <g id="text_17">
     <!-- DeepSeek V3 best (0.547) -->
     <g style="fill: #262626" transform="translate(480.659531 377.693672) scale(0.09 -0.09)">
      <defs>
       <path id="DejaVuSans-45" d="M 3116 1747 
Q 3116 2381 2855 2742 
Q 2594 3103 2138 3103 
Q 1681 3103 1420 2742 
Q 1159 2381 1159 1747 
Q 1159 1113 1420 752 
Q 1681 391 2138 391 
Q 2594 391 2855 752 
Q 3116 1113 3116 1747 
z
M 1159 2969 
Q 1341 3281 1617 3432 
Q 1894 3584 2278 3584 
Q 2916 3584 3314 3078 
Q 3713 2572 3713 1747 
Q 3713 922 3314 415 
Q 2916 -91 2278 -91 
Q 1894 -91 1617 61 
Q 1341 213 1159 525 
L 1159 0 
L 581 0 
L 581 4863 
L 1159 4863 
L 1159 2969 
z
" transform="scale(0.015625)"/>
       <path id="DejaVuSans-11" d="M 684 794 
L 1344 794 
L 1344 0 
L 684 0 
L 684 794 
z
" transform="scale(0.015625)"/>
       <path id="DejaVuSans-18" d="M 691 4666 
L 3169 4666 
L 3169 4134 
L 1269 4134 
L 1269 2991 
Q 1406 3038 1543 3061 
Q 1681 3084 1819 3084 
Q 2600 3084 3056 2656 
Q 3513 2228 3513 1497 
Q 3513 744 3044 326 
Q 2575 -91 1722 -91 
Q 1428 -91 1123 -41 
Q 819 9 494 109 
L 494 744 
Q 775 591 1075 516 
Q 1375 441 1709 441 
Q 2250 441 2565 725 
Q 2881 1009 2881 1497 
Q 2881 1984 2565 2268 
Q 2250 2553 1709 2553 
Q 1456 2553 1204 2497 
Q 953 2441 691 2322 
L 691 4666 
z
" transform="scale(0.015625)"/>
       <path id="DejaVuSans-1a" d="M 525 4666 
L 3525 4666 
L 3525 4397 
L 1831 0 
L 1172 0 
L 2766 4134 
L 525 4134 
L 525 4666 
z
" transform="scale(0.015625)"/>
      </defs>
      <use xlink:href="#DejaVuSans-27"/>
      <use xlink:href="#DejaVuSans-48" transform="translate(77 0)"/>
      <use xlink:href="#DejaVuSans-48" transform="translate(138.53125 0)"/>
      <use xlink:href="#DejaVuSans-53" transform="translate(200.0625 0)"/>
      <use xlink:href="#DejaVuSans-36" transform="translate(263.546875 0)"/>
      <use xlink:href="#DejaVuSans-48" transform="translate(327.03125 0)"/>
      <use xlink:href="#DejaVuSans-48" transform="translate(388.5625 0)"/>
      <use xlink:href="#DejaVuSans-4e" transform="translate(450.09375 0)"/>
      <use xlink:href="#DejaVuSans-3" transform="translate(508 0)"/>
      <use xlink:href="#DejaVuSans-39" transform="translate(539.78125 0)"/>
      <use xlink:href="#DejaVuSans-16" transform="translate(608.1875 0)"/>
      <use xlink:href="#DejaVuSans-3" transform="translate(671.8125 0)"/>
      <use xlink:href="#DejaVuSans-45" transform="translate(703.59375 0)"/>
      <use xlink:href="#DejaVuSans-48" transform="translate(767.078125 0)"/>
      <use xlink:href="#DejaVuSans-56" transform="translate(828.609375 0)"/>
      <use xlink:href="#DejaVuSans-57" transform="translate(880.703125 0)"/>
      <use xlink:href="#DejaVuSans-3" transform="translate(919.90625 0)"/>
      <use xlink:href="#DejaVuSans-b" transform="translate(951.6875 0)"/>
      <use xlink:href="#DejaVuSans-13" transform="translate(990.703125 0)"/>
      <use xlink:href="#DejaVuSans-11" transform="translate(1054.328125 0)"/>
      <use xlink:href="#DejaVuSans-18" transform="translate(1086.109375 0)"/>
      <use xlink:href="#DejaVuSans-17" transform="translate(1149.734375 0)"/>
      <use xlink:href="#DejaVuSans-1a" transform="translate(1213.359375 0)"/>
      <use xlink:href="#DejaVuSans-c" transform="translate(1276.984375 0)"/>
     </g>
    </g>
    <g id="line2d_16">
     <path d="M 455.459531 388.044375 
L 464.459531 388.044375 
L 473.459531 388.044375 
" style="fill: none; stroke: #dc2626; stroke-width: 2; stroke-linecap: round"/>
     <g>
      <use xlink:href="#m8a950ab2ee" x="464.459531" y="388.044375" style="fill: #dc2626; stroke: #dc2626"/>
     </g>
    </g>
    <g id="text_18">
     <!-- Kimi K2 frontier -->
     <g style="fill: #262626" transform="translate(480.659531 391.194375) scale(0.09 -0.09)">
      <defs>
       <path id="DejaVuSans-2e" d="M 628 4666 
L 1259 4666 
L 1259 2694 
L 3353 4666 
L 4166 4666 
L 1850 2491 
L 4331 0 
L 3500 0 
L 1259 2247 
L 1259 0 
L 628 0 
L 628 4666 
z
" transform="scale(0.015625)"/>
      </defs>
      <use xlink:href="#DejaVuSans-2e"/>
      <use xlink:href="#DejaVuSans-4c" transform="translate(65.578125 0)"/>
      <use xlink:href="#DejaVuSans-50" transform="translate(93.359375 0)"/>
      <use xlink:href="#DejaVuSans-4c" transform="translate(190.765625 0)"/>
      <use xlink:href="#DejaVuSans-3" transform="translate(218.546875 0)"/>
      <use xlink:href="#DejaVuSans-2e" transform="translate(250.328125 0)"/>
      <use xlink:href="#DejaVuSans-15" transform="translate(315.90625 0)"/>
      <use xlink:href="#DejaVuSans-3" transform="translate(379.53125 0)"/>
      <use xlink:href="#DejaVuSans-49" transform="translate(411.3125 0)"/>
      <use xlink:href="#DejaVuSans-55" transform="translate(446.515625 0)"/>
      <use xlink:href="#DejaVuSans-52" transform="translate(485.421875 0)"/>
      <use xlink:href="#DejaVuSans-51" transform="translate(546.609375 0)"/>
      <use xlink:href="#DejaVuSans-57" transform="translate(609.984375 0)"/>
      <use xlink:href="#DejaVuSans-4c" transform="translate(649.1875 0)"/>
      <use xlink:href="#DejaVuSans-48" transform="translate(676.96875 0)"/>
      <use xlink:href="#DejaVuSans-55" transform="translate(738.5 0)"/>
     </g>
    </g>
    <g id="PathCollection_2">
     <g>
      <use xlink:href="#m987c1ad4f4" x="464.459531" y="402.332578" style="fill: #ff0000; stroke: #000000"/>
     </g>
    </g>
    <g id="text_19">
     <!-- Kimi K2 best (0.516) -->
     <g style="fill: #262626" transform="translate(480.659531 404.695078) scale(0.09 -0.09)">
      <use xlink:href="#DejaVuSans-2e"/>
      <use xlink:href="#DejaVuSans-4c" transform="translate(65.578125 0)"/>
      <use xlink:href="#DejaVuSans-50" transform="translate(93.359375 0)"/>
      <use xlink:href="#DejaVuSans-4c" transform="translate(190.765625 0)"/>
      <use xlink:href="#DejaVuSans-3" transform="translate(218.546875 0)"/>
      <use xlink:href="#DejaVuSans-2e" transform="translate(250.328125 0)"/>
      <use xlink:href="#DejaVuSans-15" transform="translate(315.90625 0)"/>
      <use xlink:href="#DejaVuSans-3" transform="translate(379.53125 0)"/>
      <use xlink:href="#DejaVuSans-45" transform="translate(411.3125 0)"/>
      <use xlink:href="#DejaVuSans-48" transform="translate(474.796875 0)"/>
      <use xlink:href="#DejaVuSans-56" transform="translate(536.328125 0)"/>
      <use xlink:href="#DejaVuSans-57" transform="translate(588.421875 0)"/>
      <use xlink:href="#DejaVuSans-3" transform="translate(627.625 0)"/>
      <use xlink:href="#DejaVuSans-b" transform="translate(659.40625 0)"/>
      <use xlink:href="#DejaVuSans-13" transform="translate(698.421875 0)"/>
      <use xlink:href="#DejaVuSans-11" transform="translate(762.046875 0)"/>
      <use xlink:href="#DejaVuSans-18" transform="translate(793.828125 0)"/>
      <use xlink:href="#DejaVuSans-14" transform="translate(857.453125 0)"/>
      <use xlink:href="#DejaVuSans-19" transform="translate(921.078125 0)"/>
      <use xlink:href="#DejaVuSans-c" transform="translate(984.703125 0)"/>
     </g>
    </g>
   </g>
   <g id="PathCollection_3">
    <g clip-path="url(#pd854ee41fb)">
     <use xlink:href="#m987c1ad4f4" x="581.835895" y="44.517187" style="fill: #ff0000; stroke: #000000"/>
    </g>
   </g>
   <g id="PathCollection_4">
    <g clip-path="url(#pd854ee41fb)">
     <use xlink:href="#m987c1ad4f4" x="171.896396" y="280.710641" style="fill: #ff0000; stroke: #000000"/>
    </g>
   </g>
  </g>
 </g>
 <defs>
  <clipPath id="pd854ee41fb">
   <rect x="49.199531" y="26.877187" width="558" height="388.08"/>
  </clipPath>
 </defs>
</svg>
