<?xml version="1.0" encoding="utf-8" standalone="no"?>
<!DOCTYPE svg PUBLIC "-//W3C//DTD SVG 1.1//EN"
  "http://www.w3.org/Graphics/SVG/1.1/DTD/svg11.dtd">
<svg xmlns:xlink="http://www.w3.org/1999/xlink" width="610.399219pt" height="446.481094pt" viewBox="0 0 610.399219 446.481094" xmlns="http://www.w3.org/2000/svg" version="1.1">
 <metadata>
  <rdf:RDF xmlns:dc="http://purl.org/dc/elements/1.1/" xmlns:cc="http://creativecommons.org/ns#" xmlns:rdf="http://www.w3.org/1999/02/22-rdf-syntax-ns#">
   <cc:Work>
    <dc:type rdf:resource="http://purl.org/dc/dcmitype/StillImage"/>
    <dc:date>2026-07-22T17:12:44.144881</dc:date>
    <dc:format>image/svg+xml</dc:format>
    <dc:creator>
     <cc:Agent>
      <dc:title>Matplotlib v3.11.0, https://matplotlib.org/</dc:title>
     </cc:Agent>
    </dc:creator>
   </cc:Work>
  </rdf:RDF>
 </metadata>
 <defs>
  <style type="text/css">*{stroke-linejoin: round; stroke-linecap: butt}</style>
 </defs>
 <g id="figure_1">
  <g id="patch_1">
   <path d="M 0 446.481094 
L 610.399219 446.481094 
L 610.399219 0 
L 0 0 
z
" style="fill: #ffffff"/>
  </g>
  <g id="axes_1">
   <g id="patch_2">
    <path d="M 45.199219 395.28 
L 603.199219 395.28 
L 603.199219 7.2 
L 45.199219 7.2 
z
" style="fill: #ffffff"/>
   </g>
   <g id="matplotlib.axis_1">
    <g id="xtick_1">
     <g id="line2d_1">
      <path d="M 70.562855 395.28 
L 70.562855 7.2 
" clip-path="url(#p56d6c7002a)" style="fill: none; stroke: #cccccc; stroke-opacity: 0.3; stroke-linecap: round"/>
     </g>
     <g id="text_1">
      <!-- 0 -->
      <g style="fill: #262626" transform="translate(65.313793 417.316133) scale(0.165 -0.165)">
       <defs>
        <path id="DejaVuSans-13" d="M 2034 4250 
Q 1547 4250 1301 3770 
Q 1056 3291 1056 2328 
Q 1056 1369 1301 889 
Q 1547 409 2034 409 
Q 2525 409 2770 889 
Q 3016 1369 3016 2328 
Q 3016 3291 2770 3770 
Q 2525 4250 2034 4250 
z
M 2034 4750 
Q 2819 4750 3233 4129 
Q 3647 3509 3647 2328 
Q 3647 1150 3233 529 
Q 2819 -91 2034 -91 
Q 1250 -91 836 529 
Q 422 1150 422 2328 
Q 422 3509 836 4129 
Q 1250 4750 2034 4750 
z
" transform="scale(0.015625)"/>
       </defs>
       <use xlink:href="#DejaVuSans-13"/>
      </g>
     </g>
    </g>
    <g id="xtick_2">
     <g id="line2d_2">
      <path d="M 140.531507 395.28 
L 140.531507 7.2 
" clip-path="url(#p56d6c7002a)" style="fill: none; stroke: #cccccc; stroke-opacity: 0.3; stroke-linecap: round"/>
     </g>
     <g id="text_2">
      <!-- 10 -->
      <g style="fill: #262626" transform="translate(130.033382 417.316133) scale(0.165 -0.165)">
       <defs>
        <path id="DejaVuSans-14" d="M 794 531 
L 1825 531 
L 1825 4091 
L 703 3866 
L 703 4441 
L 1819 4666 
L 2450 4666 
L 2450 531 
L 3481 531 
L 3481 0 
L 794 0 
L 794 531 
z
" transform="scale(0.015625)"/>
       </defs>
       <use xlink:href="#DejaVuSans-14"/>
       <use xlink:href="#DejaVuSans-13" transform="translate(63.625 0)"/>
      </g>
     </g>
    </g>
    <g id="xtick_3">
     <g id="line2d_3">
      <path d="M 210.500159 395.28 
L 210.500159 7.2 
" clip-path="url(#p56d6c7002a)" style="fill: none; stroke: #cccccc; stroke-opacity: 0.3; stroke-linecap: round"/>
     </g>
     <g id="text_3">
      <!-- 20 -->
      <g style="fill: #262626" transform="translate(200.002034 417.316133) scale(0.165 -0.165)">
       <defs>
        <path id="DejaVuSans-15" d="M 1228 531 
L 3431 531 
L 3431 0 
L 469 0 
L 469 531 
Q 828 903 1448 1529 
Q 2069 2156 2228 2338 
Q 2531 2678 2651 2914 
Q 2772 3150 2772 3378 
Q 2772 3750 2511 3984 
Q 2250 4219 1831 4219 
Q 1534 4219 1204 4116 
Q 875 4013 500 3803 
L 500 4441 
Q 881 4594 1212 4672 
Q 1544 4750 1819 4750 
Q 2544 4750 2975 4387 
Q 3406 4025 3406 3419 
Q 3406 3131 3298 2873 
Q 3191 2616 2906 2266 
Q 2828 2175 2409 1742 
Q 1991 1309 1228 531 
z
" transform="scale(0.015625)"/>
       </defs>
       <use xlink:href="#DejaVuSans-15"/>
       <use xlink:href="#DejaVuSans-13" transform="translate(63.625 0)"/>
      </g>
     </g>
    </g>
    <g id="xtick_4">
     <g id="line2d_4">
      <path d="M 280.468811 395.28 
L 280.468811 7.2 
" clip-path="url(#p56d6c7002a)" style="fill: none; stroke: #cccccc; stroke-opacity: 0.3; stroke-linecap: round"/>
     </g>
     <g id="text_4">
      <!-- 30 -->
      <g style="fill: #262626" transform="translate(269.970686 417.316133) scale(0.165 -0.165)">
       <defs>
        <path id="DejaVuSans-16" d="M 2597 2516 
Q 3050 2419 3304 2112 
Q 3559 1806 3559 1356 
Q 3559 666 3084 287 
Q 2609 -91 1734 -91 
Q 1441 -91 1130 -33 
Q 819 25 488 141 
L 488 750 
Q 750 597 1062 519 
Q 1375 441 1716 441 
Q 2309 441 2620 675 
Q 2931 909 2931 1356 
Q 2931 1769 2642 2001 
Q 2353 2234 1838 2234 
L 1294 2234 
L 1294 2753 
L 1863 2753 
Q 2328 2753 2575 2939 
Q 2822 3125 2822 3475 
Q 2822 3834 2567 4026 
Q 2313 4219 1838 4219 
Q 1578 4219 1281 4162 
Q 984 4106 628 3988 
L 628 4550 
Q 988 4650 1302 4700 
Q 1616 4750 1894 4750 
Q 2613 4750 3031 4423 
Q 3450 4097 3450 3541 
Q 3450 3153 3228 2886 
Q 3006 2619 2597 2516 
z
" transform="scale(0.015625)"/>
       </defs>
       <use xlink:href="#DejaVuSans-16"/>
       <use xlink:href="#DejaVuSans-13" transform="translate(63.625 0)"/>
      </g>
     </g>
    </g>
    <g id="xtick_5">
     <g id="line2d_5">
      <path d="M 350.437463 395.28 
L 350.437463 7.2 
" clip-path="url(#p56d6c7002a)" style="fill: none; stroke: #cccccc; stroke-opacity: 0.3; stroke-linecap: round"/>
     </g>
     <g id="text_5">
      <!-- 40 -->
      <g style="fill: #262626" transform="translate(339.939338 417.316133) scale(0.165 -0.165)">
       <defs>
        <path id="DejaVuSans-17" d="M 2419 4116 
L 825 1625 
L 2419 1625 
L 2419 4116 
z
M 2253 4666 
L 3047 4666 
L 3047 1625 
L 3713 1625 
L 3713 1100 
L 3047 1100 
L 3047 0 
L 2419 0 
L 2419 1100 
L 313 1100 
L 313 1709 
L 2253 4666 
z
" transform="scale(0.015625)"/>
       </defs>
       <use xlink:href="#DejaVuSans-17"/>
       <use xlink:href="#DejaVuSans-13" transform="translate(63.625 0)"/>
      </g>
     </g>
    </g>
    <g id="xtick_6">
     <g id="line2d_6">
      <path d="M 420.406115 395.28 
L 420.406115 7.2 
" clip-path="url(#p56d6c7002a)" style="fill: none; stroke: #cccccc; stroke-opacity: 0.3; stroke-linecap: round"/>
     </g>
     <g id="text_6">
      <!-- 50 -->
      <g style="fill: #262626" transform="translate(409.90799 417.316133) scale(0.165 -0.165)">
       <defs>
        <path id="DejaVuSans-18" d="M 691 4666 
L 3169 4666 
L 3169 4134 
L 1269 4134 
L 1269 2991 
Q 1406 3038 1543 3061 
Q 1681 3084 1819 3084 
Q 2600 3084 3056 2656 
Q 3513 2228 3513 1497 
Q 3513 744 3044 326 
Q 2575 -91 1722 -91 
Q 1428 -91 1123 -41 
Q 819 9 494 109 
L 494 744 
Q 775 591 1075 516 
Q 1375 441 1709 441 
Q 2250 441 2565 725 
Q 2881 1009 2881 1497 
Q 2881 1984 2565 2268 
Q 2250 2553 1709 2553 
Q 1456 2553 1204 2497 
Q 953 2441 691 2322 
L 691 4666 
z
" transform="scale(0.015625)"/>
       </defs>
       <use xlink:href="#DejaVuSans-18"/>
       <use xlink:href="#DejaVuSans-13" transform="translate(63.625 0)"/>
      </g>
     </g>
    </g>
    <g id="xtick_7">
     <g id="line2d_7">
      <path d="M 490.374767 395.28 
L 490.374767 7.2 
" clip-path="url(#p56d6c7002a)" style="fill: none; stroke: #cccccc; stroke-opacity: 0.3; stroke-linecap: round"/>
     </g>
     <g id="text_7">
      <!-- 60 -->
      <g style="fill: #262626" transform="translate(479.876642 417.316133) scale(0.165 -0.165)">
       <defs>
        <path id="DejaVuSans-19" d="M 2113 2584 
Q 1688 2584 1439 2293 
Q 1191 2003 1191 1497 
Q 1191 994 1439 701 
Q 1688 409 2113 409 
Q 2538 409 2786 701 
Q 3034 994 3034 1497 
Q 3034 2003 2786 2293 
Q 2538 2584 2113 2584 
z
M 3366 4563 
L 3366 3988 
Q 3128 4100 2886 4159 
Q 2644 4219 2406 4219 
Q 1781 4219 1451 3797 
Q 1122 3375 1075 2522 
Q 1259 2794 1537 2939 
Q 1816 3084 2150 3084 
Q 2853 3084 3261 2657 
Q 3669 2231 3669 1497 
Q 3669 778 3244 343 
Q 2819 -91 2113 -91 
Q 1303 -91 875 529 
Q 447 1150 447 2328 
Q 447 3434 972 4092 
Q 1497 4750 2381 4750 
Q 2619 4750 2861 4703 
Q 3103 4656 3366 4563 
z
" transform="scale(0.015625)"/>
       </defs>
       <use xlink:href="#DejaVuSans-19"/>
       <use xlink:href="#DejaVuSans-13" transform="translate(63.625 0)"/>
      </g>
     </g>
    </g>
    <g id="xtick_8">
     <g id="line2d_8">
      <path d="M 560.343419 395.28 
L 560.343419 7.2 
" clip-path="url(#p56d6c7002a)" style="fill: none; stroke: #cccccc; stroke-opacity: 0.3; stroke-linecap: round"/>
     </g>
     <g id="text_8">
      <!-- 70 -->
      <g style="fill: #262626" transform="translate(549.845294 417.316133) scale(0.165 -0.165)">
       <defs>
        <path id="DejaVuSans-1a" d="M 525 4666 
L 3525 4666 
L 3525 4397 
L 1831 0 
L 1172 0 
L 2766 4134 
L 525 4134 
L 525 4666 
z
" transform="scale(0.015625)"/>
       </defs>
       <use xlink:href="#DejaVuSans-1a"/>
       <use xlink:href="#DejaVuSans-13" transform="translate(63.625 0)"/>
      </g>
     </g>
    </g>
    <g id="text_9">
     <!-- Time Overhead (%) -->
     <g style="fill: #262626" transform="translate(256.313437 435.917812) scale(0.14 -0.14)">
      <defs>
       <path id="DejaVuSans-37" d="M -19 4666 
L 3928 4666 
L 3928 4134 
L 2272 4134 
L 2272 0 
L 1638 0 
L 1638 4134 
L -19 4134 
L -19 4666 
z
" transform="scale(0.015625)"/>
       <path id="DejaVuSans-4c" d="M 603 3500 
L 1178 3500 
L 1178 0 
L 603 0 
L 603 3500 
z
M 603 4863 
L 1178 4863 
L 1178 4134 
L 603 4134 
L 603 4863 
z
" transform="scale(0.015625)"/>
       <path id="DejaVuSans-50" d="M 3328 2828 
Q 3544 3216 3844 3400 
Q 4144 3584 4550 3584 
Q 5097 3584 5394 3201 
Q 5691 2819 5691 2113 
L 5691 0 
L 5113 0 
L 5113 2094 
Q 5113 2597 4934 2840 
Q 4756 3084 4391 3084 
Q 3944 3084 3684 2787 
Q 3425 2491 3425 1978 
L 3425 0 
L 2847 0 
L 2847 2094 
Q 2847 2600 2669 2842 
Q 2491 3084 2119 3084 
Q 1678 3084 1418 2786 
Q 1159 2488 1159 1978 
L 1159 0 
L 581 0 
L 581 3500 
L 1159 3500 
L 1159 2956 
Q 1356 3278 1631 3431 
Q 1906 3584 2284 3584 
Q 2666 3584 2933 3390 
Q 3200 3197 3328 2828 
z
" transform="scale(0.015625)"/>
       <path id="DejaVuSans-48" d="M 3597 1894 
L 3597 1613 
L 953 1613 
Q 991 1019 1311 708 
Q 1631 397 2203 397 
Q 2534 397 2845 478 
Q 3156 559 3463 722 
L 3463 178 
Q 3153 47 2828 -22 
Q 2503 -91 2169 -91 
Q 1331 -91 842 396 
Q 353 884 353 1716 
Q 353 2575 817 3079 
Q 1281 3584 2069 3584 
Q 2775 3584 3186 3129 
Q 3597 2675 3597 1894 
z
M 3022 2063 
Q 3016 2534 2758 2815 
Q 2500 3097 2075 3097 
Q 1594 3097 1305 2825 
Q 1016 2553 972 2059 
L 3022 2063 
z
" transform="scale(0.015625)"/>
       <path id="DejaVuSans-3" transform="scale(0.015625)"/>
       <path id="DejaVuSans-32" d="M 2522 4238 
Q 1834 4238 1429 3725 
Q 1025 3213 1025 2328 
Q 1025 1447 1429 934 
Q 1834 422 2522 422 
Q 3209 422 3611 934 
Q 4013 1447 4013 2328 
Q 4013 3213 3611 3725 
Q 3209 4238 2522 4238 
z
M 2522 4750 
Q 3503 4750 4090 4092 
Q 4678 3434 4678 2328 
Q 4678 1225 4090 567 
Q 3503 -91 2522 -91 
Q 1538 -91 948 565 
Q 359 1222 359 2328 
Q 359 3434 948 4092 
Q 1538 4750 2522 4750 
z
" transform="scale(0.015625)"/>
       <path id="DejaVuSans-59" d="M 191 3500 
L 800 3500 
L 1894 563 
L 2988 3500 
L 3597 3500 
L 2284 0 
L 1503 0 
L 191 3500 
z
" transform="scale(0.015625)"/>
       <path id="DejaVuSans-55" d="M 2631 2963 
Q 2534 3019 2420 3045 
Q 2306 3072 2169 3072 
Q 1681 3072 1420 2755 
Q 1159 2438 1159 1844 
L 1159 0 
L 581 0 
L 581 3500 
L 1159 3500 
L 1159 2956 
Q 1341 3275 1631 3429 
Q 1922 3584 2338 3584 
Q 2397 3584 2469 3576 
Q 2541 3569 2628 3553 
L 2631 2963 
z
" transform="scale(0.015625)"/>
       <path id="DejaVuSans-4b" d="M 3513 2113 
L 3513 0 
L 2938 0 
L 2938 2094 
Q 2938 2591 2744 2837 
Q 2550 3084 2163 3084 
Q 1697 3084 1428 2787 
Q 1159 2491 1159 1978 
L 1159 0 
L 581 0 
L 581 4863 
L 1159 4863 
L 1159 2956 
Q 1366 3272 1645 3428 
Q 1925 3584 2291 3584 
Q 2894 3584 3203 3211 
Q 3513 2838 3513 2113 
z
" transform="scale(0.015625)"/>
       <path id="DejaVuSans-44" d="M 2194 1759 
Q 1497 1759 1228 1600 
Q 959 1441 959 1056 
Q 959 750 1161 570 
Q 1363 391 1709 391 
Q 2188 391 2477 730 
Q 2766 1069 2766 1631 
L 2766 1759 
L 2194 1759 
z
M 3341 1997 
L 3341 0 
L 2766 0 
L 2766 531 
Q 2569 213 2275 61 
Q 1981 -91 1556 -91 
Q 1019 -91 701 211 
Q 384 513 384 1019 
Q 384 1609 779 1909 
Q 1175 2209 1959 2209 
L 2766 2209 
L 2766 2266 
Q 2766 2663 2505 2880 
Q 2244 3097 1772 3097 
Q 1472 3097 1187 3025 
Q 903 2953 641 2809 
L 641 3341 
Q 956 3463 1253 3523 
Q 1550 3584 1831 3584 
Q 2591 3584 2966 3190 
Q 3341 2797 3341 1997 
z
" transform="scale(0.015625)"/>
       <path id="DejaVuSans-47" d="M 2906 2969 
L 2906 4863 
L 3481 4863 
L 3481 0 
L 2906 0 
L 2906 525 
Q 2725 213 2448 61 
Q 2172 -91 1784 -91 
Q 1150 -91 751 415 
Q 353 922 353 1747 
Q 353 2572 751 3078 
Q 1150 3584 1784 3584 
Q 2172 3584 2448 3432 
Q 2725 3281 2906 2969 
z
M 947 1747 
Q 947 1113 1208 752 
Q 1469 391 1925 391 
Q 2381 391 2643 752 
Q 2906 1113 2906 1747 
Q 2906 2381 2643 2742 
Q 2381 3103 1925 3103 
Q 1469 3103 1208 2742 
Q 947 2381 947 1747 
z
" transform="scale(0.015625)"/>
       <path id="DejaVuSans-b" d="M 1984 4856 
Q 1566 4138 1362 3434 
Q 1159 2731 1159 2009 
Q 1159 1288 1364 580 
Q 1569 -128 1984 -844 
L 1484 -844 
Q 1016 -109 783 600 
Q 550 1309 550 2009 
Q 550 2706 781 3412 
Q 1013 4119 1484 4856 
L 1984 4856 
z
" transform="scale(0.015625)"/>
       <path id="DejaVuSans-8" d="M 4653 2053 
Q 4381 2053 4226 1822 
Q 4072 1591 4072 1178 
Q 4072 772 4226 539 
Q 4381 306 4653 306 
Q 4919 306 5073 539 
Q 5228 772 5228 1178 
Q 5228 1588 5073 1820 
Q 4919 2053 4653 2053 
z
M 4653 2450 
Q 5147 2450 5437 2106 
Q 5728 1763 5728 1178 
Q 5728 594 5436 251 
Q 5144 -91 4653 -91 
Q 4153 -91 3862 251 
Q 3572 594 3572 1178 
Q 3572 1766 3864 2108 
Q 4156 2450 4653 2450 
z
M 1428 4353 
Q 1159 4353 1004 4120 
Q 850 3888 850 3481 
Q 850 3069 1003 2837 
Q 1156 2606 1428 2606 
Q 1700 2606 1854 2837 
Q 2009 3069 2009 3481 
Q 2009 3884 1853 4118 
Q 1697 4353 1428 4353 
z
M 4250 4750 
L 4750 4750 
L 1831 -91 
L 1331 -91 
L 4250 4750 
z
M 1428 4750 
Q 1922 4750 2215 4408 
Q 2509 4066 2509 3481 
Q 2509 2891 2217 2550 
Q 1925 2209 1428 2209 
Q 931 2209 642 2551 
Q 353 2894 353 3481 
Q 353 4063 643 4406 
Q 934 4750 1428 4750 
z
" transform="scale(0.015625)"/>
       <path id="DejaVuSans-c" d="M 513 4856 
L 1013 4856 
Q 1481 4119 1714 3412 
Q 1947 2706 1947 2009 
Q 1947 1309 1714 600 
Q 1481 -109 1013 -844 
L 513 -844 
Q 928 -128 1133 580 
Q 1338 1288 1338 2009 
Q 1338 2731 1133 3434 
Q 928 4138 513 4856 
z
" transform="scale(0.015625)"/>
      </defs>
      <use xlink:href="#DejaVuSans-37"/>
      <use xlink:href="#DejaVuSans-4c" transform="translate(58 0)"/>
      <use xlink:href="#DejaVuSans-50" transform="translate(85.78125 0)"/>
      <use xlink:href="#DejaVuSans-48" transform="translate(183.1875 0)"/>
      <use xlink:href="#DejaVuSans-3" transform="translate(244.71875 0)"/>
      <use xlink:href="#DejaVuSans-32" transform="translate(276.5 0)"/>
      <use xlink:href="#DejaVuSans-59" transform="translate(355.21875 0)"/>
      <use xlink:href="#DejaVuSans-48" transform="translate(414.40625 0)"/>
      <use xlink:href="#DejaVuSans-55" transform="translate(475.9375 0)"/>
      <use xlink:href="#DejaVuSans-4b" transform="translate(515.296875 0)"/>
      <use xlink:href="#DejaVuSans-48" transform="translate(578.671875 0)"/>
      <use xlink:href="#DejaVuSans-44" transform="translate(640.203125 0)"/>
      <use xlink:href="#DejaVuSans-47" transform="translate(701.484375 0)"/>
      <use xlink:href="#DejaVuSans-3" transform="translate(764.96875 0)"/>
      <use xlink:href="#DejaVuSans-b" transform="translate(796.75 0)"/>
      <use xlink:href="#DejaVuSans-8" transform="translate(835.765625 0)"/>
      <use xlink:href="#DejaVuSans-c" transform="translate(930.78125 0)"/>
     </g>
    </g>
   </g>
   <g id="matplotlib.axis_2">
    <g id="ytick_1">
     <g id="line2d_9">
      <path d="M 45.199219 377.64 
L 603.199219 377.64 
" clip-path="url(#p56d6c7002a)" style="fill: none; stroke: #cccccc; stroke-opacity: 0.3; stroke-linecap: round"/>
     </g>
     <g id="text_10">
      <!-- 0 -->
      <g style="fill: #262626" transform="translate(25.201094 383.908066) scale(0.165 -0.165)">
       <use xlink:href="#DejaVuSans-13"/>
      </g>
     </g>
    </g>
    <g id="ytick_2">
     <g id="line2d_10">
      <path d="M 45.199219 320.460097 
L 603.199219 320.460097 
" clip-path="url(#p56d6c7002a)" style="fill: none; stroke: #cccccc; stroke-opacity: 0.3; stroke-linecap: round"/>
     </g>
     <g id="text_11">
      <!-- 1 -->
      <g style="fill: #262626" transform="translate(25.201094 326.728164) scale(0.165 -0.165)">
       <use xlink:href="#DejaVuSans-14"/>
      </g>
     </g>
    </g>
    <g id="ytick_3">
     <g id="line2d_11">
      <path d="M 45.199219 263.280194 
L 603.199219 263.280194 
" clip-path="url(#p56d6c7002a)" style="fill: none; stroke: #cccccc; stroke-opacity: 0.3; stroke-linecap: round"/>
     </g>
     <g id="text_12">
      <!-- 2 -->
      <g style="fill: #262626" transform="translate(25.201094 269.548261) scale(0.165 -0.165)">
       <use xlink:href="#DejaVuSans-15"/>
      </g>
     </g>
    </g>
    <g id="ytick_4">
     <g id="line2d_12">
      <path d="M 45.199219 206.100292 
L 603.199219 206.100292 
" clip-path="url(#p56d6c7002a)" style="fill: none; stroke: #cccccc; stroke-opacity: 0.3; stroke-linecap: round"/>
     </g>
     <g id="text_13">
      <!-- 3 -->
      <g style="fill: #262626" transform="translate(25.201094 212.368358) scale(0.165 -0.165)">
       <use xlink:href="#DejaVuSans-16"/>
      </g>
     </g>
    </g>
    <g id="ytick_5">
     <g id="line2d_13">
      <path d="M 45.199219 148.920389 
L 603.199219 148.920389 
" clip-path="url(#p56d6c7002a)" style="fill: none; stroke: #cccccc; stroke-opacity: 0.3; stroke-linecap: round"/>
     </g>
     <g id="text_14">
      <!-- 4 -->
      <g style="fill: #262626" transform="translate(25.201094 155.188455) scale(0.165 -0.165)">
       <use xlink:href="#DejaVuSans-17"/>
      </g>
     </g>
    </g>
    <g id="ytick_6">
     <g id="line2d_14">
      <path d="M 45.199219 91.740486 
L 603.199219 91.740486 
" clip-path="url(#p56d6c7002a)" style="fill: none; stroke: #cccccc; stroke-opacity: 0.3; stroke-linecap: round"/>
     </g>
     <g id="text_15">
      <!-- 5 -->
      <g style="fill: #262626" transform="translate(25.201094 98.008553) scale(0.165 -0.165)">
       <use xlink:href="#DejaVuSans-18"/>
      </g>
     </g>
    </g>
    <g id="ytick_7">
     <g id="line2d_15">
      <path d="M 45.199219 34.560583 
L 603.199219 34.560583 
" clip-path="url(#p56d6c7002a)" style="fill: none; stroke: #cccccc; stroke-opacity: 0.3; stroke-linecap: round"/>
     </g>
     <g id="text_16">
      <!-- 6 -->
      <g style="fill: #262626" transform="translate(25.201094 40.82865) scale(0.165 -0.165)">
       <use xlink:href="#DejaVuSans-19"/>
      </g>
     </g>
    </g>
    <g id="text_17">
     <!-- CO₂ Savings (%) -->
     <g style="fill: #262626" transform="translate(17.837812 258.355625) rotate(-90) scale(0.14 -0.14)">
      <defs>
       <path id="DejaVuSans-26" d="M 4122 4306 
L 4122 3641 
Q 3803 3938 3442 4084 
Q 3081 4231 2675 4231 
Q 1875 4231 1450 3742 
Q 1025 3253 1025 2328 
Q 1025 1406 1450 917 
Q 1875 428 2675 428 
Q 3081 428 3442 575 
Q 3803 722 4122 1019 
L 4122 359 
Q 3791 134 3420 21 
Q 3050 -91 2638 -91 
Q 1578 -91 968 557 
Q 359 1206 359 2328 
Q 359 3453 968 4101 
Q 1578 4750 2638 4750 
Q 3056 4750 3426 4639 
Q 3797 4528 4122 4306 
z
" transform="scale(0.015625)"/>
       <path id="DejaVuSans-b5d" d="M 838 356 
L 2163 356 
L 2163 0 
L 294 0 
L 294 343 
Q 400 440 597 615 
Q 1672 1568 1672 1862 
Q 1672 2068 1509 2194 
Q 1347 2321 1081 2321 
Q 919 2321 728 2266 
Q 538 2212 313 2103 
L 313 2487 
Q 553 2575 761 2618 
Q 969 2662 1147 2662 
Q 1600 2662 1872 2456 
Q 2144 2250 2144 1912 
Q 2144 1478 1109 590 
Q 934 440 838 356 
z
" transform="scale(0.015625)"/>
       <path id="DejaVuSans-36" d="M 3425 4513 
L 3425 3897 
Q 3066 4069 2747 4153 
Q 2428 4238 2131 4238 
Q 1616 4238 1336 4038 
Q 1056 3838 1056 3469 
Q 1056 3159 1242 3001 
Q 1428 2844 1947 2747 
L 2328 2669 
Q 3034 2534 3370 2195 
Q 3706 1856 3706 1288 
Q 3706 609 3251 259 
Q 2797 -91 1919 -91 
Q 1588 -91 1214 -16 
Q 841 59 441 206 
L 441 856 
Q 825 641 1194 531 
Q 1563 422 1919 422 
Q 2459 422 2753 634 
Q 3047 847 3047 1241 
Q 3047 1584 2836 1778 
Q 2625 1972 2144 2069 
L 1759 2144 
Q 1053 2284 737 2584 
Q 422 2884 422 3419 
Q 422 4038 858 4394 
Q 1294 4750 2059 4750 
Q 2388 4750 2728 4690 
Q 3069 4631 3425 4513 
z
" transform="scale(0.015625)"/>
       <path id="DejaVuSans-51" d="M 3513 2113 
L 3513 0 
L 2938 0 
L 2938 2094 
Q 2938 2591 2744 2837 
Q 2550 3084 2163 3084 
Q 1697 3084 1428 2787 
Q 1159 2491 1159 1978 
L 1159 0 
L 581 0 
L 581 3500 
L 1159 3500 
L 1159 2956 
Q 1366 3272 1645 3428 
Q 1925 3584 2291 3584 
Q 2894 3584 3203 3211 
Q 3513 2838 3513 2113 
z
" transform="scale(0.015625)"/>
       <path id="DejaVuSans-4a" d="M 2906 1791 
Q 2906 2416 2648 2759 
Q 2391 3103 1925 3103 
Q 1463 3103 1205 2759 
Q 947 2416 947 1791 
Q 947 1169 1205 825 
Q 1463 481 1925 481 
Q 2391 481 2648 825 
Q 2906 1169 2906 1791 
z
M 3481 434 
Q 3481 -459 3084 -895 
Q 2688 -1331 1869 -1331 
Q 1566 -1331 1297 -1286 
Q 1028 -1241 775 -1147 
L 775 -588 
Q 1028 -725 1275 -790 
Q 1522 -856 1778 -856 
Q 2344 -856 2625 -561 
Q 2906 -266 2906 331 
L 2906 616 
Q 2728 306 2450 153 
Q 2172 0 1784 0 
Q 1141 0 747 490 
Q 353 981 353 1791 
Q 353 2603 747 3093 
Q 1141 3584 1784 3584 
Q 2172 3584 2450 3431 
Q 2728 3278 2906 2969 
L 2906 3500 
L 3481 3500 
L 3481 434 
z
" transform="scale(0.015625)"/>
       <path id="DejaVuSans-56" d="M 2834 3397 
L 2834 2853 
Q 2591 2978 2328 3040 
Q 2066 3103 1784 3103 
Q 1356 3103 1142 2972 
Q 928 2841 928 2578 
Q 928 2378 1081 2264 
Q 1234 2150 1697 2047 
L 1894 2003 
Q 2506 1872 2764 1633 
Q 3022 1394 3022 966 
Q 3022 478 2636 193 
Q 2250 -91 1575 -91 
Q 1294 -91 989 -36 
Q 684 19 347 128 
L 347 722 
Q 666 556 975 473 
Q 1284 391 1588 391 
Q 1994 391 2212 530 
Q 2431 669 2431 922 
Q 2431 1156 2273 1281 
Q 2116 1406 1581 1522 
L 1381 1569 
Q 847 1681 609 1914 
Q 372 2147 372 2553 
Q 372 3047 722 3315 
Q 1072 3584 1716 3584 
Q 2034 3584 2315 3537 
Q 2597 3491 2834 3397 
z
" transform="scale(0.015625)"/>
      </defs>
      <use xlink:href="#DejaVuSans-26"/>
      <use xlink:href="#DejaVuSans-32" transform="translate(69.828125 0)"/>
      <use xlink:href="#DejaVuSans-b5d" transform="translate(148.546875 0)"/>
      <use xlink:href="#DejaVuSans-3" transform="translate(188.640625 0)"/>
      <use xlink:href="#DejaVuSans-36" transform="translate(220.421875 0)"/>
      <use xlink:href="#DejaVuSans-44" transform="translate(283.90625 0)"/>
      <use xlink:href="#DejaVuSans-59" transform="translate(345.1875 0)"/>
      <use xlink:href="#DejaVuSans-4c" transform="translate(404.375 0)"/>
      <use xlink:href="#DejaVuSans-51" transform="translate(432.15625 0)"/>
      <use xlink:href="#DejaVuSans-4a" transform="translate(495.53125 0)"/>
      <use xlink:href="#DejaVuSans-56" transform="translate(559.015625 0)"/>
      <use xlink:href="#DejaVuSans-3" transform="translate(611.109375 0)"/>
      <use xlink:href="#DejaVuSans-b" transform="translate(642.890625 0)"/>
      <use xlink:href="#DejaVuSans-8" transform="translate(681.90625 0)"/>
      <use xlink:href="#DejaVuSans-c" transform="translate(776.921875 0)"/>
     </g>
    </g>
   </g>
   <g id="line2d_16">
    <path d="M 70.562855 377.64 
L 71.262542 375.352804 
L 71.962228 374.781005 
L 71.962228 371.92201 
L 72.661915 368.491216 
L 73.361601 367.347618 
L 74.061288 366.775818 
L 83.856899 366.204019 
L 86.655645 349.050049 
L 99.949689 347.906451 
L 104.147808 346.762853 
L 105.547181 335.898671 
L 109.045614 331.324279 
L 120.940285 329.037083 
L 125.138404 259.277601 
L 148.228059 237.549238 
L 172.017401 214.105478 
L 190.20925 198.666904 
L 200.004861 188.946321 
L 237.088247 164.930762 
L 269.973513 159.784571 
L 290.964109 154.06658 
L 297.261288 153.494781 
L 302.159093 150.063987 
L 311.954705 147.204992 
L 319.651256 145.489595 
L 322.450002 141.487002 
L 325.248749 140.915203 
L 332.9453 132.910016 
L 359.533388 129.479222 
L 360.932761 121.474036 
L 381.923357 107.750859 
L 394.517714 102.604668 
L 406.412385 101.46107 
L 421.105802 98.030276 
L 432.300786 94.599481 
L 443.49577 88.309692 
L 451.192322 79.732707 
L 458.888874 73.442917 
L 470.783545 63.150535 
L 475.68135 57.432545 
L 486.176648 54.00175 
L 498.771006 53.429951 
L 500.170379 51.142755 
L 511.365363 49.999157 
L 523.260034 49.427358 
L 523.95972 47.711961 
L 524.659407 47.140162 
L 526.05878 45.996564 
L 527.458153 45.424765 
L 532.355959 44.852966 
L 533.755332 43.709368 
L 534.455018 42.56577 
L 535.854391 40.278574 
L 536.554078 39.134976 
L 537.253764 38.563177 
L 537.953451 37.991378 
L 547.749062 35.704182 
L 548.448749 34.560583 
L 549.148435 33.988784 
L 550.547808 33.416985 
L 551.247495 32.273387 
L 561.742792 31.129789 
L 562.442479 29.986191 
L 563.142165 29.414392 
L 574.33715 27.127196 
L 575.036836 25.983598 
L 575.736523 25.411799 
L 576.436209 24.84 
" clip-path="url(#p56d6c7002a)" style="fill: none; stroke: #2563eb; stroke-width: 2; stroke-linecap: round"/>
    <defs>
     <path id="m3d7b0cb93c" d="M 0 2 
C 0.530406 2 1.03916 1.789267 1.414214 1.414214 
C 1.789267 1.03916 2 0.530406 2 0 
C 2 -0.530406 1.789267 -1.03916 1.414214 -1.414214 
C 1.03916 -1.789267 0.530406 -2 0 -2 
C -0.530406 -2 -1.03916 -1.789267 -1.414214 -1.414214 
C -1.789267 -1.03916 -2 -0.530406 -2 0 
C -2 0.530406 -1.789267 1.03916 -1.414214 1.414214 
C -1.03916 1.789267 -0.530406 2 0 2 
z
" style="stroke: #2563eb"/>
    </defs>
    <g clip-path="url(#p56d6c7002a)">
     <use xlink:href="#m3d7b0cb93c" x="70.562855" y="377.64" style="fill: #2563eb; stroke: #2563eb"/>
     <use xlink:href="#m3d7b0cb93c" x="71.262542" y="375.352804" style="fill: #2563eb; stroke: #2563eb"/>
     <use xlink:href="#m3d7b0cb93c" x="71.962228" y="374.781005" style="fill: #2563eb; stroke: #2563eb"/>
     <use xlink:href="#m3d7b0cb93c" x="71.962228" y="371.92201" style="fill: #2563eb; stroke: #2563eb"/>
     <use xlink:href="#m3d7b0cb93c" x="72.661915" y="368.491216" style="fill: #2563eb; stroke: #2563eb"/>
     <use xlink:href="#m3d7b0cb93c" x="73.361601" y="367.347618" style="fill: #2563eb; stroke: #2563eb"/>
     <use xlink:href="#m3d7b0cb93c" x="74.061288" y="366.775818" style="fill: #2563eb; stroke: #2563eb"/>
     <use xlink:href="#m3d7b0cb93c" x="83.856899" y="366.204019" style="fill: #2563eb; stroke: #2563eb"/>
     <use xlink:href="#m3d7b0cb93c" x="86.655645" y="349.050049" style="fill: #2563eb; stroke: #2563eb"/>
     <use xlink:href="#m3d7b0cb93c" x="99.949689" y="347.906451" style="fill: #2563eb; stroke: #2563eb"/>
     <use xlink:href="#m3d7b0cb93c" x="104.147808" y="346.762853" style="fill: #2563eb; stroke: #2563eb"/>
     <use xlink:href="#m3d7b0cb93c" x="105.547181" y="335.898671" style="fill: #2563eb; stroke: #2563eb"/>
     <use xlink:href="#m3d7b0cb93c" x="109.045614" y="331.324279" style="fill: #2563eb; stroke: #2563eb"/>
     <use xlink:href="#m3d7b0cb93c" x="120.940285" y="329.037083" style="fill: #2563eb; stroke: #2563eb"/>
     <use xlink:href="#m3d7b0cb93c" x="125.138404" y="259.277601" style="fill: #2563eb; stroke: #2563eb"/>
     <use xlink:href="#m3d7b0cb93c" x="148.228059" y="237.549238" style="fill: #2563eb; stroke: #2563eb"/>
     <use xlink:href="#m3d7b0cb93c" x="172.017401" y="214.105478" style="fill: #2563eb; stroke: #2563eb"/>
     <use xlink:href="#m3d7b0cb93c" x="190.20925" y="198.666904" style="fill: #2563eb; stroke: #2563eb"/>
     <use xlink:href="#m3d7b0cb93c" x="200.004861" y="188.946321" style="fill: #2563eb; stroke: #2563eb"/>
     <use xlink:href="#m3d7b0cb93c" x="237.088247" y="164.930762" style="fill: #2563eb; stroke: #2563eb"/>
     <use xlink:href="#m3d7b0cb93c" x="269.973513" y="159.784571" style="fill: #2563eb; stroke: #2563eb"/>
     <use xlink:href="#m3d7b0cb93c" x="290.964109" y="154.06658" style="fill: #2563eb; stroke: #2563eb"/>
     <use xlink:href="#m3d7b0cb93c" x="297.261288" y="153.494781" style="fill: #2563eb; stroke: #2563eb"/>
     <use xlink:href="#m3d7b0cb93c" x="302.159093" y="150.063987" style="fill: #2563eb; stroke: #2563eb"/>
     <use xlink:href="#m3d7b0cb93c" x="311.954705" y="147.204992" style="fill: #2563eb; stroke: #2563eb"/>
     <use xlink:href="#m3d7b0cb93c" x="319.651256" y="145.489595" style="fill: #2563eb; stroke: #2563eb"/>
     <use xlink:href="#m3d7b0cb93c" x="322.450002" y="141.487002" style="fill: #2563eb; stroke: #2563eb"/>
     <use xlink:href="#m3d7b0cb93c" x="325.248749" y="140.915203" style="fill: #2563eb; stroke: #2563eb"/>
     <use xlink:href="#m3d7b0cb93c" x="332.9453" y="132.910016" style="fill: #2563eb; stroke: #2563eb"/>
     <use xlink:href="#m3d7b0cb93c" x="359.533388" y="129.479222" style="fill: #2563eb; stroke: #2563eb"/>
     <use xlink:href="#m3d7b0cb93c" x="360.932761" y="121.474036" style="fill: #2563eb; stroke: #2563eb"/>
     <use xlink:href="#m3d7b0cb93c" x="381.923357" y="107.750859" style="fill: #2563eb; stroke: #2563eb"/>
     <use xlink:href="#m3d7b0cb93c" x="394.517714" y="102.604668" style="fill: #2563eb; stroke: #2563eb"/>
     <use xlink:href="#m3d7b0cb93c" x="406.412385" y="101.46107" style="fill: #2563eb; stroke: #2563eb"/>
     <use xlink:href="#m3d7b0cb93c" x="421.105802" y="98.030276" style="fill: #2563eb; stroke: #2563eb"/>
     <use xlink:href="#m3d7b0cb93c" x="432.300786" y="94.599481" style="fill: #2563eb; stroke: #2563eb"/>
     <use xlink:href="#m3d7b0cb93c" x="443.49577" y="88.309692" style="fill: #2563eb; stroke: #2563eb"/>
     <use xlink:href="#m3d7b0cb93c" x="451.192322" y="79.732707" style="fill: #2563eb; stroke: #2563eb"/>
     <use xlink:href="#m3d7b0cb93c" x="458.888874" y="73.442917" style="fill: #2563eb; stroke: #2563eb"/>
     <use xlink:href="#m3d7b0cb93c" x="470.783545" y="63.150535" style="fill: #2563eb; stroke: #2563eb"/>
     <use xlink:href="#m3d7b0cb93c" x="475.68135" y="57.432545" style="fill: #2563eb; stroke: #2563eb"/>
     <use xlink:href="#m3d7b0cb93c" x="486.176648" y="54.00175" style="fill: #2563eb; stroke: #2563eb"/>
     <use xlink:href="#m3d7b0cb93c" x="498.771006" y="53.429951" style="fill: #2563eb; stroke: #2563eb"/>
     <use xlink:href="#m3d7b0cb93c" x="500.170379" y="51.142755" style="fill: #2563eb; stroke: #2563eb"/>
     <use xlink:href="#m3d7b0cb93c" x="511.365363" y="49.999157" style="fill: #2563eb; stroke: #2563eb"/>
     <use xlink:href="#m3d7b0cb93c" x="523.260034" y="49.427358" style="fill: #2563eb; stroke: #2563eb"/>
     <use xlink:href="#m3d7b0cb93c" x="523.95972" y="47.711961" style="fill: #2563eb; stroke: #2563eb"/>
     <use xlink:href="#m3d7b0cb93c" x="524.659407" y="47.140162" style="fill: #2563eb; stroke: #2563eb"/>
     <use xlink:href="#m3d7b0cb93c" x="526.05878" y="45.996564" style="fill: #2563eb; stroke: #2563eb"/>
     <use xlink:href="#m3d7b0cb93c" x="527.458153" y="45.424765" style="fill: #2563eb; stroke: #2563eb"/>
     <use xlink:href="#m3d7b0cb93c" x="532.355959" y="44.852966" style="fill: #2563eb; stroke: #2563eb"/>
     <use xlink:href="#m3d7b0cb93c" x="533.755332" y="43.709368" style="fill: #2563eb; stroke: #2563eb"/>
     <use xlink:href="#m3d7b0cb93c" x="534.455018" y="42.56577" style="fill: #2563eb; stroke: #2563eb"/>
     <use xlink:href="#m3d7b0cb93c" x="535.854391" y="40.278574" style="fill: #2563eb; stroke: #2563eb"/>
     <use xlink:href="#m3d7b0cb93c" x="536.554078" y="39.134976" style="fill: #2563eb; stroke: #2563eb"/>
     <use xlink:href="#m3d7b0cb93c" x="537.253764" y="38.563177" style="fill: #2563eb; stroke: #2563eb"/>
     <use xlink:href="#m3d7b0cb93c" x="537.953451" y="37.991378" style="fill: #2563eb; stroke: #2563eb"/>
     <use xlink:href="#m3d7b0cb93c" x="547.749062" y="35.704182" style="fill: #2563eb; stroke: #2563eb"/>
     <use xlink:href="#m3d7b0cb93c" x="548.448749" y="34.560583" style="fill: #2563eb; stroke: #2563eb"/>
     <use xlink:href="#m3d7b0cb93c" x="549.148435" y="33.988784" style="fill: #2563eb; stroke: #2563eb"/>
     <use xlink:href="#m3d7b0cb93c" x="550.547808" y="33.416985" style="fill: #2563eb; stroke: #2563eb"/>
     <use xlink:href="#m3d7b0cb93c" x="551.247495" y="32.273387" style="fill: #2563eb; stroke: #2563eb"/>
     <use xlink:href="#m3d7b0cb93c" x="561.742792" y="31.129789" style="fill: #2563eb; stroke: #2563eb"/>
     <use xlink:href="#m3d7b0cb93c" x="562.442479" y="29.986191" style="fill: #2563eb; stroke: #2563eb"/>
     <use xlink:href="#m3d7b0cb93c" x="563.142165" y="29.414392" style="fill: #2563eb; stroke: #2563eb"/>
     <use xlink:href="#m3d7b0cb93c" x="574.33715" y="27.127196" style="fill: #2563eb; stroke: #2563eb"/>
     <use xlink:href="#m3d7b0cb93c" x="575.036836" y="25.983598" style="fill: #2563eb; stroke: #2563eb"/>
     <use xlink:href="#m3d7b0cb93c" x="575.736523" y="25.411799" style="fill: #2563eb; stroke: #2563eb"/>
     <use xlink:href="#m3d7b0cb93c" x="576.436209" y="24.84" style="fill: #2563eb; stroke: #2563eb"/>
    </g>
   </g>
   <g id="line2d_17">
    <path d="M 70.562855 377.64 
L 71.262542 376.496402 
L 71.262542 375.924603 
L 71.262542 375.352804 
L 71.262542 374.781005 
L 71.962228 372.493809 
L 72.661915 371.350211 
L 73.361601 370.778412 
L 74.061288 370.206613 
L 74.061288 369.634814 
L 75.460661 369.063015 
L 75.460661 367.347618 
L 78.259407 366.775818 
L 78.259407 362.773225 
L 78.259407 362.201426 
L 80.358466 359.342431 
L 81.058153 358.770632 
L 83.856899 357.055235 
L 84.556586 354.768039 
L 85.955959 353.624441 
L 86.655645 353.052642 
L 86.655645 352.480843 
L 89.454391 347.334652 
L 93.65251 346.191053 
L 97.150943 345.619254 
L 97.150943 344.475656 
L 97.850629 342.760259 
L 99.250002 341.616661 
L 99.250002 340.473063 
L 103.448122 337.614068 
L 106.946554 335.898671 
L 107.646241 330.180681 
L 115.342792 329.608882 
L 115.342792 327.321686 
L 116.742165 326.178088 
L 117.441852 322.747293 
L 118.841225 321.603695 
L 126.537777 315.885705 
L 132.834955 314.170308 
L 134.234328 311.311313 
L 134.934015 305.593323 
L 137.033075 302.162528 
L 138.432448 301.590729 
L 147.528372 299.875332 
L 149.627432 295.872739 
L 155.924611 294.729141 
L 157.323984 292.441945 
L 161.522103 288.439352 
L 164.320849 285.008558 
L 165.720222 282.721361 
L 178.314579 275.859773 
L 178.314579 274.716175 
L 184.611758 273.572577 
L 186.710817 271.285381 
L 188.110191 266.710989 
L 188.809877 263.851994 
L 189.509564 262.708395 
L 193.707683 262.136596 
L 194.407369 261.564797 
L 197.206115 260.992998 
L 197.905802 260.421199 
L 207.701413 258.134003 
L 207.701413 257.562204 
L 207.701413 256.990405 
L 209.100786 256.418606 
L 209.800473 255.846807 
L 210.500159 255.275008 
L 210.500159 254.703209 
L 220.29577 252.416013 
L 220.995457 251.844214 
L 221.695144 251.272415 
L 233.589814 250.700616 
L 234.289501 248.985219 
L 235.688874 247.841621 
L 237.088247 247.269822 
L 239.886993 246.698023 
L 240.58668 246.126224 
L 242.685739 245.554425 
L 257.379156 244.982626 
L 328.747181 244.410827 
L 330.146554 243.839028 
L 332.245614 243.267229 
L 334.344673 242.695429 
L 334.344673 242.12363 
L 337.843106 241.551831 
L 348.338404 240.980032 
" clip-path="url(#p56d6c7002a)" style="fill: none; stroke: #dc2626; stroke-width: 2; stroke-linecap: round"/>
    <defs>
     <path id="m7a143b1092" d="M 0 2 
C 0.530406 2 1.03916 1.789267 1.414214 1.414214 
C 1.789267 1.03916 2 0.530406 2 0 
C 2 -0.530406 1.789267 -1.03916 1.414214 -1.414214 
C 1.03916 -1.789267 0.530406 -2 0 -2 
C -0.530406 -2 -1.03916 -1.789267 -1.414214 -1.414214 
C -1.789267 -1.03916 -2 -0.530406 -2 0 
C -2 0.530406 -1.789267 1.03916 -1.414214 1.414214 
C -1.03916 1.789267 -0.530406 2 0 2 
z
" style="stroke: #dc2626"/>
    </defs>
    <g clip-path="url(#p56d6c7002a)">
     <use xlink:href="#m7a143b1092" x="70.562855" y="377.64" style="fill: #dc2626; stroke: #dc2626"/>
     <use xlink:href="#m7a143b1092" x="71.262542" y="376.496402" style="fill: #dc2626; stroke: #dc2626"/>
     <use xlink:href="#m7a143b1092" x="71.262542" y="375.924603" style="fill: #dc2626; stroke: #dc2626"/>
     <use xlink:href="#m7a143b1092" x="71.262542" y="375.352804" style="fill: #dc2626; stroke: #dc2626"/>
     <use xlink:href="#m7a143b1092" x="71.262542" y="374.781005" style="fill: #dc2626; stroke: #dc2626"/>
     <use xlink:href="#m7a143b1092" x="71.962228" y="372.493809" style="fill: #dc2626; stroke: #dc2626"/>
     <use xlink:href="#m7a143b1092" x="72.661915" y="371.350211" style="fill: #dc2626; stroke: #dc2626"/>
     <use xlink:href="#m7a143b1092" x="73.361601" y="370.778412" style="fill: #dc2626; stroke: #dc2626"/>
     <use xlink:href="#m7a143b1092" x="74.061288" y="370.206613" style="fill: #dc2626; stroke: #dc2626"/>
     <use xlink:href="#m7a143b1092" x="74.061288" y="369.634814" style="fill: #dc2626; stroke: #dc2626"/>
     <use xlink:href="#m7a143b1092" x="75.460661" y="369.063015" style="fill: #dc2626; stroke: #dc2626"/>
     <use xlink:href="#m7a143b1092" x="75.460661" y="367.347618" style="fill: #dc2626; stroke: #dc2626"/>
     <use xlink:href="#m7a143b1092" x="78.259407" y="366.775818" style="fill: #dc2626; stroke: #dc2626"/>
     <use xlink:href="#m7a143b1092" x="78.259407" y="362.773225" style="fill: #dc2626; stroke: #dc2626"/>
     <use xlink:href="#m7a143b1092" x="78.259407" y="362.201426" style="fill: #dc2626; stroke: #dc2626"/>
     <use xlink:href="#m7a143b1092" x="80.358466" y="359.342431" style="fill: #dc2626; stroke: #dc2626"/>
     <use xlink:href="#m7a143b1092" x="81.058153" y="358.770632" style="fill: #dc2626; stroke: #dc2626"/>
     <use xlink:href="#m7a143b1092" x="83.856899" y="357.055235" style="fill: #dc2626; stroke: #dc2626"/>
     <use xlink:href="#m7a143b1092" x="84.556586" y="354.768039" style="fill: #dc2626; stroke: #dc2626"/>
     <use xlink:href="#m7a143b1092" x="85.955959" y="353.624441" style="fill: #dc2626; stroke: #dc2626"/>
     <use xlink:href="#m7a143b1092" x="86.655645" y="353.052642" style="fill: #dc2626; stroke: #dc2626"/>
     <use xlink:href="#m7a143b1092" x="86.655645" y="352.480843" style="fill: #dc2626; stroke: #dc2626"/>
     <use xlink:href="#m7a143b1092" x="89.454391" y="347.334652" style="fill: #dc2626; stroke: #dc2626"/>
     <use xlink:href="#m7a143b1092" x="93.65251" y="346.191053" style="fill: #dc2626; stroke: #dc2626"/>
     <use xlink:href="#m7a143b1092" x="97.150943" y="345.619254" style="fill: #dc2626; stroke: #dc2626"/>
     <use xlink:href="#m7a143b1092" x="97.150943" y="344.475656" style="fill: #dc2626; stroke: #dc2626"/>
     <use xlink:href="#m7a143b1092" x="97.850629" y="342.760259" style="fill: #dc2626; stroke: #dc2626"/>
     <use xlink:href="#m7a143b1092" x="99.250002" y="341.616661" style="fill: #dc2626; stroke: #dc2626"/>
     <use xlink:href="#m7a143b1092" x="99.250002" y="340.473063" style="fill: #dc2626; stroke: #dc2626"/>
     <use xlink:href="#m7a143b1092" x="103.448122" y="337.614068" style="fill: #dc2626; stroke: #dc2626"/>
     <use xlink:href="#m7a143b1092" x="106.946554" y="335.898671" style="fill: #dc2626; stroke: #dc2626"/>
     <use xlink:href="#m7a143b1092" x="107.646241" y="330.180681" style="fill: #dc2626; stroke: #dc2626"/>
     <use xlink:href="#m7a143b1092" x="115.342792" y="329.608882" style="fill: #dc2626; stroke: #dc2626"/>
     <use xlink:href="#m7a143b1092" x="115.342792" y="327.321686" style="fill: #dc2626; stroke: #dc2626"/>
     <use xlink:href="#m7a143b1092" x="116.742165" y="326.178088" style="fill: #dc2626; stroke: #dc2626"/>
     <use xlink:href="#m7a143b1092" x="117.441852" y="322.747293" style="fill: #dc2626; stroke: #dc2626"/>
     <use xlink:href="#m7a143b1092" x="118.841225" y="321.603695" style="fill: #dc2626; stroke: #dc2626"/>
     <use xlink:href="#m7a143b1092" x="126.537777" y="315.885705" style="fill: #dc2626; stroke: #dc2626"/>
     <use xlink:href="#m7a143b1092" x="132.834955" y="314.170308" style="fill: #dc2626; stroke: #dc2626"/>
     <use xlink:href="#m7a143b1092" x="134.234328" y="311.311313" style="fill: #dc2626; stroke: #dc2626"/>
     <use xlink:href="#m7a143b1092" x="134.934015" y="305.593323" style="fill: #dc2626; stroke: #dc2626"/>
     <use xlink:href="#m7a143b1092" x="137.033075" y="302.162528" style="fill: #dc2626; stroke: #dc2626"/>
     <use xlink:href="#m7a143b1092" x="138.432448" y="301.590729" style="fill: #dc2626; stroke: #dc2626"/>
     <use xlink:href="#m7a143b1092" x="147.528372" y="299.875332" style="fill: #dc2626; stroke: #dc2626"/>
     <use xlink:href="#m7a143b1092" x="149.627432" y="295.872739" style="fill: #dc2626; stroke: #dc2626"/>
     <use xlink:href="#m7a143b1092" x="155.924611" y="294.729141" style="fill: #dc2626; stroke: #dc2626"/>
     <use xlink:href="#m7a143b1092" x="157.323984" y="292.441945" style="fill: #dc2626; stroke: #dc2626"/>
     <use xlink:href="#m7a143b1092" x="161.522103" y="288.439352" style="fill: #dc2626; stroke: #dc2626"/>
     <use xlink:href="#m7a143b1092" x="164.320849" y="285.008558" style="fill: #dc2626; stroke: #dc2626"/>
     <use xlink:href="#m7a143b1092" x="165.720222" y="282.721361" style="fill: #dc2626; stroke: #dc2626"/>
     <use xlink:href="#m7a143b1092" x="178.314579" y="275.859773" style="fill: #dc2626; stroke: #dc2626"/>
     <use xlink:href="#m7a143b1092" x="178.314579" y="274.716175" style="fill: #dc2626; stroke: #dc2626"/>
     <use xlink:href="#m7a143b1092" x="184.611758" y="273.572577" style="fill: #dc2626; stroke: #dc2626"/>
     <use xlink:href="#m7a143b1092" x="186.710817" y="271.285381" style="fill: #dc2626; stroke: #dc2626"/>
     <use xlink:href="#m7a143b1092" x="188.110191" y="266.710989" style="fill: #dc2626; stroke: #dc2626"/>
     <use xlink:href="#m7a143b1092" x="188.809877" y="263.851994" style="fill: #dc2626; stroke: #dc2626"/>
     <use xlink:href="#m7a143b1092" x="189.509564" y="262.708395" style="fill: #dc2626; stroke: #dc2626"/>
     <use xlink:href="#m7a143b1092" x="193.707683" y="262.136596" style="fill: #dc2626; stroke: #dc2626"/>
     <use xlink:href="#m7a143b1092" x="194.407369" y="261.564797" style="fill: #dc2626; stroke: #dc2626"/>
     <use xlink:href="#m7a143b1092" x="197.206115" y="260.992998" style="fill: #dc2626; stroke: #dc2626"/>
     <use xlink:href="#m7a143b1092" x="197.905802" y="260.421199" style="fill: #dc2626; stroke: #dc2626"/>
     <use xlink:href="#m7a143b1092" x="207.701413" y="258.134003" style="fill: #dc2626; stroke: #dc2626"/>
     <use xlink:href="#m7a143b1092" x="207.701413" y="257.562204" style="fill: #dc2626; stroke: #dc2626"/>
     <use xlink:href="#m7a143b1092" x="207.701413" y="256.990405" style="fill: #dc2626; stroke: #dc2626"/>
     <use xlink:href="#m7a143b1092" x="209.100786" y="256.418606" style="fill: #dc2626; stroke: #dc2626"/>
     <use xlink:href="#m7a143b1092" x="209.800473" y="255.846807" style="fill: #dc2626; stroke: #dc2626"/>
     <use xlink:href="#m7a143b1092" x="210.500159" y="255.275008" style="fill: #dc2626; stroke: #dc2626"/>
     <use xlink:href="#m7a143b1092" x="210.500159" y="254.703209" style="fill: #dc2626; stroke: #dc2626"/>
     <use xlink:href="#m7a143b1092" x="220.29577" y="252.416013" style="fill: #dc2626; stroke: #dc2626"/>
     <use xlink:href="#m7a143b1092" x="220.995457" y="251.844214" style="fill: #dc2626; stroke: #dc2626"/>
     <use xlink:href="#m7a143b1092" x="221.695144" y="251.272415" style="fill: #dc2626; stroke: #dc2626"/>
     <use xlink:href="#m7a143b1092" x="233.589814" y="250.700616" style="fill: #dc2626; stroke: #dc2626"/>
     <use xlink:href="#m7a143b1092" x="234.289501" y="248.985219" style="fill: #dc2626; stroke: #dc2626"/>
     <use xlink:href="#m7a143b1092" x="235.688874" y="247.841621" style="fill: #dc2626; stroke: #dc2626"/>
     <use xlink:href="#m7a143b1092" x="237.088247" y="247.269822" style="fill: #dc2626; stroke: #dc2626"/>
     <use xlink:href="#m7a143b1092" x="239.886993" y="246.698023" style="fill: #dc2626; stroke: #dc2626"/>
     <use xlink:href="#m7a143b1092" x="240.58668" y="246.126224" style="fill: #dc2626; stroke: #dc2626"/>
     <use xlink:href="#m7a143b1092" x="242.685739" y="245.554425" style="fill: #dc2626; stroke: #dc2626"/>
     <use xlink:href="#m7a143b1092" x="257.379156" y="244.982626" style="fill: #dc2626; stroke: #dc2626"/>
     <use xlink:href="#m7a143b1092" x="328.747181" y="244.410827" style="fill: #dc2626; stroke: #dc2626"/>
     <use xlink:href="#m7a143b1092" x="330.146554" y="243.839028" style="fill: #dc2626; stroke: #dc2626"/>
     <use xlink:href="#m7a143b1092" x="332.245614" y="243.267229" style="fill: #dc2626; stroke: #dc2626"/>
     <use xlink:href="#m7a143b1092" x="334.344673" y="242.695429" style="fill: #dc2626; stroke: #dc2626"/>
     <use xlink:href="#m7a143b1092" x="334.344673" y="242.12363" style="fill: #dc2626; stroke: #dc2626"/>
     <use xlink:href="#m7a143b1092" x="337.843106" y="241.551831" style="fill: #dc2626; stroke: #dc2626"/>
     <use xlink:href="#m7a143b1092" x="348.338404" y="240.980032" style="fill: #dc2626; stroke: #dc2626"/>
    </g>
   </g>
   <g id="patch_3">
    <path d="M 45.199219 395.28 
L 45.199219 7.2 
" style="fill: none; stroke: #cccccc; stroke-width: 1.25; stroke-linejoin: miter; stroke-linecap: square"/>
   </g>
   <g id="patch_4">
    <path d="M 603.199219 395.28 
L 603.199219 7.2 
" style="fill: none; stroke: #cccccc; stroke-width: 1.25; stroke-linejoin: miter; stroke-linecap: square"/>
   </g>
   <g id="patch_5">
    <path d="M 45.199219 395.28 
L 603.199219 395.28 
" style="fill: none; stroke: #cccccc; stroke-width: 1.25; stroke-linejoin: miter; stroke-linecap: square"/>
   </g>
   <g id="patch_6">
    <path d="M 45.199219 7.2 
L 603.199219 7.2 
" style="fill: none; stroke: #cccccc; stroke-width: 1.25; stroke-linejoin: miter; stroke-linecap: square"/>
   </g>
   <g id="legend_1">
    <g id="patch_7">
     <path d="M 364.359219 388.28 
L 593.399219 388.28 
Q 596.199219 388.28 596.199219 385.48 
L 596.199219 302.875625 
Q 596.199219 300.075625 593.399219 300.075625 
L 364.359219 300.075625 
Q 361.559219 300.075625 361.559219 302.875625 
L 361.559219 385.48 
Q 361.559219 388.28 364.359219 388.28 
z
" style="fill: #ffffff; opacity: 0.8; stroke: #cccccc; stroke-linejoin: miter"/>
    </g>
    <g id="line2d_18">
     <path d="M 367.159219 311.413437 
L 381.159219 311.413437 
L 395.159219 311.413437 
" style="fill: none; stroke: #2563eb; stroke-width: 2; stroke-linecap: round"/>
     <g>
      <use xlink:href="#m3d7b0cb93c" x="381.159219" y="311.413437" style="fill: #2563eb; stroke: #2563eb"/>
     </g>
    </g>
    <g id="text_18">
     <!-- DeepSeek V3 frontier -->
     <g style="fill: #262626" transform="translate(406.359219 316.313437) scale(0.14 -0.14)">
      <defs>
       <path id="DejaVuSans-27" d="M 1259 4147 
L 1259 519 
L 2022 519 
Q 2988 519 3436 956 
Q 3884 1394 3884 2338 
Q 3884 3275 3436 3711 
Q 2988 4147 2022 4147 
L 1259 4147 
z
M 628 4666 
L 1925 4666 
Q 3281 4666 3915 4102 
Q 4550 3538 4550 2338 
Q 4550 1131 3912 565 
Q 3275 0 1925 0 
L 628 0 
L 628 4666 
z
" transform="scale(0.015625)"/>
       <path id="DejaVuSans-53" d="M 1159 525 
L 1159 -1331 
L 581 -1331 
L 581 3500 
L 1159 3500 
L 1159 2969 
Q 1341 3281 1617 3432 
Q 1894 3584 2278 3584 
Q 2916 3584 3314 3078 
Q 3713 2572 3713 1747 
Q 3713 922 3314 415 
Q 2916 -91 2278 -91 
Q 1894 -91 1617 61 
Q 1341 213 1159 525 
z
M 3116 1747 
Q 3116 2381 2855 2742 
Q 2594 3103 2138 3103 
Q 1681 3103 1420 2742 
Q 1159 2381 1159 1747 
Q 1159 1113 1420 752 
Q 1681 391 2138 391 
Q 2594 391 2855 752 
Q 3116 1113 3116 1747 
z
" transform="scale(0.015625)"/>
       <path id="DejaVuSans-4e" d="M 581 4863 
L 1159 4863 
L 1159 1991 
L 2875 3500 
L 3609 3500 
L 1753 1863 
L 3688 0 
L 2938 0 
L 1159 1709 
L 1159 0 
L 581 0 
L 581 4863 
z
" transform="scale(0.015625)"/>
       <path id="DejaVuSans-39" d="M 1831 0 
L 50 4666 
L 709 4666 
L 2188 738 
L 3669 4666 
L 4325 4666 
L 2547 0 
L 1831 0 
z
" transform="scale(0.015625)"/>
       <path id="DejaVuSans-49" d="M 2375 4863 
L 2375 4384 
L 1825 4384 
Q 1516 4384 1395 4259 
Q 1275 4134 1275 3809 
L 1275 3500 
L 2222 3500 
L 2222 3053 
L 1275 3053 
L 1275 0 
L 697 0 
L 697 3053 
L 147 3053 
L 147 3500 
L 697 3500 
L 697 3744 
Q 697 4328 969 4595 
Q 1241 4863 1831 4863 
L 2375 4863 
z
" transform="scale(0.015625)"/>
       <path id="DejaVuSans-52" d="M 1959 3097 
Q 1497 3097 1228 2736 
Q 959 2375 959 1747 
Q 959 1119 1226 758 
Q 1494 397 1959 397 
Q 2419 397 2687 759 
Q 2956 1122 2956 1747 
Q 2956 2369 2687 2733 
Q 2419 3097 1959 3097 
z
M 1959 3584 
Q 2709 3584 3137 3096 
Q 3566 2609 3566 1747 
Q 3566 888 3137 398 
Q 2709 -91 1959 -91 
Q 1206 -91 779 398 
Q 353 888 353 1747 
Q 353 2609 779 3096 
Q 1206 3584 1959 3584 
z
" transform="scale(0.015625)"/>
       <path id="DejaVuSans-57" d="M 1172 4494 
L 1172 3500 
L 2356 3500 
L 2356 3053 
L 1172 3053 
L 1172 1153 
Q 1172 725 1289 603 
Q 1406 481 1766 481 
L 2356 481 
L 2356 0 
L 1766 0 
Q 1100 0 847 248 
Q 594 497 594 1153 
L 594 3053 
L 172 3053 
L 172 3500 
L 594 3500 
L 594 4494 
L 1172 4494 
z
" transform="scale(0.015625)"/>
      </defs>
      <use xlink:href="#DejaVuSans-27"/>
      <use xlink:href="#DejaVuSans-48" transform="translate(77 0)"/>
      <use xlink:href="#DejaVuSans-48" transform="translate(138.53125 0)"/>
      <use xlink:href="#DejaVuSans-53" transform="translate(200.0625 0)"/>
      <use xlink:href="#DejaVuSans-36" transform="translate(263.546875 0)"/>
      <use xlink:href="#DejaVuSans-48" transform="translate(327.03125 0)"/>
      <use xlink:href="#DejaVuSans-48" transform="translate(388.5625 0)"/>
      <use xlink:href="#DejaVuSans-4e" transform="translate(450.09375 0)"/>
      <use xlink:href="#DejaVuSans-3" transform="translate(508 0)"/>
      <use xlink:href="#DejaVuSans-39" transform="translate(539.78125 0)"/>
      <use xlink:href="#DejaVuSans-16" transform="translate(608.1875 0)"/>
      <use xlink:href="#DejaVuSans-3" transform="translate(671.8125 0)"/>
      <use xlink:href="#DejaVuSans-49" transform="translate(703.59375 0)"/>
      <use xlink:href="#DejaVuSans-55" transform="translate(738.796875 0)"/>
      <use xlink:href="#DejaVuSans-52" transform="translate(777.703125 0)"/>
      <use xlink:href="#DejaVuSans-51" transform="translate(838.890625 0)"/>
      <use xlink:href="#DejaVuSans-57" transform="translate(902.265625 0)"/>
      <use xlink:href="#DejaVuSans-4c" transform="translate(941.46875 0)"/>
      <use xlink:href="#DejaVuSans-48" transform="translate(969.25 0)"/>
      <use xlink:href="#DejaVuSans-55" transform="translate(1030.78125 0)"/>
     </g>
    </g>
    <g id="PathCollection_1">
     <defs>
      <path id="m3d8ae72dc9" d="M 0 -7.071068 
L -1.587554 -2.18508 
L -6.724985 -2.18508 
L -2.568716 0.834626 
L -4.156269 5.720614 
L -0 2.700907 
L 4.156269 5.720614 
L 2.568716 0.834626 
L 6.724985 -2.18508 
L 1.587554 -2.18508 
z
" style="stroke: #000000"/>
     </defs>
     <g>
      <use xlink:href="#m3d8ae72dc9" x="381.159219" y="333.639531" style="fill: #ff0000; stroke: #000000"/>
     </g>
    </g>
    <g id="text_19">
     <!-- DeepSeek V3 best (0.531) -->
     <g style="fill: #262626" transform="translate(406.359219 337.314531) scale(0.14 -0.14)">
      <defs>
       <path id="DejaVuSans-45" d="M 3116 1747 
Q 3116 2381 2855 2742 
Q 2594 3103 2138 3103 
Q 1681 3103 1420 2742 
Q 1159 2381 1159 1747 
Q 1159 1113 1420 752 
Q 1681 391 2138 391 
Q 2594 391 2855 752 
Q 3116 1113 3116 1747 
z
M 1159 2969 
Q 1341 3281 1617 3432 
Q 1894 3584 2278 3584 
Q 2916 3584 3314 3078 
Q 3713 2572 3713 1747 
Q 3713 922 3314 415 
Q 2916 -91 2278 -91 
Q 1894 -91 1617 61 
Q 1341 213 1159 525 
L 1159 0 
L 581 0 
L 581 4863 
L 1159 4863 
L 1159 2969 
z
" transform="scale(0.015625)"/>
       <path id="DejaVuSans-11" d="M 684 794 
L 1344 794 
L 1344 0 
L 684 0 
L 684 794 
z
" transform="scale(0.015625)"/>
      </defs>
      <use xlink:href="#DejaVuSans-27"/>
      <use xlink:href="#DejaVuSans-48" transform="translate(77 0)"/>
      <use xlink:href="#DejaVuSans-48" transform="translate(138.53125 0)"/>
      <use xlink:href="#DejaVuSans-53" transform="translate(200.0625 0)"/>
      <use xlink:href="#DejaVuSans-36" transform="translate(263.546875 0)"/>
      <use xlink:href="#DejaVuSans-48" transform="translate(327.03125 0)"/>
      <use xlink:href="#DejaVuSans-48" transform="translate(388.5625 0)"/>
      <use xlink:href="#DejaVuSans-4e" transform="translate(450.09375 0)"/>
      <use xlink:href="#DejaVuSans-3" transform="translate(508 0)"/>
      <use xlink:href="#DejaVuSans-39" transform="translate(539.78125 0)"/>
      <use xlink:href="#DejaVuSans-16" transform="translate(608.1875 0)"/>
      <use xlink:href="#DejaVuSans-3" transform="translate(671.8125 0)"/>
      <use xlink:href="#DejaVuSans-45" transform="translate(703.59375 0)"/>
      <use xlink:href="#DejaVuSans-48" transform="translate(767.078125 0)"/>
      <use xlink:href="#DejaVuSans-56" transform="translate(828.609375 0)"/>
      <use xlink:href="#DejaVuSans-57" transform="translate(880.703125 0)"/>
      <use xlink:href="#DejaVuSans-3" transform="translate(919.90625 0)"/>
      <use xlink:href="#DejaVuSans-b" transform="translate(951.6875 0)"/>
      <use xlink:href="#DejaVuSans-13" transform="translate(990.703125 0)"/>
      <use xlink:href="#DejaVuSans-11" transform="translate(1054.328125 0)"/>
      <use xlink:href="#DejaVuSans-18" transform="translate(1086.109375 0)"/>
      <use xlink:href="#DejaVuSans-16" transform="translate(1149.734375 0)"/>
      <use xlink:href="#DejaVuSans-14" transform="translate(1213.359375 0)"/>
      <use xlink:href="#DejaVuSans-c" transform="translate(1276.984375 0)"/>
     </g>
    </g>
    <g id="line2d_19">
     <path d="M 367.159219 353.415625 
L 381.159219 353.415625 
L 395.159219 353.415625 
" style="fill: none; stroke: #dc2626; stroke-width: 2; stroke-linecap: round"/>
     <g>
      <use xlink:href="#m7a143b1092" x="381.159219" y="353.415625" style="fill: #dc2626; stroke: #dc2626"/>
     </g>
    </g>
    <g id="text_20">
     <!-- Kimi K2 frontier -->
     <g style="fill: #262626" transform="translate(406.359219 358.315625) scale(0.14 -0.14)">
      <defs>
       <path id="DejaVuSans-2e" d="M 628 4666 
L 1259 4666 
L 1259 2694 
L 3353 4666 
L 4166 4666 
L 1850 2491 
L 4331 0 
L 3500 0 
L 1259 2247 
L 1259 0 
L 628 0 
L 628 4666 
z
" transform="scale(0.015625)"/>
      </defs>
      <use xlink:href="#DejaVuSans-2e"/>
      <use xlink:href="#DejaVuSans-4c" transform="translate(65.578125 0)"/>
      <use xlink:href="#DejaVuSans-50" transform="translate(93.359375 0)"/>
      <use xlink:href="#DejaVuSans-4c" transform="translate(190.765625 0)"/>
      <use xlink:href="#DejaVuSans-3" transform="translate(218.546875 0)"/>
      <use xlink:href="#DejaVuSans-2e" transform="translate(250.328125 0)"/>
      <use xlink:href="#DejaVuSans-15" transform="translate(315.90625 0)"/>
      <use xlink:href="#DejaVuSans-3" transform="translate(379.53125 0)"/>
      <use xlink:href="#DejaVuSans-49" transform="translate(411.3125 0)"/>
      <use xlink:href="#DejaVuSans-55" transform="translate(446.515625 0)"/>
      <use xlink:href="#DejaVuSans-52" transform="translate(485.421875 0)"/>
      <use xlink:href="#DejaVuSans-51" transform="translate(546.609375 0)"/>
      <use xlink:href="#DejaVuSans-57" transform="translate(609.984375 0)"/>
      <use xlink:href="#DejaVuSans-4c" transform="translate(649.1875 0)"/>
      <use xlink:href="#DejaVuSans-48" transform="translate(676.96875 0)"/>
      <use xlink:href="#DejaVuSans-55" transform="translate(738.5 0)"/>
     </g>
    </g>
    <g id="PathCollection_2">
     <g>
      <use xlink:href="#m3d8ae72dc9" x="381.159219" y="375.641719" style="fill: #ff0000; stroke: #000000"/>
     </g>
    </g>
    <g id="text_21">
     <!-- Kimi K2 best (0.512) -->
     <g style="fill: #262626" transform="translate(406.359219 379.316719) scale(0.14 -0.14)">
      <use xlink:href="#DejaVuSans-2e"/>
      <use xlink:href="#DejaVuSans-4c" transform="translate(65.578125 0)"/>
      <use xlink:href="#DejaVuSans-50" transform="translate(93.359375 0)"/>
      <use xlink:href="#DejaVuSans-4c" transform="translate(190.765625 0)"/>
      <use xlink:href="#DejaVuSans-3" transform="translate(218.546875 0)"/>
      <use xlink:href="#DejaVuSans-2e" transform="translate(250.328125 0)"/>
      <use xlink:href="#DejaVuSans-15" transform="translate(315.90625 0)"/>
      <use xlink:href="#DejaVuSans-3" transform="translate(379.53125 0)"/>
      <use xlink:href="#DejaVuSans-45" transform="translate(411.3125 0)"/>
      <use xlink:href="#DejaVuSans-48" transform="translate(474.796875 0)"/>
      <use xlink:href="#DejaVuSans-56" transform="translate(536.328125 0)"/>
      <use xlink:href="#DejaVuSans-57" transform="translate(588.421875 0)"/>
      <use xlink:href="#DejaVuSans-3" transform="translate(627.625 0)"/>
      <use xlink:href="#DejaVuSans-b" transform="translate(659.40625 0)"/>
      <use xlink:href="#DejaVuSans-13" transform="translate(698.421875 0)"/>
      <use xlink:href="#DejaVuSans-11" transform="translate(762.046875 0)"/>
      <use xlink:href="#DejaVuSans-18" transform="translate(793.828125 0)"/>
      <use xlink:href="#DejaVuSans-14" transform="translate(857.453125 0)"/>
      <use xlink:href="#DejaVuSans-15" transform="translate(921.078125 0)"/>
      <use xlink:href="#DejaVuSans-c" transform="translate(984.703125 0)"/>
     </g>
    </g>
   </g>
   <g id="PathCollection_3">
    <g clip-path="url(#p56d6c7002a)">
     <use xlink:href="#m3d8ae72dc9" x="577.835582" y="24.84" style="fill: #ff0000; stroke: #000000"/>
    </g>
   </g>
   <g id="PathCollection_4">
    <g clip-path="url(#p56d6c7002a)">
     <use xlink:href="#m3d8ae72dc9" x="351.13715" y="240.980032" style="fill: #ff0000; stroke: #000000"/>
    </g>
   </g>
  </g>
 </g>
 <defs>
  <clipPath id="p56d6c7002a">
   <rect x="45.199219" y="7.2" width="558" height="388.08"/>
  </clipPath>
 </defs>
</svg>
