<?xml version="1.0" encoding="utf-8" standalone="no"?>
<!DOCTYPE svg PUBLIC "-//W3C//DTD SVG 1.1//EN"
  "http://www.w3.org/Graphics/SVG/1.1/DTD/svg11.dtd">
<svg xmlns:xlink="http://www.w3.org/1999/xlink" width="620.903159pt" height="457.310969pt" viewBox="0 0 620.903159 457.310969" xmlns="http://www.w3.org/2000/svg" version="1.1">
 <metadata>
  <rdf:RDF xmlns:dc="http://purl.org/dc/elements/1.1/" xmlns:cc="http://creativecommons.org/ns#" xmlns:rdf="http://www.w3.org/1999/02/22-rdf-syntax-ns#">
   <cc:Work>
    <dc:type rdf:resource="http://purl.org/dc/dcmitype/StillImage"/>
    <dc:date>2026-07-14T16:56:57.797551</dc:date>
    <dc:format>image/svg+xml</dc:format>
    <dc:creator>
     <cc:Agent>
      <dc:title>Matplotlib v3.11.0, https://matplotlib.org/</dc:title>
     </cc:Agent>
    </dc:creator>
   </cc:Work>
  </rdf:RDF>
 </metadata>
 <defs>
  <style type="text/css">*{stroke-linejoin: round; stroke-linecap: butt}</style>
 </defs>
 <g id="figure_1">
  <g id="patch_1">
   <path d="M 0 457.310969 
L 620.903159 457.310969 
L 620.903159 0 
L 0 0 
z
" style="fill: #ffffff"/>
  </g>
  <g id="axes_1">
   <g id="patch_2">
    <path d="M 49.298281 411.309937 
L 607.298281 411.309937 
L 607.298281 23.229938 
L 49.298281 23.229938 
z
" style="fill: #ffffff"/>
   </g>
   <g id="matplotlib.axis_1">
    <g id="xtick_1">
     <g id="line2d_1">
      <path d="M 74.661918 411.309937 
L 74.661918 23.229938 
" clip-path="url(#p51c9181329)" style="fill: none; stroke: #cccccc; stroke-opacity: 0.3; stroke-linecap: round"/>
     </g>
     <g id="text_1">
      <!-- 0 -->
      <g style="fill: #262626" transform="translate(70.812605 430.003102) scale(0.121 -0.121)">
       <defs>
        <path id="DejaVuSans-13" d="M 2034 4250 
Q 1547 4250 1301 3770 
Q 1056 3291 1056 2328 
Q 1056 1369 1301 889 
Q 1547 409 2034 409 
Q 2525 409 2770 889 
Q 3016 1369 3016 2328 
Q 3016 3291 2770 3770 
Q 2525 4250 2034 4250 
z
M 2034 4750 
Q 2819 4750 3233 4129 
Q 3647 3509 3647 2328 
Q 3647 1150 3233 529 
Q 2819 -91 2034 -91 
Q 1250 -91 836 529 
Q 422 1150 422 2328 
Q 422 3509 836 4129 
Q 1250 4750 2034 4750 
z
" transform="scale(0.015625)"/>
       </defs>
       <use xlink:href="#DejaVuSans-13"/>
      </g>
     </g>
    </g>
    <g id="xtick_2">
     <g id="line2d_2">
      <path d="M 162.577468 411.309937 
L 162.577468 23.229938 
" clip-path="url(#p51c9181329)" style="fill: none; stroke: #cccccc; stroke-opacity: 0.3; stroke-linecap: round"/>
     </g>
     <g id="text_2">
      <!-- 20 -->
      <g style="fill: #262626" transform="translate(154.878843 430.003102) scale(0.121 -0.121)">
       <defs>
        <path id="DejaVuSans-15" d="M 1228 531 
L 3431 531 
L 3431 0 
L 469 0 
L 469 531 
Q 828 903 1448 1529 
Q 2069 2156 2228 2338 
Q 2531 2678 2651 2914 
Q 2772 3150 2772 3378 
Q 2772 3750 2511 3984 
Q 2250 4219 1831 4219 
Q 1534 4219 1204 4116 
Q 875 4013 500 3803 
L 500 4441 
Q 881 4594 1212 4672 
Q 1544 4750 1819 4750 
Q 2544 4750 2975 4387 
Q 3406 4025 3406 3419 
Q 3406 3131 3298 2873 
Q 3191 2616 2906 2266 
Q 2828 2175 2409 1742 
Q 1991 1309 1228 531 
z
" transform="scale(0.015625)"/>
       </defs>
       <use xlink:href="#DejaVuSans-15"/>
       <use xlink:href="#DejaVuSans-13" transform="translate(63.625 0)"/>
      </g>
     </g>
    </g>
    <g id="xtick_3">
     <g id="line2d_3">
      <path d="M 250.493019 411.309937 
L 250.493019 23.229938 
" clip-path="url(#p51c9181329)" style="fill: none; stroke: #cccccc; stroke-opacity: 0.3; stroke-linecap: round"/>
     </g>
     <g id="text_3">
      <!-- 40 -->
      <g style="fill: #262626" transform="translate(242.794394 430.003102) scale(0.121 -0.121)">
       <defs>
        <path id="DejaVuSans-17" d="M 2419 4116 
L 825 1625 
L 2419 1625 
L 2419 4116 
z
M 2253 4666 
L 3047 4666 
L 3047 1625 
L 3713 1625 
L 3713 1100 
L 3047 1100 
L 3047 0 
L 2419 0 
L 2419 1100 
L 313 1100 
L 313 1709 
L 2253 4666 
z
" transform="scale(0.015625)"/>
       </defs>
       <use xlink:href="#DejaVuSans-17"/>
       <use xlink:href="#DejaVuSans-13" transform="translate(63.625 0)"/>
      </g>
     </g>
    </g>
    <g id="xtick_4">
     <g id="line2d_4">
      <path d="M 338.40857 411.309937 
L 338.40857 23.229938 
" clip-path="url(#p51c9181329)" style="fill: none; stroke: #cccccc; stroke-opacity: 0.3; stroke-linecap: round"/>
     </g>
     <g id="text_4">
      <!-- 60 -->
      <g style="fill: #262626" transform="translate(330.709945 430.003102) scale(0.121 -0.121)">
       <defs>
        <path id="DejaVuSans-19" d="M 2113 2584 
Q 1688 2584 1439 2293 
Q 1191 2003 1191 1497 
Q 1191 994 1439 701 
Q 1688 409 2113 409 
Q 2538 409 2786 701 
Q 3034 994 3034 1497 
Q 3034 2003 2786 2293 
Q 2538 2584 2113 2584 
z
M 3366 4563 
L 3366 3988 
Q 3128 4100 2886 4159 
Q 2644 4219 2406 4219 
Q 1781 4219 1451 3797 
Q 1122 3375 1075 2522 
Q 1259 2794 1537 2939 
Q 1816 3084 2150 3084 
Q 2853 3084 3261 2657 
Q 3669 2231 3669 1497 
Q 3669 778 3244 343 
Q 2819 -91 2113 -91 
Q 1303 -91 875 529 
Q 447 1150 447 2328 
Q 447 3434 972 4092 
Q 1497 4750 2381 4750 
Q 2619 4750 2861 4703 
Q 3103 4656 3366 4563 
z
" transform="scale(0.015625)"/>
       </defs>
       <use xlink:href="#DejaVuSans-19"/>
       <use xlink:href="#DejaVuSans-13" transform="translate(63.625 0)"/>
      </g>
     </g>
    </g>
    <g id="xtick_5">
     <g id="line2d_5">
      <path d="M 426.32412 411.309937 
L 426.32412 23.229938 
" clip-path="url(#p51c9181329)" style="fill: none; stroke: #cccccc; stroke-opacity: 0.3; stroke-linecap: round"/>
     </g>
     <g id="text_5">
      <!-- 80 -->
      <g style="fill: #262626" transform="translate(418.625495 430.003102) scale(0.121 -0.121)">
       <defs>
        <path id="DejaVuSans-1b" d="M 2034 2216 
Q 1584 2216 1326 1975 
Q 1069 1734 1069 1313 
Q 1069 891 1326 650 
Q 1584 409 2034 409 
Q 2484 409 2743 651 
Q 3003 894 3003 1313 
Q 3003 1734 2745 1975 
Q 2488 2216 2034 2216 
z
M 1403 2484 
Q 997 2584 770 2862 
Q 544 3141 544 3541 
Q 544 4100 942 4425 
Q 1341 4750 2034 4750 
Q 2731 4750 3128 4425 
Q 3525 4100 3525 3541 
Q 3525 3141 3298 2862 
Q 3072 2584 2669 2484 
Q 3125 2378 3379 2068 
Q 3634 1759 3634 1313 
Q 3634 634 3220 271 
Q 2806 -91 2034 -91 
Q 1263 -91 848 271 
Q 434 634 434 1313 
Q 434 1759 690 2068 
Q 947 2378 1403 2484 
z
M 1172 3481 
Q 1172 3119 1398 2916 
Q 1625 2713 2034 2713 
Q 2441 2713 2670 2916 
Q 2900 3119 2900 3481 
Q 2900 3844 2670 4047 
Q 2441 4250 2034 4250 
Q 1625 4250 1398 4047 
Q 1172 3844 1172 3481 
z
" transform="scale(0.015625)"/>
       </defs>
       <use xlink:href="#DejaVuSans-1b"/>
       <use xlink:href="#DejaVuSans-13" transform="translate(63.625 0)"/>
      </g>
     </g>
    </g>
    <g id="xtick_6">
     <g id="line2d_6">
      <path d="M 514.239671 411.309937 
L 514.239671 23.229938 
" clip-path="url(#p51c9181329)" style="fill: none; stroke: #cccccc; stroke-opacity: 0.3; stroke-linecap: round"/>
     </g>
     <g id="text_6">
      <!-- 100 -->
      <g style="fill: #262626" transform="translate(502.691733 430.003102) scale(0.121 -0.121)">
       <defs>
        <path id="DejaVuSans-14" d="M 794 531 
L 1825 531 
L 1825 4091 
L 703 3866 
L 703 4441 
L 1819 4666 
L 2450 4666 
L 2450 531 
L 3481 531 
L 3481 0 
L 794 0 
L 794 531 
z
" transform="scale(0.015625)"/>
       </defs>
       <use xlink:href="#DejaVuSans-14"/>
       <use xlink:href="#DejaVuSans-13" transform="translate(63.625 0)"/>
       <use xlink:href="#DejaVuSans-13" transform="translate(127.25 0)"/>
      </g>
     </g>
    </g>
    <g id="xtick_7">
     <g id="line2d_7">
      <path d="M 602.155222 411.309937 
L 602.155222 23.229938 
" clip-path="url(#p51c9181329)" style="fill: none; stroke: #cccccc; stroke-opacity: 0.3; stroke-linecap: round"/>
     </g>
     <g id="text_7">
      <!-- 120 -->
      <g style="fill: #262626" transform="translate(590.607284 430.003102) scale(0.121 -0.121)">
       <use xlink:href="#DejaVuSans-14"/>
       <use xlink:href="#DejaVuSans-15" transform="translate(63.625 0)"/>
       <use xlink:href="#DejaVuSans-13" transform="translate(127.25 0)"/>
      </g>
     </g>
    </g>
    <g id="text_8">
     <!-- Time Overhead (%) -->
     <g style="fill: #262626" transform="translate(264.291687 446.939875) scale(0.132 -0.132)">
      <defs>
       <path id="DejaVuSans-37" d="M -19 4666 
L 3928 4666 
L 3928 4134 
L 2272 4134 
L 2272 0 
L 1638 0 
L 1638 4134 
L -19 4134 
L -19 4666 
z
" transform="scale(0.015625)"/>
       <path id="DejaVuSans-4c" d="M 603 3500 
L 1178 3500 
L 1178 0 
L 603 0 
L 603 3500 
z
M 603 4863 
L 1178 4863 
L 1178 4134 
L 603 4134 
L 603 4863 
z
" transform="scale(0.015625)"/>
       <path id="DejaVuSans-50" d="M 3328 2828 
Q 3544 3216 3844 3400 
Q 4144 3584 4550 3584 
Q 5097 3584 5394 3201 
Q 5691 2819 5691 2113 
L 5691 0 
L 5113 0 
L 5113 2094 
Q 5113 2597 4934 2840 
Q 4756 3084 4391 3084 
Q 3944 3084 3684 2787 
Q 3425 2491 3425 1978 
L 3425 0 
L 2847 0 
L 2847 2094 
Q 2847 2600 2669 2842 
Q 2491 3084 2119 3084 
Q 1678 3084 1418 2786 
Q 1159 2488 1159 1978 
L 1159 0 
L 581 0 
L 581 3500 
L 1159 3500 
L 1159 2956 
Q 1356 3278 1631 3431 
Q 1906 3584 2284 3584 
Q 2666 3584 2933 3390 
Q 3200 3197 3328 2828 
z
" transform="scale(0.015625)"/>
       <path id="DejaVuSans-48" d="M 3597 1894 
L 3597 1613 
L 953 1613 
Q 991 1019 1311 708 
Q 1631 397 2203 397 
Q 2534 397 2845 478 
Q 3156 559 3463 722 
L 3463 178 
Q 3153 47 2828 -22 
Q 2503 -91 2169 -91 
Q 1331 -91 842 396 
Q 353 884 353 1716 
Q 353 2575 817 3079 
Q 1281 3584 2069 3584 
Q 2775 3584 3186 3129 
Q 3597 2675 3597 1894 
z
M 3022 2063 
Q 3016 2534 2758 2815 
Q 2500 3097 2075 3097 
Q 1594 3097 1305 2825 
Q 1016 2553 972 2059 
L 3022 2063 
z
" transform="scale(0.015625)"/>
       <path id="DejaVuSans-3" transform="scale(0.015625)"/>
       <path id="DejaVuSans-32" d="M 2522 4238 
Q 1834 4238 1429 3725 
Q 1025 3213 1025 2328 
Q 1025 1447 1429 934 
Q 1834 422 2522 422 
Q 3209 422 3611 934 
Q 4013 1447 4013 2328 
Q 4013 3213 3611 3725 
Q 3209 4238 2522 4238 
z
M 2522 4750 
Q 3503 4750 4090 4092 
Q 4678 3434 4678 2328 
Q 4678 1225 4090 567 
Q 3503 -91 2522 -91 
Q 1538 -91 948 565 
Q 359 1222 359 2328 
Q 359 3434 948 4092 
Q 1538 4750 2522 4750 
z
" transform="scale(0.015625)"/>
       <path id="DejaVuSans-59" d="M 191 3500 
L 800 3500 
L 1894 563 
L 2988 3500 
L 3597 3500 
L 2284 0 
L 1503 0 
L 191 3500 
z
" transform="scale(0.015625)"/>
       <path id="DejaVuSans-55" d="M 2631 2963 
Q 2534 3019 2420 3045 
Q 2306 3072 2169 3072 
Q 1681 3072 1420 2755 
Q 1159 2438 1159 1844 
L 1159 0 
L 581 0 
L 581 3500 
L 1159 3500 
L 1159 2956 
Q 1341 3275 1631 3429 
Q 1922 3584 2338 3584 
Q 2397 3584 2469 3576 
Q 2541 3569 2628 3553 
L 2631 2963 
z
" transform="scale(0.015625)"/>
       <path id="DejaVuSans-4b" d="M 3513 2113 
L 3513 0 
L 2938 0 
L 2938 2094 
Q 2938 2591 2744 2837 
Q 2550 3084 2163 3084 
Q 1697 3084 1428 2787 
Q 1159 2491 1159 1978 
L 1159 0 
L 581 0 
L 581 4863 
L 1159 4863 
L 1159 2956 
Q 1366 3272 1645 3428 
Q 1925 3584 2291 3584 
Q 2894 3584 3203 3211 
Q 3513 2838 3513 2113 
z
" transform="scale(0.015625)"/>
       <path id="DejaVuSans-44" d="M 2194 1759 
Q 1497 1759 1228 1600 
Q 959 1441 959 1056 
Q 959 750 1161 570 
Q 1363 391 1709 391 
Q 2188 391 2477 730 
Q 2766 1069 2766 1631 
L 2766 1759 
L 2194 1759 
z
M 3341 1997 
L 3341 0 
L 2766 0 
L 2766 531 
Q 2569 213 2275 61 
Q 1981 -91 1556 -91 
Q 1019 -91 701 211 
Q 384 513 384 1019 
Q 384 1609 779 1909 
Q 1175 2209 1959 2209 
L 2766 2209 
L 2766 2266 
Q 2766 2663 2505 2880 
Q 2244 3097 1772 3097 
Q 1472 3097 1187 3025 
Q 903 2953 641 2809 
L 641 3341 
Q 956 3463 1253 3523 
Q 1550 3584 1831 3584 
Q 2591 3584 2966 3190 
Q 3341 2797 3341 1997 
z
" transform="scale(0.015625)"/>
       <path id="DejaVuSans-47" d="M 2906 2969 
L 2906 4863 
L 3481 4863 
L 3481 0 
L 2906 0 
L 2906 525 
Q 2725 213 2448 61 
Q 2172 -91 1784 -91 
Q 1150 -91 751 415 
Q 353 922 353 1747 
Q 353 2572 751 3078 
Q 1150 3584 1784 3584 
Q 2172 3584 2448 3432 
Q 2725 3281 2906 2969 
z
M 947 1747 
Q 947 1113 1208 752 
Q 1469 391 1925 391 
Q 2381 391 2643 752 
Q 2906 1113 2906 1747 
Q 2906 2381 2643 2742 
Q 2381 3103 1925 3103 
Q 1469 3103 1208 2742 
Q 947 2381 947 1747 
z
" transform="scale(0.015625)"/>
       <path id="DejaVuSans-b" d="M 1984 4856 
Q 1566 4138 1362 3434 
Q 1159 2731 1159 2009 
Q 1159 1288 1364 580 
Q 1569 -128 1984 -844 
L 1484 -844 
Q 1016 -109 783 600 
Q 550 1309 550 2009 
Q 550 2706 781 3412 
Q 1013 4119 1484 4856 
L 1984 4856 
z
" transform="scale(0.015625)"/>
       <path id="DejaVuSans-8" d="M 4653 2053 
Q 4381 2053 4226 1822 
Q 4072 1591 4072 1178 
Q 4072 772 4226 539 
Q 4381 306 4653 306 
Q 4919 306 5073 539 
Q 5228 772 5228 1178 
Q 5228 1588 5073 1820 
Q 4919 2053 4653 2053 
z
M 4653 2450 
Q 5147 2450 5437 2106 
Q 5728 1763 5728 1178 
Q 5728 594 5436 251 
Q 5144 -91 4653 -91 
Q 4153 -91 3862 251 
Q 3572 594 3572 1178 
Q 3572 1766 3864 2108 
Q 4156 2450 4653 2450 
z
M 1428 4353 
Q 1159 4353 1004 4120 
Q 850 3888 850 3481 
Q 850 3069 1003 2837 
Q 1156 2606 1428 2606 
Q 1700 2606 1854 2837 
Q 2009 3069 2009 3481 
Q 2009 3884 1853 4118 
Q 1697 4353 1428 4353 
z
M 4250 4750 
L 4750 4750 
L 1831 -91 
L 1331 -91 
L 4250 4750 
z
M 1428 4750 
Q 1922 4750 2215 4408 
Q 2509 4066 2509 3481 
Q 2509 2891 2217 2550 
Q 1925 2209 1428 2209 
Q 931 2209 642 2551 
Q 353 2894 353 3481 
Q 353 4063 643 4406 
Q 934 4750 1428 4750 
z
" transform="scale(0.015625)"/>
       <path id="DejaVuSans-c" d="M 513 4856 
L 1013 4856 
Q 1481 4119 1714 3412 
Q 1947 2706 1947 2009 
Q 1947 1309 1714 600 
Q 1481 -109 1013 -844 
L 513 -844 
Q 928 -128 1133 580 
Q 1338 1288 1338 2009 
Q 1338 2731 1133 3434 
Q 928 4138 513 4856 
z
" transform="scale(0.015625)"/>
      </defs>
      <use xlink:href="#DejaVuSans-37"/>
      <use xlink:href="#DejaVuSans-4c" transform="translate(58 0)"/>
      <use xlink:href="#DejaVuSans-50" transform="translate(85.78125 0)"/>
      <use xlink:href="#DejaVuSans-48" transform="translate(183.1875 0)"/>
      <use xlink:href="#DejaVuSans-3" transform="translate(244.71875 0)"/>
      <use xlink:href="#DejaVuSans-32" transform="translate(276.5 0)"/>
      <use xlink:href="#DejaVuSans-59" transform="translate(355.21875 0)"/>
      <use xlink:href="#DejaVuSans-48" transform="translate(414.40625 0)"/>
      <use xlink:href="#DejaVuSans-55" transform="translate(475.9375 0)"/>
      <use xlink:href="#DejaVuSans-4b" transform="translate(515.296875 0)"/>
      <use xlink:href="#DejaVuSans-48" transform="translate(578.671875 0)"/>
      <use xlink:href="#DejaVuSans-44" transform="translate(640.203125 0)"/>
      <use xlink:href="#DejaVuSans-47" transform="translate(701.484375 0)"/>
      <use xlink:href="#DejaVuSans-3" transform="translate(764.96875 0)"/>
      <use xlink:href="#DejaVuSans-b" transform="translate(796.75 0)"/>
      <use xlink:href="#DejaVuSans-8" transform="translate(835.765625 0)"/>
      <use xlink:href="#DejaVuSans-c" transform="translate(930.78125 0)"/>
     </g>
    </g>
   </g>
   <g id="matplotlib.axis_2">
    <g id="ytick_1">
     <g id="line2d_8">
      <path d="M 49.298281 393.669937 
L 607.298281 393.669937 
" clip-path="url(#p51c9181329)" style="fill: none; stroke: #cccccc; stroke-opacity: 0.3; stroke-linecap: round"/>
     </g>
     <g id="text_9">
      <!-- 0 -->
      <g style="fill: #262626" transform="translate(32.099656 398.26652) scale(0.121 -0.121)">
       <use xlink:href="#DejaVuSans-13"/>
      </g>
     </g>
    </g>
    <g id="ytick_2">
     <g id="line2d_9">
      <path d="M 49.298281 317.537007 
L 607.298281 317.537007 
" clip-path="url(#p51c9181329)" style="fill: none; stroke: #cccccc; stroke-opacity: 0.3; stroke-linecap: round"/>
     </g>
     <g id="text_10">
      <!-- 5 -->
      <g style="fill: #262626" transform="translate(32.099656 322.133589) scale(0.121 -0.121)">
       <defs>
        <path id="DejaVuSans-18" d="M 691 4666 
L 3169 4666 
L 3169 4134 
L 1269 4134 
L 1269 2991 
Q 1406 3038 1543 3061 
Q 1681 3084 1819 3084 
Q 2600 3084 3056 2656 
Q 3513 2228 3513 1497 
Q 3513 744 3044 326 
Q 2575 -91 1722 -91 
Q 1428 -91 1123 -41 
Q 819 9 494 109 
L 494 744 
Q 775 591 1075 516 
Q 1375 441 1709 441 
Q 2250 441 2565 725 
Q 2881 1009 2881 1497 
Q 2881 1984 2565 2268 
Q 2250 2553 1709 2553 
Q 1456 2553 1204 2497 
Q 953 2441 691 2322 
L 691 4666 
z
" transform="scale(0.015625)"/>
       </defs>
       <use xlink:href="#DejaVuSans-18"/>
      </g>
     </g>
    </g>
    <g id="ytick_3">
     <g id="line2d_10">
      <path d="M 49.298281 241.404076 
L 607.298281 241.404076 
" clip-path="url(#p51c9181329)" style="fill: none; stroke: #cccccc; stroke-opacity: 0.3; stroke-linecap: round"/>
     </g>
     <g id="text_11">
      <!-- 10 -->
      <g style="fill: #262626" transform="translate(24.401031 246.000659) scale(0.121 -0.121)">
       <use xlink:href="#DejaVuSans-14"/>
       <use xlink:href="#DejaVuSans-13" transform="translate(63.625 0)"/>
      </g>
     </g>
    </g>
    <g id="ytick_4">
     <g id="line2d_11">
      <path d="M 49.298281 165.271146 
L 607.298281 165.271146 
" clip-path="url(#p51c9181329)" style="fill: none; stroke: #cccccc; stroke-opacity: 0.3; stroke-linecap: round"/>
     </g>
     <g id="text_12">
      <!-- 15 -->
      <g style="fill: #262626" transform="translate(24.401031 169.867728) scale(0.121 -0.121)">
       <use xlink:href="#DejaVuSans-14"/>
       <use xlink:href="#DejaVuSans-18" transform="translate(63.625 0)"/>
      </g>
     </g>
    </g>
    <g id="ytick_5">
     <g id="line2d_12">
      <path d="M 49.298281 89.138215 
L 607.298281 89.138215 
" clip-path="url(#p51c9181329)" style="fill: none; stroke: #cccccc; stroke-opacity: 0.3; stroke-linecap: round"/>
     </g>
     <g id="text_13">
      <!-- 20 -->
      <g style="fill: #262626" transform="translate(24.401031 93.734797) scale(0.121 -0.121)">
       <use xlink:href="#DejaVuSans-15"/>
       <use xlink:href="#DejaVuSans-13" transform="translate(63.625 0)"/>
      </g>
     </g>
    </g>
    <g id="text_14">
     <!-- CO₂ Savings (%) -->
     <g style="fill: #262626" transform="translate(17.229937 271.121812) rotate(-90) scale(0.132 -0.132)">
      <defs>
       <path id="DejaVuSans-26" d="M 4122 4306 
L 4122 3641 
Q 3803 3938 3442 4084 
Q 3081 4231 2675 4231 
Q 1875 4231 1450 3742 
Q 1025 3253 1025 2328 
Q 1025 1406 1450 917 
Q 1875 428 2675 428 
Q 3081 428 3442 575 
Q 3803 722 4122 1019 
L 4122 359 
Q 3791 134 3420 21 
Q 3050 -91 2638 -91 
Q 1578 -91 968 557 
Q 359 1206 359 2328 
Q 359 3453 968 4101 
Q 1578 4750 2638 4750 
Q 3056 4750 3426 4639 
Q 3797 4528 4122 4306 
z
" transform="scale(0.015625)"/>
       <path id="DejaVuSans-b5d" d="M 838 356 
L 2163 356 
L 2163 0 
L 294 0 
L 294 343 
Q 400 440 597 615 
Q 1672 1568 1672 1862 
Q 1672 2068 1509 2194 
Q 1347 2321 1081 2321 
Q 919 2321 728 2266 
Q 538 2212 313 2103 
L 313 2487 
Q 553 2575 761 2618 
Q 969 2662 1147 2662 
Q 1600 2662 1872 2456 
Q 2144 2250 2144 1912 
Q 2144 1478 1109 590 
Q 934 440 838 356 
z
" transform="scale(0.015625)"/>
       <path id="DejaVuSans-36" d="M 3425 4513 
L 3425 3897 
Q 3066 4069 2747 4153 
Q 2428 4238 2131 4238 
Q 1616 4238 1336 4038 
Q 1056 3838 1056 3469 
Q 1056 3159 1242 3001 
Q 1428 2844 1947 2747 
L 2328 2669 
Q 3034 2534 3370 2195 
Q 3706 1856 3706 1288 
Q 3706 609 3251 259 
Q 2797 -91 1919 -91 
Q 1588 -91 1214 -16 
Q 841 59 441 206 
L 441 856 
Q 825 641 1194 531 
Q 1563 422 1919 422 
Q 2459 422 2753 634 
Q 3047 847 3047 1241 
Q 3047 1584 2836 1778 
Q 2625 1972 2144 2069 
L 1759 2144 
Q 1053 2284 737 2584 
Q 422 2884 422 3419 
Q 422 4038 858 4394 
Q 1294 4750 2059 4750 
Q 2388 4750 2728 4690 
Q 3069 4631 3425 4513 
z
" transform="scale(0.015625)"/>
       <path id="DejaVuSans-51" d="M 3513 2113 
L 3513 0 
L 2938 0 
L 2938 2094 
Q 2938 2591 2744 2837 
Q 2550 3084 2163 3084 
Q 1697 3084 1428 2787 
Q 1159 2491 1159 1978 
L 1159 0 
L 581 0 
L 581 3500 
L 1159 3500 
L 1159 2956 
Q 1366 3272 1645 3428 
Q 1925 3584 2291 3584 
Q 2894 3584 3203 3211 
Q 3513 2838 3513 2113 
z
" transform="scale(0.015625)"/>
       <path id="DejaVuSans-4a" d="M 2906 1791 
Q 2906 2416 2648 2759 
Q 2391 3103 1925 3103 
Q 1463 3103 1205 2759 
Q 947 2416 947 1791 
Q 947 1169 1205 825 
Q 1463 481 1925 481 
Q 2391 481 2648 825 
Q 2906 1169 2906 1791 
z
M 3481 434 
Q 3481 -459 3084 -895 
Q 2688 -1331 1869 -1331 
Q 1566 -1331 1297 -1286 
Q 1028 -1241 775 -1147 
L 775 -588 
Q 1028 -725 1275 -790 
Q 1522 -856 1778 -856 
Q 2344 -856 2625 -561 
Q 2906 -266 2906 331 
L 2906 616 
Q 2728 306 2450 153 
Q 2172 0 1784 0 
Q 1141 0 747 490 
Q 353 981 353 1791 
Q 353 2603 747 3093 
Q 1141 3584 1784 3584 
Q 2172 3584 2450 3431 
Q 2728 3278 2906 2969 
L 2906 3500 
L 3481 3500 
L 3481 434 
z
" transform="scale(0.015625)"/>
       <path id="DejaVuSans-56" d="M 2834 3397 
L 2834 2853 
Q 2591 2978 2328 3040 
Q 2066 3103 1784 3103 
Q 1356 3103 1142 2972 
Q 928 2841 928 2578 
Q 928 2378 1081 2264 
Q 1234 2150 1697 2047 
L 1894 2003 
Q 2506 1872 2764 1633 
Q 3022 1394 3022 966 
Q 3022 478 2636 193 
Q 2250 -91 1575 -91 
Q 1294 -91 989 -36 
Q 684 19 347 128 
L 347 722 
Q 666 556 975 473 
Q 1284 391 1588 391 
Q 1994 391 2212 530 
Q 2431 669 2431 922 
Q 2431 1156 2273 1281 
Q 2116 1406 1581 1522 
L 1381 1569 
Q 847 1681 609 1914 
Q 372 2147 372 2553 
Q 372 3047 722 3315 
Q 1072 3584 1716 3584 
Q 2034 3584 2315 3537 
Q 2597 3491 2834 3397 
z
" transform="scale(0.015625)"/>
      </defs>
      <use xlink:href="#DejaVuSans-26"/>
      <use xlink:href="#DejaVuSans-32" transform="translate(69.828125 0)"/>
      <use xlink:href="#DejaVuSans-b5d" transform="translate(148.546875 0)"/>
      <use xlink:href="#DejaVuSans-3" transform="translate(188.640625 0)"/>
      <use xlink:href="#DejaVuSans-36" transform="translate(220.421875 0)"/>
      <use xlink:href="#DejaVuSans-44" transform="translate(283.90625 0)"/>
      <use xlink:href="#DejaVuSans-59" transform="translate(345.1875 0)"/>
      <use xlink:href="#DejaVuSans-4c" transform="translate(404.375 0)"/>
      <use xlink:href="#DejaVuSans-51" transform="translate(432.15625 0)"/>
      <use xlink:href="#DejaVuSans-4a" transform="translate(495.53125 0)"/>
      <use xlink:href="#DejaVuSans-56" transform="translate(559.015625 0)"/>
      <use xlink:href="#DejaVuSans-3" transform="translate(611.109375 0)"/>
      <use xlink:href="#DejaVuSans-b" transform="translate(642.890625 0)"/>
      <use xlink:href="#DejaVuSans-8" transform="translate(681.90625 0)"/>
      <use xlink:href="#DejaVuSans-c" transform="translate(776.921875 0)"/>
     </g>
    </g>
   </g>
   <g id="line2d_13">
    <path d="M 74.661918 393.669937 
L 75.541073 390.472354 
L 76.420229 389.863291 
L 76.420229 388.492898 
L 76.859806 387.731569 
L 77.299384 382.706796 
L 78.618117 377.682022 
L 79.936851 376.159363 
L 80.816006 374.484439 
L 81.255584 372.657249 
L 82.574317 366.109817 
L 82.574317 364.89169 
L 83.453473 364.434892 
L 84.772206 350.121901 
L 87.409672 341.138215 
L 88.728406 337.179303 
L 90.486717 331.240934 
L 92.245028 328.195617 
L 92.684605 327.434288 
L 94.003339 322.56178 
L 94.442917 321.191388 
L 95.76165 319.973261 
L 97.080383 312.969031 
L 98.399116 312.207702 
L 99.278272 310.380512 
L 99.71785 305.355738 
L 101.476161 304.746675 
L 102.794894 302.005889 
L 103.234472 298.046977 
L 104.553205 296.067521 
L 106.311516 295.458457 
L 107.190671 289.215557 
L 107.630249 286.627037 
L 112.026027 282.059061 
L 112.905182 276.272959 
L 114.663493 272.466312 
L 119.059271 271.095919 
L 119.059271 264.548487 
L 123.894626 253.737611 
L 126.092515 252.519484 
L 131.807026 241.556342 
L 133.125759 235.00891 
L 144.994358 225.111629 
L 145.873514 224.654832 
L 145.873514 218.259666 
L 157.302535 213.843956 
L 159.940002 206.991992 
L 160.37958 202.576282 
L 163.456624 199.074167 
L 169.610712 190.851811 
L 176.643956 185.827037 
L 177.96269 181.563593 
L 180.600156 178.518276 
L 187.193822 173.341237 
L 192.468755 168.468729 
L 201.699888 159.637309 
L 208.293555 151.567218 
L 218.403843 139.995013 
L 228.953709 134.20891 
L 230.272442 133.143049 
L 232.909909 132.533986 
L 240.382731 124.616161 
L 252.690908 122.179907 
L 253.130485 117.916463 
L 257.086685 116.089273 
L 268.076129 114.71888 
L 275.109373 113.805285 
L 283.900928 102.689877 
L 297.527839 100.405889 
L 307.198549 93.706191 
L 339.287725 92.031267 
L 342.364769 87.920089 
L 364.343657 83.80891 
L 365.222813 80.611327 
L 369.61859 78.936403 
L 388.080856 77.870542 
L 395.993255 70.56178 
L 416.65341 68.886856 
L 422.36792 61.578095 
L 439.951031 61.425829 
L 443.028075 60.512234 
L 447.423852 57.923714 
L 447.423852 56.096524 
L 453.138363 54.269333 
L 463.688229 53.508004 
L 471.600629 51.833079 
L 472.919362 51.07175 
L 479.513028 48.940028 
L 486.98585 48.483231 
L 503.250227 46.65604 
L 505.008538 45.590179 
L 511.602204 45.437913 
L 526.987426 44.219786 
L 534.899825 41.326735 
L 541.933069 40.869937 
" clip-path="url(#p51c9181329)" style="fill: none; stroke: #2563eb; stroke-width: 2; stroke-linecap: round"/>
    <defs>
     <path id="mcf138fb5f7" d="M 0 2 
C 0.530406 2 1.03916 1.789267 1.414214 1.414214 
C 1.789267 1.03916 2 0.530406 2 0 
C 2 -0.530406 1.789267 -1.03916 1.414214 -1.414214 
C 1.03916 -1.789267 0.530406 -2 0 -2 
C -0.530406 -2 -1.03916 -1.789267 -1.414214 -1.414214 
C -1.789267 -1.03916 -2 -0.530406 -2 0 
C -2 0.530406 -1.789267 1.03916 -1.414214 1.414214 
C -1.03916 1.789267 -0.530406 2 0 2 
z
" style="stroke: #2563eb"/>
    </defs>
    <g clip-path="url(#p51c9181329)">
     <use xlink:href="#mcf138fb5f7" x="74.661918" y="393.669937" style="fill: #2563eb; stroke: #2563eb"/>
     <use xlink:href="#mcf138fb5f7" x="75.541073" y="390.472354" style="fill: #2563eb; stroke: #2563eb"/>
     <use xlink:href="#mcf138fb5f7" x="76.420229" y="389.863291" style="fill: #2563eb; stroke: #2563eb"/>
     <use xlink:href="#mcf138fb5f7" x="76.420229" y="388.492898" style="fill: #2563eb; stroke: #2563eb"/>
     <use xlink:href="#mcf138fb5f7" x="76.859806" y="387.731569" style="fill: #2563eb; stroke: #2563eb"/>
     <use xlink:href="#mcf138fb5f7" x="77.299384" y="382.706796" style="fill: #2563eb; stroke: #2563eb"/>
     <use xlink:href="#mcf138fb5f7" x="78.618117" y="377.682022" style="fill: #2563eb; stroke: #2563eb"/>
     <use xlink:href="#mcf138fb5f7" x="79.936851" y="376.159363" style="fill: #2563eb; stroke: #2563eb"/>
     <use xlink:href="#mcf138fb5f7" x="80.816006" y="374.484439" style="fill: #2563eb; stroke: #2563eb"/>
     <use xlink:href="#mcf138fb5f7" x="81.255584" y="372.657249" style="fill: #2563eb; stroke: #2563eb"/>
     <use xlink:href="#mcf138fb5f7" x="82.574317" y="366.109817" style="fill: #2563eb; stroke: #2563eb"/>
     <use xlink:href="#mcf138fb5f7" x="82.574317" y="364.89169" style="fill: #2563eb; stroke: #2563eb"/>
     <use xlink:href="#mcf138fb5f7" x="83.453473" y="364.434892" style="fill: #2563eb; stroke: #2563eb"/>
     <use xlink:href="#mcf138fb5f7" x="84.772206" y="350.121901" style="fill: #2563eb; stroke: #2563eb"/>
     <use xlink:href="#mcf138fb5f7" x="87.409672" y="341.138215" style="fill: #2563eb; stroke: #2563eb"/>
     <use xlink:href="#mcf138fb5f7" x="88.728406" y="337.179303" style="fill: #2563eb; stroke: #2563eb"/>
     <use xlink:href="#mcf138fb5f7" x="90.486717" y="331.240934" style="fill: #2563eb; stroke: #2563eb"/>
     <use xlink:href="#mcf138fb5f7" x="92.245028" y="328.195617" style="fill: #2563eb; stroke: #2563eb"/>
     <use xlink:href="#mcf138fb5f7" x="92.684605" y="327.434288" style="fill: #2563eb; stroke: #2563eb"/>
     <use xlink:href="#mcf138fb5f7" x="94.003339" y="322.56178" style="fill: #2563eb; stroke: #2563eb"/>
     <use xlink:href="#mcf138fb5f7" x="94.442917" y="321.191388" style="fill: #2563eb; stroke: #2563eb"/>
     <use xlink:href="#mcf138fb5f7" x="95.76165" y="319.973261" style="fill: #2563eb; stroke: #2563eb"/>
     <use xlink:href="#mcf138fb5f7" x="97.080383" y="312.969031" style="fill: #2563eb; stroke: #2563eb"/>
     <use xlink:href="#mcf138fb5f7" x="98.399116" y="312.207702" style="fill: #2563eb; stroke: #2563eb"/>
     <use xlink:href="#mcf138fb5f7" x="99.278272" y="310.380512" style="fill: #2563eb; stroke: #2563eb"/>
     <use xlink:href="#mcf138fb5f7" x="99.71785" y="305.355738" style="fill: #2563eb; stroke: #2563eb"/>
     <use xlink:href="#mcf138fb5f7" x="101.476161" y="304.746675" style="fill: #2563eb; stroke: #2563eb"/>
     <use xlink:href="#mcf138fb5f7" x="102.794894" y="302.005889" style="fill: #2563eb; stroke: #2563eb"/>
     <use xlink:href="#mcf138fb5f7" x="103.234472" y="298.046977" style="fill: #2563eb; stroke: #2563eb"/>
     <use xlink:href="#mcf138fb5f7" x="104.553205" y="296.067521" style="fill: #2563eb; stroke: #2563eb"/>
     <use xlink:href="#mcf138fb5f7" x="106.311516" y="295.458457" style="fill: #2563eb; stroke: #2563eb"/>
     <use xlink:href="#mcf138fb5f7" x="107.190671" y="289.215557" style="fill: #2563eb; stroke: #2563eb"/>
     <use xlink:href="#mcf138fb5f7" x="107.630249" y="286.627037" style="fill: #2563eb; stroke: #2563eb"/>
     <use xlink:href="#mcf138fb5f7" x="112.026027" y="282.059061" style="fill: #2563eb; stroke: #2563eb"/>
     <use xlink:href="#mcf138fb5f7" x="112.905182" y="276.272959" style="fill: #2563eb; stroke: #2563eb"/>
     <use xlink:href="#mcf138fb5f7" x="114.663493" y="272.466312" style="fill: #2563eb; stroke: #2563eb"/>
     <use xlink:href="#mcf138fb5f7" x="119.059271" y="271.095919" style="fill: #2563eb; stroke: #2563eb"/>
     <use xlink:href="#mcf138fb5f7" x="119.059271" y="264.548487" style="fill: #2563eb; stroke: #2563eb"/>
     <use xlink:href="#mcf138fb5f7" x="123.894626" y="253.737611" style="fill: #2563eb; stroke: #2563eb"/>
     <use xlink:href="#mcf138fb5f7" x="126.092515" y="252.519484" style="fill: #2563eb; stroke: #2563eb"/>
     <use xlink:href="#mcf138fb5f7" x="131.807026" y="241.556342" style="fill: #2563eb; stroke: #2563eb"/>
     <use xlink:href="#mcf138fb5f7" x="133.125759" y="235.00891" style="fill: #2563eb; stroke: #2563eb"/>
     <use xlink:href="#mcf138fb5f7" x="144.994358" y="225.111629" style="fill: #2563eb; stroke: #2563eb"/>
     <use xlink:href="#mcf138fb5f7" x="145.873514" y="224.654832" style="fill: #2563eb; stroke: #2563eb"/>
     <use xlink:href="#mcf138fb5f7" x="145.873514" y="218.259666" style="fill: #2563eb; stroke: #2563eb"/>
     <use xlink:href="#mcf138fb5f7" x="157.302535" y="213.843956" style="fill: #2563eb; stroke: #2563eb"/>
     <use xlink:href="#mcf138fb5f7" x="159.940002" y="206.991992" style="fill: #2563eb; stroke: #2563eb"/>
     <use xlink:href="#mcf138fb5f7" x="160.37958" y="202.576282" style="fill: #2563eb; stroke: #2563eb"/>
     <use xlink:href="#mcf138fb5f7" x="163.456624" y="199.074167" style="fill: #2563eb; stroke: #2563eb"/>
     <use xlink:href="#mcf138fb5f7" x="169.610712" y="190.851811" style="fill: #2563eb; stroke: #2563eb"/>
     <use xlink:href="#mcf138fb5f7" x="176.643956" y="185.827037" style="fill: #2563eb; stroke: #2563eb"/>
     <use xlink:href="#mcf138fb5f7" x="177.96269" y="181.563593" style="fill: #2563eb; stroke: #2563eb"/>
     <use xlink:href="#mcf138fb5f7" x="180.600156" y="178.518276" style="fill: #2563eb; stroke: #2563eb"/>
     <use xlink:href="#mcf138fb5f7" x="187.193822" y="173.341237" style="fill: #2563eb; stroke: #2563eb"/>
     <use xlink:href="#mcf138fb5f7" x="192.468755" y="168.468729" style="fill: #2563eb; stroke: #2563eb"/>
     <use xlink:href="#mcf138fb5f7" x="201.699888" y="159.637309" style="fill: #2563eb; stroke: #2563eb"/>
     <use xlink:href="#mcf138fb5f7" x="208.293555" y="151.567218" style="fill: #2563eb; stroke: #2563eb"/>
     <use xlink:href="#mcf138fb5f7" x="218.403843" y="139.995013" style="fill: #2563eb; stroke: #2563eb"/>
     <use xlink:href="#mcf138fb5f7" x="228.953709" y="134.20891" style="fill: #2563eb; stroke: #2563eb"/>
     <use xlink:href="#mcf138fb5f7" x="230.272442" y="133.143049" style="fill: #2563eb; stroke: #2563eb"/>
     <use xlink:href="#mcf138fb5f7" x="232.909909" y="132.533986" style="fill: #2563eb; stroke: #2563eb"/>
     <use xlink:href="#mcf138fb5f7" x="240.382731" y="124.616161" style="fill: #2563eb; stroke: #2563eb"/>
     <use xlink:href="#mcf138fb5f7" x="252.690908" y="122.179907" style="fill: #2563eb; stroke: #2563eb"/>
     <use xlink:href="#mcf138fb5f7" x="253.130485" y="117.916463" style="fill: #2563eb; stroke: #2563eb"/>
     <use xlink:href="#mcf138fb5f7" x="257.086685" y="116.089273" style="fill: #2563eb; stroke: #2563eb"/>
     <use xlink:href="#mcf138fb5f7" x="268.076129" y="114.71888" style="fill: #2563eb; stroke: #2563eb"/>
     <use xlink:href="#mcf138fb5f7" x="275.109373" y="113.805285" style="fill: #2563eb; stroke: #2563eb"/>
     <use xlink:href="#mcf138fb5f7" x="283.900928" y="102.689877" style="fill: #2563eb; stroke: #2563eb"/>
     <use xlink:href="#mcf138fb5f7" x="297.527839" y="100.405889" style="fill: #2563eb; stroke: #2563eb"/>
     <use xlink:href="#mcf138fb5f7" x="307.198549" y="93.706191" style="fill: #2563eb; stroke: #2563eb"/>
     <use xlink:href="#mcf138fb5f7" x="339.287725" y="92.031267" style="fill: #2563eb; stroke: #2563eb"/>
     <use xlink:href="#mcf138fb5f7" x="342.364769" y="87.920089" style="fill: #2563eb; stroke: #2563eb"/>
     <use xlink:href="#mcf138fb5f7" x="364.343657" y="83.80891" style="fill: #2563eb; stroke: #2563eb"/>
     <use xlink:href="#mcf138fb5f7" x="365.222813" y="80.611327" style="fill: #2563eb; stroke: #2563eb"/>
     <use xlink:href="#mcf138fb5f7" x="369.61859" y="78.936403" style="fill: #2563eb; stroke: #2563eb"/>
     <use xlink:href="#mcf138fb5f7" x="388.080856" y="77.870542" style="fill: #2563eb; stroke: #2563eb"/>
     <use xlink:href="#mcf138fb5f7" x="395.993255" y="70.56178" style="fill: #2563eb; stroke: #2563eb"/>
     <use xlink:href="#mcf138fb5f7" x="416.65341" y="68.886856" style="fill: #2563eb; stroke: #2563eb"/>
     <use xlink:href="#mcf138fb5f7" x="422.36792" y="61.578095" style="fill: #2563eb; stroke: #2563eb"/>
     <use xlink:href="#mcf138fb5f7" x="439.951031" y="61.425829" style="fill: #2563eb; stroke: #2563eb"/>
     <use xlink:href="#mcf138fb5f7" x="443.028075" y="60.512234" style="fill: #2563eb; stroke: #2563eb"/>
     <use xlink:href="#mcf138fb5f7" x="447.423852" y="57.923714" style="fill: #2563eb; stroke: #2563eb"/>
     <use xlink:href="#mcf138fb5f7" x="447.423852" y="56.096524" style="fill: #2563eb; stroke: #2563eb"/>
     <use xlink:href="#mcf138fb5f7" x="453.138363" y="54.269333" style="fill: #2563eb; stroke: #2563eb"/>
     <use xlink:href="#mcf138fb5f7" x="463.688229" y="53.508004" style="fill: #2563eb; stroke: #2563eb"/>
     <use xlink:href="#mcf138fb5f7" x="471.600629" y="51.833079" style="fill: #2563eb; stroke: #2563eb"/>
     <use xlink:href="#mcf138fb5f7" x="472.919362" y="51.07175" style="fill: #2563eb; stroke: #2563eb"/>
     <use xlink:href="#mcf138fb5f7" x="479.513028" y="48.940028" style="fill: #2563eb; stroke: #2563eb"/>
     <use xlink:href="#mcf138fb5f7" x="486.98585" y="48.483231" style="fill: #2563eb; stroke: #2563eb"/>
     <use xlink:href="#mcf138fb5f7" x="503.250227" y="46.65604" style="fill: #2563eb; stroke: #2563eb"/>
     <use xlink:href="#mcf138fb5f7" x="505.008538" y="45.590179" style="fill: #2563eb; stroke: #2563eb"/>
     <use xlink:href="#mcf138fb5f7" x="511.602204" y="45.437913" style="fill: #2563eb; stroke: #2563eb"/>
     <use xlink:href="#mcf138fb5f7" x="526.987426" y="44.219786" style="fill: #2563eb; stroke: #2563eb"/>
     <use xlink:href="#mcf138fb5f7" x="534.899825" y="41.326735" style="fill: #2563eb; stroke: #2563eb"/>
     <use xlink:href="#mcf138fb5f7" x="541.933069" y="40.869937" style="fill: #2563eb; stroke: #2563eb"/>
    </g>
   </g>
   <g id="line2d_14">
    <path d="M 74.661918 393.669937 
L 75.541073 390.472354 
L 75.541073 389.406493 
L 75.980651 388.340632 
L 76.859806 384.533986 
L 76.859806 384.229454 
L 77.738962 382.097732 
L 78.17854 381.184137 
L 78.618117 380.575073 
L 79.057695 379.509212 
L 80.376428 378.13882 
L 80.816006 376.159363 
L 81.255584 375.702566 
L 82.134739 372.657249 
L 83.89305 372.352717 
L 84.332628 368.698336 
L 85.211784 367.480209 
L 85.651361 359.71465 
L 86.530517 357.88746 
L 86.970095 346.162989 
L 87.409672 343.269937 
L 90.047139 339.920089 
L 90.926294 334.133986 
L 93.563761 327.891086 
L 94.442917 323.779907 
L 98.838694 321.648185 
L 99.278272 310.837309 
L 103.674049 300.940028 
L 109.38856 289.215557 
L 114.223915 279.318276 
L 117.30096 273.227641 
L 119.938426 270.030058 
L 123.894626 268.5074 
L 124.773781 265.462083 
L 127.411248 263.33036 
L 128.729981 262.569031 
L 132.686181 257.08746 
L 135.763225 255.869333 
L 136.202803 255.717067 
L 139.719425 253.280814 
L 141.477736 249.626433 
L 144.115203 249.01737 
L 148.071402 247.037913 
L 148.51098 246.581116 
L 155.104646 245.058457 
L 155.983802 243.535799 
L 157.742113 243.383533 
L 157.742113 242.622203 
L 158.621268 240.795013 
L 159.500424 239.120089 
L 159.940002 238.511025 
L 160.819157 237.749696 
L 165.214935 237.140632 
L 165.214935 234.856644 
L 167.412824 231.811327 
L 170.05029 231.506796 
L 170.489868 231.35453 
L 172.248179 229.070542 
L 174.446068 225.416161 
L 179.281423 225.111629 
L 180.600156 224.502566 
L 184.995934 220.086856 
L 186.314667 218.716463 
L 186.314667 217.650602 
L 189.831289 217.041539 
L 194.227067 215.214348 
L 196.864533 213.539424 
L 197.304111 212.93036 
L 198.622844 212.625829 
L 199.941577 211.10317 
L 199.941577 209.885043 
L 212.689332 206.078397 
L 212.689332 205.773865 
L 227.634976 204.86027 
L 228.074554 203.794409 
L 228.074554 203.337611 
L 228.514131 202.728548 
L 228.514131 202.424016 
L 569.626468 202.27175 
L 570.505623 202.119484 
L 577.09929 200.140028 
L 581.055489 198.312838 
L 581.934645 198.160572 
" clip-path="url(#p51c9181329)" style="fill: none; stroke: #dc2626; stroke-width: 2; stroke-linecap: round"/>
    <defs>
     <path id="m367a4e6882" d="M 0 2 
C 0.530406 2 1.03916 1.789267 1.414214 1.414214 
C 1.789267 1.03916 2 0.530406 2 0 
C 2 -0.530406 1.789267 -1.03916 1.414214 -1.414214 
C 1.03916 -1.789267 0.530406 -2 0 -2 
C -0.530406 -2 -1.03916 -1.789267 -1.414214 -1.414214 
C -1.789267 -1.03916 -2 -0.530406 -2 0 
C -2 0.530406 -1.789267 1.03916 -1.414214 1.414214 
C -1.03916 1.789267 -0.530406 2 0 2 
z
" style="stroke: #dc2626"/>
    </defs>
    <g clip-path="url(#p51c9181329)">
     <use xlink:href="#m367a4e6882" x="74.661918" y="393.669937" style="fill: #dc2626; stroke: #dc2626"/>
     <use xlink:href="#m367a4e6882" x="75.541073" y="390.472354" style="fill: #dc2626; stroke: #dc2626"/>
     <use xlink:href="#m367a4e6882" x="75.541073" y="389.406493" style="fill: #dc2626; stroke: #dc2626"/>
     <use xlink:href="#m367a4e6882" x="75.980651" y="388.340632" style="fill: #dc2626; stroke: #dc2626"/>
     <use xlink:href="#m367a4e6882" x="76.859806" y="384.533986" style="fill: #dc2626; stroke: #dc2626"/>
     <use xlink:href="#m367a4e6882" x="76.859806" y="384.229454" style="fill: #dc2626; stroke: #dc2626"/>
     <use xlink:href="#m367a4e6882" x="77.738962" y="382.097732" style="fill: #dc2626; stroke: #dc2626"/>
     <use xlink:href="#m367a4e6882" x="78.17854" y="381.184137" style="fill: #dc2626; stroke: #dc2626"/>
     <use xlink:href="#m367a4e6882" x="78.618117" y="380.575073" style="fill: #dc2626; stroke: #dc2626"/>
     <use xlink:href="#m367a4e6882" x="79.057695" y="379.509212" style="fill: #dc2626; stroke: #dc2626"/>
     <use xlink:href="#m367a4e6882" x="80.376428" y="378.13882" style="fill: #dc2626; stroke: #dc2626"/>
     <use xlink:href="#m367a4e6882" x="80.816006" y="376.159363" style="fill: #dc2626; stroke: #dc2626"/>
     <use xlink:href="#m367a4e6882" x="81.255584" y="375.702566" style="fill: #dc2626; stroke: #dc2626"/>
     <use xlink:href="#m367a4e6882" x="82.134739" y="372.657249" style="fill: #dc2626; stroke: #dc2626"/>
     <use xlink:href="#m367a4e6882" x="83.89305" y="372.352717" style="fill: #dc2626; stroke: #dc2626"/>
     <use xlink:href="#m367a4e6882" x="84.332628" y="368.698336" style="fill: #dc2626; stroke: #dc2626"/>
     <use xlink:href="#m367a4e6882" x="85.211784" y="367.480209" style="fill: #dc2626; stroke: #dc2626"/>
     <use xlink:href="#m367a4e6882" x="85.651361" y="359.71465" style="fill: #dc2626; stroke: #dc2626"/>
     <use xlink:href="#m367a4e6882" x="86.530517" y="357.88746" style="fill: #dc2626; stroke: #dc2626"/>
     <use xlink:href="#m367a4e6882" x="86.970095" y="346.162989" style="fill: #dc2626; stroke: #dc2626"/>
     <use xlink:href="#m367a4e6882" x="87.409672" y="343.269937" style="fill: #dc2626; stroke: #dc2626"/>
     <use xlink:href="#m367a4e6882" x="90.047139" y="339.920089" style="fill: #dc2626; stroke: #dc2626"/>
     <use xlink:href="#m367a4e6882" x="90.926294" y="334.133986" style="fill: #dc2626; stroke: #dc2626"/>
     <use xlink:href="#m367a4e6882" x="93.563761" y="327.891086" style="fill: #dc2626; stroke: #dc2626"/>
     <use xlink:href="#m367a4e6882" x="94.442917" y="323.779907" style="fill: #dc2626; stroke: #dc2626"/>
     <use xlink:href="#m367a4e6882" x="98.838694" y="321.648185" style="fill: #dc2626; stroke: #dc2626"/>
     <use xlink:href="#m367a4e6882" x="99.278272" y="310.837309" style="fill: #dc2626; stroke: #dc2626"/>
     <use xlink:href="#m367a4e6882" x="103.674049" y="300.940028" style="fill: #dc2626; stroke: #dc2626"/>
     <use xlink:href="#m367a4e6882" x="109.38856" y="289.215557" style="fill: #dc2626; stroke: #dc2626"/>
     <use xlink:href="#m367a4e6882" x="114.223915" y="279.318276" style="fill: #dc2626; stroke: #dc2626"/>
     <use xlink:href="#m367a4e6882" x="117.30096" y="273.227641" style="fill: #dc2626; stroke: #dc2626"/>
     <use xlink:href="#m367a4e6882" x="119.938426" y="270.030058" style="fill: #dc2626; stroke: #dc2626"/>
     <use xlink:href="#m367a4e6882" x="123.894626" y="268.5074" style="fill: #dc2626; stroke: #dc2626"/>
     <use xlink:href="#m367a4e6882" x="124.773781" y="265.462083" style="fill: #dc2626; stroke: #dc2626"/>
     <use xlink:href="#m367a4e6882" x="127.411248" y="263.33036" style="fill: #dc2626; stroke: #dc2626"/>
     <use xlink:href="#m367a4e6882" x="128.729981" y="262.569031" style="fill: #dc2626; stroke: #dc2626"/>
     <use xlink:href="#m367a4e6882" x="132.686181" y="257.08746" style="fill: #dc2626; stroke: #dc2626"/>
     <use xlink:href="#m367a4e6882" x="135.763225" y="255.869333" style="fill: #dc2626; stroke: #dc2626"/>
     <use xlink:href="#m367a4e6882" x="136.202803" y="255.717067" style="fill: #dc2626; stroke: #dc2626"/>
     <use xlink:href="#m367a4e6882" x="139.719425" y="253.280814" style="fill: #dc2626; stroke: #dc2626"/>
     <use xlink:href="#m367a4e6882" x="141.477736" y="249.626433" style="fill: #dc2626; stroke: #dc2626"/>
     <use xlink:href="#m367a4e6882" x="144.115203" y="249.01737" style="fill: #dc2626; stroke: #dc2626"/>
     <use xlink:href="#m367a4e6882" x="148.071402" y="247.037913" style="fill: #dc2626; stroke: #dc2626"/>
     <use xlink:href="#m367a4e6882" x="148.51098" y="246.581116" style="fill: #dc2626; stroke: #dc2626"/>
     <use xlink:href="#m367a4e6882" x="155.104646" y="245.058457" style="fill: #dc2626; stroke: #dc2626"/>
     <use xlink:href="#m367a4e6882" x="155.983802" y="243.535799" style="fill: #dc2626; stroke: #dc2626"/>
     <use xlink:href="#m367a4e6882" x="157.742113" y="243.383533" style="fill: #dc2626; stroke: #dc2626"/>
     <use xlink:href="#m367a4e6882" x="157.742113" y="242.622203" style="fill: #dc2626; stroke: #dc2626"/>
     <use xlink:href="#m367a4e6882" x="158.621268" y="240.795013" style="fill: #dc2626; stroke: #dc2626"/>
     <use xlink:href="#m367a4e6882" x="159.500424" y="239.120089" style="fill: #dc2626; stroke: #dc2626"/>
     <use xlink:href="#m367a4e6882" x="159.940002" y="238.511025" style="fill: #dc2626; stroke: #dc2626"/>
     <use xlink:href="#m367a4e6882" x="160.819157" y="237.749696" style="fill: #dc2626; stroke: #dc2626"/>
     <use xlink:href="#m367a4e6882" x="165.214935" y="237.140632" style="fill: #dc2626; stroke: #dc2626"/>
     <use xlink:href="#m367a4e6882" x="165.214935" y="234.856644" style="fill: #dc2626; stroke: #dc2626"/>
     <use xlink:href="#m367a4e6882" x="167.412824" y="231.811327" style="fill: #dc2626; stroke: #dc2626"/>
     <use xlink:href="#m367a4e6882" x="170.05029" y="231.506796" style="fill: #dc2626; stroke: #dc2626"/>
     <use xlink:href="#m367a4e6882" x="170.489868" y="231.35453" style="fill: #dc2626; stroke: #dc2626"/>
     <use xlink:href="#m367a4e6882" x="172.248179" y="229.070542" style="fill: #dc2626; stroke: #dc2626"/>
     <use xlink:href="#m367a4e6882" x="174.446068" y="225.416161" style="fill: #dc2626; stroke: #dc2626"/>
     <use xlink:href="#m367a4e6882" x="179.281423" y="225.111629" style="fill: #dc2626; stroke: #dc2626"/>
     <use xlink:href="#m367a4e6882" x="180.600156" y="224.502566" style="fill: #dc2626; stroke: #dc2626"/>
     <use xlink:href="#m367a4e6882" x="184.995934" y="220.086856" style="fill: #dc2626; stroke: #dc2626"/>
     <use xlink:href="#m367a4e6882" x="186.314667" y="218.716463" style="fill: #dc2626; stroke: #dc2626"/>
     <use xlink:href="#m367a4e6882" x="186.314667" y="217.650602" style="fill: #dc2626; stroke: #dc2626"/>
     <use xlink:href="#m367a4e6882" x="189.831289" y="217.041539" style="fill: #dc2626; stroke: #dc2626"/>
     <use xlink:href="#m367a4e6882" x="194.227067" y="215.214348" style="fill: #dc2626; stroke: #dc2626"/>
     <use xlink:href="#m367a4e6882" x="196.864533" y="213.539424" style="fill: #dc2626; stroke: #dc2626"/>
     <use xlink:href="#m367a4e6882" x="197.304111" y="212.93036" style="fill: #dc2626; stroke: #dc2626"/>
     <use xlink:href="#m367a4e6882" x="198.622844" y="212.625829" style="fill: #dc2626; stroke: #dc2626"/>
     <use xlink:href="#m367a4e6882" x="199.941577" y="211.10317" style="fill: #dc2626; stroke: #dc2626"/>
     <use xlink:href="#m367a4e6882" x="199.941577" y="209.885043" style="fill: #dc2626; stroke: #dc2626"/>
     <use xlink:href="#m367a4e6882" x="212.689332" y="206.078397" style="fill: #dc2626; stroke: #dc2626"/>
     <use xlink:href="#m367a4e6882" x="212.689332" y="205.773865" style="fill: #dc2626; stroke: #dc2626"/>
     <use xlink:href="#m367a4e6882" x="227.634976" y="204.86027" style="fill: #dc2626; stroke: #dc2626"/>
     <use xlink:href="#m367a4e6882" x="228.074554" y="203.794409" style="fill: #dc2626; stroke: #dc2626"/>
     <use xlink:href="#m367a4e6882" x="228.074554" y="203.337611" style="fill: #dc2626; stroke: #dc2626"/>
     <use xlink:href="#m367a4e6882" x="228.514131" y="202.728548" style="fill: #dc2626; stroke: #dc2626"/>
     <use xlink:href="#m367a4e6882" x="228.514131" y="202.424016" style="fill: #dc2626; stroke: #dc2626"/>
     <use xlink:href="#m367a4e6882" x="569.626468" y="202.27175" style="fill: #dc2626; stroke: #dc2626"/>
     <use xlink:href="#m367a4e6882" x="570.505623" y="202.119484" style="fill: #dc2626; stroke: #dc2626"/>
     <use xlink:href="#m367a4e6882" x="577.09929" y="200.140028" style="fill: #dc2626; stroke: #dc2626"/>
     <use xlink:href="#m367a4e6882" x="581.055489" y="198.312838" style="fill: #dc2626; stroke: #dc2626"/>
     <use xlink:href="#m367a4e6882" x="581.934645" y="198.160572" style="fill: #dc2626; stroke: #dc2626"/>
    </g>
   </g>
   <g id="patch_3">
    <path d="M 49.298281 411.309937 
L 49.298281 23.229937 
" style="fill: none; stroke: #cccccc; stroke-width: 1.25; stroke-linejoin: miter; stroke-linecap: square"/>
   </g>
   <g id="patch_4">
    <path d="M 607.298281 411.309937 
L 607.298281 23.229937 
" style="fill: none; stroke: #cccccc; stroke-width: 1.25; stroke-linejoin: miter; stroke-linecap: square"/>
   </g>
   <g id="patch_5">
    <path d="M 49.298281 411.309937 
L 607.298281 411.309937 
" style="fill: none; stroke: #cccccc; stroke-width: 1.25; stroke-linejoin: miter; stroke-linecap: square"/>
   </g>
   <g id="patch_6">
    <path d="M 49.298281 23.229938 
L 607.298281 23.229938 
" style="fill: none; stroke: #cccccc; stroke-width: 1.25; stroke-linejoin: miter; stroke-linecap: square"/>
   </g>
   <g id="text_15">
    <!-- Pareto Frontiers: CO₂ Savings vs Overhead — SE -->
    <g style="fill: #262626" transform="translate(168.891781 17.229938) scale(0.132 -0.132)">
     <defs>
      <path id="DejaVuSans-33" d="M 1259 4147 
L 1259 2394 
L 2053 2394 
Q 2494 2394 2734 2622 
Q 2975 2850 2975 3272 
Q 2975 3691 2734 3919 
Q 2494 4147 2053 4147 
L 1259 4147 
z
M 628 4666 
L 2053 4666 
Q 2838 4666 3239 4311 
Q 3641 3956 3641 3272 
Q 3641 2581 3239 2228 
Q 2838 1875 2053 1875 
L 1259 1875 
L 1259 0 
L 628 0 
L 628 4666 
z
" transform="scale(0.015625)"/>
      <path id="DejaVuSans-57" d="M 1172 4494 
L 1172 3500 
L 2356 3500 
L 2356 3053 
L 1172 3053 
L 1172 1153 
Q 1172 725 1289 603 
Q 1406 481 1766 481 
L 2356 481 
L 2356 0 
L 1766 0 
Q 1100 0 847 248 
Q 594 497 594 1153 
L 594 3053 
L 172 3053 
L 172 3500 
L 594 3500 
L 594 4494 
L 1172 4494 
z
" transform="scale(0.015625)"/>
      <path id="DejaVuSans-52" d="M 1959 3097 
Q 1497 3097 1228 2736 
Q 959 2375 959 1747 
Q 959 1119 1226 758 
Q 1494 397 1959 397 
Q 2419 397 2687 759 
Q 2956 1122 2956 1747 
Q 2956 2369 2687 2733 
Q 2419 3097 1959 3097 
z
M 1959 3584 
Q 2709 3584 3137 3096 
Q 3566 2609 3566 1747 
Q 3566 888 3137 398 
Q 2709 -91 1959 -91 
Q 1206 -91 779 398 
Q 353 888 353 1747 
Q 353 2609 779 3096 
Q 1206 3584 1959 3584 
z
" transform="scale(0.015625)"/>
      <path id="DejaVuSans-29" d="M 628 4666 
L 3309 4666 
L 3309 4134 
L 1259 4134 
L 1259 2759 
L 3109 2759 
L 3109 2228 
L 1259 2228 
L 1259 0 
L 628 0 
L 628 4666 
z
" transform="scale(0.015625)"/>
      <path id="DejaVuSans-1d" d="M 750 794 
L 1409 794 
L 1409 0 
L 750 0 
L 750 794 
z
M 750 3309 
L 1409 3309 
L 1409 2516 
L 750 2516 
L 750 3309 
z
" transform="scale(0.015625)"/>
      <path id="DejaVuSans-af6" d="M 313 1978 
L 6088 1978 
L 6088 1528 
L 313 1528 
L 313 1978 
z
" transform="scale(0.015625)"/>
      <path id="DejaVuSans-28" d="M 628 4666 
L 3578 4666 
L 3578 4134 
L 1259 4134 
L 1259 2753 
L 3481 2753 
L 3481 2222 
L 1259 2222 
L 1259 531 
L 3634 531 
L 3634 0 
L 628 0 
L 628 4666 
z
" transform="scale(0.015625)"/>
     </defs>
     <use xlink:href="#DejaVuSans-33"/>
     <use xlink:href="#DejaVuSans-44" transform="translate(55.8125 0)"/>
     <use xlink:href="#DejaVuSans-55" transform="translate(117.09375 0)"/>
     <use xlink:href="#DejaVuSans-48" transform="translate(156 0)"/>
     <use xlink:href="#DejaVuSans-57" transform="translate(217.53125 0)"/>
     <use xlink:href="#DejaVuSans-52" transform="translate(256.734375 0)"/>
     <use xlink:href="#DejaVuSans-3" transform="translate(317.921875 0)"/>
     <use xlink:href="#DejaVuSans-29" transform="translate(349.703125 0)"/>
     <use xlink:href="#DejaVuSans-55" transform="translate(399.9375 0)"/>
     <use xlink:href="#DejaVuSans-52" transform="translate(438.84375 0)"/>
     <use xlink:href="#DejaVuSans-51" transform="translate(500.03125 0)"/>
     <use xlink:href="#DejaVuSans-57" transform="translate(563.40625 0)"/>
     <use xlink:href="#DejaVuSans-4c" transform="translate(602.609375 0)"/>
     <use xlink:href="#DejaVuSans-48" transform="translate(630.390625 0)"/>
     <use xlink:href="#DejaVuSans-55" transform="translate(691.921875 0)"/>
     <use xlink:href="#DejaVuSans-56" transform="translate(733.03125 0)"/>
     <use xlink:href="#DejaVuSans-1d" transform="translate(785.125 0)"/>
     <use xlink:href="#DejaVuSans-3" transform="translate(818.8125 0)"/>
     <use xlink:href="#DejaVuSans-26" transform="translate(850.59375 0)"/>
     <use xlink:href="#DejaVuSans-32" transform="translate(920.421875 0)"/>
     <use xlink:href="#DejaVuSans-b5d" transform="translate(999.140625 0)"/>
     <use xlink:href="#DejaVuSans-3" transform="translate(1039.234375 0)"/>
     <use xlink:href="#DejaVuSans-36" transform="translate(1071.015625 0)"/>
     <use xlink:href="#DejaVuSans-44" transform="translate(1134.5 0)"/>
     <use xlink:href="#DejaVuSans-59" transform="translate(1195.78125 0)"/>
     <use xlink:href="#DejaVuSans-4c" transform="translate(1254.96875 0)"/>
     <use xlink:href="#DejaVuSans-51" transform="translate(1282.75 0)"/>
     <use xlink:href="#DejaVuSans-4a" transform="translate(1346.125 0)"/>
     <use xlink:href="#DejaVuSans-56" transform="translate(1409.609375 0)"/>
     <use xlink:href="#DejaVuSans-3" transform="translate(1461.703125 0)"/>
     <use xlink:href="#DejaVuSans-59" transform="translate(1493.484375 0)"/>
     <use xlink:href="#DejaVuSans-56" transform="translate(1552.671875 0)"/>
     <use xlink:href="#DejaVuSans-3" transform="translate(1604.765625 0)"/>
     <use xlink:href="#DejaVuSans-32" transform="translate(1636.546875 0)"/>
     <use xlink:href="#DejaVuSans-59" transform="translate(1715.265625 0)"/>
     <use xlink:href="#DejaVuSans-48" transform="translate(1774.453125 0)"/>
     <use xlink:href="#DejaVuSans-55" transform="translate(1835.984375 0)"/>
     <use xlink:href="#DejaVuSans-4b" transform="translate(1875.34375 0)"/>
     <use xlink:href="#DejaVuSans-48" transform="translate(1938.71875 0)"/>
     <use xlink:href="#DejaVuSans-44" transform="translate(2000.25 0)"/>
     <use xlink:href="#DejaVuSans-47" transform="translate(2061.53125 0)"/>
     <use xlink:href="#DejaVuSans-3" transform="translate(2125.015625 0)"/>
     <use xlink:href="#DejaVuSans-af6" transform="translate(2156.796875 0)"/>
     <use xlink:href="#DejaVuSans-3" transform="translate(2256.796875 0)"/>
     <use xlink:href="#DejaVuSans-36" transform="translate(2288.578125 0)"/>
     <use xlink:href="#DejaVuSans-28" transform="translate(2352.0625 0)"/>
    </g>
   </g>
   <g id="legend_1">
    <g id="patch_7">
     <path d="M 453.758281 406.809937 
L 600.998281 406.809937 
Q 602.798281 406.809937 602.798281 405.009937 
L 602.798281 351.907125 
Q 602.798281 350.107125 600.998281 350.107125 
L 453.758281 350.107125 
Q 451.958281 350.107125 451.958281 351.907125 
L 451.958281 405.009937 
Q 451.958281 406.809937 453.758281 406.809937 
z
" style="fill: #ffffff; opacity: 0.8; stroke: #cccccc; stroke-linejoin: miter"/>
    </g>
    <g id="line2d_15">
     <path d="M 455.558281 357.395719 
L 464.558281 357.395719 
L 473.558281 357.395719 
" style="fill: none; stroke: #2563eb; stroke-width: 2; stroke-linecap: round"/>
     <g>
      <use xlink:href="#mcf138fb5f7" x="464.558281" y="357.395719" style="fill: #2563eb; stroke: #2563eb"/>
     </g>
    </g>
    <g id="text_16">
     <!-- DeepSeek V3 frontier -->
     <g style="fill: #262626" transform="translate(480.758281 360.545719) scale(0.09 -0.09)">
      <defs>
       <path id="DejaVuSans-27" d="M 1259 4147 
L 1259 519 
L 2022 519 
Q 2988 519 3436 956 
Q 3884 1394 3884 2338 
Q 3884 3275 3436 3711 
Q 2988 4147 2022 4147 
L 1259 4147 
z
M 628 4666 
L 1925 4666 
Q 3281 4666 3915 4102 
Q 4550 3538 4550 2338 
Q 4550 1131 3912 565 
Q 3275 0 1925 0 
L 628 0 
L 628 4666 
z
" transform="scale(0.015625)"/>
       <path id="DejaVuSans-53" d="M 1159 525 
L 1159 -1331 
L 581 -1331 
L 581 3500 
L 1159 3500 
L 1159 2969 
Q 1341 3281 1617 3432 
Q 1894 3584 2278 3584 
Q 2916 3584 3314 3078 
Q 3713 2572 3713 1747 
Q 3713 922 3314 415 
Q 2916 -91 2278 -91 
Q 1894 -91 1617 61 
Q 1341 213 1159 525 
z
M 3116 1747 
Q 3116 2381 2855 2742 
Q 2594 3103 2138 3103 
Q 1681 3103 1420 2742 
Q 1159 2381 1159 1747 
Q 1159 1113 1420 752 
Q 1681 391 2138 391 
Q 2594 391 2855 752 
Q 3116 1113 3116 1747 
z
" transform="scale(0.015625)"/>
       <path id="DejaVuSans-4e" d="M 581 4863 
L 1159 4863 
L 1159 1991 
L 2875 3500 
L 3609 3500 
L 1753 1863 
L 3688 0 
L 2938 0 
L 1159 1709 
L 1159 0 
L 581 0 
L 581 4863 
z
" transform="scale(0.015625)"/>
       <path id="DejaVuSans-39" d="M 1831 0 
L 50 4666 
L 709 4666 
L 2188 738 
L 3669 4666 
L 4325 4666 
L 2547 0 
L 1831 0 
z
" transform="scale(0.015625)"/>
       <path id="DejaVuSans-16" d="M 2597 2516 
Q 3050 2419 3304 2112 
Q 3559 1806 3559 1356 
Q 3559 666 3084 287 
Q 2609 -91 1734 -91 
Q 1441 -91 1130 -33 
Q 819 25 488 141 
L 488 750 
Q 750 597 1062 519 
Q 1375 441 1716 441 
Q 2309 441 2620 675 
Q 2931 909 2931 1356 
Q 2931 1769 2642 2001 
Q 2353 2234 1838 2234 
L 1294 2234 
L 1294 2753 
L 1863 2753 
Q 2328 2753 2575 2939 
Q 2822 3125 2822 3475 
Q 2822 3834 2567 4026 
Q 2313 4219 1838 4219 
Q 1578 4219 1281 4162 
Q 984 4106 628 3988 
L 628 4550 
Q 988 4650 1302 4700 
Q 1616 4750 1894 4750 
Q 2613 4750 3031 4423 
Q 3450 4097 3450 3541 
Q 3450 3153 3228 2886 
Q 3006 2619 2597 2516 
z
" transform="scale(0.015625)"/>
       <path id="DejaVuSans-49" d="M 2375 4863 
L 2375 4384 
L 1825 4384 
Q 1516 4384 1395 4259 
Q 1275 4134 1275 3809 
L 1275 3500 
L 2222 3500 
L 2222 3053 
L 1275 3053 
L 1275 0 
L 697 0 
L 697 3053 
L 147 3053 
L 147 3500 
L 697 3500 
L 697 3744 
Q 697 4328 969 4595 
Q 1241 4863 1831 4863 
L 2375 4863 
z
" transform="scale(0.015625)"/>
      </defs>
      <use xlink:href="#DejaVuSans-27"/>
      <use xlink:href="#DejaVuSans-48" transform="translate(77 0)"/>
      <use xlink:href="#DejaVuSans-48" transform="translate(138.53125 0)"/>
      <use xlink:href="#DejaVuSans-53" transform="translate(200.0625 0)"/>
      <use xlink:href="#DejaVuSans-36" transform="translate(263.546875 0)"/>
      <use xlink:href="#DejaVuSans-48" transform="translate(327.03125 0)"/>
      <use xlink:href="#DejaVuSans-48" transform="translate(388.5625 0)"/>
      <use xlink:href="#DejaVuSans-4e" transform="translate(450.09375 0)"/>
      <use xlink:href="#DejaVuSans-3" transform="translate(508 0)"/>
      <use xlink:href="#DejaVuSans-39" transform="translate(539.78125 0)"/>
      <use xlink:href="#DejaVuSans-16" transform="translate(608.1875 0)"/>
      <use xlink:href="#DejaVuSans-3" transform="translate(671.8125 0)"/>
      <use xlink:href="#DejaVuSans-49" transform="translate(703.59375 0)"/>
      <use xlink:href="#DejaVuSans-55" transform="translate(738.796875 0)"/>
      <use xlink:href="#DejaVuSans-52" transform="translate(777.703125 0)"/>
      <use xlink:href="#DejaVuSans-51" transform="translate(838.890625 0)"/>
      <use xlink:href="#DejaVuSans-57" transform="translate(902.265625 0)"/>
      <use xlink:href="#DejaVuSans-4c" transform="translate(941.46875 0)"/>
      <use xlink:href="#DejaVuSans-48" transform="translate(969.25 0)"/>
      <use xlink:href="#DejaVuSans-55" transform="translate(1030.78125 0)"/>
     </g>
    </g>
    <g id="PathCollection_1">
     <defs>
      <path id="me053028252" d="M 0 -7.071068 
L -1.587554 -2.18508 
L -6.724985 -2.18508 
L -2.568716 0.834626 
L -4.156269 5.720614 
L -0 2.700907 
L 4.156269 5.720614 
L 2.568716 0.834626 
L 6.724985 -2.18508 
L 1.587554 -2.18508 
z
" style="stroke: #000000"/>
     </defs>
     <g>
      <use xlink:href="#me053028252" x="464.558281" y="371.683922" style="fill: #ff0000; stroke: #000000"/>
     </g>
    </g>
    <g id="text_17">
     <!-- DeepSeek V3 best (0.616) -->
     <g style="fill: #262626" transform="translate(480.758281 374.046422) scale(0.09 -0.09)">
      <defs>
       <path id="DejaVuSans-45" d="M 3116 1747 
Q 3116 2381 2855 2742 
Q 2594 3103 2138 3103 
Q 1681 3103 1420 2742 
Q 1159 2381 1159 1747 
Q 1159 1113 1420 752 
Q 1681 391 2138 391 
Q 2594 391 2855 752 
Q 3116 1113 3116 1747 
z
M 1159 2969 
Q 1341 3281 1617 3432 
Q 1894 3584 2278 3584 
Q 2916 3584 3314 3078 
Q 3713 2572 3713 1747 
Q 3713 922 3314 415 
Q 2916 -91 2278 -91 
Q 1894 -91 1617 61 
Q 1341 213 1159 525 
L 1159 0 
L 581 0 
L 581 4863 
L 1159 4863 
L 1159 2969 
z
" transform="scale(0.015625)"/>
       <path id="DejaVuSans-11" d="M 684 794 
L 1344 794 
L 1344 0 
L 684 0 
L 684 794 
z
" transform="scale(0.015625)"/>
      </defs>
      <use xlink:href="#DejaVuSans-27"/>
      <use xlink:href="#DejaVuSans-48" transform="translate(77 0)"/>
      <use xlink:href="#DejaVuSans-48" transform="translate(138.53125 0)"/>
      <use xlink:href="#DejaVuSans-53" transform="translate(200.0625 0)"/>
      <use xlink:href="#DejaVuSans-36" transform="translate(263.546875 0)"/>
      <use xlink:href="#DejaVuSans-48" transform="translate(327.03125 0)"/>
      <use xlink:href="#DejaVuSans-48" transform="translate(388.5625 0)"/>
      <use xlink:href="#DejaVuSans-4e" transform="translate(450.09375 0)"/>
      <use xlink:href="#DejaVuSans-3" transform="translate(508 0)"/>
      <use xlink:href="#DejaVuSans-39" transform="translate(539.78125 0)"/>
      <use xlink:href="#DejaVuSans-16" transform="translate(608.1875 0)"/>
      <use xlink:href="#DejaVuSans-3" transform="translate(671.8125 0)"/>
      <use xlink:href="#DejaVuSans-45" transform="translate(703.59375 0)"/>
      <use xlink:href="#DejaVuSans-48" transform="translate(767.078125 0)"/>
      <use xlink:href="#DejaVuSans-56" transform="translate(828.609375 0)"/>
      <use xlink:href="#DejaVuSans-57" transform="translate(880.703125 0)"/>
      <use xlink:href="#DejaVuSans-3" transform="translate(919.90625 0)"/>
      <use xlink:href="#DejaVuSans-b" transform="translate(951.6875 0)"/>
      <use xlink:href="#DejaVuSans-13" transform="translate(990.703125 0)"/>
      <use xlink:href="#DejaVuSans-11" transform="translate(1054.328125 0)"/>
      <use xlink:href="#DejaVuSans-19" transform="translate(1086.109375 0)"/>
      <use xlink:href="#DejaVuSans-14" transform="translate(1149.734375 0)"/>
      <use xlink:href="#DejaVuSans-19" transform="translate(1213.359375 0)"/>
      <use xlink:href="#DejaVuSans-c" transform="translate(1276.984375 0)"/>
     </g>
    </g>
    <g id="line2d_16">
     <path d="M 455.558281 384.397125 
L 464.558281 384.397125 
L 473.558281 384.397125 
" style="fill: none; stroke: #dc2626; stroke-width: 2; stroke-linecap: round"/>
     <g>
      <use xlink:href="#m367a4e6882" x="464.558281" y="384.397125" style="fill: #dc2626; stroke: #dc2626"/>
     </g>
    </g>
    <g id="text_18">
     <!-- Kimi K2 frontier -->
     <g style="fill: #262626" transform="translate(480.758281 387.547125) scale(0.09 -0.09)">
      <defs>
       <path id="DejaVuSans-2e" d="M 628 4666 
L 1259 4666 
L 1259 2694 
L 3353 4666 
L 4166 4666 
L 1850 2491 
L 4331 0 
L 3500 0 
L 1259 2247 
L 1259 0 
L 628 0 
L 628 4666 
z
" transform="scale(0.015625)"/>
      </defs>
      <use xlink:href="#DejaVuSans-2e"/>
      <use xlink:href="#DejaVuSans-4c" transform="translate(65.578125 0)"/>
      <use xlink:href="#DejaVuSans-50" transform="translate(93.359375 0)"/>
      <use xlink:href="#DejaVuSans-4c" transform="translate(190.765625 0)"/>
      <use xlink:href="#DejaVuSans-3" transform="translate(218.546875 0)"/>
      <use xlink:href="#DejaVuSans-2e" transform="translate(250.328125 0)"/>
      <use xlink:href="#DejaVuSans-15" transform="translate(315.90625 0)"/>
      <use xlink:href="#DejaVuSans-3" transform="translate(379.53125 0)"/>
      <use xlink:href="#DejaVuSans-49" transform="translate(411.3125 0)"/>
      <use xlink:href="#DejaVuSans-55" transform="translate(446.515625 0)"/>
      <use xlink:href="#DejaVuSans-52" transform="translate(485.421875 0)"/>
      <use xlink:href="#DejaVuSans-51" transform="translate(546.609375 0)"/>
      <use xlink:href="#DejaVuSans-57" transform="translate(609.984375 0)"/>
      <use xlink:href="#DejaVuSans-4c" transform="translate(649.1875 0)"/>
      <use xlink:href="#DejaVuSans-48" transform="translate(676.96875 0)"/>
      <use xlink:href="#DejaVuSans-55" transform="translate(738.5 0)"/>
     </g>
    </g>
    <g id="PathCollection_2">
     <g>
      <use xlink:href="#me053028252" x="464.558281" y="398.685328" style="fill: #ff0000; stroke: #000000"/>
     </g>
    </g>
    <g id="text_19">
     <!-- Kimi K2 best (0.564) -->
     <g style="fill: #262626" transform="translate(480.758281 401.047828) scale(0.09 -0.09)">
      <use xlink:href="#DejaVuSans-2e"/>
      <use xlink:href="#DejaVuSans-4c" transform="translate(65.578125 0)"/>
      <use xlink:href="#DejaVuSans-50" transform="translate(93.359375 0)"/>
      <use xlink:href="#DejaVuSans-4c" transform="translate(190.765625 0)"/>
      <use xlink:href="#DejaVuSans-3" transform="translate(218.546875 0)"/>
      <use xlink:href="#DejaVuSans-2e" transform="translate(250.328125 0)"/>
      <use xlink:href="#DejaVuSans-15" transform="translate(315.90625 0)"/>
      <use xlink:href="#DejaVuSans-3" transform="translate(379.53125 0)"/>
      <use xlink:href="#DejaVuSans-45" transform="translate(411.3125 0)"/>
      <use xlink:href="#DejaVuSans-48" transform="translate(474.796875 0)"/>
      <use xlink:href="#DejaVuSans-56" transform="translate(536.328125 0)"/>
      <use xlink:href="#DejaVuSans-57" transform="translate(588.421875 0)"/>
      <use xlink:href="#DejaVuSans-3" transform="translate(627.625 0)"/>
      <use xlink:href="#DejaVuSans-b" transform="translate(659.40625 0)"/>
      <use xlink:href="#DejaVuSans-13" transform="translate(698.421875 0)"/>
      <use xlink:href="#DejaVuSans-11" transform="translate(762.046875 0)"/>
      <use xlink:href="#DejaVuSans-18" transform="translate(793.828125 0)"/>
      <use xlink:href="#DejaVuSans-19" transform="translate(857.453125 0)"/>
      <use xlink:href="#DejaVuSans-17" transform="translate(921.078125 0)"/>
      <use xlink:href="#DejaVuSans-c" transform="translate(984.703125 0)"/>
     </g>
    </g>
   </g>
   <g id="PathCollection_3">
    <g clip-path="url(#p51c9181329)">
     <use xlink:href="#me053028252" x="541.933069" y="40.869937" style="fill: #ff0000; stroke: #000000"/>
    </g>
   </g>
   <g id="PathCollection_4">
    <g clip-path="url(#p51c9181329)">
     <use xlink:href="#me053028252" x="581.934645" y="198.160572" style="fill: #ff0000; stroke: #000000"/>
    </g>
   </g>
  </g>
 </g>
 <defs>
  <clipPath id="p51c9181329">
   <rect x="49.298281" y="23.229938" width="558" height="388.08"/>
  </clipPath>
 </defs>
</svg>
