<?xml version="1.0" encoding="utf-8" standalone="no"?>
<!DOCTYPE svg PUBLIC "-//W3C//DTD SVG 1.1//EN"
  "http://www.w3.org/Graphics/SVG/1.1/DTD/svg11.dtd">
<svg xmlns:xlink="http://www.w3.org/1999/xlink" width="631.07854pt" height="457.310969pt" viewBox="0 0 631.07854 457.310969" xmlns="http://www.w3.org/2000/svg" version="1.1">
 <metadata>
  <rdf:RDF xmlns:dc="http://purl.org/dc/elements/1.1/" xmlns:cc="http://creativecommons.org/ns#" xmlns:rdf="http://www.w3.org/1999/02/22-rdf-syntax-ns#">
   <cc:Work>
    <dc:type rdf:resource="http://purl.org/dc/dcmitype/StillImage"/>
    <dc:date>2026-07-13T12:17:07.683322</dc:date>
    <dc:format>image/svg+xml</dc:format>
    <dc:creator>
     <cc:Agent>
      <dc:title>Matplotlib v3.11.0, https://matplotlib.org/</dc:title>
     </cc:Agent>
    </dc:creator>
   </cc:Work>
  </rdf:RDF>
 </metadata>
 <defs>
  <style type="text/css">*{stroke-linejoin: round; stroke-linecap: butt}</style>
 </defs>
 <g id="figure_1">
  <g id="patch_1">
   <path d="M 0 457.310969 
L 631.07854 457.310969 
L 631.07854 0 
L 0 0 
z
" style="fill: #ffffff"/>
  </g>
  <g id="axes_1">
   <g id="patch_2">
    <path d="M 60.841406 411.309937 
L 618.841406 411.309937 
L 618.841406 23.229938 
L 60.841406 23.229938 
z
" style="fill: #ffffff"/>
   </g>
   <g id="matplotlib.axis_1">
    <g id="xtick_1">
     <g id="line2d_1">
      <path d="M 86.205043 411.309937 
L 86.205043 23.229938 
" clip-path="url(#p170d948e3f)" style="fill: none; stroke: #cccccc; stroke-opacity: 0.3; stroke-linecap: round"/>
     </g>
     <g id="text_1">
      <!-- 0 -->
      <g style="fill: #262626" transform="translate(82.35573 430.003102) scale(0.121 -0.121)">
       <defs>
        <path id="DejaVuSans-13" d="M 2034 4250 
Q 1547 4250 1301 3770 
Q 1056 3291 1056 2328 
Q 1056 1369 1301 889 
Q 1547 409 2034 409 
Q 2525 409 2770 889 
Q 3016 1369 3016 2328 
Q 3016 3291 2770 3770 
Q 2525 4250 2034 4250 
z
M 2034 4750 
Q 2819 4750 3233 4129 
Q 3647 3509 3647 2328 
Q 3647 1150 3233 529 
Q 2819 -91 2034 -91 
Q 1250 -91 836 529 
Q 422 1150 422 2328 
Q 422 3509 836 4129 
Q 1250 4750 2034 4750 
z
" transform="scale(0.015625)"/>
       </defs>
       <use xlink:href="#DejaVuSans-13"/>
      </g>
     </g>
    </g>
    <g id="xtick_2">
     <g id="line2d_2">
      <path d="M 173.892636 411.309937 
L 173.892636 23.229938 
" clip-path="url(#p170d948e3f)" style="fill: none; stroke: #cccccc; stroke-opacity: 0.3; stroke-linecap: round"/>
     </g>
     <g id="text_2">
      <!-- 20 -->
      <g style="fill: #262626" transform="translate(166.194011 430.003102) scale(0.121 -0.121)">
       <defs>
        <path id="DejaVuSans-15" d="M 1228 531 
L 3431 531 
L 3431 0 
L 469 0 
L 469 531 
Q 828 903 1448 1529 
Q 2069 2156 2228 2338 
Q 2531 2678 2651 2914 
Q 2772 3150 2772 3378 
Q 2772 3750 2511 3984 
Q 2250 4219 1831 4219 
Q 1534 4219 1204 4116 
Q 875 4013 500 3803 
L 500 4441 
Q 881 4594 1212 4672 
Q 1544 4750 1819 4750 
Q 2544 4750 2975 4387 
Q 3406 4025 3406 3419 
Q 3406 3131 3298 2873 
Q 3191 2616 2906 2266 
Q 2828 2175 2409 1742 
Q 1991 1309 1228 531 
z
" transform="scale(0.015625)"/>
       </defs>
       <use xlink:href="#DejaVuSans-15"/>
       <use xlink:href="#DejaVuSans-13" transform="translate(63.625 0)"/>
      </g>
     </g>
    </g>
    <g id="xtick_3">
     <g id="line2d_3">
      <path d="M 261.580229 411.309937 
L 261.580229 23.229938 
" clip-path="url(#p170d948e3f)" style="fill: none; stroke: #cccccc; stroke-opacity: 0.3; stroke-linecap: round"/>
     </g>
     <g id="text_3">
      <!-- 40 -->
      <g style="fill: #262626" transform="translate(253.881604 430.003102) scale(0.121 -0.121)">
       <defs>
        <path id="DejaVuSans-17" d="M 2419 4116 
L 825 1625 
L 2419 1625 
L 2419 4116 
z
M 2253 4666 
L 3047 4666 
L 3047 1625 
L 3713 1625 
L 3713 1100 
L 3047 1100 
L 3047 0 
L 2419 0 
L 2419 1100 
L 313 1100 
L 313 1709 
L 2253 4666 
z
" transform="scale(0.015625)"/>
       </defs>
       <use xlink:href="#DejaVuSans-17"/>
       <use xlink:href="#DejaVuSans-13" transform="translate(63.625 0)"/>
      </g>
     </g>
    </g>
    <g id="xtick_4">
     <g id="line2d_4">
      <path d="M 349.267823 411.309937 
L 349.267823 23.229938 
" clip-path="url(#p170d948e3f)" style="fill: none; stroke: #cccccc; stroke-opacity: 0.3; stroke-linecap: round"/>
     </g>
     <g id="text_4">
      <!-- 60 -->
      <g style="fill: #262626" transform="translate(341.569198 430.003102) scale(0.121 -0.121)">
       <defs>
        <path id="DejaVuSans-19" d="M 2113 2584 
Q 1688 2584 1439 2293 
Q 1191 2003 1191 1497 
Q 1191 994 1439 701 
Q 1688 409 2113 409 
Q 2538 409 2786 701 
Q 3034 994 3034 1497 
Q 3034 2003 2786 2293 
Q 2538 2584 2113 2584 
z
M 3366 4563 
L 3366 3988 
Q 3128 4100 2886 4159 
Q 2644 4219 2406 4219 
Q 1781 4219 1451 3797 
Q 1122 3375 1075 2522 
Q 1259 2794 1537 2939 
Q 1816 3084 2150 3084 
Q 2853 3084 3261 2657 
Q 3669 2231 3669 1497 
Q 3669 778 3244 343 
Q 2819 -91 2113 -91 
Q 1303 -91 875 529 
Q 447 1150 447 2328 
Q 447 3434 972 4092 
Q 1497 4750 2381 4750 
Q 2619 4750 2861 4703 
Q 3103 4656 3366 4563 
z
" transform="scale(0.015625)"/>
       </defs>
       <use xlink:href="#DejaVuSans-19"/>
       <use xlink:href="#DejaVuSans-13" transform="translate(63.625 0)"/>
      </g>
     </g>
    </g>
    <g id="xtick_5">
     <g id="line2d_5">
      <path d="M 436.955416 411.309937 
L 436.955416 23.229938 
" clip-path="url(#p170d948e3f)" style="fill: none; stroke: #cccccc; stroke-opacity: 0.3; stroke-linecap: round"/>
     </g>
     <g id="text_5">
      <!-- 80 -->
      <g style="fill: #262626" transform="translate(429.256791 430.003102) scale(0.121 -0.121)">
       <defs>
        <path id="DejaVuSans-1b" d="M 2034 2216 
Q 1584 2216 1326 1975 
Q 1069 1734 1069 1313 
Q 1069 891 1326 650 
Q 1584 409 2034 409 
Q 2484 409 2743 651 
Q 3003 894 3003 1313 
Q 3003 1734 2745 1975 
Q 2488 2216 2034 2216 
z
M 1403 2484 
Q 997 2584 770 2862 
Q 544 3141 544 3541 
Q 544 4100 942 4425 
Q 1341 4750 2034 4750 
Q 2731 4750 3128 4425 
Q 3525 4100 3525 3541 
Q 3525 3141 3298 2862 
Q 3072 2584 2669 2484 
Q 3125 2378 3379 2068 
Q 3634 1759 3634 1313 
Q 3634 634 3220 271 
Q 2806 -91 2034 -91 
Q 1263 -91 848 271 
Q 434 634 434 1313 
Q 434 1759 690 2068 
Q 947 2378 1403 2484 
z
M 1172 3481 
Q 1172 3119 1398 2916 
Q 1625 2713 2034 2713 
Q 2441 2713 2670 2916 
Q 2900 3119 2900 3481 
Q 2900 3844 2670 4047 
Q 2441 4250 2034 4250 
Q 1625 4250 1398 4047 
Q 1172 3844 1172 3481 
z
" transform="scale(0.015625)"/>
       </defs>
       <use xlink:href="#DejaVuSans-1b"/>
       <use xlink:href="#DejaVuSans-13" transform="translate(63.625 0)"/>
      </g>
     </g>
    </g>
    <g id="xtick_6">
     <g id="line2d_6">
      <path d="M 524.643009 411.309937 
L 524.643009 23.229938 
" clip-path="url(#p170d948e3f)" style="fill: none; stroke: #cccccc; stroke-opacity: 0.3; stroke-linecap: round"/>
     </g>
     <g id="text_6">
      <!-- 100 -->
      <g style="fill: #262626" transform="translate(513.095072 430.003102) scale(0.121 -0.121)">
       <defs>
        <path id="DejaVuSans-14" d="M 794 531 
L 1825 531 
L 1825 4091 
L 703 3866 
L 703 4441 
L 1819 4666 
L 2450 4666 
L 2450 531 
L 3481 531 
L 3481 0 
L 794 0 
L 794 531 
z
" transform="scale(0.015625)"/>
       </defs>
       <use xlink:href="#DejaVuSans-14"/>
       <use xlink:href="#DejaVuSans-13" transform="translate(63.625 0)"/>
       <use xlink:href="#DejaVuSans-13" transform="translate(127.25 0)"/>
      </g>
     </g>
    </g>
    <g id="xtick_7">
     <g id="line2d_7">
      <path d="M 612.330602 411.309937 
L 612.330602 23.229938 
" clip-path="url(#p170d948e3f)" style="fill: none; stroke: #cccccc; stroke-opacity: 0.3; stroke-linecap: round"/>
     </g>
     <g id="text_7">
      <!-- 120 -->
      <g style="fill: #262626" transform="translate(600.782665 430.003102) scale(0.121 -0.121)">
       <use xlink:href="#DejaVuSans-14"/>
       <use xlink:href="#DejaVuSans-15" transform="translate(63.625 0)"/>
       <use xlink:href="#DejaVuSans-13" transform="translate(127.25 0)"/>
      </g>
     </g>
    </g>
    <g id="text_8">
     <!-- Time Overhead (%) -->
     <g style="fill: #262626" transform="translate(275.834812 446.939875) scale(0.132 -0.132)">
      <defs>
       <path id="DejaVuSans-37" d="M -19 4666 
L 3928 4666 
L 3928 4134 
L 2272 4134 
L 2272 0 
L 1638 0 
L 1638 4134 
L -19 4134 
L -19 4666 
z
" transform="scale(0.015625)"/>
       <path id="DejaVuSans-4c" d="M 603 3500 
L 1178 3500 
L 1178 0 
L 603 0 
L 603 3500 
z
M 603 4863 
L 1178 4863 
L 1178 4134 
L 603 4134 
L 603 4863 
z
" transform="scale(0.015625)"/>
       <path id="DejaVuSans-50" d="M 3328 2828 
Q 3544 3216 3844 3400 
Q 4144 3584 4550 3584 
Q 5097 3584 5394 3201 
Q 5691 2819 5691 2113 
L 5691 0 
L 5113 0 
L 5113 2094 
Q 5113 2597 4934 2840 
Q 4756 3084 4391 3084 
Q 3944 3084 3684 2787 
Q 3425 2491 3425 1978 
L 3425 0 
L 2847 0 
L 2847 2094 
Q 2847 2600 2669 2842 
Q 2491 3084 2119 3084 
Q 1678 3084 1418 2786 
Q 1159 2488 1159 1978 
L 1159 0 
L 581 0 
L 581 3500 
L 1159 3500 
L 1159 2956 
Q 1356 3278 1631 3431 
Q 1906 3584 2284 3584 
Q 2666 3584 2933 3390 
Q 3200 3197 3328 2828 
z
" transform="scale(0.015625)"/>
       <path id="DejaVuSans-48" d="M 3597 1894 
L 3597 1613 
L 953 1613 
Q 991 1019 1311 708 
Q 1631 397 2203 397 
Q 2534 397 2845 478 
Q 3156 559 3463 722 
L 3463 178 
Q 3153 47 2828 -22 
Q 2503 -91 2169 -91 
Q 1331 -91 842 396 
Q 353 884 353 1716 
Q 353 2575 817 3079 
Q 1281 3584 2069 3584 
Q 2775 3584 3186 3129 
Q 3597 2675 3597 1894 
z
M 3022 2063 
Q 3016 2534 2758 2815 
Q 2500 3097 2075 3097 
Q 1594 3097 1305 2825 
Q 1016 2553 972 2059 
L 3022 2063 
z
" transform="scale(0.015625)"/>
       <path id="DejaVuSans-3" transform="scale(0.015625)"/>
       <path id="DejaVuSans-32" d="M 2522 4238 
Q 1834 4238 1429 3725 
Q 1025 3213 1025 2328 
Q 1025 1447 1429 934 
Q 1834 422 2522 422 
Q 3209 422 3611 934 
Q 4013 1447 4013 2328 
Q 4013 3213 3611 3725 
Q 3209 4238 2522 4238 
z
M 2522 4750 
Q 3503 4750 4090 4092 
Q 4678 3434 4678 2328 
Q 4678 1225 4090 567 
Q 3503 -91 2522 -91 
Q 1538 -91 948 565 
Q 359 1222 359 2328 
Q 359 3434 948 4092 
Q 1538 4750 2522 4750 
z
" transform="scale(0.015625)"/>
       <path id="DejaVuSans-59" d="M 191 3500 
L 800 3500 
L 1894 563 
L 2988 3500 
L 3597 3500 
L 2284 0 
L 1503 0 
L 191 3500 
z
" transform="scale(0.015625)"/>
       <path id="DejaVuSans-55" d="M 2631 2963 
Q 2534 3019 2420 3045 
Q 2306 3072 2169 3072 
Q 1681 3072 1420 2755 
Q 1159 2438 1159 1844 
L 1159 0 
L 581 0 
L 581 3500 
L 1159 3500 
L 1159 2956 
Q 1341 3275 1631 3429 
Q 1922 3584 2338 3584 
Q 2397 3584 2469 3576 
Q 2541 3569 2628 3553 
L 2631 2963 
z
" transform="scale(0.015625)"/>
       <path id="DejaVuSans-4b" d="M 3513 2113 
L 3513 0 
L 2938 0 
L 2938 2094 
Q 2938 2591 2744 2837 
Q 2550 3084 2163 3084 
Q 1697 3084 1428 2787 
Q 1159 2491 1159 1978 
L 1159 0 
L 581 0 
L 581 4863 
L 1159 4863 
L 1159 2956 
Q 1366 3272 1645 3428 
Q 1925 3584 2291 3584 
Q 2894 3584 3203 3211 
Q 3513 2838 3513 2113 
z
" transform="scale(0.015625)"/>
       <path id="DejaVuSans-44" d="M 2194 1759 
Q 1497 1759 1228 1600 
Q 959 1441 959 1056 
Q 959 750 1161 570 
Q 1363 391 1709 391 
Q 2188 391 2477 730 
Q 2766 1069 2766 1631 
L 2766 1759 
L 2194 1759 
z
M 3341 1997 
L 3341 0 
L 2766 0 
L 2766 531 
Q 2569 213 2275 61 
Q 1981 -91 1556 -91 
Q 1019 -91 701 211 
Q 384 513 384 1019 
Q 384 1609 779 1909 
Q 1175 2209 1959 2209 
L 2766 2209 
L 2766 2266 
Q 2766 2663 2505 2880 
Q 2244 3097 1772 3097 
Q 1472 3097 1187 3025 
Q 903 2953 641 2809 
L 641 3341 
Q 956 3463 1253 3523 
Q 1550 3584 1831 3584 
Q 2591 3584 2966 3190 
Q 3341 2797 3341 1997 
z
" transform="scale(0.015625)"/>
       <path id="DejaVuSans-47" d="M 2906 2969 
L 2906 4863 
L 3481 4863 
L 3481 0 
L 2906 0 
L 2906 525 
Q 2725 213 2448 61 
Q 2172 -91 1784 -91 
Q 1150 -91 751 415 
Q 353 922 353 1747 
Q 353 2572 751 3078 
Q 1150 3584 1784 3584 
Q 2172 3584 2448 3432 
Q 2725 3281 2906 2969 
z
M 947 1747 
Q 947 1113 1208 752 
Q 1469 391 1925 391 
Q 2381 391 2643 752 
Q 2906 1113 2906 1747 
Q 2906 2381 2643 2742 
Q 2381 3103 1925 3103 
Q 1469 3103 1208 2742 
Q 947 2381 947 1747 
z
" transform="scale(0.015625)"/>
       <path id="DejaVuSans-b" d="M 1984 4856 
Q 1566 4138 1362 3434 
Q 1159 2731 1159 2009 
Q 1159 1288 1364 580 
Q 1569 -128 1984 -844 
L 1484 -844 
Q 1016 -109 783 600 
Q 550 1309 550 2009 
Q 550 2706 781 3412 
Q 1013 4119 1484 4856 
L 1984 4856 
z
" transform="scale(0.015625)"/>
       <path id="DejaVuSans-8" d="M 4653 2053 
Q 4381 2053 4226 1822 
Q 4072 1591 4072 1178 
Q 4072 772 4226 539 
Q 4381 306 4653 306 
Q 4919 306 5073 539 
Q 5228 772 5228 1178 
Q 5228 1588 5073 1820 
Q 4919 2053 4653 2053 
z
M 4653 2450 
Q 5147 2450 5437 2106 
Q 5728 1763 5728 1178 
Q 5728 594 5436 251 
Q 5144 -91 4653 -91 
Q 4153 -91 3862 251 
Q 3572 594 3572 1178 
Q 3572 1766 3864 2108 
Q 4156 2450 4653 2450 
z
M 1428 4353 
Q 1159 4353 1004 4120 
Q 850 3888 850 3481 
Q 850 3069 1003 2837 
Q 1156 2606 1428 2606 
Q 1700 2606 1854 2837 
Q 2009 3069 2009 3481 
Q 2009 3884 1853 4118 
Q 1697 4353 1428 4353 
z
M 4250 4750 
L 4750 4750 
L 1831 -91 
L 1331 -91 
L 4250 4750 
z
M 1428 4750 
Q 1922 4750 2215 4408 
Q 2509 4066 2509 3481 
Q 2509 2891 2217 2550 
Q 1925 2209 1428 2209 
Q 931 2209 642 2551 
Q 353 2894 353 3481 
Q 353 4063 643 4406 
Q 934 4750 1428 4750 
z
" transform="scale(0.015625)"/>
       <path id="DejaVuSans-c" d="M 513 4856 
L 1013 4856 
Q 1481 4119 1714 3412 
Q 1947 2706 1947 2009 
Q 1947 1309 1714 600 
Q 1481 -109 1013 -844 
L 513 -844 
Q 928 -128 1133 580 
Q 1338 1288 1338 2009 
Q 1338 2731 1133 3434 
Q 928 4138 513 4856 
z
" transform="scale(0.015625)"/>
      </defs>
      <use xlink:href="#DejaVuSans-37"/>
      <use xlink:href="#DejaVuSans-4c" transform="translate(58 0)"/>
      <use xlink:href="#DejaVuSans-50" transform="translate(85.78125 0)"/>
      <use xlink:href="#DejaVuSans-48" transform="translate(183.1875 0)"/>
      <use xlink:href="#DejaVuSans-3" transform="translate(244.71875 0)"/>
      <use xlink:href="#DejaVuSans-32" transform="translate(276.5 0)"/>
      <use xlink:href="#DejaVuSans-59" transform="translate(355.21875 0)"/>
      <use xlink:href="#DejaVuSans-48" transform="translate(414.40625 0)"/>
      <use xlink:href="#DejaVuSans-55" transform="translate(475.9375 0)"/>
      <use xlink:href="#DejaVuSans-4b" transform="translate(515.296875 0)"/>
      <use xlink:href="#DejaVuSans-48" transform="translate(578.671875 0)"/>
      <use xlink:href="#DejaVuSans-44" transform="translate(640.203125 0)"/>
      <use xlink:href="#DejaVuSans-47" transform="translate(701.484375 0)"/>
      <use xlink:href="#DejaVuSans-3" transform="translate(764.96875 0)"/>
      <use xlink:href="#DejaVuSans-b" transform="translate(796.75 0)"/>
      <use xlink:href="#DejaVuSans-8" transform="translate(835.765625 0)"/>
      <use xlink:href="#DejaVuSans-c" transform="translate(930.78125 0)"/>
     </g>
    </g>
   </g>
   <g id="matplotlib.axis_2">
    <g id="ytick_1">
     <g id="line2d_8">
      <path d="M 60.841406 393.669937 
L 618.841406 393.669937 
" clip-path="url(#p170d948e3f)" style="fill: none; stroke: #cccccc; stroke-opacity: 0.3; stroke-linecap: round"/>
     </g>
     <g id="text_9">
      <!-- 0.50 -->
      <g style="fill: #262626" transform="translate(24.4 398.26652) scale(0.121 -0.121)">
       <defs>
        <path id="DejaVuSans-11" d="M 684 794 
L 1344 794 
L 1344 0 
L 684 0 
L 684 794 
z
" transform="scale(0.015625)"/>
        <path id="DejaVuSans-18" d="M 691 4666 
L 3169 4666 
L 3169 4134 
L 1269 4134 
L 1269 2991 
Q 1406 3038 1543 3061 
Q 1681 3084 1819 3084 
Q 2600 3084 3056 2656 
Q 3513 2228 3513 1497 
Q 3513 744 3044 326 
Q 2575 -91 1722 -91 
Q 1428 -91 1123 -41 
Q 819 9 494 109 
L 494 744 
Q 775 591 1075 516 
Q 1375 441 1709 441 
Q 2250 441 2565 725 
Q 2881 1009 2881 1497 
Q 2881 1984 2565 2268 
Q 2250 2553 1709 2553 
Q 1456 2553 1204 2497 
Q 953 2441 691 2322 
L 691 4666 
z
" transform="scale(0.015625)"/>
       </defs>
       <use xlink:href="#DejaVuSans-13"/>
       <use xlink:href="#DejaVuSans-11" transform="translate(63.625 0)"/>
       <use xlink:href="#DejaVuSans-18" transform="translate(95.40625 0)"/>
       <use xlink:href="#DejaVuSans-13" transform="translate(159.03125 0)"/>
      </g>
     </g>
    </g>
    <g id="ytick_2">
     <g id="line2d_9">
      <path d="M 60.841406 319.0822 
L 618.841406 319.0822 
" clip-path="url(#p170d948e3f)" style="fill: none; stroke: #cccccc; stroke-opacity: 0.3; stroke-linecap: round"/>
     </g>
     <g id="text_10">
      <!-- 0.51 -->
      <g style="fill: #262626" transform="translate(24.4 323.678782) scale(0.121 -0.121)">
       <use xlink:href="#DejaVuSans-13"/>
       <use xlink:href="#DejaVuSans-11" transform="translate(63.625 0)"/>
       <use xlink:href="#DejaVuSans-18" transform="translate(95.40625 0)"/>
       <use xlink:href="#DejaVuSans-14" transform="translate(159.03125 0)"/>
      </g>
     </g>
    </g>
    <g id="ytick_3">
     <g id="line2d_10">
      <path d="M 60.841406 244.494462 
L 618.841406 244.494462 
" clip-path="url(#p170d948e3f)" style="fill: none; stroke: #cccccc; stroke-opacity: 0.3; stroke-linecap: round"/>
     </g>
     <g id="text_11">
      <!-- 0.52 -->
      <g style="fill: #262626" transform="translate(24.4 249.091044) scale(0.121 -0.121)">
       <use xlink:href="#DejaVuSans-13"/>
       <use xlink:href="#DejaVuSans-11" transform="translate(63.625 0)"/>
       <use xlink:href="#DejaVuSans-18" transform="translate(95.40625 0)"/>
       <use xlink:href="#DejaVuSans-15" transform="translate(159.03125 0)"/>
      </g>
     </g>
    </g>
    <g id="ytick_4">
     <g id="line2d_11">
      <path d="M 60.841406 169.906724 
L 618.841406 169.906724 
" clip-path="url(#p170d948e3f)" style="fill: none; stroke: #cccccc; stroke-opacity: 0.3; stroke-linecap: round"/>
     </g>
     <g id="text_12">
      <!-- 0.53 -->
      <g style="fill: #262626" transform="translate(24.4 174.503306) scale(0.121 -0.121)">
       <defs>
        <path id="DejaVuSans-16" d="M 2597 2516 
Q 3050 2419 3304 2112 
Q 3559 1806 3559 1356 
Q 3559 666 3084 287 
Q 2609 -91 1734 -91 
Q 1441 -91 1130 -33 
Q 819 25 488 141 
L 488 750 
Q 750 597 1062 519 
Q 1375 441 1716 441 
Q 2309 441 2620 675 
Q 2931 909 2931 1356 
Q 2931 1769 2642 2001 
Q 2353 2234 1838 2234 
L 1294 2234 
L 1294 2753 
L 1863 2753 
Q 2328 2753 2575 2939 
Q 2822 3125 2822 3475 
Q 2822 3834 2567 4026 
Q 2313 4219 1838 4219 
Q 1578 4219 1281 4162 
Q 984 4106 628 3988 
L 628 4550 
Q 988 4650 1302 4700 
Q 1616 4750 1894 4750 
Q 2613 4750 3031 4423 
Q 3450 4097 3450 3541 
Q 3450 3153 3228 2886 
Q 3006 2619 2597 2516 
z
" transform="scale(0.015625)"/>
       </defs>
       <use xlink:href="#DejaVuSans-13"/>
       <use xlink:href="#DejaVuSans-11" transform="translate(63.625 0)"/>
       <use xlink:href="#DejaVuSans-18" transform="translate(95.40625 0)"/>
       <use xlink:href="#DejaVuSans-16" transform="translate(159.03125 0)"/>
      </g>
     </g>
    </g>
    <g id="ytick_5">
     <g id="line2d_12">
      <path d="M 60.841406 95.318986 
L 618.841406 95.318986 
" clip-path="url(#p170d948e3f)" style="fill: none; stroke: #cccccc; stroke-opacity: 0.3; stroke-linecap: round"/>
     </g>
     <g id="text_13">
      <!-- 0.54 -->
      <g style="fill: #262626" transform="translate(24.4 99.915568) scale(0.121 -0.121)">
       <use xlink:href="#DejaVuSans-13"/>
       <use xlink:href="#DejaVuSans-11" transform="translate(63.625 0)"/>
       <use xlink:href="#DejaVuSans-18" transform="translate(95.40625 0)"/>
       <use xlink:href="#DejaVuSans-17" transform="translate(159.03125 0)"/>
      </g>
     </g>
    </g>
    <g id="text_14">
     <!-- Score -->
     <g style="fill: #262626" transform="translate(17.228906 235.756125) rotate(-90) scale(0.132 -0.132)">
      <defs>
       <path id="DejaVuSans-36" d="M 3425 4513 
L 3425 3897 
Q 3066 4069 2747 4153 
Q 2428 4238 2131 4238 
Q 1616 4238 1336 4038 
Q 1056 3838 1056 3469 
Q 1056 3159 1242 3001 
Q 1428 2844 1947 2747 
L 2328 2669 
Q 3034 2534 3370 2195 
Q 3706 1856 3706 1288 
Q 3706 609 3251 259 
Q 2797 -91 1919 -91 
Q 1588 -91 1214 -16 
Q 841 59 441 206 
L 441 856 
Q 825 641 1194 531 
Q 1563 422 1919 422 
Q 2459 422 2753 634 
Q 3047 847 3047 1241 
Q 3047 1584 2836 1778 
Q 2625 1972 2144 2069 
L 1759 2144 
Q 1053 2284 737 2584 
Q 422 2884 422 3419 
Q 422 4038 858 4394 
Q 1294 4750 2059 4750 
Q 2388 4750 2728 4690 
Q 3069 4631 3425 4513 
z
" transform="scale(0.015625)"/>
       <path id="DejaVuSans-46" d="M 3122 3366 
L 3122 2828 
Q 2878 2963 2633 3030 
Q 2388 3097 2138 3097 
Q 1578 3097 1268 2742 
Q 959 2388 959 1747 
Q 959 1106 1268 751 
Q 1578 397 2138 397 
Q 2388 397 2633 464 
Q 2878 531 3122 666 
L 3122 134 
Q 2881 22 2623 -34 
Q 2366 -91 2075 -91 
Q 1284 -91 818 406 
Q 353 903 353 1747 
Q 353 2603 823 3093 
Q 1294 3584 2113 3584 
Q 2378 3584 2631 3529 
Q 2884 3475 3122 3366 
z
" transform="scale(0.015625)"/>
       <path id="DejaVuSans-52" d="M 1959 3097 
Q 1497 3097 1228 2736 
Q 959 2375 959 1747 
Q 959 1119 1226 758 
Q 1494 397 1959 397 
Q 2419 397 2687 759 
Q 2956 1122 2956 1747 
Q 2956 2369 2687 2733 
Q 2419 3097 1959 3097 
z
M 1959 3584 
Q 2709 3584 3137 3096 
Q 3566 2609 3566 1747 
Q 3566 888 3137 398 
Q 2709 -91 1959 -91 
Q 1206 -91 779 398 
Q 353 888 353 1747 
Q 353 2609 779 3096 
Q 1206 3584 1959 3584 
z
" transform="scale(0.015625)"/>
      </defs>
      <use xlink:href="#DejaVuSans-36"/>
      <use xlink:href="#DejaVuSans-46" transform="translate(63.484375 0)"/>
      <use xlink:href="#DejaVuSans-52" transform="translate(118.46875 0)"/>
      <use xlink:href="#DejaVuSans-55" transform="translate(179.65625 0)"/>
      <use xlink:href="#DejaVuSans-48" transform="translate(218.5625 0)"/>
     </g>
    </g>
   </g>
   <g id="line2d_13">
    <path d="M 86.205043 393.669937 
L 87.081919 392.92406 
L 87.520357 392.178183 
L 88.397232 391.432305 
L 88.397232 390.686428 
L 89.712546 389.940551 
L 90.589422 386.957041 
L 93.22005 384.719409 
L 96.727554 375.023003 
L 100.673496 374.277126 
L 109.003817 369.801861 
L 109.442255 368.310107 
L 109.442255 360.851333 
L 109.442255 353.392559 
L 126.541336 344.442031 
L 129.610401 341.458521 
L 131.364153 339.966766 
L 137.502285 333.999747 
L 139.256037 281.788331 
L 152.847614 260.903764 
L 173.454198 233.306301 
L 183.976709 229.576914 
L 190.553279 215.405244 
L 195.814534 213.167612 
L 207.213921 204.962961 
L 215.982681 200.487696 
L 223.874564 198.995942 
L 233.081761 198.250064 
L 238.343017 184.824272 
L 242.288959 184.078394 
L 244.042711 183.332517 
L 252.373032 179.60313 
L 258.511163 177.365498 
L 270.787427 154.243299 
L 282.625252 145.29277 
L 290.955573 133.358732 
L 315.069661 122.170572 
L 322.961545 117.695307 
L 328.2228 113.220043 
L 333.045618 112.474166 
L 339.183749 108.744779 
L 342.252815 107.998902 
L 347.075633 106.507147 
L 349.267823 105.761269 
L 352.775326 105.015392 
L 357.159706 103.523637 
L 357.598144 101.286005 
L 358.913458 99.048373 
L 362.859399 96.810741 
L 368.559093 94.573109 
L 374.258787 91.589599 
L 375.574101 88.60609 
L 431.69416 85.62258 
L 440.46292 84.876703 
L 447.039489 84.130825 
L 448.793241 81.893193 
L 453.616059 79.655561 
L 455.808248 76.672052 
L 459.315752 75.926174 
L 462.823256 74.43442 
L 463.700132 72.942665 
L 470.715139 72.196787 
L 472.030453 69.213278 
L 472.030453 68.467401 
L 472.468891 67.721523 
L 474.222643 64.738014 
L 474.661081 63.992136 
L 481.23765 61.008627 
L 482.552964 60.262749 
L 488.252658 59.516872 
L 489.129534 55.041608 
L 496.144541 52.803976 
L 504.036425 48.328711 
L 517.628002 47.582834 
L 521.135505 44.599324 
L 536.480834 43.853447 
L 584.270573 43.10757 
L 585.147449 41.615815 
L 591.724018 40.869937 
" clip-path="url(#p170d948e3f)" style="fill: none; stroke: #2563eb; stroke-width: 2; stroke-linecap: round"/>
    <defs>
     <path id="me5719f213c" d="M 0 2 
C 0.530406 2 1.03916 1.789267 1.414214 1.414214 
C 1.789267 1.03916 2 0.530406 2 0 
C 2 -0.530406 1.789267 -1.03916 1.414214 -1.414214 
C 1.03916 -1.789267 0.530406 -2 0 -2 
C -0.530406 -2 -1.03916 -1.789267 -1.414214 -1.414214 
C -1.789267 -1.03916 -2 -0.530406 -2 0 
C -2 0.530406 -1.789267 1.03916 -1.414214 1.414214 
C -1.03916 1.789267 -0.530406 2 0 2 
z
" style="stroke: #2563eb"/>
    </defs>
    <g clip-path="url(#p170d948e3f)">
     <use xlink:href="#me5719f213c" x="86.205043" y="393.669937" style="fill: #2563eb; stroke: #2563eb"/>
     <use xlink:href="#me5719f213c" x="87.081919" y="392.92406" style="fill: #2563eb; stroke: #2563eb"/>
     <use xlink:href="#me5719f213c" x="87.520357" y="392.178183" style="fill: #2563eb; stroke: #2563eb"/>
     <use xlink:href="#me5719f213c" x="88.397232" y="391.432305" style="fill: #2563eb; stroke: #2563eb"/>
     <use xlink:href="#me5719f213c" x="88.397232" y="390.686428" style="fill: #2563eb; stroke: #2563eb"/>
     <use xlink:href="#me5719f213c" x="89.712546" y="389.940551" style="fill: #2563eb; stroke: #2563eb"/>
     <use xlink:href="#me5719f213c" x="90.589422" y="386.957041" style="fill: #2563eb; stroke: #2563eb"/>
     <use xlink:href="#me5719f213c" x="93.22005" y="384.719409" style="fill: #2563eb; stroke: #2563eb"/>
     <use xlink:href="#me5719f213c" x="96.727554" y="375.023003" style="fill: #2563eb; stroke: #2563eb"/>
     <use xlink:href="#me5719f213c" x="100.673496" y="374.277126" style="fill: #2563eb; stroke: #2563eb"/>
     <use xlink:href="#me5719f213c" x="109.003817" y="369.801861" style="fill: #2563eb; stroke: #2563eb"/>
     <use xlink:href="#me5719f213c" x="109.442255" y="368.310107" style="fill: #2563eb; stroke: #2563eb"/>
     <use xlink:href="#me5719f213c" x="109.442255" y="360.851333" style="fill: #2563eb; stroke: #2563eb"/>
     <use xlink:href="#me5719f213c" x="109.442255" y="353.392559" style="fill: #2563eb; stroke: #2563eb"/>
     <use xlink:href="#me5719f213c" x="126.541336" y="344.442031" style="fill: #2563eb; stroke: #2563eb"/>
     <use xlink:href="#me5719f213c" x="129.610401" y="341.458521" style="fill: #2563eb; stroke: #2563eb"/>
     <use xlink:href="#me5719f213c" x="131.364153" y="339.966766" style="fill: #2563eb; stroke: #2563eb"/>
     <use xlink:href="#me5719f213c" x="137.502285" y="333.999747" style="fill: #2563eb; stroke: #2563eb"/>
     <use xlink:href="#me5719f213c" x="139.256037" y="281.788331" style="fill: #2563eb; stroke: #2563eb"/>
     <use xlink:href="#me5719f213c" x="152.847614" y="260.903764" style="fill: #2563eb; stroke: #2563eb"/>
     <use xlink:href="#me5719f213c" x="173.454198" y="233.306301" style="fill: #2563eb; stroke: #2563eb"/>
     <use xlink:href="#me5719f213c" x="183.976709" y="229.576914" style="fill: #2563eb; stroke: #2563eb"/>
     <use xlink:href="#me5719f213c" x="190.553279" y="215.405244" style="fill: #2563eb; stroke: #2563eb"/>
     <use xlink:href="#me5719f213c" x="195.814534" y="213.167612" style="fill: #2563eb; stroke: #2563eb"/>
     <use xlink:href="#me5719f213c" x="207.213921" y="204.962961" style="fill: #2563eb; stroke: #2563eb"/>
     <use xlink:href="#me5719f213c" x="215.982681" y="200.487696" style="fill: #2563eb; stroke: #2563eb"/>
     <use xlink:href="#me5719f213c" x="223.874564" y="198.995942" style="fill: #2563eb; stroke: #2563eb"/>
     <use xlink:href="#me5719f213c" x="233.081761" y="198.250064" style="fill: #2563eb; stroke: #2563eb"/>
     <use xlink:href="#me5719f213c" x="238.343017" y="184.824272" style="fill: #2563eb; stroke: #2563eb"/>
     <use xlink:href="#me5719f213c" x="242.288959" y="184.078394" style="fill: #2563eb; stroke: #2563eb"/>
     <use xlink:href="#me5719f213c" x="244.042711" y="183.332517" style="fill: #2563eb; stroke: #2563eb"/>
     <use xlink:href="#me5719f213c" x="252.373032" y="179.60313" style="fill: #2563eb; stroke: #2563eb"/>
     <use xlink:href="#me5719f213c" x="258.511163" y="177.365498" style="fill: #2563eb; stroke: #2563eb"/>
     <use xlink:href="#me5719f213c" x="270.787427" y="154.243299" style="fill: #2563eb; stroke: #2563eb"/>
     <use xlink:href="#me5719f213c" x="282.625252" y="145.29277" style="fill: #2563eb; stroke: #2563eb"/>
     <use xlink:href="#me5719f213c" x="290.955573" y="133.358732" style="fill: #2563eb; stroke: #2563eb"/>
     <use xlink:href="#me5719f213c" x="315.069661" y="122.170572" style="fill: #2563eb; stroke: #2563eb"/>
     <use xlink:href="#me5719f213c" x="322.961545" y="117.695307" style="fill: #2563eb; stroke: #2563eb"/>
     <use xlink:href="#me5719f213c" x="328.2228" y="113.220043" style="fill: #2563eb; stroke: #2563eb"/>
     <use xlink:href="#me5719f213c" x="333.045618" y="112.474166" style="fill: #2563eb; stroke: #2563eb"/>
     <use xlink:href="#me5719f213c" x="339.183749" y="108.744779" style="fill: #2563eb; stroke: #2563eb"/>
     <use xlink:href="#me5719f213c" x="342.252815" y="107.998902" style="fill: #2563eb; stroke: #2563eb"/>
     <use xlink:href="#me5719f213c" x="347.075633" y="106.507147" style="fill: #2563eb; stroke: #2563eb"/>
     <use xlink:href="#me5719f213c" x="349.267823" y="105.761269" style="fill: #2563eb; stroke: #2563eb"/>
     <use xlink:href="#me5719f213c" x="352.775326" y="105.015392" style="fill: #2563eb; stroke: #2563eb"/>
     <use xlink:href="#me5719f213c" x="357.159706" y="103.523637" style="fill: #2563eb; stroke: #2563eb"/>
     <use xlink:href="#me5719f213c" x="357.598144" y="101.286005" style="fill: #2563eb; stroke: #2563eb"/>
     <use xlink:href="#me5719f213c" x="358.913458" y="99.048373" style="fill: #2563eb; stroke: #2563eb"/>
     <use xlink:href="#me5719f213c" x="362.859399" y="96.810741" style="fill: #2563eb; stroke: #2563eb"/>
     <use xlink:href="#me5719f213c" x="368.559093" y="94.573109" style="fill: #2563eb; stroke: #2563eb"/>
     <use xlink:href="#me5719f213c" x="374.258787" y="91.589599" style="fill: #2563eb; stroke: #2563eb"/>
     <use xlink:href="#me5719f213c" x="375.574101" y="88.60609" style="fill: #2563eb; stroke: #2563eb"/>
     <use xlink:href="#me5719f213c" x="431.69416" y="85.62258" style="fill: #2563eb; stroke: #2563eb"/>
     <use xlink:href="#me5719f213c" x="440.46292" y="84.876703" style="fill: #2563eb; stroke: #2563eb"/>
     <use xlink:href="#me5719f213c" x="447.039489" y="84.130825" style="fill: #2563eb; stroke: #2563eb"/>
     <use xlink:href="#me5719f213c" x="448.793241" y="81.893193" style="fill: #2563eb; stroke: #2563eb"/>
     <use xlink:href="#me5719f213c" x="453.616059" y="79.655561" style="fill: #2563eb; stroke: #2563eb"/>
     <use xlink:href="#me5719f213c" x="455.808248" y="76.672052" style="fill: #2563eb; stroke: #2563eb"/>
     <use xlink:href="#me5719f213c" x="459.315752" y="75.926174" style="fill: #2563eb; stroke: #2563eb"/>
     <use xlink:href="#me5719f213c" x="462.823256" y="74.43442" style="fill: #2563eb; stroke: #2563eb"/>
     <use xlink:href="#me5719f213c" x="463.700132" y="72.942665" style="fill: #2563eb; stroke: #2563eb"/>
     <use xlink:href="#me5719f213c" x="470.715139" y="72.196787" style="fill: #2563eb; stroke: #2563eb"/>
     <use xlink:href="#me5719f213c" x="472.030453" y="69.213278" style="fill: #2563eb; stroke: #2563eb"/>
     <use xlink:href="#me5719f213c" x="472.030453" y="68.467401" style="fill: #2563eb; stroke: #2563eb"/>
     <use xlink:href="#me5719f213c" x="472.468891" y="67.721523" style="fill: #2563eb; stroke: #2563eb"/>
     <use xlink:href="#me5719f213c" x="474.222643" y="64.738014" style="fill: #2563eb; stroke: #2563eb"/>
     <use xlink:href="#me5719f213c" x="474.661081" y="63.992136" style="fill: #2563eb; stroke: #2563eb"/>
     <use xlink:href="#me5719f213c" x="481.23765" y="61.008627" style="fill: #2563eb; stroke: #2563eb"/>
     <use xlink:href="#me5719f213c" x="482.552964" y="60.262749" style="fill: #2563eb; stroke: #2563eb"/>
     <use xlink:href="#me5719f213c" x="488.252658" y="59.516872" style="fill: #2563eb; stroke: #2563eb"/>
     <use xlink:href="#me5719f213c" x="489.129534" y="55.041608" style="fill: #2563eb; stroke: #2563eb"/>
     <use xlink:href="#me5719f213c" x="496.144541" y="52.803976" style="fill: #2563eb; stroke: #2563eb"/>
     <use xlink:href="#me5719f213c" x="504.036425" y="48.328711" style="fill: #2563eb; stroke: #2563eb"/>
     <use xlink:href="#me5719f213c" x="517.628002" y="47.582834" style="fill: #2563eb; stroke: #2563eb"/>
     <use xlink:href="#me5719f213c" x="521.135505" y="44.599324" style="fill: #2563eb; stroke: #2563eb"/>
     <use xlink:href="#me5719f213c" x="536.480834" y="43.853447" style="fill: #2563eb; stroke: #2563eb"/>
     <use xlink:href="#me5719f213c" x="584.270573" y="43.10757" style="fill: #2563eb; stroke: #2563eb"/>
     <use xlink:href="#me5719f213c" x="585.147449" y="41.615815" style="fill: #2563eb; stroke: #2563eb"/>
     <use xlink:href="#me5719f213c" x="591.724018" y="40.869937" style="fill: #2563eb; stroke: #2563eb"/>
    </g>
   </g>
   <g id="line2d_14">
    <path d="M 86.205043 393.669937 
L 87.081919 392.92406 
L 87.081919 392.178183 
L 87.081919 391.432305 
L 87.081919 390.686428 
L 87.958794 389.940551 
L 89.712546 387.702918 
L 91.466298 386.957041 
L 93.658488 383.973532 
L 93.658488 379.498267 
L 94.096926 375.76888 
L 96.289116 375.023003 
L 96.727554 369.801861 
L 99.79662 366.818352 
L 102.865685 361.59721 
L 105.496313 358.613701 
L 107.688503 355.630191 
L 109.003817 354.138436 
L 109.880693 353.392559 
L 111.634445 351.900804 
L 111.634445 351.154927 
L 112.072883 350.40905 
L 112.072883 349.663172 
L 114.70351 347.42554 
L 114.70351 346.679663 
L 115.141948 345.933785 
L 118.211014 342.950276 
L 119.08789 340.712644 
L 122.595394 338.475011 
L 123.033832 336.237379 
L 123.033832 333.999747 
L 123.033832 331.762115 
L 126.102898 328.778606 
L 130.048839 328.032728 
L 131.364153 325.049219 
L 131.364153 324.303341 
L 133.994781 322.811587 
L 133.994781 320.573954 
L 134.871657 319.828077 
L 135.748533 318.336322 
L 136.186971 317.590445 
L 137.063847 316.844568 
L 137.940723 314.606935 
L 140.132912 313.861058 
L 140.132912 313.115181 
L 141.009788 312.369303 
L 143.201978 310.131671 
L 144.517292 307.894039 
L 146.271044 306.402284 
L 146.709482 305.656407 
L 146.709482 304.910529 
L 149.34011 304.164652 
L 149.34011 303.418775 
L 150.655424 302.672897 
L 150.655424 301.92702 
L 151.5323 301.181143 
L 151.970738 300.435265 
L 153.286051 299.689388 
L 155.478241 298.94351 
L 156.793555 298.197633 
L 158.547307 295.960001 
L 159.862621 295.214124 
L 160.301059 293.722369 
L 161.177935 292.976491 
L 162.493249 292.230614 
L 163.370125 291.484737 
L 163.808563 290.738859 
L 164.685439 289.247105 
L 165.562315 288.501227 
L 166.000753 287.75535 
L 167.316066 287.009472 
L 167.754504 286.263595 
L 169.069818 285.517718 
L 169.069818 284.77184 
L 170.385132 284.025963 
L 170.82357 283.280085 
L 172.577322 282.534208 
L 172.577322 281.788331 
L 173.454198 281.042453 
L 176.961702 280.296576 
L 178.277016 279.550699 
L 180.030767 278.058944 
L 180.907643 277.313066 
L 183.538271 276.567189 
" clip-path="url(#p170d948e3f)" style="fill: none; stroke: #dc2626; stroke-width: 2; stroke-linecap: round"/>
    <defs>
     <path id="meafaad5122" d="M 0 2 
C 0.530406 2 1.03916 1.789267 1.414214 1.414214 
C 1.789267 1.03916 2 0.530406 2 0 
C 2 -0.530406 1.789267 -1.03916 1.414214 -1.414214 
C 1.03916 -1.789267 0.530406 -2 0 -2 
C -0.530406 -2 -1.03916 -1.789267 -1.414214 -1.414214 
C -1.789267 -1.03916 -2 -0.530406 -2 0 
C -2 0.530406 -1.789267 1.03916 -1.414214 1.414214 
C -1.03916 1.789267 -0.530406 2 0 2 
z
" style="stroke: #dc2626"/>
    </defs>
    <g clip-path="url(#p170d948e3f)">
     <use xlink:href="#meafaad5122" x="86.205043" y="393.669937" style="fill: #dc2626; stroke: #dc2626"/>
     <use xlink:href="#meafaad5122" x="87.081919" y="392.92406" style="fill: #dc2626; stroke: #dc2626"/>
     <use xlink:href="#meafaad5122" x="87.081919" y="392.178183" style="fill: #dc2626; stroke: #dc2626"/>
     <use xlink:href="#meafaad5122" x="87.081919" y="391.432305" style="fill: #dc2626; stroke: #dc2626"/>
     <use xlink:href="#meafaad5122" x="87.081919" y="390.686428" style="fill: #dc2626; stroke: #dc2626"/>
     <use xlink:href="#meafaad5122" x="87.958794" y="389.940551" style="fill: #dc2626; stroke: #dc2626"/>
     <use xlink:href="#meafaad5122" x="89.712546" y="387.702918" style="fill: #dc2626; stroke: #dc2626"/>
     <use xlink:href="#meafaad5122" x="91.466298" y="386.957041" style="fill: #dc2626; stroke: #dc2626"/>
     <use xlink:href="#meafaad5122" x="93.658488" y="383.973532" style="fill: #dc2626; stroke: #dc2626"/>
     <use xlink:href="#meafaad5122" x="93.658488" y="379.498267" style="fill: #dc2626; stroke: #dc2626"/>
     <use xlink:href="#meafaad5122" x="94.096926" y="375.76888" style="fill: #dc2626; stroke: #dc2626"/>
     <use xlink:href="#meafaad5122" x="96.289116" y="375.023003" style="fill: #dc2626; stroke: #dc2626"/>
     <use xlink:href="#meafaad5122" x="96.727554" y="369.801861" style="fill: #dc2626; stroke: #dc2626"/>
     <use xlink:href="#meafaad5122" x="99.79662" y="366.818352" style="fill: #dc2626; stroke: #dc2626"/>
     <use xlink:href="#meafaad5122" x="102.865685" y="361.59721" style="fill: #dc2626; stroke: #dc2626"/>
     <use xlink:href="#meafaad5122" x="105.496313" y="358.613701" style="fill: #dc2626; stroke: #dc2626"/>
     <use xlink:href="#meafaad5122" x="107.688503" y="355.630191" style="fill: #dc2626; stroke: #dc2626"/>
     <use xlink:href="#meafaad5122" x="109.003817" y="354.138436" style="fill: #dc2626; stroke: #dc2626"/>
     <use xlink:href="#meafaad5122" x="109.880693" y="353.392559" style="fill: #dc2626; stroke: #dc2626"/>
     <use xlink:href="#meafaad5122" x="111.634445" y="351.900804" style="fill: #dc2626; stroke: #dc2626"/>
     <use xlink:href="#meafaad5122" x="111.634445" y="351.154927" style="fill: #dc2626; stroke: #dc2626"/>
     <use xlink:href="#meafaad5122" x="112.072883" y="350.40905" style="fill: #dc2626; stroke: #dc2626"/>
     <use xlink:href="#meafaad5122" x="112.072883" y="349.663172" style="fill: #dc2626; stroke: #dc2626"/>
     <use xlink:href="#meafaad5122" x="114.70351" y="347.42554" style="fill: #dc2626; stroke: #dc2626"/>
     <use xlink:href="#meafaad5122" x="114.70351" y="346.679663" style="fill: #dc2626; stroke: #dc2626"/>
     <use xlink:href="#meafaad5122" x="115.141948" y="345.933785" style="fill: #dc2626; stroke: #dc2626"/>
     <use xlink:href="#meafaad5122" x="118.211014" y="342.950276" style="fill: #dc2626; stroke: #dc2626"/>
     <use xlink:href="#meafaad5122" x="119.08789" y="340.712644" style="fill: #dc2626; stroke: #dc2626"/>
     <use xlink:href="#meafaad5122" x="122.595394" y="338.475011" style="fill: #dc2626; stroke: #dc2626"/>
     <use xlink:href="#meafaad5122" x="123.033832" y="336.237379" style="fill: #dc2626; stroke: #dc2626"/>
     <use xlink:href="#meafaad5122" x="123.033832" y="333.999747" style="fill: #dc2626; stroke: #dc2626"/>
     <use xlink:href="#meafaad5122" x="123.033832" y="331.762115" style="fill: #dc2626; stroke: #dc2626"/>
     <use xlink:href="#meafaad5122" x="126.102898" y="328.778606" style="fill: #dc2626; stroke: #dc2626"/>
     <use xlink:href="#meafaad5122" x="130.048839" y="328.032728" style="fill: #dc2626; stroke: #dc2626"/>
     <use xlink:href="#meafaad5122" x="131.364153" y="325.049219" style="fill: #dc2626; stroke: #dc2626"/>
     <use xlink:href="#meafaad5122" x="131.364153" y="324.303341" style="fill: #dc2626; stroke: #dc2626"/>
     <use xlink:href="#meafaad5122" x="133.994781" y="322.811587" style="fill: #dc2626; stroke: #dc2626"/>
     <use xlink:href="#meafaad5122" x="133.994781" y="320.573954" style="fill: #dc2626; stroke: #dc2626"/>
     <use xlink:href="#meafaad5122" x="134.871657" y="319.828077" style="fill: #dc2626; stroke: #dc2626"/>
     <use xlink:href="#meafaad5122" x="135.748533" y="318.336322" style="fill: #dc2626; stroke: #dc2626"/>
     <use xlink:href="#meafaad5122" x="136.186971" y="317.590445" style="fill: #dc2626; stroke: #dc2626"/>
     <use xlink:href="#meafaad5122" x="137.063847" y="316.844568" style="fill: #dc2626; stroke: #dc2626"/>
     <use xlink:href="#meafaad5122" x="137.940723" y="314.606935" style="fill: #dc2626; stroke: #dc2626"/>
     <use xlink:href="#meafaad5122" x="140.132912" y="313.861058" style="fill: #dc2626; stroke: #dc2626"/>
     <use xlink:href="#meafaad5122" x="140.132912" y="313.115181" style="fill: #dc2626; stroke: #dc2626"/>
     <use xlink:href="#meafaad5122" x="141.009788" y="312.369303" style="fill: #dc2626; stroke: #dc2626"/>
     <use xlink:href="#meafaad5122" x="143.201978" y="310.131671" style="fill: #dc2626; stroke: #dc2626"/>
     <use xlink:href="#meafaad5122" x="144.517292" y="307.894039" style="fill: #dc2626; stroke: #dc2626"/>
     <use xlink:href="#meafaad5122" x="146.271044" y="306.402284" style="fill: #dc2626; stroke: #dc2626"/>
     <use xlink:href="#meafaad5122" x="146.709482" y="305.656407" style="fill: #dc2626; stroke: #dc2626"/>
     <use xlink:href="#meafaad5122" x="146.709482" y="304.910529" style="fill: #dc2626; stroke: #dc2626"/>
     <use xlink:href="#meafaad5122" x="149.34011" y="304.164652" style="fill: #dc2626; stroke: #dc2626"/>
     <use xlink:href="#meafaad5122" x="149.34011" y="303.418775" style="fill: #dc2626; stroke: #dc2626"/>
     <use xlink:href="#meafaad5122" x="150.655424" y="302.672897" style="fill: #dc2626; stroke: #dc2626"/>
     <use xlink:href="#meafaad5122" x="150.655424" y="301.92702" style="fill: #dc2626; stroke: #dc2626"/>
     <use xlink:href="#meafaad5122" x="151.5323" y="301.181143" style="fill: #dc2626; stroke: #dc2626"/>
     <use xlink:href="#meafaad5122" x="151.970738" y="300.435265" style="fill: #dc2626; stroke: #dc2626"/>
     <use xlink:href="#meafaad5122" x="153.286051" y="299.689388" style="fill: #dc2626; stroke: #dc2626"/>
     <use xlink:href="#meafaad5122" x="155.478241" y="298.94351" style="fill: #dc2626; stroke: #dc2626"/>
     <use xlink:href="#meafaad5122" x="156.793555" y="298.197633" style="fill: #dc2626; stroke: #dc2626"/>
     <use xlink:href="#meafaad5122" x="158.547307" y="295.960001" style="fill: #dc2626; stroke: #dc2626"/>
     <use xlink:href="#meafaad5122" x="159.862621" y="295.214124" style="fill: #dc2626; stroke: #dc2626"/>
     <use xlink:href="#meafaad5122" x="160.301059" y="293.722369" style="fill: #dc2626; stroke: #dc2626"/>
     <use xlink:href="#meafaad5122" x="161.177935" y="292.976491" style="fill: #dc2626; stroke: #dc2626"/>
     <use xlink:href="#meafaad5122" x="162.493249" y="292.230614" style="fill: #dc2626; stroke: #dc2626"/>
     <use xlink:href="#meafaad5122" x="163.370125" y="291.484737" style="fill: #dc2626; stroke: #dc2626"/>
     <use xlink:href="#meafaad5122" x="163.808563" y="290.738859" style="fill: #dc2626; stroke: #dc2626"/>
     <use xlink:href="#meafaad5122" x="164.685439" y="289.247105" style="fill: #dc2626; stroke: #dc2626"/>
     <use xlink:href="#meafaad5122" x="165.562315" y="288.501227" style="fill: #dc2626; stroke: #dc2626"/>
     <use xlink:href="#meafaad5122" x="166.000753" y="287.75535" style="fill: #dc2626; stroke: #dc2626"/>
     <use xlink:href="#meafaad5122" x="167.316066" y="287.009472" style="fill: #dc2626; stroke: #dc2626"/>
     <use xlink:href="#meafaad5122" x="167.754504" y="286.263595" style="fill: #dc2626; stroke: #dc2626"/>
     <use xlink:href="#meafaad5122" x="169.069818" y="285.517718" style="fill: #dc2626; stroke: #dc2626"/>
     <use xlink:href="#meafaad5122" x="169.069818" y="284.77184" style="fill: #dc2626; stroke: #dc2626"/>
     <use xlink:href="#meafaad5122" x="170.385132" y="284.025963" style="fill: #dc2626; stroke: #dc2626"/>
     <use xlink:href="#meafaad5122" x="170.82357" y="283.280085" style="fill: #dc2626; stroke: #dc2626"/>
     <use xlink:href="#meafaad5122" x="172.577322" y="282.534208" style="fill: #dc2626; stroke: #dc2626"/>
     <use xlink:href="#meafaad5122" x="172.577322" y="281.788331" style="fill: #dc2626; stroke: #dc2626"/>
     <use xlink:href="#meafaad5122" x="173.454198" y="281.042453" style="fill: #dc2626; stroke: #dc2626"/>
     <use xlink:href="#meafaad5122" x="176.961702" y="280.296576" style="fill: #dc2626; stroke: #dc2626"/>
     <use xlink:href="#meafaad5122" x="178.277016" y="279.550699" style="fill: #dc2626; stroke: #dc2626"/>
     <use xlink:href="#meafaad5122" x="180.030767" y="278.058944" style="fill: #dc2626; stroke: #dc2626"/>
     <use xlink:href="#meafaad5122" x="180.907643" y="277.313066" style="fill: #dc2626; stroke: #dc2626"/>
     <use xlink:href="#meafaad5122" x="183.538271" y="276.567189" style="fill: #dc2626; stroke: #dc2626"/>
    </g>
   </g>
   <g id="patch_3">
    <path d="M 60.841406 411.309937 
L 60.841406 23.229938 
" style="fill: none; stroke: #cccccc; stroke-width: 1.25; stroke-linejoin: miter; stroke-linecap: square"/>
   </g>
   <g id="patch_4">
    <path d="M 618.841406 411.309937 
L 618.841406 23.229938 
" style="fill: none; stroke: #cccccc; stroke-width: 1.25; stroke-linejoin: miter; stroke-linecap: square"/>
   </g>
   <g id="patch_5">
    <path d="M 60.841406 411.309937 
L 618.841406 411.309937 
" style="fill: none; stroke: #cccccc; stroke-width: 1.25; stroke-linejoin: miter; stroke-linecap: square"/>
   </g>
   <g id="patch_6">
    <path d="M 60.841406 23.229938 
L 618.841406 23.229938 
" style="fill: none; stroke: #cccccc; stroke-width: 1.25; stroke-linejoin: miter; stroke-linecap: square"/>
   </g>
   <g id="text_15">
    <!-- Pareto Frontiers: Score vs Overhead — US -->
    <g style="fill: #262626" transform="translate(201.621937 17.229938) scale(0.132 -0.132)">
     <defs>
      <path id="DejaVuSans-33" d="M 1259 4147 
L 1259 2394 
L 2053 2394 
Q 2494 2394 2734 2622 
Q 2975 2850 2975 3272 
Q 2975 3691 2734 3919 
Q 2494 4147 2053 4147 
L 1259 4147 
z
M 628 4666 
L 2053 4666 
Q 2838 4666 3239 4311 
Q 3641 3956 3641 3272 
Q 3641 2581 3239 2228 
Q 2838 1875 2053 1875 
L 1259 1875 
L 1259 0 
L 628 0 
L 628 4666 
z
" transform="scale(0.015625)"/>
      <path id="DejaVuSans-57" d="M 1172 4494 
L 1172 3500 
L 2356 3500 
L 2356 3053 
L 1172 3053 
L 1172 1153 
Q 1172 725 1289 603 
Q 1406 481 1766 481 
L 2356 481 
L 2356 0 
L 1766 0 
Q 1100 0 847 248 
Q 594 497 594 1153 
L 594 3053 
L 172 3053 
L 172 3500 
L 594 3500 
L 594 4494 
L 1172 4494 
z
" transform="scale(0.015625)"/>
      <path id="DejaVuSans-29" d="M 628 4666 
L 3309 4666 
L 3309 4134 
L 1259 4134 
L 1259 2759 
L 3109 2759 
L 3109 2228 
L 1259 2228 
L 1259 0 
L 628 0 
L 628 4666 
z
" transform="scale(0.015625)"/>
      <path id="DejaVuSans-51" d="M 3513 2113 
L 3513 0 
L 2938 0 
L 2938 2094 
Q 2938 2591 2744 2837 
Q 2550 3084 2163 3084 
Q 1697 3084 1428 2787 
Q 1159 2491 1159 1978 
L 1159 0 
L 581 0 
L 581 3500 
L 1159 3500 
L 1159 2956 
Q 1366 3272 1645 3428 
Q 1925 3584 2291 3584 
Q 2894 3584 3203 3211 
Q 3513 2838 3513 2113 
z
" transform="scale(0.015625)"/>
      <path id="DejaVuSans-56" d="M 2834 3397 
L 2834 2853 
Q 2591 2978 2328 3040 
Q 2066 3103 1784 3103 
Q 1356 3103 1142 2972 
Q 928 2841 928 2578 
Q 928 2378 1081 2264 
Q 1234 2150 1697 2047 
L 1894 2003 
Q 2506 1872 2764 1633 
Q 3022 1394 3022 966 
Q 3022 478 2636 193 
Q 2250 -91 1575 -91 
Q 1294 -91 989 -36 
Q 684 19 347 128 
L 347 722 
Q 666 556 975 473 
Q 1284 391 1588 391 
Q 1994 391 2212 530 
Q 2431 669 2431 922 
Q 2431 1156 2273 1281 
Q 2116 1406 1581 1522 
L 1381 1569 
Q 847 1681 609 1914 
Q 372 2147 372 2553 
Q 372 3047 722 3315 
Q 1072 3584 1716 3584 
Q 2034 3584 2315 3537 
Q 2597 3491 2834 3397 
z
" transform="scale(0.015625)"/>
      <path id="DejaVuSans-1d" d="M 750 794 
L 1409 794 
L 1409 0 
L 750 0 
L 750 794 
z
M 750 3309 
L 1409 3309 
L 1409 2516 
L 750 2516 
L 750 3309 
z
" transform="scale(0.015625)"/>
      <path id="DejaVuSans-af6" d="M 313 1978 
L 6088 1978 
L 6088 1528 
L 313 1528 
L 313 1978 
z
" transform="scale(0.015625)"/>
      <path id="DejaVuSans-38" d="M 556 4666 
L 1191 4666 
L 1191 1831 
Q 1191 1081 1462 751 
Q 1734 422 2344 422 
Q 2950 422 3222 751 
Q 3494 1081 3494 1831 
L 3494 4666 
L 4128 4666 
L 4128 1753 
Q 4128 841 3676 375 
Q 3225 -91 2344 -91 
Q 1459 -91 1007 375 
Q 556 841 556 1753 
L 556 4666 
z
" transform="scale(0.015625)"/>
     </defs>
     <use xlink:href="#DejaVuSans-33"/>
     <use xlink:href="#DejaVuSans-44" transform="translate(55.8125 0)"/>
     <use xlink:href="#DejaVuSans-55" transform="translate(117.09375 0)"/>
     <use xlink:href="#DejaVuSans-48" transform="translate(156 0)"/>
     <use xlink:href="#DejaVuSans-57" transform="translate(217.53125 0)"/>
     <use xlink:href="#DejaVuSans-52" transform="translate(256.734375 0)"/>
     <use xlink:href="#DejaVuSans-3" transform="translate(317.921875 0)"/>
     <use xlink:href="#DejaVuSans-29" transform="translate(349.703125 0)"/>
     <use xlink:href="#DejaVuSans-55" transform="translate(399.9375 0)"/>
     <use xlink:href="#DejaVuSans-52" transform="translate(438.84375 0)"/>
     <use xlink:href="#DejaVuSans-51" transform="translate(500.03125 0)"/>
     <use xlink:href="#DejaVuSans-57" transform="translate(563.40625 0)"/>
     <use xlink:href="#DejaVuSans-4c" transform="translate(602.609375 0)"/>
     <use xlink:href="#DejaVuSans-48" transform="translate(630.390625 0)"/>
     <use xlink:href="#DejaVuSans-55" transform="translate(691.921875 0)"/>
     <use xlink:href="#DejaVuSans-56" transform="translate(733.03125 0)"/>
     <use xlink:href="#DejaVuSans-1d" transform="translate(785.125 0)"/>
     <use xlink:href="#DejaVuSans-3" transform="translate(818.8125 0)"/>
     <use xlink:href="#DejaVuSans-36" transform="translate(850.59375 0)"/>
     <use xlink:href="#DejaVuSans-46" transform="translate(914.078125 0)"/>
     <use xlink:href="#DejaVuSans-52" transform="translate(969.0625 0)"/>
     <use xlink:href="#DejaVuSans-55" transform="translate(1030.25 0)"/>
     <use xlink:href="#DejaVuSans-48" transform="translate(1069.15625 0)"/>
     <use xlink:href="#DejaVuSans-3" transform="translate(1130.6875 0)"/>
     <use xlink:href="#DejaVuSans-59" transform="translate(1162.46875 0)"/>
     <use xlink:href="#DejaVuSans-56" transform="translate(1221.65625 0)"/>
     <use xlink:href="#DejaVuSans-3" transform="translate(1273.75 0)"/>
     <use xlink:href="#DejaVuSans-32" transform="translate(1305.53125 0)"/>
     <use xlink:href="#DejaVuSans-59" transform="translate(1384.25 0)"/>
     <use xlink:href="#DejaVuSans-48" transform="translate(1443.4375 0)"/>
     <use xlink:href="#DejaVuSans-55" transform="translate(1504.96875 0)"/>
     <use xlink:href="#DejaVuSans-4b" transform="translate(1544.328125 0)"/>
     <use xlink:href="#DejaVuSans-48" transform="translate(1607.703125 0)"/>
     <use xlink:href="#DejaVuSans-44" transform="translate(1669.234375 0)"/>
     <use xlink:href="#DejaVuSans-47" transform="translate(1730.515625 0)"/>
     <use xlink:href="#DejaVuSans-3" transform="translate(1794 0)"/>
     <use xlink:href="#DejaVuSans-af6" transform="translate(1825.78125 0)"/>
     <use xlink:href="#DejaVuSans-3" transform="translate(1925.78125 0)"/>
     <use xlink:href="#DejaVuSans-38" transform="translate(1957.5625 0)"/>
     <use xlink:href="#DejaVuSans-36" transform="translate(2030.75 0)"/>
    </g>
   </g>
   <g id="legend_1">
    <g id="patch_7">
     <path d="M 465.301406 406.809937 
L 612.541406 406.809937 
Q 614.341406 406.809937 614.341406 405.009937 
L 614.341406 351.907125 
Q 614.341406 350.107125 612.541406 350.107125 
L 465.301406 350.107125 
Q 463.501406 350.107125 463.501406 351.907125 
L 463.501406 405.009937 
Q 463.501406 406.809937 465.301406 406.809937 
z
" style="fill: #ffffff; opacity: 0.8; stroke: #cccccc; stroke-linejoin: miter"/>
    </g>
    <g id="line2d_15">
     <path d="M 467.101406 357.395719 
L 476.101406 357.395719 
L 485.101406 357.395719 
" style="fill: none; stroke: #2563eb; stroke-width: 2; stroke-linecap: round"/>
     <g>
      <use xlink:href="#me5719f213c" x="476.101406" y="357.395719" style="fill: #2563eb; stroke: #2563eb"/>
     </g>
    </g>
    <g id="text_16">
     <!-- DeepSeek V3 frontier -->
     <g style="fill: #262626" transform="translate(492.301406 360.545719) scale(0.09 -0.09)">
      <defs>
       <path id="DejaVuSans-27" d="M 1259 4147 
L 1259 519 
L 2022 519 
Q 2988 519 3436 956 
Q 3884 1394 3884 2338 
Q 3884 3275 3436 3711 
Q 2988 4147 2022 4147 
L 1259 4147 
z
M 628 4666 
L 1925 4666 
Q 3281 4666 3915 4102 
Q 4550 3538 4550 2338 
Q 4550 1131 3912 565 
Q 3275 0 1925 0 
L 628 0 
L 628 4666 
z
" transform="scale(0.015625)"/>
       <path id="DejaVuSans-53" d="M 1159 525 
L 1159 -1331 
L 581 -1331 
L 581 3500 
L 1159 3500 
L 1159 2969 
Q 1341 3281 1617 3432 
Q 1894 3584 2278 3584 
Q 2916 3584 3314 3078 
Q 3713 2572 3713 1747 
Q 3713 922 3314 415 
Q 2916 -91 2278 -91 
Q 1894 -91 1617 61 
Q 1341 213 1159 525 
z
M 3116 1747 
Q 3116 2381 2855 2742 
Q 2594 3103 2138 3103 
Q 1681 3103 1420 2742 
Q 1159 2381 1159 1747 
Q 1159 1113 1420 752 
Q 1681 391 2138 391 
Q 2594 391 2855 752 
Q 3116 1113 3116 1747 
z
" transform="scale(0.015625)"/>
       <path id="DejaVuSans-4e" d="M 581 4863 
L 1159 4863 
L 1159 1991 
L 2875 3500 
L 3609 3500 
L 1753 1863 
L 3688 0 
L 2938 0 
L 1159 1709 
L 1159 0 
L 581 0 
L 581 4863 
z
" transform="scale(0.015625)"/>
       <path id="DejaVuSans-39" d="M 1831 0 
L 50 4666 
L 709 4666 
L 2188 738 
L 3669 4666 
L 4325 4666 
L 2547 0 
L 1831 0 
z
" transform="scale(0.015625)"/>
       <path id="DejaVuSans-49" d="M 2375 4863 
L 2375 4384 
L 1825 4384 
Q 1516 4384 1395 4259 
Q 1275 4134 1275 3809 
L 1275 3500 
L 2222 3500 
L 2222 3053 
L 1275 3053 
L 1275 0 
L 697 0 
L 697 3053 
L 147 3053 
L 147 3500 
L 697 3500 
L 697 3744 
Q 697 4328 969 4595 
Q 1241 4863 1831 4863 
L 2375 4863 
z
" transform="scale(0.015625)"/>
      </defs>
      <use xlink:href="#DejaVuSans-27"/>
      <use xlink:href="#DejaVuSans-48" transform="translate(77 0)"/>
      <use xlink:href="#DejaVuSans-48" transform="translate(138.53125 0)"/>
      <use xlink:href="#DejaVuSans-53" transform="translate(200.0625 0)"/>
      <use xlink:href="#DejaVuSans-36" transform="translate(263.546875 0)"/>
      <use xlink:href="#DejaVuSans-48" transform="translate(327.03125 0)"/>
      <use xlink:href="#DejaVuSans-48" transform="translate(388.5625 0)"/>
      <use xlink:href="#DejaVuSans-4e" transform="translate(450.09375 0)"/>
      <use xlink:href="#DejaVuSans-3" transform="translate(508 0)"/>
      <use xlink:href="#DejaVuSans-39" transform="translate(539.78125 0)"/>
      <use xlink:href="#DejaVuSans-16" transform="translate(608.1875 0)"/>
      <use xlink:href="#DejaVuSans-3" transform="translate(671.8125 0)"/>
      <use xlink:href="#DejaVuSans-49" transform="translate(703.59375 0)"/>
      <use xlink:href="#DejaVuSans-55" transform="translate(738.796875 0)"/>
      <use xlink:href="#DejaVuSans-52" transform="translate(777.703125 0)"/>
      <use xlink:href="#DejaVuSans-51" transform="translate(838.890625 0)"/>
      <use xlink:href="#DejaVuSans-57" transform="translate(902.265625 0)"/>
      <use xlink:href="#DejaVuSans-4c" transform="translate(941.46875 0)"/>
      <use xlink:href="#DejaVuSans-48" transform="translate(969.25 0)"/>
      <use xlink:href="#DejaVuSans-55" transform="translate(1030.78125 0)"/>
     </g>
    </g>
    <g id="PathCollection_1">
     <defs>
      <path id="m829df93f5f" d="M 0 -7.071068 
L -1.587554 -2.18508 
L -6.724985 -2.18508 
L -2.568716 0.834626 
L -4.156269 5.720614 
L -0 2.700907 
L 4.156269 5.720614 
L 2.568716 0.834626 
L 6.724985 -2.18508 
L 1.587554 -2.18508 
z
" style="stroke: #000000"/>
     </defs>
     <g>
      <use xlink:href="#m829df93f5f" x="476.101406" y="371.683922" style="fill: #ff0000; stroke: #000000"/>
     </g>
    </g>
    <g id="text_17">
     <!-- DeepSeek V3 best (0.547) -->
     <g style="fill: #262626" transform="translate(492.301406 374.046422) scale(0.09 -0.09)">
      <defs>
       <path id="DejaVuSans-45" d="M 3116 1747 
Q 3116 2381 2855 2742 
Q 2594 3103 2138 3103 
Q 1681 3103 1420 2742 
Q 1159 2381 1159 1747 
Q 1159 1113 1420 752 
Q 1681 391 2138 391 
Q 2594 391 2855 752 
Q 3116 1113 3116 1747 
z
M 1159 2969 
Q 1341 3281 1617 3432 
Q 1894 3584 2278 3584 
Q 2916 3584 3314 3078 
Q 3713 2572 3713 1747 
Q 3713 922 3314 415 
Q 2916 -91 2278 -91 
Q 1894 -91 1617 61 
Q 1341 213 1159 525 
L 1159 0 
L 581 0 
L 581 4863 
L 1159 4863 
L 1159 2969 
z
" transform="scale(0.015625)"/>
       <path id="DejaVuSans-1a" d="M 525 4666 
L 3525 4666 
L 3525 4397 
L 1831 0 
L 1172 0 
L 2766 4134 
L 525 4134 
L 525 4666 
z
" transform="scale(0.015625)"/>
      </defs>
      <use xlink:href="#DejaVuSans-27"/>
      <use xlink:href="#DejaVuSans-48" transform="translate(77 0)"/>
      <use xlink:href="#DejaVuSans-48" transform="translate(138.53125 0)"/>
      <use xlink:href="#DejaVuSans-53" transform="translate(200.0625 0)"/>
      <use xlink:href="#DejaVuSans-36" transform="translate(263.546875 0)"/>
      <use xlink:href="#DejaVuSans-48" transform="translate(327.03125 0)"/>
      <use xlink:href="#DejaVuSans-48" transform="translate(388.5625 0)"/>
      <use xlink:href="#DejaVuSans-4e" transform="translate(450.09375 0)"/>
      <use xlink:href="#DejaVuSans-3" transform="translate(508 0)"/>
      <use xlink:href="#DejaVuSans-39" transform="translate(539.78125 0)"/>
      <use xlink:href="#DejaVuSans-16" transform="translate(608.1875 0)"/>
      <use xlink:href="#DejaVuSans-3" transform="translate(671.8125 0)"/>
      <use xlink:href="#DejaVuSans-45" transform="translate(703.59375 0)"/>
      <use xlink:href="#DejaVuSans-48" transform="translate(767.078125 0)"/>
      <use xlink:href="#DejaVuSans-56" transform="translate(828.609375 0)"/>
      <use xlink:href="#DejaVuSans-57" transform="translate(880.703125 0)"/>
      <use xlink:href="#DejaVuSans-3" transform="translate(919.90625 0)"/>
      <use xlink:href="#DejaVuSans-b" transform="translate(951.6875 0)"/>
      <use xlink:href="#DejaVuSans-13" transform="translate(990.703125 0)"/>
      <use xlink:href="#DejaVuSans-11" transform="translate(1054.328125 0)"/>
      <use xlink:href="#DejaVuSans-18" transform="translate(1086.109375 0)"/>
      <use xlink:href="#DejaVuSans-17" transform="translate(1149.734375 0)"/>
      <use xlink:href="#DejaVuSans-1a" transform="translate(1213.359375 0)"/>
      <use xlink:href="#DejaVuSans-c" transform="translate(1276.984375 0)"/>
     </g>
    </g>
    <g id="line2d_16">
     <path d="M 467.101406 384.397125 
L 476.101406 384.397125 
L 485.101406 384.397125 
" style="fill: none; stroke: #dc2626; stroke-width: 2; stroke-linecap: round"/>
     <g>
      <use xlink:href="#meafaad5122" x="476.101406" y="384.397125" style="fill: #dc2626; stroke: #dc2626"/>
     </g>
    </g>
    <g id="text_18">
     <!-- Kimi K2 frontier -->
     <g style="fill: #262626" transform="translate(492.301406 387.547125) scale(0.09 -0.09)">
      <defs>
       <path id="DejaVuSans-2e" d="M 628 4666 
L 1259 4666 
L 1259 2694 
L 3353 4666 
L 4166 4666 
L 1850 2491 
L 4331 0 
L 3500 0 
L 1259 2247 
L 1259 0 
L 628 0 
L 628 4666 
z
" transform="scale(0.015625)"/>
      </defs>
      <use xlink:href="#DejaVuSans-2e"/>
      <use xlink:href="#DejaVuSans-4c" transform="translate(65.578125 0)"/>
      <use xlink:href="#DejaVuSans-50" transform="translate(93.359375 0)"/>
      <use xlink:href="#DejaVuSans-4c" transform="translate(190.765625 0)"/>
      <use xlink:href="#DejaVuSans-3" transform="translate(218.546875 0)"/>
      <use xlink:href="#DejaVuSans-2e" transform="translate(250.328125 0)"/>
      <use xlink:href="#DejaVuSans-15" transform="translate(315.90625 0)"/>
      <use xlink:href="#DejaVuSans-3" transform="translate(379.53125 0)"/>
      <use xlink:href="#DejaVuSans-49" transform="translate(411.3125 0)"/>
      <use xlink:href="#DejaVuSans-55" transform="translate(446.515625 0)"/>
      <use xlink:href="#DejaVuSans-52" transform="translate(485.421875 0)"/>
      <use xlink:href="#DejaVuSans-51" transform="translate(546.609375 0)"/>
      <use xlink:href="#DejaVuSans-57" transform="translate(609.984375 0)"/>
      <use xlink:href="#DejaVuSans-4c" transform="translate(649.1875 0)"/>
      <use xlink:href="#DejaVuSans-48" transform="translate(676.96875 0)"/>
      <use xlink:href="#DejaVuSans-55" transform="translate(738.5 0)"/>
     </g>
    </g>
    <g id="PathCollection_2">
     <g>
      <use xlink:href="#m829df93f5f" x="476.101406" y="398.685328" style="fill: #ff0000; stroke: #000000"/>
     </g>
    </g>
    <g id="text_19">
     <!-- Kimi K2 best (0.516) -->
     <g style="fill: #262626" transform="translate(492.301406 401.047828) scale(0.09 -0.09)">
      <use xlink:href="#DejaVuSans-2e"/>
      <use xlink:href="#DejaVuSans-4c" transform="translate(65.578125 0)"/>
      <use xlink:href="#DejaVuSans-50" transform="translate(93.359375 0)"/>
      <use xlink:href="#DejaVuSans-4c" transform="translate(190.765625 0)"/>
      <use xlink:href="#DejaVuSans-3" transform="translate(218.546875 0)"/>
      <use xlink:href="#DejaVuSans-2e" transform="translate(250.328125 0)"/>
      <use xlink:href="#DejaVuSans-15" transform="translate(315.90625 0)"/>
      <use xlink:href="#DejaVuSans-3" transform="translate(379.53125 0)"/>
      <use xlink:href="#DejaVuSans-45" transform="translate(411.3125 0)"/>
      <use xlink:href="#DejaVuSans-48" transform="translate(474.796875 0)"/>
      <use xlink:href="#DejaVuSans-56" transform="translate(536.328125 0)"/>
      <use xlink:href="#DejaVuSans-57" transform="translate(588.421875 0)"/>
      <use xlink:href="#DejaVuSans-3" transform="translate(627.625 0)"/>
      <use xlink:href="#DejaVuSans-b" transform="translate(659.40625 0)"/>
      <use xlink:href="#DejaVuSans-13" transform="translate(698.421875 0)"/>
      <use xlink:href="#DejaVuSans-11" transform="translate(762.046875 0)"/>
      <use xlink:href="#DejaVuSans-18" transform="translate(793.828125 0)"/>
      <use xlink:href="#DejaVuSans-14" transform="translate(857.453125 0)"/>
      <use xlink:href="#DejaVuSans-19" transform="translate(921.078125 0)"/>
      <use xlink:href="#DejaVuSans-c" transform="translate(984.703125 0)"/>
     </g>
    </g>
   </g>
   <g id="PathCollection_3">
    <g clip-path="url(#p170d948e3f)">
     <use xlink:href="#m829df93f5f" x="593.47777" y="40.869937" style="fill: #ff0000; stroke: #000000"/>
    </g>
   </g>
   <g id="PathCollection_4">
    <g clip-path="url(#p170d948e3f)">
     <use xlink:href="#m829df93f5f" x="183.538271" y="276.567189" style="fill: #ff0000; stroke: #000000"/>
    </g>
   </g>
  </g>
 </g>
 <defs>
  <clipPath id="p170d948e3f">
   <rect x="60.841406" y="23.229938" width="558" height="388.08"/>
  </clipPath>
 </defs>
</svg>
