<?xml version="1.0" encoding="utf-8" standalone="no"?>
<!DOCTYPE svg PUBLIC "-//W3C//DTD SVG 1.1//EN"
  "http://www.w3.org/Graphics/SVG/1.1/DTD/svg11.dtd">
<svg xmlns:xlink="http://www.w3.org/1999/xlink" width="649.874665pt" height="470.158594pt" viewBox="0 0 649.874665 470.158594" xmlns="http://www.w3.org/2000/svg" version="1.1">
 <metadata>
  <rdf:RDF xmlns:dc="http://purl.org/dc/elements/1.1/" xmlns:cc="http://creativecommons.org/ns#" xmlns:rdf="http://www.w3.org/1999/02/22-rdf-syntax-ns#">
   <cc:Work>
    <dc:type rdf:resource="http://purl.org/dc/dcmitype/StillImage"/>
    <dc:date>2026-07-16T18:12:45.453175</dc:date>
    <dc:format>image/svg+xml</dc:format>
    <dc:creator>
     <cc:Agent>
      <dc:title>Matplotlib v3.11.0, https://matplotlib.org/</dc:title>
     </cc:Agent>
    </dc:creator>
   </cc:Work>
  </rdf:RDF>
 </metadata>
 <defs>
  <style type="text/css">*{stroke-linejoin: round; stroke-linecap: butt}</style>
 </defs>
 <g id="figure_1">
  <g id="patch_1">
   <path d="M 0 470.158594 
L 649.874665 470.158594 
L 649.874665 0 
L 0 0 
z
" style="fill: #ffffff"/>
  </g>
  <g id="axes_1">
   <g id="patch_2">
    <path d="M 75.438281 414.957187 
L 633.438281 414.957187 
L 633.438281 26.877187 
L 75.438281 26.877187 
z
" style="fill: #ffffff"/>
   </g>
   <g id="matplotlib.axis_1">
    <g id="xtick_1">
     <g id="line2d_1">
      <path d="M 100.801918 414.957187 
L 100.801918 26.877187 
" clip-path="url(#p752eff2f6c)" style="fill: none; stroke: #cccccc; stroke-opacity: 0.3; stroke-linecap: round"/>
     </g>
     <g id="text_1">
      <!-- 0 -->
      <g style="fill: #262626" transform="translate(95.552855 436.99332) scale(0.165 -0.165)">
       <defs>
        <path id="DejaVuSans-13" d="M 2034 4250 
Q 1547 4250 1301 3770 
Q 1056 3291 1056 2328 
Q 1056 1369 1301 889 
Q 1547 409 2034 409 
Q 2525 409 2770 889 
Q 3016 1369 3016 2328 
Q 3016 3291 2770 3770 
Q 2525 4250 2034 4250 
z
M 2034 4750 
Q 2819 4750 3233 4129 
Q 3647 3509 3647 2328 
Q 3647 1150 3233 529 
Q 2819 -91 2034 -91 
Q 1250 -91 836 529 
Q 422 1150 422 2328 
Q 422 3509 836 4129 
Q 1250 4750 2034 4750 
z
" transform="scale(0.015625)"/>
       </defs>
       <use xlink:href="#DejaVuSans-13"/>
      </g>
     </g>
    </g>
    <g id="xtick_2">
     <g id="line2d_2">
      <path d="M 188.489511 414.957187 
L 188.489511 26.877187 
" clip-path="url(#p752eff2f6c)" style="fill: none; stroke: #cccccc; stroke-opacity: 0.3; stroke-linecap: round"/>
     </g>
     <g id="text_2">
      <!-- 20 -->
      <g style="fill: #262626" transform="translate(177.991386 436.99332) scale(0.165 -0.165)">
       <defs>
        <path id="DejaVuSans-15" d="M 1228 531 
L 3431 531 
L 3431 0 
L 469 0 
L 469 531 
Q 828 903 1448 1529 
Q 2069 2156 2228 2338 
Q 2531 2678 2651 2914 
Q 2772 3150 2772 3378 
Q 2772 3750 2511 3984 
Q 2250 4219 1831 4219 
Q 1534 4219 1204 4116 
Q 875 4013 500 3803 
L 500 4441 
Q 881 4594 1212 4672 
Q 1544 4750 1819 4750 
Q 2544 4750 2975 4387 
Q 3406 4025 3406 3419 
Q 3406 3131 3298 2873 
Q 3191 2616 2906 2266 
Q 2828 2175 2409 1742 
Q 1991 1309 1228 531 
z
" transform="scale(0.015625)"/>
       </defs>
       <use xlink:href="#DejaVuSans-15"/>
       <use xlink:href="#DejaVuSans-13" transform="translate(63.625 0)"/>
      </g>
     </g>
    </g>
    <g id="xtick_3">
     <g id="line2d_3">
      <path d="M 276.177104 414.957187 
L 276.177104 26.877187 
" clip-path="url(#p752eff2f6c)" style="fill: none; stroke: #cccccc; stroke-opacity: 0.3; stroke-linecap: round"/>
     </g>
     <g id="text_3">
      <!-- 40 -->
      <g style="fill: #262626" transform="translate(265.678979 436.99332) scale(0.165 -0.165)">
       <defs>
        <path id="DejaVuSans-17" d="M 2419 4116 
L 825 1625 
L 2419 1625 
L 2419 4116 
z
M 2253 4666 
L 3047 4666 
L 3047 1625 
L 3713 1625 
L 3713 1100 
L 3047 1100 
L 3047 0 
L 2419 0 
L 2419 1100 
L 313 1100 
L 313 1709 
L 2253 4666 
z
" transform="scale(0.015625)"/>
       </defs>
       <use xlink:href="#DejaVuSans-17"/>
       <use xlink:href="#DejaVuSans-13" transform="translate(63.625 0)"/>
      </g>
     </g>
    </g>
    <g id="xtick_4">
     <g id="line2d_4">
      <path d="M 363.864698 414.957187 
L 363.864698 26.877187 
" clip-path="url(#p752eff2f6c)" style="fill: none; stroke: #cccccc; stroke-opacity: 0.3; stroke-linecap: round"/>
     </g>
     <g id="text_4">
      <!-- 60 -->
      <g style="fill: #262626" transform="translate(353.366573 436.99332) scale(0.165 -0.165)">
       <defs>
        <path id="DejaVuSans-19" d="M 2113 2584 
Q 1688 2584 1439 2293 
Q 1191 2003 1191 1497 
Q 1191 994 1439 701 
Q 1688 409 2113 409 
Q 2538 409 2786 701 
Q 3034 994 3034 1497 
Q 3034 2003 2786 2293 
Q 2538 2584 2113 2584 
z
M 3366 4563 
L 3366 3988 
Q 3128 4100 2886 4159 
Q 2644 4219 2406 4219 
Q 1781 4219 1451 3797 
Q 1122 3375 1075 2522 
Q 1259 2794 1537 2939 
Q 1816 3084 2150 3084 
Q 2853 3084 3261 2657 
Q 3669 2231 3669 1497 
Q 3669 778 3244 343 
Q 2819 -91 2113 -91 
Q 1303 -91 875 529 
Q 447 1150 447 2328 
Q 447 3434 972 4092 
Q 1497 4750 2381 4750 
Q 2619 4750 2861 4703 
Q 3103 4656 3366 4563 
z
" transform="scale(0.015625)"/>
       </defs>
       <use xlink:href="#DejaVuSans-19"/>
       <use xlink:href="#DejaVuSans-13" transform="translate(63.625 0)"/>
      </g>
     </g>
    </g>
    <g id="xtick_5">
     <g id="line2d_5">
      <path d="M 451.552291 414.957187 
L 451.552291 26.877187 
" clip-path="url(#p752eff2f6c)" style="fill: none; stroke: #cccccc; stroke-opacity: 0.3; stroke-linecap: round"/>
     </g>
     <g id="text_5">
      <!-- 80 -->
      <g style="fill: #262626" transform="translate(441.054166 436.99332) scale(0.165 -0.165)">
       <defs>
        <path id="DejaVuSans-1b" d="M 2034 2216 
Q 1584 2216 1326 1975 
Q 1069 1734 1069 1313 
Q 1069 891 1326 650 
Q 1584 409 2034 409 
Q 2484 409 2743 651 
Q 3003 894 3003 1313 
Q 3003 1734 2745 1975 
Q 2488 2216 2034 2216 
z
M 1403 2484 
Q 997 2584 770 2862 
Q 544 3141 544 3541 
Q 544 4100 942 4425 
Q 1341 4750 2034 4750 
Q 2731 4750 3128 4425 
Q 3525 4100 3525 3541 
Q 3525 3141 3298 2862 
Q 3072 2584 2669 2484 
Q 3125 2378 3379 2068 
Q 3634 1759 3634 1313 
Q 3634 634 3220 271 
Q 2806 -91 2034 -91 
Q 1263 -91 848 271 
Q 434 634 434 1313 
Q 434 1759 690 2068 
Q 947 2378 1403 2484 
z
M 1172 3481 
Q 1172 3119 1398 2916 
Q 1625 2713 2034 2713 
Q 2441 2713 2670 2916 
Q 2900 3119 2900 3481 
Q 2900 3844 2670 4047 
Q 2441 4250 2034 4250 
Q 1625 4250 1398 4047 
Q 1172 3844 1172 3481 
z
" transform="scale(0.015625)"/>
       </defs>
       <use xlink:href="#DejaVuSans-1b"/>
       <use xlink:href="#DejaVuSans-13" transform="translate(63.625 0)"/>
      </g>
     </g>
    </g>
    <g id="xtick_6">
     <g id="line2d_6">
      <path d="M 539.239884 414.957187 
L 539.239884 26.877187 
" clip-path="url(#p752eff2f6c)" style="fill: none; stroke: #cccccc; stroke-opacity: 0.3; stroke-linecap: round"/>
     </g>
     <g id="text_6">
      <!-- 100 -->
      <g style="fill: #262626" transform="translate(523.492697 436.99332) scale(0.165 -0.165)">
       <defs>
        <path id="DejaVuSans-14" d="M 794 531 
L 1825 531 
L 1825 4091 
L 703 3866 
L 703 4441 
L 1819 4666 
L 2450 4666 
L 2450 531 
L 3481 531 
L 3481 0 
L 794 0 
L 794 531 
z
" transform="scale(0.015625)"/>
       </defs>
       <use xlink:href="#DejaVuSans-14"/>
       <use xlink:href="#DejaVuSans-13" transform="translate(63.625 0)"/>
       <use xlink:href="#DejaVuSans-13" transform="translate(127.25 0)"/>
      </g>
     </g>
    </g>
    <g id="xtick_7">
     <g id="line2d_7">
      <path d="M 626.927477 414.957187 
L 626.927477 26.877187 
" clip-path="url(#p752eff2f6c)" style="fill: none; stroke: #cccccc; stroke-opacity: 0.3; stroke-linecap: round"/>
     </g>
     <g id="text_7">
      <!-- 120 -->
      <g style="fill: #262626" transform="translate(611.18029 436.99332) scale(0.165 -0.165)">
       <use xlink:href="#DejaVuSans-14"/>
       <use xlink:href="#DejaVuSans-15" transform="translate(63.625 0)"/>
       <use xlink:href="#DejaVuSans-13" transform="translate(127.25 0)"/>
      </g>
     </g>
    </g>
    <g id="text_8">
     <!-- Time Overhead (%) -->
     <g style="fill: #262626" transform="translate(267.156563 458.634375) scale(0.18 -0.18)">
      <defs>
       <path id="DejaVuSans-37" d="M -19 4666 
L 3928 4666 
L 3928 4134 
L 2272 4134 
L 2272 0 
L 1638 0 
L 1638 4134 
L -19 4134 
L -19 4666 
z
" transform="scale(0.015625)"/>
       <path id="DejaVuSans-4c" d="M 603 3500 
L 1178 3500 
L 1178 0 
L 603 0 
L 603 3500 
z
M 603 4863 
L 1178 4863 
L 1178 4134 
L 603 4134 
L 603 4863 
z
" transform="scale(0.015625)"/>
       <path id="DejaVuSans-50" d="M 3328 2828 
Q 3544 3216 3844 3400 
Q 4144 3584 4550 3584 
Q 5097 3584 5394 3201 
Q 5691 2819 5691 2113 
L 5691 0 
L 5113 0 
L 5113 2094 
Q 5113 2597 4934 2840 
Q 4756 3084 4391 3084 
Q 3944 3084 3684 2787 
Q 3425 2491 3425 1978 
L 3425 0 
L 2847 0 
L 2847 2094 
Q 2847 2600 2669 2842 
Q 2491 3084 2119 3084 
Q 1678 3084 1418 2786 
Q 1159 2488 1159 1978 
L 1159 0 
L 581 0 
L 581 3500 
L 1159 3500 
L 1159 2956 
Q 1356 3278 1631 3431 
Q 1906 3584 2284 3584 
Q 2666 3584 2933 3390 
Q 3200 3197 3328 2828 
z
" transform="scale(0.015625)"/>
       <path id="DejaVuSans-48" d="M 3597 1894 
L 3597 1613 
L 953 1613 
Q 991 1019 1311 708 
Q 1631 397 2203 397 
Q 2534 397 2845 478 
Q 3156 559 3463 722 
L 3463 178 
Q 3153 47 2828 -22 
Q 2503 -91 2169 -91 
Q 1331 -91 842 396 
Q 353 884 353 1716 
Q 353 2575 817 3079 
Q 1281 3584 2069 3584 
Q 2775 3584 3186 3129 
Q 3597 2675 3597 1894 
z
M 3022 2063 
Q 3016 2534 2758 2815 
Q 2500 3097 2075 3097 
Q 1594 3097 1305 2825 
Q 1016 2553 972 2059 
L 3022 2063 
z
" transform="scale(0.015625)"/>
       <path id="DejaVuSans-3" transform="scale(0.015625)"/>
       <path id="DejaVuSans-32" d="M 2522 4238 
Q 1834 4238 1429 3725 
Q 1025 3213 1025 2328 
Q 1025 1447 1429 934 
Q 1834 422 2522 422 
Q 3209 422 3611 934 
Q 4013 1447 4013 2328 
Q 4013 3213 3611 3725 
Q 3209 4238 2522 4238 
z
M 2522 4750 
Q 3503 4750 4090 4092 
Q 4678 3434 4678 2328 
Q 4678 1225 4090 567 
Q 3503 -91 2522 -91 
Q 1538 -91 948 565 
Q 359 1222 359 2328 
Q 359 3434 948 4092 
Q 1538 4750 2522 4750 
z
" transform="scale(0.015625)"/>
       <path id="DejaVuSans-59" d="M 191 3500 
L 800 3500 
L 1894 563 
L 2988 3500 
L 3597 3500 
L 2284 0 
L 1503 0 
L 191 3500 
z
" transform="scale(0.015625)"/>
       <path id="DejaVuSans-55" d="M 2631 2963 
Q 2534 3019 2420 3045 
Q 2306 3072 2169 3072 
Q 1681 3072 1420 2755 
Q 1159 2438 1159 1844 
L 1159 0 
L 581 0 
L 581 3500 
L 1159 3500 
L 1159 2956 
Q 1341 3275 1631 3429 
Q 1922 3584 2338 3584 
Q 2397 3584 2469 3576 
Q 2541 3569 2628 3553 
L 2631 2963 
z
" transform="scale(0.015625)"/>
       <path id="DejaVuSans-4b" d="M 3513 2113 
L 3513 0 
L 2938 0 
L 2938 2094 
Q 2938 2591 2744 2837 
Q 2550 3084 2163 3084 
Q 1697 3084 1428 2787 
Q 1159 2491 1159 1978 
L 1159 0 
L 581 0 
L 581 4863 
L 1159 4863 
L 1159 2956 
Q 1366 3272 1645 3428 
Q 1925 3584 2291 3584 
Q 2894 3584 3203 3211 
Q 3513 2838 3513 2113 
z
" transform="scale(0.015625)"/>
       <path id="DejaVuSans-44" d="M 2194 1759 
Q 1497 1759 1228 1600 
Q 959 1441 959 1056 
Q 959 750 1161 570 
Q 1363 391 1709 391 
Q 2188 391 2477 730 
Q 2766 1069 2766 1631 
L 2766 1759 
L 2194 1759 
z
M 3341 1997 
L 3341 0 
L 2766 0 
L 2766 531 
Q 2569 213 2275 61 
Q 1981 -91 1556 -91 
Q 1019 -91 701 211 
Q 384 513 384 1019 
Q 384 1609 779 1909 
Q 1175 2209 1959 2209 
L 2766 2209 
L 2766 2266 
Q 2766 2663 2505 2880 
Q 2244 3097 1772 3097 
Q 1472 3097 1187 3025 
Q 903 2953 641 2809 
L 641 3341 
Q 956 3463 1253 3523 
Q 1550 3584 1831 3584 
Q 2591 3584 2966 3190 
Q 3341 2797 3341 1997 
z
" transform="scale(0.015625)"/>
       <path id="DejaVuSans-47" d="M 2906 2969 
L 2906 4863 
L 3481 4863 
L 3481 0 
L 2906 0 
L 2906 525 
Q 2725 213 2448 61 
Q 2172 -91 1784 -91 
Q 1150 -91 751 415 
Q 353 922 353 1747 
Q 353 2572 751 3078 
Q 1150 3584 1784 3584 
Q 2172 3584 2448 3432 
Q 2725 3281 2906 2969 
z
M 947 1747 
Q 947 1113 1208 752 
Q 1469 391 1925 391 
Q 2381 391 2643 752 
Q 2906 1113 2906 1747 
Q 2906 2381 2643 2742 
Q 2381 3103 1925 3103 
Q 1469 3103 1208 2742 
Q 947 2381 947 1747 
z
" transform="scale(0.015625)"/>
       <path id="DejaVuSans-b" d="M 1984 4856 
Q 1566 4138 1362 3434 
Q 1159 2731 1159 2009 
Q 1159 1288 1364 580 
Q 1569 -128 1984 -844 
L 1484 -844 
Q 1016 -109 783 600 
Q 550 1309 550 2009 
Q 550 2706 781 3412 
Q 1013 4119 1484 4856 
L 1984 4856 
z
" transform="scale(0.015625)"/>
       <path id="DejaVuSans-8" d="M 4653 2053 
Q 4381 2053 4226 1822 
Q 4072 1591 4072 1178 
Q 4072 772 4226 539 
Q 4381 306 4653 306 
Q 4919 306 5073 539 
Q 5228 772 5228 1178 
Q 5228 1588 5073 1820 
Q 4919 2053 4653 2053 
z
M 4653 2450 
Q 5147 2450 5437 2106 
Q 5728 1763 5728 1178 
Q 5728 594 5436 251 
Q 5144 -91 4653 -91 
Q 4153 -91 3862 251 
Q 3572 594 3572 1178 
Q 3572 1766 3864 2108 
Q 4156 2450 4653 2450 
z
M 1428 4353 
Q 1159 4353 1004 4120 
Q 850 3888 850 3481 
Q 850 3069 1003 2837 
Q 1156 2606 1428 2606 
Q 1700 2606 1854 2837 
Q 2009 3069 2009 3481 
Q 2009 3884 1853 4118 
Q 1697 4353 1428 4353 
z
M 4250 4750 
L 4750 4750 
L 1831 -91 
L 1331 -91 
L 4250 4750 
z
M 1428 4750 
Q 1922 4750 2215 4408 
Q 2509 4066 2509 3481 
Q 2509 2891 2217 2550 
Q 1925 2209 1428 2209 
Q 931 2209 642 2551 
Q 353 2894 353 3481 
Q 353 4063 643 4406 
Q 934 4750 1428 4750 
z
" transform="scale(0.015625)"/>
       <path id="DejaVuSans-c" d="M 513 4856 
L 1013 4856 
Q 1481 4119 1714 3412 
Q 1947 2706 1947 2009 
Q 1947 1309 1714 600 
Q 1481 -109 1013 -844 
L 513 -844 
Q 928 -128 1133 580 
Q 1338 1288 1338 2009 
Q 1338 2731 1133 3434 
Q 928 4138 513 4856 
z
" transform="scale(0.015625)"/>
      </defs>
      <use xlink:href="#DejaVuSans-37"/>
      <use xlink:href="#DejaVuSans-4c" transform="translate(58 0)"/>
      <use xlink:href="#DejaVuSans-50" transform="translate(85.78125 0)"/>
      <use xlink:href="#DejaVuSans-48" transform="translate(183.1875 0)"/>
      <use xlink:href="#DejaVuSans-3" transform="translate(244.71875 0)"/>
      <use xlink:href="#DejaVuSans-32" transform="translate(276.5 0)"/>
      <use xlink:href="#DejaVuSans-59" transform="translate(355.21875 0)"/>
      <use xlink:href="#DejaVuSans-48" transform="translate(414.40625 0)"/>
      <use xlink:href="#DejaVuSans-55" transform="translate(475.9375 0)"/>
      <use xlink:href="#DejaVuSans-4b" transform="translate(515.296875 0)"/>
      <use xlink:href="#DejaVuSans-48" transform="translate(578.671875 0)"/>
      <use xlink:href="#DejaVuSans-44" transform="translate(640.203125 0)"/>
      <use xlink:href="#DejaVuSans-47" transform="translate(701.484375 0)"/>
      <use xlink:href="#DejaVuSans-3" transform="translate(764.96875 0)"/>
      <use xlink:href="#DejaVuSans-b" transform="translate(796.75 0)"/>
      <use xlink:href="#DejaVuSans-8" transform="translate(835.765625 0)"/>
      <use xlink:href="#DejaVuSans-c" transform="translate(930.78125 0)"/>
     </g>
    </g>
   </g>
   <g id="matplotlib.axis_2">
    <g id="ytick_1">
     <g id="line2d_8">
      <path d="M 75.438281 397.317187 
L 633.438281 397.317187 
" clip-path="url(#p752eff2f6c)" style="fill: none; stroke: #cccccc; stroke-opacity: 0.3; stroke-linecap: round"/>
     </g>
     <g id="text_9">
      <!-- 0.50 -->
      <g style="fill: #262626" transform="translate(29.2 403.585254) scale(0.165 -0.165)">
       <defs>
        <path id="DejaVuSans-11" d="M 684 794 
L 1344 794 
L 1344 0 
L 684 0 
L 684 794 
z
" transform="scale(0.015625)"/>
        <path id="DejaVuSans-18" d="M 691 4666 
L 3169 4666 
L 3169 4134 
L 1269 4134 
L 1269 2991 
Q 1406 3038 1543 3061 
Q 1681 3084 1819 3084 
Q 2600 3084 3056 2656 
Q 3513 2228 3513 1497 
Q 3513 744 3044 326 
Q 2575 -91 1722 -91 
Q 1428 -91 1123 -41 
Q 819 9 494 109 
L 494 744 
Q 775 591 1075 516 
Q 1375 441 1709 441 
Q 2250 441 2565 725 
Q 2881 1009 2881 1497 
Q 2881 1984 2565 2268 
Q 2250 2553 1709 2553 
Q 1456 2553 1204 2497 
Q 953 2441 691 2322 
L 691 4666 
z
" transform="scale(0.015625)"/>
       </defs>
       <use xlink:href="#DejaVuSans-13"/>
       <use xlink:href="#DejaVuSans-11" transform="translate(63.625 0)"/>
       <use xlink:href="#DejaVuSans-18" transform="translate(95.40625 0)"/>
       <use xlink:href="#DejaVuSans-13" transform="translate(159.03125 0)"/>
      </g>
     </g>
    </g>
    <g id="ytick_2">
     <g id="line2d_9">
      <path d="M 75.438281 322.72945 
L 633.438281 322.72945 
" clip-path="url(#p752eff2f6c)" style="fill: none; stroke: #cccccc; stroke-opacity: 0.3; stroke-linecap: round"/>
     </g>
     <g id="text_10">
      <!-- 0.51 -->
      <g style="fill: #262626" transform="translate(29.2 328.997516) scale(0.165 -0.165)">
       <use xlink:href="#DejaVuSans-13"/>
       <use xlink:href="#DejaVuSans-11" transform="translate(63.625 0)"/>
       <use xlink:href="#DejaVuSans-18" transform="translate(95.40625 0)"/>
       <use xlink:href="#DejaVuSans-14" transform="translate(159.03125 0)"/>
      </g>
     </g>
    </g>
    <g id="ytick_3">
     <g id="line2d_10">
      <path d="M 75.438281 248.141712 
L 633.438281 248.141712 
" clip-path="url(#p752eff2f6c)" style="fill: none; stroke: #cccccc; stroke-opacity: 0.3; stroke-linecap: round"/>
     </g>
     <g id="text_11">
      <!-- 0.52 -->
      <g style="fill: #262626" transform="translate(29.2 254.409778) scale(0.165 -0.165)">
       <use xlink:href="#DejaVuSans-13"/>
       <use xlink:href="#DejaVuSans-11" transform="translate(63.625 0)"/>
       <use xlink:href="#DejaVuSans-18" transform="translate(95.40625 0)"/>
       <use xlink:href="#DejaVuSans-15" transform="translate(159.03125 0)"/>
      </g>
     </g>
    </g>
    <g id="ytick_4">
     <g id="line2d_11">
      <path d="M 75.438281 173.553974 
L 633.438281 173.553974 
" clip-path="url(#p752eff2f6c)" style="fill: none; stroke: #cccccc; stroke-opacity: 0.3; stroke-linecap: round"/>
     </g>
     <g id="text_12">
      <!-- 0.53 -->
      <g style="fill: #262626" transform="translate(29.2 179.82204) scale(0.165 -0.165)">
       <defs>
        <path id="DejaVuSans-16" d="M 2597 2516 
Q 3050 2419 3304 2112 
Q 3559 1806 3559 1356 
Q 3559 666 3084 287 
Q 2609 -91 1734 -91 
Q 1441 -91 1130 -33 
Q 819 25 488 141 
L 488 750 
Q 750 597 1062 519 
Q 1375 441 1716 441 
Q 2309 441 2620 675 
Q 2931 909 2931 1356 
Q 2931 1769 2642 2001 
Q 2353 2234 1838 2234 
L 1294 2234 
L 1294 2753 
L 1863 2753 
Q 2328 2753 2575 2939 
Q 2822 3125 2822 3475 
Q 2822 3834 2567 4026 
Q 2313 4219 1838 4219 
Q 1578 4219 1281 4162 
Q 984 4106 628 3988 
L 628 4550 
Q 988 4650 1302 4700 
Q 1616 4750 1894 4750 
Q 2613 4750 3031 4423 
Q 3450 4097 3450 3541 
Q 3450 3153 3228 2886 
Q 3006 2619 2597 2516 
z
" transform="scale(0.015625)"/>
       </defs>
       <use xlink:href="#DejaVuSans-13"/>
       <use xlink:href="#DejaVuSans-11" transform="translate(63.625 0)"/>
       <use xlink:href="#DejaVuSans-18" transform="translate(95.40625 0)"/>
       <use xlink:href="#DejaVuSans-16" transform="translate(159.03125 0)"/>
      </g>
     </g>
    </g>
    <g id="ytick_5">
     <g id="line2d_12">
      <path d="M 75.438281 98.966236 
L 633.438281 98.966236 
" clip-path="url(#p752eff2f6c)" style="fill: none; stroke: #cccccc; stroke-opacity: 0.3; stroke-linecap: round"/>
     </g>
     <g id="text_13">
      <!-- 0.54 -->
      <g style="fill: #262626" transform="translate(29.2 105.234303) scale(0.165 -0.165)">
       <use xlink:href="#DejaVuSans-13"/>
       <use xlink:href="#DejaVuSans-11" transform="translate(63.625 0)"/>
       <use xlink:href="#DejaVuSans-18" transform="translate(95.40625 0)"/>
       <use xlink:href="#DejaVuSans-17" transform="translate(159.03125 0)"/>
      </g>
     </g>
    </g>
    <g id="text_14">
     <!-- Score -->
     <g style="fill: #262626" transform="translate(20.875781 246.125625) rotate(-90) scale(0.18 -0.18)">
      <defs>
       <path id="DejaVuSans-36" d="M 3425 4513 
L 3425 3897 
Q 3066 4069 2747 4153 
Q 2428 4238 2131 4238 
Q 1616 4238 1336 4038 
Q 1056 3838 1056 3469 
Q 1056 3159 1242 3001 
Q 1428 2844 1947 2747 
L 2328 2669 
Q 3034 2534 3370 2195 
Q 3706 1856 3706 1288 
Q 3706 609 3251 259 
Q 2797 -91 1919 -91 
Q 1588 -91 1214 -16 
Q 841 59 441 206 
L 441 856 
Q 825 641 1194 531 
Q 1563 422 1919 422 
Q 2459 422 2753 634 
Q 3047 847 3047 1241 
Q 3047 1584 2836 1778 
Q 2625 1972 2144 2069 
L 1759 2144 
Q 1053 2284 737 2584 
Q 422 2884 422 3419 
Q 422 4038 858 4394 
Q 1294 4750 2059 4750 
Q 2388 4750 2728 4690 
Q 3069 4631 3425 4513 
z
" transform="scale(0.015625)"/>
       <path id="DejaVuSans-46" d="M 3122 3366 
L 3122 2828 
Q 2878 2963 2633 3030 
Q 2388 3097 2138 3097 
Q 1578 3097 1268 2742 
Q 959 2388 959 1747 
Q 959 1106 1268 751 
Q 1578 397 2138 397 
Q 2388 397 2633 464 
Q 2878 531 3122 666 
L 3122 134 
Q 2881 22 2623 -34 
Q 2366 -91 2075 -91 
Q 1284 -91 818 406 
Q 353 903 353 1747 
Q 353 2603 823 3093 
Q 1294 3584 2113 3584 
Q 2378 3584 2631 3529 
Q 2884 3475 3122 3366 
z
" transform="scale(0.015625)"/>
       <path id="DejaVuSans-52" d="M 1959 3097 
Q 1497 3097 1228 2736 
Q 959 2375 959 1747 
Q 959 1119 1226 758 
Q 1494 397 1959 397 
Q 2419 397 2687 759 
Q 2956 1122 2956 1747 
Q 2956 2369 2687 2733 
Q 2419 3097 1959 3097 
z
M 1959 3584 
Q 2709 3584 3137 3096 
Q 3566 2609 3566 1747 
Q 3566 888 3137 398 
Q 2709 -91 1959 -91 
Q 1206 -91 779 398 
Q 353 888 353 1747 
Q 353 2609 779 3096 
Q 1206 3584 1959 3584 
z
" transform="scale(0.015625)"/>
      </defs>
      <use xlink:href="#DejaVuSans-36"/>
      <use xlink:href="#DejaVuSans-46" transform="translate(63.484375 0)"/>
      <use xlink:href="#DejaVuSans-52" transform="translate(118.46875 0)"/>
      <use xlink:href="#DejaVuSans-55" transform="translate(179.65625 0)"/>
      <use xlink:href="#DejaVuSans-48" transform="translate(218.5625 0)"/>
     </g>
    </g>
   </g>
   <g id="line2d_13">
    <path d="M 100.801918 397.317187 
L 101.678794 396.57131 
L 102.117232 395.825433 
L 102.994107 394.333678 
L 104.309421 393.587801 
L 105.186297 390.604291 
L 107.816925 388.366659 
L 111.324429 378.670253 
L 115.270371 377.924376 
L 123.600692 373.449111 
L 124.03913 371.957357 
L 124.03913 357.039809 
L 141.138211 355.548054 
L 141.138211 348.089281 
L 144.207276 345.105771 
L 145.961028 343.614016 
L 152.09916 337.646997 
L 153.852912 285.435581 
L 167.444489 264.551014 
L 188.051073 236.953551 
L 198.573584 233.224164 
L 205.150154 219.052494 
L 210.411409 216.814862 
L 221.810796 208.610211 
L 230.579556 204.134946 
L 238.471439 202.643192 
L 247.678636 201.897314 
L 252.939892 188.471522 
L 256.885834 187.725644 
L 258.639586 186.979767 
L 266.969907 183.25038 
L 273.108038 181.012748 
L 285.384302 157.890549 
L 297.222127 148.94002 
L 305.552448 137.005982 
L 329.666536 125.817822 
L 337.55842 121.342557 
L 342.819675 116.867293 
L 347.642493 116.121416 
L 353.780624 112.392029 
L 356.84969 111.646152 
L 361.672508 110.154397 
L 363.864698 109.408519 
L 367.372201 108.662642 
L 371.756581 107.170887 
L 372.195019 104.933255 
L 373.510333 102.695623 
L 377.456274 100.457991 
L 383.155968 98.220359 
L 388.855662 95.236849 
L 390.170976 92.25334 
L 446.291035 89.26983 
L 455.059795 88.523953 
L 461.636364 87.778075 
L 463.390116 85.540443 
L 468.212934 83.302811 
L 470.405123 80.319302 
L 473.912627 79.573424 
L 477.420131 78.08167 
L 478.297007 76.589915 
L 485.312014 75.844037 
L 486.627328 72.860528 
L 486.627328 72.114651 
L 487.065766 71.368773 
L 488.819518 68.385264 
L 489.257956 67.639386 
L 495.834525 64.655877 
L 497.149839 63.909999 
L 502.849533 63.164122 
L 503.726409 58.688858 
L 510.741416 56.451226 
L 518.6333 51.975961 
L 532.224877 51.230084 
L 535.73238 48.246574 
L 551.077709 47.500697 
L 598.867448 46.75482 
L 599.744324 45.263065 
L 606.320893 44.517187 
" clip-path="url(#p752eff2f6c)" style="fill: none; stroke: #2563eb; stroke-width: 2; stroke-linecap: round"/>
    <defs>
     <path id="m1a7b7ab071" d="M 0 2 
C 0.530406 2 1.03916 1.789267 1.414214 1.414214 
C 1.789267 1.03916 2 0.530406 2 0 
C 2 -0.530406 1.789267 -1.03916 1.414214 -1.414214 
C 1.03916 -1.789267 0.530406 -2 0 -2 
C -0.530406 -2 -1.03916 -1.789267 -1.414214 -1.414214 
C -1.789267 -1.03916 -2 -0.530406 -2 0 
C -2 0.530406 -1.789267 1.03916 -1.414214 1.414214 
C -1.03916 1.789267 -0.530406 2 0 2 
z
" style="stroke: #2563eb"/>
    </defs>
    <g clip-path="url(#p752eff2f6c)">
     <use xlink:href="#m1a7b7ab071" x="100.801918" y="397.317187" style="fill: #2563eb; stroke: #2563eb"/>
     <use xlink:href="#m1a7b7ab071" x="101.678794" y="396.57131" style="fill: #2563eb; stroke: #2563eb"/>
     <use xlink:href="#m1a7b7ab071" x="102.117232" y="395.825433" style="fill: #2563eb; stroke: #2563eb"/>
     <use xlink:href="#m1a7b7ab071" x="102.994107" y="394.333678" style="fill: #2563eb; stroke: #2563eb"/>
     <use xlink:href="#m1a7b7ab071" x="104.309421" y="393.587801" style="fill: #2563eb; stroke: #2563eb"/>
     <use xlink:href="#m1a7b7ab071" x="105.186297" y="390.604291" style="fill: #2563eb; stroke: #2563eb"/>
     <use xlink:href="#m1a7b7ab071" x="107.816925" y="388.366659" style="fill: #2563eb; stroke: #2563eb"/>
     <use xlink:href="#m1a7b7ab071" x="111.324429" y="378.670253" style="fill: #2563eb; stroke: #2563eb"/>
     <use xlink:href="#m1a7b7ab071" x="115.270371" y="377.924376" style="fill: #2563eb; stroke: #2563eb"/>
     <use xlink:href="#m1a7b7ab071" x="123.600692" y="373.449111" style="fill: #2563eb; stroke: #2563eb"/>
     <use xlink:href="#m1a7b7ab071" x="124.03913" y="371.957357" style="fill: #2563eb; stroke: #2563eb"/>
     <use xlink:href="#m1a7b7ab071" x="124.03913" y="357.039809" style="fill: #2563eb; stroke: #2563eb"/>
     <use xlink:href="#m1a7b7ab071" x="141.138211" y="355.548054" style="fill: #2563eb; stroke: #2563eb"/>
     <use xlink:href="#m1a7b7ab071" x="141.138211" y="348.089281" style="fill: #2563eb; stroke: #2563eb"/>
     <use xlink:href="#m1a7b7ab071" x="144.207276" y="345.105771" style="fill: #2563eb; stroke: #2563eb"/>
     <use xlink:href="#m1a7b7ab071" x="145.961028" y="343.614016" style="fill: #2563eb; stroke: #2563eb"/>
     <use xlink:href="#m1a7b7ab071" x="152.09916" y="337.646997" style="fill: #2563eb; stroke: #2563eb"/>
     <use xlink:href="#m1a7b7ab071" x="153.852912" y="285.435581" style="fill: #2563eb; stroke: #2563eb"/>
     <use xlink:href="#m1a7b7ab071" x="167.444489" y="264.551014" style="fill: #2563eb; stroke: #2563eb"/>
     <use xlink:href="#m1a7b7ab071" x="188.051073" y="236.953551" style="fill: #2563eb; stroke: #2563eb"/>
     <use xlink:href="#m1a7b7ab071" x="198.573584" y="233.224164" style="fill: #2563eb; stroke: #2563eb"/>
     <use xlink:href="#m1a7b7ab071" x="205.150154" y="219.052494" style="fill: #2563eb; stroke: #2563eb"/>
     <use xlink:href="#m1a7b7ab071" x="210.411409" y="216.814862" style="fill: #2563eb; stroke: #2563eb"/>
     <use xlink:href="#m1a7b7ab071" x="221.810796" y="208.610211" style="fill: #2563eb; stroke: #2563eb"/>
     <use xlink:href="#m1a7b7ab071" x="230.579556" y="204.134946" style="fill: #2563eb; stroke: #2563eb"/>
     <use xlink:href="#m1a7b7ab071" x="238.471439" y="202.643192" style="fill: #2563eb; stroke: #2563eb"/>
     <use xlink:href="#m1a7b7ab071" x="247.678636" y="201.897314" style="fill: #2563eb; stroke: #2563eb"/>
     <use xlink:href="#m1a7b7ab071" x="252.939892" y="188.471522" style="fill: #2563eb; stroke: #2563eb"/>
     <use xlink:href="#m1a7b7ab071" x="256.885834" y="187.725644" style="fill: #2563eb; stroke: #2563eb"/>
     <use xlink:href="#m1a7b7ab071" x="258.639586" y="186.979767" style="fill: #2563eb; stroke: #2563eb"/>
     <use xlink:href="#m1a7b7ab071" x="266.969907" y="183.25038" style="fill: #2563eb; stroke: #2563eb"/>
     <use xlink:href="#m1a7b7ab071" x="273.108038" y="181.012748" style="fill: #2563eb; stroke: #2563eb"/>
     <use xlink:href="#m1a7b7ab071" x="285.384302" y="157.890549" style="fill: #2563eb; stroke: #2563eb"/>
     <use xlink:href="#m1a7b7ab071" x="297.222127" y="148.94002" style="fill: #2563eb; stroke: #2563eb"/>
     <use xlink:href="#m1a7b7ab071" x="305.552448" y="137.005982" style="fill: #2563eb; stroke: #2563eb"/>
     <use xlink:href="#m1a7b7ab071" x="329.666536" y="125.817822" style="fill: #2563eb; stroke: #2563eb"/>
     <use xlink:href="#m1a7b7ab071" x="337.55842" y="121.342557" style="fill: #2563eb; stroke: #2563eb"/>
     <use xlink:href="#m1a7b7ab071" x="342.819675" y="116.867293" style="fill: #2563eb; stroke: #2563eb"/>
     <use xlink:href="#m1a7b7ab071" x="347.642493" y="116.121416" style="fill: #2563eb; stroke: #2563eb"/>
     <use xlink:href="#m1a7b7ab071" x="353.780624" y="112.392029" style="fill: #2563eb; stroke: #2563eb"/>
     <use xlink:href="#m1a7b7ab071" x="356.84969" y="111.646152" style="fill: #2563eb; stroke: #2563eb"/>
     <use xlink:href="#m1a7b7ab071" x="361.672508" y="110.154397" style="fill: #2563eb; stroke: #2563eb"/>
     <use xlink:href="#m1a7b7ab071" x="363.864698" y="109.408519" style="fill: #2563eb; stroke: #2563eb"/>
     <use xlink:href="#m1a7b7ab071" x="367.372201" y="108.662642" style="fill: #2563eb; stroke: #2563eb"/>
     <use xlink:href="#m1a7b7ab071" x="371.756581" y="107.170887" style="fill: #2563eb; stroke: #2563eb"/>
     <use xlink:href="#m1a7b7ab071" x="372.195019" y="104.933255" style="fill: #2563eb; stroke: #2563eb"/>
     <use xlink:href="#m1a7b7ab071" x="373.510333" y="102.695623" style="fill: #2563eb; stroke: #2563eb"/>
     <use xlink:href="#m1a7b7ab071" x="377.456274" y="100.457991" style="fill: #2563eb; stroke: #2563eb"/>
     <use xlink:href="#m1a7b7ab071" x="383.155968" y="98.220359" style="fill: #2563eb; stroke: #2563eb"/>
     <use xlink:href="#m1a7b7ab071" x="388.855662" y="95.236849" style="fill: #2563eb; stroke: #2563eb"/>
     <use xlink:href="#m1a7b7ab071" x="390.170976" y="92.25334" style="fill: #2563eb; stroke: #2563eb"/>
     <use xlink:href="#m1a7b7ab071" x="446.291035" y="89.26983" style="fill: #2563eb; stroke: #2563eb"/>
     <use xlink:href="#m1a7b7ab071" x="455.059795" y="88.523953" style="fill: #2563eb; stroke: #2563eb"/>
     <use xlink:href="#m1a7b7ab071" x="461.636364" y="87.778075" style="fill: #2563eb; stroke: #2563eb"/>
     <use xlink:href="#m1a7b7ab071" x="463.390116" y="85.540443" style="fill: #2563eb; stroke: #2563eb"/>
     <use xlink:href="#m1a7b7ab071" x="468.212934" y="83.302811" style="fill: #2563eb; stroke: #2563eb"/>
     <use xlink:href="#m1a7b7ab071" x="470.405123" y="80.319302" style="fill: #2563eb; stroke: #2563eb"/>
     <use xlink:href="#m1a7b7ab071" x="473.912627" y="79.573424" style="fill: #2563eb; stroke: #2563eb"/>
     <use xlink:href="#m1a7b7ab071" x="477.420131" y="78.08167" style="fill: #2563eb; stroke: #2563eb"/>
     <use xlink:href="#m1a7b7ab071" x="478.297007" y="76.589915" style="fill: #2563eb; stroke: #2563eb"/>
     <use xlink:href="#m1a7b7ab071" x="485.312014" y="75.844037" style="fill: #2563eb; stroke: #2563eb"/>
     <use xlink:href="#m1a7b7ab071" x="486.627328" y="72.860528" style="fill: #2563eb; stroke: #2563eb"/>
     <use xlink:href="#m1a7b7ab071" x="486.627328" y="72.114651" style="fill: #2563eb; stroke: #2563eb"/>
     <use xlink:href="#m1a7b7ab071" x="487.065766" y="71.368773" style="fill: #2563eb; stroke: #2563eb"/>
     <use xlink:href="#m1a7b7ab071" x="488.819518" y="68.385264" style="fill: #2563eb; stroke: #2563eb"/>
     <use xlink:href="#m1a7b7ab071" x="489.257956" y="67.639386" style="fill: #2563eb; stroke: #2563eb"/>
     <use xlink:href="#m1a7b7ab071" x="495.834525" y="64.655877" style="fill: #2563eb; stroke: #2563eb"/>
     <use xlink:href="#m1a7b7ab071" x="497.149839" y="63.909999" style="fill: #2563eb; stroke: #2563eb"/>
     <use xlink:href="#m1a7b7ab071" x="502.849533" y="63.164122" style="fill: #2563eb; stroke: #2563eb"/>
     <use xlink:href="#m1a7b7ab071" x="503.726409" y="58.688858" style="fill: #2563eb; stroke: #2563eb"/>
     <use xlink:href="#m1a7b7ab071" x="510.741416" y="56.451226" style="fill: #2563eb; stroke: #2563eb"/>
     <use xlink:href="#m1a7b7ab071" x="518.6333" y="51.975961" style="fill: #2563eb; stroke: #2563eb"/>
     <use xlink:href="#m1a7b7ab071" x="532.224877" y="51.230084" style="fill: #2563eb; stroke: #2563eb"/>
     <use xlink:href="#m1a7b7ab071" x="535.73238" y="48.246574" style="fill: #2563eb; stroke: #2563eb"/>
     <use xlink:href="#m1a7b7ab071" x="551.077709" y="47.500697" style="fill: #2563eb; stroke: #2563eb"/>
     <use xlink:href="#m1a7b7ab071" x="598.867448" y="46.75482" style="fill: #2563eb; stroke: #2563eb"/>
     <use xlink:href="#m1a7b7ab071" x="599.744324" y="45.263065" style="fill: #2563eb; stroke: #2563eb"/>
     <use xlink:href="#m1a7b7ab071" x="606.320893" y="44.517187" style="fill: #2563eb; stroke: #2563eb"/>
    </g>
   </g>
   <g id="line2d_14">
    <path d="M 100.801918 397.317187 
L 101.678794 395.825433 
L 101.678794 394.333678 
L 102.555669 393.587801 
L 104.309421 391.350168 
L 106.063173 390.604291 
L 108.255363 383.145517 
L 108.693801 379.41613 
L 110.885991 378.670253 
L 111.324429 373.449111 
L 114.393495 372.703234 
L 114.393495 370.465602 
L 117.46256 365.24446 
L 120.093188 364.498583 
L 120.093188 362.260951 
L 122.285378 359.277441 
L 123.600692 357.785686 
L 124.477568 357.039809 
L 126.23132 354.802177 
L 126.669758 354.0563 
L 126.669758 353.310422 
L 129.300385 350.326913 
L 129.738823 349.581035 
L 132.807889 346.597526 
L 133.684765 344.359894 
L 137.192269 342.122261 
L 137.630707 335.409365 
L 140.699773 332.425856 
L 144.645714 331.679978 
L 145.961028 328.696469 
L 145.961028 327.950591 
L 148.591656 326.458837 
L 148.591656 324.221204 
L 149.468532 323.475327 
L 150.345408 321.983572 
L 150.783846 321.237695 
L 151.660722 320.491818 
L 152.537598 318.254185 
L 154.729787 316.762431 
L 155.606663 316.016553 
L 157.798853 313.778921 
L 159.114167 313.033044 
L 159.114167 311.541289 
L 160.867919 310.049534 
L 161.306357 309.303657 
L 161.306357 308.557779 
L 163.936985 307.066025 
L 165.252299 305.57427 
L 166.129175 304.828393 
L 166.567613 304.082515 
L 167.882926 303.336638 
L 170.075116 302.59076 
L 171.39043 301.844883 
L 173.144182 300.353128 
L 173.144182 299.607251 
L 174.459496 298.861374 
L 174.897934 297.369619 
L 175.77481 296.623741 
L 177.090124 295.877864 
L 177.967 295.131987 
L 178.405438 294.386109 
L 179.282314 292.894355 
L 180.15919 292.148477 
L 180.597628 291.4026 
L 181.912941 290.656722 
L 182.351379 289.910845 
L 183.666693 289.164968 
L 183.666693 288.41909 
L 184.982007 287.673213 
L 185.420445 286.927335 
L 187.174197 285.435581 
L 188.051073 284.689703 
L 191.558577 283.943826 
L 192.873891 283.197949 
L 194.627642 282.452071 
L 194.627642 281.706194 
L 195.504518 280.960316 
L 198.135146 280.214439 
" clip-path="url(#p752eff2f6c)" style="fill: none; stroke: #dc2626; stroke-width: 2; stroke-linecap: round"/>
    <defs>
     <path id="m7a806bd57e" d="M 0 2 
C 0.530406 2 1.03916 1.789267 1.414214 1.414214 
C 1.789267 1.03916 2 0.530406 2 0 
C 2 -0.530406 1.789267 -1.03916 1.414214 -1.414214 
C 1.03916 -1.789267 0.530406 -2 0 -2 
C -0.530406 -2 -1.03916 -1.789267 -1.414214 -1.414214 
C -1.789267 -1.03916 -2 -0.530406 -2 0 
C -2 0.530406 -1.789267 1.03916 -1.414214 1.414214 
C -1.03916 1.789267 -0.530406 2 0 2 
z
" style="stroke: #dc2626"/>
    </defs>
    <g clip-path="url(#p752eff2f6c)">
     <use xlink:href="#m7a806bd57e" x="100.801918" y="397.317187" style="fill: #dc2626; stroke: #dc2626"/>
     <use xlink:href="#m7a806bd57e" x="101.678794" y="395.825433" style="fill: #dc2626; stroke: #dc2626"/>
     <use xlink:href="#m7a806bd57e" x="101.678794" y="394.333678" style="fill: #dc2626; stroke: #dc2626"/>
     <use xlink:href="#m7a806bd57e" x="102.555669" y="393.587801" style="fill: #dc2626; stroke: #dc2626"/>
     <use xlink:href="#m7a806bd57e" x="104.309421" y="391.350168" style="fill: #dc2626; stroke: #dc2626"/>
     <use xlink:href="#m7a806bd57e" x="106.063173" y="390.604291" style="fill: #dc2626; stroke: #dc2626"/>
     <use xlink:href="#m7a806bd57e" x="108.255363" y="383.145517" style="fill: #dc2626; stroke: #dc2626"/>
     <use xlink:href="#m7a806bd57e" x="108.693801" y="379.41613" style="fill: #dc2626; stroke: #dc2626"/>
     <use xlink:href="#m7a806bd57e" x="110.885991" y="378.670253" style="fill: #dc2626; stroke: #dc2626"/>
     <use xlink:href="#m7a806bd57e" x="111.324429" y="373.449111" style="fill: #dc2626; stroke: #dc2626"/>
     <use xlink:href="#m7a806bd57e" x="114.393495" y="372.703234" style="fill: #dc2626; stroke: #dc2626"/>
     <use xlink:href="#m7a806bd57e" x="114.393495" y="370.465602" style="fill: #dc2626; stroke: #dc2626"/>
     <use xlink:href="#m7a806bd57e" x="117.46256" y="365.24446" style="fill: #dc2626; stroke: #dc2626"/>
     <use xlink:href="#m7a806bd57e" x="120.093188" y="364.498583" style="fill: #dc2626; stroke: #dc2626"/>
     <use xlink:href="#m7a806bd57e" x="120.093188" y="362.260951" style="fill: #dc2626; stroke: #dc2626"/>
     <use xlink:href="#m7a806bd57e" x="122.285378" y="359.277441" style="fill: #dc2626; stroke: #dc2626"/>
     <use xlink:href="#m7a806bd57e" x="123.600692" y="357.785686" style="fill: #dc2626; stroke: #dc2626"/>
     <use xlink:href="#m7a806bd57e" x="124.477568" y="357.039809" style="fill: #dc2626; stroke: #dc2626"/>
     <use xlink:href="#m7a806bd57e" x="126.23132" y="354.802177" style="fill: #dc2626; stroke: #dc2626"/>
     <use xlink:href="#m7a806bd57e" x="126.669758" y="354.0563" style="fill: #dc2626; stroke: #dc2626"/>
     <use xlink:href="#m7a806bd57e" x="126.669758" y="353.310422" style="fill: #dc2626; stroke: #dc2626"/>
     <use xlink:href="#m7a806bd57e" x="129.300385" y="350.326913" style="fill: #dc2626; stroke: #dc2626"/>
     <use xlink:href="#m7a806bd57e" x="129.738823" y="349.581035" style="fill: #dc2626; stroke: #dc2626"/>
     <use xlink:href="#m7a806bd57e" x="132.807889" y="346.597526" style="fill: #dc2626; stroke: #dc2626"/>
     <use xlink:href="#m7a806bd57e" x="133.684765" y="344.359894" style="fill: #dc2626; stroke: #dc2626"/>
     <use xlink:href="#m7a806bd57e" x="137.192269" y="342.122261" style="fill: #dc2626; stroke: #dc2626"/>
     <use xlink:href="#m7a806bd57e" x="137.630707" y="335.409365" style="fill: #dc2626; stroke: #dc2626"/>
     <use xlink:href="#m7a806bd57e" x="140.699773" y="332.425856" style="fill: #dc2626; stroke: #dc2626"/>
     <use xlink:href="#m7a806bd57e" x="144.645714" y="331.679978" style="fill: #dc2626; stroke: #dc2626"/>
     <use xlink:href="#m7a806bd57e" x="145.961028" y="328.696469" style="fill: #dc2626; stroke: #dc2626"/>
     <use xlink:href="#m7a806bd57e" x="145.961028" y="327.950591" style="fill: #dc2626; stroke: #dc2626"/>
     <use xlink:href="#m7a806bd57e" x="148.591656" y="326.458837" style="fill: #dc2626; stroke: #dc2626"/>
     <use xlink:href="#m7a806bd57e" x="148.591656" y="324.221204" style="fill: #dc2626; stroke: #dc2626"/>
     <use xlink:href="#m7a806bd57e" x="149.468532" y="323.475327" style="fill: #dc2626; stroke: #dc2626"/>
     <use xlink:href="#m7a806bd57e" x="150.345408" y="321.983572" style="fill: #dc2626; stroke: #dc2626"/>
     <use xlink:href="#m7a806bd57e" x="150.783846" y="321.237695" style="fill: #dc2626; stroke: #dc2626"/>
     <use xlink:href="#m7a806bd57e" x="151.660722" y="320.491818" style="fill: #dc2626; stroke: #dc2626"/>
     <use xlink:href="#m7a806bd57e" x="152.537598" y="318.254185" style="fill: #dc2626; stroke: #dc2626"/>
     <use xlink:href="#m7a806bd57e" x="154.729787" y="316.762431" style="fill: #dc2626; stroke: #dc2626"/>
     <use xlink:href="#m7a806bd57e" x="155.606663" y="316.016553" style="fill: #dc2626; stroke: #dc2626"/>
     <use xlink:href="#m7a806bd57e" x="157.798853" y="313.778921" style="fill: #dc2626; stroke: #dc2626"/>
     <use xlink:href="#m7a806bd57e" x="159.114167" y="313.033044" style="fill: #dc2626; stroke: #dc2626"/>
     <use xlink:href="#m7a806bd57e" x="159.114167" y="311.541289" style="fill: #dc2626; stroke: #dc2626"/>
     <use xlink:href="#m7a806bd57e" x="160.867919" y="310.049534" style="fill: #dc2626; stroke: #dc2626"/>
     <use xlink:href="#m7a806bd57e" x="161.306357" y="309.303657" style="fill: #dc2626; stroke: #dc2626"/>
     <use xlink:href="#m7a806bd57e" x="161.306357" y="308.557779" style="fill: #dc2626; stroke: #dc2626"/>
     <use xlink:href="#m7a806bd57e" x="163.936985" y="307.066025" style="fill: #dc2626; stroke: #dc2626"/>
     <use xlink:href="#m7a806bd57e" x="165.252299" y="305.57427" style="fill: #dc2626; stroke: #dc2626"/>
     <use xlink:href="#m7a806bd57e" x="166.129175" y="304.828393" style="fill: #dc2626; stroke: #dc2626"/>
     <use xlink:href="#m7a806bd57e" x="166.567613" y="304.082515" style="fill: #dc2626; stroke: #dc2626"/>
     <use xlink:href="#m7a806bd57e" x="167.882926" y="303.336638" style="fill: #dc2626; stroke: #dc2626"/>
     <use xlink:href="#m7a806bd57e" x="170.075116" y="302.59076" style="fill: #dc2626; stroke: #dc2626"/>
     <use xlink:href="#m7a806bd57e" x="171.39043" y="301.844883" style="fill: #dc2626; stroke: #dc2626"/>
     <use xlink:href="#m7a806bd57e" x="173.144182" y="300.353128" style="fill: #dc2626; stroke: #dc2626"/>
     <use xlink:href="#m7a806bd57e" x="173.144182" y="299.607251" style="fill: #dc2626; stroke: #dc2626"/>
     <use xlink:href="#m7a806bd57e" x="174.459496" y="298.861374" style="fill: #dc2626; stroke: #dc2626"/>
     <use xlink:href="#m7a806bd57e" x="174.897934" y="297.369619" style="fill: #dc2626; stroke: #dc2626"/>
     <use xlink:href="#m7a806bd57e" x="175.77481" y="296.623741" style="fill: #dc2626; stroke: #dc2626"/>
     <use xlink:href="#m7a806bd57e" x="177.090124" y="295.877864" style="fill: #dc2626; stroke: #dc2626"/>
     <use xlink:href="#m7a806bd57e" x="177.967" y="295.131987" style="fill: #dc2626; stroke: #dc2626"/>
     <use xlink:href="#m7a806bd57e" x="178.405438" y="294.386109" style="fill: #dc2626; stroke: #dc2626"/>
     <use xlink:href="#m7a806bd57e" x="179.282314" y="292.894355" style="fill: #dc2626; stroke: #dc2626"/>
     <use xlink:href="#m7a806bd57e" x="180.15919" y="292.148477" style="fill: #dc2626; stroke: #dc2626"/>
     <use xlink:href="#m7a806bd57e" x="180.597628" y="291.4026" style="fill: #dc2626; stroke: #dc2626"/>
     <use xlink:href="#m7a806bd57e" x="181.912941" y="290.656722" style="fill: #dc2626; stroke: #dc2626"/>
     <use xlink:href="#m7a806bd57e" x="182.351379" y="289.910845" style="fill: #dc2626; stroke: #dc2626"/>
     <use xlink:href="#m7a806bd57e" x="183.666693" y="289.164968" style="fill: #dc2626; stroke: #dc2626"/>
     <use xlink:href="#m7a806bd57e" x="183.666693" y="288.41909" style="fill: #dc2626; stroke: #dc2626"/>
     <use xlink:href="#m7a806bd57e" x="184.982007" y="287.673213" style="fill: #dc2626; stroke: #dc2626"/>
     <use xlink:href="#m7a806bd57e" x="185.420445" y="286.927335" style="fill: #dc2626; stroke: #dc2626"/>
     <use xlink:href="#m7a806bd57e" x="187.174197" y="285.435581" style="fill: #dc2626; stroke: #dc2626"/>
     <use xlink:href="#m7a806bd57e" x="188.051073" y="284.689703" style="fill: #dc2626; stroke: #dc2626"/>
     <use xlink:href="#m7a806bd57e" x="191.558577" y="283.943826" style="fill: #dc2626; stroke: #dc2626"/>
     <use xlink:href="#m7a806bd57e" x="192.873891" y="283.197949" style="fill: #dc2626; stroke: #dc2626"/>
     <use xlink:href="#m7a806bd57e" x="194.627642" y="282.452071" style="fill: #dc2626; stroke: #dc2626"/>
     <use xlink:href="#m7a806bd57e" x="194.627642" y="281.706194" style="fill: #dc2626; stroke: #dc2626"/>
     <use xlink:href="#m7a806bd57e" x="195.504518" y="280.960316" style="fill: #dc2626; stroke: #dc2626"/>
     <use xlink:href="#m7a806bd57e" x="198.135146" y="280.214439" style="fill: #dc2626; stroke: #dc2626"/>
    </g>
   </g>
   <g id="patch_3">
    <path d="M 75.438281 414.957187 
L 75.438281 26.877188 
" style="fill: none; stroke: #cccccc; stroke-width: 1.25; stroke-linejoin: miter; stroke-linecap: square"/>
   </g>
   <g id="patch_4">
    <path d="M 633.438281 414.957187 
L 633.438281 26.877188 
" style="fill: none; stroke: #cccccc; stroke-width: 1.25; stroke-linejoin: miter; stroke-linecap: square"/>
   </g>
   <g id="patch_5">
    <path d="M 75.438281 414.957187 
L 633.438281 414.957187 
" style="fill: none; stroke: #cccccc; stroke-width: 1.25; stroke-linejoin: miter; stroke-linecap: square"/>
   </g>
   <g id="patch_6">
    <path d="M 75.438281 26.877187 
L 633.438281 26.877187 
" style="fill: none; stroke: #cccccc; stroke-width: 1.25; stroke-linejoin: miter; stroke-linecap: square"/>
   </g>
   <g id="text_15">
    <!-- Pareto Frontiers: Score vs Overhead — US -->
    <g style="fill: #262626" transform="translate(165.957188 20.877187) scale(0.18 -0.18)">
     <defs>
      <path id="DejaVuSans-33" d="M 1259 4147 
L 1259 2394 
L 2053 2394 
Q 2494 2394 2734 2622 
Q 2975 2850 2975 3272 
Q 2975 3691 2734 3919 
Q 2494 4147 2053 4147 
L 1259 4147 
z
M 628 4666 
L 2053 4666 
Q 2838 4666 3239 4311 
Q 3641 3956 3641 3272 
Q 3641 2581 3239 2228 
Q 2838 1875 2053 1875 
L 1259 1875 
L 1259 0 
L 628 0 
L 628 4666 
z
" transform="scale(0.015625)"/>
      <path id="DejaVuSans-57" d="M 1172 4494 
L 1172 3500 
L 2356 3500 
L 2356 3053 
L 1172 3053 
L 1172 1153 
Q 1172 725 1289 603 
Q 1406 481 1766 481 
L 2356 481 
L 2356 0 
L 1766 0 
Q 1100 0 847 248 
Q 594 497 594 1153 
L 594 3053 
L 172 3053 
L 172 3500 
L 594 3500 
L 594 4494 
L 1172 4494 
z
" transform="scale(0.015625)"/>
      <path id="DejaVuSans-29" d="M 628 4666 
L 3309 4666 
L 3309 4134 
L 1259 4134 
L 1259 2759 
L 3109 2759 
L 3109 2228 
L 1259 2228 
L 1259 0 
L 628 0 
L 628 4666 
z
" transform="scale(0.015625)"/>
      <path id="DejaVuSans-51" d="M 3513 2113 
L 3513 0 
L 2938 0 
L 2938 2094 
Q 2938 2591 2744 2837 
Q 2550 3084 2163 3084 
Q 1697 3084 1428 2787 
Q 1159 2491 1159 1978 
L 1159 0 
L 581 0 
L 581 3500 
L 1159 3500 
L 1159 2956 
Q 1366 3272 1645 3428 
Q 1925 3584 2291 3584 
Q 2894 3584 3203 3211 
Q 3513 2838 3513 2113 
z
" transform="scale(0.015625)"/>
      <path id="DejaVuSans-56" d="M 2834 3397 
L 2834 2853 
Q 2591 2978 2328 3040 
Q 2066 3103 1784 3103 
Q 1356 3103 1142 2972 
Q 928 2841 928 2578 
Q 928 2378 1081 2264 
Q 1234 2150 1697 2047 
L 1894 2003 
Q 2506 1872 2764 1633 
Q 3022 1394 3022 966 
Q 3022 478 2636 193 
Q 2250 -91 1575 -91 
Q 1294 -91 989 -36 
Q 684 19 347 128 
L 347 722 
Q 666 556 975 473 
Q 1284 391 1588 391 
Q 1994 391 2212 530 
Q 2431 669 2431 922 
Q 2431 1156 2273 1281 
Q 2116 1406 1581 1522 
L 1381 1569 
Q 847 1681 609 1914 
Q 372 2147 372 2553 
Q 372 3047 722 3315 
Q 1072 3584 1716 3584 
Q 2034 3584 2315 3537 
Q 2597 3491 2834 3397 
z
" transform="scale(0.015625)"/>
      <path id="DejaVuSans-1d" d="M 750 794 
L 1409 794 
L 1409 0 
L 750 0 
L 750 794 
z
M 750 3309 
L 1409 3309 
L 1409 2516 
L 750 2516 
L 750 3309 
z
" transform="scale(0.015625)"/>
      <path id="DejaVuSans-af6" d="M 313 1978 
L 6088 1978 
L 6088 1528 
L 313 1528 
L 313 1978 
z
" transform="scale(0.015625)"/>
      <path id="DejaVuSans-38" d="M 556 4666 
L 1191 4666 
L 1191 1831 
Q 1191 1081 1462 751 
Q 1734 422 2344 422 
Q 2950 422 3222 751 
Q 3494 1081 3494 1831 
L 3494 4666 
L 4128 4666 
L 4128 1753 
Q 4128 841 3676 375 
Q 3225 -91 2344 -91 
Q 1459 -91 1007 375 
Q 556 841 556 1753 
L 556 4666 
z
" transform="scale(0.015625)"/>
     </defs>
     <use xlink:href="#DejaVuSans-33"/>
     <use xlink:href="#DejaVuSans-44" transform="translate(55.8125 0)"/>
     <use xlink:href="#DejaVuSans-55" transform="translate(117.09375 0)"/>
     <use xlink:href="#DejaVuSans-48" transform="translate(156 0)"/>
     <use xlink:href="#DejaVuSans-57" transform="translate(217.53125 0)"/>
     <use xlink:href="#DejaVuSans-52" transform="translate(256.734375 0)"/>
     <use xlink:href="#DejaVuSans-3" transform="translate(317.921875 0)"/>
     <use xlink:href="#DejaVuSans-29" transform="translate(349.703125 0)"/>
     <use xlink:href="#DejaVuSans-55" transform="translate(399.9375 0)"/>
     <use xlink:href="#DejaVuSans-52" transform="translate(438.84375 0)"/>
     <use xlink:href="#DejaVuSans-51" transform="translate(500.03125 0)"/>
     <use xlink:href="#DejaVuSans-57" transform="translate(563.40625 0)"/>
     <use xlink:href="#DejaVuSans-4c" transform="translate(602.609375 0)"/>
     <use xlink:href="#DejaVuSans-48" transform="translate(630.390625 0)"/>
     <use xlink:href="#DejaVuSans-55" transform="translate(691.921875 0)"/>
     <use xlink:href="#DejaVuSans-56" transform="translate(733.03125 0)"/>
     <use xlink:href="#DejaVuSans-1d" transform="translate(785.125 0)"/>
     <use xlink:href="#DejaVuSans-3" transform="translate(818.8125 0)"/>
     <use xlink:href="#DejaVuSans-36" transform="translate(850.59375 0)"/>
     <use xlink:href="#DejaVuSans-46" transform="translate(914.078125 0)"/>
     <use xlink:href="#DejaVuSans-52" transform="translate(969.0625 0)"/>
     <use xlink:href="#DejaVuSans-55" transform="translate(1030.25 0)"/>
     <use xlink:href="#DejaVuSans-48" transform="translate(1069.15625 0)"/>
     <use xlink:href="#DejaVuSans-3" transform="translate(1130.6875 0)"/>
     <use xlink:href="#DejaVuSans-59" transform="translate(1162.46875 0)"/>
     <use xlink:href="#DejaVuSans-56" transform="translate(1221.65625 0)"/>
     <use xlink:href="#DejaVuSans-3" transform="translate(1273.75 0)"/>
     <use xlink:href="#DejaVuSans-32" transform="translate(1305.53125 0)"/>
     <use xlink:href="#DejaVuSans-59" transform="translate(1384.25 0)"/>
     <use xlink:href="#DejaVuSans-48" transform="translate(1443.4375 0)"/>
     <use xlink:href="#DejaVuSans-55" transform="translate(1504.96875 0)"/>
     <use xlink:href="#DejaVuSans-4b" transform="translate(1544.328125 0)"/>
     <use xlink:href="#DejaVuSans-48" transform="translate(1607.703125 0)"/>
     <use xlink:href="#DejaVuSans-44" transform="translate(1669.234375 0)"/>
     <use xlink:href="#DejaVuSans-47" transform="translate(1730.515625 0)"/>
     <use xlink:href="#DejaVuSans-3" transform="translate(1794 0)"/>
     <use xlink:href="#DejaVuSans-af6" transform="translate(1825.78125 0)"/>
     <use xlink:href="#DejaVuSans-3" transform="translate(1925.78125 0)"/>
     <use xlink:href="#DejaVuSans-38" transform="translate(1957.5625 0)"/>
     <use xlink:href="#DejaVuSans-36" transform="translate(2030.75 0)"/>
    </g>
   </g>
   <g id="legend_1">
    <g id="patch_7">
     <path d="M 479.898281 410.457187 
L 627.138281 410.457187 
Q 628.938281 410.457187 628.938281 408.657187 
L 628.938281 355.554375 
Q 628.938281 353.754375 627.138281 353.754375 
L 479.898281 353.754375 
Q 478.098281 353.754375 478.098281 355.554375 
L 478.098281 408.657187 
Q 478.098281 410.457187 479.898281 410.457187 
z
" style="fill: #ffffff; opacity: 0.8; stroke: #cccccc; stroke-linejoin: miter"/>
    </g>
    <g id="line2d_15">
     <path d="M 481.698281 361.042969 
L 490.698281 361.042969 
L 499.698281 361.042969 
" style="fill: none; stroke: #2563eb; stroke-width: 2; stroke-linecap: round"/>
     <g>
      <use xlink:href="#m1a7b7ab071" x="490.698281" y="361.042969" style="fill: #2563eb; stroke: #2563eb"/>
     </g>
    </g>
    <g id="text_16">
     <!-- DeepSeek V3 frontier -->
     <g style="fill: #262626" transform="translate(506.898281 364.192969) scale(0.09 -0.09)">
      <defs>
       <path id="DejaVuSans-27" d="M 1259 4147 
L 1259 519 
L 2022 519 
Q 2988 519 3436 956 
Q 3884 1394 3884 2338 
Q 3884 3275 3436 3711 
Q 2988 4147 2022 4147 
L 1259 4147 
z
M 628 4666 
L 1925 4666 
Q 3281 4666 3915 4102 
Q 4550 3538 4550 2338 
Q 4550 1131 3912 565 
Q 3275 0 1925 0 
L 628 0 
L 628 4666 
z
" transform="scale(0.015625)"/>
       <path id="DejaVuSans-53" d="M 1159 525 
L 1159 -1331 
L 581 -1331 
L 581 3500 
L 1159 3500 
L 1159 2969 
Q 1341 3281 1617 3432 
Q 1894 3584 2278 3584 
Q 2916 3584 3314 3078 
Q 3713 2572 3713 1747 
Q 3713 922 3314 415 
Q 2916 -91 2278 -91 
Q 1894 -91 1617 61 
Q 1341 213 1159 525 
z
M 3116 1747 
Q 3116 2381 2855 2742 
Q 2594 3103 2138 3103 
Q 1681 3103 1420 2742 
Q 1159 2381 1159 1747 
Q 1159 1113 1420 752 
Q 1681 391 2138 391 
Q 2594 391 2855 752 
Q 3116 1113 3116 1747 
z
" transform="scale(0.015625)"/>
       <path id="DejaVuSans-4e" d="M 581 4863 
L 1159 4863 
L 1159 1991 
L 2875 3500 
L 3609 3500 
L 1753 1863 
L 3688 0 
L 2938 0 
L 1159 1709 
L 1159 0 
L 581 0 
L 581 4863 
z
" transform="scale(0.015625)"/>
       <path id="DejaVuSans-39" d="M 1831 0 
L 50 4666 
L 709 4666 
L 2188 738 
L 3669 4666 
L 4325 4666 
L 2547 0 
L 1831 0 
z
" transform="scale(0.015625)"/>
       <path id="DejaVuSans-49" d="M 2375 4863 
L 2375 4384 
L 1825 4384 
Q 1516 4384 1395 4259 
Q 1275 4134 1275 3809 
L 1275 3500 
L 2222 3500 
L 2222 3053 
L 1275 3053 
L 1275 0 
L 697 0 
L 697 3053 
L 147 3053 
L 147 3500 
L 697 3500 
L 697 3744 
Q 697 4328 969 4595 
Q 1241 4863 1831 4863 
L 2375 4863 
z
" transform="scale(0.015625)"/>
      </defs>
      <use xlink:href="#DejaVuSans-27"/>
      <use xlink:href="#DejaVuSans-48" transform="translate(77 0)"/>
      <use xlink:href="#DejaVuSans-48" transform="translate(138.53125 0)"/>
      <use xlink:href="#DejaVuSans-53" transform="translate(200.0625 0)"/>
      <use xlink:href="#DejaVuSans-36" transform="translate(263.546875 0)"/>
      <use xlink:href="#DejaVuSans-48" transform="translate(327.03125 0)"/>
      <use xlink:href="#DejaVuSans-48" transform="translate(388.5625 0)"/>
      <use xlink:href="#DejaVuSans-4e" transform="translate(450.09375 0)"/>
      <use xlink:href="#DejaVuSans-3" transform="translate(508 0)"/>
      <use xlink:href="#DejaVuSans-39" transform="translate(539.78125 0)"/>
      <use xlink:href="#DejaVuSans-16" transform="translate(608.1875 0)"/>
      <use xlink:href="#DejaVuSans-3" transform="translate(671.8125 0)"/>
      <use xlink:href="#DejaVuSans-49" transform="translate(703.59375 0)"/>
      <use xlink:href="#DejaVuSans-55" transform="translate(738.796875 0)"/>
      <use xlink:href="#DejaVuSans-52" transform="translate(777.703125 0)"/>
      <use xlink:href="#DejaVuSans-51" transform="translate(838.890625 0)"/>
      <use xlink:href="#DejaVuSans-57" transform="translate(902.265625 0)"/>
      <use xlink:href="#DejaVuSans-4c" transform="translate(941.46875 0)"/>
      <use xlink:href="#DejaVuSans-48" transform="translate(969.25 0)"/>
      <use xlink:href="#DejaVuSans-55" transform="translate(1030.78125 0)"/>
     </g>
    </g>
    <g id="PathCollection_1">
     <defs>
      <path id="m3b856eac03" d="M 0 -7.071068 
L -1.587554 -2.18508 
L -6.724985 -2.18508 
L -2.568716 0.834626 
L -4.156269 5.720614 
L -0 2.700907 
L 4.156269 5.720614 
L 2.568716 0.834626 
L 6.724985 -2.18508 
L 1.587554 -2.18508 
z
" style="stroke: #000000"/>
     </defs>
     <g>
      <use xlink:href="#m3b856eac03" x="490.698281" y="375.331172" style="fill: #ff0000; stroke: #000000"/>
     </g>
    </g>
    <g id="text_17">
     <!-- DeepSeek V3 best (0.547) -->
     <g style="fill: #262626" transform="translate(506.898281 377.693672) scale(0.09 -0.09)">
      <defs>
       <path id="DejaVuSans-45" d="M 3116 1747 
Q 3116 2381 2855 2742 
Q 2594 3103 2138 3103 
Q 1681 3103 1420 2742 
Q 1159 2381 1159 1747 
Q 1159 1113 1420 752 
Q 1681 391 2138 391 
Q 2594 391 2855 752 
Q 3116 1113 3116 1747 
z
M 1159 2969 
Q 1341 3281 1617 3432 
Q 1894 3584 2278 3584 
Q 2916 3584 3314 3078 
Q 3713 2572 3713 1747 
Q 3713 922 3314 415 
Q 2916 -91 2278 -91 
Q 1894 -91 1617 61 
Q 1341 213 1159 525 
L 1159 0 
L 581 0 
L 581 4863 
L 1159 4863 
L 1159 2969 
z
" transform="scale(0.015625)"/>
       <path id="DejaVuSans-1a" d="M 525 4666 
L 3525 4666 
L 3525 4397 
L 1831 0 
L 1172 0 
L 2766 4134 
L 525 4134 
L 525 4666 
z
" transform="scale(0.015625)"/>
      </defs>
      <use xlink:href="#DejaVuSans-27"/>
      <use xlink:href="#DejaVuSans-48" transform="translate(77 0)"/>
      <use xlink:href="#DejaVuSans-48" transform="translate(138.53125 0)"/>
      <use xlink:href="#DejaVuSans-53" transform="translate(200.0625 0)"/>
      <use xlink:href="#DejaVuSans-36" transform="translate(263.546875 0)"/>
      <use xlink:href="#DejaVuSans-48" transform="translate(327.03125 0)"/>
      <use xlink:href="#DejaVuSans-48" transform="translate(388.5625 0)"/>
      <use xlink:href="#DejaVuSans-4e" transform="translate(450.09375 0)"/>
      <use xlink:href="#DejaVuSans-3" transform="translate(508 0)"/>
      <use xlink:href="#DejaVuSans-39" transform="translate(539.78125 0)"/>
      <use xlink:href="#DejaVuSans-16" transform="translate(608.1875 0)"/>
      <use xlink:href="#DejaVuSans-3" transform="translate(671.8125 0)"/>
      <use xlink:href="#DejaVuSans-45" transform="translate(703.59375 0)"/>
      <use xlink:href="#DejaVuSans-48" transform="translate(767.078125 0)"/>
      <use xlink:href="#DejaVuSans-56" transform="translate(828.609375 0)"/>
      <use xlink:href="#DejaVuSans-57" transform="translate(880.703125 0)"/>
      <use xlink:href="#DejaVuSans-3" transform="translate(919.90625 0)"/>
      <use xlink:href="#DejaVuSans-b" transform="translate(951.6875 0)"/>
      <use xlink:href="#DejaVuSans-13" transform="translate(990.703125 0)"/>
      <use xlink:href="#DejaVuSans-11" transform="translate(1054.328125 0)"/>
      <use xlink:href="#DejaVuSans-18" transform="translate(1086.109375 0)"/>
      <use xlink:href="#DejaVuSans-17" transform="translate(1149.734375 0)"/>
      <use xlink:href="#DejaVuSans-1a" transform="translate(1213.359375 0)"/>
      <use xlink:href="#DejaVuSans-c" transform="translate(1276.984375 0)"/>
     </g>
    </g>
    <g id="line2d_16">
     <path d="M 481.698281 388.044375 
L 490.698281 388.044375 
L 499.698281 388.044375 
" style="fill: none; stroke: #dc2626; stroke-width: 2; stroke-linecap: round"/>
     <g>
      <use xlink:href="#m7a806bd57e" x="490.698281" y="388.044375" style="fill: #dc2626; stroke: #dc2626"/>
     </g>
    </g>
    <g id="text_18">
     <!-- Kimi K2 frontier -->
     <g style="fill: #262626" transform="translate(506.898281 391.194375) scale(0.09 -0.09)">
      <defs>
       <path id="DejaVuSans-2e" d="M 628 4666 
L 1259 4666 
L 1259 2694 
L 3353 4666 
L 4166 4666 
L 1850 2491 
L 4331 0 
L 3500 0 
L 1259 2247 
L 1259 0 
L 628 0 
L 628 4666 
z
" transform="scale(0.015625)"/>
      </defs>
      <use xlink:href="#DejaVuSans-2e"/>
      <use xlink:href="#DejaVuSans-4c" transform="translate(65.578125 0)"/>
      <use xlink:href="#DejaVuSans-50" transform="translate(93.359375 0)"/>
      <use xlink:href="#DejaVuSans-4c" transform="translate(190.765625 0)"/>
      <use xlink:href="#DejaVuSans-3" transform="translate(218.546875 0)"/>
      <use xlink:href="#DejaVuSans-2e" transform="translate(250.328125 0)"/>
      <use xlink:href="#DejaVuSans-15" transform="translate(315.90625 0)"/>
      <use xlink:href="#DejaVuSans-3" transform="translate(379.53125 0)"/>
      <use xlink:href="#DejaVuSans-49" transform="translate(411.3125 0)"/>
      <use xlink:href="#DejaVuSans-55" transform="translate(446.515625 0)"/>
      <use xlink:href="#DejaVuSans-52" transform="translate(485.421875 0)"/>
      <use xlink:href="#DejaVuSans-51" transform="translate(546.609375 0)"/>
      <use xlink:href="#DejaVuSans-57" transform="translate(609.984375 0)"/>
      <use xlink:href="#DejaVuSans-4c" transform="translate(649.1875 0)"/>
      <use xlink:href="#DejaVuSans-48" transform="translate(676.96875 0)"/>
      <use xlink:href="#DejaVuSans-55" transform="translate(738.5 0)"/>
     </g>
    </g>
    <g id="PathCollection_2">
     <g>
      <use xlink:href="#m3b856eac03" x="490.698281" y="402.332578" style="fill: #ff0000; stroke: #000000"/>
     </g>
    </g>
    <g id="text_19">
     <!-- Kimi K2 best (0.516) -->
     <g style="fill: #262626" transform="translate(506.898281 404.695078) scale(0.09 -0.09)">
      <use xlink:href="#DejaVuSans-2e"/>
      <use xlink:href="#DejaVuSans-4c" transform="translate(65.578125 0)"/>
      <use xlink:href="#DejaVuSans-50" transform="translate(93.359375 0)"/>
      <use xlink:href="#DejaVuSans-4c" transform="translate(190.765625 0)"/>
      <use xlink:href="#DejaVuSans-3" transform="translate(218.546875 0)"/>
      <use xlink:href="#DejaVuSans-2e" transform="translate(250.328125 0)"/>
      <use xlink:href="#DejaVuSans-15" transform="translate(315.90625 0)"/>
      <use xlink:href="#DejaVuSans-3" transform="translate(379.53125 0)"/>
      <use xlink:href="#DejaVuSans-45" transform="translate(411.3125 0)"/>
      <use xlink:href="#DejaVuSans-48" transform="translate(474.796875 0)"/>
      <use xlink:href="#DejaVuSans-56" transform="translate(536.328125 0)"/>
      <use xlink:href="#DejaVuSans-57" transform="translate(588.421875 0)"/>
      <use xlink:href="#DejaVuSans-3" transform="translate(627.625 0)"/>
      <use xlink:href="#DejaVuSans-b" transform="translate(659.40625 0)"/>
      <use xlink:href="#DejaVuSans-13" transform="translate(698.421875 0)"/>
      <use xlink:href="#DejaVuSans-11" transform="translate(762.046875 0)"/>
      <use xlink:href="#DejaVuSans-18" transform="translate(793.828125 0)"/>
      <use xlink:href="#DejaVuSans-14" transform="translate(857.453125 0)"/>
      <use xlink:href="#DejaVuSans-19" transform="translate(921.078125 0)"/>
      <use xlink:href="#DejaVuSans-c" transform="translate(984.703125 0)"/>
     </g>
    </g>
   </g>
   <g id="PathCollection_3">
    <g clip-path="url(#p752eff2f6c)">
     <use xlink:href="#m3b856eac03" x="608.074645" y="44.517187" style="fill: #ff0000; stroke: #000000"/>
    </g>
   </g>
   <g id="PathCollection_4">
    <g clip-path="url(#p752eff2f6c)">
     <use xlink:href="#m3b856eac03" x="198.135146" y="280.214439" style="fill: #ff0000; stroke: #000000"/>
    </g>
   </g>
  </g>
 </g>
 <defs>
  <clipPath id="p752eff2f6c">
   <rect x="75.438281" y="26.877187" width="558" height="388.08"/>
  </clipPath>
 </defs>
</svg>
