<?xml version="1.0" encoding="utf-8" standalone="no"?>
<!DOCTYPE svg PUBLIC "-//W3C//DTD SVG 1.1//EN"
  "http://www.w3.org/Graphics/SVG/1.1/DTD/svg11.dtd">
<svg xmlns:xlink="http://www.w3.org/1999/xlink" width="983.115938pt" height="551.521797pt" viewBox="0 0 983.115938 551.521797" xmlns="http://www.w3.org/2000/svg" version="1.1">
 <metadata>
  <rdf:RDF xmlns:dc="http://purl.org/dc/elements/1.1/" xmlns:cc="http://creativecommons.org/ns#" xmlns:rdf="http://www.w3.org/1999/02/22-rdf-syntax-ns#">
   <cc:Work>
    <dc:type rdf:resource="http://purl.org/dc/dcmitype/StillImage"/>
    <dc:date>2026-07-22T22:27:55.179358</dc:date>
    <dc:format>image/svg+xml</dc:format>
    <dc:creator>
     <cc:Agent>
      <dc:title>Matplotlib v3.11.0, https://matplotlib.org/</dc:title>
     </cc:Agent>
    </dc:creator>
   </cc:Work>
  </rdf:RDF>
 </metadata>
 <defs>
  <style type="text/css">*{stroke-linejoin: round; stroke-linecap: butt}</style>
 </defs>
 <g id="figure_1">
  <g id="patch_1">
   <path d="M 0 551.521797 
L 983.115938 551.521797 
L 983.115938 0 
L 0 0 
z
" style="fill: #ffffff"/>
  </g>
  <g id="axes_1">
   <g id="patch_2">
    <path d="M 64.940156 513.217578 
L 975.915938 513.217578 
L 975.915938 23.837813 
L 64.940156 23.837813 
z
" style="fill: #ffffff"/>
   </g>
   <g id="matplotlib.axis_1">
    <g id="xtick_1">
     <g id="line2d_1">
      <path d="M 175.361463 513.217578 
L 175.361463 23.837813 
" clip-path="url(#pb26393b923)" style="fill: none; stroke: #cccccc; stroke-linecap: round"/>
     </g>
     <g id="text_1">
      <!-- A: Aggressive -->
      <g style="fill: #262626" transform="translate(144.733338 530.457051) scale(0.09 -0.09)">
       <defs>
        <path id="DejaVuSans-24" d="M 2188 4044 
L 1331 1722 
L 3047 1722 
L 2188 4044 
z
M 1831 4666 
L 2547 4666 
L 4325 0 
L 3669 0 
L 3244 1197 
L 1141 1197 
L 716 0 
L 50 0 
L 1831 4666 
z
" transform="scale(0.015625)"/>
        <path id="DejaVuSans-1d" d="M 750 794 
L 1409 794 
L 1409 0 
L 750 0 
L 750 794 
z
M 750 3309 
L 1409 3309 
L 1409 2516 
L 750 2516 
L 750 3309 
z
" transform="scale(0.015625)"/>
        <path id="DejaVuSans-3" transform="scale(0.015625)"/>
        <path id="DejaVuSans-4a" d="M 2906 1791 
Q 2906 2416 2648 2759 
Q 2391 3103 1925 3103 
Q 1463 3103 1205 2759 
Q 947 2416 947 1791 
Q 947 1169 1205 825 
Q 1463 481 1925 481 
Q 2391 481 2648 825 
Q 2906 1169 2906 1791 
z
M 3481 434 
Q 3481 -459 3084 -895 
Q 2688 -1331 1869 -1331 
Q 1566 -1331 1297 -1286 
Q 1028 -1241 775 -1147 
L 775 -588 
Q 1028 -725 1275 -790 
Q 1522 -856 1778 -856 
Q 2344 -856 2625 -561 
Q 2906 -266 2906 331 
L 2906 616 
Q 2728 306 2450 153 
Q 2172 0 1784 0 
Q 1141 0 747 490 
Q 353 981 353 1791 
Q 353 2603 747 3093 
Q 1141 3584 1784 3584 
Q 2172 3584 2450 3431 
Q 2728 3278 2906 2969 
L 2906 3500 
L 3481 3500 
L 3481 434 
z
" transform="scale(0.015625)"/>
        <path id="DejaVuSans-55" d="M 2631 2963 
Q 2534 3019 2420 3045 
Q 2306 3072 2169 3072 
Q 1681 3072 1420 2755 
Q 1159 2438 1159 1844 
L 1159 0 
L 581 0 
L 581 3500 
L 1159 3500 
L 1159 2956 
Q 1341 3275 1631 3429 
Q 1922 3584 2338 3584 
Q 2397 3584 2469 3576 
Q 2541 3569 2628 3553 
L 2631 2963 
z
" transform="scale(0.015625)"/>
        <path id="DejaVuSans-48" d="M 3597 1894 
L 3597 1613 
L 953 1613 
Q 991 1019 1311 708 
Q 1631 397 2203 397 
Q 2534 397 2845 478 
Q 3156 559 3463 722 
L 3463 178 
Q 3153 47 2828 -22 
Q 2503 -91 2169 -91 
Q 1331 -91 842 396 
Q 353 884 353 1716 
Q 353 2575 817 3079 
Q 1281 3584 2069 3584 
Q 2775 3584 3186 3129 
Q 3597 2675 3597 1894 
z
M 3022 2063 
Q 3016 2534 2758 2815 
Q 2500 3097 2075 3097 
Q 1594 3097 1305 2825 
Q 1016 2553 972 2059 
L 3022 2063 
z
" transform="scale(0.015625)"/>
        <path id="DejaVuSans-56" d="M 2834 3397 
L 2834 2853 
Q 2591 2978 2328 3040 
Q 2066 3103 1784 3103 
Q 1356 3103 1142 2972 
Q 928 2841 928 2578 
Q 928 2378 1081 2264 
Q 1234 2150 1697 2047 
L 1894 2003 
Q 2506 1872 2764 1633 
Q 3022 1394 3022 966 
Q 3022 478 2636 193 
Q 2250 -91 1575 -91 
Q 1294 -91 989 -36 
Q 684 19 347 128 
L 347 722 
Q 666 556 975 473 
Q 1284 391 1588 391 
Q 1994 391 2212 530 
Q 2431 669 2431 922 
Q 2431 1156 2273 1281 
Q 2116 1406 1581 1522 
L 1381 1569 
Q 847 1681 609 1914 
Q 372 2147 372 2553 
Q 372 3047 722 3315 
Q 1072 3584 1716 3584 
Q 2034 3584 2315 3537 
Q 2597 3491 2834 3397 
z
" transform="scale(0.015625)"/>
        <path id="DejaVuSans-4c" d="M 603 3500 
L 1178 3500 
L 1178 0 
L 603 0 
L 603 3500 
z
M 603 4863 
L 1178 4863 
L 1178 4134 
L 603 4134 
L 603 4863 
z
" transform="scale(0.015625)"/>
        <path id="DejaVuSans-59" d="M 191 3500 
L 800 3500 
L 1894 563 
L 2988 3500 
L 3597 3500 
L 2284 0 
L 1503 0 
L 191 3500 
z
" transform="scale(0.015625)"/>
       </defs>
       <use xlink:href="#DejaVuSans-24"/>
       <use xlink:href="#DejaVuSans-1d" transform="translate(66.65625 0)"/>
       <use xlink:href="#DejaVuSans-3" transform="translate(100.34375 0)"/>
       <use xlink:href="#DejaVuSans-24" transform="translate(132.125 0)"/>
       <use xlink:href="#DejaVuSans-4a" transform="translate(200.53125 0)"/>
       <use xlink:href="#DejaVuSans-4a" transform="translate(264.015625 0)"/>
       <use xlink:href="#DejaVuSans-55" transform="translate(327.5 0)"/>
       <use xlink:href="#DejaVuSans-48" transform="translate(366.40625 0)"/>
       <use xlink:href="#DejaVuSans-56" transform="translate(427.9375 0)"/>
       <use xlink:href="#DejaVuSans-56" transform="translate(480.03125 0)"/>
       <use xlink:href="#DejaVuSans-4c" transform="translate(532.125 0)"/>
       <use xlink:href="#DejaVuSans-59" transform="translate(559.90625 0)"/>
       <use xlink:href="#DejaVuSans-48" transform="translate(619.09375 0)"/>
      </g>
      <!-- (43% save, 190% OH) -->
      <g style="fill: #262626" transform="translate(125.801697 541.258809) scale(0.09 -0.09)">
       <defs>
        <path id="DejaVuSans-b" d="M 1984 4856 
Q 1566 4138 1362 3434 
Q 1159 2731 1159 2009 
Q 1159 1288 1364 580 
Q 1569 -128 1984 -844 
L 1484 -844 
Q 1016 -109 783 600 
Q 550 1309 550 2009 
Q 550 2706 781 3412 
Q 1013 4119 1484 4856 
L 1984 4856 
z
" transform="scale(0.015625)"/>
        <path id="DejaVuSans-17" d="M 2419 4116 
L 825 1625 
L 2419 1625 
L 2419 4116 
z
M 2253 4666 
L 3047 4666 
L 3047 1625 
L 3713 1625 
L 3713 1100 
L 3047 1100 
L 3047 0 
L 2419 0 
L 2419 1100 
L 313 1100 
L 313 1709 
L 2253 4666 
z
" transform="scale(0.015625)"/>
        <path id="DejaVuSans-16" d="M 2597 2516 
Q 3050 2419 3304 2112 
Q 3559 1806 3559 1356 
Q 3559 666 3084 287 
Q 2609 -91 1734 -91 
Q 1441 -91 1130 -33 
Q 819 25 488 141 
L 488 750 
Q 750 597 1062 519 
Q 1375 441 1716 441 
Q 2309 441 2620 675 
Q 2931 909 2931 1356 
Q 2931 1769 2642 2001 
Q 2353 2234 1838 2234 
L 1294 2234 
L 1294 2753 
L 1863 2753 
Q 2328 2753 2575 2939 
Q 2822 3125 2822 3475 
Q 2822 3834 2567 4026 
Q 2313 4219 1838 4219 
Q 1578 4219 1281 4162 
Q 984 4106 628 3988 
L 628 4550 
Q 988 4650 1302 4700 
Q 1616 4750 1894 4750 
Q 2613 4750 3031 4423 
Q 3450 4097 3450 3541 
Q 3450 3153 3228 2886 
Q 3006 2619 2597 2516 
z
" transform="scale(0.015625)"/>
        <path id="DejaVuSans-8" d="M 4653 2053 
Q 4381 2053 4226 1822 
Q 4072 1591 4072 1178 
Q 4072 772 4226 539 
Q 4381 306 4653 306 
Q 4919 306 5073 539 
Q 5228 772 5228 1178 
Q 5228 1588 5073 1820 
Q 4919 2053 4653 2053 
z
M 4653 2450 
Q 5147 2450 5437 2106 
Q 5728 1763 5728 1178 
Q 5728 594 5436 251 
Q 5144 -91 4653 -91 
Q 4153 -91 3862 251 
Q 3572 594 3572 1178 
Q 3572 1766 3864 2108 
Q 4156 2450 4653 2450 
z
M 1428 4353 
Q 1159 4353 1004 4120 
Q 850 3888 850 3481 
Q 850 3069 1003 2837 
Q 1156 2606 1428 2606 
Q 1700 2606 1854 2837 
Q 2009 3069 2009 3481 
Q 2009 3884 1853 4118 
Q 1697 4353 1428 4353 
z
M 4250 4750 
L 4750 4750 
L 1831 -91 
L 1331 -91 
L 4250 4750 
z
M 1428 4750 
Q 1922 4750 2215 4408 
Q 2509 4066 2509 3481 
Q 2509 2891 2217 2550 
Q 1925 2209 1428 2209 
Q 931 2209 642 2551 
Q 353 2894 353 3481 
Q 353 4063 643 4406 
Q 934 4750 1428 4750 
z
" transform="scale(0.015625)"/>
        <path id="DejaVuSans-44" d="M 2194 1759 
Q 1497 1759 1228 1600 
Q 959 1441 959 1056 
Q 959 750 1161 570 
Q 1363 391 1709 391 
Q 2188 391 2477 730 
Q 2766 1069 2766 1631 
L 2766 1759 
L 2194 1759 
z
M 3341 1997 
L 3341 0 
L 2766 0 
L 2766 531 
Q 2569 213 2275 61 
Q 1981 -91 1556 -91 
Q 1019 -91 701 211 
Q 384 513 384 1019 
Q 384 1609 779 1909 
Q 1175 2209 1959 2209 
L 2766 2209 
L 2766 2266 
Q 2766 2663 2505 2880 
Q 2244 3097 1772 3097 
Q 1472 3097 1187 3025 
Q 903 2953 641 2809 
L 641 3341 
Q 956 3463 1253 3523 
Q 1550 3584 1831 3584 
Q 2591 3584 2966 3190 
Q 3341 2797 3341 1997 
z
" transform="scale(0.015625)"/>
        <path id="DejaVuSans-f" d="M 750 794 
L 1409 794 
L 1409 256 
L 897 -744 
L 494 -744 
L 750 256 
L 750 794 
z
" transform="scale(0.015625)"/>
        <path id="DejaVuSans-14" d="M 794 531 
L 1825 531 
L 1825 4091 
L 703 3866 
L 703 4441 
L 1819 4666 
L 2450 4666 
L 2450 531 
L 3481 531 
L 3481 0 
L 794 0 
L 794 531 
z
" transform="scale(0.015625)"/>
        <path id="DejaVuSans-1c" d="M 703 97 
L 703 672 
Q 941 559 1184 500 
Q 1428 441 1663 441 
Q 2288 441 2617 861 
Q 2947 1281 2994 2138 
Q 2813 1869 2534 1725 
Q 2256 1581 1919 1581 
Q 1219 1581 811 2004 
Q 403 2428 403 3163 
Q 403 3881 828 4315 
Q 1253 4750 1959 4750 
Q 2769 4750 3195 4129 
Q 3622 3509 3622 2328 
Q 3622 1225 3098 567 
Q 2575 -91 1691 -91 
Q 1453 -91 1209 -44 
Q 966 3 703 97 
z
M 1959 2075 
Q 2384 2075 2632 2365 
Q 2881 2656 2881 3163 
Q 2881 3666 2632 3958 
Q 2384 4250 1959 4250 
Q 1534 4250 1286 3958 
Q 1038 3666 1038 3163 
Q 1038 2656 1286 2365 
Q 1534 2075 1959 2075 
z
" transform="scale(0.015625)"/>
        <path id="DejaVuSans-13" d="M 2034 4250 
Q 1547 4250 1301 3770 
Q 1056 3291 1056 2328 
Q 1056 1369 1301 889 
Q 1547 409 2034 409 
Q 2525 409 2770 889 
Q 3016 1369 3016 2328 
Q 3016 3291 2770 3770 
Q 2525 4250 2034 4250 
z
M 2034 4750 
Q 2819 4750 3233 4129 
Q 3647 3509 3647 2328 
Q 3647 1150 3233 529 
Q 2819 -91 2034 -91 
Q 1250 -91 836 529 
Q 422 1150 422 2328 
Q 422 3509 836 4129 
Q 1250 4750 2034 4750 
z
" transform="scale(0.015625)"/>
        <path id="DejaVuSans-32" d="M 2522 4238 
Q 1834 4238 1429 3725 
Q 1025 3213 1025 2328 
Q 1025 1447 1429 934 
Q 1834 422 2522 422 
Q 3209 422 3611 934 
Q 4013 1447 4013 2328 
Q 4013 3213 3611 3725 
Q 3209 4238 2522 4238 
z
M 2522 4750 
Q 3503 4750 4090 4092 
Q 4678 3434 4678 2328 
Q 4678 1225 4090 567 
Q 3503 -91 2522 -91 
Q 1538 -91 948 565 
Q 359 1222 359 2328 
Q 359 3434 948 4092 
Q 1538 4750 2522 4750 
z
" transform="scale(0.015625)"/>
        <path id="DejaVuSans-2b" d="M 628 4666 
L 1259 4666 
L 1259 2753 
L 3553 2753 
L 3553 4666 
L 4184 4666 
L 4184 0 
L 3553 0 
L 3553 2222 
L 1259 2222 
L 1259 0 
L 628 0 
L 628 4666 
z
" transform="scale(0.015625)"/>
        <path id="DejaVuSans-c" d="M 513 4856 
L 1013 4856 
Q 1481 4119 1714 3412 
Q 1947 2706 1947 2009 
Q 1947 1309 1714 600 
Q 1481 -109 1013 -844 
L 513 -844 
Q 928 -128 1133 580 
Q 1338 1288 1338 2009 
Q 1338 2731 1133 3434 
Q 928 4138 513 4856 
z
" transform="scale(0.015625)"/>
       </defs>
       <use xlink:href="#DejaVuSans-b"/>
       <use xlink:href="#DejaVuSans-17" transform="translate(39.015625 0)"/>
       <use xlink:href="#DejaVuSans-16" transform="translate(102.640625 0)"/>
       <use xlink:href="#DejaVuSans-8" transform="translate(166.265625 0)"/>
       <use xlink:href="#DejaVuSans-3" transform="translate(261.28125 0)"/>
       <use xlink:href="#DejaVuSans-56" transform="translate(293.0625 0)"/>
       <use xlink:href="#DejaVuSans-44" transform="translate(345.15625 0)"/>
       <use xlink:href="#DejaVuSans-59" transform="translate(406.4375 0)"/>
       <use xlink:href="#DejaVuSans-48" transform="translate(465.625 0)"/>
       <use xlink:href="#DejaVuSans-f" transform="translate(527.15625 0)"/>
       <use xlink:href="#DejaVuSans-3" transform="translate(558.9375 0)"/>
       <use xlink:href="#DejaVuSans-14" transform="translate(590.71875 0)"/>
       <use xlink:href="#DejaVuSans-1c" transform="translate(654.34375 0)"/>
       <use xlink:href="#DejaVuSans-13" transform="translate(717.96875 0)"/>
       <use xlink:href="#DejaVuSans-8" transform="translate(781.59375 0)"/>
       <use xlink:href="#DejaVuSans-3" transform="translate(876.609375 0)"/>
       <use xlink:href="#DejaVuSans-32" transform="translate(908.390625 0)"/>
       <use xlink:href="#DejaVuSans-2b" transform="translate(987.109375 0)"/>
       <use xlink:href="#DejaVuSans-c" transform="translate(1062.3125 0)"/>
      </g>
     </g>
    </g>
    <g id="xtick_2">
     <g id="line2d_2">
      <path d="M 347.894755 513.217578 
L 347.894755 23.837813 
" clip-path="url(#pb26393b923)" style="fill: none; stroke: #cccccc; stroke-linecap: round"/>
     </g>
     <g id="text_2">
      <!-- B: Conservative -->
      <g style="fill: #262626" transform="translate(312.28288 530.457051) scale(0.09 -0.09)">
       <defs>
        <path id="DejaVuSans-25" d="M 1259 2228 
L 1259 519 
L 2272 519 
Q 2781 519 3026 730 
Q 3272 941 3272 1375 
Q 3272 1813 3026 2020 
Q 2781 2228 2272 2228 
L 1259 2228 
z
M 1259 4147 
L 1259 2741 
L 2194 2741 
Q 2656 2741 2882 2914 
Q 3109 3088 3109 3444 
Q 3109 3797 2882 3972 
Q 2656 4147 2194 4147 
L 1259 4147 
z
M 628 4666 
L 2241 4666 
Q 2963 4666 3353 4366 
Q 3744 4066 3744 3513 
Q 3744 3084 3544 2831 
Q 3344 2578 2956 2516 
Q 3422 2416 3680 2098 
Q 3938 1781 3938 1306 
Q 3938 681 3513 340 
Q 3088 0 2303 0 
L 628 0 
L 628 4666 
z
" transform="scale(0.015625)"/>
        <path id="DejaVuSans-26" d="M 4122 4306 
L 4122 3641 
Q 3803 3938 3442 4084 
Q 3081 4231 2675 4231 
Q 1875 4231 1450 3742 
Q 1025 3253 1025 2328 
Q 1025 1406 1450 917 
Q 1875 428 2675 428 
Q 3081 428 3442 575 
Q 3803 722 4122 1019 
L 4122 359 
Q 3791 134 3420 21 
Q 3050 -91 2638 -91 
Q 1578 -91 968 557 
Q 359 1206 359 2328 
Q 359 3453 968 4101 
Q 1578 4750 2638 4750 
Q 3056 4750 3426 4639 
Q 3797 4528 4122 4306 
z
" transform="scale(0.015625)"/>
        <path id="DejaVuSans-52" d="M 1959 3097 
Q 1497 3097 1228 2736 
Q 959 2375 959 1747 
Q 959 1119 1226 758 
Q 1494 397 1959 397 
Q 2419 397 2687 759 
Q 2956 1122 2956 1747 
Q 2956 2369 2687 2733 
Q 2419 3097 1959 3097 
z
M 1959 3584 
Q 2709 3584 3137 3096 
Q 3566 2609 3566 1747 
Q 3566 888 3137 398 
Q 2709 -91 1959 -91 
Q 1206 -91 779 398 
Q 353 888 353 1747 
Q 353 2609 779 3096 
Q 1206 3584 1959 3584 
z
" transform="scale(0.015625)"/>
        <path id="DejaVuSans-51" d="M 3513 2113 
L 3513 0 
L 2938 0 
L 2938 2094 
Q 2938 2591 2744 2837 
Q 2550 3084 2163 3084 
Q 1697 3084 1428 2787 
Q 1159 2491 1159 1978 
L 1159 0 
L 581 0 
L 581 3500 
L 1159 3500 
L 1159 2956 
Q 1366 3272 1645 3428 
Q 1925 3584 2291 3584 
Q 2894 3584 3203 3211 
Q 3513 2838 3513 2113 
z
" transform="scale(0.015625)"/>
        <path id="DejaVuSans-57" d="M 1172 4494 
L 1172 3500 
L 2356 3500 
L 2356 3053 
L 1172 3053 
L 1172 1153 
Q 1172 725 1289 603 
Q 1406 481 1766 481 
L 2356 481 
L 2356 0 
L 1766 0 
Q 1100 0 847 248 
Q 594 497 594 1153 
L 594 3053 
L 172 3053 
L 172 3500 
L 594 3500 
L 594 4494 
L 1172 4494 
z
" transform="scale(0.015625)"/>
       </defs>
       <use xlink:href="#DejaVuSans-25"/>
       <use xlink:href="#DejaVuSans-1d" transform="translate(68.609375 0)"/>
       <use xlink:href="#DejaVuSans-3" transform="translate(102.296875 0)"/>
       <use xlink:href="#DejaVuSans-26" transform="translate(134.078125 0)"/>
       <use xlink:href="#DejaVuSans-52" transform="translate(203.90625 0)"/>
       <use xlink:href="#DejaVuSans-51" transform="translate(265.09375 0)"/>
       <use xlink:href="#DejaVuSans-56" transform="translate(328.46875 0)"/>
       <use xlink:href="#DejaVuSans-48" transform="translate(380.5625 0)"/>
       <use xlink:href="#DejaVuSans-55" transform="translate(442.09375 0)"/>
       <use xlink:href="#DejaVuSans-59" transform="translate(483.203125 0)"/>
       <use xlink:href="#DejaVuSans-44" transform="translate(542.390625 0)"/>
       <use xlink:href="#DejaVuSans-57" transform="translate(603.671875 0)"/>
       <use xlink:href="#DejaVuSans-4c" transform="translate(642.875 0)"/>
       <use xlink:href="#DejaVuSans-59" transform="translate(670.65625 0)"/>
       <use xlink:href="#DejaVuSans-48" transform="translate(729.84375 0)"/>
      </g>
      <!-- (3% save, 5% OH) -->
      <g style="fill: #262626" transform="translate(306.924364 541.258809) scale(0.09 -0.09)">
       <defs>
        <path id="DejaVuSans-18" d="M 691 4666 
L 3169 4666 
L 3169 4134 
L 1269 4134 
L 1269 2991 
Q 1406 3038 1543 3061 
Q 1681 3084 1819 3084 
Q 2600 3084 3056 2656 
Q 3513 2228 3513 1497 
Q 3513 744 3044 326 
Q 2575 -91 1722 -91 
Q 1428 -91 1123 -41 
Q 819 9 494 109 
L 494 744 
Q 775 591 1075 516 
Q 1375 441 1709 441 
Q 2250 441 2565 725 
Q 2881 1009 2881 1497 
Q 2881 1984 2565 2268 
Q 2250 2553 1709 2553 
Q 1456 2553 1204 2497 
Q 953 2441 691 2322 
L 691 4666 
z
" transform="scale(0.015625)"/>
       </defs>
       <use xlink:href="#DejaVuSans-b"/>
       <use xlink:href="#DejaVuSans-16" transform="translate(39.015625 0)"/>
       <use xlink:href="#DejaVuSans-8" transform="translate(102.640625 0)"/>
       <use xlink:href="#DejaVuSans-3" transform="translate(197.65625 0)"/>
       <use xlink:href="#DejaVuSans-56" transform="translate(229.4375 0)"/>
       <use xlink:href="#DejaVuSans-44" transform="translate(281.53125 0)"/>
       <use xlink:href="#DejaVuSans-59" transform="translate(342.8125 0)"/>
       <use xlink:href="#DejaVuSans-48" transform="translate(402 0)"/>
       <use xlink:href="#DejaVuSans-f" transform="translate(463.53125 0)"/>
       <use xlink:href="#DejaVuSans-3" transform="translate(495.3125 0)"/>
       <use xlink:href="#DejaVuSans-18" transform="translate(527.09375 0)"/>
       <use xlink:href="#DejaVuSans-8" transform="translate(590.71875 0)"/>
       <use xlink:href="#DejaVuSans-3" transform="translate(685.734375 0)"/>
       <use xlink:href="#DejaVuSans-32" transform="translate(717.515625 0)"/>
       <use xlink:href="#DejaVuSans-2b" transform="translate(796.234375 0)"/>
       <use xlink:href="#DejaVuSans-c" transform="translate(871.4375 0)"/>
      </g>
     </g>
    </g>
    <g id="xtick_3">
     <g id="line2d_3">
      <path d="M 520.428047 513.217578 
L 520.428047 23.837813 
" clip-path="url(#pb26393b923)" style="fill: none; stroke: #cccccc; stroke-linecap: round"/>
     </g>
     <g id="text_3">
      <!-- C: Efficient -->
      <g style="fill: #262626" transform="translate(496.035937 530.457051) scale(0.09 -0.09)">
       <defs>
        <path id="DejaVuSans-28" d="M 628 4666 
L 3578 4666 
L 3578 4134 
L 1259 4134 
L 1259 2753 
L 3481 2753 
L 3481 2222 
L 1259 2222 
L 1259 531 
L 3634 531 
L 3634 0 
L 628 0 
L 628 4666 
z
" transform="scale(0.015625)"/>
        <path id="DejaVuSans-13b1" d="M 2375 4863 
L 2375 4384 
L 1825 4384 
Q 1516 4384 1394 4259 
Q 1275 4134 1275 3809 
L 1275 3500 
L 2853 3500 
L 2853 3744 
Q 2853 4328 3125 4594 
Q 3213 4681 3334 4741 
Q 3578 4863 3988 4863 
L 4531 4863 
L 4531 4384 
L 3981 4384 
Q 3672 4384 3551 4259 
Q 3431 4134 3431 3809 
L 3431 3500 
L 5588 3500 
L 5588 0 
L 5009 0 
L 5009 3053 
L 3431 3053 
L 3431 0 
L 2853 0 
L 2853 3053 
L 1275 3053 
L 1275 0 
L 697 0 
L 697 3053 
L 147 3053 
L 147 3500 
L 697 3500 
L 697 3744 
Q 697 4328 969 4595 
Q 1241 4863 1831 4863 
L 2375 4863 
z
M 5009 4856 
L 5588 4856 
L 5588 4128 
L 5009 4128 
L 5009 4856 
z
" transform="scale(0.015625)"/>
        <path id="DejaVuSans-46" d="M 3122 3366 
L 3122 2828 
Q 2878 2963 2633 3030 
Q 2388 3097 2138 3097 
Q 1578 3097 1268 2742 
Q 959 2388 959 1747 
Q 959 1106 1268 751 
Q 1578 397 2138 397 
Q 2388 397 2633 464 
Q 2878 531 3122 666 
L 3122 134 
Q 2881 22 2623 -34 
Q 2366 -91 2075 -91 
Q 1284 -91 818 406 
Q 353 903 353 1747 
Q 353 2603 823 3093 
Q 1294 3584 2113 3584 
Q 2378 3584 2631 3529 
Q 2884 3475 3122 3366 
z
" transform="scale(0.015625)"/>
       </defs>
       <use xlink:href="#DejaVuSans-26"/>
       <use xlink:href="#DejaVuSans-1d" transform="translate(69.828125 0)"/>
       <use xlink:href="#DejaVuSans-3" transform="translate(103.515625 0)"/>
       <use xlink:href="#DejaVuSans-28" transform="translate(135.296875 0)"/>
       <use xlink:href="#DejaVuSans-13b1" transform="translate(198.484375 0)"/>
       <use xlink:href="#DejaVuSans-46" transform="translate(295.171875 0)"/>
       <use xlink:href="#DejaVuSans-4c" transform="translate(350.15625 0)"/>
       <use xlink:href="#DejaVuSans-48" transform="translate(377.9375 0)"/>
       <use xlink:href="#DejaVuSans-51" transform="translate(439.46875 0)"/>
       <use xlink:href="#DejaVuSans-57" transform="translate(502.84375 0)"/>
      </g>
      <!-- (30% save, 80% OH) -->
      <g style="fill: #262626" transform="translate(473.731406 541.258809) scale(0.09 -0.09)">
       <defs>
        <path id="DejaVuSans-1b" d="M 2034 2216 
Q 1584 2216 1326 1975 
Q 1069 1734 1069 1313 
Q 1069 891 1326 650 
Q 1584 409 2034 409 
Q 2484 409 2743 651 
Q 3003 894 3003 1313 
Q 3003 1734 2745 1975 
Q 2488 2216 2034 2216 
z
M 1403 2484 
Q 997 2584 770 2862 
Q 544 3141 544 3541 
Q 544 4100 942 4425 
Q 1341 4750 2034 4750 
Q 2731 4750 3128 4425 
Q 3525 4100 3525 3541 
Q 3525 3141 3298 2862 
Q 3072 2584 2669 2484 
Q 3125 2378 3379 2068 
Q 3634 1759 3634 1313 
Q 3634 634 3220 271 
Q 2806 -91 2034 -91 
Q 1263 -91 848 271 
Q 434 634 434 1313 
Q 434 1759 690 2068 
Q 947 2378 1403 2484 
z
M 1172 3481 
Q 1172 3119 1398 2916 
Q 1625 2713 2034 2713 
Q 2441 2713 2670 2916 
Q 2900 3119 2900 3481 
Q 2900 3844 2670 4047 
Q 2441 4250 2034 4250 
Q 1625 4250 1398 4047 
Q 1172 3844 1172 3481 
z
" transform="scale(0.015625)"/>
       </defs>
       <use xlink:href="#DejaVuSans-b"/>
       <use xlink:href="#DejaVuSans-16" transform="translate(39.015625 0)"/>
       <use xlink:href="#DejaVuSans-13" transform="translate(102.640625 0)"/>
       <use xlink:href="#DejaVuSans-8" transform="translate(166.265625 0)"/>
       <use xlink:href="#DejaVuSans-3" transform="translate(261.28125 0)"/>
       <use xlink:href="#DejaVuSans-56" transform="translate(293.0625 0)"/>
       <use xlink:href="#DejaVuSans-44" transform="translate(345.15625 0)"/>
       <use xlink:href="#DejaVuSans-59" transform="translate(406.4375 0)"/>
       <use xlink:href="#DejaVuSans-48" transform="translate(465.625 0)"/>
       <use xlink:href="#DejaVuSans-f" transform="translate(527.15625 0)"/>
       <use xlink:href="#DejaVuSans-3" transform="translate(558.9375 0)"/>
       <use xlink:href="#DejaVuSans-1b" transform="translate(590.71875 0)"/>
       <use xlink:href="#DejaVuSans-13" transform="translate(654.34375 0)"/>
       <use xlink:href="#DejaVuSans-8" transform="translate(717.96875 0)"/>
       <use xlink:href="#DejaVuSans-3" transform="translate(812.984375 0)"/>
       <use xlink:href="#DejaVuSans-32" transform="translate(844.765625 0)"/>
       <use xlink:href="#DejaVuSans-2b" transform="translate(923.484375 0)"/>
       <use xlink:href="#DejaVuSans-c" transform="translate(998.6875 0)"/>
      </g>
     </g>
    </g>
    <g id="xtick_4">
     <g id="line2d_4">
      <path d="M 692.961339 513.217578 
L 692.961339 23.837813 
" clip-path="url(#pb26393b923)" style="fill: none; stroke: #cccccc; stroke-linecap: round"/>
     </g>
     <g id="text_4">
      <!-- D: Cautious -->
      <g style="fill: #262626" transform="translate(666.83462 530.457051) scale(0.09 -0.09)">
       <defs>
        <path id="DejaVuSans-27" d="M 1259 4147 
L 1259 519 
L 2022 519 
Q 2988 519 3436 956 
Q 3884 1394 3884 2338 
Q 3884 3275 3436 3711 
Q 2988 4147 2022 4147 
L 1259 4147 
z
M 628 4666 
L 1925 4666 
Q 3281 4666 3915 4102 
Q 4550 3538 4550 2338 
Q 4550 1131 3912 565 
Q 3275 0 1925 0 
L 628 0 
L 628 4666 
z
" transform="scale(0.015625)"/>
        <path id="DejaVuSans-58" d="M 544 1381 
L 544 3500 
L 1119 3500 
L 1119 1403 
Q 1119 906 1312 657 
Q 1506 409 1894 409 
Q 2359 409 2629 706 
Q 2900 1003 2900 1516 
L 2900 3500 
L 3475 3500 
L 3475 0 
L 2900 0 
L 2900 538 
Q 2691 219 2414 64 
Q 2138 -91 1772 -91 
Q 1169 -91 856 284 
Q 544 659 544 1381 
z
M 1991 3584 
L 1991 3584 
z
" transform="scale(0.015625)"/>
       </defs>
       <use xlink:href="#DejaVuSans-27"/>
       <use xlink:href="#DejaVuSans-1d" transform="translate(77 0)"/>
       <use xlink:href="#DejaVuSans-3" transform="translate(110.6875 0)"/>
       <use xlink:href="#DejaVuSans-26" transform="translate(142.46875 0)"/>
       <use xlink:href="#DejaVuSans-44" transform="translate(212.296875 0)"/>
       <use xlink:href="#DejaVuSans-58" transform="translate(273.578125 0)"/>
       <use xlink:href="#DejaVuSans-57" transform="translate(336.953125 0)"/>
       <use xlink:href="#DejaVuSans-4c" transform="translate(376.15625 0)"/>
       <use xlink:href="#DejaVuSans-52" transform="translate(403.9375 0)"/>
       <use xlink:href="#DejaVuSans-58" transform="translate(465.125 0)"/>
       <use xlink:href="#DejaVuSans-56" transform="translate(528.5 0)"/>
      </g>
      <!-- (15% save, 30% OH) -->
      <g style="fill: #262626" transform="translate(646.264698 541.258809) scale(0.09 -0.09)">
       <use xlink:href="#DejaVuSans-b"/>
       <use xlink:href="#DejaVuSans-14" transform="translate(39.015625 0)"/>
       <use xlink:href="#DejaVuSans-18" transform="translate(102.640625 0)"/>
       <use xlink:href="#DejaVuSans-8" transform="translate(166.265625 0)"/>
       <use xlink:href="#DejaVuSans-3" transform="translate(261.28125 0)"/>
       <use xlink:href="#DejaVuSans-56" transform="translate(293.0625 0)"/>
       <use xlink:href="#DejaVuSans-44" transform="translate(345.15625 0)"/>
       <use xlink:href="#DejaVuSans-59" transform="translate(406.4375 0)"/>
       <use xlink:href="#DejaVuSans-48" transform="translate(465.625 0)"/>
       <use xlink:href="#DejaVuSans-f" transform="translate(527.15625 0)"/>
       <use xlink:href="#DejaVuSans-3" transform="translate(558.9375 0)"/>
       <use xlink:href="#DejaVuSans-16" transform="translate(590.71875 0)"/>
       <use xlink:href="#DejaVuSans-13" transform="translate(654.34375 0)"/>
       <use xlink:href="#DejaVuSans-8" transform="translate(717.96875 0)"/>
       <use xlink:href="#DejaVuSans-3" transform="translate(812.984375 0)"/>
       <use xlink:href="#DejaVuSans-32" transform="translate(844.765625 0)"/>
       <use xlink:href="#DejaVuSans-2b" transform="translate(923.484375 0)"/>
       <use xlink:href="#DejaVuSans-c" transform="translate(998.6875 0)"/>
      </g>
     </g>
    </g>
    <g id="xtick_5">
     <g id="line2d_5">
      <path d="M 865.494631 513.217578 
L 865.494631 23.837813 
" clip-path="url(#pb26393b923)" style="fill: none; stroke: #cccccc; stroke-linecap: round"/>
     </g>
     <g id="text_5">
      <!-- E: Extreme -->
      <g style="fill: #262626" transform="translate(840.762209 530.456348) scale(0.09 -0.09)">
       <defs>
        <path id="DejaVuSans-5b" d="M 3513 3500 
L 2247 1797 
L 3578 0 
L 2900 0 
L 1881 1375 
L 863 0 
L 184 0 
L 1544 1831 
L 300 3500 
L 978 3500 
L 1906 2253 
L 2834 3500 
L 3513 3500 
z
" transform="scale(0.015625)"/>
        <path id="DejaVuSans-50" d="M 3328 2828 
Q 3544 3216 3844 3400 
Q 4144 3584 4550 3584 
Q 5097 3584 5394 3201 
Q 5691 2819 5691 2113 
L 5691 0 
L 5113 0 
L 5113 2094 
Q 5113 2597 4934 2840 
Q 4756 3084 4391 3084 
Q 3944 3084 3684 2787 
Q 3425 2491 3425 1978 
L 3425 0 
L 2847 0 
L 2847 2094 
Q 2847 2600 2669 2842 
Q 2491 3084 2119 3084 
Q 1678 3084 1418 2786 
Q 1159 2488 1159 1978 
L 1159 0 
L 581 0 
L 581 3500 
L 1159 3500 
L 1159 2956 
Q 1356 3278 1631 3431 
Q 1906 3584 2284 3584 
Q 2666 3584 2933 3390 
Q 3200 3197 3328 2828 
z
" transform="scale(0.015625)"/>
       </defs>
       <use xlink:href="#DejaVuSans-28"/>
       <use xlink:href="#DejaVuSans-1d" transform="translate(63.1875 0)"/>
       <use xlink:href="#DejaVuSans-3" transform="translate(96.875 0)"/>
       <use xlink:href="#DejaVuSans-28" transform="translate(128.65625 0)"/>
       <use xlink:href="#DejaVuSans-5b" transform="translate(191.84375 0)"/>
       <use xlink:href="#DejaVuSans-57" transform="translate(251.03125 0)"/>
       <use xlink:href="#DejaVuSans-55" transform="translate(290.234375 0)"/>
       <use xlink:href="#DejaVuSans-48" transform="translate(329.140625 0)"/>
       <use xlink:href="#DejaVuSans-50" transform="translate(390.671875 0)"/>
       <use xlink:href="#DejaVuSans-48" transform="translate(488.078125 0)"/>
      </g>
      <!-- (50% save, 200% OH) -->
      <g style="fill: #262626" transform="translate(815.934865 541.258105) scale(0.09 -0.09)">
       <defs>
        <path id="DejaVuSans-15" d="M 1228 531 
L 3431 531 
L 3431 0 
L 469 0 
L 469 531 
Q 828 903 1448 1529 
Q 2069 2156 2228 2338 
Q 2531 2678 2651 2914 
Q 2772 3150 2772 3378 
Q 2772 3750 2511 3984 
Q 2250 4219 1831 4219 
Q 1534 4219 1204 4116 
Q 875 4013 500 3803 
L 500 4441 
Q 881 4594 1212 4672 
Q 1544 4750 1819 4750 
Q 2544 4750 2975 4387 
Q 3406 4025 3406 3419 
Q 3406 3131 3298 2873 
Q 3191 2616 2906 2266 
Q 2828 2175 2409 1742 
Q 1991 1309 1228 531 
z
" transform="scale(0.015625)"/>
       </defs>
       <use xlink:href="#DejaVuSans-b"/>
       <use xlink:href="#DejaVuSans-18" transform="translate(39.015625 0)"/>
       <use xlink:href="#DejaVuSans-13" transform="translate(102.640625 0)"/>
       <use xlink:href="#DejaVuSans-8" transform="translate(166.265625 0)"/>
       <use xlink:href="#DejaVuSans-3" transform="translate(261.28125 0)"/>
       <use xlink:href="#DejaVuSans-56" transform="translate(293.0625 0)"/>
       <use xlink:href="#DejaVuSans-44" transform="translate(345.15625 0)"/>
       <use xlink:href="#DejaVuSans-59" transform="translate(406.4375 0)"/>
       <use xlink:href="#DejaVuSans-48" transform="translate(465.625 0)"/>
       <use xlink:href="#DejaVuSans-f" transform="translate(527.15625 0)"/>
       <use xlink:href="#DejaVuSans-3" transform="translate(558.9375 0)"/>
       <use xlink:href="#DejaVuSans-15" transform="translate(590.71875 0)"/>
       <use xlink:href="#DejaVuSans-13" transform="translate(654.34375 0)"/>
       <use xlink:href="#DejaVuSans-13" transform="translate(717.96875 0)"/>
       <use xlink:href="#DejaVuSans-8" transform="translate(781.59375 0)"/>
       <use xlink:href="#DejaVuSans-3" transform="translate(876.609375 0)"/>
       <use xlink:href="#DejaVuSans-32" transform="translate(908.390625 0)"/>
       <use xlink:href="#DejaVuSans-2b" transform="translate(987.109375 0)"/>
       <use xlink:href="#DejaVuSans-c" transform="translate(1062.3125 0)"/>
      </g>
     </g>
    </g>
   </g>
   <g id="matplotlib.axis_2">
    <g id="ytick_1">
     <g id="line2d_6">
      <path d="M 64.940156 513.217578 
L 975.915938 513.217578 
" clip-path="url(#pb26393b923)" style="fill: none; stroke: #cccccc; stroke-opacity: 0.3; stroke-linecap: round"/>
     </g>
     <g id="text_6">
      <!-- 0.0 -->
      <g style="fill: #262626" transform="translate(29.2 519.485645) scale(0.165 -0.165)">
       <defs>
        <path id="DejaVuSans-11" d="M 684 794 
L 1344 794 
L 1344 0 
L 684 0 
L 684 794 
z
" transform="scale(0.015625)"/>
       </defs>
       <use xlink:href="#DejaVuSans-13"/>
       <use xlink:href="#DejaVuSans-11" transform="translate(63.625 0)"/>
       <use xlink:href="#DejaVuSans-13" transform="translate(95.40625 0)"/>
      </g>
     </g>
    </g>
    <g id="ytick_2">
     <g id="line2d_7">
      <path d="M 64.940156 451.074116 
L 975.915938 451.074116 
" clip-path="url(#pb26393b923)" style="fill: none; stroke: #cccccc; stroke-opacity: 0.3; stroke-linecap: round"/>
     </g>
     <g id="text_7">
      <!-- 0.1 -->
      <g style="fill: #262626" transform="translate(29.2 457.342182) scale(0.165 -0.165)">
       <use xlink:href="#DejaVuSans-13"/>
       <use xlink:href="#DejaVuSans-11" transform="translate(63.625 0)"/>
       <use xlink:href="#DejaVuSans-14" transform="translate(95.40625 0)"/>
      </g>
     </g>
    </g>
    <g id="ytick_3">
     <g id="line2d_8">
      <path d="M 64.940156 388.930654 
L 975.915938 388.930654 
" clip-path="url(#pb26393b923)" style="fill: none; stroke: #cccccc; stroke-opacity: 0.3; stroke-linecap: round"/>
     </g>
     <g id="text_8">
      <!-- 0.2 -->
      <g style="fill: #262626" transform="translate(29.2 395.19872) scale(0.165 -0.165)">
       <use xlink:href="#DejaVuSans-13"/>
       <use xlink:href="#DejaVuSans-11" transform="translate(63.625 0)"/>
       <use xlink:href="#DejaVuSans-15" transform="translate(95.40625 0)"/>
      </g>
     </g>
    </g>
    <g id="ytick_4">
     <g id="line2d_9">
      <path d="M 64.940156 326.787191 
L 975.915938 326.787191 
" clip-path="url(#pb26393b923)" style="fill: none; stroke: #cccccc; stroke-opacity: 0.3; stroke-linecap: round"/>
     </g>
     <g id="text_9">
      <!-- 0.3 -->
      <g style="fill: #262626" transform="translate(29.2 333.055258) scale(0.165 -0.165)">
       <use xlink:href="#DejaVuSans-13"/>
       <use xlink:href="#DejaVuSans-11" transform="translate(63.625 0)"/>
       <use xlink:href="#DejaVuSans-16" transform="translate(95.40625 0)"/>
      </g>
     </g>
    </g>
    <g id="ytick_5">
     <g id="line2d_10">
      <path d="M 64.940156 264.643729 
L 975.915938 264.643729 
" clip-path="url(#pb26393b923)" style="fill: none; stroke: #cccccc; stroke-opacity: 0.3; stroke-linecap: round"/>
     </g>
     <g id="text_10">
      <!-- 0.4 -->
      <g style="fill: #262626" transform="translate(29.2 270.911795) scale(0.165 -0.165)">
       <use xlink:href="#DejaVuSans-13"/>
       <use xlink:href="#DejaVuSans-11" transform="translate(63.625 0)"/>
       <use xlink:href="#DejaVuSans-17" transform="translate(95.40625 0)"/>
      </g>
     </g>
    </g>
    <g id="ytick_6">
     <g id="line2d_11">
      <path d="M 64.940156 202.500267 
L 975.915938 202.500267 
" clip-path="url(#pb26393b923)" style="fill: none; stroke: #cccccc; stroke-opacity: 0.3; stroke-linecap: round"/>
     </g>
     <g id="text_11">
      <!-- 0.5 -->
      <g style="fill: #262626" transform="translate(29.2 208.768333) scale(0.165 -0.165)">
       <use xlink:href="#DejaVuSans-13"/>
       <use xlink:href="#DejaVuSans-11" transform="translate(63.625 0)"/>
       <use xlink:href="#DejaVuSans-18" transform="translate(95.40625 0)"/>
      </g>
     </g>
    </g>
    <g id="ytick_7">
     <g id="line2d_12">
      <path d="M 64.940156 140.356804 
L 975.915938 140.356804 
" clip-path="url(#pb26393b923)" style="fill: none; stroke: #cccccc; stroke-opacity: 0.3; stroke-linecap: round"/>
     </g>
     <g id="text_12">
      <!-- 0.6 -->
      <g style="fill: #262626" transform="translate(29.2 146.624871) scale(0.165 -0.165)">
       <defs>
        <path id="DejaVuSans-19" d="M 2113 2584 
Q 1688 2584 1439 2293 
Q 1191 2003 1191 1497 
Q 1191 994 1439 701 
Q 1688 409 2113 409 
Q 2538 409 2786 701 
Q 3034 994 3034 1497 
Q 3034 2003 2786 2293 
Q 2538 2584 2113 2584 
z
M 3366 4563 
L 3366 3988 
Q 3128 4100 2886 4159 
Q 2644 4219 2406 4219 
Q 1781 4219 1451 3797 
Q 1122 3375 1075 2522 
Q 1259 2794 1537 2939 
Q 1816 3084 2150 3084 
Q 2853 3084 3261 2657 
Q 3669 2231 3669 1497 
Q 3669 778 3244 343 
Q 2819 -91 2113 -91 
Q 1303 -91 875 529 
Q 447 1150 447 2328 
Q 447 3434 972 4092 
Q 1497 4750 2381 4750 
Q 2619 4750 2861 4703 
Q 3103 4656 3366 4563 
z
" transform="scale(0.015625)"/>
       </defs>
       <use xlink:href="#DejaVuSans-13"/>
       <use xlink:href="#DejaVuSans-11" transform="translate(63.625 0)"/>
       <use xlink:href="#DejaVuSans-19" transform="translate(95.40625 0)"/>
      </g>
     </g>
    </g>
    <g id="ytick_8">
     <g id="line2d_13">
      <path d="M 64.940156 78.213342 
L 975.915938 78.213342 
" clip-path="url(#pb26393b923)" style="fill: none; stroke: #cccccc; stroke-opacity: 0.3; stroke-linecap: round"/>
     </g>
     <g id="text_13">
      <!-- 0.7 -->
      <g style="fill: #262626" transform="translate(29.2 84.481408) scale(0.165 -0.165)">
       <defs>
        <path id="DejaVuSans-1a" d="M 525 4666 
L 3525 4666 
L 3525 4397 
L 1831 0 
L 1172 0 
L 2766 4134 
L 525 4134 
L 525 4666 
z
" transform="scale(0.015625)"/>
       </defs>
       <use xlink:href="#DejaVuSans-13"/>
       <use xlink:href="#DejaVuSans-11" transform="translate(63.625 0)"/>
       <use xlink:href="#DejaVuSans-1a" transform="translate(95.40625 0)"/>
      </g>
     </g>
    </g>
    <g id="text_14">
     <!-- Score -->
     <g style="fill: #262626" transform="translate(20.875781 293.736133) rotate(-90) scale(0.18 -0.18)">
      <defs>
       <path id="DejaVuSans-36" d="M 3425 4513 
L 3425 3897 
Q 3066 4069 2747 4153 
Q 2428 4238 2131 4238 
Q 1616 4238 1336 4038 
Q 1056 3838 1056 3469 
Q 1056 3159 1242 3001 
Q 1428 2844 1947 2747 
L 2328 2669 
Q 3034 2534 3370 2195 
Q 3706 1856 3706 1288 
Q 3706 609 3251 259 
Q 2797 -91 1919 -91 
Q 1588 -91 1214 -16 
Q 841 59 441 206 
L 441 856 
Q 825 641 1194 531 
Q 1563 422 1919 422 
Q 2459 422 2753 634 
Q 3047 847 3047 1241 
Q 3047 1584 2836 1778 
Q 2625 1972 2144 2069 
L 1759 2144 
Q 1053 2284 737 2584 
Q 422 2884 422 3419 
Q 422 4038 858 4394 
Q 1294 4750 2059 4750 
Q 2388 4750 2728 4690 
Q 3069 4631 3425 4513 
z
" transform="scale(0.015625)"/>
      </defs>
      <use xlink:href="#DejaVuSans-36"/>
      <use xlink:href="#DejaVuSans-46" transform="translate(63.484375 0)"/>
      <use xlink:href="#DejaVuSans-52" transform="translate(118.46875 0)"/>
      <use xlink:href="#DejaVuSans-55" transform="translate(179.65625 0)"/>
      <use xlink:href="#DejaVuSans-48" transform="translate(218.5625 0)"/>
     </g>
    </g>
   </g>
   <g id="patch_3">
    <path d="M 106.348146 513.217578 
L 140.854805 513.217578 
L 140.854805 68.891823 
L 106.348146 68.891823 
z
" clip-path="url(#pb26393b923)" style="fill: #2563eb; stroke: #000000; stroke-width: 0.5; stroke-linejoin: miter"/>
   </g>
   <g id="patch_4">
    <path d="M 278.881438 513.217578 
L 313.388097 513.217578 
L 313.388097 193.178747 
L 278.881438 193.178747 
z
" clip-path="url(#pb26393b923)" style="fill: #2563eb; stroke: #000000; stroke-width: 0.5; stroke-linejoin: miter"/>
   </g>
   <g id="patch_5">
    <path d="M 451.41473 513.217578 
L 485.921388 513.217578 
L 485.921388 109.285073 
L 451.41473 109.285073 
z
" clip-path="url(#pb26393b923)" style="fill: #2563eb; stroke: #000000; stroke-width: 0.5; stroke-linejoin: miter"/>
   </g>
   <g id="patch_6">
    <path d="M 623.948022 513.217578 
L 658.45468 513.217578 
L 658.45468 155.89267 
L 623.948022 155.89267 
z
" clip-path="url(#pb26393b923)" style="fill: #2563eb; stroke: #000000; stroke-width: 0.5; stroke-linejoin: miter"/>
   </g>
   <g id="patch_7">
    <path d="M 796.481314 513.217578 
L 830.987972 513.217578 
L 830.987972 47.141611 
L 796.481314 47.141611 
z
" clip-path="url(#pb26393b923)" style="fill: #2563eb; stroke: #000000; stroke-width: 0.5; stroke-linejoin: miter"/>
   </g>
   <g id="patch_8">
    <path d="M 140.854805 513.217578 
L 175.361463 513.217578 
L 175.361463 154.649801 
L 140.854805 154.649801 
z
" clip-path="url(#pb26393b923)" style="fill: #059669; stroke: #000000; stroke-width: 0.5; stroke-linejoin: miter"/>
   </g>
   <g id="patch_9">
    <path d="M 313.388097 513.217578 
L 347.894755 513.217578 
L 347.894755 196.596638 
L 313.388097 196.596638 
z
" clip-path="url(#pb26393b923)" style="fill: #059669; stroke: #000000; stroke-width: 0.5; stroke-linejoin: miter"/>
   </g>
   <g id="patch_10">
    <path d="M 485.921388 513.217578 
L 520.428047 513.217578 
L 520.428047 152.785497 
L 485.921388 152.785497 
z
" clip-path="url(#pb26393b923)" style="fill: #059669; stroke: #000000; stroke-width: 0.5; stroke-linejoin: miter"/>
   </g>
   <g id="patch_11">
    <path d="M 658.45468 513.217578 
L 692.961339 513.217578 
L 692.961339 174.535709 
L 658.45468 174.535709 
z
" clip-path="url(#pb26393b923)" style="fill: #059669; stroke: #000000; stroke-width: 0.5; stroke-linejoin: miter"/>
   </g>
   <g id="patch_12">
    <path d="M 830.987972 513.217578 
L 865.494631 513.217578 
L 865.494631 140.356804 
L 830.987972 140.356804 
z
" clip-path="url(#pb26393b923)" style="fill: #059669; stroke: #000000; stroke-width: 0.5; stroke-linejoin: miter"/>
   </g>
   <g id="patch_13">
    <path d="M 175.361463 513.217578 
L 209.868121 513.217578 
L 209.868121 283.286768 
L 175.361463 283.286768 
z
" clip-path="url(#pb26393b923)" style="fill: #d97706; stroke: #000000; stroke-width: 0.5; stroke-linejoin: miter"/>
   </g>
   <g id="patch_14">
    <path d="M 347.894755 513.217578 
L 382.401413 513.217578 
L 382.401413 201.723473 
L 347.894755 201.723473 
z
" clip-path="url(#pb26393b923)" style="fill: #d97706; stroke: #000000; stroke-width: 0.5; stroke-linejoin: miter"/>
   </g>
   <g id="patch_15">
    <path d="M 520.428047 513.217578 
L 554.934705 513.217578 
L 554.934705 218.036132 
L 520.428047 218.036132 
z
" clip-path="url(#pb26393b923)" style="fill: #d97706; stroke: #000000; stroke-width: 0.5; stroke-linejoin: miter"/>
   </g>
   <g id="patch_16">
    <path d="M 692.961339 513.217578 
L 727.467997 513.217578 
L 727.467997 202.500267 
L 692.961339 202.500267 
z
" clip-path="url(#pb26393b923)" style="fill: #d97706; stroke: #000000; stroke-width: 0.5; stroke-linejoin: miter"/>
   </g>
   <g id="patch_17">
    <path d="M 865.494631 513.217578 
L 900.001289 513.217578 
L 900.001289 280.179594 
L 865.494631 280.179594 
z
" clip-path="url(#pb26393b923)" style="fill: #d97706; stroke: #000000; stroke-width: 0.5; stroke-linejoin: miter"/>
   </g>
   <g id="patch_18">
    <path d="M 209.868121 513.217578 
L 244.37478 513.217578 
L 244.37478 497.681713 
L 209.868121 497.681713 
z
" clip-path="url(#pb26393b923)" style="fill: #dc2626; stroke: #000000; stroke-width: 0.5; stroke-linejoin: miter"/>
   </g>
   <g id="patch_19">
    <path d="M 382.401413 513.217578 
L 416.908072 513.217578 
L 416.908072 210.268199 
L 382.401413 210.268199 
z
" clip-path="url(#pb26393b923)" style="fill: #dc2626; stroke: #000000; stroke-width: 0.5; stroke-linejoin: miter"/>
   </g>
   <g id="patch_20">
    <path d="M 554.934705 513.217578 
L 589.441364 513.217578 
L 589.441364 326.787191 
L 554.934705 326.787191 
z
" clip-path="url(#pb26393b923)" style="fill: #dc2626; stroke: #000000; stroke-width: 0.5; stroke-linejoin: miter"/>
   </g>
   <g id="patch_21">
    <path d="M 727.467997 513.217578 
L 761.974656 513.217578 
L 761.974656 249.107863 
L 727.467997 249.107863 
z
" clip-path="url(#pb26393b923)" style="fill: #dc2626; stroke: #000000; stroke-width: 0.5; stroke-linejoin: miter"/>
   </g>
   <g id="patch_22">
    <path d="M 900.001289 513.217578 
L 934.507947 513.217578 
L 934.507947 513.217578 
L 900.001289 513.217578 
z
" clip-path="url(#pb26393b923)" style="fill: #dc2626; stroke: #000000; stroke-width: 0.5; stroke-linejoin: miter"/>
   </g>
   <g id="patch_23">
    <path d="M 64.940156 513.217578 
L 64.940156 23.837813 
" style="fill: none; stroke: #cccccc; stroke-width: 1.25; stroke-linejoin: miter; stroke-linecap: square"/>
   </g>
   <g id="patch_24">
    <path d="M 975.915938 513.217578 
L 975.915938 23.837813 
" style="fill: none; stroke: #cccccc; stroke-width: 1.25; stroke-linejoin: miter; stroke-linecap: square"/>
   </g>
   <g id="patch_25">
    <path d="M 64.940156 513.217578 
L 975.915937 513.217578 
" style="fill: none; stroke: #cccccc; stroke-width: 1.25; stroke-linejoin: miter; stroke-linecap: square"/>
   </g>
   <g id="patch_26">
    <path d="M 64.940156 23.837813 
L 975.915937 23.837813 
" style="fill: none; stroke: #cccccc; stroke-width: 1.25; stroke-linejoin: miter; stroke-linecap: square"/>
   </g>
   <g id="text_15">
    <!-- 0.715 -->
    <g style="fill: #262626" transform="translate(113.581632 65.891823) scale(0.07 -0.07)">
     <use xlink:href="#DejaVuSans-13"/>
     <use xlink:href="#DejaVuSans-11" transform="translate(63.625 0)"/>
     <use xlink:href="#DejaVuSans-1a" transform="translate(95.40625 0)"/>
     <use xlink:href="#DejaVuSans-14" transform="translate(159.03125 0)"/>
     <use xlink:href="#DejaVuSans-18" transform="translate(222.65625 0)"/>
    </g>
   </g>
   <g id="text_16">
    <!-- 0.515 -->
    <g style="fill: #262626" transform="translate(286.114924 190.178747) scale(0.07 -0.07)">
     <use xlink:href="#DejaVuSans-13"/>
     <use xlink:href="#DejaVuSans-11" transform="translate(63.625 0)"/>
     <use xlink:href="#DejaVuSans-18" transform="translate(95.40625 0)"/>
     <use xlink:href="#DejaVuSans-14" transform="translate(159.03125 0)"/>
     <use xlink:href="#DejaVuSans-18" transform="translate(222.65625 0)"/>
    </g>
   </g>
   <g id="text_17">
    <!-- 0.650 -->
    <g style="fill: #262626" transform="translate(458.648216 106.285073) scale(0.07 -0.07)">
     <use xlink:href="#DejaVuSans-13"/>
     <use xlink:href="#DejaVuSans-11" transform="translate(63.625 0)"/>
     <use xlink:href="#DejaVuSans-19" transform="translate(95.40625 0)"/>
     <use xlink:href="#DejaVuSans-18" transform="translate(159.03125 0)"/>
     <use xlink:href="#DejaVuSans-13" transform="translate(222.65625 0)"/>
    </g>
   </g>
   <g id="text_18">
    <!-- 0.575 -->
    <g style="fill: #262626" transform="translate(631.181507 152.89267) scale(0.07 -0.07)">
     <use xlink:href="#DejaVuSans-13"/>
     <use xlink:href="#DejaVuSans-11" transform="translate(63.625 0)"/>
     <use xlink:href="#DejaVuSans-18" transform="translate(95.40625 0)"/>
     <use xlink:href="#DejaVuSans-1a" transform="translate(159.03125 0)"/>
     <use xlink:href="#DejaVuSans-18" transform="translate(222.65625 0)"/>
    </g>
   </g>
   <g id="text_19">
    <!-- 0.750 -->
    <g style="fill: #262626" transform="translate(803.714799 44.141611) scale(0.07 -0.07)">
     <use xlink:href="#DejaVuSans-13"/>
     <use xlink:href="#DejaVuSans-11" transform="translate(63.625 0)"/>
     <use xlink:href="#DejaVuSans-1a" transform="translate(95.40625 0)"/>
     <use xlink:href="#DejaVuSans-18" transform="translate(159.03125 0)"/>
     <use xlink:href="#DejaVuSans-13" transform="translate(222.65625 0)"/>
    </g>
   </g>
   <g id="text_20">
    <!-- 0.577 -->
    <g style="fill: #262626" transform="translate(148.08829 151.649801) scale(0.07 -0.07)">
     <use xlink:href="#DejaVuSans-13"/>
     <use xlink:href="#DejaVuSans-11" transform="translate(63.625 0)"/>
     <use xlink:href="#DejaVuSans-18" transform="translate(95.40625 0)"/>
     <use xlink:href="#DejaVuSans-1a" transform="translate(159.03125 0)"/>
     <use xlink:href="#DejaVuSans-1a" transform="translate(222.65625 0)"/>
    </g>
   </g>
   <g id="text_21">
    <!-- 0.510 -->
    <g style="fill: #262626" transform="translate(320.621582 193.596638) scale(0.07 -0.07)">
     <use xlink:href="#DejaVuSans-13"/>
     <use xlink:href="#DejaVuSans-11" transform="translate(63.625 0)"/>
     <use xlink:href="#DejaVuSans-18" transform="translate(95.40625 0)"/>
     <use xlink:href="#DejaVuSans-14" transform="translate(159.03125 0)"/>
     <use xlink:href="#DejaVuSans-13" transform="translate(222.65625 0)"/>
    </g>
   </g>
   <g id="text_22">
    <!-- 0.580 -->
    <g style="fill: #262626" transform="translate(493.154874 149.785497) scale(0.07 -0.07)">
     <use xlink:href="#DejaVuSans-13"/>
     <use xlink:href="#DejaVuSans-11" transform="translate(63.625 0)"/>
     <use xlink:href="#DejaVuSans-18" transform="translate(95.40625 0)"/>
     <use xlink:href="#DejaVuSans-1b" transform="translate(159.03125 0)"/>
     <use xlink:href="#DejaVuSans-13" transform="translate(222.65625 0)"/>
    </g>
   </g>
   <g id="text_23">
    <!-- 0.545 -->
    <g style="fill: #262626" transform="translate(665.688166 171.535709) scale(0.07 -0.07)">
     <use xlink:href="#DejaVuSans-13"/>
     <use xlink:href="#DejaVuSans-11" transform="translate(63.625 0)"/>
     <use xlink:href="#DejaVuSans-18" transform="translate(95.40625 0)"/>
     <use xlink:href="#DejaVuSans-17" transform="translate(159.03125 0)"/>
     <use xlink:href="#DejaVuSans-18" transform="translate(222.65625 0)"/>
    </g>
   </g>
   <g id="text_24">
    <!-- 0.600 -->
    <g style="fill: #262626" transform="translate(838.221458 137.356804) scale(0.07 -0.07)">
     <use xlink:href="#DejaVuSans-13"/>
     <use xlink:href="#DejaVuSans-11" transform="translate(63.625 0)"/>
     <use xlink:href="#DejaVuSans-19" transform="translate(95.40625 0)"/>
     <use xlink:href="#DejaVuSans-13" transform="translate(159.03125 0)"/>
     <use xlink:href="#DejaVuSans-13" transform="translate(222.65625 0)"/>
    </g>
   </g>
   <g id="text_25">
    <!-- 0.370 -->
    <g style="fill: #262626" transform="translate(182.594949 280.286768) scale(0.07 -0.07)">
     <use xlink:href="#DejaVuSans-13"/>
     <use xlink:href="#DejaVuSans-11" transform="translate(63.625 0)"/>
     <use xlink:href="#DejaVuSans-16" transform="translate(95.40625 0)"/>
     <use xlink:href="#DejaVuSans-1a" transform="translate(159.03125 0)"/>
     <use xlink:href="#DejaVuSans-13" transform="translate(222.65625 0)"/>
    </g>
   </g>
   <g id="text_26">
    <!-- 0.501 -->
    <g style="fill: #262626" transform="translate(355.12824 198.723473) scale(0.07 -0.07)">
     <use xlink:href="#DejaVuSans-13"/>
     <use xlink:href="#DejaVuSans-11" transform="translate(63.625 0)"/>
     <use xlink:href="#DejaVuSans-18" transform="translate(95.40625 0)"/>
     <use xlink:href="#DejaVuSans-13" transform="translate(159.03125 0)"/>
     <use xlink:href="#DejaVuSans-14" transform="translate(222.65625 0)"/>
    </g>
   </g>
   <g id="text_27">
    <!-- 0.475 -->
    <g style="fill: #262626" transform="translate(527.661532 215.036132) scale(0.07 -0.07)">
     <use xlink:href="#DejaVuSans-13"/>
     <use xlink:href="#DejaVuSans-11" transform="translate(63.625 0)"/>
     <use xlink:href="#DejaVuSans-17" transform="translate(95.40625 0)"/>
     <use xlink:href="#DejaVuSans-1a" transform="translate(159.03125 0)"/>
     <use xlink:href="#DejaVuSans-18" transform="translate(222.65625 0)"/>
    </g>
   </g>
   <g id="text_28">
    <!-- 0.500 -->
    <g style="fill: #262626" transform="translate(700.194824 199.500267) scale(0.07 -0.07)">
     <use xlink:href="#DejaVuSans-13"/>
     <use xlink:href="#DejaVuSans-11" transform="translate(63.625 0)"/>
     <use xlink:href="#DejaVuSans-18" transform="translate(95.40625 0)"/>
     <use xlink:href="#DejaVuSans-13" transform="translate(159.03125 0)"/>
     <use xlink:href="#DejaVuSans-13" transform="translate(222.65625 0)"/>
    </g>
   </g>
   <g id="text_29">
    <!-- 0.375 -->
    <g style="fill: #262626" transform="translate(872.728116 277.179594) scale(0.07 -0.07)">
     <use xlink:href="#DejaVuSans-13"/>
     <use xlink:href="#DejaVuSans-11" transform="translate(63.625 0)"/>
     <use xlink:href="#DejaVuSans-16" transform="translate(95.40625 0)"/>
     <use xlink:href="#DejaVuSans-1a" transform="translate(159.03125 0)"/>
     <use xlink:href="#DejaVuSans-18" transform="translate(222.65625 0)"/>
    </g>
   </g>
   <g id="text_30">
    <!-- 0.025 -->
    <g style="fill: #262626" transform="translate(217.101607 494.681713) scale(0.07 -0.07)">
     <use xlink:href="#DejaVuSans-13"/>
     <use xlink:href="#DejaVuSans-11" transform="translate(63.625 0)"/>
     <use xlink:href="#DejaVuSans-13" transform="translate(95.40625 0)"/>
     <use xlink:href="#DejaVuSans-15" transform="translate(159.03125 0)"/>
     <use xlink:href="#DejaVuSans-18" transform="translate(222.65625 0)"/>
    </g>
   </g>
   <g id="text_31">
    <!-- 0.487 -->
    <g style="fill: #262626" transform="translate(389.634899 207.268199) scale(0.07 -0.07)">
     <use xlink:href="#DejaVuSans-13"/>
     <use xlink:href="#DejaVuSans-11" transform="translate(63.625 0)"/>
     <use xlink:href="#DejaVuSans-17" transform="translate(95.40625 0)"/>
     <use xlink:href="#DejaVuSans-1b" transform="translate(159.03125 0)"/>
     <use xlink:href="#DejaVuSans-1a" transform="translate(222.65625 0)"/>
    </g>
   </g>
   <g id="text_32">
    <!-- 0.300 -->
    <g style="fill: #262626" transform="translate(562.168191 323.787191) scale(0.07 -0.07)">
     <use xlink:href="#DejaVuSans-13"/>
     <use xlink:href="#DejaVuSans-11" transform="translate(63.625 0)"/>
     <use xlink:href="#DejaVuSans-16" transform="translate(95.40625 0)"/>
     <use xlink:href="#DejaVuSans-13" transform="translate(159.03125 0)"/>
     <use xlink:href="#DejaVuSans-13" transform="translate(222.65625 0)"/>
    </g>
   </g>
   <g id="text_33">
    <!-- 0.425 -->
    <g style="fill: #262626" transform="translate(734.701483 246.107863) scale(0.07 -0.07)">
     <use xlink:href="#DejaVuSans-13"/>
     <use xlink:href="#DejaVuSans-11" transform="translate(63.625 0)"/>
     <use xlink:href="#DejaVuSans-17" transform="translate(95.40625 0)"/>
     <use xlink:href="#DejaVuSans-15" transform="translate(159.03125 0)"/>
     <use xlink:href="#DejaVuSans-18" transform="translate(222.65625 0)"/>
    </g>
   </g>
   <g id="text_34">
    <!-- 0.000 -->
    <g style="fill: #262626" transform="translate(907.234775 510.217578) scale(0.07 -0.07)">
     <use xlink:href="#DejaVuSans-13"/>
     <use xlink:href="#DejaVuSans-11" transform="translate(63.625 0)"/>
     <use xlink:href="#DejaVuSans-13" transform="translate(95.40625 0)"/>
     <use xlink:href="#DejaVuSans-13" transform="translate(159.03125 0)"/>
     <use xlink:href="#DejaVuSans-13" transform="translate(222.65625 0)"/>
    </g>
   </g>
   <g id="text_35">
    <!-- ★ α=1.0 -->
    <g style="fill: #2563eb" transform="translate(157.197088 56.46313) scale(0.08 -0.08)">
     <defs>
      <path id="DejaVuSans-Bold-edc" d="M 416 2850 
L 2288 2850 
L 2869 4628 
L 3453 2850 
L 5322 2850 
L 3809 1747 
L 4391 -28 
L 2869 1072 
L 1350 -28 
L 1928 1747 
L 416 2850 
z
" transform="scale(0.015625)"/>
      <path id="DejaVuSans-Bold-3" transform="scale(0.015625)"/>
      <path id="DejaVuSans-Bold-345" d="M 3006 3163 
L 3119 3500 
L 4088 3500 
L 3484 1697 
L 3569 1219 
Q 3659 703 3872 703 
L 4128 703 
L 4128 0 
L 3809 0 
Q 3313 0 3059 263 
Q 3003 322 2988 353 
Q 2838 163 2689 39 
Q 2541 -84 1763 -78 
Q 988 -72 648 400 
Q 309 872 309 1794 
Q 309 2713 663 3088 
Q 1109 3569 1966 3578 
Q 2688 3588 3006 3163 
z
M 2575 1841 
L 2481 2350 
Q 2394 2825 1981 2828 
Q 1772 2828 1598 2558 
Q 1425 2288 1425 1741 
Q 1425 1191 1581 944 
Q 1738 697 1969 691 
Q 2213 684 2363 1163 
L 2575 1841 
z
" transform="scale(0.015625)"/>
      <path id="DejaVuSans-Bold-20" d="M 678 3084 
L 4684 3084 
L 4684 2350 
L 678 2350 
L 678 3084 
z
M 678 1663 
L 4684 1663 
L 4684 922 
L 678 922 
L 678 1663 
z
" transform="scale(0.015625)"/>
      <path id="DejaVuSans-Bold-14" d="M 750 831 
L 1813 831 
L 1813 3847 
L 722 3622 
L 722 4441 
L 1806 4666 
L 2950 4666 
L 2950 831 
L 4013 831 
L 4013 0 
L 750 0 
L 750 831 
z
" transform="scale(0.015625)"/>
      <path id="DejaVuSans-Bold-11" d="M 653 1209 
L 1778 1209 
L 1778 0 
L 653 0 
L 653 1209 
z
" transform="scale(0.015625)"/>
      <path id="DejaVuSans-Bold-13" d="M 2944 2338 
Q 2944 3213 2780 3570 
Q 2616 3928 2228 3928 
Q 1841 3928 1675 3570 
Q 1509 3213 1509 2338 
Q 1509 1453 1675 1090 
Q 1841 728 2228 728 
Q 2613 728 2778 1090 
Q 2944 1453 2944 2338 
z
M 4147 2328 
Q 4147 1169 3647 539 
Q 3147 -91 2228 -91 
Q 1306 -91 806 539 
Q 306 1169 306 2328 
Q 306 3491 806 4120 
Q 1306 4750 2228 4750 
Q 3147 4750 3647 4120 
Q 4147 3491 4147 2328 
z
" transform="scale(0.015625)"/>
     </defs>
     <use xlink:href="#DejaVuSans-Bold-edc"/>
     <use xlink:href="#DejaVuSans-Bold-3" transform="translate(89.65625 0)"/>
     <use xlink:href="#DejaVuSans-Bold-345" transform="translate(124.46875 0)"/>
     <use xlink:href="#DejaVuSans-Bold-20" transform="translate(193.171875 0)"/>
     <use xlink:href="#DejaVuSans-Bold-14" transform="translate(276.96875 0)"/>
     <use xlink:href="#DejaVuSans-Bold-11" transform="translate(346.546875 0)"/>
     <use xlink:href="#DejaVuSans-Bold-13" transform="translate(384.53125 0)"/>
    </g>
   </g>
   <g id="text_36">
    <!-- ★ α=1.0 -->
    <g style="fill: #2563eb" transform="translate(329.73038 180.750055) scale(0.08 -0.08)">
     <use xlink:href="#DejaVuSans-Bold-edc"/>
     <use xlink:href="#DejaVuSans-Bold-3" transform="translate(89.65625 0)"/>
     <use xlink:href="#DejaVuSans-Bold-345" transform="translate(124.46875 0)"/>
     <use xlink:href="#DejaVuSans-Bold-20" transform="translate(193.171875 0)"/>
     <use xlink:href="#DejaVuSans-Bold-14" transform="translate(276.96875 0)"/>
     <use xlink:href="#DejaVuSans-Bold-11" transform="translate(346.546875 0)"/>
     <use xlink:href="#DejaVuSans-Bold-13" transform="translate(384.53125 0)"/>
    </g>
   </g>
   <g id="text_37">
    <!-- ★ α=1.0 -->
    <g style="fill: #2563eb" transform="translate(502.263672 96.856381) scale(0.08 -0.08)">
     <use xlink:href="#DejaVuSans-Bold-edc"/>
     <use xlink:href="#DejaVuSans-Bold-3" transform="translate(89.65625 0)"/>
     <use xlink:href="#DejaVuSans-Bold-345" transform="translate(124.46875 0)"/>
     <use xlink:href="#DejaVuSans-Bold-20" transform="translate(193.171875 0)"/>
     <use xlink:href="#DejaVuSans-Bold-14" transform="translate(276.96875 0)"/>
     <use xlink:href="#DejaVuSans-Bold-11" transform="translate(346.546875 0)"/>
     <use xlink:href="#DejaVuSans-Bold-13" transform="translate(384.53125 0)"/>
    </g>
   </g>
   <g id="text_38">
    <!-- ★ α=1.0 -->
    <g style="fill: #2563eb" transform="translate(674.796964 143.463977) scale(0.08 -0.08)">
     <use xlink:href="#DejaVuSans-Bold-edc"/>
     <use xlink:href="#DejaVuSans-Bold-3" transform="translate(89.65625 0)"/>
     <use xlink:href="#DejaVuSans-Bold-345" transform="translate(124.46875 0)"/>
     <use xlink:href="#DejaVuSans-Bold-20" transform="translate(193.171875 0)"/>
     <use xlink:href="#DejaVuSans-Bold-14" transform="translate(276.96875 0)"/>
     <use xlink:href="#DejaVuSans-Bold-11" transform="translate(346.546875 0)"/>
     <use xlink:href="#DejaVuSans-Bold-13" transform="translate(384.53125 0)"/>
    </g>
   </g>
   <g id="text_39">
    <!-- ★ α=1.0 -->
    <g style="fill: #2563eb" transform="translate(847.330256 34.712918) scale(0.08 -0.08)">
     <use xlink:href="#DejaVuSans-Bold-edc"/>
     <use xlink:href="#DejaVuSans-Bold-3" transform="translate(89.65625 0)"/>
     <use xlink:href="#DejaVuSans-Bold-345" transform="translate(124.46875 0)"/>
     <use xlink:href="#DejaVuSans-Bold-20" transform="translate(193.171875 0)"/>
     <use xlink:href="#DejaVuSans-Bold-14" transform="translate(276.96875 0)"/>
     <use xlink:href="#DejaVuSans-Bold-11" transform="translate(346.546875 0)"/>
     <use xlink:href="#DejaVuSans-Bold-13" transform="translate(384.53125 0)"/>
    </g>
   </g>
   <g id="text_40">
    <!-- Score Comparison: Example Runs Across Alpha Values -->
    <g style="fill: #262626" transform="translate(306.277266 17.837813) scale(0.14 -0.14)">
     <defs>
      <path id="DejaVuSans-Bold-36" d="M 3834 4519 
L 3834 3531 
Q 3450 3703 3084 3790 
Q 2719 3878 2394 3878 
Q 1963 3878 1756 3759 
Q 1550 3641 1550 3391 
Q 1550 3203 1689 3098 
Q 1828 2994 2194 2919 
L 2706 2816 
Q 3484 2659 3812 2340 
Q 4141 2022 4141 1434 
Q 4141 663 3683 286 
Q 3225 -91 2284 -91 
Q 1841 -91 1394 -6 
Q 947 78 500 244 
L 500 1259 
Q 947 1022 1364 901 
Q 1781 781 2169 781 
Q 2563 781 2772 912 
Q 2981 1044 2981 1288 
Q 2981 1506 2839 1625 
Q 2697 1744 2272 1838 
L 1806 1941 
Q 1106 2091 782 2419 
Q 459 2747 459 3303 
Q 459 4000 909 4375 
Q 1359 4750 2203 4750 
Q 2588 4750 2994 4692 
Q 3400 4634 3834 4519 
z
" transform="scale(0.015625)"/>
      <path id="DejaVuSans-Bold-46" d="M 3366 3391 
L 3366 2478 
Q 3138 2634 2908 2709 
Q 2678 2784 2431 2784 
Q 1963 2784 1702 2511 
Q 1441 2238 1441 1747 
Q 1441 1256 1702 982 
Q 1963 709 2431 709 
Q 2694 709 2930 787 
Q 3166 866 3366 1019 
L 3366 103 
Q 3103 6 2833 -42 
Q 2563 -91 2291 -91 
Q 1344 -91 809 395 
Q 275 881 275 1747 
Q 275 2613 809 3098 
Q 1344 3584 2291 3584 
Q 2566 3584 2833 3536 
Q 3100 3488 3366 3391 
z
" transform="scale(0.015625)"/>
      <path id="DejaVuSans-Bold-52" d="M 2203 2784 
Q 1831 2784 1636 2517 
Q 1441 2250 1441 1747 
Q 1441 1244 1636 976 
Q 1831 709 2203 709 
Q 2569 709 2762 976 
Q 2956 1244 2956 1747 
Q 2956 2250 2762 2517 
Q 2569 2784 2203 2784 
z
M 2203 3584 
Q 3106 3584 3614 3096 
Q 4122 2609 4122 1747 
Q 4122 884 3614 396 
Q 3106 -91 2203 -91 
Q 1297 -91 786 396 
Q 275 884 275 1747 
Q 275 2609 786 3096 
Q 1297 3584 2203 3584 
z
" transform="scale(0.015625)"/>
      <path id="DejaVuSans-Bold-55" d="M 3138 2547 
Q 2991 2616 2845 2648 
Q 2700 2681 2553 2681 
Q 2122 2681 1889 2404 
Q 1656 2128 1656 1613 
L 1656 0 
L 538 0 
L 538 3500 
L 1656 3500 
L 1656 2925 
Q 1872 3269 2151 3426 
Q 2431 3584 2822 3584 
Q 2878 3584 2943 3579 
Q 3009 3575 3134 3559 
L 3138 2547 
z
" transform="scale(0.015625)"/>
      <path id="DejaVuSans-Bold-48" d="M 4031 1759 
L 4031 1441 
L 1416 1441 
Q 1456 1047 1700 850 
Q 1944 653 2381 653 
Q 2734 653 3104 758 
Q 3475 863 3866 1075 
L 3866 213 
Q 3469 63 3072 -14 
Q 2675 -91 2278 -91 
Q 1328 -91 801 392 
Q 275 875 275 1747 
Q 275 2603 792 3093 
Q 1309 3584 2216 3584 
Q 3041 3584 3536 3087 
Q 4031 2591 4031 1759 
z
M 2881 2131 
Q 2881 2450 2695 2645 
Q 2509 2841 2209 2841 
Q 1884 2841 1681 2658 
Q 1478 2475 1428 2131 
L 2881 2131 
z
" transform="scale(0.015625)"/>
      <path id="DejaVuSans-Bold-26" d="M 4288 256 
Q 3956 84 3597 -3 
Q 3238 -91 2847 -91 
Q 1681 -91 1000 561 
Q 319 1213 319 2328 
Q 319 3447 1000 4098 
Q 1681 4750 2847 4750 
Q 3238 4750 3597 4662 
Q 3956 4575 4288 4403 
L 4288 3438 
Q 3953 3666 3628 3772 
Q 3303 3878 2944 3878 
Q 2300 3878 1931 3465 
Q 1563 3053 1563 2328 
Q 1563 1606 1931 1193 
Q 2300 781 2944 781 
Q 3303 781 3628 887 
Q 3953 994 4288 1222 
L 4288 256 
z
" transform="scale(0.015625)"/>
      <path id="DejaVuSans-Bold-50" d="M 3781 2919 
Q 3994 3244 4286 3414 
Q 4578 3584 4928 3584 
Q 5531 3584 5847 3212 
Q 6163 2841 6163 2131 
L 6163 0 
L 5038 0 
L 5038 1825 
Q 5041 1866 5042 1909 
Q 5044 1953 5044 2034 
Q 5044 2406 4934 2573 
Q 4825 2741 4581 2741 
Q 4263 2741 4089 2478 
Q 3916 2216 3909 1719 
L 3909 0 
L 2784 0 
L 2784 1825 
Q 2784 2406 2684 2573 
Q 2584 2741 2328 2741 
Q 2006 2741 1831 2477 
Q 1656 2213 1656 1722 
L 1656 0 
L 531 0 
L 531 3500 
L 1656 3500 
L 1656 2988 
Q 1863 3284 2130 3434 
Q 2397 3584 2719 3584 
Q 3081 3584 3359 3409 
Q 3638 3234 3781 2919 
z
" transform="scale(0.015625)"/>
      <path id="DejaVuSans-Bold-53" d="M 1656 506 
L 1656 -1331 
L 538 -1331 
L 538 3500 
L 1656 3500 
L 1656 2988 
Q 1888 3294 2169 3439 
Q 2450 3584 2816 3584 
Q 3463 3584 3878 3070 
Q 4294 2556 4294 1747 
Q 4294 938 3878 423 
Q 3463 -91 2816 -91 
Q 2450 -91 2169 54 
Q 1888 200 1656 506 
z
M 2400 2772 
Q 2041 2772 1848 2508 
Q 1656 2244 1656 1747 
Q 1656 1250 1848 986 
Q 2041 722 2400 722 
Q 2759 722 2948 984 
Q 3138 1247 3138 1747 
Q 3138 2247 2948 2509 
Q 2759 2772 2400 2772 
z
" transform="scale(0.015625)"/>
      <path id="DejaVuSans-Bold-44" d="M 2106 1575 
Q 1756 1575 1579 1456 
Q 1403 1338 1403 1106 
Q 1403 894 1545 773 
Q 1688 653 1941 653 
Q 2256 653 2472 879 
Q 2688 1106 2688 1447 
L 2688 1575 
L 2106 1575 
z
M 3816 1997 
L 3816 0 
L 2688 0 
L 2688 519 
Q 2463 200 2181 54 
Q 1900 -91 1497 -91 
Q 953 -91 614 226 
Q 275 544 275 1050 
Q 275 1666 698 1953 
Q 1122 2241 2028 2241 
L 2688 2241 
L 2688 2328 
Q 2688 2594 2478 2717 
Q 2269 2841 1825 2841 
Q 1466 2841 1156 2769 
Q 847 2697 581 2553 
L 581 3406 
Q 941 3494 1303 3539 
Q 1666 3584 2028 3584 
Q 2975 3584 3395 3211 
Q 3816 2838 3816 1997 
z
" transform="scale(0.015625)"/>
      <path id="DejaVuSans-Bold-4c" d="M 538 3500 
L 1656 3500 
L 1656 0 
L 538 0 
L 538 3500 
z
M 538 4863 
L 1656 4863 
L 1656 3950 
L 538 3950 
L 538 4863 
z
" transform="scale(0.015625)"/>
      <path id="DejaVuSans-Bold-56" d="M 3272 3391 
L 3272 2541 
Q 2913 2691 2578 2766 
Q 2244 2841 1947 2841 
Q 1628 2841 1473 2761 
Q 1319 2681 1319 2516 
Q 1319 2381 1436 2309 
Q 1553 2238 1856 2203 
L 2053 2175 
Q 2913 2066 3209 1816 
Q 3506 1566 3506 1031 
Q 3506 472 3093 190 
Q 2681 -91 1863 -91 
Q 1516 -91 1145 -36 
Q 775 19 384 128 
L 384 978 
Q 719 816 1070 734 
Q 1422 653 1784 653 
Q 2113 653 2278 743 
Q 2444 834 2444 1013 
Q 2444 1163 2330 1236 
Q 2216 1309 1875 1350 
L 1678 1375 
Q 931 1469 631 1722 
Q 331 1975 331 2491 
Q 331 3047 712 3315 
Q 1094 3584 1881 3584 
Q 2191 3584 2531 3537 
Q 2872 3491 3272 3391 
z
" transform="scale(0.015625)"/>
      <path id="DejaVuSans-Bold-51" d="M 4056 2131 
L 4056 0 
L 2931 0 
L 2931 347 
L 2931 1631 
Q 2931 2084 2911 2256 
Q 2891 2428 2841 2509 
Q 2775 2619 2662 2680 
Q 2550 2741 2406 2741 
Q 2056 2741 1856 2470 
Q 1656 2200 1656 1722 
L 1656 0 
L 538 0 
L 538 3500 
L 1656 3500 
L 1656 2988 
Q 1909 3294 2193 3439 
Q 2478 3584 2822 3584 
Q 3428 3584 3742 3212 
Q 4056 2841 4056 2131 
z
" transform="scale(0.015625)"/>
      <path id="DejaVuSans-Bold-1d" d="M 716 3500 
L 1844 3500 
L 1844 2291 
L 716 2291 
L 716 3500 
z
M 716 1209 
L 1844 1209 
L 1844 0 
L 716 0 
L 716 1209 
z
" transform="scale(0.015625)"/>
      <path id="DejaVuSans-Bold-28" d="M 588 4666 
L 3834 4666 
L 3834 3756 
L 1791 3756 
L 1791 2888 
L 3713 2888 
L 3713 1978 
L 1791 1978 
L 1791 909 
L 3903 909 
L 3903 0 
L 588 0 
L 588 4666 
z
" transform="scale(0.015625)"/>
      <path id="DejaVuSans-Bold-5b" d="M 1422 1791 
L 159 3500 
L 1344 3500 
L 2059 2463 
L 2784 3500 
L 3969 3500 
L 2706 1797 
L 4031 0 
L 2847 0 
L 2059 1106 
L 1281 0 
L 97 0 
L 1422 1791 
z
" transform="scale(0.015625)"/>
      <path id="DejaVuSans-Bold-4f" d="M 538 4863 
L 1656 4863 
L 1656 0 
L 538 0 
L 538 4863 
z
" transform="scale(0.015625)"/>
      <path id="DejaVuSans-Bold-35" d="M 2297 2597 
Q 2675 2597 2839 2737 
Q 3003 2878 3003 3200 
Q 3003 3519 2839 3656 
Q 2675 3794 2297 3794 
L 1791 3794 
L 1791 2597 
L 2297 2597 
z
M 1791 1766 
L 1791 0 
L 588 0 
L 588 4666 
L 2425 4666 
Q 3347 4666 3776 4356 
Q 4206 4047 4206 3378 
Q 4206 2916 3982 2619 
Q 3759 2322 3309 2181 
Q 3556 2125 3751 1926 
Q 3947 1728 4147 1325 
L 4800 0 
L 3519 0 
L 2950 1159 
Q 2778 1509 2601 1637 
Q 2425 1766 2131 1766 
L 1791 1766 
z
" transform="scale(0.015625)"/>
      <path id="DejaVuSans-Bold-58" d="M 500 1363 
L 500 3500 
L 1625 3500 
L 1625 3150 
Q 1625 2866 1622 2436 
Q 1619 2006 1619 1863 
Q 1619 1441 1641 1255 
Q 1663 1069 1716 984 
Q 1784 875 1895 815 
Q 2006 756 2150 756 
Q 2500 756 2700 1025 
Q 2900 1294 2900 1772 
L 2900 3500 
L 4019 3500 
L 4019 0 
L 2900 0 
L 2900 506 
Q 2647 200 2364 54 
Q 2081 -91 1741 -91 
Q 1134 -91 817 281 
Q 500 653 500 1363 
z
" transform="scale(0.015625)"/>
      <path id="DejaVuSans-Bold-24" d="M 3419 850 
L 1538 850 
L 1241 0 
L 31 0 
L 1759 4666 
L 3194 4666 
L 4922 0 
L 3713 0 
L 3419 850 
z
M 1838 1716 
L 3116 1716 
L 2478 3572 
L 1838 1716 
z
" transform="scale(0.015625)"/>
      <path id="DejaVuSans-Bold-4b" d="M 4056 2131 
L 4056 0 
L 2931 0 
L 2931 347 
L 2931 1625 
Q 2931 2084 2911 2256 
Q 2891 2428 2841 2509 
Q 2775 2619 2662 2680 
Q 2550 2741 2406 2741 
Q 2056 2741 1856 2470 
Q 1656 2200 1656 1722 
L 1656 0 
L 538 0 
L 538 4863 
L 1656 4863 
L 1656 2988 
Q 1909 3294 2193 3439 
Q 2478 3584 2822 3584 
Q 3428 3584 3742 3212 
Q 4056 2841 4056 2131 
z
" transform="scale(0.015625)"/>
      <path id="DejaVuSans-Bold-39" d="M 31 4666 
L 1241 4666 
L 2478 1222 
L 3713 4666 
L 4922 4666 
L 3194 0 
L 1759 0 
L 31 4666 
z
" transform="scale(0.015625)"/>
     </defs>
     <use xlink:href="#DejaVuSans-Bold-36"/>
     <use xlink:href="#DejaVuSans-Bold-46" transform="translate(72.015625 0)"/>
     <use xlink:href="#DejaVuSans-Bold-52" transform="translate(131.296875 0)"/>
     <use xlink:href="#DejaVuSans-Bold-55" transform="translate(200 0)"/>
     <use xlink:href="#DejaVuSans-Bold-48" transform="translate(249.3125 0)"/>
     <use xlink:href="#DejaVuSans-Bold-3" transform="translate(317.140625 0)"/>
     <use xlink:href="#DejaVuSans-Bold-26" transform="translate(351.953125 0)"/>
     <use xlink:href="#DejaVuSans-Bold-52" transform="translate(425.34375 0)"/>
     <use xlink:href="#DejaVuSans-Bold-50" transform="translate(494.046875 0)"/>
     <use xlink:href="#DejaVuSans-Bold-53" transform="translate(598.25 0)"/>
     <use xlink:href="#DejaVuSans-Bold-44" transform="translate(669.828125 0)"/>
     <use xlink:href="#DejaVuSans-Bold-55" transform="translate(737.3125 0)"/>
     <use xlink:href="#DejaVuSans-Bold-4c" transform="translate(786.625 0)"/>
     <use xlink:href="#DejaVuSans-Bold-56" transform="translate(820.90625 0)"/>
     <use xlink:href="#DejaVuSans-Bold-52" transform="translate(880.421875 0)"/>
     <use xlink:href="#DejaVuSans-Bold-51" transform="translate(949.125 0)"/>
     <use xlink:href="#DejaVuSans-Bold-1d" transform="translate(1020.3125 0)"/>
     <use xlink:href="#DejaVuSans-Bold-3" transform="translate(1060.296875 0)"/>
     <use xlink:href="#DejaVuSans-Bold-28" transform="translate(1095.109375 0)"/>
     <use xlink:href="#DejaVuSans-Bold-5b" transform="translate(1163.421875 0)"/>
     <use xlink:href="#DejaVuSans-Bold-44" transform="translate(1227.921875 0)"/>
     <use xlink:href="#DejaVuSans-Bold-50" transform="translate(1295.40625 0)"/>
     <use xlink:href="#DejaVuSans-Bold-53" transform="translate(1399.609375 0)"/>
     <use xlink:href="#DejaVuSans-Bold-4f" transform="translate(1471.1875 0)"/>
     <use xlink:href="#DejaVuSans-Bold-48" transform="translate(1505.46875 0)"/>
     <use xlink:href="#DejaVuSans-Bold-3" transform="translate(1573.296875 0)"/>
     <use xlink:href="#DejaVuSans-Bold-35" transform="translate(1608.109375 0)"/>
     <use xlink:href="#DejaVuSans-Bold-58" transform="translate(1685.109375 0)"/>
     <use xlink:href="#DejaVuSans-Bold-51" transform="translate(1756.296875 0)"/>
     <use xlink:href="#DejaVuSans-Bold-56" transform="translate(1827.484375 0)"/>
     <use xlink:href="#DejaVuSans-Bold-3" transform="translate(1887 0)"/>
     <use xlink:href="#DejaVuSans-Bold-24" transform="translate(1921.8125 0)"/>
     <use xlink:href="#DejaVuSans-Bold-46" transform="translate(1999.203125 0)"/>
     <use xlink:href="#DejaVuSans-Bold-55" transform="translate(2058.484375 0)"/>
     <use xlink:href="#DejaVuSans-Bold-52" transform="translate(2107.796875 0)"/>
     <use xlink:href="#DejaVuSans-Bold-56" transform="translate(2176.5 0)"/>
     <use xlink:href="#DejaVuSans-Bold-56" transform="translate(2236.015625 0)"/>
     <use xlink:href="#DejaVuSans-Bold-3" transform="translate(2295.53125 0)"/>
     <use xlink:href="#DejaVuSans-Bold-24" transform="translate(2330.34375 0)"/>
     <use xlink:href="#DejaVuSans-Bold-4f" transform="translate(2407.734375 0)"/>
     <use xlink:href="#DejaVuSans-Bold-53" transform="translate(2442.015625 0)"/>
     <use xlink:href="#DejaVuSans-Bold-4b" transform="translate(2513.59375 0)"/>
     <use xlink:href="#DejaVuSans-Bold-44" transform="translate(2584.78125 0)"/>
     <use xlink:href="#DejaVuSans-Bold-3" transform="translate(2652.265625 0)"/>
     <use xlink:href="#DejaVuSans-Bold-39" transform="translate(2687.078125 0)"/>
     <use xlink:href="#DejaVuSans-Bold-44" transform="translate(2759 0)"/>
     <use xlink:href="#DejaVuSans-Bold-4f" transform="translate(2826.484375 0)"/>
     <use xlink:href="#DejaVuSans-Bold-58" transform="translate(2860.765625 0)"/>
     <use xlink:href="#DejaVuSans-Bold-48" transform="translate(2931.953125 0)"/>
     <use xlink:href="#DejaVuSans-Bold-56" transform="translate(2999.78125 0)"/>
    </g>
   </g>
   <g id="legend_1">
    <g id="patch_27">
     <path d="M 850.134375 162.294375 
L 964.365938 162.294375 
Q 967.665938 162.294375 967.665938 158.994375 
L 967.665938 35.387812 
Q 967.665938 32.087813 964.365938 32.087813 
L 850.134375 32.087813 
Q 846.834375 32.087813 846.834375 35.387812 
L 846.834375 158.994375 
Q 846.834375 162.294375 850.134375 162.294375 
z
" style="fill: #ffffff; opacity: 0.8; stroke: #cccccc; stroke-linejoin: miter"/>
    </g>
    <g id="text_41">
     <!-- Alpha -->
     <g style="fill: #262626" transform="translate(881.660625 52.365) scale(0.18 -0.18)">
      <defs>
       <path id="DejaVuSans-4f" d="M 603 4863 
L 1178 4863 
L 1178 0 
L 603 0 
L 603 4863 
z
" transform="scale(0.015625)"/>
       <path id="DejaVuSans-53" d="M 1159 525 
L 1159 -1331 
L 581 -1331 
L 581 3500 
L 1159 3500 
L 1159 2969 
Q 1341 3281 1617 3432 
Q 1894 3584 2278 3584 
Q 2916 3584 3314 3078 
Q 3713 2572 3713 1747 
Q 3713 922 3314 415 
Q 2916 -91 2278 -91 
Q 1894 -91 1617 61 
Q 1341 213 1159 525 
z
M 3116 1747 
Q 3116 2381 2855 2742 
Q 2594 3103 2138 3103 
Q 1681 3103 1420 2742 
Q 1159 2381 1159 1747 
Q 1159 1113 1420 752 
Q 1681 391 2138 391 
Q 2594 391 2855 752 
Q 3116 1113 3116 1747 
z
" transform="scale(0.015625)"/>
       <path id="DejaVuSans-4b" d="M 3513 2113 
L 3513 0 
L 2938 0 
L 2938 2094 
Q 2938 2591 2744 2837 
Q 2550 3084 2163 3084 
Q 1697 3084 1428 2787 
Q 1159 2491 1159 1978 
L 1159 0 
L 581 0 
L 581 4863 
L 1159 4863 
L 1159 2956 
Q 1366 3272 1645 3428 
Q 1925 3584 2291 3584 
Q 2894 3584 3203 3211 
Q 3513 2838 3513 2113 
z
" transform="scale(0.015625)"/>
      </defs>
      <use xlink:href="#DejaVuSans-24"/>
      <use xlink:href="#DejaVuSans-4f" transform="translate(68.40625 0)"/>
      <use xlink:href="#DejaVuSans-53" transform="translate(96.1875 0)"/>
      <use xlink:href="#DejaVuSans-4b" transform="translate(159.671875 0)"/>
      <use xlink:href="#DejaVuSans-44" transform="translate(223.046875 0)"/>
     </g>
    </g>
    <g id="patch_28">
     <path d="M 853.434375 77.476641 
L 886.434375 77.476641 
L 886.434375 65.926641 
L 853.434375 65.926641 
z
" style="fill: #2563eb; stroke: #000000; stroke-width: 0.5; stroke-linejoin: miter"/>
    </g>
    <g id="text_42">
     <!-- α = 1.0 -->
     <g style="fill: #262626" transform="translate(899.634375 77.476641) scale(0.165 -0.165)">
      <defs>
       <path id="DejaVuSans-345" d="M 2644 1628 
L 2506 2350 
Q 2366 3091 1809 3091 
Q 1391 3091 1200 2747 
Q 959 2316 959 1747 
Q 959 1059 1194 731 
Q 1431 397 1809 397 
Q 2228 397 2453 1063 
L 2644 1628 
z
M 2966 2584 
L 3275 3500 
L 3788 3500 
L 3147 1603 
L 3272 919 
Q 3300 766 3409 638 
Q 3538 488 3638 488 
L 3913 488 
L 3913 0 
L 3569 0 
Q 3275 0 3013 263 
Q 2884 394 2831 669 
Q 2688 322 2394 50 
Q 2256 -78 1809 -78 
Q 1075 -78 719 397 
Q 353 888 353 1747 
Q 353 2666 750 3097 
Q 1191 3578 1809 3578 
Q 2781 3578 2966 2584 
z
" transform="scale(0.015625)"/>
       <path id="DejaVuSans-20" d="M 678 2906 
L 4684 2906 
L 4684 2381 
L 678 2381 
L 678 2906 
z
M 678 1631 
L 4684 1631 
L 4684 1100 
L 678 1100 
L 678 1631 
z
" transform="scale(0.015625)"/>
      </defs>
      <use xlink:href="#DejaVuSans-345"/>
      <use xlink:href="#DejaVuSans-3" transform="translate(65.921875 0)"/>
      <use xlink:href="#DejaVuSans-20" transform="translate(97.703125 0)"/>
      <use xlink:href="#DejaVuSans-3" transform="translate(181.5 0)"/>
      <use xlink:href="#DejaVuSans-14" transform="translate(213.28125 0)"/>
      <use xlink:href="#DejaVuSans-11" transform="translate(276.90625 0)"/>
      <use xlink:href="#DejaVuSans-13" transform="translate(308.6875 0)"/>
     </g>
    </g>
    <g id="patch_29">
     <path d="M 853.434375 102.22793 
L 886.434375 102.22793 
L 886.434375 90.67793 
L 853.434375 90.67793 
z
" style="fill: #059669; stroke: #000000; stroke-width: 0.5; stroke-linejoin: miter"/>
    </g>
    <g id="text_43">
     <!-- α = 0.8 -->
     <g style="fill: #262626" transform="translate(899.634375 102.22793) scale(0.165 -0.165)">
      <use xlink:href="#DejaVuSans-345"/>
      <use xlink:href="#DejaVuSans-3" transform="translate(65.921875 0)"/>
      <use xlink:href="#DejaVuSans-20" transform="translate(97.703125 0)"/>
      <use xlink:href="#DejaVuSans-3" transform="translate(181.5 0)"/>
      <use xlink:href="#DejaVuSans-13" transform="translate(213.28125 0)"/>
      <use xlink:href="#DejaVuSans-11" transform="translate(276.90625 0)"/>
      <use xlink:href="#DejaVuSans-1b" transform="translate(308.6875 0)"/>
     </g>
    </g>
    <g id="patch_30">
     <path d="M 853.434375 126.979219 
L 886.434375 126.979219 
L 886.434375 115.429219 
L 853.434375 115.429219 
z
" style="fill: #d97706; stroke: #000000; stroke-width: 0.5; stroke-linejoin: miter"/>
    </g>
    <g id="text_44">
     <!-- α = 0.5 -->
     <g style="fill: #262626" transform="translate(899.634375 126.979219) scale(0.165 -0.165)">
      <use xlink:href="#DejaVuSans-345"/>
      <use xlink:href="#DejaVuSans-3" transform="translate(65.921875 0)"/>
      <use xlink:href="#DejaVuSans-20" transform="translate(97.703125 0)"/>
      <use xlink:href="#DejaVuSans-3" transform="translate(181.5 0)"/>
      <use xlink:href="#DejaVuSans-13" transform="translate(213.28125 0)"/>
      <use xlink:href="#DejaVuSans-11" transform="translate(276.90625 0)"/>
      <use xlink:href="#DejaVuSans-18" transform="translate(308.6875 0)"/>
     </g>
    </g>
    <g id="patch_31">
     <path d="M 853.434375 151.730508 
L 886.434375 151.730508 
L 886.434375 140.180508 
L 853.434375 140.180508 
z
" style="fill: #dc2626; stroke: #000000; stroke-width: 0.5; stroke-linejoin: miter"/>
    </g>
    <g id="text_45">
     <!-- α = 0.0 -->
     <g style="fill: #262626" transform="translate(899.634375 151.730508) scale(0.165 -0.165)">
      <use xlink:href="#DejaVuSans-345"/>
      <use xlink:href="#DejaVuSans-3" transform="translate(65.921875 0)"/>
      <use xlink:href="#DejaVuSans-20" transform="translate(97.703125 0)"/>
      <use xlink:href="#DejaVuSans-3" transform="translate(181.5 0)"/>
      <use xlink:href="#DejaVuSans-13" transform="translate(213.28125 0)"/>
      <use xlink:href="#DejaVuSans-11" transform="translate(276.90625 0)"/>
      <use xlink:href="#DejaVuSans-13" transform="translate(308.6875 0)"/>
     </g>
    </g>
   </g>
  </g>
 </g>
 <defs>
  <clipPath id="pb26393b923">
   <rect x="64.940156" y="23.837813" width="910.975781" height="489.379766"/>
  </clipPath>
 </defs>
</svg>
