<?xml version="1.0" encoding="utf-8" standalone="no"?>
<!DOCTYPE svg PUBLIC "-//W3C//DTD SVG 1.1//EN"
  "http://www.w3.org/Graphics/SVG/1.1/DTD/svg11.dtd">
<svg xmlns:xlink="http://www.w3.org/1999/xlink" width="651.242409pt" height="470.158594pt" viewBox="0 0 651.242409 470.158594" xmlns="http://www.w3.org/2000/svg" version="1.1">
 <metadata>
  <rdf:RDF xmlns:dc="http://purl.org/dc/elements/1.1/" xmlns:cc="http://creativecommons.org/ns#" xmlns:rdf="http://www.w3.org/1999/02/22-rdf-syntax-ns#">
   <cc:Work>
    <dc:type rdf:resource="http://purl.org/dc/dcmitype/StillImage"/>
    <dc:date>2026-07-22T17:12:44.406732</dc:date>
    <dc:format>image/svg+xml</dc:format>
    <dc:creator>
     <cc:Agent>
      <dc:title>Matplotlib v3.11.0, https://matplotlib.org/</dc:title>
     </cc:Agent>
    </dc:creator>
   </cc:Work>
  </rdf:RDF>
 </metadata>
 <defs>
  <style type="text/css">*{stroke-linejoin: round; stroke-linecap: butt}</style>
 </defs>
 <g id="figure_1">
  <g id="patch_1">
   <path d="M 0 470.158594 
L 651.242409 470.158594 
L 651.242409 0 
L 0 0 
z
" style="fill: #ffffff"/>
  </g>
  <g id="axes_1">
   <g id="patch_2">
    <path d="M 75.438281 414.957187 
L 633.438281 414.957187 
L 633.438281 26.877187 
L 75.438281 26.877187 
z
" style="fill: #ffffff"/>
   </g>
   <g id="matplotlib.axis_1">
    <g id="xtick_1">
     <g id="line2d_1">
      <path d="M 100.801918 414.957187 
L 100.801918 26.877187 
" clip-path="url(#p2b6a743eea)" style="fill: none; stroke: #cccccc; stroke-opacity: 0.3; stroke-linecap: round"/>
     </g>
     <g id="text_1">
      <!-- 0 -->
      <g style="fill: #262626" transform="translate(95.552855 436.99332) scale(0.165 -0.165)">
       <defs>
        <path id="DejaVuSans-13" d="M 2034 4250 
Q 1547 4250 1301 3770 
Q 1056 3291 1056 2328 
Q 1056 1369 1301 889 
Q 1547 409 2034 409 
Q 2525 409 2770 889 
Q 3016 1369 3016 2328 
Q 3016 3291 2770 3770 
Q 2525 4250 2034 4250 
z
M 2034 4750 
Q 2819 4750 3233 4129 
Q 3647 3509 3647 2328 
Q 3647 1150 3233 529 
Q 2819 -91 2034 -91 
Q 1250 -91 836 529 
Q 422 1150 422 2328 
Q 422 3509 836 4129 
Q 1250 4750 2034 4750 
z
" transform="scale(0.015625)"/>
       </defs>
       <use xlink:href="#DejaVuSans-13"/>
      </g>
     </g>
    </g>
    <g id="xtick_2">
     <g id="line2d_2">
      <path d="M 188.717468 414.957187 
L 188.717468 26.877187 
" clip-path="url(#p2b6a743eea)" style="fill: none; stroke: #cccccc; stroke-opacity: 0.3; stroke-linecap: round"/>
     </g>
     <g id="text_2">
      <!-- 20 -->
      <g style="fill: #262626" transform="translate(178.219343 436.99332) scale(0.165 -0.165)">
       <defs>
        <path id="DejaVuSans-15" d="M 1228 531 
L 3431 531 
L 3431 0 
L 469 0 
L 469 531 
Q 828 903 1448 1529 
Q 2069 2156 2228 2338 
Q 2531 2678 2651 2914 
Q 2772 3150 2772 3378 
Q 2772 3750 2511 3984 
Q 2250 4219 1831 4219 
Q 1534 4219 1204 4116 
Q 875 4013 500 3803 
L 500 4441 
Q 881 4594 1212 4672 
Q 1544 4750 1819 4750 
Q 2544 4750 2975 4387 
Q 3406 4025 3406 3419 
Q 3406 3131 3298 2873 
Q 3191 2616 2906 2266 
Q 2828 2175 2409 1742 
Q 1991 1309 1228 531 
z
" transform="scale(0.015625)"/>
       </defs>
       <use xlink:href="#DejaVuSans-15"/>
       <use xlink:href="#DejaVuSans-13" transform="translate(63.625 0)"/>
      </g>
     </g>
    </g>
    <g id="xtick_3">
     <g id="line2d_3">
      <path d="M 276.633019 414.957187 
L 276.633019 26.877187 
" clip-path="url(#p2b6a743eea)" style="fill: none; stroke: #cccccc; stroke-opacity: 0.3; stroke-linecap: round"/>
     </g>
     <g id="text_3">
      <!-- 40 -->
      <g style="fill: #262626" transform="translate(266.134894 436.99332) scale(0.165 -0.165)">
       <defs>
        <path id="DejaVuSans-17" d="M 2419 4116 
L 825 1625 
L 2419 1625 
L 2419 4116 
z
M 2253 4666 
L 3047 4666 
L 3047 1625 
L 3713 1625 
L 3713 1100 
L 3047 1100 
L 3047 0 
L 2419 0 
L 2419 1100 
L 313 1100 
L 313 1709 
L 2253 4666 
z
" transform="scale(0.015625)"/>
       </defs>
       <use xlink:href="#DejaVuSans-17"/>
       <use xlink:href="#DejaVuSans-13" transform="translate(63.625 0)"/>
      </g>
     </g>
    </g>
    <g id="xtick_4">
     <g id="line2d_4">
      <path d="M 364.54857 414.957187 
L 364.54857 26.877187 
" clip-path="url(#p2b6a743eea)" style="fill: none; stroke: #cccccc; stroke-opacity: 0.3; stroke-linecap: round"/>
     </g>
     <g id="text_4">
      <!-- 60 -->
      <g style="fill: #262626" transform="translate(354.050445 436.99332) scale(0.165 -0.165)">
       <defs>
        <path id="DejaVuSans-19" d="M 2113 2584 
Q 1688 2584 1439 2293 
Q 1191 2003 1191 1497 
Q 1191 994 1439 701 
Q 1688 409 2113 409 
Q 2538 409 2786 701 
Q 3034 994 3034 1497 
Q 3034 2003 2786 2293 
Q 2538 2584 2113 2584 
z
M 3366 4563 
L 3366 3988 
Q 3128 4100 2886 4159 
Q 2644 4219 2406 4219 
Q 1781 4219 1451 3797 
Q 1122 3375 1075 2522 
Q 1259 2794 1537 2939 
Q 1816 3084 2150 3084 
Q 2853 3084 3261 2657 
Q 3669 2231 3669 1497 
Q 3669 778 3244 343 
Q 2819 -91 2113 -91 
Q 1303 -91 875 529 
Q 447 1150 447 2328 
Q 447 3434 972 4092 
Q 1497 4750 2381 4750 
Q 2619 4750 2861 4703 
Q 3103 4656 3366 4563 
z
" transform="scale(0.015625)"/>
       </defs>
       <use xlink:href="#DejaVuSans-19"/>
       <use xlink:href="#DejaVuSans-13" transform="translate(63.625 0)"/>
      </g>
     </g>
    </g>
    <g id="xtick_5">
     <g id="line2d_5">
      <path d="M 452.46412 414.957187 
L 452.46412 26.877187 
" clip-path="url(#p2b6a743eea)" style="fill: none; stroke: #cccccc; stroke-opacity: 0.3; stroke-linecap: round"/>
     </g>
     <g id="text_5">
      <!-- 80 -->
      <g style="fill: #262626" transform="translate(441.965995 436.99332) scale(0.165 -0.165)">
       <defs>
        <path id="DejaVuSans-1b" d="M 2034 2216 
Q 1584 2216 1326 1975 
Q 1069 1734 1069 1313 
Q 1069 891 1326 650 
Q 1584 409 2034 409 
Q 2484 409 2743 651 
Q 3003 894 3003 1313 
Q 3003 1734 2745 1975 
Q 2488 2216 2034 2216 
z
M 1403 2484 
Q 997 2584 770 2862 
Q 544 3141 544 3541 
Q 544 4100 942 4425 
Q 1341 4750 2034 4750 
Q 2731 4750 3128 4425 
Q 3525 4100 3525 3541 
Q 3525 3141 3298 2862 
Q 3072 2584 2669 2484 
Q 3125 2378 3379 2068 
Q 3634 1759 3634 1313 
Q 3634 634 3220 271 
Q 2806 -91 2034 -91 
Q 1263 -91 848 271 
Q 434 634 434 1313 
Q 434 1759 690 2068 
Q 947 2378 1403 2484 
z
M 1172 3481 
Q 1172 3119 1398 2916 
Q 1625 2713 2034 2713 
Q 2441 2713 2670 2916 
Q 2900 3119 2900 3481 
Q 2900 3844 2670 4047 
Q 2441 4250 2034 4250 
Q 1625 4250 1398 4047 
Q 1172 3844 1172 3481 
z
" transform="scale(0.015625)"/>
       </defs>
       <use xlink:href="#DejaVuSans-1b"/>
       <use xlink:href="#DejaVuSans-13" transform="translate(63.625 0)"/>
      </g>
     </g>
    </g>
    <g id="xtick_6">
     <g id="line2d_6">
      <path d="M 540.379671 414.957187 
L 540.379671 26.877187 
" clip-path="url(#p2b6a743eea)" style="fill: none; stroke: #cccccc; stroke-opacity: 0.3; stroke-linecap: round"/>
     </g>
     <g id="text_6">
      <!-- 100 -->
      <g style="fill: #262626" transform="translate(524.632483 436.99332) scale(0.165 -0.165)">
       <defs>
        <path id="DejaVuSans-14" d="M 794 531 
L 1825 531 
L 1825 4091 
L 703 3866 
L 703 4441 
L 1819 4666 
L 2450 4666 
L 2450 531 
L 3481 531 
L 3481 0 
L 794 0 
L 794 531 
z
" transform="scale(0.015625)"/>
       </defs>
       <use xlink:href="#DejaVuSans-14"/>
       <use xlink:href="#DejaVuSans-13" transform="translate(63.625 0)"/>
       <use xlink:href="#DejaVuSans-13" transform="translate(127.25 0)"/>
      </g>
     </g>
    </g>
    <g id="xtick_7">
     <g id="line2d_7">
      <path d="M 628.295222 414.957187 
L 628.295222 26.877187 
" clip-path="url(#p2b6a743eea)" style="fill: none; stroke: #cccccc; stroke-opacity: 0.3; stroke-linecap: round"/>
     </g>
     <g id="text_7">
      <!-- 120 -->
      <g style="fill: #262626" transform="translate(612.548034 436.99332) scale(0.165 -0.165)">
       <use xlink:href="#DejaVuSans-14"/>
       <use xlink:href="#DejaVuSans-15" transform="translate(63.625 0)"/>
       <use xlink:href="#DejaVuSans-13" transform="translate(127.25 0)"/>
      </g>
     </g>
    </g>
    <g id="text_8">
     <!-- Time Overhead (%) -->
     <g style="fill: #262626" transform="translate(267.156563 458.634375) scale(0.18 -0.18)">
      <defs>
       <path id="DejaVuSans-37" d="M -19 4666 
L 3928 4666 
L 3928 4134 
L 2272 4134 
L 2272 0 
L 1638 0 
L 1638 4134 
L -19 4134 
L -19 4666 
z
" transform="scale(0.015625)"/>
       <path id="DejaVuSans-4c" d="M 603 3500 
L 1178 3500 
L 1178 0 
L 603 0 
L 603 3500 
z
M 603 4863 
L 1178 4863 
L 1178 4134 
L 603 4134 
L 603 4863 
z
" transform="scale(0.015625)"/>
       <path id="DejaVuSans-50" d="M 3328 2828 
Q 3544 3216 3844 3400 
Q 4144 3584 4550 3584 
Q 5097 3584 5394 3201 
Q 5691 2819 5691 2113 
L 5691 0 
L 5113 0 
L 5113 2094 
Q 5113 2597 4934 2840 
Q 4756 3084 4391 3084 
Q 3944 3084 3684 2787 
Q 3425 2491 3425 1978 
L 3425 0 
L 2847 0 
L 2847 2094 
Q 2847 2600 2669 2842 
Q 2491 3084 2119 3084 
Q 1678 3084 1418 2786 
Q 1159 2488 1159 1978 
L 1159 0 
L 581 0 
L 581 3500 
L 1159 3500 
L 1159 2956 
Q 1356 3278 1631 3431 
Q 1906 3584 2284 3584 
Q 2666 3584 2933 3390 
Q 3200 3197 3328 2828 
z
" transform="scale(0.015625)"/>
       <path id="DejaVuSans-48" d="M 3597 1894 
L 3597 1613 
L 953 1613 
Q 991 1019 1311 708 
Q 1631 397 2203 397 
Q 2534 397 2845 478 
Q 3156 559 3463 722 
L 3463 178 
Q 3153 47 2828 -22 
Q 2503 -91 2169 -91 
Q 1331 -91 842 396 
Q 353 884 353 1716 
Q 353 2575 817 3079 
Q 1281 3584 2069 3584 
Q 2775 3584 3186 3129 
Q 3597 2675 3597 1894 
z
M 3022 2063 
Q 3016 2534 2758 2815 
Q 2500 3097 2075 3097 
Q 1594 3097 1305 2825 
Q 1016 2553 972 2059 
L 3022 2063 
z
" transform="scale(0.015625)"/>
       <path id="DejaVuSans-3" transform="scale(0.015625)"/>
       <path id="DejaVuSans-32" d="M 2522 4238 
Q 1834 4238 1429 3725 
Q 1025 3213 1025 2328 
Q 1025 1447 1429 934 
Q 1834 422 2522 422 
Q 3209 422 3611 934 
Q 4013 1447 4013 2328 
Q 4013 3213 3611 3725 
Q 3209 4238 2522 4238 
z
M 2522 4750 
Q 3503 4750 4090 4092 
Q 4678 3434 4678 2328 
Q 4678 1225 4090 567 
Q 3503 -91 2522 -91 
Q 1538 -91 948 565 
Q 359 1222 359 2328 
Q 359 3434 948 4092 
Q 1538 4750 2522 4750 
z
" transform="scale(0.015625)"/>
       <path id="DejaVuSans-59" d="M 191 3500 
L 800 3500 
L 1894 563 
L 2988 3500 
L 3597 3500 
L 2284 0 
L 1503 0 
L 191 3500 
z
" transform="scale(0.015625)"/>
       <path id="DejaVuSans-55" d="M 2631 2963 
Q 2534 3019 2420 3045 
Q 2306 3072 2169 3072 
Q 1681 3072 1420 2755 
Q 1159 2438 1159 1844 
L 1159 0 
L 581 0 
L 581 3500 
L 1159 3500 
L 1159 2956 
Q 1341 3275 1631 3429 
Q 1922 3584 2338 3584 
Q 2397 3584 2469 3576 
Q 2541 3569 2628 3553 
L 2631 2963 
z
" transform="scale(0.015625)"/>
       <path id="DejaVuSans-4b" d="M 3513 2113 
L 3513 0 
L 2938 0 
L 2938 2094 
Q 2938 2591 2744 2837 
Q 2550 3084 2163 3084 
Q 1697 3084 1428 2787 
Q 1159 2491 1159 1978 
L 1159 0 
L 581 0 
L 581 4863 
L 1159 4863 
L 1159 2956 
Q 1366 3272 1645 3428 
Q 1925 3584 2291 3584 
Q 2894 3584 3203 3211 
Q 3513 2838 3513 2113 
z
" transform="scale(0.015625)"/>
       <path id="DejaVuSans-44" d="M 2194 1759 
Q 1497 1759 1228 1600 
Q 959 1441 959 1056 
Q 959 750 1161 570 
Q 1363 391 1709 391 
Q 2188 391 2477 730 
Q 2766 1069 2766 1631 
L 2766 1759 
L 2194 1759 
z
M 3341 1997 
L 3341 0 
L 2766 0 
L 2766 531 
Q 2569 213 2275 61 
Q 1981 -91 1556 -91 
Q 1019 -91 701 211 
Q 384 513 384 1019 
Q 384 1609 779 1909 
Q 1175 2209 1959 2209 
L 2766 2209 
L 2766 2266 
Q 2766 2663 2505 2880 
Q 2244 3097 1772 3097 
Q 1472 3097 1187 3025 
Q 903 2953 641 2809 
L 641 3341 
Q 956 3463 1253 3523 
Q 1550 3584 1831 3584 
Q 2591 3584 2966 3190 
Q 3341 2797 3341 1997 
z
" transform="scale(0.015625)"/>
       <path id="DejaVuSans-47" d="M 2906 2969 
L 2906 4863 
L 3481 4863 
L 3481 0 
L 2906 0 
L 2906 525 
Q 2725 213 2448 61 
Q 2172 -91 1784 -91 
Q 1150 -91 751 415 
Q 353 922 353 1747 
Q 353 2572 751 3078 
Q 1150 3584 1784 3584 
Q 2172 3584 2448 3432 
Q 2725 3281 2906 2969 
z
M 947 1747 
Q 947 1113 1208 752 
Q 1469 391 1925 391 
Q 2381 391 2643 752 
Q 2906 1113 2906 1747 
Q 2906 2381 2643 2742 
Q 2381 3103 1925 3103 
Q 1469 3103 1208 2742 
Q 947 2381 947 1747 
z
" transform="scale(0.015625)"/>
       <path id="DejaVuSans-b" d="M 1984 4856 
Q 1566 4138 1362 3434 
Q 1159 2731 1159 2009 
Q 1159 1288 1364 580 
Q 1569 -128 1984 -844 
L 1484 -844 
Q 1016 -109 783 600 
Q 550 1309 550 2009 
Q 550 2706 781 3412 
Q 1013 4119 1484 4856 
L 1984 4856 
z
" transform="scale(0.015625)"/>
       <path id="DejaVuSans-8" d="M 4653 2053 
Q 4381 2053 4226 1822 
Q 4072 1591 4072 1178 
Q 4072 772 4226 539 
Q 4381 306 4653 306 
Q 4919 306 5073 539 
Q 5228 772 5228 1178 
Q 5228 1588 5073 1820 
Q 4919 2053 4653 2053 
z
M 4653 2450 
Q 5147 2450 5437 2106 
Q 5728 1763 5728 1178 
Q 5728 594 5436 251 
Q 5144 -91 4653 -91 
Q 4153 -91 3862 251 
Q 3572 594 3572 1178 
Q 3572 1766 3864 2108 
Q 4156 2450 4653 2450 
z
M 1428 4353 
Q 1159 4353 1004 4120 
Q 850 3888 850 3481 
Q 850 3069 1003 2837 
Q 1156 2606 1428 2606 
Q 1700 2606 1854 2837 
Q 2009 3069 2009 3481 
Q 2009 3884 1853 4118 
Q 1697 4353 1428 4353 
z
M 4250 4750 
L 4750 4750 
L 1831 -91 
L 1331 -91 
L 4250 4750 
z
M 1428 4750 
Q 1922 4750 2215 4408 
Q 2509 4066 2509 3481 
Q 2509 2891 2217 2550 
Q 1925 2209 1428 2209 
Q 931 2209 642 2551 
Q 353 2894 353 3481 
Q 353 4063 643 4406 
Q 934 4750 1428 4750 
z
" transform="scale(0.015625)"/>
       <path id="DejaVuSans-c" d="M 513 4856 
L 1013 4856 
Q 1481 4119 1714 3412 
Q 1947 2706 1947 2009 
Q 1947 1309 1714 600 
Q 1481 -109 1013 -844 
L 513 -844 
Q 928 -128 1133 580 
Q 1338 1288 1338 2009 
Q 1338 2731 1133 3434 
Q 928 4138 513 4856 
z
" transform="scale(0.015625)"/>
      </defs>
      <use xlink:href="#DejaVuSans-37"/>
      <use xlink:href="#DejaVuSans-4c" transform="translate(58 0)"/>
      <use xlink:href="#DejaVuSans-50" transform="translate(85.78125 0)"/>
      <use xlink:href="#DejaVuSans-48" transform="translate(183.1875 0)"/>
      <use xlink:href="#DejaVuSans-3" transform="translate(244.71875 0)"/>
      <use xlink:href="#DejaVuSans-32" transform="translate(276.5 0)"/>
      <use xlink:href="#DejaVuSans-59" transform="translate(355.21875 0)"/>
      <use xlink:href="#DejaVuSans-48" transform="translate(414.40625 0)"/>
      <use xlink:href="#DejaVuSans-55" transform="translate(475.9375 0)"/>
      <use xlink:href="#DejaVuSans-4b" transform="translate(515.296875 0)"/>
      <use xlink:href="#DejaVuSans-48" transform="translate(578.671875 0)"/>
      <use xlink:href="#DejaVuSans-44" transform="translate(640.203125 0)"/>
      <use xlink:href="#DejaVuSans-47" transform="translate(701.484375 0)"/>
      <use xlink:href="#DejaVuSans-3" transform="translate(764.96875 0)"/>
      <use xlink:href="#DejaVuSans-b" transform="translate(796.75 0)"/>
      <use xlink:href="#DejaVuSans-8" transform="translate(835.765625 0)"/>
      <use xlink:href="#DejaVuSans-c" transform="translate(930.78125 0)"/>
     </g>
    </g>
   </g>
   <g id="matplotlib.axis_2">
    <g id="ytick_1">
     <g id="line2d_8">
      <path d="M 75.438281 397.317188 
L 633.438281 397.317188 
" clip-path="url(#p2b6a743eea)" style="fill: none; stroke: #cccccc; stroke-opacity: 0.3; stroke-linecap: round"/>
     </g>
     <g id="text_9">
      <!-- 0.50 -->
      <g style="fill: #262626" transform="translate(29.2 403.585254) scale(0.165 -0.165)">
       <defs>
        <path id="DejaVuSans-11" d="M 684 794 
L 1344 794 
L 1344 0 
L 684 0 
L 684 794 
z
" transform="scale(0.015625)"/>
        <path id="DejaVuSans-18" d="M 691 4666 
L 3169 4666 
L 3169 4134 
L 1269 4134 
L 1269 2991 
Q 1406 3038 1543 3061 
Q 1681 3084 1819 3084 
Q 2600 3084 3056 2656 
Q 3513 2228 3513 1497 
Q 3513 744 3044 326 
Q 2575 -91 1722 -91 
Q 1428 -91 1123 -41 
Q 819 9 494 109 
L 494 744 
Q 775 591 1075 516 
Q 1375 441 1709 441 
Q 2250 441 2565 725 
Q 2881 1009 2881 1497 
Q 2881 1984 2565 2268 
Q 2250 2553 1709 2553 
Q 1456 2553 1204 2497 
Q 953 2441 691 2322 
L 691 4666 
z
" transform="scale(0.015625)"/>
       </defs>
       <use xlink:href="#DejaVuSans-13"/>
       <use xlink:href="#DejaVuSans-11" transform="translate(63.625 0)"/>
       <use xlink:href="#DejaVuSans-18" transform="translate(95.40625 0)"/>
       <use xlink:href="#DejaVuSans-13" transform="translate(159.03125 0)"/>
      </g>
     </g>
    </g>
    <g id="ytick_2">
     <g id="line2d_9">
      <path d="M 75.438281 336.384545 
L 633.438281 336.384545 
" clip-path="url(#p2b6a743eea)" style="fill: none; stroke: #cccccc; stroke-opacity: 0.3; stroke-linecap: round"/>
     </g>
     <g id="text_10">
      <!-- 0.52 -->
      <g style="fill: #262626" transform="translate(29.2 342.652611) scale(0.165 -0.165)">
       <use xlink:href="#DejaVuSans-13"/>
       <use xlink:href="#DejaVuSans-11" transform="translate(63.625 0)"/>
       <use xlink:href="#DejaVuSans-18" transform="translate(95.40625 0)"/>
       <use xlink:href="#DejaVuSans-15" transform="translate(159.03125 0)"/>
      </g>
     </g>
    </g>
    <g id="ytick_3">
     <g id="line2d_10">
      <path d="M 75.438281 275.451903 
L 633.438281 275.451903 
" clip-path="url(#p2b6a743eea)" style="fill: none; stroke: #cccccc; stroke-opacity: 0.3; stroke-linecap: round"/>
     </g>
     <g id="text_11">
      <!-- 0.54 -->
      <g style="fill: #262626" transform="translate(29.2 281.719969) scale(0.165 -0.165)">
       <use xlink:href="#DejaVuSans-13"/>
       <use xlink:href="#DejaVuSans-11" transform="translate(63.625 0)"/>
       <use xlink:href="#DejaVuSans-18" transform="translate(95.40625 0)"/>
       <use xlink:href="#DejaVuSans-17" transform="translate(159.03125 0)"/>
      </g>
     </g>
    </g>
    <g id="ytick_4">
     <g id="line2d_11">
      <path d="M 75.438281 214.51926 
L 633.438281 214.51926 
" clip-path="url(#p2b6a743eea)" style="fill: none; stroke: #cccccc; stroke-opacity: 0.3; stroke-linecap: round"/>
     </g>
     <g id="text_12">
      <!-- 0.56 -->
      <g style="fill: #262626" transform="translate(29.2 220.787326) scale(0.165 -0.165)">
       <use xlink:href="#DejaVuSans-13"/>
       <use xlink:href="#DejaVuSans-11" transform="translate(63.625 0)"/>
       <use xlink:href="#DejaVuSans-18" transform="translate(95.40625 0)"/>
       <use xlink:href="#DejaVuSans-19" transform="translate(159.03125 0)"/>
      </g>
     </g>
    </g>
    <g id="ytick_5">
     <g id="line2d_12">
      <path d="M 75.438281 153.586618 
L 633.438281 153.586618 
" clip-path="url(#p2b6a743eea)" style="fill: none; stroke: #cccccc; stroke-opacity: 0.3; stroke-linecap: round"/>
     </g>
     <g id="text_13">
      <!-- 0.58 -->
      <g style="fill: #262626" transform="translate(29.2 159.854684) scale(0.165 -0.165)">
       <use xlink:href="#DejaVuSans-13"/>
       <use xlink:href="#DejaVuSans-11" transform="translate(63.625 0)"/>
       <use xlink:href="#DejaVuSans-18" transform="translate(95.40625 0)"/>
       <use xlink:href="#DejaVuSans-1b" transform="translate(159.03125 0)"/>
      </g>
     </g>
    </g>
    <g id="ytick_6">
     <g id="line2d_13">
      <path d="M 75.438281 92.653975 
L 633.438281 92.653975 
" clip-path="url(#p2b6a743eea)" style="fill: none; stroke: #cccccc; stroke-opacity: 0.3; stroke-linecap: round"/>
     </g>
     <g id="text_14">
      <!-- 0.60 -->
      <g style="fill: #262626" transform="translate(29.2 98.922041) scale(0.165 -0.165)">
       <use xlink:href="#DejaVuSans-13"/>
       <use xlink:href="#DejaVuSans-11" transform="translate(63.625 0)"/>
       <use xlink:href="#DejaVuSans-19" transform="translate(95.40625 0)"/>
       <use xlink:href="#DejaVuSans-13" transform="translate(159.03125 0)"/>
      </g>
     </g>
    </g>
    <g id="ytick_7">
     <g id="line2d_14">
      <path d="M 75.438281 31.721333 
L 633.438281 31.721333 
" clip-path="url(#p2b6a743eea)" style="fill: none; stroke: #cccccc; stroke-opacity: 0.3; stroke-linecap: round"/>
     </g>
     <g id="text_15">
      <!-- 0.62 -->
      <g style="fill: #262626" transform="translate(29.2 37.989399) scale(0.165 -0.165)">
       <use xlink:href="#DejaVuSans-13"/>
       <use xlink:href="#DejaVuSans-11" transform="translate(63.625 0)"/>
       <use xlink:href="#DejaVuSans-19" transform="translate(95.40625 0)"/>
       <use xlink:href="#DejaVuSans-15" transform="translate(159.03125 0)"/>
      </g>
     </g>
    </g>
    <g id="text_16">
     <!-- Score -->
     <g style="fill: #262626" transform="translate(20.875781 246.125625) rotate(-90) scale(0.18 -0.18)">
      <defs>
       <path id="DejaVuSans-36" d="M 3425 4513 
L 3425 3897 
Q 3066 4069 2747 4153 
Q 2428 4238 2131 4238 
Q 1616 4238 1336 4038 
Q 1056 3838 1056 3469 
Q 1056 3159 1242 3001 
Q 1428 2844 1947 2747 
L 2328 2669 
Q 3034 2534 3370 2195 
Q 3706 1856 3706 1288 
Q 3706 609 3251 259 
Q 2797 -91 1919 -91 
Q 1588 -91 1214 -16 
Q 841 59 441 206 
L 441 856 
Q 825 641 1194 531 
Q 1563 422 1919 422 
Q 2459 422 2753 634 
Q 3047 847 3047 1241 
Q 3047 1584 2836 1778 
Q 2625 1972 2144 2069 
L 1759 2144 
Q 1053 2284 737 2584 
Q 422 2884 422 3419 
Q 422 4038 858 4394 
Q 1294 4750 2059 4750 
Q 2388 4750 2728 4690 
Q 3069 4631 3425 4513 
z
" transform="scale(0.015625)"/>
       <path id="DejaVuSans-46" d="M 3122 3366 
L 3122 2828 
Q 2878 2963 2633 3030 
Q 2388 3097 2138 3097 
Q 1578 3097 1268 2742 
Q 959 2388 959 1747 
Q 959 1106 1268 751 
Q 1578 397 2138 397 
Q 2388 397 2633 464 
Q 2878 531 3122 666 
L 3122 134 
Q 2881 22 2623 -34 
Q 2366 -91 2075 -91 
Q 1284 -91 818 406 
Q 353 903 353 1747 
Q 353 2603 823 3093 
Q 1294 3584 2113 3584 
Q 2378 3584 2631 3529 
Q 2884 3475 3122 3366 
z
" transform="scale(0.015625)"/>
       <path id="DejaVuSans-52" d="M 1959 3097 
Q 1497 3097 1228 2736 
Q 959 2375 959 1747 
Q 959 1119 1226 758 
Q 1494 397 1959 397 
Q 2419 397 2687 759 
Q 2956 1122 2956 1747 
Q 2956 2369 2687 2733 
Q 2419 3097 1959 3097 
z
M 1959 3584 
Q 2709 3584 3137 3096 
Q 3566 2609 3566 1747 
Q 3566 888 3137 398 
Q 2709 -91 1959 -91 
Q 1206 -91 779 398 
Q 353 888 353 1747 
Q 353 2609 779 3096 
Q 1206 3584 1959 3584 
z
" transform="scale(0.015625)"/>
      </defs>
      <use xlink:href="#DejaVuSans-36"/>
      <use xlink:href="#DejaVuSans-46" transform="translate(63.484375 0)"/>
      <use xlink:href="#DejaVuSans-52" transform="translate(118.46875 0)"/>
      <use xlink:href="#DejaVuSans-55" transform="translate(179.65625 0)"/>
      <use xlink:href="#DejaVuSans-48" transform="translate(218.5625 0)"/>
     </g>
    </g>
   </g>
   <g id="line2d_15">
    <path d="M 100.801918 397.317188 
L 101.681073 393.965892 
L 102.560229 393.356566 
L 102.560229 392.137913 
L 102.999806 391.528586 
L 103.439384 386.349312 
L 104.758117 381.4747 
L 106.076851 379.646721 
L 106.956006 378.123405 
L 107.395584 376.295426 
L 108.714317 369.897498 
L 108.714317 368.678846 
L 109.593473 368.069519 
L 110.912206 353.750348 
L 113.549672 344.915115 
L 114.868406 340.954493 
L 116.626717 334.861229 
L 118.385028 331.814597 
L 118.824605 330.900607 
L 120.143339 326.025996 
L 120.582917 324.807343 
L 121.90165 323.58869 
L 123.220383 316.581436 
L 124.539116 315.667447 
L 125.418272 313.839467 
L 125.85785 308.964856 
L 127.616161 308.355529 
L 128.934894 305.613561 
L 129.374472 301.652939 
L 130.693205 299.82496 
L 132.451516 298.91097 
L 133.330671 292.817706 
L 133.770249 290.3804 
L 138.166027 285.810452 
L 139.045182 280.021851 
L 140.803493 276.061229 
L 145.199271 274.537913 
L 145.199271 268.139985 
L 150.034626 257.476773 
L 152.232515 256.25812 
L 157.947026 245.290244 
L 159.265759 238.587654 
L 171.134358 228.533768 
L 172.013514 228.229105 
L 172.013514 221.831177 
L 183.442535 217.565892 
L 186.080002 210.558638 
L 186.51958 205.98869 
L 189.596624 202.637395 
L 195.750712 194.411488 
L 202.783956 189.536877 
L 204.10269 185.271592 
L 206.740156 182.22496 
L 213.333822 177.045685 
L 218.608755 171.86641 
L 227.839888 163.33584 
L 234.433555 155.109934 
L 244.543843 143.532732 
L 255.093709 137.744131 
L 256.412442 136.830141 
L 259.049909 135.916151 
L 266.522731 127.994908 
L 278.830908 125.862265 
L 279.270485 121.59698 
L 283.226685 119.464338 
L 294.216129 118.245685 
L 301.249373 117.331695 
L 310.040928 106.059156 
L 323.667839 103.926514 
L 333.338549 97.223923 
L 365.427725 95.395944 
L 368.504769 91.435322 
L 390.483657 87.170037 
L 391.362813 84.123405 
L 395.75859 82.295426 
L 414.220856 81.381436 
L 422.133255 74.069519 
L 442.79341 72.546203 
L 448.50792 64.929623 
L 469.168075 64.015633 
L 473.563852 61.578327 
L 473.563852 59.445685 
L 479.278363 57.617706 
L 489.828229 57.008379 
L 497.740629 55.1804 
L 499.059362 54.571074 
L 505.653028 52.438431 
L 513.12585 51.829105 
L 529.390227 50.001125 
L 531.148538 49.087136 
L 553.127426 47.868483 
L 561.039825 44.821851 
L 568.073069 44.517188 
" clip-path="url(#p2b6a743eea)" style="fill: none; stroke: #2563eb; stroke-width: 2; stroke-linecap: round"/>
    <defs>
     <path id="m747ba6bd2a" d="M 0 2 
C 0.530406 2 1.03916 1.789267 1.414214 1.414214 
C 1.789267 1.03916 2 0.530406 2 0 
C 2 -0.530406 1.789267 -1.03916 1.414214 -1.414214 
C 1.03916 -1.789267 0.530406 -2 0 -2 
C -0.530406 -2 -1.03916 -1.789267 -1.414214 -1.414214 
C -1.789267 -1.03916 -2 -0.530406 -2 0 
C -2 0.530406 -1.789267 1.03916 -1.414214 1.414214 
C -1.03916 1.789267 -0.530406 2 0 2 
z
" style="stroke: #2563eb"/>
    </defs>
    <g clip-path="url(#p2b6a743eea)">
     <use xlink:href="#m747ba6bd2a" x="100.801918" y="397.317188" style="fill: #2563eb; stroke: #2563eb"/>
     <use xlink:href="#m747ba6bd2a" x="101.681073" y="393.965892" style="fill: #2563eb; stroke: #2563eb"/>
     <use xlink:href="#m747ba6bd2a" x="102.560229" y="393.356566" style="fill: #2563eb; stroke: #2563eb"/>
     <use xlink:href="#m747ba6bd2a" x="102.560229" y="392.137913" style="fill: #2563eb; stroke: #2563eb"/>
     <use xlink:href="#m747ba6bd2a" x="102.999806" y="391.528586" style="fill: #2563eb; stroke: #2563eb"/>
     <use xlink:href="#m747ba6bd2a" x="103.439384" y="386.349312" style="fill: #2563eb; stroke: #2563eb"/>
     <use xlink:href="#m747ba6bd2a" x="104.758117" y="381.4747" style="fill: #2563eb; stroke: #2563eb"/>
     <use xlink:href="#m747ba6bd2a" x="106.076851" y="379.646721" style="fill: #2563eb; stroke: #2563eb"/>
     <use xlink:href="#m747ba6bd2a" x="106.956006" y="378.123405" style="fill: #2563eb; stroke: #2563eb"/>
     <use xlink:href="#m747ba6bd2a" x="107.395584" y="376.295426" style="fill: #2563eb; stroke: #2563eb"/>
     <use xlink:href="#m747ba6bd2a" x="108.714317" y="369.897498" style="fill: #2563eb; stroke: #2563eb"/>
     <use xlink:href="#m747ba6bd2a" x="108.714317" y="368.678846" style="fill: #2563eb; stroke: #2563eb"/>
     <use xlink:href="#m747ba6bd2a" x="109.593473" y="368.069519" style="fill: #2563eb; stroke: #2563eb"/>
     <use xlink:href="#m747ba6bd2a" x="110.912206" y="353.750348" style="fill: #2563eb; stroke: #2563eb"/>
     <use xlink:href="#m747ba6bd2a" x="113.549672" y="344.915115" style="fill: #2563eb; stroke: #2563eb"/>
     <use xlink:href="#m747ba6bd2a" x="114.868406" y="340.954493" style="fill: #2563eb; stroke: #2563eb"/>
     <use xlink:href="#m747ba6bd2a" x="116.626717" y="334.861229" style="fill: #2563eb; stroke: #2563eb"/>
     <use xlink:href="#m747ba6bd2a" x="118.385028" y="331.814597" style="fill: #2563eb; stroke: #2563eb"/>
     <use xlink:href="#m747ba6bd2a" x="118.824605" y="330.900607" style="fill: #2563eb; stroke: #2563eb"/>
     <use xlink:href="#m747ba6bd2a" x="120.143339" y="326.025996" style="fill: #2563eb; stroke: #2563eb"/>
     <use xlink:href="#m747ba6bd2a" x="120.582917" y="324.807343" style="fill: #2563eb; stroke: #2563eb"/>
     <use xlink:href="#m747ba6bd2a" x="121.90165" y="323.58869" style="fill: #2563eb; stroke: #2563eb"/>
     <use xlink:href="#m747ba6bd2a" x="123.220383" y="316.581436" style="fill: #2563eb; stroke: #2563eb"/>
     <use xlink:href="#m747ba6bd2a" x="124.539116" y="315.667447" style="fill: #2563eb; stroke: #2563eb"/>
     <use xlink:href="#m747ba6bd2a" x="125.418272" y="313.839467" style="fill: #2563eb; stroke: #2563eb"/>
     <use xlink:href="#m747ba6bd2a" x="125.85785" y="308.964856" style="fill: #2563eb; stroke: #2563eb"/>
     <use xlink:href="#m747ba6bd2a" x="127.616161" y="308.355529" style="fill: #2563eb; stroke: #2563eb"/>
     <use xlink:href="#m747ba6bd2a" x="128.934894" y="305.613561" style="fill: #2563eb; stroke: #2563eb"/>
     <use xlink:href="#m747ba6bd2a" x="129.374472" y="301.652939" style="fill: #2563eb; stroke: #2563eb"/>
     <use xlink:href="#m747ba6bd2a" x="130.693205" y="299.82496" style="fill: #2563eb; stroke: #2563eb"/>
     <use xlink:href="#m747ba6bd2a" x="132.451516" y="298.91097" style="fill: #2563eb; stroke: #2563eb"/>
     <use xlink:href="#m747ba6bd2a" x="133.330671" y="292.817706" style="fill: #2563eb; stroke: #2563eb"/>
     <use xlink:href="#m747ba6bd2a" x="133.770249" y="290.3804" style="fill: #2563eb; stroke: #2563eb"/>
     <use xlink:href="#m747ba6bd2a" x="138.166027" y="285.810452" style="fill: #2563eb; stroke: #2563eb"/>
     <use xlink:href="#m747ba6bd2a" x="139.045182" y="280.021851" style="fill: #2563eb; stroke: #2563eb"/>
     <use xlink:href="#m747ba6bd2a" x="140.803493" y="276.061229" style="fill: #2563eb; stroke: #2563eb"/>
     <use xlink:href="#m747ba6bd2a" x="145.199271" y="274.537913" style="fill: #2563eb; stroke: #2563eb"/>
     <use xlink:href="#m747ba6bd2a" x="145.199271" y="268.139985" style="fill: #2563eb; stroke: #2563eb"/>
     <use xlink:href="#m747ba6bd2a" x="150.034626" y="257.476773" style="fill: #2563eb; stroke: #2563eb"/>
     <use xlink:href="#m747ba6bd2a" x="152.232515" y="256.25812" style="fill: #2563eb; stroke: #2563eb"/>
     <use xlink:href="#m747ba6bd2a" x="157.947026" y="245.290244" style="fill: #2563eb; stroke: #2563eb"/>
     <use xlink:href="#m747ba6bd2a" x="159.265759" y="238.587654" style="fill: #2563eb; stroke: #2563eb"/>
     <use xlink:href="#m747ba6bd2a" x="171.134358" y="228.533768" style="fill: #2563eb; stroke: #2563eb"/>
     <use xlink:href="#m747ba6bd2a" x="172.013514" y="228.229105" style="fill: #2563eb; stroke: #2563eb"/>
     <use xlink:href="#m747ba6bd2a" x="172.013514" y="221.831177" style="fill: #2563eb; stroke: #2563eb"/>
     <use xlink:href="#m747ba6bd2a" x="183.442535" y="217.565892" style="fill: #2563eb; stroke: #2563eb"/>
     <use xlink:href="#m747ba6bd2a" x="186.080002" y="210.558638" style="fill: #2563eb; stroke: #2563eb"/>
     <use xlink:href="#m747ba6bd2a" x="186.51958" y="205.98869" style="fill: #2563eb; stroke: #2563eb"/>
     <use xlink:href="#m747ba6bd2a" x="189.596624" y="202.637395" style="fill: #2563eb; stroke: #2563eb"/>
     <use xlink:href="#m747ba6bd2a" x="195.750712" y="194.411488" style="fill: #2563eb; stroke: #2563eb"/>
     <use xlink:href="#m747ba6bd2a" x="202.783956" y="189.536877" style="fill: #2563eb; stroke: #2563eb"/>
     <use xlink:href="#m747ba6bd2a" x="204.10269" y="185.271592" style="fill: #2563eb; stroke: #2563eb"/>
     <use xlink:href="#m747ba6bd2a" x="206.740156" y="182.22496" style="fill: #2563eb; stroke: #2563eb"/>
     <use xlink:href="#m747ba6bd2a" x="213.333822" y="177.045685" style="fill: #2563eb; stroke: #2563eb"/>
     <use xlink:href="#m747ba6bd2a" x="218.608755" y="171.86641" style="fill: #2563eb; stroke: #2563eb"/>
     <use xlink:href="#m747ba6bd2a" x="227.839888" y="163.33584" style="fill: #2563eb; stroke: #2563eb"/>
     <use xlink:href="#m747ba6bd2a" x="234.433555" y="155.109934" style="fill: #2563eb; stroke: #2563eb"/>
     <use xlink:href="#m747ba6bd2a" x="244.543843" y="143.532732" style="fill: #2563eb; stroke: #2563eb"/>
     <use xlink:href="#m747ba6bd2a" x="255.093709" y="137.744131" style="fill: #2563eb; stroke: #2563eb"/>
     <use xlink:href="#m747ba6bd2a" x="256.412442" y="136.830141" style="fill: #2563eb; stroke: #2563eb"/>
     <use xlink:href="#m747ba6bd2a" x="259.049909" y="135.916151" style="fill: #2563eb; stroke: #2563eb"/>
     <use xlink:href="#m747ba6bd2a" x="266.522731" y="127.994908" style="fill: #2563eb; stroke: #2563eb"/>
     <use xlink:href="#m747ba6bd2a" x="278.830908" y="125.862265" style="fill: #2563eb; stroke: #2563eb"/>
     <use xlink:href="#m747ba6bd2a" x="279.270485" y="121.59698" style="fill: #2563eb; stroke: #2563eb"/>
     <use xlink:href="#m747ba6bd2a" x="283.226685" y="119.464338" style="fill: #2563eb; stroke: #2563eb"/>
     <use xlink:href="#m747ba6bd2a" x="294.216129" y="118.245685" style="fill: #2563eb; stroke: #2563eb"/>
     <use xlink:href="#m747ba6bd2a" x="301.249373" y="117.331695" style="fill: #2563eb; stroke: #2563eb"/>
     <use xlink:href="#m747ba6bd2a" x="310.040928" y="106.059156" style="fill: #2563eb; stroke: #2563eb"/>
     <use xlink:href="#m747ba6bd2a" x="323.667839" y="103.926514" style="fill: #2563eb; stroke: #2563eb"/>
     <use xlink:href="#m747ba6bd2a" x="333.338549" y="97.223923" style="fill: #2563eb; stroke: #2563eb"/>
     <use xlink:href="#m747ba6bd2a" x="365.427725" y="95.395944" style="fill: #2563eb; stroke: #2563eb"/>
     <use xlink:href="#m747ba6bd2a" x="368.504769" y="91.435322" style="fill: #2563eb; stroke: #2563eb"/>
     <use xlink:href="#m747ba6bd2a" x="390.483657" y="87.170037" style="fill: #2563eb; stroke: #2563eb"/>
     <use xlink:href="#m747ba6bd2a" x="391.362813" y="84.123405" style="fill: #2563eb; stroke: #2563eb"/>
     <use xlink:href="#m747ba6bd2a" x="395.75859" y="82.295426" style="fill: #2563eb; stroke: #2563eb"/>
     <use xlink:href="#m747ba6bd2a" x="414.220856" y="81.381436" style="fill: #2563eb; stroke: #2563eb"/>
     <use xlink:href="#m747ba6bd2a" x="422.133255" y="74.069519" style="fill: #2563eb; stroke: #2563eb"/>
     <use xlink:href="#m747ba6bd2a" x="442.79341" y="72.546203" style="fill: #2563eb; stroke: #2563eb"/>
     <use xlink:href="#m747ba6bd2a" x="448.50792" y="64.929623" style="fill: #2563eb; stroke: #2563eb"/>
     <use xlink:href="#m747ba6bd2a" x="469.168075" y="64.015633" style="fill: #2563eb; stroke: #2563eb"/>
     <use xlink:href="#m747ba6bd2a" x="473.563852" y="61.578327" style="fill: #2563eb; stroke: #2563eb"/>
     <use xlink:href="#m747ba6bd2a" x="473.563852" y="59.445685" style="fill: #2563eb; stroke: #2563eb"/>
     <use xlink:href="#m747ba6bd2a" x="479.278363" y="57.617706" style="fill: #2563eb; stroke: #2563eb"/>
     <use xlink:href="#m747ba6bd2a" x="489.828229" y="57.008379" style="fill: #2563eb; stroke: #2563eb"/>
     <use xlink:href="#m747ba6bd2a" x="497.740629" y="55.1804" style="fill: #2563eb; stroke: #2563eb"/>
     <use xlink:href="#m747ba6bd2a" x="499.059362" y="54.571074" style="fill: #2563eb; stroke: #2563eb"/>
     <use xlink:href="#m747ba6bd2a" x="505.653028" y="52.438431" style="fill: #2563eb; stroke: #2563eb"/>
     <use xlink:href="#m747ba6bd2a" x="513.12585" y="51.829105" style="fill: #2563eb; stroke: #2563eb"/>
     <use xlink:href="#m747ba6bd2a" x="529.390227" y="50.001125" style="fill: #2563eb; stroke: #2563eb"/>
     <use xlink:href="#m747ba6bd2a" x="531.148538" y="49.087136" style="fill: #2563eb; stroke: #2563eb"/>
     <use xlink:href="#m747ba6bd2a" x="553.127426" y="47.868483" style="fill: #2563eb; stroke: #2563eb"/>
     <use xlink:href="#m747ba6bd2a" x="561.039825" y="44.821851" style="fill: #2563eb; stroke: #2563eb"/>
     <use xlink:href="#m747ba6bd2a" x="568.073069" y="44.517188" style="fill: #2563eb; stroke: #2563eb"/>
    </g>
   </g>
   <g id="line2d_16">
    <path d="M 100.801918 397.317188 
L 101.681073 393.965892 
L 101.681073 393.051903 
L 102.120651 392.137913 
L 102.999806 388.177291 
L 102.999806 387.872628 
L 103.878962 385.739985 
L 104.31854 384.825996 
L 104.758117 384.216669 
L 105.197695 383.30268 
L 106.516428 381.779364 
L 106.956006 379.951384 
L 107.395584 379.342058 
L 108.274739 376.295426 
L 110.03305 375.990763 
L 110.472628 372.334804 
L 111.351784 371.116151 
L 111.791361 363.194908 
L 112.670517 361.671592 
L 113.110095 349.789726 
L 113.549672 347.047757 
L 116.187139 343.391799 
L 117.066294 337.603198 
L 119.703761 331.509934 
L 120.582917 327.549312 
L 124.978694 325.112006 
L 125.418272 314.448794 
L 129.814049 304.699571 
L 135.52856 292.817706 
L 140.363915 283.068483 
L 143.44096 276.670555 
L 146.078426 273.623923 
L 150.034626 272.100607 
L 150.913781 269.053975 
L 153.551248 266.921333 
L 154.869981 266.007343 
L 158.826181 260.523405 
L 161.903225 259.304752 
L 165.859425 256.867447 
L 167.617736 253.211488 
L 170.255203 252.602162 
L 174.211402 250.469519 
L 174.65098 250.164856 
L 181.244646 248.64154 
L 182.123802 247.118224 
L 183.882113 246.813561 
L 183.882113 246.204234 
L 184.761268 244.376255 
L 185.640424 242.548276 
L 186.080002 241.938949 
L 186.959157 241.329623 
L 191.354935 240.720296 
L 191.354935 238.587654 
L 193.552824 235.541022 
L 196.19029 235.236358 
L 196.629868 234.931695 
L 198.388179 232.799053 
L 200.586068 229.143094 
L 205.421423 228.533768 
L 206.740156 228.229105 
L 211.135934 223.659156 
L 212.454667 222.13584 
L 212.454667 221.221851 
L 215.971289 220.612524 
L 220.367067 218.784545 
L 223.004533 216.956566 
L 223.444111 216.347239 
L 224.762844 216.042576 
L 226.081577 214.823923 
L 226.081577 213.300607 
L 238.829332 209.644649 
L 238.829332 209.339985 
L 253.774976 208.425996 
L 254.214554 207.512006 
L 254.214554 206.90268 
L 254.654131 206.293353 
L 254.654131 205.98869 
L 595.766468 205.684027 
L 603.23929 203.856048 
L 607.195489 201.723405 
" clip-path="url(#p2b6a743eea)" style="fill: none; stroke: #dc2626; stroke-width: 2; stroke-linecap: round"/>
    <defs>
     <path id="mf89d027973" d="M 0 2 
C 0.530406 2 1.03916 1.789267 1.414214 1.414214 
C 1.789267 1.03916 2 0.530406 2 0 
C 2 -0.530406 1.789267 -1.03916 1.414214 -1.414214 
C 1.03916 -1.789267 0.530406 -2 0 -2 
C -0.530406 -2 -1.03916 -1.789267 -1.414214 -1.414214 
C -1.789267 -1.03916 -2 -0.530406 -2 0 
C -2 0.530406 -1.789267 1.03916 -1.414214 1.414214 
C -1.03916 1.789267 -0.530406 2 0 2 
z
" style="stroke: #dc2626"/>
    </defs>
    <g clip-path="url(#p2b6a743eea)">
     <use xlink:href="#mf89d027973" x="100.801918" y="397.317188" style="fill: #dc2626; stroke: #dc2626"/>
     <use xlink:href="#mf89d027973" x="101.681073" y="393.965892" style="fill: #dc2626; stroke: #dc2626"/>
     <use xlink:href="#mf89d027973" x="101.681073" y="393.051903" style="fill: #dc2626; stroke: #dc2626"/>
     <use xlink:href="#mf89d027973" x="102.120651" y="392.137913" style="fill: #dc2626; stroke: #dc2626"/>
     <use xlink:href="#mf89d027973" x="102.999806" y="388.177291" style="fill: #dc2626; stroke: #dc2626"/>
     <use xlink:href="#mf89d027973" x="102.999806" y="387.872628" style="fill: #dc2626; stroke: #dc2626"/>
     <use xlink:href="#mf89d027973" x="103.878962" y="385.739985" style="fill: #dc2626; stroke: #dc2626"/>
     <use xlink:href="#mf89d027973" x="104.31854" y="384.825996" style="fill: #dc2626; stroke: #dc2626"/>
     <use xlink:href="#mf89d027973" x="104.758117" y="384.216669" style="fill: #dc2626; stroke: #dc2626"/>
     <use xlink:href="#mf89d027973" x="105.197695" y="383.30268" style="fill: #dc2626; stroke: #dc2626"/>
     <use xlink:href="#mf89d027973" x="106.516428" y="381.779364" style="fill: #dc2626; stroke: #dc2626"/>
     <use xlink:href="#mf89d027973" x="106.956006" y="379.951384" style="fill: #dc2626; stroke: #dc2626"/>
     <use xlink:href="#mf89d027973" x="107.395584" y="379.342058" style="fill: #dc2626; stroke: #dc2626"/>
     <use xlink:href="#mf89d027973" x="108.274739" y="376.295426" style="fill: #dc2626; stroke: #dc2626"/>
     <use xlink:href="#mf89d027973" x="110.03305" y="375.990763" style="fill: #dc2626; stroke: #dc2626"/>
     <use xlink:href="#mf89d027973" x="110.472628" y="372.334804" style="fill: #dc2626; stroke: #dc2626"/>
     <use xlink:href="#mf89d027973" x="111.351784" y="371.116151" style="fill: #dc2626; stroke: #dc2626"/>
     <use xlink:href="#mf89d027973" x="111.791361" y="363.194908" style="fill: #dc2626; stroke: #dc2626"/>
     <use xlink:href="#mf89d027973" x="112.670517" y="361.671592" style="fill: #dc2626; stroke: #dc2626"/>
     <use xlink:href="#mf89d027973" x="113.110095" y="349.789726" style="fill: #dc2626; stroke: #dc2626"/>
     <use xlink:href="#mf89d027973" x="113.549672" y="347.047757" style="fill: #dc2626; stroke: #dc2626"/>
     <use xlink:href="#mf89d027973" x="116.187139" y="343.391799" style="fill: #dc2626; stroke: #dc2626"/>
     <use xlink:href="#mf89d027973" x="117.066294" y="337.603198" style="fill: #dc2626; stroke: #dc2626"/>
     <use xlink:href="#mf89d027973" x="119.703761" y="331.509934" style="fill: #dc2626; stroke: #dc2626"/>
     <use xlink:href="#mf89d027973" x="120.582917" y="327.549312" style="fill: #dc2626; stroke: #dc2626"/>
     <use xlink:href="#mf89d027973" x="124.978694" y="325.112006" style="fill: #dc2626; stroke: #dc2626"/>
     <use xlink:href="#mf89d027973" x="125.418272" y="314.448794" style="fill: #dc2626; stroke: #dc2626"/>
     <use xlink:href="#mf89d027973" x="129.814049" y="304.699571" style="fill: #dc2626; stroke: #dc2626"/>
     <use xlink:href="#mf89d027973" x="135.52856" y="292.817706" style="fill: #dc2626; stroke: #dc2626"/>
     <use xlink:href="#mf89d027973" x="140.363915" y="283.068483" style="fill: #dc2626; stroke: #dc2626"/>
     <use xlink:href="#mf89d027973" x="143.44096" y="276.670555" style="fill: #dc2626; stroke: #dc2626"/>
     <use xlink:href="#mf89d027973" x="146.078426" y="273.623923" style="fill: #dc2626; stroke: #dc2626"/>
     <use xlink:href="#mf89d027973" x="150.034626" y="272.100607" style="fill: #dc2626; stroke: #dc2626"/>
     <use xlink:href="#mf89d027973" x="150.913781" y="269.053975" style="fill: #dc2626; stroke: #dc2626"/>
     <use xlink:href="#mf89d027973" x="153.551248" y="266.921333" style="fill: #dc2626; stroke: #dc2626"/>
     <use xlink:href="#mf89d027973" x="154.869981" y="266.007343" style="fill: #dc2626; stroke: #dc2626"/>
     <use xlink:href="#mf89d027973" x="158.826181" y="260.523405" style="fill: #dc2626; stroke: #dc2626"/>
     <use xlink:href="#mf89d027973" x="161.903225" y="259.304752" style="fill: #dc2626; stroke: #dc2626"/>
     <use xlink:href="#mf89d027973" x="165.859425" y="256.867447" style="fill: #dc2626; stroke: #dc2626"/>
     <use xlink:href="#mf89d027973" x="167.617736" y="253.211488" style="fill: #dc2626; stroke: #dc2626"/>
     <use xlink:href="#mf89d027973" x="170.255203" y="252.602162" style="fill: #dc2626; stroke: #dc2626"/>
     <use xlink:href="#mf89d027973" x="174.211402" y="250.469519" style="fill: #dc2626; stroke: #dc2626"/>
     <use xlink:href="#mf89d027973" x="174.65098" y="250.164856" style="fill: #dc2626; stroke: #dc2626"/>
     <use xlink:href="#mf89d027973" x="181.244646" y="248.64154" style="fill: #dc2626; stroke: #dc2626"/>
     <use xlink:href="#mf89d027973" x="182.123802" y="247.118224" style="fill: #dc2626; stroke: #dc2626"/>
     <use xlink:href="#mf89d027973" x="183.882113" y="246.813561" style="fill: #dc2626; stroke: #dc2626"/>
     <use xlink:href="#mf89d027973" x="183.882113" y="246.204234" style="fill: #dc2626; stroke: #dc2626"/>
     <use xlink:href="#mf89d027973" x="184.761268" y="244.376255" style="fill: #dc2626; stroke: #dc2626"/>
     <use xlink:href="#mf89d027973" x="185.640424" y="242.548276" style="fill: #dc2626; stroke: #dc2626"/>
     <use xlink:href="#mf89d027973" x="186.080002" y="241.938949" style="fill: #dc2626; stroke: #dc2626"/>
     <use xlink:href="#mf89d027973" x="186.959157" y="241.329623" style="fill: #dc2626; stroke: #dc2626"/>
     <use xlink:href="#mf89d027973" x="191.354935" y="240.720296" style="fill: #dc2626; stroke: #dc2626"/>
     <use xlink:href="#mf89d027973" x="191.354935" y="238.587654" style="fill: #dc2626; stroke: #dc2626"/>
     <use xlink:href="#mf89d027973" x="193.552824" y="235.541022" style="fill: #dc2626; stroke: #dc2626"/>
     <use xlink:href="#mf89d027973" x="196.19029" y="235.236358" style="fill: #dc2626; stroke: #dc2626"/>
     <use xlink:href="#mf89d027973" x="196.629868" y="234.931695" style="fill: #dc2626; stroke: #dc2626"/>
     <use xlink:href="#mf89d027973" x="198.388179" y="232.799053" style="fill: #dc2626; stroke: #dc2626"/>
     <use xlink:href="#mf89d027973" x="200.586068" y="229.143094" style="fill: #dc2626; stroke: #dc2626"/>
     <use xlink:href="#mf89d027973" x="205.421423" y="228.533768" style="fill: #dc2626; stroke: #dc2626"/>
     <use xlink:href="#mf89d027973" x="206.740156" y="228.229105" style="fill: #dc2626; stroke: #dc2626"/>
     <use xlink:href="#mf89d027973" x="211.135934" y="223.659156" style="fill: #dc2626; stroke: #dc2626"/>
     <use xlink:href="#mf89d027973" x="212.454667" y="222.13584" style="fill: #dc2626; stroke: #dc2626"/>
     <use xlink:href="#mf89d027973" x="212.454667" y="221.221851" style="fill: #dc2626; stroke: #dc2626"/>
     <use xlink:href="#mf89d027973" x="215.971289" y="220.612524" style="fill: #dc2626; stroke: #dc2626"/>
     <use xlink:href="#mf89d027973" x="220.367067" y="218.784545" style="fill: #dc2626; stroke: #dc2626"/>
     <use xlink:href="#mf89d027973" x="223.004533" y="216.956566" style="fill: #dc2626; stroke: #dc2626"/>
     <use xlink:href="#mf89d027973" x="223.444111" y="216.347239" style="fill: #dc2626; stroke: #dc2626"/>
     <use xlink:href="#mf89d027973" x="224.762844" y="216.042576" style="fill: #dc2626; stroke: #dc2626"/>
     <use xlink:href="#mf89d027973" x="226.081577" y="214.823923" style="fill: #dc2626; stroke: #dc2626"/>
     <use xlink:href="#mf89d027973" x="226.081577" y="213.300607" style="fill: #dc2626; stroke: #dc2626"/>
     <use xlink:href="#mf89d027973" x="238.829332" y="209.644649" style="fill: #dc2626; stroke: #dc2626"/>
     <use xlink:href="#mf89d027973" x="238.829332" y="209.339985" style="fill: #dc2626; stroke: #dc2626"/>
     <use xlink:href="#mf89d027973" x="253.774976" y="208.425996" style="fill: #dc2626; stroke: #dc2626"/>
     <use xlink:href="#mf89d027973" x="254.214554" y="207.512006" style="fill: #dc2626; stroke: #dc2626"/>
     <use xlink:href="#mf89d027973" x="254.214554" y="206.90268" style="fill: #dc2626; stroke: #dc2626"/>
     <use xlink:href="#mf89d027973" x="254.654131" y="206.293353" style="fill: #dc2626; stroke: #dc2626"/>
     <use xlink:href="#mf89d027973" x="254.654131" y="205.98869" style="fill: #dc2626; stroke: #dc2626"/>
     <use xlink:href="#mf89d027973" x="595.766468" y="205.684027" style="fill: #dc2626; stroke: #dc2626"/>
     <use xlink:href="#mf89d027973" x="603.23929" y="203.856048" style="fill: #dc2626; stroke: #dc2626"/>
     <use xlink:href="#mf89d027973" x="607.195489" y="201.723405" style="fill: #dc2626; stroke: #dc2626"/>
    </g>
   </g>
   <g id="patch_3">
    <path d="M 75.438281 414.957188 
L 75.438281 26.877188 
" style="fill: none; stroke: #cccccc; stroke-width: 1.25; stroke-linejoin: miter; stroke-linecap: square"/>
   </g>
   <g id="patch_4">
    <path d="M 633.438281 414.957188 
L 633.438281 26.877188 
" style="fill: none; stroke: #cccccc; stroke-width: 1.25; stroke-linejoin: miter; stroke-linecap: square"/>
   </g>
   <g id="patch_5">
    <path d="M 75.438281 414.957187 
L 633.438281 414.957187 
" style="fill: none; stroke: #cccccc; stroke-width: 1.25; stroke-linejoin: miter; stroke-linecap: square"/>
   </g>
   <g id="patch_6">
    <path d="M 75.438281 26.877187 
L 633.438281 26.877187 
" style="fill: none; stroke: #cccccc; stroke-width: 1.25; stroke-linejoin: miter; stroke-linecap: square"/>
   </g>
   <g id="text_17">
    <!-- Pareto Frontiers: Score vs Overhead — SE -->
    <g style="fill: #262626" transform="translate(166.857188 20.877187) scale(0.18 -0.18)">
     <defs>
      <path id="DejaVuSans-33" d="M 1259 4147 
L 1259 2394 
L 2053 2394 
Q 2494 2394 2734 2622 
Q 2975 2850 2975 3272 
Q 2975 3691 2734 3919 
Q 2494 4147 2053 4147 
L 1259 4147 
z
M 628 4666 
L 2053 4666 
Q 2838 4666 3239 4311 
Q 3641 3956 3641 3272 
Q 3641 2581 3239 2228 
Q 2838 1875 2053 1875 
L 1259 1875 
L 1259 0 
L 628 0 
L 628 4666 
z
" transform="scale(0.015625)"/>
      <path id="DejaVuSans-57" d="M 1172 4494 
L 1172 3500 
L 2356 3500 
L 2356 3053 
L 1172 3053 
L 1172 1153 
Q 1172 725 1289 603 
Q 1406 481 1766 481 
L 2356 481 
L 2356 0 
L 1766 0 
Q 1100 0 847 248 
Q 594 497 594 1153 
L 594 3053 
L 172 3053 
L 172 3500 
L 594 3500 
L 594 4494 
L 1172 4494 
z
" transform="scale(0.015625)"/>
      <path id="DejaVuSans-29" d="M 628 4666 
L 3309 4666 
L 3309 4134 
L 1259 4134 
L 1259 2759 
L 3109 2759 
L 3109 2228 
L 1259 2228 
L 1259 0 
L 628 0 
L 628 4666 
z
" transform="scale(0.015625)"/>
      <path id="DejaVuSans-51" d="M 3513 2113 
L 3513 0 
L 2938 0 
L 2938 2094 
Q 2938 2591 2744 2837 
Q 2550 3084 2163 3084 
Q 1697 3084 1428 2787 
Q 1159 2491 1159 1978 
L 1159 0 
L 581 0 
L 581 3500 
L 1159 3500 
L 1159 2956 
Q 1366 3272 1645 3428 
Q 1925 3584 2291 3584 
Q 2894 3584 3203 3211 
Q 3513 2838 3513 2113 
z
" transform="scale(0.015625)"/>
      <path id="DejaVuSans-56" d="M 2834 3397 
L 2834 2853 
Q 2591 2978 2328 3040 
Q 2066 3103 1784 3103 
Q 1356 3103 1142 2972 
Q 928 2841 928 2578 
Q 928 2378 1081 2264 
Q 1234 2150 1697 2047 
L 1894 2003 
Q 2506 1872 2764 1633 
Q 3022 1394 3022 966 
Q 3022 478 2636 193 
Q 2250 -91 1575 -91 
Q 1294 -91 989 -36 
Q 684 19 347 128 
L 347 722 
Q 666 556 975 473 
Q 1284 391 1588 391 
Q 1994 391 2212 530 
Q 2431 669 2431 922 
Q 2431 1156 2273 1281 
Q 2116 1406 1581 1522 
L 1381 1569 
Q 847 1681 609 1914 
Q 372 2147 372 2553 
Q 372 3047 722 3315 
Q 1072 3584 1716 3584 
Q 2034 3584 2315 3537 
Q 2597 3491 2834 3397 
z
" transform="scale(0.015625)"/>
      <path id="DejaVuSans-1d" d="M 750 794 
L 1409 794 
L 1409 0 
L 750 0 
L 750 794 
z
M 750 3309 
L 1409 3309 
L 1409 2516 
L 750 2516 
L 750 3309 
z
" transform="scale(0.015625)"/>
      <path id="DejaVuSans-af6" d="M 313 1978 
L 6088 1978 
L 6088 1528 
L 313 1528 
L 313 1978 
z
" transform="scale(0.015625)"/>
      <path id="DejaVuSans-28" d="M 628 4666 
L 3578 4666 
L 3578 4134 
L 1259 4134 
L 1259 2753 
L 3481 2753 
L 3481 2222 
L 1259 2222 
L 1259 531 
L 3634 531 
L 3634 0 
L 628 0 
L 628 4666 
z
" transform="scale(0.015625)"/>
     </defs>
     <use xlink:href="#DejaVuSans-33"/>
     <use xlink:href="#DejaVuSans-44" transform="translate(55.8125 0)"/>
     <use xlink:href="#DejaVuSans-55" transform="translate(117.09375 0)"/>
     <use xlink:href="#DejaVuSans-48" transform="translate(156 0)"/>
     <use xlink:href="#DejaVuSans-57" transform="translate(217.53125 0)"/>
     <use xlink:href="#DejaVuSans-52" transform="translate(256.734375 0)"/>
     <use xlink:href="#DejaVuSans-3" transform="translate(317.921875 0)"/>
     <use xlink:href="#DejaVuSans-29" transform="translate(349.703125 0)"/>
     <use xlink:href="#DejaVuSans-55" transform="translate(399.9375 0)"/>
     <use xlink:href="#DejaVuSans-52" transform="translate(438.84375 0)"/>
     <use xlink:href="#DejaVuSans-51" transform="translate(500.03125 0)"/>
     <use xlink:href="#DejaVuSans-57" transform="translate(563.40625 0)"/>
     <use xlink:href="#DejaVuSans-4c" transform="translate(602.609375 0)"/>
     <use xlink:href="#DejaVuSans-48" transform="translate(630.390625 0)"/>
     <use xlink:href="#DejaVuSans-55" transform="translate(691.921875 0)"/>
     <use xlink:href="#DejaVuSans-56" transform="translate(733.03125 0)"/>
     <use xlink:href="#DejaVuSans-1d" transform="translate(785.125 0)"/>
     <use xlink:href="#DejaVuSans-3" transform="translate(818.8125 0)"/>
     <use xlink:href="#DejaVuSans-36" transform="translate(850.59375 0)"/>
     <use xlink:href="#DejaVuSans-46" transform="translate(914.078125 0)"/>
     <use xlink:href="#DejaVuSans-52" transform="translate(969.0625 0)"/>
     <use xlink:href="#DejaVuSans-55" transform="translate(1030.25 0)"/>
     <use xlink:href="#DejaVuSans-48" transform="translate(1069.15625 0)"/>
     <use xlink:href="#DejaVuSans-3" transform="translate(1130.6875 0)"/>
     <use xlink:href="#DejaVuSans-59" transform="translate(1162.46875 0)"/>
     <use xlink:href="#DejaVuSans-56" transform="translate(1221.65625 0)"/>
     <use xlink:href="#DejaVuSans-3" transform="translate(1273.75 0)"/>
     <use xlink:href="#DejaVuSans-32" transform="translate(1305.53125 0)"/>
     <use xlink:href="#DejaVuSans-59" transform="translate(1384.25 0)"/>
     <use xlink:href="#DejaVuSans-48" transform="translate(1443.4375 0)"/>
     <use xlink:href="#DejaVuSans-55" transform="translate(1504.96875 0)"/>
     <use xlink:href="#DejaVuSans-4b" transform="translate(1544.328125 0)"/>
     <use xlink:href="#DejaVuSans-48" transform="translate(1607.703125 0)"/>
     <use xlink:href="#DejaVuSans-44" transform="translate(1669.234375 0)"/>
     <use xlink:href="#DejaVuSans-47" transform="translate(1730.515625 0)"/>
     <use xlink:href="#DejaVuSans-3" transform="translate(1794 0)"/>
     <use xlink:href="#DejaVuSans-af6" transform="translate(1825.78125 0)"/>
     <use xlink:href="#DejaVuSans-3" transform="translate(1925.78125 0)"/>
     <use xlink:href="#DejaVuSans-36" transform="translate(1957.5625 0)"/>
     <use xlink:href="#DejaVuSans-28" transform="translate(2021.046875 0)"/>
    </g>
   </g>
   <g id="legend_1">
    <g id="patch_7">
     <path d="M 479.898281 410.457187 
L 627.138281 410.457187 
Q 628.938281 410.457187 628.938281 408.657187 
L 628.938281 355.554375 
Q 628.938281 353.754375 627.138281 353.754375 
L 479.898281 353.754375 
Q 478.098281 353.754375 478.098281 355.554375 
L 478.098281 408.657187 
Q 478.098281 410.457187 479.898281 410.457187 
z
" style="fill: #ffffff; opacity: 0.8; stroke: #cccccc; stroke-linejoin: miter"/>
    </g>
    <g id="line2d_17">
     <path d="M 481.698281 361.042969 
L 490.698281 361.042969 
L 499.698281 361.042969 
" style="fill: none; stroke: #2563eb; stroke-width: 2; stroke-linecap: round"/>
     <g>
      <use xlink:href="#m747ba6bd2a" x="490.698281" y="361.042969" style="fill: #2563eb; stroke: #2563eb"/>
     </g>
    </g>
    <g id="text_18">
     <!-- DeepSeek V3 frontier -->
     <g style="fill: #262626" transform="translate(506.898281 364.192969) scale(0.09 -0.09)">
      <defs>
       <path id="DejaVuSans-27" d="M 1259 4147 
L 1259 519 
L 2022 519 
Q 2988 519 3436 956 
Q 3884 1394 3884 2338 
Q 3884 3275 3436 3711 
Q 2988 4147 2022 4147 
L 1259 4147 
z
M 628 4666 
L 1925 4666 
Q 3281 4666 3915 4102 
Q 4550 3538 4550 2338 
Q 4550 1131 3912 565 
Q 3275 0 1925 0 
L 628 0 
L 628 4666 
z
" transform="scale(0.015625)"/>
       <path id="DejaVuSans-53" d="M 1159 525 
L 1159 -1331 
L 581 -1331 
L 581 3500 
L 1159 3500 
L 1159 2969 
Q 1341 3281 1617 3432 
Q 1894 3584 2278 3584 
Q 2916 3584 3314 3078 
Q 3713 2572 3713 1747 
Q 3713 922 3314 415 
Q 2916 -91 2278 -91 
Q 1894 -91 1617 61 
Q 1341 213 1159 525 
z
M 3116 1747 
Q 3116 2381 2855 2742 
Q 2594 3103 2138 3103 
Q 1681 3103 1420 2742 
Q 1159 2381 1159 1747 
Q 1159 1113 1420 752 
Q 1681 391 2138 391 
Q 2594 391 2855 752 
Q 3116 1113 3116 1747 
z
" transform="scale(0.015625)"/>
       <path id="DejaVuSans-4e" d="M 581 4863 
L 1159 4863 
L 1159 1991 
L 2875 3500 
L 3609 3500 
L 1753 1863 
L 3688 0 
L 2938 0 
L 1159 1709 
L 1159 0 
L 581 0 
L 581 4863 
z
" transform="scale(0.015625)"/>
       <path id="DejaVuSans-39" d="M 1831 0 
L 50 4666 
L 709 4666 
L 2188 738 
L 3669 4666 
L 4325 4666 
L 2547 0 
L 1831 0 
z
" transform="scale(0.015625)"/>
       <path id="DejaVuSans-16" d="M 2597 2516 
Q 3050 2419 3304 2112 
Q 3559 1806 3559 1356 
Q 3559 666 3084 287 
Q 2609 -91 1734 -91 
Q 1441 -91 1130 -33 
Q 819 25 488 141 
L 488 750 
Q 750 597 1062 519 
Q 1375 441 1716 441 
Q 2309 441 2620 675 
Q 2931 909 2931 1356 
Q 2931 1769 2642 2001 
Q 2353 2234 1838 2234 
L 1294 2234 
L 1294 2753 
L 1863 2753 
Q 2328 2753 2575 2939 
Q 2822 3125 2822 3475 
Q 2822 3834 2567 4026 
Q 2313 4219 1838 4219 
Q 1578 4219 1281 4162 
Q 984 4106 628 3988 
L 628 4550 
Q 988 4650 1302 4700 
Q 1616 4750 1894 4750 
Q 2613 4750 3031 4423 
Q 3450 4097 3450 3541 
Q 3450 3153 3228 2886 
Q 3006 2619 2597 2516 
z
" transform="scale(0.015625)"/>
       <path id="DejaVuSans-49" d="M 2375 4863 
L 2375 4384 
L 1825 4384 
Q 1516 4384 1395 4259 
Q 1275 4134 1275 3809 
L 1275 3500 
L 2222 3500 
L 2222 3053 
L 1275 3053 
L 1275 0 
L 697 0 
L 697 3053 
L 147 3053 
L 147 3500 
L 697 3500 
L 697 3744 
Q 697 4328 969 4595 
Q 1241 4863 1831 4863 
L 2375 4863 
z
" transform="scale(0.015625)"/>
      </defs>
      <use xlink:href="#DejaVuSans-27"/>
      <use xlink:href="#DejaVuSans-48" transform="translate(77 0)"/>
      <use xlink:href="#DejaVuSans-48" transform="translate(138.53125 0)"/>
      <use xlink:href="#DejaVuSans-53" transform="translate(200.0625 0)"/>
      <use xlink:href="#DejaVuSans-36" transform="translate(263.546875 0)"/>
      <use xlink:href="#DejaVuSans-48" transform="translate(327.03125 0)"/>
      <use xlink:href="#DejaVuSans-48" transform="translate(388.5625 0)"/>
      <use xlink:href="#DejaVuSans-4e" transform="translate(450.09375 0)"/>
      <use xlink:href="#DejaVuSans-3" transform="translate(508 0)"/>
      <use xlink:href="#DejaVuSans-39" transform="translate(539.78125 0)"/>
      <use xlink:href="#DejaVuSans-16" transform="translate(608.1875 0)"/>
      <use xlink:href="#DejaVuSans-3" transform="translate(671.8125 0)"/>
      <use xlink:href="#DejaVuSans-49" transform="translate(703.59375 0)"/>
      <use xlink:href="#DejaVuSans-55" transform="translate(738.796875 0)"/>
      <use xlink:href="#DejaVuSans-52" transform="translate(777.703125 0)"/>
      <use xlink:href="#DejaVuSans-51" transform="translate(838.890625 0)"/>
      <use xlink:href="#DejaVuSans-57" transform="translate(902.265625 0)"/>
      <use xlink:href="#DejaVuSans-4c" transform="translate(941.46875 0)"/>
      <use xlink:href="#DejaVuSans-48" transform="translate(969.25 0)"/>
      <use xlink:href="#DejaVuSans-55" transform="translate(1030.78125 0)"/>
     </g>
    </g>
    <g id="PathCollection_1">
     <defs>
      <path id="mf92c24498a" d="M 0 -7.071068 
L -1.587554 -2.18508 
L -6.724985 -2.18508 
L -2.568716 0.834626 
L -4.156269 5.720614 
L -0 2.700907 
L 4.156269 5.720614 
L 2.568716 0.834626 
L 6.724985 -2.18508 
L 1.587554 -2.18508 
z
" style="stroke: #000000"/>
     </defs>
     <g>
      <use xlink:href="#mf92c24498a" x="490.698281" y="375.331172" style="fill: #ff0000; stroke: #000000"/>
     </g>
    </g>
    <g id="text_19">
     <!-- DeepSeek V3 best (0.616) -->
     <g style="fill: #262626" transform="translate(506.898281 377.693672) scale(0.09 -0.09)">
      <defs>
       <path id="DejaVuSans-45" d="M 3116 1747 
Q 3116 2381 2855 2742 
Q 2594 3103 2138 3103 
Q 1681 3103 1420 2742 
Q 1159 2381 1159 1747 
Q 1159 1113 1420 752 
Q 1681 391 2138 391 
Q 2594 391 2855 752 
Q 3116 1113 3116 1747 
z
M 1159 2969 
Q 1341 3281 1617 3432 
Q 1894 3584 2278 3584 
Q 2916 3584 3314 3078 
Q 3713 2572 3713 1747 
Q 3713 922 3314 415 
Q 2916 -91 2278 -91 
Q 1894 -91 1617 61 
Q 1341 213 1159 525 
L 1159 0 
L 581 0 
L 581 4863 
L 1159 4863 
L 1159 2969 
z
" transform="scale(0.015625)"/>
      </defs>
      <use xlink:href="#DejaVuSans-27"/>
      <use xlink:href="#DejaVuSans-48" transform="translate(77 0)"/>
      <use xlink:href="#DejaVuSans-48" transform="translate(138.53125 0)"/>
      <use xlink:href="#DejaVuSans-53" transform="translate(200.0625 0)"/>
      <use xlink:href="#DejaVuSans-36" transform="translate(263.546875 0)"/>
      <use xlink:href="#DejaVuSans-48" transform="translate(327.03125 0)"/>
      <use xlink:href="#DejaVuSans-48" transform="translate(388.5625 0)"/>
      <use xlink:href="#DejaVuSans-4e" transform="translate(450.09375 0)"/>
      <use xlink:href="#DejaVuSans-3" transform="translate(508 0)"/>
      <use xlink:href="#DejaVuSans-39" transform="translate(539.78125 0)"/>
      <use xlink:href="#DejaVuSans-16" transform="translate(608.1875 0)"/>
      <use xlink:href="#DejaVuSans-3" transform="translate(671.8125 0)"/>
      <use xlink:href="#DejaVuSans-45" transform="translate(703.59375 0)"/>
      <use xlink:href="#DejaVuSans-48" transform="translate(767.078125 0)"/>
      <use xlink:href="#DejaVuSans-56" transform="translate(828.609375 0)"/>
      <use xlink:href="#DejaVuSans-57" transform="translate(880.703125 0)"/>
      <use xlink:href="#DejaVuSans-3" transform="translate(919.90625 0)"/>
      <use xlink:href="#DejaVuSans-b" transform="translate(951.6875 0)"/>
      <use xlink:href="#DejaVuSans-13" transform="translate(990.703125 0)"/>
      <use xlink:href="#DejaVuSans-11" transform="translate(1054.328125 0)"/>
      <use xlink:href="#DejaVuSans-19" transform="translate(1086.109375 0)"/>
      <use xlink:href="#DejaVuSans-14" transform="translate(1149.734375 0)"/>
      <use xlink:href="#DejaVuSans-19" transform="translate(1213.359375 0)"/>
      <use xlink:href="#DejaVuSans-c" transform="translate(1276.984375 0)"/>
     </g>
    </g>
    <g id="line2d_18">
     <path d="M 481.698281 388.044375 
L 490.698281 388.044375 
L 499.698281 388.044375 
" style="fill: none; stroke: #dc2626; stroke-width: 2; stroke-linecap: round"/>
     <g>
      <use xlink:href="#mf89d027973" x="490.698281" y="388.044375" style="fill: #dc2626; stroke: #dc2626"/>
     </g>
    </g>
    <g id="text_20">
     <!-- Kimi K2 frontier -->
     <g style="fill: #262626" transform="translate(506.898281 391.194375) scale(0.09 -0.09)">
      <defs>
       <path id="DejaVuSans-2e" d="M 628 4666 
L 1259 4666 
L 1259 2694 
L 3353 4666 
L 4166 4666 
L 1850 2491 
L 4331 0 
L 3500 0 
L 1259 2247 
L 1259 0 
L 628 0 
L 628 4666 
z
" transform="scale(0.015625)"/>
      </defs>
      <use xlink:href="#DejaVuSans-2e"/>
      <use xlink:href="#DejaVuSans-4c" transform="translate(65.578125 0)"/>
      <use xlink:href="#DejaVuSans-50" transform="translate(93.359375 0)"/>
      <use xlink:href="#DejaVuSans-4c" transform="translate(190.765625 0)"/>
      <use xlink:href="#DejaVuSans-3" transform="translate(218.546875 0)"/>
      <use xlink:href="#DejaVuSans-2e" transform="translate(250.328125 0)"/>
      <use xlink:href="#DejaVuSans-15" transform="translate(315.90625 0)"/>
      <use xlink:href="#DejaVuSans-3" transform="translate(379.53125 0)"/>
      <use xlink:href="#DejaVuSans-49" transform="translate(411.3125 0)"/>
      <use xlink:href="#DejaVuSans-55" transform="translate(446.515625 0)"/>
      <use xlink:href="#DejaVuSans-52" transform="translate(485.421875 0)"/>
      <use xlink:href="#DejaVuSans-51" transform="translate(546.609375 0)"/>
      <use xlink:href="#DejaVuSans-57" transform="translate(609.984375 0)"/>
      <use xlink:href="#DejaVuSans-4c" transform="translate(649.1875 0)"/>
      <use xlink:href="#DejaVuSans-48" transform="translate(676.96875 0)"/>
      <use xlink:href="#DejaVuSans-55" transform="translate(738.5 0)"/>
     </g>
    </g>
    <g id="PathCollection_2">
     <g>
      <use xlink:href="#mf92c24498a" x="490.698281" y="402.332578" style="fill: #ff0000; stroke: #000000"/>
     </g>
    </g>
    <g id="text_21">
     <!-- Kimi K2 best (0.564) -->
     <g style="fill: #262626" transform="translate(506.898281 404.695078) scale(0.09 -0.09)">
      <use xlink:href="#DejaVuSans-2e"/>
      <use xlink:href="#DejaVuSans-4c" transform="translate(65.578125 0)"/>
      <use xlink:href="#DejaVuSans-50" transform="translate(93.359375 0)"/>
      <use xlink:href="#DejaVuSans-4c" transform="translate(190.765625 0)"/>
      <use xlink:href="#DejaVuSans-3" transform="translate(218.546875 0)"/>
      <use xlink:href="#DejaVuSans-2e" transform="translate(250.328125 0)"/>
      <use xlink:href="#DejaVuSans-15" transform="translate(315.90625 0)"/>
      <use xlink:href="#DejaVuSans-3" transform="translate(379.53125 0)"/>
      <use xlink:href="#DejaVuSans-45" transform="translate(411.3125 0)"/>
      <use xlink:href="#DejaVuSans-48" transform="translate(474.796875 0)"/>
      <use xlink:href="#DejaVuSans-56" transform="translate(536.328125 0)"/>
      <use xlink:href="#DejaVuSans-57" transform="translate(588.421875 0)"/>
      <use xlink:href="#DejaVuSans-3" transform="translate(627.625 0)"/>
      <use xlink:href="#DejaVuSans-b" transform="translate(659.40625 0)"/>
      <use xlink:href="#DejaVuSans-13" transform="translate(698.421875 0)"/>
      <use xlink:href="#DejaVuSans-11" transform="translate(762.046875 0)"/>
      <use xlink:href="#DejaVuSans-18" transform="translate(793.828125 0)"/>
      <use xlink:href="#DejaVuSans-19" transform="translate(857.453125 0)"/>
      <use xlink:href="#DejaVuSans-17" transform="translate(921.078125 0)"/>
      <use xlink:href="#DejaVuSans-c" transform="translate(984.703125 0)"/>
     </g>
    </g>
   </g>
   <g id="PathCollection_3">
    <g clip-path="url(#p2b6a743eea)">
     <use xlink:href="#mf92c24498a" x="568.073069" y="44.517188" style="fill: #ff0000; stroke: #000000"/>
    </g>
   </g>
   <g id="PathCollection_4">
    <g clip-path="url(#p2b6a743eea)">
     <use xlink:href="#mf92c24498a" x="608.074645" y="201.723405" style="fill: #ff0000; stroke: #000000"/>
    </g>
   </g>
  </g>
 </g>
 <defs>
  <clipPath id="p2b6a743eea">
   <rect x="75.438281" y="26.877187" width="558" height="388.08"/>
  </clipPath>
 </defs>
</svg>
