<?xml version="1.0" encoding="utf-8" standalone="no"?>
<!DOCTYPE svg PUBLIC "-//W3C//DTD SVG 1.1//EN"
  "http://www.w3.org/Graphics/SVG/1.1/DTD/svg11.dtd">
<svg xmlns:xlink="http://www.w3.org/1999/xlink" width="640.638281pt" height="470.158594pt" viewBox="0 0 640.638281 470.158594" xmlns="http://www.w3.org/2000/svg" version="1.1">
 <metadata>
  <rdf:RDF xmlns:dc="http://purl.org/dc/elements/1.1/" xmlns:cc="http://creativecommons.org/ns#" xmlns:rdf="http://www.w3.org/1999/02/22-rdf-syntax-ns#">
   <cc:Work>
    <dc:type rdf:resource="http://purl.org/dc/dcmitype/StillImage"/>
    <dc:date>2026-07-22T22:27:51.234566</dc:date>
    <dc:format>image/svg+xml</dc:format>
    <dc:creator>
     <cc:Agent>
      <dc:title>Matplotlib v3.11.0, https://matplotlib.org/</dc:title>
     </cc:Agent>
    </dc:creator>
   </cc:Work>
  </rdf:RDF>
 </metadata>
 <defs>
  <style type="text/css">*{stroke-linejoin: round; stroke-linecap: butt}</style>
 </defs>
 <g id="figure_1">
  <g id="patch_1">
   <path d="M 0 470.158594 
L 640.638281 470.158594 
L 640.638281 0 
L 0 0 
z
" style="fill: #ffffff"/>
  </g>
  <g id="axes_1">
   <g id="patch_2">
    <path d="M 75.438281 414.957187 
L 633.438281 414.957187 
L 633.438281 26.877187 
L 75.438281 26.877187 
z
" style="fill: #ffffff"/>
   </g>
   <g id="matplotlib.axis_1">
    <g id="xtick_1">
     <g id="line2d_1">
      <path d="M 100.801918 414.957187 
L 100.801918 26.877187 
" clip-path="url(#p99fe0636c2)" style="fill: none; stroke: #cccccc; stroke-opacity: 0.3; stroke-linecap: round"/>
     </g>
     <g id="text_1">
      <!-- 0 -->
      <g style="fill: #262626" transform="translate(95.552855 436.99332) scale(0.165 -0.165)">
       <defs>
        <path id="DejaVuSans-13" d="M 2034 4250 
Q 1547 4250 1301 3770 
Q 1056 3291 1056 2328 
Q 1056 1369 1301 889 
Q 1547 409 2034 409 
Q 2525 409 2770 889 
Q 3016 1369 3016 2328 
Q 3016 3291 2770 3770 
Q 2525 4250 2034 4250 
z
M 2034 4750 
Q 2819 4750 3233 4129 
Q 3647 3509 3647 2328 
Q 3647 1150 3233 529 
Q 2819 -91 2034 -91 
Q 1250 -91 836 529 
Q 422 1150 422 2328 
Q 422 3509 836 4129 
Q 1250 4750 2034 4750 
z
" transform="scale(0.015625)"/>
       </defs>
       <use xlink:href="#DejaVuSans-13"/>
      </g>
     </g>
    </g>
    <g id="xtick_2">
     <g id="line2d_2">
      <path d="M 164.401808 414.957187 
L 164.401808 26.877187 
" clip-path="url(#p99fe0636c2)" style="fill: none; stroke: #cccccc; stroke-opacity: 0.3; stroke-linecap: round"/>
     </g>
     <g id="text_2">
      <!-- 25 -->
      <g style="fill: #262626" transform="translate(153.903683 436.99332) scale(0.165 -0.165)">
       <defs>
        <path id="DejaVuSans-15" d="M 1228 531 
L 3431 531 
L 3431 0 
L 469 0 
L 469 531 
Q 828 903 1448 1529 
Q 2069 2156 2228 2338 
Q 2531 2678 2651 2914 
Q 2772 3150 2772 3378 
Q 2772 3750 2511 3984 
Q 2250 4219 1831 4219 
Q 1534 4219 1204 4116 
Q 875 4013 500 3803 
L 500 4441 
Q 881 4594 1212 4672 
Q 1544 4750 1819 4750 
Q 2544 4750 2975 4387 
Q 3406 4025 3406 3419 
Q 3406 3131 3298 2873 
Q 3191 2616 2906 2266 
Q 2828 2175 2409 1742 
Q 1991 1309 1228 531 
z
" transform="scale(0.015625)"/>
        <path id="DejaVuSans-18" d="M 691 4666 
L 3169 4666 
L 3169 4134 
L 1269 4134 
L 1269 2991 
Q 1406 3038 1543 3061 
Q 1681 3084 1819 3084 
Q 2600 3084 3056 2656 
Q 3513 2228 3513 1497 
Q 3513 744 3044 326 
Q 2575 -91 1722 -91 
Q 1428 -91 1123 -41 
Q 819 9 494 109 
L 494 744 
Q 775 591 1075 516 
Q 1375 441 1709 441 
Q 2250 441 2565 725 
Q 2881 1009 2881 1497 
Q 2881 1984 2565 2268 
Q 2250 2553 1709 2553 
Q 1456 2553 1204 2497 
Q 953 2441 691 2322 
L 691 4666 
z
" transform="scale(0.015625)"/>
       </defs>
       <use xlink:href="#DejaVuSans-15"/>
       <use xlink:href="#DejaVuSans-18" transform="translate(63.625 0)"/>
      </g>
     </g>
    </g>
    <g id="xtick_3">
     <g id="line2d_3">
      <path d="M 228.001699 414.957187 
L 228.001699 26.877187 
" clip-path="url(#p99fe0636c2)" style="fill: none; stroke: #cccccc; stroke-opacity: 0.3; stroke-linecap: round"/>
     </g>
     <g id="text_3">
      <!-- 50 -->
      <g style="fill: #262626" transform="translate(217.503574 436.99332) scale(0.165 -0.165)">
       <use xlink:href="#DejaVuSans-18"/>
       <use xlink:href="#DejaVuSans-13" transform="translate(63.625 0)"/>
      </g>
     </g>
    </g>
    <g id="xtick_4">
     <g id="line2d_4">
      <path d="M 291.601589 414.957187 
L 291.601589 26.877187 
" clip-path="url(#p99fe0636c2)" style="fill: none; stroke: #cccccc; stroke-opacity: 0.3; stroke-linecap: round"/>
     </g>
     <g id="text_4">
      <!-- 75 -->
      <g style="fill: #262626" transform="translate(281.103464 436.99332) scale(0.165 -0.165)">
       <defs>
        <path id="DejaVuSans-1a" d="M 525 4666 
L 3525 4666 
L 3525 4397 
L 1831 0 
L 1172 0 
L 2766 4134 
L 525 4134 
L 525 4666 
z
" transform="scale(0.015625)"/>
       </defs>
       <use xlink:href="#DejaVuSans-1a"/>
       <use xlink:href="#DejaVuSans-18" transform="translate(63.625 0)"/>
      </g>
     </g>
    </g>
    <g id="xtick_5">
     <g id="line2d_5">
      <path d="M 355.20148 414.957187 
L 355.20148 26.877187 
" clip-path="url(#p99fe0636c2)" style="fill: none; stroke: #cccccc; stroke-opacity: 0.3; stroke-linecap: round"/>
     </g>
     <g id="text_5">
      <!-- 100 -->
      <g style="fill: #262626" transform="translate(339.454292 436.99332) scale(0.165 -0.165)">
       <defs>
        <path id="DejaVuSans-14" d="M 794 531 
L 1825 531 
L 1825 4091 
L 703 3866 
L 703 4441 
L 1819 4666 
L 2450 4666 
L 2450 531 
L 3481 531 
L 3481 0 
L 794 0 
L 794 531 
z
" transform="scale(0.015625)"/>
       </defs>
       <use xlink:href="#DejaVuSans-14"/>
       <use xlink:href="#DejaVuSans-13" transform="translate(63.625 0)"/>
       <use xlink:href="#DejaVuSans-13" transform="translate(127.25 0)"/>
      </g>
     </g>
    </g>
    <g id="xtick_6">
     <g id="line2d_6">
      <path d="M 418.801371 414.957187 
L 418.801371 26.877187 
" clip-path="url(#p99fe0636c2)" style="fill: none; stroke: #cccccc; stroke-opacity: 0.3; stroke-linecap: round"/>
     </g>
     <g id="text_6">
      <!-- 125 -->
      <g style="fill: #262626" transform="translate(403.054183 436.99332) scale(0.165 -0.165)">
       <use xlink:href="#DejaVuSans-14"/>
       <use xlink:href="#DejaVuSans-15" transform="translate(63.625 0)"/>
       <use xlink:href="#DejaVuSans-18" transform="translate(127.25 0)"/>
      </g>
     </g>
    </g>
    <g id="xtick_7">
     <g id="line2d_7">
      <path d="M 482.401261 414.957187 
L 482.401261 26.877187 
" clip-path="url(#p99fe0636c2)" style="fill: none; stroke: #cccccc; stroke-opacity: 0.3; stroke-linecap: round"/>
     </g>
     <g id="text_7">
      <!-- 150 -->
      <g style="fill: #262626" transform="translate(466.654074 436.99332) scale(0.165 -0.165)">
       <use xlink:href="#DejaVuSans-14"/>
       <use xlink:href="#DejaVuSans-18" transform="translate(63.625 0)"/>
       <use xlink:href="#DejaVuSans-13" transform="translate(127.25 0)"/>
      </g>
     </g>
    </g>
    <g id="xtick_8">
     <g id="line2d_8">
      <path d="M 546.001152 414.957187 
L 546.001152 26.877187 
" clip-path="url(#p99fe0636c2)" style="fill: none; stroke: #cccccc; stroke-opacity: 0.3; stroke-linecap: round"/>
     </g>
     <g id="text_8">
      <!-- 175 -->
      <g style="fill: #262626" transform="translate(530.253964 436.99332) scale(0.165 -0.165)">
       <use xlink:href="#DejaVuSans-14"/>
       <use xlink:href="#DejaVuSans-1a" transform="translate(63.625 0)"/>
       <use xlink:href="#DejaVuSans-18" transform="translate(127.25 0)"/>
      </g>
     </g>
    </g>
    <g id="xtick_9">
     <g id="line2d_9">
      <path d="M 609.601042 414.957187 
L 609.601042 26.877187 
" clip-path="url(#p99fe0636c2)" style="fill: none; stroke: #cccccc; stroke-opacity: 0.3; stroke-linecap: round"/>
     </g>
     <g id="text_9">
      <!-- 200 -->
      <g style="fill: #262626" transform="translate(593.853855 436.99332) scale(0.165 -0.165)">
       <use xlink:href="#DejaVuSans-15"/>
       <use xlink:href="#DejaVuSans-13" transform="translate(63.625 0)"/>
       <use xlink:href="#DejaVuSans-13" transform="translate(127.25 0)"/>
      </g>
     </g>
    </g>
    <g id="text_10">
     <!-- Time Overhead (%) -->
     <g style="fill: #262626" transform="translate(267.156563 458.634375) scale(0.18 -0.18)">
      <defs>
       <path id="DejaVuSans-37" d="M -19 4666 
L 3928 4666 
L 3928 4134 
L 2272 4134 
L 2272 0 
L 1638 0 
L 1638 4134 
L -19 4134 
L -19 4666 
z
" transform="scale(0.015625)"/>
       <path id="DejaVuSans-4c" d="M 603 3500 
L 1178 3500 
L 1178 0 
L 603 0 
L 603 3500 
z
M 603 4863 
L 1178 4863 
L 1178 4134 
L 603 4134 
L 603 4863 
z
" transform="scale(0.015625)"/>
       <path id="DejaVuSans-50" d="M 3328 2828 
Q 3544 3216 3844 3400 
Q 4144 3584 4550 3584 
Q 5097 3584 5394 3201 
Q 5691 2819 5691 2113 
L 5691 0 
L 5113 0 
L 5113 2094 
Q 5113 2597 4934 2840 
Q 4756 3084 4391 3084 
Q 3944 3084 3684 2787 
Q 3425 2491 3425 1978 
L 3425 0 
L 2847 0 
L 2847 2094 
Q 2847 2600 2669 2842 
Q 2491 3084 2119 3084 
Q 1678 3084 1418 2786 
Q 1159 2488 1159 1978 
L 1159 0 
L 581 0 
L 581 3500 
L 1159 3500 
L 1159 2956 
Q 1356 3278 1631 3431 
Q 1906 3584 2284 3584 
Q 2666 3584 2933 3390 
Q 3200 3197 3328 2828 
z
" transform="scale(0.015625)"/>
       <path id="DejaVuSans-48" d="M 3597 1894 
L 3597 1613 
L 953 1613 
Q 991 1019 1311 708 
Q 1631 397 2203 397 
Q 2534 397 2845 478 
Q 3156 559 3463 722 
L 3463 178 
Q 3153 47 2828 -22 
Q 2503 -91 2169 -91 
Q 1331 -91 842 396 
Q 353 884 353 1716 
Q 353 2575 817 3079 
Q 1281 3584 2069 3584 
Q 2775 3584 3186 3129 
Q 3597 2675 3597 1894 
z
M 3022 2063 
Q 3016 2534 2758 2815 
Q 2500 3097 2075 3097 
Q 1594 3097 1305 2825 
Q 1016 2553 972 2059 
L 3022 2063 
z
" transform="scale(0.015625)"/>
       <path id="DejaVuSans-3" transform="scale(0.015625)"/>
       <path id="DejaVuSans-32" d="M 2522 4238 
Q 1834 4238 1429 3725 
Q 1025 3213 1025 2328 
Q 1025 1447 1429 934 
Q 1834 422 2522 422 
Q 3209 422 3611 934 
Q 4013 1447 4013 2328 
Q 4013 3213 3611 3725 
Q 3209 4238 2522 4238 
z
M 2522 4750 
Q 3503 4750 4090 4092 
Q 4678 3434 4678 2328 
Q 4678 1225 4090 567 
Q 3503 -91 2522 -91 
Q 1538 -91 948 565 
Q 359 1222 359 2328 
Q 359 3434 948 4092 
Q 1538 4750 2522 4750 
z
" transform="scale(0.015625)"/>
       <path id="DejaVuSans-59" d="M 191 3500 
L 800 3500 
L 1894 563 
L 2988 3500 
L 3597 3500 
L 2284 0 
L 1503 0 
L 191 3500 
z
" transform="scale(0.015625)"/>
       <path id="DejaVuSans-55" d="M 2631 2963 
Q 2534 3019 2420 3045 
Q 2306 3072 2169 3072 
Q 1681 3072 1420 2755 
Q 1159 2438 1159 1844 
L 1159 0 
L 581 0 
L 581 3500 
L 1159 3500 
L 1159 2956 
Q 1341 3275 1631 3429 
Q 1922 3584 2338 3584 
Q 2397 3584 2469 3576 
Q 2541 3569 2628 3553 
L 2631 2963 
z
" transform="scale(0.015625)"/>
       <path id="DejaVuSans-4b" d="M 3513 2113 
L 3513 0 
L 2938 0 
L 2938 2094 
Q 2938 2591 2744 2837 
Q 2550 3084 2163 3084 
Q 1697 3084 1428 2787 
Q 1159 2491 1159 1978 
L 1159 0 
L 581 0 
L 581 4863 
L 1159 4863 
L 1159 2956 
Q 1366 3272 1645 3428 
Q 1925 3584 2291 3584 
Q 2894 3584 3203 3211 
Q 3513 2838 3513 2113 
z
" transform="scale(0.015625)"/>
       <path id="DejaVuSans-44" d="M 2194 1759 
Q 1497 1759 1228 1600 
Q 959 1441 959 1056 
Q 959 750 1161 570 
Q 1363 391 1709 391 
Q 2188 391 2477 730 
Q 2766 1069 2766 1631 
L 2766 1759 
L 2194 1759 
z
M 3341 1997 
L 3341 0 
L 2766 0 
L 2766 531 
Q 2569 213 2275 61 
Q 1981 -91 1556 -91 
Q 1019 -91 701 211 
Q 384 513 384 1019 
Q 384 1609 779 1909 
Q 1175 2209 1959 2209 
L 2766 2209 
L 2766 2266 
Q 2766 2663 2505 2880 
Q 2244 3097 1772 3097 
Q 1472 3097 1187 3025 
Q 903 2953 641 2809 
L 641 3341 
Q 956 3463 1253 3523 
Q 1550 3584 1831 3584 
Q 2591 3584 2966 3190 
Q 3341 2797 3341 1997 
z
" transform="scale(0.015625)"/>
       <path id="DejaVuSans-47" d="M 2906 2969 
L 2906 4863 
L 3481 4863 
L 3481 0 
L 2906 0 
L 2906 525 
Q 2725 213 2448 61 
Q 2172 -91 1784 -91 
Q 1150 -91 751 415 
Q 353 922 353 1747 
Q 353 2572 751 3078 
Q 1150 3584 1784 3584 
Q 2172 3584 2448 3432 
Q 2725 3281 2906 2969 
z
M 947 1747 
Q 947 1113 1208 752 
Q 1469 391 1925 391 
Q 2381 391 2643 752 
Q 2906 1113 2906 1747 
Q 2906 2381 2643 2742 
Q 2381 3103 1925 3103 
Q 1469 3103 1208 2742 
Q 947 2381 947 1747 
z
" transform="scale(0.015625)"/>
       <path id="DejaVuSans-b" d="M 1984 4856 
Q 1566 4138 1362 3434 
Q 1159 2731 1159 2009 
Q 1159 1288 1364 580 
Q 1569 -128 1984 -844 
L 1484 -844 
Q 1016 -109 783 600 
Q 550 1309 550 2009 
Q 550 2706 781 3412 
Q 1013 4119 1484 4856 
L 1984 4856 
z
" transform="scale(0.015625)"/>
       <path id="DejaVuSans-8" d="M 4653 2053 
Q 4381 2053 4226 1822 
Q 4072 1591 4072 1178 
Q 4072 772 4226 539 
Q 4381 306 4653 306 
Q 4919 306 5073 539 
Q 5228 772 5228 1178 
Q 5228 1588 5073 1820 
Q 4919 2053 4653 2053 
z
M 4653 2450 
Q 5147 2450 5437 2106 
Q 5728 1763 5728 1178 
Q 5728 594 5436 251 
Q 5144 -91 4653 -91 
Q 4153 -91 3862 251 
Q 3572 594 3572 1178 
Q 3572 1766 3864 2108 
Q 4156 2450 4653 2450 
z
M 1428 4353 
Q 1159 4353 1004 4120 
Q 850 3888 850 3481 
Q 850 3069 1003 2837 
Q 1156 2606 1428 2606 
Q 1700 2606 1854 2837 
Q 2009 3069 2009 3481 
Q 2009 3884 1853 4118 
Q 1697 4353 1428 4353 
z
M 4250 4750 
L 4750 4750 
L 1831 -91 
L 1331 -91 
L 4250 4750 
z
M 1428 4750 
Q 1922 4750 2215 4408 
Q 2509 4066 2509 3481 
Q 2509 2891 2217 2550 
Q 1925 2209 1428 2209 
Q 931 2209 642 2551 
Q 353 2894 353 3481 
Q 353 4063 643 4406 
Q 934 4750 1428 4750 
z
" transform="scale(0.015625)"/>
       <path id="DejaVuSans-c" d="M 513 4856 
L 1013 4856 
Q 1481 4119 1714 3412 
Q 1947 2706 1947 2009 
Q 1947 1309 1714 600 
Q 1481 -109 1013 -844 
L 513 -844 
Q 928 -128 1133 580 
Q 1338 1288 1338 2009 
Q 1338 2731 1133 3434 
Q 928 4138 513 4856 
z
" transform="scale(0.015625)"/>
      </defs>
      <use xlink:href="#DejaVuSans-37"/>
      <use xlink:href="#DejaVuSans-4c" transform="translate(58 0)"/>
      <use xlink:href="#DejaVuSans-50" transform="translate(85.78125 0)"/>
      <use xlink:href="#DejaVuSans-48" transform="translate(183.1875 0)"/>
      <use xlink:href="#DejaVuSans-3" transform="translate(244.71875 0)"/>
      <use xlink:href="#DejaVuSans-32" transform="translate(276.5 0)"/>
      <use xlink:href="#DejaVuSans-59" transform="translate(355.21875 0)"/>
      <use xlink:href="#DejaVuSans-48" transform="translate(414.40625 0)"/>
      <use xlink:href="#DejaVuSans-55" transform="translate(475.9375 0)"/>
      <use xlink:href="#DejaVuSans-4b" transform="translate(515.296875 0)"/>
      <use xlink:href="#DejaVuSans-48" transform="translate(578.671875 0)"/>
      <use xlink:href="#DejaVuSans-44" transform="translate(640.203125 0)"/>
      <use xlink:href="#DejaVuSans-47" transform="translate(701.484375 0)"/>
      <use xlink:href="#DejaVuSans-3" transform="translate(764.96875 0)"/>
      <use xlink:href="#DejaVuSans-b" transform="translate(796.75 0)"/>
      <use xlink:href="#DejaVuSans-8" transform="translate(835.765625 0)"/>
      <use xlink:href="#DejaVuSans-c" transform="translate(930.78125 0)"/>
     </g>
    </g>
   </g>
   <g id="matplotlib.axis_2">
    <g id="ytick_1">
     <g id="line2d_10">
      <path d="M 75.438281 397.317187 
L 633.438281 397.317187 
" clip-path="url(#p99fe0636c2)" style="fill: none; stroke: #cccccc; stroke-opacity: 0.3; stroke-linecap: round"/>
     </g>
     <g id="text_11">
      <!-- 0.50 -->
      <g style="fill: #262626" transform="translate(29.2 403.585254) scale(0.165 -0.165)">
       <defs>
        <path id="DejaVuSans-11" d="M 684 794 
L 1344 794 
L 1344 0 
L 684 0 
L 684 794 
z
" transform="scale(0.015625)"/>
       </defs>
       <use xlink:href="#DejaVuSans-13"/>
       <use xlink:href="#DejaVuSans-11" transform="translate(63.625 0)"/>
       <use xlink:href="#DejaVuSans-18" transform="translate(95.40625 0)"/>
       <use xlink:href="#DejaVuSans-13" transform="translate(159.03125 0)"/>
      </g>
     </g>
    </g>
    <g id="ytick_2">
     <g id="line2d_11">
      <path d="M 75.438281 315.951874 
L 633.438281 315.951874 
" clip-path="url(#p99fe0636c2)" style="fill: none; stroke: #cccccc; stroke-opacity: 0.3; stroke-linecap: round"/>
     </g>
     <g id="text_12">
      <!-- 0.55 -->
      <g style="fill: #262626" transform="translate(29.2 322.21994) scale(0.165 -0.165)">
       <use xlink:href="#DejaVuSans-13"/>
       <use xlink:href="#DejaVuSans-11" transform="translate(63.625 0)"/>
       <use xlink:href="#DejaVuSans-18" transform="translate(95.40625 0)"/>
       <use xlink:href="#DejaVuSans-18" transform="translate(159.03125 0)"/>
      </g>
     </g>
    </g>
    <g id="ytick_3">
     <g id="line2d_12">
      <path d="M 75.438281 234.58656 
L 633.438281 234.58656 
" clip-path="url(#p99fe0636c2)" style="fill: none; stroke: #cccccc; stroke-opacity: 0.3; stroke-linecap: round"/>
     </g>
     <g id="text_13">
      <!-- 0.60 -->
      <g style="fill: #262626" transform="translate(29.2 240.854627) scale(0.165 -0.165)">
       <defs>
        <path id="DejaVuSans-19" d="M 2113 2584 
Q 1688 2584 1439 2293 
Q 1191 2003 1191 1497 
Q 1191 994 1439 701 
Q 1688 409 2113 409 
Q 2538 409 2786 701 
Q 3034 994 3034 1497 
Q 3034 2003 2786 2293 
Q 2538 2584 2113 2584 
z
M 3366 4563 
L 3366 3988 
Q 3128 4100 2886 4159 
Q 2644 4219 2406 4219 
Q 1781 4219 1451 3797 
Q 1122 3375 1075 2522 
Q 1259 2794 1537 2939 
Q 1816 3084 2150 3084 
Q 2853 3084 3261 2657 
Q 3669 2231 3669 1497 
Q 3669 778 3244 343 
Q 2819 -91 2113 -91 
Q 1303 -91 875 529 
Q 447 1150 447 2328 
Q 447 3434 972 4092 
Q 1497 4750 2381 4750 
Q 2619 4750 2861 4703 
Q 3103 4656 3366 4563 
z
" transform="scale(0.015625)"/>
       </defs>
       <use xlink:href="#DejaVuSans-13"/>
       <use xlink:href="#DejaVuSans-11" transform="translate(63.625 0)"/>
       <use xlink:href="#DejaVuSans-19" transform="translate(95.40625 0)"/>
       <use xlink:href="#DejaVuSans-13" transform="translate(159.03125 0)"/>
      </g>
     </g>
    </g>
    <g id="ytick_4">
     <g id="line2d_13">
      <path d="M 75.438281 153.221247 
L 633.438281 153.221247 
" clip-path="url(#p99fe0636c2)" style="fill: none; stroke: #cccccc; stroke-opacity: 0.3; stroke-linecap: round"/>
     </g>
     <g id="text_14">
      <!-- 0.65 -->
      <g style="fill: #262626" transform="translate(29.2 159.489313) scale(0.165 -0.165)">
       <use xlink:href="#DejaVuSans-13"/>
       <use xlink:href="#DejaVuSans-11" transform="translate(63.625 0)"/>
       <use xlink:href="#DejaVuSans-19" transform="translate(95.40625 0)"/>
       <use xlink:href="#DejaVuSans-18" transform="translate(159.03125 0)"/>
      </g>
     </g>
    </g>
    <g id="ytick_5">
     <g id="line2d_14">
      <path d="M 75.438281 71.855933 
L 633.438281 71.855933 
" clip-path="url(#p99fe0636c2)" style="fill: none; stroke: #cccccc; stroke-opacity: 0.3; stroke-linecap: round"/>
     </g>
     <g id="text_15">
      <!-- 0.70 -->
      <g style="fill: #262626" transform="translate(29.2 78.123999) scale(0.165 -0.165)">
       <use xlink:href="#DejaVuSans-13"/>
       <use xlink:href="#DejaVuSans-11" transform="translate(63.625 0)"/>
       <use xlink:href="#DejaVuSans-1a" transform="translate(95.40625 0)"/>
       <use xlink:href="#DejaVuSans-13" transform="translate(159.03125 0)"/>
      </g>
     </g>
    </g>
    <g id="text_16">
     <!-- Score -->
     <g style="fill: #262626" transform="translate(20.875781 246.125625) rotate(-90) scale(0.18 -0.18)">
      <defs>
       <path id="DejaVuSans-36" d="M 3425 4513 
L 3425 3897 
Q 3066 4069 2747 4153 
Q 2428 4238 2131 4238 
Q 1616 4238 1336 4038 
Q 1056 3838 1056 3469 
Q 1056 3159 1242 3001 
Q 1428 2844 1947 2747 
L 2328 2669 
Q 3034 2534 3370 2195 
Q 3706 1856 3706 1288 
Q 3706 609 3251 259 
Q 2797 -91 1919 -91 
Q 1588 -91 1214 -16 
Q 841 59 441 206 
L 441 856 
Q 825 641 1194 531 
Q 1563 422 1919 422 
Q 2459 422 2753 634 
Q 3047 847 3047 1241 
Q 3047 1584 2836 1778 
Q 2625 1972 2144 2069 
L 1759 2144 
Q 1053 2284 737 2584 
Q 422 2884 422 3419 
Q 422 4038 858 4394 
Q 1294 4750 2059 4750 
Q 2388 4750 2728 4690 
Q 3069 4631 3425 4513 
z
" transform="scale(0.015625)"/>
       <path id="DejaVuSans-46" d="M 3122 3366 
L 3122 2828 
Q 2878 2963 2633 3030 
Q 2388 3097 2138 3097 
Q 1578 3097 1268 2742 
Q 959 2388 959 1747 
Q 959 1106 1268 751 
Q 1578 397 2138 397 
Q 2388 397 2633 464 
Q 2878 531 3122 666 
L 3122 134 
Q 2881 22 2623 -34 
Q 2366 -91 2075 -91 
Q 1284 -91 818 406 
Q 353 903 353 1747 
Q 353 2603 823 3093 
Q 1294 3584 2113 3584 
Q 2378 3584 2631 3529 
Q 2884 3475 3122 3366 
z
" transform="scale(0.015625)"/>
       <path id="DejaVuSans-52" d="M 1959 3097 
Q 1497 3097 1228 2736 
Q 959 2375 959 1747 
Q 959 1119 1226 758 
Q 1494 397 1959 397 
Q 2419 397 2687 759 
Q 2956 1122 2956 1747 
Q 2956 2369 2687 2733 
Q 2419 3097 1959 3097 
z
M 1959 3584 
Q 2709 3584 3137 3096 
Q 3566 2609 3566 1747 
Q 3566 888 3137 398 
Q 2709 -91 1959 -91 
Q 1206 -91 779 398 
Q 353 888 353 1747 
Q 353 2609 779 3096 
Q 1206 3584 1959 3584 
z
" transform="scale(0.015625)"/>
      </defs>
      <use xlink:href="#DejaVuSans-36"/>
      <use xlink:href="#DejaVuSans-46" transform="translate(63.484375 0)"/>
      <use xlink:href="#DejaVuSans-52" transform="translate(118.46875 0)"/>
      <use xlink:href="#DejaVuSans-55" transform="translate(179.65625 0)"/>
      <use xlink:href="#DejaVuSans-48" transform="translate(218.5625 0)"/>
     </g>
    </g>
   </g>
   <g id="line2d_15">
    <path d="M 100.801918 397.317187 
L 101.056317 397.154457 
L 102.073915 395.689881 
L 102.073915 393.411652 
L 102.837114 392.923461 
L 102.837114 390.970693 
L 103.600313 389.831579 
L 104.109112 389.668848 
L 105.12671 388.367003 
L 105.12671 384.461468 
L 107.161907 383.810545 
L 107.416306 383.322354 
L 107.925105 376.162206 
L 109.705902 374.046708 
L 109.705902 364.608331 
L 116.57469 346.870693 
L 133.110662 344.755195 
L 133.365062 337.595047 
L 136.417856 311.232686 
L 143.286645 293.495047 
L 146.339439 287.636745 
L 150.155433 280.964789 
L 155.752223 275.757409 
L 158.550618 263.389881 
L 165.165007 251.998737 
L 170.761797 244.513128 
L 178.139385 239.468479 
L 187.297769 239.305748 
L 187.806568 228.565527 
L 199.508948 227.589143 
L 203.579341 219.289881 
L 211.974526 215.058885 
L 212.992125 204.644125 
L 220.115312 203.667741 
L 224.440105 190.48656 
L 232.326491 186.255564 
L 243.265673 168.680656 
L 253.696055 155.011283 
L 265.652834 143.294678 
L 275.065618 133.36811 
L 298.979177 121.326044 
L 314.49755 109.9349 
L 330.524722 109.772169 
L 333.323118 107.656671 
L 337.393511 102.12383 
L 338.919908 101.310176 
L 347.060694 100.496523 
L 348.587091 95.940066 
L 351.894286 92.034531 
L 355.964679 90.244494 
L 365.886262 87.966265 
L 369.447855 84.711652 
L 370.465454 83.084346 
L 387.510224 81.294309 
L 389.036622 80.317926 
L 389.291021 78.527889 
L 393.361414 78.365158 
L 398.449406 75.598737 
L 399.467004 72.669586 
L 412.186982 69.414973 
L 416.511774 67.787667 
L 426.433357 65.346708 
L 434.065344 65.183977 
L 462.812495 64.858516 
L 462.812495 64.370324 
L 464.847691 63.719402 
L 472.988477 62.743018 
L 473.242877 62.580287 
L 477.567669 62.417557 
L 481.383663 60.302058 
L 481.638062 59.976597 
L 483.673259 59.325675 
L 487.743652 58.674752 
L 500.46363 57.210176 
L 501.226829 56.559254 
L 501.735628 56.233793 
L 502.244427 56.071062 
L 502.498827 55.58287 
L 504.025224 55.42014 
L 504.534023 55.094678 
L 505.551621 54.606486 
L 505.551621 54.118295 
L 505.806021 53.955564 
L 506.31482 53.304641 
L 507.078019 52.816449 
L 508.858816 52.490988 
L 509.876414 52.165527 
L 509.876414 52.002796 
L 510.130813 51.677335 
L 510.639613 51.351874 
L 511.148412 50.538221 
L 511.91161 50.37549 
L 514.964405 50.212759 
L 515.218805 49.887298 
L 515.982003 49.236376 
L 515.982003 49.073645 
L 519.797997 48.910914 
L 520.561195 48.422723 
L 524.631588 48.259992 
L 524.885988 47.934531 
L 533.535573 47.609069 
L 533.789973 47.446339 
L 533.789973 47.283608 
L 534.044372 47.120878 
L 534.298772 46.795416 
L 534.807571 46.469955 
L 538.114765 46.307224 
L 538.369165 46.144494 
L 538.369165 45.981763 
L 539.386763 45.330841 
L 539.386763 45.16811 
L 543.711556 45.005379 
L 544.220355 44.517187 
L 544.220355 44.517187 
" clip-path="url(#p99fe0636c2)" style="fill: none; stroke: #2563eb; stroke-width: 2; stroke-linecap: round"/>
    <defs>
     <path id="m72f8ef5001" d="M 0 2 
C 0.530406 2 1.03916 1.789267 1.414214 1.414214 
C 1.789267 1.03916 2 0.530406 2 0 
C 2 -0.530406 1.789267 -1.03916 1.414214 -1.414214 
C 1.03916 -1.789267 0.530406 -2 0 -2 
C -0.530406 -2 -1.03916 -1.789267 -1.414214 -1.414214 
C -1.789267 -1.03916 -2 -0.530406 -2 0 
C -2 0.530406 -1.789267 1.03916 -1.414214 1.414214 
C -1.03916 1.789267 -0.530406 2 0 2 
z
" style="stroke: #2563eb"/>
    </defs>
    <g clip-path="url(#p99fe0636c2)">
     <use xlink:href="#m72f8ef5001" x="100.801918" y="397.317187" style="fill: #2563eb; stroke: #2563eb"/>
     <use xlink:href="#m72f8ef5001" x="101.056317" y="397.154457" style="fill: #2563eb; stroke: #2563eb"/>
     <use xlink:href="#m72f8ef5001" x="101.310717" y="396.828996" style="fill: #2563eb; stroke: #2563eb"/>
     <use xlink:href="#m72f8ef5001" x="101.565116" y="396.666265" style="fill: #2563eb; stroke: #2563eb"/>
     <use xlink:href="#m72f8ef5001" x="101.565116" y="396.503534" style="fill: #2563eb; stroke: #2563eb"/>
     <use xlink:href="#m72f8ef5001" x="101.819516" y="396.340804" style="fill: #2563eb; stroke: #2563eb"/>
     <use xlink:href="#m72f8ef5001" x="101.819516" y="396.178073" style="fill: #2563eb; stroke: #2563eb"/>
     <use xlink:href="#m72f8ef5001" x="102.073915" y="395.689881" style="fill: #2563eb; stroke: #2563eb"/>
     <use xlink:href="#m72f8ef5001" x="102.073915" y="393.411652" style="fill: #2563eb; stroke: #2563eb"/>
     <use xlink:href="#m72f8ef5001" x="102.837114" y="392.923461" style="fill: #2563eb; stroke: #2563eb"/>
     <use xlink:href="#m72f8ef5001" x="102.837114" y="390.970693" style="fill: #2563eb; stroke: #2563eb"/>
     <use xlink:href="#m72f8ef5001" x="103.345913" y="390.15704" style="fill: #2563eb; stroke: #2563eb"/>
     <use xlink:href="#m72f8ef5001" x="103.600313" y="389.831579" style="fill: #2563eb; stroke: #2563eb"/>
     <use xlink:href="#m72f8ef5001" x="104.109112" y="389.668848" style="fill: #2563eb; stroke: #2563eb"/>
     <use xlink:href="#m72f8ef5001" x="105.12671" y="388.367003" style="fill: #2563eb; stroke: #2563eb"/>
     <use xlink:href="#m72f8ef5001" x="105.12671" y="384.461468" style="fill: #2563eb; stroke: #2563eb"/>
     <use xlink:href="#m72f8ef5001" x="107.161907" y="383.810545" style="fill: #2563eb; stroke: #2563eb"/>
     <use xlink:href="#m72f8ef5001" x="107.416306" y="383.322354" style="fill: #2563eb; stroke: #2563eb"/>
     <use xlink:href="#m72f8ef5001" x="107.670706" y="378.928627" style="fill: #2563eb; stroke: #2563eb"/>
     <use xlink:href="#m72f8ef5001" x="107.925105" y="376.162206" style="fill: #2563eb; stroke: #2563eb"/>
     <use xlink:href="#m72f8ef5001" x="109.705902" y="374.046708" style="fill: #2563eb; stroke: #2563eb"/>
     <use xlink:href="#m72f8ef5001" x="109.705902" y="364.608331" style="fill: #2563eb; stroke: #2563eb"/>
     <use xlink:href="#m72f8ef5001" x="116.57469" y="346.870693" style="fill: #2563eb; stroke: #2563eb"/>
     <use xlink:href="#m72f8ef5001" x="133.110662" y="344.755195" style="fill: #2563eb; stroke: #2563eb"/>
     <use xlink:href="#m72f8ef5001" x="133.365062" y="337.595047" style="fill: #2563eb; stroke: #2563eb"/>
     <use xlink:href="#m72f8ef5001" x="136.417856" y="311.232686" style="fill: #2563eb; stroke: #2563eb"/>
     <use xlink:href="#m72f8ef5001" x="143.286645" y="293.495047" style="fill: #2563eb; stroke: #2563eb"/>
     <use xlink:href="#m72f8ef5001" x="146.339439" y="287.636745" style="fill: #2563eb; stroke: #2563eb"/>
     <use xlink:href="#m72f8ef5001" x="150.155433" y="280.964789" style="fill: #2563eb; stroke: #2563eb"/>
     <use xlink:href="#m72f8ef5001" x="155.752223" y="275.757409" style="fill: #2563eb; stroke: #2563eb"/>
     <use xlink:href="#m72f8ef5001" x="158.550618" y="263.389881" style="fill: #2563eb; stroke: #2563eb"/>
     <use xlink:href="#m72f8ef5001" x="165.165007" y="251.998737" style="fill: #2563eb; stroke: #2563eb"/>
     <use xlink:href="#m72f8ef5001" x="170.761797" y="244.513128" style="fill: #2563eb; stroke: #2563eb"/>
     <use xlink:href="#m72f8ef5001" x="178.139385" y="239.468479" style="fill: #2563eb; stroke: #2563eb"/>
     <use xlink:href="#m72f8ef5001" x="187.297769" y="239.305748" style="fill: #2563eb; stroke: #2563eb"/>
     <use xlink:href="#m72f8ef5001" x="187.806568" y="228.565527" style="fill: #2563eb; stroke: #2563eb"/>
     <use xlink:href="#m72f8ef5001" x="199.508948" y="227.589143" style="fill: #2563eb; stroke: #2563eb"/>
     <use xlink:href="#m72f8ef5001" x="203.579341" y="219.289881" style="fill: #2563eb; stroke: #2563eb"/>
     <use xlink:href="#m72f8ef5001" x="211.974526" y="215.058885" style="fill: #2563eb; stroke: #2563eb"/>
     <use xlink:href="#m72f8ef5001" x="212.992125" y="204.644125" style="fill: #2563eb; stroke: #2563eb"/>
     <use xlink:href="#m72f8ef5001" x="220.115312" y="203.667741" style="fill: #2563eb; stroke: #2563eb"/>
     <use xlink:href="#m72f8ef5001" x="224.440105" y="190.48656" style="fill: #2563eb; stroke: #2563eb"/>
     <use xlink:href="#m72f8ef5001" x="232.326491" y="186.255564" style="fill: #2563eb; stroke: #2563eb"/>
     <use xlink:href="#m72f8ef5001" x="243.265673" y="168.680656" style="fill: #2563eb; stroke: #2563eb"/>
     <use xlink:href="#m72f8ef5001" x="253.696055" y="155.011283" style="fill: #2563eb; stroke: #2563eb"/>
     <use xlink:href="#m72f8ef5001" x="265.652834" y="143.294678" style="fill: #2563eb; stroke: #2563eb"/>
     <use xlink:href="#m72f8ef5001" x="275.065618" y="133.36811" style="fill: #2563eb; stroke: #2563eb"/>
     <use xlink:href="#m72f8ef5001" x="298.979177" y="121.326044" style="fill: #2563eb; stroke: #2563eb"/>
     <use xlink:href="#m72f8ef5001" x="314.49755" y="109.9349" style="fill: #2563eb; stroke: #2563eb"/>
     <use xlink:href="#m72f8ef5001" x="330.524722" y="109.772169" style="fill: #2563eb; stroke: #2563eb"/>
     <use xlink:href="#m72f8ef5001" x="333.323118" y="107.656671" style="fill: #2563eb; stroke: #2563eb"/>
     <use xlink:href="#m72f8ef5001" x="337.393511" y="102.12383" style="fill: #2563eb; stroke: #2563eb"/>
     <use xlink:href="#m72f8ef5001" x="338.919908" y="101.310176" style="fill: #2563eb; stroke: #2563eb"/>
     <use xlink:href="#m72f8ef5001" x="347.060694" y="100.496523" style="fill: #2563eb; stroke: #2563eb"/>
     <use xlink:href="#m72f8ef5001" x="348.587091" y="95.940066" style="fill: #2563eb; stroke: #2563eb"/>
     <use xlink:href="#m72f8ef5001" x="351.894286" y="92.034531" style="fill: #2563eb; stroke: #2563eb"/>
     <use xlink:href="#m72f8ef5001" x="355.964679" y="90.244494" style="fill: #2563eb; stroke: #2563eb"/>
     <use xlink:href="#m72f8ef5001" x="365.886262" y="87.966265" style="fill: #2563eb; stroke: #2563eb"/>
     <use xlink:href="#m72f8ef5001" x="369.447855" y="84.711652" style="fill: #2563eb; stroke: #2563eb"/>
     <use xlink:href="#m72f8ef5001" x="370.465454" y="83.084346" style="fill: #2563eb; stroke: #2563eb"/>
     <use xlink:href="#m72f8ef5001" x="387.510224" y="81.294309" style="fill: #2563eb; stroke: #2563eb"/>
     <use xlink:href="#m72f8ef5001" x="389.036622" y="80.317926" style="fill: #2563eb; stroke: #2563eb"/>
     <use xlink:href="#m72f8ef5001" x="389.291021" y="78.527889" style="fill: #2563eb; stroke: #2563eb"/>
     <use xlink:href="#m72f8ef5001" x="393.361414" y="78.365158" style="fill: #2563eb; stroke: #2563eb"/>
     <use xlink:href="#m72f8ef5001" x="398.449406" y="75.598737" style="fill: #2563eb; stroke: #2563eb"/>
     <use xlink:href="#m72f8ef5001" x="399.467004" y="72.669586" style="fill: #2563eb; stroke: #2563eb"/>
     <use xlink:href="#m72f8ef5001" x="412.186982" y="69.414973" style="fill: #2563eb; stroke: #2563eb"/>
     <use xlink:href="#m72f8ef5001" x="416.511774" y="67.787667" style="fill: #2563eb; stroke: #2563eb"/>
     <use xlink:href="#m72f8ef5001" x="426.433357" y="65.346708" style="fill: #2563eb; stroke: #2563eb"/>
     <use xlink:href="#m72f8ef5001" x="434.065344" y="65.183977" style="fill: #2563eb; stroke: #2563eb"/>
     <use xlink:href="#m72f8ef5001" x="462.812495" y="64.858516" style="fill: #2563eb; stroke: #2563eb"/>
     <use xlink:href="#m72f8ef5001" x="462.812495" y="64.370324" style="fill: #2563eb; stroke: #2563eb"/>
     <use xlink:href="#m72f8ef5001" x="464.847691" y="63.719402" style="fill: #2563eb; stroke: #2563eb"/>
     <use xlink:href="#m72f8ef5001" x="472.988477" y="62.743018" style="fill: #2563eb; stroke: #2563eb"/>
     <use xlink:href="#m72f8ef5001" x="473.242877" y="62.580287" style="fill: #2563eb; stroke: #2563eb"/>
     <use xlink:href="#m72f8ef5001" x="477.567669" y="62.417557" style="fill: #2563eb; stroke: #2563eb"/>
     <use xlink:href="#m72f8ef5001" x="481.383663" y="60.302058" style="fill: #2563eb; stroke: #2563eb"/>
     <use xlink:href="#m72f8ef5001" x="481.638062" y="59.976597" style="fill: #2563eb; stroke: #2563eb"/>
     <use xlink:href="#m72f8ef5001" x="483.673259" y="59.325675" style="fill: #2563eb; stroke: #2563eb"/>
     <use xlink:href="#m72f8ef5001" x="487.743652" y="58.674752" style="fill: #2563eb; stroke: #2563eb"/>
     <use xlink:href="#m72f8ef5001" x="491.814045" y="58.18656" style="fill: #2563eb; stroke: #2563eb"/>
     <use xlink:href="#m72f8ef5001" x="497.410835" y="57.535638" style="fill: #2563eb; stroke: #2563eb"/>
     <use xlink:href="#m72f8ef5001" x="500.46363" y="57.210176" style="fill: #2563eb; stroke: #2563eb"/>
     <use xlink:href="#m72f8ef5001" x="500.972429" y="56.721985" style="fill: #2563eb; stroke: #2563eb"/>
     <use xlink:href="#m72f8ef5001" x="501.226829" y="56.559254" style="fill: #2563eb; stroke: #2563eb"/>
     <use xlink:href="#m72f8ef5001" x="501.735628" y="56.233793" style="fill: #2563eb; stroke: #2563eb"/>
     <use xlink:href="#m72f8ef5001" x="502.244427" y="56.071062" style="fill: #2563eb; stroke: #2563eb"/>
     <use xlink:href="#m72f8ef5001" x="502.498827" y="55.58287" style="fill: #2563eb; stroke: #2563eb"/>
     <use xlink:href="#m72f8ef5001" x="504.025224" y="55.42014" style="fill: #2563eb; stroke: #2563eb"/>
     <use xlink:href="#m72f8ef5001" x="504.534023" y="55.094678" style="fill: #2563eb; stroke: #2563eb"/>
     <use xlink:href="#m72f8ef5001" x="505.551621" y="54.606486" style="fill: #2563eb; stroke: #2563eb"/>
     <use xlink:href="#m72f8ef5001" x="505.551621" y="54.443756" style="fill: #2563eb; stroke: #2563eb"/>
     <use xlink:href="#m72f8ef5001" x="505.551621" y="54.118295" style="fill: #2563eb; stroke: #2563eb"/>
     <use xlink:href="#m72f8ef5001" x="505.806021" y="53.955564" style="fill: #2563eb; stroke: #2563eb"/>
     <use xlink:href="#m72f8ef5001" x="506.31482" y="53.304641" style="fill: #2563eb; stroke: #2563eb"/>
     <use xlink:href="#m72f8ef5001" x="506.823619" y="52.97918" style="fill: #2563eb; stroke: #2563eb"/>
     <use xlink:href="#m72f8ef5001" x="507.078019" y="52.816449" style="fill: #2563eb; stroke: #2563eb"/>
     <use xlink:href="#m72f8ef5001" x="508.350016" y="52.653719" style="fill: #2563eb; stroke: #2563eb"/>
     <use xlink:href="#m72f8ef5001" x="508.858816" y="52.490988" style="fill: #2563eb; stroke: #2563eb"/>
     <use xlink:href="#m72f8ef5001" x="509.876414" y="52.165527" style="fill: #2563eb; stroke: #2563eb"/>
     <use xlink:href="#m72f8ef5001" x="509.876414" y="52.002796" style="fill: #2563eb; stroke: #2563eb"/>
     <use xlink:href="#m72f8ef5001" x="510.130813" y="51.677335" style="fill: #2563eb; stroke: #2563eb"/>
     <use xlink:href="#m72f8ef5001" x="510.639613" y="51.351874" style="fill: #2563eb; stroke: #2563eb"/>
     <use xlink:href="#m72f8ef5001" x="511.148412" y="50.538221" style="fill: #2563eb; stroke: #2563eb"/>
     <use xlink:href="#m72f8ef5001" x="511.91161" y="50.37549" style="fill: #2563eb; stroke: #2563eb"/>
     <use xlink:href="#m72f8ef5001" x="514.964405" y="50.212759" style="fill: #2563eb; stroke: #2563eb"/>
     <use xlink:href="#m72f8ef5001" x="515.218805" y="49.887298" style="fill: #2563eb; stroke: #2563eb"/>
     <use xlink:href="#m72f8ef5001" x="515.982003" y="49.236376" style="fill: #2563eb; stroke: #2563eb"/>
     <use xlink:href="#m72f8ef5001" x="515.982003" y="49.073645" style="fill: #2563eb; stroke: #2563eb"/>
     <use xlink:href="#m72f8ef5001" x="519.797997" y="48.910914" style="fill: #2563eb; stroke: #2563eb"/>
     <use xlink:href="#m72f8ef5001" x="520.052396" y="48.748184" style="fill: #2563eb; stroke: #2563eb"/>
     <use xlink:href="#m72f8ef5001" x="520.306796" y="48.585453" style="fill: #2563eb; stroke: #2563eb"/>
     <use xlink:href="#m72f8ef5001" x="520.561195" y="48.422723" style="fill: #2563eb; stroke: #2563eb"/>
     <use xlink:href="#m72f8ef5001" x="524.631588" y="48.259992" style="fill: #2563eb; stroke: #2563eb"/>
     <use xlink:href="#m72f8ef5001" x="524.885988" y="47.934531" style="fill: #2563eb; stroke: #2563eb"/>
     <use xlink:href="#m72f8ef5001" x="533.535573" y="47.609069" style="fill: #2563eb; stroke: #2563eb"/>
     <use xlink:href="#m72f8ef5001" x="533.789973" y="47.446339" style="fill: #2563eb; stroke: #2563eb"/>
     <use xlink:href="#m72f8ef5001" x="533.789973" y="47.283608" style="fill: #2563eb; stroke: #2563eb"/>
     <use xlink:href="#m72f8ef5001" x="534.044372" y="47.120878" style="fill: #2563eb; stroke: #2563eb"/>
     <use xlink:href="#m72f8ef5001" x="534.298772" y="46.795416" style="fill: #2563eb; stroke: #2563eb"/>
     <use xlink:href="#m72f8ef5001" x="534.807571" y="46.469955" style="fill: #2563eb; stroke: #2563eb"/>
     <use xlink:href="#m72f8ef5001" x="538.114765" y="46.307224" style="fill: #2563eb; stroke: #2563eb"/>
     <use xlink:href="#m72f8ef5001" x="538.369165" y="46.144494" style="fill: #2563eb; stroke: #2563eb"/>
     <use xlink:href="#m72f8ef5001" x="538.369165" y="45.981763" style="fill: #2563eb; stroke: #2563eb"/>
     <use xlink:href="#m72f8ef5001" x="538.877964" y="45.656302" style="fill: #2563eb; stroke: #2563eb"/>
     <use xlink:href="#m72f8ef5001" x="539.132363" y="45.493571" style="fill: #2563eb; stroke: #2563eb"/>
     <use xlink:href="#m72f8ef5001" x="539.386763" y="45.330841" style="fill: #2563eb; stroke: #2563eb"/>
     <use xlink:href="#m72f8ef5001" x="539.386763" y="45.16811" style="fill: #2563eb; stroke: #2563eb"/>
     <use xlink:href="#m72f8ef5001" x="543.711556" y="45.005379" style="fill: #2563eb; stroke: #2563eb"/>
     <use xlink:href="#m72f8ef5001" x="543.965955" y="44.679918" style="fill: #2563eb; stroke: #2563eb"/>
     <use xlink:href="#m72f8ef5001" x="544.220355" y="44.517187" style="fill: #2563eb; stroke: #2563eb"/>
    </g>
   </g>
   <g id="line2d_16">
    <path d="M 100.801918 397.317187 
L 101.056317 396.991726 
L 101.056317 396.828996 
L 101.310717 396.340804 
L 101.310717 396.015342 
L 101.565116 395.201689 
L 101.565116 394.876228 
L 101.819516 394.550767 
L 102.073915 393.899844 
L 102.328315 392.76073 
L 103.091514 391.621616 
L 104.617911 390.970693 
L 105.635509 390.645232 
L 105.889909 390.15704 
L 105.889909 385.275121 
L 108.179505 379.254088 
L 114.030695 376.162206 
L 115.557092 363.794678 
L 118.864287 351.101689 
L 126.750673 347.847077 
L 131.329865 336.618664 
L 137.435455 335.479549 
L 141.760247 322.135638 
L 143.541044 321.321985 
L 156.006623 316.928258 
L 158.550618 302.607962 
L 158.550618 301.95704 
L 174.577791 299.841542 
L 175.849788 292.030472 
L 179.920181 277.059254 
L 185.008173 269.085453 
L 186.53457 263.552612 
L 189.332965 260.948922 
L 189.332965 260.46073 
L 202.816142 252.486929 
L 202.816142 245.00132 
L 217.062518 243.048553 
L 220.624111 234.749291 
L 226.220902 228.728258 
L 244.028871 228.240066 
L 244.028871 226.77549 
L 253.441655 224.822723 
L 253.696055 223.520878 
L 254.968052 222.707224 
L 260.819242 222.219033 
L 261.836841 221.242649 
L 271.504024 220.428996 
L 321.366338 219.940804 
L 330.779122 214.245232 
L 333.068718 213.431579 
L 333.323118 212.617926 
L 340.955104 206.922354 
L 343.4991 203.993202 
L 351.385487 200.73859 
L 353.929482 195.69394 
L 357.491076 193.252981 
L 376.316644 188.859254 
L 376.825443 188.371062 
L 396.159809 188.208331 
L 396.159809 183.651874 
L 397.940606 183.000951 
L 411.423783 182.838221 
L 411.932582 178.607224 
L 419.818969 178.119033 
L 422.617364 177.630841 
L 581.362691 177.46811 
L 581.87149 177.305379 
L 582.12589 176.817187 
L 582.634689 176.654457 
L 582.889088 176.491726 
L 583.906686 176.328996 
L 584.415486 176.166265 
L 588.485879 176.003534 
L 592.810671 175.840804 
L 604.767451 175.515342 
L 605.02185 175.352612 
L 605.02185 175.027151 
L 605.27625 174.86442 
L 605.530649 174.701689 
L 605.785049 174.538959 
L 606.293848 174.376228 
L 607.311446 174.213497 
L 607.565846 174.050767 
L 608.074645 173.888036 
" clip-path="url(#p99fe0636c2)" style="fill: none; stroke: #dc2626; stroke-width: 2; stroke-linecap: round"/>
    <defs>
     <path id="m4f94ae1023" d="M 0 2 
C 0.530406 2 1.03916 1.789267 1.414214 1.414214 
C 1.789267 1.03916 2 0.530406 2 0 
C 2 -0.530406 1.789267 -1.03916 1.414214 -1.414214 
C 1.03916 -1.789267 0.530406 -2 0 -2 
C -0.530406 -2 -1.03916 -1.789267 -1.414214 -1.414214 
C -1.789267 -1.03916 -2 -0.530406 -2 0 
C -2 0.530406 -1.789267 1.03916 -1.414214 1.414214 
C -1.03916 1.789267 -0.530406 2 0 2 
z
" style="stroke: #dc2626"/>
    </defs>
    <g clip-path="url(#p99fe0636c2)">
     <use xlink:href="#m4f94ae1023" x="100.801918" y="397.317187" style="fill: #dc2626; stroke: #dc2626"/>
     <use xlink:href="#m4f94ae1023" x="101.056317" y="396.991726" style="fill: #dc2626; stroke: #dc2626"/>
     <use xlink:href="#m4f94ae1023" x="101.056317" y="396.828996" style="fill: #dc2626; stroke: #dc2626"/>
     <use xlink:href="#m4f94ae1023" x="101.310717" y="396.340804" style="fill: #dc2626; stroke: #dc2626"/>
     <use xlink:href="#m4f94ae1023" x="101.310717" y="396.015342" style="fill: #dc2626; stroke: #dc2626"/>
     <use xlink:href="#m4f94ae1023" x="101.565116" y="395.201689" style="fill: #dc2626; stroke: #dc2626"/>
     <use xlink:href="#m4f94ae1023" x="101.565116" y="394.876228" style="fill: #dc2626; stroke: #dc2626"/>
     <use xlink:href="#m4f94ae1023" x="101.819516" y="394.550767" style="fill: #dc2626; stroke: #dc2626"/>
     <use xlink:href="#m4f94ae1023" x="102.073915" y="393.899844" style="fill: #dc2626; stroke: #dc2626"/>
     <use xlink:href="#m4f94ae1023" x="102.328315" y="392.76073" style="fill: #dc2626; stroke: #dc2626"/>
     <use xlink:href="#m4f94ae1023" x="103.091514" y="391.621616" style="fill: #dc2626; stroke: #dc2626"/>
     <use xlink:href="#m4f94ae1023" x="104.617911" y="390.970693" style="fill: #dc2626; stroke: #dc2626"/>
     <use xlink:href="#m4f94ae1023" x="105.635509" y="390.645232" style="fill: #dc2626; stroke: #dc2626"/>
     <use xlink:href="#m4f94ae1023" x="105.889909" y="390.15704" style="fill: #dc2626; stroke: #dc2626"/>
     <use xlink:href="#m4f94ae1023" x="105.889909" y="385.275121" style="fill: #dc2626; stroke: #dc2626"/>
     <use xlink:href="#m4f94ae1023" x="108.179505" y="379.254088" style="fill: #dc2626; stroke: #dc2626"/>
     <use xlink:href="#m4f94ae1023" x="114.030695" y="376.162206" style="fill: #dc2626; stroke: #dc2626"/>
     <use xlink:href="#m4f94ae1023" x="115.557092" y="363.794678" style="fill: #dc2626; stroke: #dc2626"/>
     <use xlink:href="#m4f94ae1023" x="118.864287" y="351.101689" style="fill: #dc2626; stroke: #dc2626"/>
     <use xlink:href="#m4f94ae1023" x="126.750673" y="347.847077" style="fill: #dc2626; stroke: #dc2626"/>
     <use xlink:href="#m4f94ae1023" x="131.329865" y="336.618664" style="fill: #dc2626; stroke: #dc2626"/>
     <use xlink:href="#m4f94ae1023" x="137.435455" y="335.479549" style="fill: #dc2626; stroke: #dc2626"/>
     <use xlink:href="#m4f94ae1023" x="141.760247" y="322.135638" style="fill: #dc2626; stroke: #dc2626"/>
     <use xlink:href="#m4f94ae1023" x="143.541044" y="321.321985" style="fill: #dc2626; stroke: #dc2626"/>
     <use xlink:href="#m4f94ae1023" x="156.006623" y="316.928258" style="fill: #dc2626; stroke: #dc2626"/>
     <use xlink:href="#m4f94ae1023" x="158.550618" y="302.607962" style="fill: #dc2626; stroke: #dc2626"/>
     <use xlink:href="#m4f94ae1023" x="158.550618" y="301.95704" style="fill: #dc2626; stroke: #dc2626"/>
     <use xlink:href="#m4f94ae1023" x="174.577791" y="299.841542" style="fill: #dc2626; stroke: #dc2626"/>
     <use xlink:href="#m4f94ae1023" x="175.849788" y="292.030472" style="fill: #dc2626; stroke: #dc2626"/>
     <use xlink:href="#m4f94ae1023" x="179.920181" y="277.059254" style="fill: #dc2626; stroke: #dc2626"/>
     <use xlink:href="#m4f94ae1023" x="185.008173" y="269.085453" style="fill: #dc2626; stroke: #dc2626"/>
     <use xlink:href="#m4f94ae1023" x="186.53457" y="263.552612" style="fill: #dc2626; stroke: #dc2626"/>
     <use xlink:href="#m4f94ae1023" x="189.332965" y="260.948922" style="fill: #dc2626; stroke: #dc2626"/>
     <use xlink:href="#m4f94ae1023" x="189.332965" y="260.46073" style="fill: #dc2626; stroke: #dc2626"/>
     <use xlink:href="#m4f94ae1023" x="202.816142" y="252.486929" style="fill: #dc2626; stroke: #dc2626"/>
     <use xlink:href="#m4f94ae1023" x="202.816142" y="245.00132" style="fill: #dc2626; stroke: #dc2626"/>
     <use xlink:href="#m4f94ae1023" x="217.062518" y="243.048553" style="fill: #dc2626; stroke: #dc2626"/>
     <use xlink:href="#m4f94ae1023" x="220.624111" y="234.749291" style="fill: #dc2626; stroke: #dc2626"/>
     <use xlink:href="#m4f94ae1023" x="226.220902" y="228.728258" style="fill: #dc2626; stroke: #dc2626"/>
     <use xlink:href="#m4f94ae1023" x="244.028871" y="228.240066" style="fill: #dc2626; stroke: #dc2626"/>
     <use xlink:href="#m4f94ae1023" x="244.028871" y="226.77549" style="fill: #dc2626; stroke: #dc2626"/>
     <use xlink:href="#m4f94ae1023" x="253.441655" y="224.822723" style="fill: #dc2626; stroke: #dc2626"/>
     <use xlink:href="#m4f94ae1023" x="253.696055" y="223.520878" style="fill: #dc2626; stroke: #dc2626"/>
     <use xlink:href="#m4f94ae1023" x="254.968052" y="222.707224" style="fill: #dc2626; stroke: #dc2626"/>
     <use xlink:href="#m4f94ae1023" x="260.819242" y="222.219033" style="fill: #dc2626; stroke: #dc2626"/>
     <use xlink:href="#m4f94ae1023" x="261.836841" y="221.242649" style="fill: #dc2626; stroke: #dc2626"/>
     <use xlink:href="#m4f94ae1023" x="271.504024" y="220.428996" style="fill: #dc2626; stroke: #dc2626"/>
     <use xlink:href="#m4f94ae1023" x="321.366338" y="219.940804" style="fill: #dc2626; stroke: #dc2626"/>
     <use xlink:href="#m4f94ae1023" x="330.779122" y="214.245232" style="fill: #dc2626; stroke: #dc2626"/>
     <use xlink:href="#m4f94ae1023" x="333.068718" y="213.431579" style="fill: #dc2626; stroke: #dc2626"/>
     <use xlink:href="#m4f94ae1023" x="333.323118" y="212.617926" style="fill: #dc2626; stroke: #dc2626"/>
     <use xlink:href="#m4f94ae1023" x="340.955104" y="206.922354" style="fill: #dc2626; stroke: #dc2626"/>
     <use xlink:href="#m4f94ae1023" x="343.4991" y="203.993202" style="fill: #dc2626; stroke: #dc2626"/>
     <use xlink:href="#m4f94ae1023" x="351.385487" y="200.73859" style="fill: #dc2626; stroke: #dc2626"/>
     <use xlink:href="#m4f94ae1023" x="353.929482" y="195.69394" style="fill: #dc2626; stroke: #dc2626"/>
     <use xlink:href="#m4f94ae1023" x="357.491076" y="193.252981" style="fill: #dc2626; stroke: #dc2626"/>
     <use xlink:href="#m4f94ae1023" x="376.316644" y="188.859254" style="fill: #dc2626; stroke: #dc2626"/>
     <use xlink:href="#m4f94ae1023" x="376.825443" y="188.371062" style="fill: #dc2626; stroke: #dc2626"/>
     <use xlink:href="#m4f94ae1023" x="396.159809" y="188.208331" style="fill: #dc2626; stroke: #dc2626"/>
     <use xlink:href="#m4f94ae1023" x="396.159809" y="183.651874" style="fill: #dc2626; stroke: #dc2626"/>
     <use xlink:href="#m4f94ae1023" x="397.940606" y="183.000951" style="fill: #dc2626; stroke: #dc2626"/>
     <use xlink:href="#m4f94ae1023" x="411.423783" y="182.838221" style="fill: #dc2626; stroke: #dc2626"/>
     <use xlink:href="#m4f94ae1023" x="411.932582" y="178.607224" style="fill: #dc2626; stroke: #dc2626"/>
     <use xlink:href="#m4f94ae1023" x="419.818969" y="178.119033" style="fill: #dc2626; stroke: #dc2626"/>
     <use xlink:href="#m4f94ae1023" x="422.617364" y="177.630841" style="fill: #dc2626; stroke: #dc2626"/>
     <use xlink:href="#m4f94ae1023" x="581.362691" y="177.46811" style="fill: #dc2626; stroke: #dc2626"/>
     <use xlink:href="#m4f94ae1023" x="581.87149" y="177.305379" style="fill: #dc2626; stroke: #dc2626"/>
     <use xlink:href="#m4f94ae1023" x="582.12589" y="176.817187" style="fill: #dc2626; stroke: #dc2626"/>
     <use xlink:href="#m4f94ae1023" x="582.634689" y="176.654457" style="fill: #dc2626; stroke: #dc2626"/>
     <use xlink:href="#m4f94ae1023" x="582.889088" y="176.491726" style="fill: #dc2626; stroke: #dc2626"/>
     <use xlink:href="#m4f94ae1023" x="583.906686" y="176.328996" style="fill: #dc2626; stroke: #dc2626"/>
     <use xlink:href="#m4f94ae1023" x="584.415486" y="176.166265" style="fill: #dc2626; stroke: #dc2626"/>
     <use xlink:href="#m4f94ae1023" x="588.485879" y="176.003534" style="fill: #dc2626; stroke: #dc2626"/>
     <use xlink:href="#m4f94ae1023" x="592.810671" y="175.840804" style="fill: #dc2626; stroke: #dc2626"/>
     <use xlink:href="#m4f94ae1023" x="604.767451" y="175.515342" style="fill: #dc2626; stroke: #dc2626"/>
     <use xlink:href="#m4f94ae1023" x="605.02185" y="175.352612" style="fill: #dc2626; stroke: #dc2626"/>
     <use xlink:href="#m4f94ae1023" x="605.02185" y="175.027151" style="fill: #dc2626; stroke: #dc2626"/>
     <use xlink:href="#m4f94ae1023" x="605.27625" y="174.86442" style="fill: #dc2626; stroke: #dc2626"/>
     <use xlink:href="#m4f94ae1023" x="605.530649" y="174.701689" style="fill: #dc2626; stroke: #dc2626"/>
     <use xlink:href="#m4f94ae1023" x="605.785049" y="174.538959" style="fill: #dc2626; stroke: #dc2626"/>
     <use xlink:href="#m4f94ae1023" x="606.293848" y="174.376228" style="fill: #dc2626; stroke: #dc2626"/>
     <use xlink:href="#m4f94ae1023" x="607.311446" y="174.213497" style="fill: #dc2626; stroke: #dc2626"/>
     <use xlink:href="#m4f94ae1023" x="607.565846" y="174.050767" style="fill: #dc2626; stroke: #dc2626"/>
     <use xlink:href="#m4f94ae1023" x="608.074645" y="173.888036" style="fill: #dc2626; stroke: #dc2626"/>
    </g>
   </g>
   <g id="patch_3">
    <path d="M 75.438281 414.957187 
L 75.438281 26.877187 
" style="fill: none; stroke: #cccccc; stroke-width: 1.25; stroke-linejoin: miter; stroke-linecap: square"/>
   </g>
   <g id="patch_4">
    <path d="M 633.438281 414.957187 
L 633.438281 26.877187 
" style="fill: none; stroke: #cccccc; stroke-width: 1.25; stroke-linejoin: miter; stroke-linecap: square"/>
   </g>
   <g id="patch_5">
    <path d="M 75.438281 414.957187 
L 633.438281 414.957187 
" style="fill: none; stroke: #cccccc; stroke-width: 1.25; stroke-linejoin: miter; stroke-linecap: square"/>
   </g>
   <g id="patch_6">
    <path d="M 75.438281 26.877187 
L 633.438281 26.877187 
" style="fill: none; stroke: #cccccc; stroke-width: 1.25; stroke-linejoin: miter; stroke-linecap: square"/>
   </g>
   <g id="text_17">
    <!-- Pareto Frontiers: Score vs Overhead — DE -->
    <g style="fill: #262626" transform="translate(165.640781 20.877187) scale(0.18 -0.18)">
     <defs>
      <path id="DejaVuSans-33" d="M 1259 4147 
L 1259 2394 
L 2053 2394 
Q 2494 2394 2734 2622 
Q 2975 2850 2975 3272 
Q 2975 3691 2734 3919 
Q 2494 4147 2053 4147 
L 1259 4147 
z
M 628 4666 
L 2053 4666 
Q 2838 4666 3239 4311 
Q 3641 3956 3641 3272 
Q 3641 2581 3239 2228 
Q 2838 1875 2053 1875 
L 1259 1875 
L 1259 0 
L 628 0 
L 628 4666 
z
" transform="scale(0.015625)"/>
      <path id="DejaVuSans-57" d="M 1172 4494 
L 1172 3500 
L 2356 3500 
L 2356 3053 
L 1172 3053 
L 1172 1153 
Q 1172 725 1289 603 
Q 1406 481 1766 481 
L 2356 481 
L 2356 0 
L 1766 0 
Q 1100 0 847 248 
Q 594 497 594 1153 
L 594 3053 
L 172 3053 
L 172 3500 
L 594 3500 
L 594 4494 
L 1172 4494 
z
" transform="scale(0.015625)"/>
      <path id="DejaVuSans-29" d="M 628 4666 
L 3309 4666 
L 3309 4134 
L 1259 4134 
L 1259 2759 
L 3109 2759 
L 3109 2228 
L 1259 2228 
L 1259 0 
L 628 0 
L 628 4666 
z
" transform="scale(0.015625)"/>
      <path id="DejaVuSans-51" d="M 3513 2113 
L 3513 0 
L 2938 0 
L 2938 2094 
Q 2938 2591 2744 2837 
Q 2550 3084 2163 3084 
Q 1697 3084 1428 2787 
Q 1159 2491 1159 1978 
L 1159 0 
L 581 0 
L 581 3500 
L 1159 3500 
L 1159 2956 
Q 1366 3272 1645 3428 
Q 1925 3584 2291 3584 
Q 2894 3584 3203 3211 
Q 3513 2838 3513 2113 
z
" transform="scale(0.015625)"/>
      <path id="DejaVuSans-56" d="M 2834 3397 
L 2834 2853 
Q 2591 2978 2328 3040 
Q 2066 3103 1784 3103 
Q 1356 3103 1142 2972 
Q 928 2841 928 2578 
Q 928 2378 1081 2264 
Q 1234 2150 1697 2047 
L 1894 2003 
Q 2506 1872 2764 1633 
Q 3022 1394 3022 966 
Q 3022 478 2636 193 
Q 2250 -91 1575 -91 
Q 1294 -91 989 -36 
Q 684 19 347 128 
L 347 722 
Q 666 556 975 473 
Q 1284 391 1588 391 
Q 1994 391 2212 530 
Q 2431 669 2431 922 
Q 2431 1156 2273 1281 
Q 2116 1406 1581 1522 
L 1381 1569 
Q 847 1681 609 1914 
Q 372 2147 372 2553 
Q 372 3047 722 3315 
Q 1072 3584 1716 3584 
Q 2034 3584 2315 3537 
Q 2597 3491 2834 3397 
z
" transform="scale(0.015625)"/>
      <path id="DejaVuSans-1d" d="M 750 794 
L 1409 794 
L 1409 0 
L 750 0 
L 750 794 
z
M 750 3309 
L 1409 3309 
L 1409 2516 
L 750 2516 
L 750 3309 
z
" transform="scale(0.015625)"/>
      <path id="DejaVuSans-af6" d="M 313 1978 
L 6088 1978 
L 6088 1528 
L 313 1528 
L 313 1978 
z
" transform="scale(0.015625)"/>
      <path id="DejaVuSans-27" d="M 1259 4147 
L 1259 519 
L 2022 519 
Q 2988 519 3436 956 
Q 3884 1394 3884 2338 
Q 3884 3275 3436 3711 
Q 2988 4147 2022 4147 
L 1259 4147 
z
M 628 4666 
L 1925 4666 
Q 3281 4666 3915 4102 
Q 4550 3538 4550 2338 
Q 4550 1131 3912 565 
Q 3275 0 1925 0 
L 628 0 
L 628 4666 
z
" transform="scale(0.015625)"/>
      <path id="DejaVuSans-28" d="M 628 4666 
L 3578 4666 
L 3578 4134 
L 1259 4134 
L 1259 2753 
L 3481 2753 
L 3481 2222 
L 1259 2222 
L 1259 531 
L 3634 531 
L 3634 0 
L 628 0 
L 628 4666 
z
" transform="scale(0.015625)"/>
     </defs>
     <use xlink:href="#DejaVuSans-33"/>
     <use xlink:href="#DejaVuSans-44" transform="translate(55.8125 0)"/>
     <use xlink:href="#DejaVuSans-55" transform="translate(117.09375 0)"/>
     <use xlink:href="#DejaVuSans-48" transform="translate(156 0)"/>
     <use xlink:href="#DejaVuSans-57" transform="translate(217.53125 0)"/>
     <use xlink:href="#DejaVuSans-52" transform="translate(256.734375 0)"/>
     <use xlink:href="#DejaVuSans-3" transform="translate(317.921875 0)"/>
     <use xlink:href="#DejaVuSans-29" transform="translate(349.703125 0)"/>
     <use xlink:href="#DejaVuSans-55" transform="translate(399.9375 0)"/>
     <use xlink:href="#DejaVuSans-52" transform="translate(438.84375 0)"/>
     <use xlink:href="#DejaVuSans-51" transform="translate(500.03125 0)"/>
     <use xlink:href="#DejaVuSans-57" transform="translate(563.40625 0)"/>
     <use xlink:href="#DejaVuSans-4c" transform="translate(602.609375 0)"/>
     <use xlink:href="#DejaVuSans-48" transform="translate(630.390625 0)"/>
     <use xlink:href="#DejaVuSans-55" transform="translate(691.921875 0)"/>
     <use xlink:href="#DejaVuSans-56" transform="translate(733.03125 0)"/>
     <use xlink:href="#DejaVuSans-1d" transform="translate(785.125 0)"/>
     <use xlink:href="#DejaVuSans-3" transform="translate(818.8125 0)"/>
     <use xlink:href="#DejaVuSans-36" transform="translate(850.59375 0)"/>
     <use xlink:href="#DejaVuSans-46" transform="translate(914.078125 0)"/>
     <use xlink:href="#DejaVuSans-52" transform="translate(969.0625 0)"/>
     <use xlink:href="#DejaVuSans-55" transform="translate(1030.25 0)"/>
     <use xlink:href="#DejaVuSans-48" transform="translate(1069.15625 0)"/>
     <use xlink:href="#DejaVuSans-3" transform="translate(1130.6875 0)"/>
     <use xlink:href="#DejaVuSans-59" transform="translate(1162.46875 0)"/>
     <use xlink:href="#DejaVuSans-56" transform="translate(1221.65625 0)"/>
     <use xlink:href="#DejaVuSans-3" transform="translate(1273.75 0)"/>
     <use xlink:href="#DejaVuSans-32" transform="translate(1305.53125 0)"/>
     <use xlink:href="#DejaVuSans-59" transform="translate(1384.25 0)"/>
     <use xlink:href="#DejaVuSans-48" transform="translate(1443.4375 0)"/>
     <use xlink:href="#DejaVuSans-55" transform="translate(1504.96875 0)"/>
     <use xlink:href="#DejaVuSans-4b" transform="translate(1544.328125 0)"/>
     <use xlink:href="#DejaVuSans-48" transform="translate(1607.703125 0)"/>
     <use xlink:href="#DejaVuSans-44" transform="translate(1669.234375 0)"/>
     <use xlink:href="#DejaVuSans-47" transform="translate(1730.515625 0)"/>
     <use xlink:href="#DejaVuSans-3" transform="translate(1794 0)"/>
     <use xlink:href="#DejaVuSans-af6" transform="translate(1825.78125 0)"/>
     <use xlink:href="#DejaVuSans-3" transform="translate(1925.78125 0)"/>
     <use xlink:href="#DejaVuSans-27" transform="translate(1957.5625 0)"/>
     <use xlink:href="#DejaVuSans-28" transform="translate(2034.5625 0)"/>
    </g>
   </g>
   <g id="legend_1">
    <g id="patch_7">
     <path d="M 479.898281 410.457187 
L 627.138281 410.457187 
Q 628.938281 410.457187 628.938281 408.657187 
L 628.938281 355.554375 
Q 628.938281 353.754375 627.138281 353.754375 
L 479.898281 353.754375 
Q 478.098281 353.754375 478.098281 355.554375 
L 478.098281 408.657187 
Q 478.098281 410.457187 479.898281 410.457187 
z
" style="fill: #ffffff; opacity: 0.8; stroke: #cccccc; stroke-linejoin: miter"/>
    </g>
    <g id="line2d_17">
     <path d="M 481.698281 361.042969 
L 490.698281 361.042969 
L 499.698281 361.042969 
" style="fill: none; stroke: #2563eb; stroke-width: 2; stroke-linecap: round"/>
     <g>
      <use xlink:href="#m72f8ef5001" x="490.698281" y="361.042969" style="fill: #2563eb; stroke: #2563eb"/>
     </g>
    </g>
    <g id="text_18">
     <!-- DeepSeek V3 frontier -->
     <g style="fill: #262626" transform="translate(506.898281 364.192969) scale(0.09 -0.09)">
      <defs>
       <path id="DejaVuSans-53" d="M 1159 525 
L 1159 -1331 
L 581 -1331 
L 581 3500 
L 1159 3500 
L 1159 2969 
Q 1341 3281 1617 3432 
Q 1894 3584 2278 3584 
Q 2916 3584 3314 3078 
Q 3713 2572 3713 1747 
Q 3713 922 3314 415 
Q 2916 -91 2278 -91 
Q 1894 -91 1617 61 
Q 1341 213 1159 525 
z
M 3116 1747 
Q 3116 2381 2855 2742 
Q 2594 3103 2138 3103 
Q 1681 3103 1420 2742 
Q 1159 2381 1159 1747 
Q 1159 1113 1420 752 
Q 1681 391 2138 391 
Q 2594 391 2855 752 
Q 3116 1113 3116 1747 
z
" transform="scale(0.015625)"/>
       <path id="DejaVuSans-4e" d="M 581 4863 
L 1159 4863 
L 1159 1991 
L 2875 3500 
L 3609 3500 
L 1753 1863 
L 3688 0 
L 2938 0 
L 1159 1709 
L 1159 0 
L 581 0 
L 581 4863 
z
" transform="scale(0.015625)"/>
       <path id="DejaVuSans-39" d="M 1831 0 
L 50 4666 
L 709 4666 
L 2188 738 
L 3669 4666 
L 4325 4666 
L 2547 0 
L 1831 0 
z
" transform="scale(0.015625)"/>
       <path id="DejaVuSans-16" d="M 2597 2516 
Q 3050 2419 3304 2112 
Q 3559 1806 3559 1356 
Q 3559 666 3084 287 
Q 2609 -91 1734 -91 
Q 1441 -91 1130 -33 
Q 819 25 488 141 
L 488 750 
Q 750 597 1062 519 
Q 1375 441 1716 441 
Q 2309 441 2620 675 
Q 2931 909 2931 1356 
Q 2931 1769 2642 2001 
Q 2353 2234 1838 2234 
L 1294 2234 
L 1294 2753 
L 1863 2753 
Q 2328 2753 2575 2939 
Q 2822 3125 2822 3475 
Q 2822 3834 2567 4026 
Q 2313 4219 1838 4219 
Q 1578 4219 1281 4162 
Q 984 4106 628 3988 
L 628 4550 
Q 988 4650 1302 4700 
Q 1616 4750 1894 4750 
Q 2613 4750 3031 4423 
Q 3450 4097 3450 3541 
Q 3450 3153 3228 2886 
Q 3006 2619 2597 2516 
z
" transform="scale(0.015625)"/>
       <path id="DejaVuSans-49" d="M 2375 4863 
L 2375 4384 
L 1825 4384 
Q 1516 4384 1395 4259 
Q 1275 4134 1275 3809 
L 1275 3500 
L 2222 3500 
L 2222 3053 
L 1275 3053 
L 1275 0 
L 697 0 
L 697 3053 
L 147 3053 
L 147 3500 
L 697 3500 
L 697 3744 
Q 697 4328 969 4595 
Q 1241 4863 1831 4863 
L 2375 4863 
z
" transform="scale(0.015625)"/>
      </defs>
      <use xlink:href="#DejaVuSans-27"/>
      <use xlink:href="#DejaVuSans-48" transform="translate(77 0)"/>
      <use xlink:href="#DejaVuSans-48" transform="translate(138.53125 0)"/>
      <use xlink:href="#DejaVuSans-53" transform="translate(200.0625 0)"/>
      <use xlink:href="#DejaVuSans-36" transform="translate(263.546875 0)"/>
      <use xlink:href="#DejaVuSans-48" transform="translate(327.03125 0)"/>
      <use xlink:href="#DejaVuSans-48" transform="translate(388.5625 0)"/>
      <use xlink:href="#DejaVuSans-4e" transform="translate(450.09375 0)"/>
      <use xlink:href="#DejaVuSans-3" transform="translate(508 0)"/>
      <use xlink:href="#DejaVuSans-39" transform="translate(539.78125 0)"/>
      <use xlink:href="#DejaVuSans-16" transform="translate(608.1875 0)"/>
      <use xlink:href="#DejaVuSans-3" transform="translate(671.8125 0)"/>
      <use xlink:href="#DejaVuSans-49" transform="translate(703.59375 0)"/>
      <use xlink:href="#DejaVuSans-55" transform="translate(738.796875 0)"/>
      <use xlink:href="#DejaVuSans-52" transform="translate(777.703125 0)"/>
      <use xlink:href="#DejaVuSans-51" transform="translate(838.890625 0)"/>
      <use xlink:href="#DejaVuSans-57" transform="translate(902.265625 0)"/>
      <use xlink:href="#DejaVuSans-4c" transform="translate(941.46875 0)"/>
      <use xlink:href="#DejaVuSans-48" transform="translate(969.25 0)"/>
      <use xlink:href="#DejaVuSans-55" transform="translate(1030.78125 0)"/>
     </g>
    </g>
    <g id="PathCollection_1">
     <defs>
      <path id="m8da4802e95" d="M 0 -7.071068 
L -1.587554 -2.18508 
L -6.724985 -2.18508 
L -2.568716 0.834626 
L -4.156269 5.720614 
L -0 2.700907 
L 4.156269 5.720614 
L 2.568716 0.834626 
L 6.724985 -2.18508 
L 1.587554 -2.18508 
z
" style="stroke: #000000"/>
     </defs>
     <g>
      <use xlink:href="#m8da4802e95" x="490.698281" y="375.331172" style="fill: #ff0000; stroke: #000000"/>
     </g>
    </g>
    <g id="text_19">
     <!-- DeepSeek V3 best (0.717) -->
     <g style="fill: #262626" transform="translate(506.898281 377.693672) scale(0.09 -0.09)">
      <defs>
       <path id="DejaVuSans-45" d="M 3116 1747 
Q 3116 2381 2855 2742 
Q 2594 3103 2138 3103 
Q 1681 3103 1420 2742 
Q 1159 2381 1159 1747 
Q 1159 1113 1420 752 
Q 1681 391 2138 391 
Q 2594 391 2855 752 
Q 3116 1113 3116 1747 
z
M 1159 2969 
Q 1341 3281 1617 3432 
Q 1894 3584 2278 3584 
Q 2916 3584 3314 3078 
Q 3713 2572 3713 1747 
Q 3713 922 3314 415 
Q 2916 -91 2278 -91 
Q 1894 -91 1617 61 
Q 1341 213 1159 525 
L 1159 0 
L 581 0 
L 581 4863 
L 1159 4863 
L 1159 2969 
z
" transform="scale(0.015625)"/>
      </defs>
      <use xlink:href="#DejaVuSans-27"/>
      <use xlink:href="#DejaVuSans-48" transform="translate(77 0)"/>
      <use xlink:href="#DejaVuSans-48" transform="translate(138.53125 0)"/>
      <use xlink:href="#DejaVuSans-53" transform="translate(200.0625 0)"/>
      <use xlink:href="#DejaVuSans-36" transform="translate(263.546875 0)"/>
      <use xlink:href="#DejaVuSans-48" transform="translate(327.03125 0)"/>
      <use xlink:href="#DejaVuSans-48" transform="translate(388.5625 0)"/>
      <use xlink:href="#DejaVuSans-4e" transform="translate(450.09375 0)"/>
      <use xlink:href="#DejaVuSans-3" transform="translate(508 0)"/>
      <use xlink:href="#DejaVuSans-39" transform="translate(539.78125 0)"/>
      <use xlink:href="#DejaVuSans-16" transform="translate(608.1875 0)"/>
      <use xlink:href="#DejaVuSans-3" transform="translate(671.8125 0)"/>
      <use xlink:href="#DejaVuSans-45" transform="translate(703.59375 0)"/>
      <use xlink:href="#DejaVuSans-48" transform="translate(767.078125 0)"/>
      <use xlink:href="#DejaVuSans-56" transform="translate(828.609375 0)"/>
      <use xlink:href="#DejaVuSans-57" transform="translate(880.703125 0)"/>
      <use xlink:href="#DejaVuSans-3" transform="translate(919.90625 0)"/>
      <use xlink:href="#DejaVuSans-b" transform="translate(951.6875 0)"/>
      <use xlink:href="#DejaVuSans-13" transform="translate(990.703125 0)"/>
      <use xlink:href="#DejaVuSans-11" transform="translate(1054.328125 0)"/>
      <use xlink:href="#DejaVuSans-1a" transform="translate(1086.109375 0)"/>
      <use xlink:href="#DejaVuSans-14" transform="translate(1149.734375 0)"/>
      <use xlink:href="#DejaVuSans-1a" transform="translate(1213.359375 0)"/>
      <use xlink:href="#DejaVuSans-c" transform="translate(1276.984375 0)"/>
     </g>
    </g>
    <g id="line2d_18">
     <path d="M 481.698281 388.044375 
L 490.698281 388.044375 
L 499.698281 388.044375 
" style="fill: none; stroke: #dc2626; stroke-width: 2; stroke-linecap: round"/>
     <g>
      <use xlink:href="#m4f94ae1023" x="490.698281" y="388.044375" style="fill: #dc2626; stroke: #dc2626"/>
     </g>
    </g>
    <g id="text_20">
     <!-- Kimi K2 frontier -->
     <g style="fill: #262626" transform="translate(506.898281 391.194375) scale(0.09 -0.09)">
      <defs>
       <path id="DejaVuSans-2e" d="M 628 4666 
L 1259 4666 
L 1259 2694 
L 3353 4666 
L 4166 4666 
L 1850 2491 
L 4331 0 
L 3500 0 
L 1259 2247 
L 1259 0 
L 628 0 
L 628 4666 
z
" transform="scale(0.015625)"/>
      </defs>
      <use xlink:href="#DejaVuSans-2e"/>
      <use xlink:href="#DejaVuSans-4c" transform="translate(65.578125 0)"/>
      <use xlink:href="#DejaVuSans-50" transform="translate(93.359375 0)"/>
      <use xlink:href="#DejaVuSans-4c" transform="translate(190.765625 0)"/>
      <use xlink:href="#DejaVuSans-3" transform="translate(218.546875 0)"/>
      <use xlink:href="#DejaVuSans-2e" transform="translate(250.328125 0)"/>
      <use xlink:href="#DejaVuSans-15" transform="translate(315.90625 0)"/>
      <use xlink:href="#DejaVuSans-3" transform="translate(379.53125 0)"/>
      <use xlink:href="#DejaVuSans-49" transform="translate(411.3125 0)"/>
      <use xlink:href="#DejaVuSans-55" transform="translate(446.515625 0)"/>
      <use xlink:href="#DejaVuSans-52" transform="translate(485.421875 0)"/>
      <use xlink:href="#DejaVuSans-51" transform="translate(546.609375 0)"/>
      <use xlink:href="#DejaVuSans-57" transform="translate(609.984375 0)"/>
      <use xlink:href="#DejaVuSans-4c" transform="translate(649.1875 0)"/>
      <use xlink:href="#DejaVuSans-48" transform="translate(676.96875 0)"/>
      <use xlink:href="#DejaVuSans-55" transform="translate(738.5 0)"/>
     </g>
    </g>
    <g id="PathCollection_2">
     <g>
      <use xlink:href="#m8da4802e95" x="490.698281" y="402.332578" style="fill: #ff0000; stroke: #000000"/>
     </g>
    </g>
    <g id="text_21">
     <!-- Kimi K2 best (0.637) -->
     <g style="fill: #262626" transform="translate(506.898281 404.695078) scale(0.09 -0.09)">
      <use xlink:href="#DejaVuSans-2e"/>
      <use xlink:href="#DejaVuSans-4c" transform="translate(65.578125 0)"/>
      <use xlink:href="#DejaVuSans-50" transform="translate(93.359375 0)"/>
      <use xlink:href="#DejaVuSans-4c" transform="translate(190.765625 0)"/>
      <use xlink:href="#DejaVuSans-3" transform="translate(218.546875 0)"/>
      <use xlink:href="#DejaVuSans-2e" transform="translate(250.328125 0)"/>
      <use xlink:href="#DejaVuSans-15" transform="translate(315.90625 0)"/>
      <use xlink:href="#DejaVuSans-3" transform="translate(379.53125 0)"/>
      <use xlink:href="#DejaVuSans-45" transform="translate(411.3125 0)"/>
      <use xlink:href="#DejaVuSans-48" transform="translate(474.796875 0)"/>
      <use xlink:href="#DejaVuSans-56" transform="translate(536.328125 0)"/>
      <use xlink:href="#DejaVuSans-57" transform="translate(588.421875 0)"/>
      <use xlink:href="#DejaVuSans-3" transform="translate(627.625 0)"/>
      <use xlink:href="#DejaVuSans-b" transform="translate(659.40625 0)"/>
      <use xlink:href="#DejaVuSans-13" transform="translate(698.421875 0)"/>
      <use xlink:href="#DejaVuSans-11" transform="translate(762.046875 0)"/>
      <use xlink:href="#DejaVuSans-19" transform="translate(793.828125 0)"/>
      <use xlink:href="#DejaVuSans-16" transform="translate(857.453125 0)"/>
      <use xlink:href="#DejaVuSans-1a" transform="translate(921.078125 0)"/>
      <use xlink:href="#DejaVuSans-c" transform="translate(984.703125 0)"/>
     </g>
    </g>
   </g>
   <g id="PathCollection_3">
    <g clip-path="url(#p99fe0636c2)">
     <use xlink:href="#m8da4802e95" x="544.220355" y="44.517187" style="fill: #ff0000; stroke: #000000"/>
    </g>
   </g>
   <g id="PathCollection_4">
    <g clip-path="url(#p99fe0636c2)">
     <use xlink:href="#m8da4802e95" x="608.074645" y="173.888036" style="fill: #ff0000; stroke: #000000"/>
    </g>
   </g>
  </g>
 </g>
 <defs>
  <clipPath id="p99fe0636c2">
   <rect x="75.438281" y="26.877187" width="558" height="388.08"/>
  </clipPath>
 </defs>
</svg>
