<?xml version="1.0" encoding="utf-8" standalone="no"?>
<!DOCTYPE svg PUBLIC "-//W3C//DTD SVG 1.1//EN"
  "http://www.w3.org/Graphics/SVG/1.1/DTD/svg11.dtd">
<svg xmlns:xlink="http://www.w3.org/1999/xlink" width="644.830489pt" height="470.158594pt" viewBox="0 0 644.830489 470.158594" xmlns="http://www.w3.org/2000/svg" version="1.1">
 <metadata>
  <rdf:RDF xmlns:dc="http://purl.org/dc/elements/1.1/" xmlns:cc="http://creativecommons.org/ns#" xmlns:rdf="http://www.w3.org/1999/02/22-rdf-syntax-ns#">
   <cc:Work>
    <dc:type rdf:resource="http://purl.org/dc/dcmitype/StillImage"/>
    <dc:date>2026-07-22T22:27:51.355395</dc:date>
    <dc:format>image/svg+xml</dc:format>
    <dc:creator>
     <cc:Agent>
      <dc:title>Matplotlib v3.11.0, https://matplotlib.org/</dc:title>
     </cc:Agent>
    </dc:creator>
   </cc:Work>
  </rdf:RDF>
 </metadata>
 <defs>
  <style type="text/css">*{stroke-linejoin: round; stroke-linecap: butt}</style>
 </defs>
 <g id="figure_1">
  <g id="patch_1">
   <path d="M 0 470.158594 
L 644.830489 470.158594 
L 644.830489 0 
L 0 0 
z
" style="fill: #ffffff"/>
  </g>
  <g id="axes_1">
   <g id="patch_2">
    <path d="M 75.438281 414.957187 
L 633.438281 414.957187 
L 633.438281 26.877187 
L 75.438281 26.877187 
z
" style="fill: #ffffff"/>
   </g>
   <g id="matplotlib.axis_1">
    <g id="xtick_1">
     <g id="line2d_1">
      <path d="M 100.801918 414.957187 
L 100.801918 26.877187 
" clip-path="url(#p358fff4017)" style="fill: none; stroke: #cccccc; stroke-opacity: 0.3; stroke-linecap: round"/>
     </g>
     <g id="text_1">
      <!-- 0 -->
      <g style="fill: #262626" transform="translate(95.552855 436.99332) scale(0.165 -0.165)">
       <defs>
        <path id="DejaVuSans-13" d="M 2034 4250 
Q 1547 4250 1301 3770 
Q 1056 3291 1056 2328 
Q 1056 1369 1301 889 
Q 1547 409 2034 409 
Q 2525 409 2770 889 
Q 3016 1369 3016 2328 
Q 3016 3291 2770 3770 
Q 2525 4250 2034 4250 
z
M 2034 4750 
Q 2819 4750 3233 4129 
Q 3647 3509 3647 2328 
Q 3647 1150 3233 529 
Q 2819 -91 2034 -91 
Q 1250 -91 836 529 
Q 422 1150 422 2328 
Q 422 3509 836 4129 
Q 1250 4750 2034 4750 
z
" transform="scale(0.015625)"/>
       </defs>
       <use xlink:href="#DejaVuSans-13"/>
      </g>
     </g>
    </g>
    <g id="xtick_2">
     <g id="line2d_2">
      <path d="M 165.937091 414.957187 
L 165.937091 26.877187 
" clip-path="url(#p358fff4017)" style="fill: none; stroke: #cccccc; stroke-opacity: 0.3; stroke-linecap: round"/>
     </g>
     <g id="text_2">
      <!-- 25 -->
      <g style="fill: #262626" transform="translate(155.438966 436.99332) scale(0.165 -0.165)">
       <defs>
        <path id="DejaVuSans-15" d="M 1228 531 
L 3431 531 
L 3431 0 
L 469 0 
L 469 531 
Q 828 903 1448 1529 
Q 2069 2156 2228 2338 
Q 2531 2678 2651 2914 
Q 2772 3150 2772 3378 
Q 2772 3750 2511 3984 
Q 2250 4219 1831 4219 
Q 1534 4219 1204 4116 
Q 875 4013 500 3803 
L 500 4441 
Q 881 4594 1212 4672 
Q 1544 4750 1819 4750 
Q 2544 4750 2975 4387 
Q 3406 4025 3406 3419 
Q 3406 3131 3298 2873 
Q 3191 2616 2906 2266 
Q 2828 2175 2409 1742 
Q 1991 1309 1228 531 
z
" transform="scale(0.015625)"/>
        <path id="DejaVuSans-18" d="M 691 4666 
L 3169 4666 
L 3169 4134 
L 1269 4134 
L 1269 2991 
Q 1406 3038 1543 3061 
Q 1681 3084 1819 3084 
Q 2600 3084 3056 2656 
Q 3513 2228 3513 1497 
Q 3513 744 3044 326 
Q 2575 -91 1722 -91 
Q 1428 -91 1123 -41 
Q 819 9 494 109 
L 494 744 
Q 775 591 1075 516 
Q 1375 441 1709 441 
Q 2250 441 2565 725 
Q 2881 1009 2881 1497 
Q 2881 1984 2565 2268 
Q 2250 2553 1709 2553 
Q 1456 2553 1204 2497 
Q 953 2441 691 2322 
L 691 4666 
z
" transform="scale(0.015625)"/>
       </defs>
       <use xlink:href="#DejaVuSans-15"/>
       <use xlink:href="#DejaVuSans-18" transform="translate(63.625 0)"/>
      </g>
     </g>
    </g>
    <g id="xtick_3">
     <g id="line2d_3">
      <path d="M 231.072264 414.957187 
L 231.072264 26.877187 
" clip-path="url(#p358fff4017)" style="fill: none; stroke: #cccccc; stroke-opacity: 0.3; stroke-linecap: round"/>
     </g>
     <g id="text_3">
      <!-- 50 -->
      <g style="fill: #262626" transform="translate(220.574139 436.99332) scale(0.165 -0.165)">
       <use xlink:href="#DejaVuSans-18"/>
       <use xlink:href="#DejaVuSans-13" transform="translate(63.625 0)"/>
      </g>
     </g>
    </g>
    <g id="xtick_4">
     <g id="line2d_4">
      <path d="M 296.207437 414.957187 
L 296.207437 26.877187 
" clip-path="url(#p358fff4017)" style="fill: none; stroke: #cccccc; stroke-opacity: 0.3; stroke-linecap: round"/>
     </g>
     <g id="text_4">
      <!-- 75 -->
      <g style="fill: #262626" transform="translate(285.709312 436.99332) scale(0.165 -0.165)">
       <defs>
        <path id="DejaVuSans-1a" d="M 525 4666 
L 3525 4666 
L 3525 4397 
L 1831 0 
L 1172 0 
L 2766 4134 
L 525 4134 
L 525 4666 
z
" transform="scale(0.015625)"/>
       </defs>
       <use xlink:href="#DejaVuSans-1a"/>
       <use xlink:href="#DejaVuSans-18" transform="translate(63.625 0)"/>
      </g>
     </g>
    </g>
    <g id="xtick_5">
     <g id="line2d_5">
      <path d="M 361.34261 414.957187 
L 361.34261 26.877187 
" clip-path="url(#p358fff4017)" style="fill: none; stroke: #cccccc; stroke-opacity: 0.3; stroke-linecap: round"/>
     </g>
     <g id="text_5">
      <!-- 100 -->
      <g style="fill: #262626" transform="translate(345.595422 436.99332) scale(0.165 -0.165)">
       <defs>
        <path id="DejaVuSans-14" d="M 794 531 
L 1825 531 
L 1825 4091 
L 703 3866 
L 703 4441 
L 1819 4666 
L 2450 4666 
L 2450 531 
L 3481 531 
L 3481 0 
L 794 0 
L 794 531 
z
" transform="scale(0.015625)"/>
       </defs>
       <use xlink:href="#DejaVuSans-14"/>
       <use xlink:href="#DejaVuSans-13" transform="translate(63.625 0)"/>
       <use xlink:href="#DejaVuSans-13" transform="translate(127.25 0)"/>
      </g>
     </g>
    </g>
    <g id="xtick_6">
     <g id="line2d_6">
      <path d="M 426.477783 414.957187 
L 426.477783 26.877187 
" clip-path="url(#p358fff4017)" style="fill: none; stroke: #cccccc; stroke-opacity: 0.3; stroke-linecap: round"/>
     </g>
     <g id="text_6">
      <!-- 125 -->
      <g style="fill: #262626" transform="translate(410.730595 436.99332) scale(0.165 -0.165)">
       <use xlink:href="#DejaVuSans-14"/>
       <use xlink:href="#DejaVuSans-15" transform="translate(63.625 0)"/>
       <use xlink:href="#DejaVuSans-18" transform="translate(127.25 0)"/>
      </g>
     </g>
    </g>
    <g id="xtick_7">
     <g id="line2d_7">
      <path d="M 491.612956 414.957187 
L 491.612956 26.877187 
" clip-path="url(#p358fff4017)" style="fill: none; stroke: #cccccc; stroke-opacity: 0.3; stroke-linecap: round"/>
     </g>
     <g id="text_7">
      <!-- 150 -->
      <g style="fill: #262626" transform="translate(475.865768 436.99332) scale(0.165 -0.165)">
       <use xlink:href="#DejaVuSans-14"/>
       <use xlink:href="#DejaVuSans-18" transform="translate(63.625 0)"/>
       <use xlink:href="#DejaVuSans-13" transform="translate(127.25 0)"/>
      </g>
     </g>
    </g>
    <g id="xtick_8">
     <g id="line2d_8">
      <path d="M 556.748129 414.957187 
L 556.748129 26.877187 
" clip-path="url(#p358fff4017)" style="fill: none; stroke: #cccccc; stroke-opacity: 0.3; stroke-linecap: round"/>
     </g>
     <g id="text_8">
      <!-- 175 -->
      <g style="fill: #262626" transform="translate(541.000941 436.99332) scale(0.165 -0.165)">
       <use xlink:href="#DejaVuSans-14"/>
       <use xlink:href="#DejaVuSans-1a" transform="translate(63.625 0)"/>
       <use xlink:href="#DejaVuSans-18" transform="translate(127.25 0)"/>
      </g>
     </g>
    </g>
    <g id="xtick_9">
     <g id="line2d_9">
      <path d="M 621.883302 414.957187 
L 621.883302 26.877187 
" clip-path="url(#p358fff4017)" style="fill: none; stroke: #cccccc; stroke-opacity: 0.3; stroke-linecap: round"/>
     </g>
     <g id="text_9">
      <!-- 200 -->
      <g style="fill: #262626" transform="translate(606.136114 436.99332) scale(0.165 -0.165)">
       <use xlink:href="#DejaVuSans-15"/>
       <use xlink:href="#DejaVuSans-13" transform="translate(63.625 0)"/>
       <use xlink:href="#DejaVuSans-13" transform="translate(127.25 0)"/>
      </g>
     </g>
    </g>
    <g id="text_10">
     <!-- Time Overhead (%) -->
     <g style="fill: #262626" transform="translate(267.156563 458.634375) scale(0.18 -0.18)">
      <defs>
       <path id="DejaVuSans-37" d="M -19 4666 
L 3928 4666 
L 3928 4134 
L 2272 4134 
L 2272 0 
L 1638 0 
L 1638 4134 
L -19 4134 
L -19 4666 
z
" transform="scale(0.015625)"/>
       <path id="DejaVuSans-4c" d="M 603 3500 
L 1178 3500 
L 1178 0 
L 603 0 
L 603 3500 
z
M 603 4863 
L 1178 4863 
L 1178 4134 
L 603 4134 
L 603 4863 
z
" transform="scale(0.015625)"/>
       <path id="DejaVuSans-50" d="M 3328 2828 
Q 3544 3216 3844 3400 
Q 4144 3584 4550 3584 
Q 5097 3584 5394 3201 
Q 5691 2819 5691 2113 
L 5691 0 
L 5113 0 
L 5113 2094 
Q 5113 2597 4934 2840 
Q 4756 3084 4391 3084 
Q 3944 3084 3684 2787 
Q 3425 2491 3425 1978 
L 3425 0 
L 2847 0 
L 2847 2094 
Q 2847 2600 2669 2842 
Q 2491 3084 2119 3084 
Q 1678 3084 1418 2786 
Q 1159 2488 1159 1978 
L 1159 0 
L 581 0 
L 581 3500 
L 1159 3500 
L 1159 2956 
Q 1356 3278 1631 3431 
Q 1906 3584 2284 3584 
Q 2666 3584 2933 3390 
Q 3200 3197 3328 2828 
z
" transform="scale(0.015625)"/>
       <path id="DejaVuSans-48" d="M 3597 1894 
L 3597 1613 
L 953 1613 
Q 991 1019 1311 708 
Q 1631 397 2203 397 
Q 2534 397 2845 478 
Q 3156 559 3463 722 
L 3463 178 
Q 3153 47 2828 -22 
Q 2503 -91 2169 -91 
Q 1331 -91 842 396 
Q 353 884 353 1716 
Q 353 2575 817 3079 
Q 1281 3584 2069 3584 
Q 2775 3584 3186 3129 
Q 3597 2675 3597 1894 
z
M 3022 2063 
Q 3016 2534 2758 2815 
Q 2500 3097 2075 3097 
Q 1594 3097 1305 2825 
Q 1016 2553 972 2059 
L 3022 2063 
z
" transform="scale(0.015625)"/>
       <path id="DejaVuSans-3" transform="scale(0.015625)"/>
       <path id="DejaVuSans-32" d="M 2522 4238 
Q 1834 4238 1429 3725 
Q 1025 3213 1025 2328 
Q 1025 1447 1429 934 
Q 1834 422 2522 422 
Q 3209 422 3611 934 
Q 4013 1447 4013 2328 
Q 4013 3213 3611 3725 
Q 3209 4238 2522 4238 
z
M 2522 4750 
Q 3503 4750 4090 4092 
Q 4678 3434 4678 2328 
Q 4678 1225 4090 567 
Q 3503 -91 2522 -91 
Q 1538 -91 948 565 
Q 359 1222 359 2328 
Q 359 3434 948 4092 
Q 1538 4750 2522 4750 
z
" transform="scale(0.015625)"/>
       <path id="DejaVuSans-59" d="M 191 3500 
L 800 3500 
L 1894 563 
L 2988 3500 
L 3597 3500 
L 2284 0 
L 1503 0 
L 191 3500 
z
" transform="scale(0.015625)"/>
       <path id="DejaVuSans-55" d="M 2631 2963 
Q 2534 3019 2420 3045 
Q 2306 3072 2169 3072 
Q 1681 3072 1420 2755 
Q 1159 2438 1159 1844 
L 1159 0 
L 581 0 
L 581 3500 
L 1159 3500 
L 1159 2956 
Q 1341 3275 1631 3429 
Q 1922 3584 2338 3584 
Q 2397 3584 2469 3576 
Q 2541 3569 2628 3553 
L 2631 2963 
z
" transform="scale(0.015625)"/>
       <path id="DejaVuSans-4b" d="M 3513 2113 
L 3513 0 
L 2938 0 
L 2938 2094 
Q 2938 2591 2744 2837 
Q 2550 3084 2163 3084 
Q 1697 3084 1428 2787 
Q 1159 2491 1159 1978 
L 1159 0 
L 581 0 
L 581 4863 
L 1159 4863 
L 1159 2956 
Q 1366 3272 1645 3428 
Q 1925 3584 2291 3584 
Q 2894 3584 3203 3211 
Q 3513 2838 3513 2113 
z
" transform="scale(0.015625)"/>
       <path id="DejaVuSans-44" d="M 2194 1759 
Q 1497 1759 1228 1600 
Q 959 1441 959 1056 
Q 959 750 1161 570 
Q 1363 391 1709 391 
Q 2188 391 2477 730 
Q 2766 1069 2766 1631 
L 2766 1759 
L 2194 1759 
z
M 3341 1997 
L 3341 0 
L 2766 0 
L 2766 531 
Q 2569 213 2275 61 
Q 1981 -91 1556 -91 
Q 1019 -91 701 211 
Q 384 513 384 1019 
Q 384 1609 779 1909 
Q 1175 2209 1959 2209 
L 2766 2209 
L 2766 2266 
Q 2766 2663 2505 2880 
Q 2244 3097 1772 3097 
Q 1472 3097 1187 3025 
Q 903 2953 641 2809 
L 641 3341 
Q 956 3463 1253 3523 
Q 1550 3584 1831 3584 
Q 2591 3584 2966 3190 
Q 3341 2797 3341 1997 
z
" transform="scale(0.015625)"/>
       <path id="DejaVuSans-47" d="M 2906 2969 
L 2906 4863 
L 3481 4863 
L 3481 0 
L 2906 0 
L 2906 525 
Q 2725 213 2448 61 
Q 2172 -91 1784 -91 
Q 1150 -91 751 415 
Q 353 922 353 1747 
Q 353 2572 751 3078 
Q 1150 3584 1784 3584 
Q 2172 3584 2448 3432 
Q 2725 3281 2906 2969 
z
M 947 1747 
Q 947 1113 1208 752 
Q 1469 391 1925 391 
Q 2381 391 2643 752 
Q 2906 1113 2906 1747 
Q 2906 2381 2643 2742 
Q 2381 3103 1925 3103 
Q 1469 3103 1208 2742 
Q 947 2381 947 1747 
z
" transform="scale(0.015625)"/>
       <path id="DejaVuSans-b" d="M 1984 4856 
Q 1566 4138 1362 3434 
Q 1159 2731 1159 2009 
Q 1159 1288 1364 580 
Q 1569 -128 1984 -844 
L 1484 -844 
Q 1016 -109 783 600 
Q 550 1309 550 2009 
Q 550 2706 781 3412 
Q 1013 4119 1484 4856 
L 1984 4856 
z
" transform="scale(0.015625)"/>
       <path id="DejaVuSans-8" d="M 4653 2053 
Q 4381 2053 4226 1822 
Q 4072 1591 4072 1178 
Q 4072 772 4226 539 
Q 4381 306 4653 306 
Q 4919 306 5073 539 
Q 5228 772 5228 1178 
Q 5228 1588 5073 1820 
Q 4919 2053 4653 2053 
z
M 4653 2450 
Q 5147 2450 5437 2106 
Q 5728 1763 5728 1178 
Q 5728 594 5436 251 
Q 5144 -91 4653 -91 
Q 4153 -91 3862 251 
Q 3572 594 3572 1178 
Q 3572 1766 3864 2108 
Q 4156 2450 4653 2450 
z
M 1428 4353 
Q 1159 4353 1004 4120 
Q 850 3888 850 3481 
Q 850 3069 1003 2837 
Q 1156 2606 1428 2606 
Q 1700 2606 1854 2837 
Q 2009 3069 2009 3481 
Q 2009 3884 1853 4118 
Q 1697 4353 1428 4353 
z
M 4250 4750 
L 4750 4750 
L 1831 -91 
L 1331 -91 
L 4250 4750 
z
M 1428 4750 
Q 1922 4750 2215 4408 
Q 2509 4066 2509 3481 
Q 2509 2891 2217 2550 
Q 1925 2209 1428 2209 
Q 931 2209 642 2551 
Q 353 2894 353 3481 
Q 353 4063 643 4406 
Q 934 4750 1428 4750 
z
" transform="scale(0.015625)"/>
       <path id="DejaVuSans-c" d="M 513 4856 
L 1013 4856 
Q 1481 4119 1714 3412 
Q 1947 2706 1947 2009 
Q 1947 1309 1714 600 
Q 1481 -109 1013 -844 
L 513 -844 
Q 928 -128 1133 580 
Q 1338 1288 1338 2009 
Q 1338 2731 1133 3434 
Q 928 4138 513 4856 
z
" transform="scale(0.015625)"/>
      </defs>
      <use xlink:href="#DejaVuSans-37"/>
      <use xlink:href="#DejaVuSans-4c" transform="translate(58 0)"/>
      <use xlink:href="#DejaVuSans-50" transform="translate(85.78125 0)"/>
      <use xlink:href="#DejaVuSans-48" transform="translate(183.1875 0)"/>
      <use xlink:href="#DejaVuSans-3" transform="translate(244.71875 0)"/>
      <use xlink:href="#DejaVuSans-32" transform="translate(276.5 0)"/>
      <use xlink:href="#DejaVuSans-59" transform="translate(355.21875 0)"/>
      <use xlink:href="#DejaVuSans-48" transform="translate(414.40625 0)"/>
      <use xlink:href="#DejaVuSans-55" transform="translate(475.9375 0)"/>
      <use xlink:href="#DejaVuSans-4b" transform="translate(515.296875 0)"/>
      <use xlink:href="#DejaVuSans-48" transform="translate(578.671875 0)"/>
      <use xlink:href="#DejaVuSans-44" transform="translate(640.203125 0)"/>
      <use xlink:href="#DejaVuSans-47" transform="translate(701.484375 0)"/>
      <use xlink:href="#DejaVuSans-3" transform="translate(764.96875 0)"/>
      <use xlink:href="#DejaVuSans-b" transform="translate(796.75 0)"/>
      <use xlink:href="#DejaVuSans-8" transform="translate(835.765625 0)"/>
      <use xlink:href="#DejaVuSans-c" transform="translate(930.78125 0)"/>
     </g>
    </g>
   </g>
   <g id="matplotlib.axis_2">
    <g id="ytick_1">
     <g id="line2d_10">
      <path d="M 75.438281 397.317187 
L 633.438281 397.317187 
" clip-path="url(#p358fff4017)" style="fill: none; stroke: #cccccc; stroke-opacity: 0.3; stroke-linecap: round"/>
     </g>
     <g id="text_11">
      <!-- 0.50 -->
      <g style="fill: #262626" transform="translate(29.2 403.585254) scale(0.165 -0.165)">
       <defs>
        <path id="DejaVuSans-11" d="M 684 794 
L 1344 794 
L 1344 0 
L 684 0 
L 684 794 
z
" transform="scale(0.015625)"/>
       </defs>
       <use xlink:href="#DejaVuSans-13"/>
       <use xlink:href="#DejaVuSans-11" transform="translate(63.625 0)"/>
       <use xlink:href="#DejaVuSans-18" transform="translate(95.40625 0)"/>
       <use xlink:href="#DejaVuSans-13" transform="translate(159.03125 0)"/>
      </g>
     </g>
    </g>
    <g id="ytick_2">
     <g id="line2d_11">
      <path d="M 75.438281 354.108369 
L 633.438281 354.108369 
" clip-path="url(#p358fff4017)" style="fill: none; stroke: #cccccc; stroke-opacity: 0.3; stroke-linecap: round"/>
     </g>
     <g id="text_12">
      <!-- 0.52 -->
      <g style="fill: #262626" transform="translate(29.2 360.376436) scale(0.165 -0.165)">
       <use xlink:href="#DejaVuSans-13"/>
       <use xlink:href="#DejaVuSans-11" transform="translate(63.625 0)"/>
       <use xlink:href="#DejaVuSans-18" transform="translate(95.40625 0)"/>
       <use xlink:href="#DejaVuSans-15" transform="translate(159.03125 0)"/>
      </g>
     </g>
    </g>
    <g id="ytick_3">
     <g id="line2d_12">
      <path d="M 75.438281 310.899551 
L 633.438281 310.899551 
" clip-path="url(#p358fff4017)" style="fill: none; stroke: #cccccc; stroke-opacity: 0.3; stroke-linecap: round"/>
     </g>
     <g id="text_13">
      <!-- 0.54 -->
      <g style="fill: #262626" transform="translate(29.2 317.167618) scale(0.165 -0.165)">
       <defs>
        <path id="DejaVuSans-17" d="M 2419 4116 
L 825 1625 
L 2419 1625 
L 2419 4116 
z
M 2253 4666 
L 3047 4666 
L 3047 1625 
L 3713 1625 
L 3713 1100 
L 3047 1100 
L 3047 0 
L 2419 0 
L 2419 1100 
L 313 1100 
L 313 1709 
L 2253 4666 
z
" transform="scale(0.015625)"/>
       </defs>
       <use xlink:href="#DejaVuSans-13"/>
       <use xlink:href="#DejaVuSans-11" transform="translate(63.625 0)"/>
       <use xlink:href="#DejaVuSans-18" transform="translate(95.40625 0)"/>
       <use xlink:href="#DejaVuSans-17" transform="translate(159.03125 0)"/>
      </g>
     </g>
    </g>
    <g id="ytick_4">
     <g id="line2d_13">
      <path d="M 75.438281 267.690733 
L 633.438281 267.690733 
" clip-path="url(#p358fff4017)" style="fill: none; stroke: #cccccc; stroke-opacity: 0.3; stroke-linecap: round"/>
     </g>
     <g id="text_14">
      <!-- 0.56 -->
      <g style="fill: #262626" transform="translate(29.2 273.9588) scale(0.165 -0.165)">
       <defs>
        <path id="DejaVuSans-19" d="M 2113 2584 
Q 1688 2584 1439 2293 
Q 1191 2003 1191 1497 
Q 1191 994 1439 701 
Q 1688 409 2113 409 
Q 2538 409 2786 701 
Q 3034 994 3034 1497 
Q 3034 2003 2786 2293 
Q 2538 2584 2113 2584 
z
M 3366 4563 
L 3366 3988 
Q 3128 4100 2886 4159 
Q 2644 4219 2406 4219 
Q 1781 4219 1451 3797 
Q 1122 3375 1075 2522 
Q 1259 2794 1537 2939 
Q 1816 3084 2150 3084 
Q 2853 3084 3261 2657 
Q 3669 2231 3669 1497 
Q 3669 778 3244 343 
Q 2819 -91 2113 -91 
Q 1303 -91 875 529 
Q 447 1150 447 2328 
Q 447 3434 972 4092 
Q 1497 4750 2381 4750 
Q 2619 4750 2861 4703 
Q 3103 4656 3366 4563 
z
" transform="scale(0.015625)"/>
       </defs>
       <use xlink:href="#DejaVuSans-13"/>
       <use xlink:href="#DejaVuSans-11" transform="translate(63.625 0)"/>
       <use xlink:href="#DejaVuSans-18" transform="translate(95.40625 0)"/>
       <use xlink:href="#DejaVuSans-19" transform="translate(159.03125 0)"/>
      </g>
     </g>
    </g>
    <g id="ytick_5">
     <g id="line2d_14">
      <path d="M 75.438281 224.481915 
L 633.438281 224.481915 
" clip-path="url(#p358fff4017)" style="fill: none; stroke: #cccccc; stroke-opacity: 0.3; stroke-linecap: round"/>
     </g>
     <g id="text_15">
      <!-- 0.58 -->
      <g style="fill: #262626" transform="translate(29.2 230.749981) scale(0.165 -0.165)">
       <defs>
        <path id="DejaVuSans-1b" d="M 2034 2216 
Q 1584 2216 1326 1975 
Q 1069 1734 1069 1313 
Q 1069 891 1326 650 
Q 1584 409 2034 409 
Q 2484 409 2743 651 
Q 3003 894 3003 1313 
Q 3003 1734 2745 1975 
Q 2488 2216 2034 2216 
z
M 1403 2484 
Q 997 2584 770 2862 
Q 544 3141 544 3541 
Q 544 4100 942 4425 
Q 1341 4750 2034 4750 
Q 2731 4750 3128 4425 
Q 3525 4100 3525 3541 
Q 3525 3141 3298 2862 
Q 3072 2584 2669 2484 
Q 3125 2378 3379 2068 
Q 3634 1759 3634 1313 
Q 3634 634 3220 271 
Q 2806 -91 2034 -91 
Q 1263 -91 848 271 
Q 434 634 434 1313 
Q 434 1759 690 2068 
Q 947 2378 1403 2484 
z
M 1172 3481 
Q 1172 3119 1398 2916 
Q 1625 2713 2034 2713 
Q 2441 2713 2670 2916 
Q 2900 3119 2900 3481 
Q 2900 3844 2670 4047 
Q 2441 4250 2034 4250 
Q 1625 4250 1398 4047 
Q 1172 3844 1172 3481 
z
" transform="scale(0.015625)"/>
       </defs>
       <use xlink:href="#DejaVuSans-13"/>
       <use xlink:href="#DejaVuSans-11" transform="translate(63.625 0)"/>
       <use xlink:href="#DejaVuSans-18" transform="translate(95.40625 0)"/>
       <use xlink:href="#DejaVuSans-1b" transform="translate(159.03125 0)"/>
      </g>
     </g>
    </g>
    <g id="ytick_6">
     <g id="line2d_15">
      <path d="M 75.438281 181.273097 
L 633.438281 181.273097 
" clip-path="url(#p358fff4017)" style="fill: none; stroke: #cccccc; stroke-opacity: 0.3; stroke-linecap: round"/>
     </g>
     <g id="text_16">
      <!-- 0.60 -->
      <g style="fill: #262626" transform="translate(29.2 187.541163) scale(0.165 -0.165)">
       <use xlink:href="#DejaVuSans-13"/>
       <use xlink:href="#DejaVuSans-11" transform="translate(63.625 0)"/>
       <use xlink:href="#DejaVuSans-19" transform="translate(95.40625 0)"/>
       <use xlink:href="#DejaVuSans-13" transform="translate(159.03125 0)"/>
      </g>
     </g>
    </g>
    <g id="ytick_7">
     <g id="line2d_16">
      <path d="M 75.438281 138.064279 
L 633.438281 138.064279 
" clip-path="url(#p358fff4017)" style="fill: none; stroke: #cccccc; stroke-opacity: 0.3; stroke-linecap: round"/>
     </g>
     <g id="text_17">
      <!-- 0.62 -->
      <g style="fill: #262626" transform="translate(29.2 144.332345) scale(0.165 -0.165)">
       <use xlink:href="#DejaVuSans-13"/>
       <use xlink:href="#DejaVuSans-11" transform="translate(63.625 0)"/>
       <use xlink:href="#DejaVuSans-19" transform="translate(95.40625 0)"/>
       <use xlink:href="#DejaVuSans-15" transform="translate(159.03125 0)"/>
      </g>
     </g>
    </g>
    <g id="ytick_8">
     <g id="line2d_17">
      <path d="M 75.438281 94.855461 
L 633.438281 94.855461 
" clip-path="url(#p358fff4017)" style="fill: none; stroke: #cccccc; stroke-opacity: 0.3; stroke-linecap: round"/>
     </g>
     <g id="text_18">
      <!-- 0.64 -->
      <g style="fill: #262626" transform="translate(29.2 101.123527) scale(0.165 -0.165)">
       <use xlink:href="#DejaVuSans-13"/>
       <use xlink:href="#DejaVuSans-11" transform="translate(63.625 0)"/>
       <use xlink:href="#DejaVuSans-19" transform="translate(95.40625 0)"/>
       <use xlink:href="#DejaVuSans-17" transform="translate(159.03125 0)"/>
      </g>
     </g>
    </g>
    <g id="ytick_9">
     <g id="line2d_18">
      <path d="M 75.438281 51.646642 
L 633.438281 51.646642 
" clip-path="url(#p358fff4017)" style="fill: none; stroke: #cccccc; stroke-opacity: 0.3; stroke-linecap: round"/>
     </g>
     <g id="text_19">
      <!-- 0.66 -->
      <g style="fill: #262626" transform="translate(29.2 57.914709) scale(0.165 -0.165)">
       <use xlink:href="#DejaVuSans-13"/>
       <use xlink:href="#DejaVuSans-11" transform="translate(63.625 0)"/>
       <use xlink:href="#DejaVuSans-19" transform="translate(95.40625 0)"/>
       <use xlink:href="#DejaVuSans-19" transform="translate(159.03125 0)"/>
      </g>
     </g>
    </g>
    <g id="text_20">
     <!-- Score -->
     <g style="fill: #262626" transform="translate(20.875781 246.125625) rotate(-90) scale(0.18 -0.18)">
      <defs>
       <path id="DejaVuSans-36" d="M 3425 4513 
L 3425 3897 
Q 3066 4069 2747 4153 
Q 2428 4238 2131 4238 
Q 1616 4238 1336 4038 
Q 1056 3838 1056 3469 
Q 1056 3159 1242 3001 
Q 1428 2844 1947 2747 
L 2328 2669 
Q 3034 2534 3370 2195 
Q 3706 1856 3706 1288 
Q 3706 609 3251 259 
Q 2797 -91 1919 -91 
Q 1588 -91 1214 -16 
Q 841 59 441 206 
L 441 856 
Q 825 641 1194 531 
Q 1563 422 1919 422 
Q 2459 422 2753 634 
Q 3047 847 3047 1241 
Q 3047 1584 2836 1778 
Q 2625 1972 2144 2069 
L 1759 2144 
Q 1053 2284 737 2584 
Q 422 2884 422 3419 
Q 422 4038 858 4394 
Q 1294 4750 2059 4750 
Q 2388 4750 2728 4690 
Q 3069 4631 3425 4513 
z
" transform="scale(0.015625)"/>
       <path id="DejaVuSans-46" d="M 3122 3366 
L 3122 2828 
Q 2878 2963 2633 3030 
Q 2388 3097 2138 3097 
Q 1578 3097 1268 2742 
Q 959 2388 959 1747 
Q 959 1106 1268 751 
Q 1578 397 2138 397 
Q 2388 397 2633 464 
Q 2878 531 3122 666 
L 3122 134 
Q 2881 22 2623 -34 
Q 2366 -91 2075 -91 
Q 1284 -91 818 406 
Q 353 903 353 1747 
Q 353 2603 823 3093 
Q 1294 3584 2113 3584 
Q 2378 3584 2631 3529 
Q 2884 3475 3122 3366 
z
" transform="scale(0.015625)"/>
       <path id="DejaVuSans-52" d="M 1959 3097 
Q 1497 3097 1228 2736 
Q 959 2375 959 1747 
Q 959 1119 1226 758 
Q 1494 397 1959 397 
Q 2419 397 2687 759 
Q 2956 1122 2956 1747 
Q 2956 2369 2687 2733 
Q 2419 3097 1959 3097 
z
M 1959 3584 
Q 2709 3584 3137 3096 
Q 3566 2609 3566 1747 
Q 3566 888 3137 398 
Q 2709 -91 1959 -91 
Q 1206 -91 779 398 
Q 353 888 353 1747 
Q 353 2609 779 3096 
Q 1206 3584 1959 3584 
z
" transform="scale(0.015625)"/>
      </defs>
      <use xlink:href="#DejaVuSans-36"/>
      <use xlink:href="#DejaVuSans-46" transform="translate(63.484375 0)"/>
      <use xlink:href="#DejaVuSans-52" transform="translate(118.46875 0)"/>
      <use xlink:href="#DejaVuSans-55" transform="translate(179.65625 0)"/>
      <use xlink:href="#DejaVuSans-48" transform="translate(218.5625 0)"/>
     </g>
    </g>
   </g>
   <g id="line2d_19">
    <path d="M 100.801918 397.317187 
L 101.322999 396.885099 
L 102.625702 395.588835 
L 102.625702 393.21235 
L 104.710028 392.132129 
L 106.273272 383.274322 
L 112.786789 381.545969 
L 113.307871 372.688161 
L 114.089493 365.342662 
L 120.081929 361.02178 
L 123.729499 356.484854 
L 125.032202 353.892325 
L 128.940312 342.874077 
L 131.545719 341.145724 
L 137.798696 322.349888 
L 144.051672 311.547684 
L 154.212759 304.850317 
L 162.810602 281.949643 
L 168.281957 267.258645 
L 180.266829 263.585895 
L 194.857107 258.832925 
L 205.018194 239.388957 
L 209.707927 232.907635 
L 231.853886 218.000592 
L 232.635508 206.550255 
L 240.712269 200.717065 
L 260.773902 171.551113 
L 282.659321 158.588467 
L 297.51014 155.347806 
L 328.514482 148.218351 
L 334.767459 144.113513 
L 336.591244 119.700531 
L 342.58368 118.404266 
L 370.982615 116.243826 
L 377.496132 115.595693 
L 390.002086 98.960298 
L 398.599929 80.596551 
L 413.190207 76.923801 
L 415.795614 73.68314 
L 444.19455 64.1772 
L 451.75023 63.313023 
L 477.283218 56.183568 
L 491.612956 55.75148 
L 517.667025 52.942907 
L 521.314594 51.430598 
L 525.483246 50.782466 
L 526.264868 50.350378 
L 540.073524 49.702246 
L 540.594606 49.270157 
L 545.284338 48.838069 
L 549.974071 48.622025 
L 554.403262 47.757849 
L 555.184884 47.541805 
L 568.733 46.893672 
L 569.254082 46.461584 
L 573.683274 46.24554 
L 574.204355 45.813452 
L 602.34275 45.597408 
L 602.60329 45.381364 
L 603.124372 44.949276 
L 607.814104 44.733232 
L 607.814104 44.517187 
" clip-path="url(#p358fff4017)" style="fill: none; stroke: #2563eb; stroke-width: 2; stroke-linecap: round"/>
    <defs>
     <path id="m06f8d2b367" d="M 0 2 
C 0.530406 2 1.03916 1.789267 1.414214 1.414214 
C 1.789267 1.03916 2 0.530406 2 0 
C 2 -0.530406 1.789267 -1.03916 1.414214 -1.414214 
C 1.03916 -1.789267 0.530406 -2 0 -2 
C -0.530406 -2 -1.03916 -1.789267 -1.414214 -1.414214 
C -1.789267 -1.03916 -2 -0.530406 -2 0 
C -2 0.530406 -1.789267 1.03916 -1.414214 1.414214 
C -1.03916 1.789267 -0.530406 2 0 2 
z
" style="stroke: #2563eb"/>
    </defs>
    <g clip-path="url(#p358fff4017)">
     <use xlink:href="#m06f8d2b367" x="100.801918" y="397.317187" style="fill: #2563eb; stroke: #2563eb"/>
     <use xlink:href="#m06f8d2b367" x="101.322999" y="396.885099" style="fill: #2563eb; stroke: #2563eb"/>
     <use xlink:href="#m06f8d2b367" x="102.625702" y="395.588835" style="fill: #2563eb; stroke: #2563eb"/>
     <use xlink:href="#m06f8d2b367" x="102.625702" y="393.21235" style="fill: #2563eb; stroke: #2563eb"/>
     <use xlink:href="#m06f8d2b367" x="104.710028" y="392.132129" style="fill: #2563eb; stroke: #2563eb"/>
     <use xlink:href="#m06f8d2b367" x="106.273272" y="383.274322" style="fill: #2563eb; stroke: #2563eb"/>
     <use xlink:href="#m06f8d2b367" x="112.786789" y="381.545969" style="fill: #2563eb; stroke: #2563eb"/>
     <use xlink:href="#m06f8d2b367" x="113.307871" y="372.688161" style="fill: #2563eb; stroke: #2563eb"/>
     <use xlink:href="#m06f8d2b367" x="114.089493" y="365.342662" style="fill: #2563eb; stroke: #2563eb"/>
     <use xlink:href="#m06f8d2b367" x="120.081929" y="361.02178" style="fill: #2563eb; stroke: #2563eb"/>
     <use xlink:href="#m06f8d2b367" x="123.729499" y="356.484854" style="fill: #2563eb; stroke: #2563eb"/>
     <use xlink:href="#m06f8d2b367" x="125.032202" y="353.892325" style="fill: #2563eb; stroke: #2563eb"/>
     <use xlink:href="#m06f8d2b367" x="128.940312" y="342.874077" style="fill: #2563eb; stroke: #2563eb"/>
     <use xlink:href="#m06f8d2b367" x="131.545719" y="341.145724" style="fill: #2563eb; stroke: #2563eb"/>
     <use xlink:href="#m06f8d2b367" x="137.798696" y="322.349888" style="fill: #2563eb; stroke: #2563eb"/>
     <use xlink:href="#m06f8d2b367" x="144.051672" y="311.547684" style="fill: #2563eb; stroke: #2563eb"/>
     <use xlink:href="#m06f8d2b367" x="154.212759" y="304.850317" style="fill: #2563eb; stroke: #2563eb"/>
     <use xlink:href="#m06f8d2b367" x="162.810602" y="281.949643" style="fill: #2563eb; stroke: #2563eb"/>
     <use xlink:href="#m06f8d2b367" x="168.281957" y="267.258645" style="fill: #2563eb; stroke: #2563eb"/>
     <use xlink:href="#m06f8d2b367" x="180.266829" y="263.585895" style="fill: #2563eb; stroke: #2563eb"/>
     <use xlink:href="#m06f8d2b367" x="194.857107" y="258.832925" style="fill: #2563eb; stroke: #2563eb"/>
     <use xlink:href="#m06f8d2b367" x="205.018194" y="239.388957" style="fill: #2563eb; stroke: #2563eb"/>
     <use xlink:href="#m06f8d2b367" x="209.707927" y="232.907635" style="fill: #2563eb; stroke: #2563eb"/>
     <use xlink:href="#m06f8d2b367" x="231.853886" y="218.000592" style="fill: #2563eb; stroke: #2563eb"/>
     <use xlink:href="#m06f8d2b367" x="232.635508" y="206.550255" style="fill: #2563eb; stroke: #2563eb"/>
     <use xlink:href="#m06f8d2b367" x="240.712269" y="200.717065" style="fill: #2563eb; stroke: #2563eb"/>
     <use xlink:href="#m06f8d2b367" x="260.773902" y="171.551113" style="fill: #2563eb; stroke: #2563eb"/>
     <use xlink:href="#m06f8d2b367" x="282.659321" y="158.588467" style="fill: #2563eb; stroke: #2563eb"/>
     <use xlink:href="#m06f8d2b367" x="297.51014" y="155.347806" style="fill: #2563eb; stroke: #2563eb"/>
     <use xlink:href="#m06f8d2b367" x="328.514482" y="148.218351" style="fill: #2563eb; stroke: #2563eb"/>
     <use xlink:href="#m06f8d2b367" x="334.767459" y="144.113513" style="fill: #2563eb; stroke: #2563eb"/>
     <use xlink:href="#m06f8d2b367" x="336.591244" y="119.700531" style="fill: #2563eb; stroke: #2563eb"/>
     <use xlink:href="#m06f8d2b367" x="342.58368" y="118.404266" style="fill: #2563eb; stroke: #2563eb"/>
     <use xlink:href="#m06f8d2b367" x="370.982615" y="116.243826" style="fill: #2563eb; stroke: #2563eb"/>
     <use xlink:href="#m06f8d2b367" x="377.496132" y="115.595693" style="fill: #2563eb; stroke: #2563eb"/>
     <use xlink:href="#m06f8d2b367" x="390.002086" y="98.960298" style="fill: #2563eb; stroke: #2563eb"/>
     <use xlink:href="#m06f8d2b367" x="398.599929" y="80.596551" style="fill: #2563eb; stroke: #2563eb"/>
     <use xlink:href="#m06f8d2b367" x="413.190207" y="76.923801" style="fill: #2563eb; stroke: #2563eb"/>
     <use xlink:href="#m06f8d2b367" x="415.795614" y="73.68314" style="fill: #2563eb; stroke: #2563eb"/>
     <use xlink:href="#m06f8d2b367" x="444.19455" y="64.1772" style="fill: #2563eb; stroke: #2563eb"/>
     <use xlink:href="#m06f8d2b367" x="451.75023" y="63.313023" style="fill: #2563eb; stroke: #2563eb"/>
     <use xlink:href="#m06f8d2b367" x="477.283218" y="56.183568" style="fill: #2563eb; stroke: #2563eb"/>
     <use xlink:href="#m06f8d2b367" x="491.612956" y="55.75148" style="fill: #2563eb; stroke: #2563eb"/>
     <use xlink:href="#m06f8d2b367" x="517.667025" y="52.942907" style="fill: #2563eb; stroke: #2563eb"/>
     <use xlink:href="#m06f8d2b367" x="521.314594" y="51.430598" style="fill: #2563eb; stroke: #2563eb"/>
     <use xlink:href="#m06f8d2b367" x="525.483246" y="50.782466" style="fill: #2563eb; stroke: #2563eb"/>
     <use xlink:href="#m06f8d2b367" x="526.264868" y="50.350378" style="fill: #2563eb; stroke: #2563eb"/>
     <use xlink:href="#m06f8d2b367" x="540.073524" y="49.702246" style="fill: #2563eb; stroke: #2563eb"/>
     <use xlink:href="#m06f8d2b367" x="540.594606" y="49.270157" style="fill: #2563eb; stroke: #2563eb"/>
     <use xlink:href="#m06f8d2b367" x="545.284338" y="48.838069" style="fill: #2563eb; stroke: #2563eb"/>
     <use xlink:href="#m06f8d2b367" x="549.974071" y="48.622025" style="fill: #2563eb; stroke: #2563eb"/>
     <use xlink:href="#m06f8d2b367" x="554.403262" y="47.757849" style="fill: #2563eb; stroke: #2563eb"/>
     <use xlink:href="#m06f8d2b367" x="555.184884" y="47.541805" style="fill: #2563eb; stroke: #2563eb"/>
     <use xlink:href="#m06f8d2b367" x="568.733" y="46.893672" style="fill: #2563eb; stroke: #2563eb"/>
     <use xlink:href="#m06f8d2b367" x="569.254082" y="46.461584" style="fill: #2563eb; stroke: #2563eb"/>
     <use xlink:href="#m06f8d2b367" x="573.683274" y="46.24554" style="fill: #2563eb; stroke: #2563eb"/>
     <use xlink:href="#m06f8d2b367" x="574.204355" y="45.813452" style="fill: #2563eb; stroke: #2563eb"/>
     <use xlink:href="#m06f8d2b367" x="602.34275" y="45.597408" style="fill: #2563eb; stroke: #2563eb"/>
     <use xlink:href="#m06f8d2b367" x="602.60329" y="45.381364" style="fill: #2563eb; stroke: #2563eb"/>
     <use xlink:href="#m06f8d2b367" x="603.124372" y="44.949276" style="fill: #2563eb; stroke: #2563eb"/>
     <use xlink:href="#m06f8d2b367" x="607.814104" y="44.733232" style="fill: #2563eb; stroke: #2563eb"/>
     <use xlink:href="#m06f8d2b367" x="607.814104" y="44.517187" style="fill: #2563eb; stroke: #2563eb"/>
    </g>
   </g>
   <g id="line2d_20">
    <path d="M 100.801918 397.317187 
L 101.062458 397.101143 
L 101.322999 396.669055 
L 101.58354 396.453011 
L 102.625702 395.804879 
L 102.886243 395.156747 
L 103.667865 392.348173 
L 108.357598 391.916085 
L 109.660301 384.354542 
L 115.392196 384.138498 
L 119.821388 377.873219 
L 119.821388 367.287059 
L 132.848423 345.898694 
L 138.059237 326.238682 
L 151.607353 307.226802 
L 151.867893 306.578669 
L 159.163033 300.529435 
L 164.894928 300.097347 
L 181.308991 283.461952 
L 188.34359 281.733599 
L 200.589003 267.906777 
L 202.933869 267.042601 
L 207.10252 265.530292 
L 211.531712 264.234028 
L 227.945775 257.104573 
L 230.290642 256.672484 
L 234.980374 254.512044 
L 340.499354 252.783691 
L 341.280976 249.759074 
L 344.146924 247.382589 
L 348.315575 242.413575 
L 350.13936 241.549398 
L 352.223685 241.11731 
L 353.265848 237.228516 
L 357.434499 236.36434 
L 359.258284 234.852031 
L 361.34261 234.419943 
L 363.687476 233.987855 
L 363.948017 233.555767 
L 365.771801 232.475546 
L 367.856127 232.043458 
L 368.637749 231.827414 
L 371.764237 231.395326 
L 374.109103 230.963238 
L 376.193429 230.53115 
L 377.235592 229.666973 
L 378.277755 228.802797 
L 380.622621 228.370709 
L 382.967487 228.154665 
L 386.615057 227.722576 
L 386.615057 225.77818 
L 388.699382 225.130047 
L 391.044248 224.481915 
L 393.128574 222.969606 
L 395.47344 222.753562 
L 398.860469 222.321474 
L 400.423713 222.10543 
L 402.76858 221.889386 
L 403.289661 221.673342 
L 406.67669 221.457298 
L 407.458312 221.241254 
L 408.239934 221.02521 
L 410.32426 219.944989 
L 412.669126 219.728945 
L 419.964265 219.512901 
L 433.772922 219.296857 
L 434.815085 219.080813 
L 435.075625 218.864769 
L 435.336166 218.648725 
L 435.857247 218.43268 
" clip-path="url(#p358fff4017)" style="fill: none; stroke: #dc2626; stroke-width: 2; stroke-linecap: round"/>
    <defs>
     <path id="mecb8cbead5" d="M 0 2 
C 0.530406 2 1.03916 1.789267 1.414214 1.414214 
C 1.789267 1.03916 2 0.530406 2 0 
C 2 -0.530406 1.789267 -1.03916 1.414214 -1.414214 
C 1.03916 -1.789267 0.530406 -2 0 -2 
C -0.530406 -2 -1.03916 -1.789267 -1.414214 -1.414214 
C -1.789267 -1.03916 -2 -0.530406 -2 0 
C -2 0.530406 -1.789267 1.03916 -1.414214 1.414214 
C -1.03916 1.789267 -0.530406 2 0 2 
z
" style="stroke: #dc2626"/>
    </defs>
    <g clip-path="url(#p358fff4017)">
     <use xlink:href="#mecb8cbead5" x="100.801918" y="397.317187" style="fill: #dc2626; stroke: #dc2626"/>
     <use xlink:href="#mecb8cbead5" x="101.062458" y="397.101143" style="fill: #dc2626; stroke: #dc2626"/>
     <use xlink:href="#mecb8cbead5" x="101.322999" y="396.669055" style="fill: #dc2626; stroke: #dc2626"/>
     <use xlink:href="#mecb8cbead5" x="101.58354" y="396.453011" style="fill: #dc2626; stroke: #dc2626"/>
     <use xlink:href="#mecb8cbead5" x="102.625702" y="395.804879" style="fill: #dc2626; stroke: #dc2626"/>
     <use xlink:href="#mecb8cbead5" x="102.886243" y="395.156747" style="fill: #dc2626; stroke: #dc2626"/>
     <use xlink:href="#mecb8cbead5" x="103.667865" y="392.348173" style="fill: #dc2626; stroke: #dc2626"/>
     <use xlink:href="#mecb8cbead5" x="108.357598" y="391.916085" style="fill: #dc2626; stroke: #dc2626"/>
     <use xlink:href="#mecb8cbead5" x="109.660301" y="384.354542" style="fill: #dc2626; stroke: #dc2626"/>
     <use xlink:href="#mecb8cbead5" x="115.392196" y="384.138498" style="fill: #dc2626; stroke: #dc2626"/>
     <use xlink:href="#mecb8cbead5" x="119.821388" y="377.873219" style="fill: #dc2626; stroke: #dc2626"/>
     <use xlink:href="#mecb8cbead5" x="119.821388" y="367.287059" style="fill: #dc2626; stroke: #dc2626"/>
     <use xlink:href="#mecb8cbead5" x="132.848423" y="345.898694" style="fill: #dc2626; stroke: #dc2626"/>
     <use xlink:href="#mecb8cbead5" x="138.059237" y="326.238682" style="fill: #dc2626; stroke: #dc2626"/>
     <use xlink:href="#mecb8cbead5" x="151.607353" y="307.226802" style="fill: #dc2626; stroke: #dc2626"/>
     <use xlink:href="#mecb8cbead5" x="151.867893" y="306.578669" style="fill: #dc2626; stroke: #dc2626"/>
     <use xlink:href="#mecb8cbead5" x="159.163033" y="300.529435" style="fill: #dc2626; stroke: #dc2626"/>
     <use xlink:href="#mecb8cbead5" x="164.894928" y="300.097347" style="fill: #dc2626; stroke: #dc2626"/>
     <use xlink:href="#mecb8cbead5" x="181.308991" y="283.461952" style="fill: #dc2626; stroke: #dc2626"/>
     <use xlink:href="#mecb8cbead5" x="188.34359" y="281.733599" style="fill: #dc2626; stroke: #dc2626"/>
     <use xlink:href="#mecb8cbead5" x="200.589003" y="267.906777" style="fill: #dc2626; stroke: #dc2626"/>
     <use xlink:href="#mecb8cbead5" x="202.933869" y="267.042601" style="fill: #dc2626; stroke: #dc2626"/>
     <use xlink:href="#mecb8cbead5" x="207.10252" y="265.530292" style="fill: #dc2626; stroke: #dc2626"/>
     <use xlink:href="#mecb8cbead5" x="211.531712" y="264.234028" style="fill: #dc2626; stroke: #dc2626"/>
     <use xlink:href="#mecb8cbead5" x="227.945775" y="257.104573" style="fill: #dc2626; stroke: #dc2626"/>
     <use xlink:href="#mecb8cbead5" x="230.290642" y="256.672484" style="fill: #dc2626; stroke: #dc2626"/>
     <use xlink:href="#mecb8cbead5" x="234.980374" y="254.512044" style="fill: #dc2626; stroke: #dc2626"/>
     <use xlink:href="#mecb8cbead5" x="340.499354" y="252.783691" style="fill: #dc2626; stroke: #dc2626"/>
     <use xlink:href="#mecb8cbead5" x="341.280976" y="249.759074" style="fill: #dc2626; stroke: #dc2626"/>
     <use xlink:href="#mecb8cbead5" x="344.146924" y="247.382589" style="fill: #dc2626; stroke: #dc2626"/>
     <use xlink:href="#mecb8cbead5" x="348.315575" y="242.413575" style="fill: #dc2626; stroke: #dc2626"/>
     <use xlink:href="#mecb8cbead5" x="350.13936" y="241.549398" style="fill: #dc2626; stroke: #dc2626"/>
     <use xlink:href="#mecb8cbead5" x="352.223685" y="241.11731" style="fill: #dc2626; stroke: #dc2626"/>
     <use xlink:href="#mecb8cbead5" x="353.265848" y="237.228516" style="fill: #dc2626; stroke: #dc2626"/>
     <use xlink:href="#mecb8cbead5" x="357.434499" y="236.36434" style="fill: #dc2626; stroke: #dc2626"/>
     <use xlink:href="#mecb8cbead5" x="359.258284" y="234.852031" style="fill: #dc2626; stroke: #dc2626"/>
     <use xlink:href="#mecb8cbead5" x="361.34261" y="234.419943" style="fill: #dc2626; stroke: #dc2626"/>
     <use xlink:href="#mecb8cbead5" x="363.687476" y="233.987855" style="fill: #dc2626; stroke: #dc2626"/>
     <use xlink:href="#mecb8cbead5" x="363.948017" y="233.555767" style="fill: #dc2626; stroke: #dc2626"/>
     <use xlink:href="#mecb8cbead5" x="365.771801" y="232.475546" style="fill: #dc2626; stroke: #dc2626"/>
     <use xlink:href="#mecb8cbead5" x="367.856127" y="232.043458" style="fill: #dc2626; stroke: #dc2626"/>
     <use xlink:href="#mecb8cbead5" x="368.637749" y="231.827414" style="fill: #dc2626; stroke: #dc2626"/>
     <use xlink:href="#mecb8cbead5" x="371.764237" y="231.395326" style="fill: #dc2626; stroke: #dc2626"/>
     <use xlink:href="#mecb8cbead5" x="374.109103" y="230.963238" style="fill: #dc2626; stroke: #dc2626"/>
     <use xlink:href="#mecb8cbead5" x="376.193429" y="230.53115" style="fill: #dc2626; stroke: #dc2626"/>
     <use xlink:href="#mecb8cbead5" x="377.235592" y="229.666973" style="fill: #dc2626; stroke: #dc2626"/>
     <use xlink:href="#mecb8cbead5" x="378.277755" y="228.802797" style="fill: #dc2626; stroke: #dc2626"/>
     <use xlink:href="#mecb8cbead5" x="380.622621" y="228.370709" style="fill: #dc2626; stroke: #dc2626"/>
     <use xlink:href="#mecb8cbead5" x="382.967487" y="228.154665" style="fill: #dc2626; stroke: #dc2626"/>
     <use xlink:href="#mecb8cbead5" x="386.615057" y="227.722576" style="fill: #dc2626; stroke: #dc2626"/>
     <use xlink:href="#mecb8cbead5" x="386.615057" y="225.77818" style="fill: #dc2626; stroke: #dc2626"/>
     <use xlink:href="#mecb8cbead5" x="388.699382" y="225.130047" style="fill: #dc2626; stroke: #dc2626"/>
     <use xlink:href="#mecb8cbead5" x="391.044248" y="224.481915" style="fill: #dc2626; stroke: #dc2626"/>
     <use xlink:href="#mecb8cbead5" x="393.128574" y="222.969606" style="fill: #dc2626; stroke: #dc2626"/>
     <use xlink:href="#mecb8cbead5" x="395.47344" y="222.753562" style="fill: #dc2626; stroke: #dc2626"/>
     <use xlink:href="#mecb8cbead5" x="398.860469" y="222.321474" style="fill: #dc2626; stroke: #dc2626"/>
     <use xlink:href="#mecb8cbead5" x="400.423713" y="222.10543" style="fill: #dc2626; stroke: #dc2626"/>
     <use xlink:href="#mecb8cbead5" x="402.76858" y="221.889386" style="fill: #dc2626; stroke: #dc2626"/>
     <use xlink:href="#mecb8cbead5" x="403.289661" y="221.673342" style="fill: #dc2626; stroke: #dc2626"/>
     <use xlink:href="#mecb8cbead5" x="406.67669" y="221.457298" style="fill: #dc2626; stroke: #dc2626"/>
     <use xlink:href="#mecb8cbead5" x="407.458312" y="221.241254" style="fill: #dc2626; stroke: #dc2626"/>
     <use xlink:href="#mecb8cbead5" x="408.239934" y="221.02521" style="fill: #dc2626; stroke: #dc2626"/>
     <use xlink:href="#mecb8cbead5" x="410.32426" y="219.944989" style="fill: #dc2626; stroke: #dc2626"/>
     <use xlink:href="#mecb8cbead5" x="412.669126" y="219.728945" style="fill: #dc2626; stroke: #dc2626"/>
     <use xlink:href="#mecb8cbead5" x="419.964265" y="219.512901" style="fill: #dc2626; stroke: #dc2626"/>
     <use xlink:href="#mecb8cbead5" x="433.772922" y="219.296857" style="fill: #dc2626; stroke: #dc2626"/>
     <use xlink:href="#mecb8cbead5" x="434.815085" y="219.080813" style="fill: #dc2626; stroke: #dc2626"/>
     <use xlink:href="#mecb8cbead5" x="435.075625" y="218.864769" style="fill: #dc2626; stroke: #dc2626"/>
     <use xlink:href="#mecb8cbead5" x="435.336166" y="218.648725" style="fill: #dc2626; stroke: #dc2626"/>
     <use xlink:href="#mecb8cbead5" x="435.857247" y="218.43268" style="fill: #dc2626; stroke: #dc2626"/>
    </g>
   </g>
   <g id="patch_3">
    <path d="M 75.438281 414.957187 
L 75.438281 26.877187 
" style="fill: none; stroke: #cccccc; stroke-width: 1.25; stroke-linejoin: miter; stroke-linecap: square"/>
   </g>
   <g id="patch_4">
    <path d="M 633.438281 414.957187 
L 633.438281 26.877187 
" style="fill: none; stroke: #cccccc; stroke-width: 1.25; stroke-linejoin: miter; stroke-linecap: square"/>
   </g>
   <g id="patch_5">
    <path d="M 75.438281 414.957187 
L 633.438281 414.957187 
" style="fill: none; stroke: #cccccc; stroke-width: 1.25; stroke-linejoin: miter; stroke-linecap: square"/>
   </g>
   <g id="patch_6">
    <path d="M 75.438281 26.877187 
L 633.438281 26.877187 
" style="fill: none; stroke: #cccccc; stroke-width: 1.25; stroke-linejoin: miter; stroke-linecap: square"/>
   </g>
   <g id="text_21">
    <!-- Pareto Frontiers: Score vs Overhead — IT -->
    <g style="fill: #262626" transform="translate(170.105625 20.877187) scale(0.18 -0.18)">
     <defs>
      <path id="DejaVuSans-33" d="M 1259 4147 
L 1259 2394 
L 2053 2394 
Q 2494 2394 2734 2622 
Q 2975 2850 2975 3272 
Q 2975 3691 2734 3919 
Q 2494 4147 2053 4147 
L 1259 4147 
z
M 628 4666 
L 2053 4666 
Q 2838 4666 3239 4311 
Q 3641 3956 3641 3272 
Q 3641 2581 3239 2228 
Q 2838 1875 2053 1875 
L 1259 1875 
L 1259 0 
L 628 0 
L 628 4666 
z
" transform="scale(0.015625)"/>
      <path id="DejaVuSans-57" d="M 1172 4494 
L 1172 3500 
L 2356 3500 
L 2356 3053 
L 1172 3053 
L 1172 1153 
Q 1172 725 1289 603 
Q 1406 481 1766 481 
L 2356 481 
L 2356 0 
L 1766 0 
Q 1100 0 847 248 
Q 594 497 594 1153 
L 594 3053 
L 172 3053 
L 172 3500 
L 594 3500 
L 594 4494 
L 1172 4494 
z
" transform="scale(0.015625)"/>
      <path id="DejaVuSans-29" d="M 628 4666 
L 3309 4666 
L 3309 4134 
L 1259 4134 
L 1259 2759 
L 3109 2759 
L 3109 2228 
L 1259 2228 
L 1259 0 
L 628 0 
L 628 4666 
z
" transform="scale(0.015625)"/>
      <path id="DejaVuSans-51" d="M 3513 2113 
L 3513 0 
L 2938 0 
L 2938 2094 
Q 2938 2591 2744 2837 
Q 2550 3084 2163 3084 
Q 1697 3084 1428 2787 
Q 1159 2491 1159 1978 
L 1159 0 
L 581 0 
L 581 3500 
L 1159 3500 
L 1159 2956 
Q 1366 3272 1645 3428 
Q 1925 3584 2291 3584 
Q 2894 3584 3203 3211 
Q 3513 2838 3513 2113 
z
" transform="scale(0.015625)"/>
      <path id="DejaVuSans-56" d="M 2834 3397 
L 2834 2853 
Q 2591 2978 2328 3040 
Q 2066 3103 1784 3103 
Q 1356 3103 1142 2972 
Q 928 2841 928 2578 
Q 928 2378 1081 2264 
Q 1234 2150 1697 2047 
L 1894 2003 
Q 2506 1872 2764 1633 
Q 3022 1394 3022 966 
Q 3022 478 2636 193 
Q 2250 -91 1575 -91 
Q 1294 -91 989 -36 
Q 684 19 347 128 
L 347 722 
Q 666 556 975 473 
Q 1284 391 1588 391 
Q 1994 391 2212 530 
Q 2431 669 2431 922 
Q 2431 1156 2273 1281 
Q 2116 1406 1581 1522 
L 1381 1569 
Q 847 1681 609 1914 
Q 372 2147 372 2553 
Q 372 3047 722 3315 
Q 1072 3584 1716 3584 
Q 2034 3584 2315 3537 
Q 2597 3491 2834 3397 
z
" transform="scale(0.015625)"/>
      <path id="DejaVuSans-1d" d="M 750 794 
L 1409 794 
L 1409 0 
L 750 0 
L 750 794 
z
M 750 3309 
L 1409 3309 
L 1409 2516 
L 750 2516 
L 750 3309 
z
" transform="scale(0.015625)"/>
      <path id="DejaVuSans-af6" d="M 313 1978 
L 6088 1978 
L 6088 1528 
L 313 1528 
L 313 1978 
z
" transform="scale(0.015625)"/>
      <path id="DejaVuSans-2c" d="M 628 4666 
L 1259 4666 
L 1259 0 
L 628 0 
L 628 4666 
z
" transform="scale(0.015625)"/>
     </defs>
     <use xlink:href="#DejaVuSans-33"/>
     <use xlink:href="#DejaVuSans-44" transform="translate(55.8125 0)"/>
     <use xlink:href="#DejaVuSans-55" transform="translate(117.09375 0)"/>
     <use xlink:href="#DejaVuSans-48" transform="translate(156 0)"/>
     <use xlink:href="#DejaVuSans-57" transform="translate(217.53125 0)"/>
     <use xlink:href="#DejaVuSans-52" transform="translate(256.734375 0)"/>
     <use xlink:href="#DejaVuSans-3" transform="translate(317.921875 0)"/>
     <use xlink:href="#DejaVuSans-29" transform="translate(349.703125 0)"/>
     <use xlink:href="#DejaVuSans-55" transform="translate(399.9375 0)"/>
     <use xlink:href="#DejaVuSans-52" transform="translate(438.84375 0)"/>
     <use xlink:href="#DejaVuSans-51" transform="translate(500.03125 0)"/>
     <use xlink:href="#DejaVuSans-57" transform="translate(563.40625 0)"/>
     <use xlink:href="#DejaVuSans-4c" transform="translate(602.609375 0)"/>
     <use xlink:href="#DejaVuSans-48" transform="translate(630.390625 0)"/>
     <use xlink:href="#DejaVuSans-55" transform="translate(691.921875 0)"/>
     <use xlink:href="#DejaVuSans-56" transform="translate(733.03125 0)"/>
     <use xlink:href="#DejaVuSans-1d" transform="translate(785.125 0)"/>
     <use xlink:href="#DejaVuSans-3" transform="translate(818.8125 0)"/>
     <use xlink:href="#DejaVuSans-36" transform="translate(850.59375 0)"/>
     <use xlink:href="#DejaVuSans-46" transform="translate(914.078125 0)"/>
     <use xlink:href="#DejaVuSans-52" transform="translate(969.0625 0)"/>
     <use xlink:href="#DejaVuSans-55" transform="translate(1030.25 0)"/>
     <use xlink:href="#DejaVuSans-48" transform="translate(1069.15625 0)"/>
     <use xlink:href="#DejaVuSans-3" transform="translate(1130.6875 0)"/>
     <use xlink:href="#DejaVuSans-59" transform="translate(1162.46875 0)"/>
     <use xlink:href="#DejaVuSans-56" transform="translate(1221.65625 0)"/>
     <use xlink:href="#DejaVuSans-3" transform="translate(1273.75 0)"/>
     <use xlink:href="#DejaVuSans-32" transform="translate(1305.53125 0)"/>
     <use xlink:href="#DejaVuSans-59" transform="translate(1384.25 0)"/>
     <use xlink:href="#DejaVuSans-48" transform="translate(1443.4375 0)"/>
     <use xlink:href="#DejaVuSans-55" transform="translate(1504.96875 0)"/>
     <use xlink:href="#DejaVuSans-4b" transform="translate(1544.328125 0)"/>
     <use xlink:href="#DejaVuSans-48" transform="translate(1607.703125 0)"/>
     <use xlink:href="#DejaVuSans-44" transform="translate(1669.234375 0)"/>
     <use xlink:href="#DejaVuSans-47" transform="translate(1730.515625 0)"/>
     <use xlink:href="#DejaVuSans-3" transform="translate(1794 0)"/>
     <use xlink:href="#DejaVuSans-af6" transform="translate(1825.78125 0)"/>
     <use xlink:href="#DejaVuSans-3" transform="translate(1925.78125 0)"/>
     <use xlink:href="#DejaVuSans-2c" transform="translate(1957.5625 0)"/>
     <use xlink:href="#DejaVuSans-37" transform="translate(1987.0625 0)"/>
    </g>
   </g>
   <g id="legend_1">
    <g id="patch_7">
     <path d="M 479.898281 410.457187 
L 627.138281 410.457187 
Q 628.938281 410.457187 628.938281 408.657187 
L 628.938281 355.554375 
Q 628.938281 353.754375 627.138281 353.754375 
L 479.898281 353.754375 
Q 478.098281 353.754375 478.098281 355.554375 
L 478.098281 408.657187 
Q 478.098281 410.457187 479.898281 410.457187 
z
" style="fill: #ffffff; opacity: 0.8; stroke: #cccccc; stroke-linejoin: miter"/>
    </g>
    <g id="line2d_21">
     <path d="M 481.698281 361.042969 
L 490.698281 361.042969 
L 499.698281 361.042969 
" style="fill: none; stroke: #2563eb; stroke-width: 2; stroke-linecap: round"/>
     <g>
      <use xlink:href="#m06f8d2b367" x="490.698281" y="361.042969" style="fill: #2563eb; stroke: #2563eb"/>
     </g>
    </g>
    <g id="text_22">
     <!-- DeepSeek V3 frontier -->
     <g style="fill: #262626" transform="translate(506.898281 364.192969) scale(0.09 -0.09)">
      <defs>
       <path id="DejaVuSans-27" d="M 1259 4147 
L 1259 519 
L 2022 519 
Q 2988 519 3436 956 
Q 3884 1394 3884 2338 
Q 3884 3275 3436 3711 
Q 2988 4147 2022 4147 
L 1259 4147 
z
M 628 4666 
L 1925 4666 
Q 3281 4666 3915 4102 
Q 4550 3538 4550 2338 
Q 4550 1131 3912 565 
Q 3275 0 1925 0 
L 628 0 
L 628 4666 
z
" transform="scale(0.015625)"/>
       <path id="DejaVuSans-53" d="M 1159 525 
L 1159 -1331 
L 581 -1331 
L 581 3500 
L 1159 3500 
L 1159 2969 
Q 1341 3281 1617 3432 
Q 1894 3584 2278 3584 
Q 2916 3584 3314 3078 
Q 3713 2572 3713 1747 
Q 3713 922 3314 415 
Q 2916 -91 2278 -91 
Q 1894 -91 1617 61 
Q 1341 213 1159 525 
z
M 3116 1747 
Q 3116 2381 2855 2742 
Q 2594 3103 2138 3103 
Q 1681 3103 1420 2742 
Q 1159 2381 1159 1747 
Q 1159 1113 1420 752 
Q 1681 391 2138 391 
Q 2594 391 2855 752 
Q 3116 1113 3116 1747 
z
" transform="scale(0.015625)"/>
       <path id="DejaVuSans-4e" d="M 581 4863 
L 1159 4863 
L 1159 1991 
L 2875 3500 
L 3609 3500 
L 1753 1863 
L 3688 0 
L 2938 0 
L 1159 1709 
L 1159 0 
L 581 0 
L 581 4863 
z
" transform="scale(0.015625)"/>
       <path id="DejaVuSans-39" d="M 1831 0 
L 50 4666 
L 709 4666 
L 2188 738 
L 3669 4666 
L 4325 4666 
L 2547 0 
L 1831 0 
z
" transform="scale(0.015625)"/>
       <path id="DejaVuSans-16" d="M 2597 2516 
Q 3050 2419 3304 2112 
Q 3559 1806 3559 1356 
Q 3559 666 3084 287 
Q 2609 -91 1734 -91 
Q 1441 -91 1130 -33 
Q 819 25 488 141 
L 488 750 
Q 750 597 1062 519 
Q 1375 441 1716 441 
Q 2309 441 2620 675 
Q 2931 909 2931 1356 
Q 2931 1769 2642 2001 
Q 2353 2234 1838 2234 
L 1294 2234 
L 1294 2753 
L 1863 2753 
Q 2328 2753 2575 2939 
Q 2822 3125 2822 3475 
Q 2822 3834 2567 4026 
Q 2313 4219 1838 4219 
Q 1578 4219 1281 4162 
Q 984 4106 628 3988 
L 628 4550 
Q 988 4650 1302 4700 
Q 1616 4750 1894 4750 
Q 2613 4750 3031 4423 
Q 3450 4097 3450 3541 
Q 3450 3153 3228 2886 
Q 3006 2619 2597 2516 
z
" transform="scale(0.015625)"/>
       <path id="DejaVuSans-49" d="M 2375 4863 
L 2375 4384 
L 1825 4384 
Q 1516 4384 1395 4259 
Q 1275 4134 1275 3809 
L 1275 3500 
L 2222 3500 
L 2222 3053 
L 1275 3053 
L 1275 0 
L 697 0 
L 697 3053 
L 147 3053 
L 147 3500 
L 697 3500 
L 697 3744 
Q 697 4328 969 4595 
Q 1241 4863 1831 4863 
L 2375 4863 
z
" transform="scale(0.015625)"/>
      </defs>
      <use xlink:href="#DejaVuSans-27"/>
      <use xlink:href="#DejaVuSans-48" transform="translate(77 0)"/>
      <use xlink:href="#DejaVuSans-48" transform="translate(138.53125 0)"/>
      <use xlink:href="#DejaVuSans-53" transform="translate(200.0625 0)"/>
      <use xlink:href="#DejaVuSans-36" transform="translate(263.546875 0)"/>
      <use xlink:href="#DejaVuSans-48" transform="translate(327.03125 0)"/>
      <use xlink:href="#DejaVuSans-48" transform="translate(388.5625 0)"/>
      <use xlink:href="#DejaVuSans-4e" transform="translate(450.09375 0)"/>
      <use xlink:href="#DejaVuSans-3" transform="translate(508 0)"/>
      <use xlink:href="#DejaVuSans-39" transform="translate(539.78125 0)"/>
      <use xlink:href="#DejaVuSans-16" transform="translate(608.1875 0)"/>
      <use xlink:href="#DejaVuSans-3" transform="translate(671.8125 0)"/>
      <use xlink:href="#DejaVuSans-49" transform="translate(703.59375 0)"/>
      <use xlink:href="#DejaVuSans-55" transform="translate(738.796875 0)"/>
      <use xlink:href="#DejaVuSans-52" transform="translate(777.703125 0)"/>
      <use xlink:href="#DejaVuSans-51" transform="translate(838.890625 0)"/>
      <use xlink:href="#DejaVuSans-57" transform="translate(902.265625 0)"/>
      <use xlink:href="#DejaVuSans-4c" transform="translate(941.46875 0)"/>
      <use xlink:href="#DejaVuSans-48" transform="translate(969.25 0)"/>
      <use xlink:href="#DejaVuSans-55" transform="translate(1030.78125 0)"/>
     </g>
    </g>
    <g id="PathCollection_1">
     <defs>
      <path id="m29959db0c0" d="M 0 -7.071068 
L -1.587554 -2.18508 
L -6.724985 -2.18508 
L -2.568716 0.834626 
L -4.156269 5.720614 
L -0 2.700907 
L 4.156269 5.720614 
L 2.568716 0.834626 
L 6.724985 -2.18508 
L 1.587554 -2.18508 
z
" style="stroke: #000000"/>
     </defs>
     <g>
      <use xlink:href="#m29959db0c0" x="490.698281" y="375.331172" style="fill: #ff0000; stroke: #000000"/>
     </g>
    </g>
    <g id="text_23">
     <!-- DeepSeek V3 best (0.663) -->
     <g style="fill: #262626" transform="translate(506.898281 377.693672) scale(0.09 -0.09)">
      <defs>
       <path id="DejaVuSans-45" d="M 3116 1747 
Q 3116 2381 2855 2742 
Q 2594 3103 2138 3103 
Q 1681 3103 1420 2742 
Q 1159 2381 1159 1747 
Q 1159 1113 1420 752 
Q 1681 391 2138 391 
Q 2594 391 2855 752 
Q 3116 1113 3116 1747 
z
M 1159 2969 
Q 1341 3281 1617 3432 
Q 1894 3584 2278 3584 
Q 2916 3584 3314 3078 
Q 3713 2572 3713 1747 
Q 3713 922 3314 415 
Q 2916 -91 2278 -91 
Q 1894 -91 1617 61 
Q 1341 213 1159 525 
L 1159 0 
L 581 0 
L 581 4863 
L 1159 4863 
L 1159 2969 
z
" transform="scale(0.015625)"/>
      </defs>
      <use xlink:href="#DejaVuSans-27"/>
      <use xlink:href="#DejaVuSans-48" transform="translate(77 0)"/>
      <use xlink:href="#DejaVuSans-48" transform="translate(138.53125 0)"/>
      <use xlink:href="#DejaVuSans-53" transform="translate(200.0625 0)"/>
      <use xlink:href="#DejaVuSans-36" transform="translate(263.546875 0)"/>
      <use xlink:href="#DejaVuSans-48" transform="translate(327.03125 0)"/>
      <use xlink:href="#DejaVuSans-48" transform="translate(388.5625 0)"/>
      <use xlink:href="#DejaVuSans-4e" transform="translate(450.09375 0)"/>
      <use xlink:href="#DejaVuSans-3" transform="translate(508 0)"/>
      <use xlink:href="#DejaVuSans-39" transform="translate(539.78125 0)"/>
      <use xlink:href="#DejaVuSans-16" transform="translate(608.1875 0)"/>
      <use xlink:href="#DejaVuSans-3" transform="translate(671.8125 0)"/>
      <use xlink:href="#DejaVuSans-45" transform="translate(703.59375 0)"/>
      <use xlink:href="#DejaVuSans-48" transform="translate(767.078125 0)"/>
      <use xlink:href="#DejaVuSans-56" transform="translate(828.609375 0)"/>
      <use xlink:href="#DejaVuSans-57" transform="translate(880.703125 0)"/>
      <use xlink:href="#DejaVuSans-3" transform="translate(919.90625 0)"/>
      <use xlink:href="#DejaVuSans-b" transform="translate(951.6875 0)"/>
      <use xlink:href="#DejaVuSans-13" transform="translate(990.703125 0)"/>
      <use xlink:href="#DejaVuSans-11" transform="translate(1054.328125 0)"/>
      <use xlink:href="#DejaVuSans-19" transform="translate(1086.109375 0)"/>
      <use xlink:href="#DejaVuSans-19" transform="translate(1149.734375 0)"/>
      <use xlink:href="#DejaVuSans-16" transform="translate(1213.359375 0)"/>
      <use xlink:href="#DejaVuSans-c" transform="translate(1276.984375 0)"/>
     </g>
    </g>
    <g id="line2d_22">
     <path d="M 481.698281 388.044375 
L 490.698281 388.044375 
L 499.698281 388.044375 
" style="fill: none; stroke: #dc2626; stroke-width: 2; stroke-linecap: round"/>
     <g>
      <use xlink:href="#mecb8cbead5" x="490.698281" y="388.044375" style="fill: #dc2626; stroke: #dc2626"/>
     </g>
    </g>
    <g id="text_24">
     <!-- Kimi K2 frontier -->
     <g style="fill: #262626" transform="translate(506.898281 391.194375) scale(0.09 -0.09)">
      <defs>
       <path id="DejaVuSans-2e" d="M 628 4666 
L 1259 4666 
L 1259 2694 
L 3353 4666 
L 4166 4666 
L 1850 2491 
L 4331 0 
L 3500 0 
L 1259 2247 
L 1259 0 
L 628 0 
L 628 4666 
z
" transform="scale(0.015625)"/>
      </defs>
      <use xlink:href="#DejaVuSans-2e"/>
      <use xlink:href="#DejaVuSans-4c" transform="translate(65.578125 0)"/>
      <use xlink:href="#DejaVuSans-50" transform="translate(93.359375 0)"/>
      <use xlink:href="#DejaVuSans-4c" transform="translate(190.765625 0)"/>
      <use xlink:href="#DejaVuSans-3" transform="translate(218.546875 0)"/>
      <use xlink:href="#DejaVuSans-2e" transform="translate(250.328125 0)"/>
      <use xlink:href="#DejaVuSans-15" transform="translate(315.90625 0)"/>
      <use xlink:href="#DejaVuSans-3" transform="translate(379.53125 0)"/>
      <use xlink:href="#DejaVuSans-49" transform="translate(411.3125 0)"/>
      <use xlink:href="#DejaVuSans-55" transform="translate(446.515625 0)"/>
      <use xlink:href="#DejaVuSans-52" transform="translate(485.421875 0)"/>
      <use xlink:href="#DejaVuSans-51" transform="translate(546.609375 0)"/>
      <use xlink:href="#DejaVuSans-57" transform="translate(609.984375 0)"/>
      <use xlink:href="#DejaVuSans-4c" transform="translate(649.1875 0)"/>
      <use xlink:href="#DejaVuSans-48" transform="translate(676.96875 0)"/>
      <use xlink:href="#DejaVuSans-55" transform="translate(738.5 0)"/>
     </g>
    </g>
    <g id="PathCollection_2">
     <g>
      <use xlink:href="#m29959db0c0" x="490.698281" y="402.332578" style="fill: #ff0000; stroke: #000000"/>
     </g>
    </g>
    <g id="text_25">
     <!-- Kimi K2 best (0.583) -->
     <g style="fill: #262626" transform="translate(506.898281 404.695078) scale(0.09 -0.09)">
      <use xlink:href="#DejaVuSans-2e"/>
      <use xlink:href="#DejaVuSans-4c" transform="translate(65.578125 0)"/>
      <use xlink:href="#DejaVuSans-50" transform="translate(93.359375 0)"/>
      <use xlink:href="#DejaVuSans-4c" transform="translate(190.765625 0)"/>
      <use xlink:href="#DejaVuSans-3" transform="translate(218.546875 0)"/>
      <use xlink:href="#DejaVuSans-2e" transform="translate(250.328125 0)"/>
      <use xlink:href="#DejaVuSans-15" transform="translate(315.90625 0)"/>
      <use xlink:href="#DejaVuSans-3" transform="translate(379.53125 0)"/>
      <use xlink:href="#DejaVuSans-45" transform="translate(411.3125 0)"/>
      <use xlink:href="#DejaVuSans-48" transform="translate(474.796875 0)"/>
      <use xlink:href="#DejaVuSans-56" transform="translate(536.328125 0)"/>
      <use xlink:href="#DejaVuSans-57" transform="translate(588.421875 0)"/>
      <use xlink:href="#DejaVuSans-3" transform="translate(627.625 0)"/>
      <use xlink:href="#DejaVuSans-b" transform="translate(659.40625 0)"/>
      <use xlink:href="#DejaVuSans-13" transform="translate(698.421875 0)"/>
      <use xlink:href="#DejaVuSans-11" transform="translate(762.046875 0)"/>
      <use xlink:href="#DejaVuSans-18" transform="translate(793.828125 0)"/>
      <use xlink:href="#DejaVuSans-1b" transform="translate(857.453125 0)"/>
      <use xlink:href="#DejaVuSans-16" transform="translate(921.078125 0)"/>
      <use xlink:href="#DejaVuSans-c" transform="translate(984.703125 0)"/>
     </g>
    </g>
   </g>
   <g id="PathCollection_3">
    <g clip-path="url(#p358fff4017)">
     <use xlink:href="#m29959db0c0" x="608.074645" y="44.517187" style="fill: #ff0000; stroke: #000000"/>
    </g>
   </g>
   <g id="PathCollection_4">
    <g clip-path="url(#p358fff4017)">
     <use xlink:href="#m29959db0c0" x="437.159951" y="218.43268" style="fill: #ff0000; stroke: #000000"/>
    </g>
   </g>
  </g>
 </g>
 <defs>
  <clipPath id="p358fff4017">
   <rect x="75.438281" y="26.877187" width="558" height="388.08"/>
  </clipPath>
 </defs>
</svg>
