<?xml version="1.0" encoding="utf-8" standalone="no"?>
<!DOCTYPE svg PUBLIC "-//W3C//DTD SVG 1.1//EN"
  "http://www.w3.org/Graphics/SVG/1.1/DTD/svg11.dtd">
<svg xmlns:xlink="http://www.w3.org/1999/xlink" width="626.041406pt" height="457.310969pt" viewBox="0 0 626.041406 457.310969" xmlns="http://www.w3.org/2000/svg" version="1.1">
 <metadata>
  <rdf:RDF xmlns:dc="http://purl.org/dc/elements/1.1/" xmlns:cc="http://creativecommons.org/ns#" xmlns:rdf="http://www.w3.org/1999/02/22-rdf-syntax-ns#">
   <cc:Work>
    <dc:type rdf:resource="http://purl.org/dc/dcmitype/StillImage"/>
    <dc:date>2026-07-14T16:56:58.521812</dc:date>
    <dc:format>image/svg+xml</dc:format>
    <dc:creator>
     <cc:Agent>
      <dc:title>Matplotlib v3.11.0, https://matplotlib.org/</dc:title>
     </cc:Agent>
    </dc:creator>
   </cc:Work>
  </rdf:RDF>
 </metadata>
 <defs>
  <style type="text/css">*{stroke-linejoin: round; stroke-linecap: butt}</style>
 </defs>
 <g id="figure_1">
  <g id="patch_1">
   <path d="M 0 457.310969 
L 626.041406 457.310969 
L 626.041406 0 
L 0 0 
z
" style="fill: #ffffff"/>
  </g>
  <g id="axes_1">
   <g id="patch_2">
    <path d="M 60.841406 411.309937 
L 618.841406 411.309937 
L 618.841406 23.229938 
L 60.841406 23.229938 
z
" style="fill: #ffffff"/>
   </g>
   <g id="matplotlib.axis_1">
    <g id="xtick_1">
     <g id="line2d_1">
      <path d="M 86.205043 411.309937 
L 86.205043 23.229938 
" clip-path="url(#pbd223721e4)" style="fill: none; stroke: #cccccc; stroke-opacity: 0.3; stroke-linecap: round"/>
     </g>
     <g id="text_1">
      <!-- 0 -->
      <g style="fill: #262626" transform="translate(82.35573 430.003102) scale(0.121 -0.121)">
       <defs>
        <path id="DejaVuSans-13" d="M 2034 4250 
Q 1547 4250 1301 3770 
Q 1056 3291 1056 2328 
Q 1056 1369 1301 889 
Q 1547 409 2034 409 
Q 2525 409 2770 889 
Q 3016 1369 3016 2328 
Q 3016 3291 2770 3770 
Q 2525 4250 2034 4250 
z
M 2034 4750 
Q 2819 4750 3233 4129 
Q 3647 3509 3647 2328 
Q 3647 1150 3233 529 
Q 2819 -91 2034 -91 
Q 1250 -91 836 529 
Q 422 1150 422 2328 
Q 422 3509 836 4129 
Q 1250 4750 2034 4750 
z
" transform="scale(0.015625)"/>
       </defs>
       <use xlink:href="#DejaVuSans-13"/>
      </g>
     </g>
    </g>
    <g id="xtick_2">
     <g id="line2d_2">
      <path d="M 149.804933 411.309937 
L 149.804933 23.229938 
" clip-path="url(#pbd223721e4)" style="fill: none; stroke: #cccccc; stroke-opacity: 0.3; stroke-linecap: round"/>
     </g>
     <g id="text_2">
      <!-- 25 -->
      <g style="fill: #262626" transform="translate(142.106308 430.003102) scale(0.121 -0.121)">
       <defs>
        <path id="DejaVuSans-15" d="M 1228 531 
L 3431 531 
L 3431 0 
L 469 0 
L 469 531 
Q 828 903 1448 1529 
Q 2069 2156 2228 2338 
Q 2531 2678 2651 2914 
Q 2772 3150 2772 3378 
Q 2772 3750 2511 3984 
Q 2250 4219 1831 4219 
Q 1534 4219 1204 4116 
Q 875 4013 500 3803 
L 500 4441 
Q 881 4594 1212 4672 
Q 1544 4750 1819 4750 
Q 2544 4750 2975 4387 
Q 3406 4025 3406 3419 
Q 3406 3131 3298 2873 
Q 3191 2616 2906 2266 
Q 2828 2175 2409 1742 
Q 1991 1309 1228 531 
z
" transform="scale(0.015625)"/>
        <path id="DejaVuSans-18" d="M 691 4666 
L 3169 4666 
L 3169 4134 
L 1269 4134 
L 1269 2991 
Q 1406 3038 1543 3061 
Q 1681 3084 1819 3084 
Q 2600 3084 3056 2656 
Q 3513 2228 3513 1497 
Q 3513 744 3044 326 
Q 2575 -91 1722 -91 
Q 1428 -91 1123 -41 
Q 819 9 494 109 
L 494 744 
Q 775 591 1075 516 
Q 1375 441 1709 441 
Q 2250 441 2565 725 
Q 2881 1009 2881 1497 
Q 2881 1984 2565 2268 
Q 2250 2553 1709 2553 
Q 1456 2553 1204 2497 
Q 953 2441 691 2322 
L 691 4666 
z
" transform="scale(0.015625)"/>
       </defs>
       <use xlink:href="#DejaVuSans-15"/>
       <use xlink:href="#DejaVuSans-18" transform="translate(63.625 0)"/>
      </g>
     </g>
    </g>
    <g id="xtick_3">
     <g id="line2d_3">
      <path d="M 213.404824 411.309937 
L 213.404824 23.229938 
" clip-path="url(#pbd223721e4)" style="fill: none; stroke: #cccccc; stroke-opacity: 0.3; stroke-linecap: round"/>
     </g>
     <g id="text_3">
      <!-- 50 -->
      <g style="fill: #262626" transform="translate(205.706199 430.003102) scale(0.121 -0.121)">
       <use xlink:href="#DejaVuSans-18"/>
       <use xlink:href="#DejaVuSans-13" transform="translate(63.625 0)"/>
      </g>
     </g>
    </g>
    <g id="xtick_4">
     <g id="line2d_4">
      <path d="M 277.004714 411.309937 
L 277.004714 23.229938 
" clip-path="url(#pbd223721e4)" style="fill: none; stroke: #cccccc; stroke-opacity: 0.3; stroke-linecap: round"/>
     </g>
     <g id="text_4">
      <!-- 75 -->
      <g style="fill: #262626" transform="translate(269.306089 430.003102) scale(0.121 -0.121)">
       <defs>
        <path id="DejaVuSans-1a" d="M 525 4666 
L 3525 4666 
L 3525 4397 
L 1831 0 
L 1172 0 
L 2766 4134 
L 525 4134 
L 525 4666 
z
" transform="scale(0.015625)"/>
       </defs>
       <use xlink:href="#DejaVuSans-1a"/>
       <use xlink:href="#DejaVuSans-18" transform="translate(63.625 0)"/>
      </g>
     </g>
    </g>
    <g id="xtick_5">
     <g id="line2d_5">
      <path d="M 340.604605 411.309937 
L 340.604605 23.229938 
" clip-path="url(#pbd223721e4)" style="fill: none; stroke: #cccccc; stroke-opacity: 0.3; stroke-linecap: round"/>
     </g>
     <g id="text_5">
      <!-- 100 -->
      <g style="fill: #262626" transform="translate(329.056667 430.003102) scale(0.121 -0.121)">
       <defs>
        <path id="DejaVuSans-14" d="M 794 531 
L 1825 531 
L 1825 4091 
L 703 3866 
L 703 4441 
L 1819 4666 
L 2450 4666 
L 2450 531 
L 3481 531 
L 3481 0 
L 794 0 
L 794 531 
z
" transform="scale(0.015625)"/>
       </defs>
       <use xlink:href="#DejaVuSans-14"/>
       <use xlink:href="#DejaVuSans-13" transform="translate(63.625 0)"/>
       <use xlink:href="#DejaVuSans-13" transform="translate(127.25 0)"/>
      </g>
     </g>
    </g>
    <g id="xtick_6">
     <g id="line2d_6">
      <path d="M 404.204496 411.309937 
L 404.204496 23.229938 
" clip-path="url(#pbd223721e4)" style="fill: none; stroke: #cccccc; stroke-opacity: 0.3; stroke-linecap: round"/>
     </g>
     <g id="text_6">
      <!-- 125 -->
      <g style="fill: #262626" transform="translate(392.656558 430.003102) scale(0.121 -0.121)">
       <use xlink:href="#DejaVuSans-14"/>
       <use xlink:href="#DejaVuSans-15" transform="translate(63.625 0)"/>
       <use xlink:href="#DejaVuSans-18" transform="translate(127.25 0)"/>
      </g>
     </g>
    </g>
    <g id="xtick_7">
     <g id="line2d_7">
      <path d="M 467.804386 411.309937 
L 467.804386 23.229938 
" clip-path="url(#pbd223721e4)" style="fill: none; stroke: #cccccc; stroke-opacity: 0.3; stroke-linecap: round"/>
     </g>
     <g id="text_7">
      <!-- 150 -->
      <g style="fill: #262626" transform="translate(456.256449 430.003102) scale(0.121 -0.121)">
       <use xlink:href="#DejaVuSans-14"/>
       <use xlink:href="#DejaVuSans-18" transform="translate(63.625 0)"/>
       <use xlink:href="#DejaVuSans-13" transform="translate(127.25 0)"/>
      </g>
     </g>
    </g>
    <g id="xtick_8">
     <g id="line2d_8">
      <path d="M 531.404277 411.309937 
L 531.404277 23.229938 
" clip-path="url(#pbd223721e4)" style="fill: none; stroke: #cccccc; stroke-opacity: 0.3; stroke-linecap: round"/>
     </g>
     <g id="text_8">
      <!-- 175 -->
      <g style="fill: #262626" transform="translate(519.856339 430.003102) scale(0.121 -0.121)">
       <use xlink:href="#DejaVuSans-14"/>
       <use xlink:href="#DejaVuSans-1a" transform="translate(63.625 0)"/>
       <use xlink:href="#DejaVuSans-18" transform="translate(127.25 0)"/>
      </g>
     </g>
    </g>
    <g id="xtick_9">
     <g id="line2d_9">
      <path d="M 595.004167 411.309937 
L 595.004167 23.229938 
" clip-path="url(#pbd223721e4)" style="fill: none; stroke: #cccccc; stroke-opacity: 0.3; stroke-linecap: round"/>
     </g>
     <g id="text_9">
      <!-- 200 -->
      <g style="fill: #262626" transform="translate(583.45623 430.003102) scale(0.121 -0.121)">
       <use xlink:href="#DejaVuSans-15"/>
       <use xlink:href="#DejaVuSans-13" transform="translate(63.625 0)"/>
       <use xlink:href="#DejaVuSans-13" transform="translate(127.25 0)"/>
      </g>
     </g>
    </g>
    <g id="text_10">
     <!-- Time Overhead (%) -->
     <g style="fill: #262626" transform="translate(275.834812 446.939875) scale(0.132 -0.132)">
      <defs>
       <path id="DejaVuSans-37" d="M -19 4666 
L 3928 4666 
L 3928 4134 
L 2272 4134 
L 2272 0 
L 1638 0 
L 1638 4134 
L -19 4134 
L -19 4666 
z
" transform="scale(0.015625)"/>
       <path id="DejaVuSans-4c" d="M 603 3500 
L 1178 3500 
L 1178 0 
L 603 0 
L 603 3500 
z
M 603 4863 
L 1178 4863 
L 1178 4134 
L 603 4134 
L 603 4863 
z
" transform="scale(0.015625)"/>
       <path id="DejaVuSans-50" d="M 3328 2828 
Q 3544 3216 3844 3400 
Q 4144 3584 4550 3584 
Q 5097 3584 5394 3201 
Q 5691 2819 5691 2113 
L 5691 0 
L 5113 0 
L 5113 2094 
Q 5113 2597 4934 2840 
Q 4756 3084 4391 3084 
Q 3944 3084 3684 2787 
Q 3425 2491 3425 1978 
L 3425 0 
L 2847 0 
L 2847 2094 
Q 2847 2600 2669 2842 
Q 2491 3084 2119 3084 
Q 1678 3084 1418 2786 
Q 1159 2488 1159 1978 
L 1159 0 
L 581 0 
L 581 3500 
L 1159 3500 
L 1159 2956 
Q 1356 3278 1631 3431 
Q 1906 3584 2284 3584 
Q 2666 3584 2933 3390 
Q 3200 3197 3328 2828 
z
" transform="scale(0.015625)"/>
       <path id="DejaVuSans-48" d="M 3597 1894 
L 3597 1613 
L 953 1613 
Q 991 1019 1311 708 
Q 1631 397 2203 397 
Q 2534 397 2845 478 
Q 3156 559 3463 722 
L 3463 178 
Q 3153 47 2828 -22 
Q 2503 -91 2169 -91 
Q 1331 -91 842 396 
Q 353 884 353 1716 
Q 353 2575 817 3079 
Q 1281 3584 2069 3584 
Q 2775 3584 3186 3129 
Q 3597 2675 3597 1894 
z
M 3022 2063 
Q 3016 2534 2758 2815 
Q 2500 3097 2075 3097 
Q 1594 3097 1305 2825 
Q 1016 2553 972 2059 
L 3022 2063 
z
" transform="scale(0.015625)"/>
       <path id="DejaVuSans-3" transform="scale(0.015625)"/>
       <path id="DejaVuSans-32" d="M 2522 4238 
Q 1834 4238 1429 3725 
Q 1025 3213 1025 2328 
Q 1025 1447 1429 934 
Q 1834 422 2522 422 
Q 3209 422 3611 934 
Q 4013 1447 4013 2328 
Q 4013 3213 3611 3725 
Q 3209 4238 2522 4238 
z
M 2522 4750 
Q 3503 4750 4090 4092 
Q 4678 3434 4678 2328 
Q 4678 1225 4090 567 
Q 3503 -91 2522 -91 
Q 1538 -91 948 565 
Q 359 1222 359 2328 
Q 359 3434 948 4092 
Q 1538 4750 2522 4750 
z
" transform="scale(0.015625)"/>
       <path id="DejaVuSans-59" d="M 191 3500 
L 800 3500 
L 1894 563 
L 2988 3500 
L 3597 3500 
L 2284 0 
L 1503 0 
L 191 3500 
z
" transform="scale(0.015625)"/>
       <path id="DejaVuSans-55" d="M 2631 2963 
Q 2534 3019 2420 3045 
Q 2306 3072 2169 3072 
Q 1681 3072 1420 2755 
Q 1159 2438 1159 1844 
L 1159 0 
L 581 0 
L 581 3500 
L 1159 3500 
L 1159 2956 
Q 1341 3275 1631 3429 
Q 1922 3584 2338 3584 
Q 2397 3584 2469 3576 
Q 2541 3569 2628 3553 
L 2631 2963 
z
" transform="scale(0.015625)"/>
       <path id="DejaVuSans-4b" d="M 3513 2113 
L 3513 0 
L 2938 0 
L 2938 2094 
Q 2938 2591 2744 2837 
Q 2550 3084 2163 3084 
Q 1697 3084 1428 2787 
Q 1159 2491 1159 1978 
L 1159 0 
L 581 0 
L 581 4863 
L 1159 4863 
L 1159 2956 
Q 1366 3272 1645 3428 
Q 1925 3584 2291 3584 
Q 2894 3584 3203 3211 
Q 3513 2838 3513 2113 
z
" transform="scale(0.015625)"/>
       <path id="DejaVuSans-44" d="M 2194 1759 
Q 1497 1759 1228 1600 
Q 959 1441 959 1056 
Q 959 750 1161 570 
Q 1363 391 1709 391 
Q 2188 391 2477 730 
Q 2766 1069 2766 1631 
L 2766 1759 
L 2194 1759 
z
M 3341 1997 
L 3341 0 
L 2766 0 
L 2766 531 
Q 2569 213 2275 61 
Q 1981 -91 1556 -91 
Q 1019 -91 701 211 
Q 384 513 384 1019 
Q 384 1609 779 1909 
Q 1175 2209 1959 2209 
L 2766 2209 
L 2766 2266 
Q 2766 2663 2505 2880 
Q 2244 3097 1772 3097 
Q 1472 3097 1187 3025 
Q 903 2953 641 2809 
L 641 3341 
Q 956 3463 1253 3523 
Q 1550 3584 1831 3584 
Q 2591 3584 2966 3190 
Q 3341 2797 3341 1997 
z
" transform="scale(0.015625)"/>
       <path id="DejaVuSans-47" d="M 2906 2969 
L 2906 4863 
L 3481 4863 
L 3481 0 
L 2906 0 
L 2906 525 
Q 2725 213 2448 61 
Q 2172 -91 1784 -91 
Q 1150 -91 751 415 
Q 353 922 353 1747 
Q 353 2572 751 3078 
Q 1150 3584 1784 3584 
Q 2172 3584 2448 3432 
Q 2725 3281 2906 2969 
z
M 947 1747 
Q 947 1113 1208 752 
Q 1469 391 1925 391 
Q 2381 391 2643 752 
Q 2906 1113 2906 1747 
Q 2906 2381 2643 2742 
Q 2381 3103 1925 3103 
Q 1469 3103 1208 2742 
Q 947 2381 947 1747 
z
" transform="scale(0.015625)"/>
       <path id="DejaVuSans-b" d="M 1984 4856 
Q 1566 4138 1362 3434 
Q 1159 2731 1159 2009 
Q 1159 1288 1364 580 
Q 1569 -128 1984 -844 
L 1484 -844 
Q 1016 -109 783 600 
Q 550 1309 550 2009 
Q 550 2706 781 3412 
Q 1013 4119 1484 4856 
L 1984 4856 
z
" transform="scale(0.015625)"/>
       <path id="DejaVuSans-8" d="M 4653 2053 
Q 4381 2053 4226 1822 
Q 4072 1591 4072 1178 
Q 4072 772 4226 539 
Q 4381 306 4653 306 
Q 4919 306 5073 539 
Q 5228 772 5228 1178 
Q 5228 1588 5073 1820 
Q 4919 2053 4653 2053 
z
M 4653 2450 
Q 5147 2450 5437 2106 
Q 5728 1763 5728 1178 
Q 5728 594 5436 251 
Q 5144 -91 4653 -91 
Q 4153 -91 3862 251 
Q 3572 594 3572 1178 
Q 3572 1766 3864 2108 
Q 4156 2450 4653 2450 
z
M 1428 4353 
Q 1159 4353 1004 4120 
Q 850 3888 850 3481 
Q 850 3069 1003 2837 
Q 1156 2606 1428 2606 
Q 1700 2606 1854 2837 
Q 2009 3069 2009 3481 
Q 2009 3884 1853 4118 
Q 1697 4353 1428 4353 
z
M 4250 4750 
L 4750 4750 
L 1831 -91 
L 1331 -91 
L 4250 4750 
z
M 1428 4750 
Q 1922 4750 2215 4408 
Q 2509 4066 2509 3481 
Q 2509 2891 2217 2550 
Q 1925 2209 1428 2209 
Q 931 2209 642 2551 
Q 353 2894 353 3481 
Q 353 4063 643 4406 
Q 934 4750 1428 4750 
z
" transform="scale(0.015625)"/>
       <path id="DejaVuSans-c" d="M 513 4856 
L 1013 4856 
Q 1481 4119 1714 3412 
Q 1947 2706 1947 2009 
Q 1947 1309 1714 600 
Q 1481 -109 1013 -844 
L 513 -844 
Q 928 -128 1133 580 
Q 1338 1288 1338 2009 
Q 1338 2731 1133 3434 
Q 928 4138 513 4856 
z
" transform="scale(0.015625)"/>
      </defs>
      <use xlink:href="#DejaVuSans-37"/>
      <use xlink:href="#DejaVuSans-4c" transform="translate(58 0)"/>
      <use xlink:href="#DejaVuSans-50" transform="translate(85.78125 0)"/>
      <use xlink:href="#DejaVuSans-48" transform="translate(183.1875 0)"/>
      <use xlink:href="#DejaVuSans-3" transform="translate(244.71875 0)"/>
      <use xlink:href="#DejaVuSans-32" transform="translate(276.5 0)"/>
      <use xlink:href="#DejaVuSans-59" transform="translate(355.21875 0)"/>
      <use xlink:href="#DejaVuSans-48" transform="translate(414.40625 0)"/>
      <use xlink:href="#DejaVuSans-55" transform="translate(475.9375 0)"/>
      <use xlink:href="#DejaVuSans-4b" transform="translate(515.296875 0)"/>
      <use xlink:href="#DejaVuSans-48" transform="translate(578.671875 0)"/>
      <use xlink:href="#DejaVuSans-44" transform="translate(640.203125 0)"/>
      <use xlink:href="#DejaVuSans-47" transform="translate(701.484375 0)"/>
      <use xlink:href="#DejaVuSans-3" transform="translate(764.96875 0)"/>
      <use xlink:href="#DejaVuSans-b" transform="translate(796.75 0)"/>
      <use xlink:href="#DejaVuSans-8" transform="translate(835.765625 0)"/>
      <use xlink:href="#DejaVuSans-c" transform="translate(930.78125 0)"/>
     </g>
    </g>
   </g>
   <g id="matplotlib.axis_2">
    <g id="ytick_1">
     <g id="line2d_10">
      <path d="M 60.841406 393.669938 
L 618.841406 393.669938 
" clip-path="url(#pbd223721e4)" style="fill: none; stroke: #cccccc; stroke-opacity: 0.3; stroke-linecap: round"/>
     </g>
     <g id="text_11">
      <!-- 0.50 -->
      <g style="fill: #262626" transform="translate(24.4 398.26652) scale(0.121 -0.121)">
       <defs>
        <path id="DejaVuSans-11" d="M 684 794 
L 1344 794 
L 1344 0 
L 684 0 
L 684 794 
z
" transform="scale(0.015625)"/>
       </defs>
       <use xlink:href="#DejaVuSans-13"/>
       <use xlink:href="#DejaVuSans-11" transform="translate(63.625 0)"/>
       <use xlink:href="#DejaVuSans-18" transform="translate(95.40625 0)"/>
       <use xlink:href="#DejaVuSans-13" transform="translate(159.03125 0)"/>
      </g>
     </g>
    </g>
    <g id="ytick_2">
     <g id="line2d_11">
      <path d="M 60.841406 312.304624 
L 618.841406 312.304624 
" clip-path="url(#pbd223721e4)" style="fill: none; stroke: #cccccc; stroke-opacity: 0.3; stroke-linecap: round"/>
     </g>
     <g id="text_12">
      <!-- 0.55 -->
      <g style="fill: #262626" transform="translate(24.4 316.901206) scale(0.121 -0.121)">
       <use xlink:href="#DejaVuSans-13"/>
       <use xlink:href="#DejaVuSans-11" transform="translate(63.625 0)"/>
       <use xlink:href="#DejaVuSans-18" transform="translate(95.40625 0)"/>
       <use xlink:href="#DejaVuSans-18" transform="translate(159.03125 0)"/>
      </g>
     </g>
    </g>
    <g id="ytick_3">
     <g id="line2d_12">
      <path d="M 60.841406 230.93931 
L 618.841406 230.93931 
" clip-path="url(#pbd223721e4)" style="fill: none; stroke: #cccccc; stroke-opacity: 0.3; stroke-linecap: round"/>
     </g>
     <g id="text_13">
      <!-- 0.60 -->
      <g style="fill: #262626" transform="translate(24.4 235.535892) scale(0.121 -0.121)">
       <defs>
        <path id="DejaVuSans-19" d="M 2113 2584 
Q 1688 2584 1439 2293 
Q 1191 2003 1191 1497 
Q 1191 994 1439 701 
Q 1688 409 2113 409 
Q 2538 409 2786 701 
Q 3034 994 3034 1497 
Q 3034 2003 2786 2293 
Q 2538 2584 2113 2584 
z
M 3366 4563 
L 3366 3988 
Q 3128 4100 2886 4159 
Q 2644 4219 2406 4219 
Q 1781 4219 1451 3797 
Q 1122 3375 1075 2522 
Q 1259 2794 1537 2939 
Q 1816 3084 2150 3084 
Q 2853 3084 3261 2657 
Q 3669 2231 3669 1497 
Q 3669 778 3244 343 
Q 2819 -91 2113 -91 
Q 1303 -91 875 529 
Q 447 1150 447 2328 
Q 447 3434 972 4092 
Q 1497 4750 2381 4750 
Q 2619 4750 2861 4703 
Q 3103 4656 3366 4563 
z
" transform="scale(0.015625)"/>
       </defs>
       <use xlink:href="#DejaVuSans-13"/>
       <use xlink:href="#DejaVuSans-11" transform="translate(63.625 0)"/>
       <use xlink:href="#DejaVuSans-19" transform="translate(95.40625 0)"/>
       <use xlink:href="#DejaVuSans-13" transform="translate(159.03125 0)"/>
      </g>
     </g>
    </g>
    <g id="ytick_4">
     <g id="line2d_13">
      <path d="M 60.841406 149.573997 
L 618.841406 149.573997 
" clip-path="url(#pbd223721e4)" style="fill: none; stroke: #cccccc; stroke-opacity: 0.3; stroke-linecap: round"/>
     </g>
     <g id="text_14">
      <!-- 0.65 -->
      <g style="fill: #262626" transform="translate(24.4 154.170579) scale(0.121 -0.121)">
       <use xlink:href="#DejaVuSans-13"/>
       <use xlink:href="#DejaVuSans-11" transform="translate(63.625 0)"/>
       <use xlink:href="#DejaVuSans-19" transform="translate(95.40625 0)"/>
       <use xlink:href="#DejaVuSans-18" transform="translate(159.03125 0)"/>
      </g>
     </g>
    </g>
    <g id="ytick_5">
     <g id="line2d_14">
      <path d="M 60.841406 68.208683 
L 618.841406 68.208683 
" clip-path="url(#pbd223721e4)" style="fill: none; stroke: #cccccc; stroke-opacity: 0.3; stroke-linecap: round"/>
     </g>
     <g id="text_15">
      <!-- 0.70 -->
      <g style="fill: #262626" transform="translate(24.4 72.805265) scale(0.121 -0.121)">
       <use xlink:href="#DejaVuSans-13"/>
       <use xlink:href="#DejaVuSans-11" transform="translate(63.625 0)"/>
       <use xlink:href="#DejaVuSans-1a" transform="translate(95.40625 0)"/>
       <use xlink:href="#DejaVuSans-13" transform="translate(159.03125 0)"/>
      </g>
     </g>
    </g>
    <g id="text_16">
     <!-- Score -->
     <g style="fill: #262626" transform="translate(17.228906 235.756125) rotate(-90) scale(0.132 -0.132)">
      <defs>
       <path id="DejaVuSans-36" d="M 3425 4513 
L 3425 3897 
Q 3066 4069 2747 4153 
Q 2428 4238 2131 4238 
Q 1616 4238 1336 4038 
Q 1056 3838 1056 3469 
Q 1056 3159 1242 3001 
Q 1428 2844 1947 2747 
L 2328 2669 
Q 3034 2534 3370 2195 
Q 3706 1856 3706 1288 
Q 3706 609 3251 259 
Q 2797 -91 1919 -91 
Q 1588 -91 1214 -16 
Q 841 59 441 206 
L 441 856 
Q 825 641 1194 531 
Q 1563 422 1919 422 
Q 2459 422 2753 634 
Q 3047 847 3047 1241 
Q 3047 1584 2836 1778 
Q 2625 1972 2144 2069 
L 1759 2144 
Q 1053 2284 737 2584 
Q 422 2884 422 3419 
Q 422 4038 858 4394 
Q 1294 4750 2059 4750 
Q 2388 4750 2728 4690 
Q 3069 4631 3425 4513 
z
" transform="scale(0.015625)"/>
       <path id="DejaVuSans-46" d="M 3122 3366 
L 3122 2828 
Q 2878 2963 2633 3030 
Q 2388 3097 2138 3097 
Q 1578 3097 1268 2742 
Q 959 2388 959 1747 
Q 959 1106 1268 751 
Q 1578 397 2138 397 
Q 2388 397 2633 464 
Q 2878 531 3122 666 
L 3122 134 
Q 2881 22 2623 -34 
Q 2366 -91 2075 -91 
Q 1284 -91 818 406 
Q 353 903 353 1747 
Q 353 2603 823 3093 
Q 1294 3584 2113 3584 
Q 2378 3584 2631 3529 
Q 2884 3475 3122 3366 
z
" transform="scale(0.015625)"/>
       <path id="DejaVuSans-52" d="M 1959 3097 
Q 1497 3097 1228 2736 
Q 959 2375 959 1747 
Q 959 1119 1226 758 
Q 1494 397 1959 397 
Q 2419 397 2687 759 
Q 2956 1122 2956 1747 
Q 2956 2369 2687 2733 
Q 2419 3097 1959 3097 
z
M 1959 3584 
Q 2709 3584 3137 3096 
Q 3566 2609 3566 1747 
Q 3566 888 3137 398 
Q 2709 -91 1959 -91 
Q 1206 -91 779 398 
Q 353 888 353 1747 
Q 353 2609 779 3096 
Q 1206 3584 1959 3584 
z
" transform="scale(0.015625)"/>
      </defs>
      <use xlink:href="#DejaVuSans-36"/>
      <use xlink:href="#DejaVuSans-46" transform="translate(63.484375 0)"/>
      <use xlink:href="#DejaVuSans-52" transform="translate(118.46875 0)"/>
      <use xlink:href="#DejaVuSans-55" transform="translate(179.65625 0)"/>
      <use xlink:href="#DejaVuSans-48" transform="translate(218.5625 0)"/>
     </g>
    </g>
   </g>
   <g id="line2d_15">
    <path d="M 86.205043 393.669938 
L 86.459442 393.507207 
L 87.47704 392.042631 
L 87.47704 389.764402 
L 88.240239 389.276211 
L 88.240239 387.323443 
L 89.003438 386.184329 
L 89.512237 386.021598 
L 90.529835 384.719753 
L 90.529835 380.814218 
L 92.565032 380.163295 
L 92.819431 379.675104 
L 93.32823 372.514956 
L 95.109027 370.399458 
L 95.109027 360.961081 
L 101.977815 343.223443 
L 118.513787 341.107945 
L 118.768187 333.947797 
L 121.820981 307.585436 
L 128.68977 289.847797 
L 131.742564 283.989495 
L 135.558558 277.317539 
L 141.155348 272.110159 
L 143.953743 259.742631 
L 150.568132 248.351487 
L 156.164922 240.865878 
L 163.54251 235.821229 
L 172.700894 235.658498 
L 173.209693 224.918277 
L 184.912073 223.941893 
L 188.982466 215.642631 
L 197.377651 211.411635 
L 198.39525 200.996875 
L 205.518437 200.020491 
L 209.84323 186.83931 
L 217.729616 182.608314 
L 228.668798 165.033406 
L 239.09918 151.364033 
L 251.055959 139.647428 
L 260.468743 129.72086 
L 284.382302 117.678794 
L 299.900675 106.28765 
L 315.927847 106.124919 
L 318.726243 104.009421 
L 322.796636 98.47658 
L 324.323033 97.662926 
L 332.463819 96.849273 
L 333.990216 92.292816 
L 337.297411 88.387281 
L 341.367804 86.597244 
L 351.289387 84.319015 
L 354.85098 81.064402 
L 355.868579 79.437096 
L 372.913349 77.647059 
L 374.439747 76.670676 
L 374.694146 74.880639 
L 378.764539 74.717908 
L 383.852531 71.951487 
L 384.870129 69.022336 
L 397.590107 65.767723 
L 401.914899 64.140417 
L 411.836482 61.699458 
L 419.468469 61.536727 
L 448.21562 61.211266 
L 448.21562 60.723074 
L 450.250816 60.072152 
L 458.391602 59.095768 
L 458.646002 58.933037 
L 462.970794 58.770307 
L 466.786788 56.654808 
L 467.041187 56.329347 
L 469.076384 55.678425 
L 473.146777 55.027502 
L 485.866755 53.562926 
L 486.629954 52.912004 
L 487.138753 52.586543 
L 487.647552 52.423812 
L 487.901952 51.93562 
L 489.428349 51.77289 
L 489.937148 51.447428 
L 490.954746 50.959236 
L 490.954746 50.471045 
L 491.209146 50.308314 
L 491.717945 49.657391 
L 492.481144 49.169199 
L 494.261941 48.843738 
L 495.279539 48.518277 
L 495.279539 48.355546 
L 495.533938 48.030085 
L 496.042738 47.704624 
L 496.551537 46.890971 
L 497.314735 46.72824 
L 500.36753 46.565509 
L 500.62193 46.240048 
L 501.385128 45.589126 
L 501.385128 45.426395 
L 505.201122 45.263664 
L 505.96432 44.775473 
L 510.034713 44.612742 
L 510.289113 44.287281 
L 518.938698 43.961819 
L 519.193098 43.799089 
L 519.193098 43.636358 
L 519.447497 43.473628 
L 519.701897 43.148166 
L 520.210696 42.822705 
L 523.51789 42.659974 
L 523.77229 42.497244 
L 523.77229 42.334513 
L 524.789888 41.683591 
L 524.789888 41.52086 
L 529.114681 41.358129 
L 529.62348 40.869938 
L 529.62348 40.869938 
" clip-path="url(#pbd223721e4)" style="fill: none; stroke: #2563eb; stroke-width: 2; stroke-linecap: round"/>
    <defs>
     <path id="m3250e861f9" d="M 0 2 
C 0.530406 2 1.03916 1.789267 1.414214 1.414214 
C 1.789267 1.03916 2 0.530406 2 0 
C 2 -0.530406 1.789267 -1.03916 1.414214 -1.414214 
C 1.03916 -1.789267 0.530406 -2 0 -2 
C -0.530406 -2 -1.03916 -1.789267 -1.414214 -1.414214 
C -1.789267 -1.03916 -2 -0.530406 -2 0 
C -2 0.530406 -1.789267 1.03916 -1.414214 1.414214 
C -1.03916 1.789267 -0.530406 2 0 2 
z
" style="stroke: #2563eb"/>
    </defs>
    <g clip-path="url(#pbd223721e4)">
     <use xlink:href="#m3250e861f9" x="86.205043" y="393.669938" style="fill: #2563eb; stroke: #2563eb"/>
     <use xlink:href="#m3250e861f9" x="86.459442" y="393.507207" style="fill: #2563eb; stroke: #2563eb"/>
     <use xlink:href="#m3250e861f9" x="86.713842" y="393.181746" style="fill: #2563eb; stroke: #2563eb"/>
     <use xlink:href="#m3250e861f9" x="86.968241" y="393.019015" style="fill: #2563eb; stroke: #2563eb"/>
     <use xlink:href="#m3250e861f9" x="86.968241" y="392.856284" style="fill: #2563eb; stroke: #2563eb"/>
     <use xlink:href="#m3250e861f9" x="87.222641" y="392.693554" style="fill: #2563eb; stroke: #2563eb"/>
     <use xlink:href="#m3250e861f9" x="87.222641" y="392.530823" style="fill: #2563eb; stroke: #2563eb"/>
     <use xlink:href="#m3250e861f9" x="87.47704" y="392.042631" style="fill: #2563eb; stroke: #2563eb"/>
     <use xlink:href="#m3250e861f9" x="87.47704" y="389.764402" style="fill: #2563eb; stroke: #2563eb"/>
     <use xlink:href="#m3250e861f9" x="88.240239" y="389.276211" style="fill: #2563eb; stroke: #2563eb"/>
     <use xlink:href="#m3250e861f9" x="88.240239" y="387.323443" style="fill: #2563eb; stroke: #2563eb"/>
     <use xlink:href="#m3250e861f9" x="88.749038" y="386.50979" style="fill: #2563eb; stroke: #2563eb"/>
     <use xlink:href="#m3250e861f9" x="89.003438" y="386.184329" style="fill: #2563eb; stroke: #2563eb"/>
     <use xlink:href="#m3250e861f9" x="89.512237" y="386.021598" style="fill: #2563eb; stroke: #2563eb"/>
     <use xlink:href="#m3250e861f9" x="90.529835" y="384.719753" style="fill: #2563eb; stroke: #2563eb"/>
     <use xlink:href="#m3250e861f9" x="90.529835" y="380.814218" style="fill: #2563eb; stroke: #2563eb"/>
     <use xlink:href="#m3250e861f9" x="92.565032" y="380.163295" style="fill: #2563eb; stroke: #2563eb"/>
     <use xlink:href="#m3250e861f9" x="92.819431" y="379.675104" style="fill: #2563eb; stroke: #2563eb"/>
     <use xlink:href="#m3250e861f9" x="93.073831" y="375.281377" style="fill: #2563eb; stroke: #2563eb"/>
     <use xlink:href="#m3250e861f9" x="93.32823" y="372.514956" style="fill: #2563eb; stroke: #2563eb"/>
     <use xlink:href="#m3250e861f9" x="95.109027" y="370.399458" style="fill: #2563eb; stroke: #2563eb"/>
     <use xlink:href="#m3250e861f9" x="95.109027" y="360.961081" style="fill: #2563eb; stroke: #2563eb"/>
     <use xlink:href="#m3250e861f9" x="101.977815" y="343.223443" style="fill: #2563eb; stroke: #2563eb"/>
     <use xlink:href="#m3250e861f9" x="118.513787" y="341.107945" style="fill: #2563eb; stroke: #2563eb"/>
     <use xlink:href="#m3250e861f9" x="118.768187" y="333.947797" style="fill: #2563eb; stroke: #2563eb"/>
     <use xlink:href="#m3250e861f9" x="121.820981" y="307.585436" style="fill: #2563eb; stroke: #2563eb"/>
     <use xlink:href="#m3250e861f9" x="128.68977" y="289.847797" style="fill: #2563eb; stroke: #2563eb"/>
     <use xlink:href="#m3250e861f9" x="131.742564" y="283.989495" style="fill: #2563eb; stroke: #2563eb"/>
     <use xlink:href="#m3250e861f9" x="135.558558" y="277.317539" style="fill: #2563eb; stroke: #2563eb"/>
     <use xlink:href="#m3250e861f9" x="141.155348" y="272.110159" style="fill: #2563eb; stroke: #2563eb"/>
     <use xlink:href="#m3250e861f9" x="143.953743" y="259.742631" style="fill: #2563eb; stroke: #2563eb"/>
     <use xlink:href="#m3250e861f9" x="150.568132" y="248.351487" style="fill: #2563eb; stroke: #2563eb"/>
     <use xlink:href="#m3250e861f9" x="156.164922" y="240.865878" style="fill: #2563eb; stroke: #2563eb"/>
     <use xlink:href="#m3250e861f9" x="163.54251" y="235.821229" style="fill: #2563eb; stroke: #2563eb"/>
     <use xlink:href="#m3250e861f9" x="172.700894" y="235.658498" style="fill: #2563eb; stroke: #2563eb"/>
     <use xlink:href="#m3250e861f9" x="173.209693" y="224.918277" style="fill: #2563eb; stroke: #2563eb"/>
     <use xlink:href="#m3250e861f9" x="184.912073" y="223.941893" style="fill: #2563eb; stroke: #2563eb"/>
     <use xlink:href="#m3250e861f9" x="188.982466" y="215.642631" style="fill: #2563eb; stroke: #2563eb"/>
     <use xlink:href="#m3250e861f9" x="197.377651" y="211.411635" style="fill: #2563eb; stroke: #2563eb"/>
     <use xlink:href="#m3250e861f9" x="198.39525" y="200.996875" style="fill: #2563eb; stroke: #2563eb"/>
     <use xlink:href="#m3250e861f9" x="205.518437" y="200.020491" style="fill: #2563eb; stroke: #2563eb"/>
     <use xlink:href="#m3250e861f9" x="209.84323" y="186.83931" style="fill: #2563eb; stroke: #2563eb"/>
     <use xlink:href="#m3250e861f9" x="217.729616" y="182.608314" style="fill: #2563eb; stroke: #2563eb"/>
     <use xlink:href="#m3250e861f9" x="228.668798" y="165.033406" style="fill: #2563eb; stroke: #2563eb"/>
     <use xlink:href="#m3250e861f9" x="239.09918" y="151.364033" style="fill: #2563eb; stroke: #2563eb"/>
     <use xlink:href="#m3250e861f9" x="251.055959" y="139.647428" style="fill: #2563eb; stroke: #2563eb"/>
     <use xlink:href="#m3250e861f9" x="260.468743" y="129.72086" style="fill: #2563eb; stroke: #2563eb"/>
     <use xlink:href="#m3250e861f9" x="284.382302" y="117.678794" style="fill: #2563eb; stroke: #2563eb"/>
     <use xlink:href="#m3250e861f9" x="299.900675" y="106.28765" style="fill: #2563eb; stroke: #2563eb"/>
     <use xlink:href="#m3250e861f9" x="315.927847" y="106.124919" style="fill: #2563eb; stroke: #2563eb"/>
     <use xlink:href="#m3250e861f9" x="318.726243" y="104.009421" style="fill: #2563eb; stroke: #2563eb"/>
     <use xlink:href="#m3250e861f9" x="322.796636" y="98.47658" style="fill: #2563eb; stroke: #2563eb"/>
     <use xlink:href="#m3250e861f9" x="324.323033" y="97.662926" style="fill: #2563eb; stroke: #2563eb"/>
     <use xlink:href="#m3250e861f9" x="332.463819" y="96.849273" style="fill: #2563eb; stroke: #2563eb"/>
     <use xlink:href="#m3250e861f9" x="333.990216" y="92.292816" style="fill: #2563eb; stroke: #2563eb"/>
     <use xlink:href="#m3250e861f9" x="337.297411" y="88.387281" style="fill: #2563eb; stroke: #2563eb"/>
     <use xlink:href="#m3250e861f9" x="341.367804" y="86.597244" style="fill: #2563eb; stroke: #2563eb"/>
     <use xlink:href="#m3250e861f9" x="351.289387" y="84.319015" style="fill: #2563eb; stroke: #2563eb"/>
     <use xlink:href="#m3250e861f9" x="354.85098" y="81.064402" style="fill: #2563eb; stroke: #2563eb"/>
     <use xlink:href="#m3250e861f9" x="355.868579" y="79.437096" style="fill: #2563eb; stroke: #2563eb"/>
     <use xlink:href="#m3250e861f9" x="372.913349" y="77.647059" style="fill: #2563eb; stroke: #2563eb"/>
     <use xlink:href="#m3250e861f9" x="374.439747" y="76.670676" style="fill: #2563eb; stroke: #2563eb"/>
     <use xlink:href="#m3250e861f9" x="374.694146" y="74.880639" style="fill: #2563eb; stroke: #2563eb"/>
     <use xlink:href="#m3250e861f9" x="378.764539" y="74.717908" style="fill: #2563eb; stroke: #2563eb"/>
     <use xlink:href="#m3250e861f9" x="383.852531" y="71.951487" style="fill: #2563eb; stroke: #2563eb"/>
     <use xlink:href="#m3250e861f9" x="384.870129" y="69.022336" style="fill: #2563eb; stroke: #2563eb"/>
     <use xlink:href="#m3250e861f9" x="397.590107" y="65.767723" style="fill: #2563eb; stroke: #2563eb"/>
     <use xlink:href="#m3250e861f9" x="401.914899" y="64.140417" style="fill: #2563eb; stroke: #2563eb"/>
     <use xlink:href="#m3250e861f9" x="411.836482" y="61.699458" style="fill: #2563eb; stroke: #2563eb"/>
     <use xlink:href="#m3250e861f9" x="419.468469" y="61.536727" style="fill: #2563eb; stroke: #2563eb"/>
     <use xlink:href="#m3250e861f9" x="448.21562" y="61.211266" style="fill: #2563eb; stroke: #2563eb"/>
     <use xlink:href="#m3250e861f9" x="448.21562" y="60.723074" style="fill: #2563eb; stroke: #2563eb"/>
     <use xlink:href="#m3250e861f9" x="450.250816" y="60.072152" style="fill: #2563eb; stroke: #2563eb"/>
     <use xlink:href="#m3250e861f9" x="458.391602" y="59.095768" style="fill: #2563eb; stroke: #2563eb"/>
     <use xlink:href="#m3250e861f9" x="458.646002" y="58.933037" style="fill: #2563eb; stroke: #2563eb"/>
     <use xlink:href="#m3250e861f9" x="462.970794" y="58.770307" style="fill: #2563eb; stroke: #2563eb"/>
     <use xlink:href="#m3250e861f9" x="466.786788" y="56.654808" style="fill: #2563eb; stroke: #2563eb"/>
     <use xlink:href="#m3250e861f9" x="467.041187" y="56.329347" style="fill: #2563eb; stroke: #2563eb"/>
     <use xlink:href="#m3250e861f9" x="469.076384" y="55.678425" style="fill: #2563eb; stroke: #2563eb"/>
     <use xlink:href="#m3250e861f9" x="473.146777" y="55.027502" style="fill: #2563eb; stroke: #2563eb"/>
     <use xlink:href="#m3250e861f9" x="477.21717" y="54.53931" style="fill: #2563eb; stroke: #2563eb"/>
     <use xlink:href="#m3250e861f9" x="482.81396" y="53.888388" style="fill: #2563eb; stroke: #2563eb"/>
     <use xlink:href="#m3250e861f9" x="485.866755" y="53.562926" style="fill: #2563eb; stroke: #2563eb"/>
     <use xlink:href="#m3250e861f9" x="486.375554" y="53.074735" style="fill: #2563eb; stroke: #2563eb"/>
     <use xlink:href="#m3250e861f9" x="486.629954" y="52.912004" style="fill: #2563eb; stroke: #2563eb"/>
     <use xlink:href="#m3250e861f9" x="487.138753" y="52.586543" style="fill: #2563eb; stroke: #2563eb"/>
     <use xlink:href="#m3250e861f9" x="487.647552" y="52.423812" style="fill: #2563eb; stroke: #2563eb"/>
     <use xlink:href="#m3250e861f9" x="487.901952" y="51.93562" style="fill: #2563eb; stroke: #2563eb"/>
     <use xlink:href="#m3250e861f9" x="489.428349" y="51.77289" style="fill: #2563eb; stroke: #2563eb"/>
     <use xlink:href="#m3250e861f9" x="489.937148" y="51.447428" style="fill: #2563eb; stroke: #2563eb"/>
     <use xlink:href="#m3250e861f9" x="490.954746" y="50.959236" style="fill: #2563eb; stroke: #2563eb"/>
     <use xlink:href="#m3250e861f9" x="490.954746" y="50.796506" style="fill: #2563eb; stroke: #2563eb"/>
     <use xlink:href="#m3250e861f9" x="490.954746" y="50.471045" style="fill: #2563eb; stroke: #2563eb"/>
     <use xlink:href="#m3250e861f9" x="491.209146" y="50.308314" style="fill: #2563eb; stroke: #2563eb"/>
     <use xlink:href="#m3250e861f9" x="491.717945" y="49.657391" style="fill: #2563eb; stroke: #2563eb"/>
     <use xlink:href="#m3250e861f9" x="492.226744" y="49.33193" style="fill: #2563eb; stroke: #2563eb"/>
     <use xlink:href="#m3250e861f9" x="492.481144" y="49.169199" style="fill: #2563eb; stroke: #2563eb"/>
     <use xlink:href="#m3250e861f9" x="493.753141" y="49.006469" style="fill: #2563eb; stroke: #2563eb"/>
     <use xlink:href="#m3250e861f9" x="494.261941" y="48.843738" style="fill: #2563eb; stroke: #2563eb"/>
     <use xlink:href="#m3250e861f9" x="495.279539" y="48.518277" style="fill: #2563eb; stroke: #2563eb"/>
     <use xlink:href="#m3250e861f9" x="495.279539" y="48.355546" style="fill: #2563eb; stroke: #2563eb"/>
     <use xlink:href="#m3250e861f9" x="495.533938" y="48.030085" style="fill: #2563eb; stroke: #2563eb"/>
     <use xlink:href="#m3250e861f9" x="496.042738" y="47.704624" style="fill: #2563eb; stroke: #2563eb"/>
     <use xlink:href="#m3250e861f9" x="496.551537" y="46.890971" style="fill: #2563eb; stroke: #2563eb"/>
     <use xlink:href="#m3250e861f9" x="497.314735" y="46.72824" style="fill: #2563eb; stroke: #2563eb"/>
     <use xlink:href="#m3250e861f9" x="500.36753" y="46.565509" style="fill: #2563eb; stroke: #2563eb"/>
     <use xlink:href="#m3250e861f9" x="500.62193" y="46.240048" style="fill: #2563eb; stroke: #2563eb"/>
     <use xlink:href="#m3250e861f9" x="501.385128" y="45.589126" style="fill: #2563eb; stroke: #2563eb"/>
     <use xlink:href="#m3250e861f9" x="501.385128" y="45.426395" style="fill: #2563eb; stroke: #2563eb"/>
     <use xlink:href="#m3250e861f9" x="505.201122" y="45.263664" style="fill: #2563eb; stroke: #2563eb"/>
     <use xlink:href="#m3250e861f9" x="505.455521" y="45.100934" style="fill: #2563eb; stroke: #2563eb"/>
     <use xlink:href="#m3250e861f9" x="505.709921" y="44.938203" style="fill: #2563eb; stroke: #2563eb"/>
     <use xlink:href="#m3250e861f9" x="505.96432" y="44.775473" style="fill: #2563eb; stroke: #2563eb"/>
     <use xlink:href="#m3250e861f9" x="510.034713" y="44.612742" style="fill: #2563eb; stroke: #2563eb"/>
     <use xlink:href="#m3250e861f9" x="510.289113" y="44.287281" style="fill: #2563eb; stroke: #2563eb"/>
     <use xlink:href="#m3250e861f9" x="518.938698" y="43.961819" style="fill: #2563eb; stroke: #2563eb"/>
     <use xlink:href="#m3250e861f9" x="519.193098" y="43.799089" style="fill: #2563eb; stroke: #2563eb"/>
     <use xlink:href="#m3250e861f9" x="519.193098" y="43.636358" style="fill: #2563eb; stroke: #2563eb"/>
     <use xlink:href="#m3250e861f9" x="519.447497" y="43.473628" style="fill: #2563eb; stroke: #2563eb"/>
     <use xlink:href="#m3250e861f9" x="519.701897" y="43.148166" style="fill: #2563eb; stroke: #2563eb"/>
     <use xlink:href="#m3250e861f9" x="520.210696" y="42.822705" style="fill: #2563eb; stroke: #2563eb"/>
     <use xlink:href="#m3250e861f9" x="523.51789" y="42.659974" style="fill: #2563eb; stroke: #2563eb"/>
     <use xlink:href="#m3250e861f9" x="523.77229" y="42.497244" style="fill: #2563eb; stroke: #2563eb"/>
     <use xlink:href="#m3250e861f9" x="523.77229" y="42.334513" style="fill: #2563eb; stroke: #2563eb"/>
     <use xlink:href="#m3250e861f9" x="524.281089" y="42.009052" style="fill: #2563eb; stroke: #2563eb"/>
     <use xlink:href="#m3250e861f9" x="524.535488" y="41.846321" style="fill: #2563eb; stroke: #2563eb"/>
     <use xlink:href="#m3250e861f9" x="524.789888" y="41.683591" style="fill: #2563eb; stroke: #2563eb"/>
     <use xlink:href="#m3250e861f9" x="524.789888" y="41.52086" style="fill: #2563eb; stroke: #2563eb"/>
     <use xlink:href="#m3250e861f9" x="529.114681" y="41.358129" style="fill: #2563eb; stroke: #2563eb"/>
     <use xlink:href="#m3250e861f9" x="529.36908" y="41.032668" style="fill: #2563eb; stroke: #2563eb"/>
     <use xlink:href="#m3250e861f9" x="529.62348" y="40.869938" style="fill: #2563eb; stroke: #2563eb"/>
    </g>
   </g>
   <g id="line2d_16">
    <path d="M 86.205043 393.669938 
L 86.459442 393.344476 
L 86.459442 393.181746 
L 86.713842 392.693554 
L 86.713842 392.368092 
L 86.968241 391.554439 
L 86.968241 391.228978 
L 87.222641 390.903517 
L 87.47704 390.252594 
L 87.73144 389.11348 
L 88.494639 387.974366 
L 90.021036 387.323443 
L 91.038634 386.997982 
L 91.293034 386.50979 
L 91.293034 381.627871 
L 93.58263 375.606838 
L 99.43382 372.514956 
L 100.960217 360.147428 
L 104.267412 347.454439 
L 112.153798 344.199827 
L 116.73299 332.971414 
L 122.83858 331.832299 
L 127.163372 318.488388 
L 128.944169 317.674735 
L 141.409748 313.281008 
L 143.953743 298.960712 
L 143.953743 298.30979 
L 159.980916 296.194292 
L 161.252913 288.383222 
L 165.323306 273.412004 
L 170.411298 265.438203 
L 171.937695 259.905362 
L 174.73609 257.301672 
L 174.73609 256.81348 
L 188.219267 248.839679 
L 188.219267 241.35407 
L 202.465643 239.401303 
L 206.027236 231.102041 
L 211.624027 225.081008 
L 229.431996 224.592816 
L 229.431996 223.12824 
L 238.84478 221.175473 
L 239.09918 219.873628 
L 240.371177 219.059974 
L 246.222367 218.571783 
L 247.239966 217.595399 
L 256.907149 216.781746 
L 306.769463 216.293554 
L 316.182247 210.597982 
L 318.471843 209.784329 
L 318.726243 208.970676 
L 326.358229 203.275104 
L 328.902225 200.345952 
L 336.788612 197.09134 
L 339.332607 192.04669 
L 342.894201 189.605731 
L 361.719769 185.212004 
L 362.228568 184.723812 
L 381.562934 184.561081 
L 381.562934 180.004624 
L 383.343731 179.353701 
L 396.826908 179.190971 
L 397.335707 174.959974 
L 405.222094 174.471783 
L 408.020489 173.983591 
L 566.765816 173.82086 
L 567.274615 173.658129 
L 567.529015 173.169938 
L 568.037814 173.007207 
L 568.292213 172.844476 
L 569.309811 172.681746 
L 569.818611 172.519015 
L 573.889004 172.356284 
L 578.213796 172.193554 
L 590.170576 171.868092 
L 590.424975 171.705362 
L 590.424975 171.379901 
L 590.679375 171.21717 
L 590.933774 171.054439 
L 591.188174 170.891709 
L 591.696973 170.728978 
L 592.714571 170.566247 
L 592.968971 170.403517 
L 593.47777 170.240786 
" clip-path="url(#pbd223721e4)" style="fill: none; stroke: #dc2626; stroke-width: 2; stroke-linecap: round"/>
    <defs>
     <path id="m32bdabd2fe" d="M 0 2 
C 0.530406 2 1.03916 1.789267 1.414214 1.414214 
C 1.789267 1.03916 2 0.530406 2 0 
C 2 -0.530406 1.789267 -1.03916 1.414214 -1.414214 
C 1.03916 -1.789267 0.530406 -2 0 -2 
C -0.530406 -2 -1.03916 -1.789267 -1.414214 -1.414214 
C -1.789267 -1.03916 -2 -0.530406 -2 0 
C -2 0.530406 -1.789267 1.03916 -1.414214 1.414214 
C -1.03916 1.789267 -0.530406 2 0 2 
z
" style="stroke: #dc2626"/>
    </defs>
    <g clip-path="url(#pbd223721e4)">
     <use xlink:href="#m32bdabd2fe" x="86.205043" y="393.669938" style="fill: #dc2626; stroke: #dc2626"/>
     <use xlink:href="#m32bdabd2fe" x="86.459442" y="393.344476" style="fill: #dc2626; stroke: #dc2626"/>
     <use xlink:href="#m32bdabd2fe" x="86.459442" y="393.181746" style="fill: #dc2626; stroke: #dc2626"/>
     <use xlink:href="#m32bdabd2fe" x="86.713842" y="392.693554" style="fill: #dc2626; stroke: #dc2626"/>
     <use xlink:href="#m32bdabd2fe" x="86.713842" y="392.368092" style="fill: #dc2626; stroke: #dc2626"/>
     <use xlink:href="#m32bdabd2fe" x="86.968241" y="391.554439" style="fill: #dc2626; stroke: #dc2626"/>
     <use xlink:href="#m32bdabd2fe" x="86.968241" y="391.228978" style="fill: #dc2626; stroke: #dc2626"/>
     <use xlink:href="#m32bdabd2fe" x="87.222641" y="390.903517" style="fill: #dc2626; stroke: #dc2626"/>
     <use xlink:href="#m32bdabd2fe" x="87.47704" y="390.252594" style="fill: #dc2626; stroke: #dc2626"/>
     <use xlink:href="#m32bdabd2fe" x="87.73144" y="389.11348" style="fill: #dc2626; stroke: #dc2626"/>
     <use xlink:href="#m32bdabd2fe" x="88.494639" y="387.974366" style="fill: #dc2626; stroke: #dc2626"/>
     <use xlink:href="#m32bdabd2fe" x="90.021036" y="387.323443" style="fill: #dc2626; stroke: #dc2626"/>
     <use xlink:href="#m32bdabd2fe" x="91.038634" y="386.997982" style="fill: #dc2626; stroke: #dc2626"/>
     <use xlink:href="#m32bdabd2fe" x="91.293034" y="386.50979" style="fill: #dc2626; stroke: #dc2626"/>
     <use xlink:href="#m32bdabd2fe" x="91.293034" y="381.627871" style="fill: #dc2626; stroke: #dc2626"/>
     <use xlink:href="#m32bdabd2fe" x="93.58263" y="375.606838" style="fill: #dc2626; stroke: #dc2626"/>
     <use xlink:href="#m32bdabd2fe" x="99.43382" y="372.514956" style="fill: #dc2626; stroke: #dc2626"/>
     <use xlink:href="#m32bdabd2fe" x="100.960217" y="360.147428" style="fill: #dc2626; stroke: #dc2626"/>
     <use xlink:href="#m32bdabd2fe" x="104.267412" y="347.454439" style="fill: #dc2626; stroke: #dc2626"/>
     <use xlink:href="#m32bdabd2fe" x="112.153798" y="344.199827" style="fill: #dc2626; stroke: #dc2626"/>
     <use xlink:href="#m32bdabd2fe" x="116.73299" y="332.971414" style="fill: #dc2626; stroke: #dc2626"/>
     <use xlink:href="#m32bdabd2fe" x="122.83858" y="331.832299" style="fill: #dc2626; stroke: #dc2626"/>
     <use xlink:href="#m32bdabd2fe" x="127.163372" y="318.488388" style="fill: #dc2626; stroke: #dc2626"/>
     <use xlink:href="#m32bdabd2fe" x="128.944169" y="317.674735" style="fill: #dc2626; stroke: #dc2626"/>
     <use xlink:href="#m32bdabd2fe" x="141.409748" y="313.281008" style="fill: #dc2626; stroke: #dc2626"/>
     <use xlink:href="#m32bdabd2fe" x="143.953743" y="298.960712" style="fill: #dc2626; stroke: #dc2626"/>
     <use xlink:href="#m32bdabd2fe" x="143.953743" y="298.30979" style="fill: #dc2626; stroke: #dc2626"/>
     <use xlink:href="#m32bdabd2fe" x="159.980916" y="296.194292" style="fill: #dc2626; stroke: #dc2626"/>
     <use xlink:href="#m32bdabd2fe" x="161.252913" y="288.383222" style="fill: #dc2626; stroke: #dc2626"/>
     <use xlink:href="#m32bdabd2fe" x="165.323306" y="273.412004" style="fill: #dc2626; stroke: #dc2626"/>
     <use xlink:href="#m32bdabd2fe" x="170.411298" y="265.438203" style="fill: #dc2626; stroke: #dc2626"/>
     <use xlink:href="#m32bdabd2fe" x="171.937695" y="259.905362" style="fill: #dc2626; stroke: #dc2626"/>
     <use xlink:href="#m32bdabd2fe" x="174.73609" y="257.301672" style="fill: #dc2626; stroke: #dc2626"/>
     <use xlink:href="#m32bdabd2fe" x="174.73609" y="256.81348" style="fill: #dc2626; stroke: #dc2626"/>
     <use xlink:href="#m32bdabd2fe" x="188.219267" y="248.839679" style="fill: #dc2626; stroke: #dc2626"/>
     <use xlink:href="#m32bdabd2fe" x="188.219267" y="241.35407" style="fill: #dc2626; stroke: #dc2626"/>
     <use xlink:href="#m32bdabd2fe" x="202.465643" y="239.401303" style="fill: #dc2626; stroke: #dc2626"/>
     <use xlink:href="#m32bdabd2fe" x="206.027236" y="231.102041" style="fill: #dc2626; stroke: #dc2626"/>
     <use xlink:href="#m32bdabd2fe" x="211.624027" y="225.081008" style="fill: #dc2626; stroke: #dc2626"/>
     <use xlink:href="#m32bdabd2fe" x="229.431996" y="224.592816" style="fill: #dc2626; stroke: #dc2626"/>
     <use xlink:href="#m32bdabd2fe" x="229.431996" y="223.12824" style="fill: #dc2626; stroke: #dc2626"/>
     <use xlink:href="#m32bdabd2fe" x="238.84478" y="221.175473" style="fill: #dc2626; stroke: #dc2626"/>
     <use xlink:href="#m32bdabd2fe" x="239.09918" y="219.873628" style="fill: #dc2626; stroke: #dc2626"/>
     <use xlink:href="#m32bdabd2fe" x="240.371177" y="219.059974" style="fill: #dc2626; stroke: #dc2626"/>
     <use xlink:href="#m32bdabd2fe" x="246.222367" y="218.571783" style="fill: #dc2626; stroke: #dc2626"/>
     <use xlink:href="#m32bdabd2fe" x="247.239966" y="217.595399" style="fill: #dc2626; stroke: #dc2626"/>
     <use xlink:href="#m32bdabd2fe" x="256.907149" y="216.781746" style="fill: #dc2626; stroke: #dc2626"/>
     <use xlink:href="#m32bdabd2fe" x="306.769463" y="216.293554" style="fill: #dc2626; stroke: #dc2626"/>
     <use xlink:href="#m32bdabd2fe" x="316.182247" y="210.597982" style="fill: #dc2626; stroke: #dc2626"/>
     <use xlink:href="#m32bdabd2fe" x="318.471843" y="209.784329" style="fill: #dc2626; stroke: #dc2626"/>
     <use xlink:href="#m32bdabd2fe" x="318.726243" y="208.970676" style="fill: #dc2626; stroke: #dc2626"/>
     <use xlink:href="#m32bdabd2fe" x="326.358229" y="203.275104" style="fill: #dc2626; stroke: #dc2626"/>
     <use xlink:href="#m32bdabd2fe" x="328.902225" y="200.345952" style="fill: #dc2626; stroke: #dc2626"/>
     <use xlink:href="#m32bdabd2fe" x="336.788612" y="197.09134" style="fill: #dc2626; stroke: #dc2626"/>
     <use xlink:href="#m32bdabd2fe" x="339.332607" y="192.04669" style="fill: #dc2626; stroke: #dc2626"/>
     <use xlink:href="#m32bdabd2fe" x="342.894201" y="189.605731" style="fill: #dc2626; stroke: #dc2626"/>
     <use xlink:href="#m32bdabd2fe" x="361.719769" y="185.212004" style="fill: #dc2626; stroke: #dc2626"/>
     <use xlink:href="#m32bdabd2fe" x="362.228568" y="184.723812" style="fill: #dc2626; stroke: #dc2626"/>
     <use xlink:href="#m32bdabd2fe" x="381.562934" y="184.561081" style="fill: #dc2626; stroke: #dc2626"/>
     <use xlink:href="#m32bdabd2fe" x="381.562934" y="180.004624" style="fill: #dc2626; stroke: #dc2626"/>
     <use xlink:href="#m32bdabd2fe" x="383.343731" y="179.353701" style="fill: #dc2626; stroke: #dc2626"/>
     <use xlink:href="#m32bdabd2fe" x="396.826908" y="179.190971" style="fill: #dc2626; stroke: #dc2626"/>
     <use xlink:href="#m32bdabd2fe" x="397.335707" y="174.959974" style="fill: #dc2626; stroke: #dc2626"/>
     <use xlink:href="#m32bdabd2fe" x="405.222094" y="174.471783" style="fill: #dc2626; stroke: #dc2626"/>
     <use xlink:href="#m32bdabd2fe" x="408.020489" y="173.983591" style="fill: #dc2626; stroke: #dc2626"/>
     <use xlink:href="#m32bdabd2fe" x="566.765816" y="173.82086" style="fill: #dc2626; stroke: #dc2626"/>
     <use xlink:href="#m32bdabd2fe" x="567.274615" y="173.658129" style="fill: #dc2626; stroke: #dc2626"/>
     <use xlink:href="#m32bdabd2fe" x="567.529015" y="173.169938" style="fill: #dc2626; stroke: #dc2626"/>
     <use xlink:href="#m32bdabd2fe" x="568.037814" y="173.007207" style="fill: #dc2626; stroke: #dc2626"/>
     <use xlink:href="#m32bdabd2fe" x="568.292213" y="172.844476" style="fill: #dc2626; stroke: #dc2626"/>
     <use xlink:href="#m32bdabd2fe" x="569.309811" y="172.681746" style="fill: #dc2626; stroke: #dc2626"/>
     <use xlink:href="#m32bdabd2fe" x="569.818611" y="172.519015" style="fill: #dc2626; stroke: #dc2626"/>
     <use xlink:href="#m32bdabd2fe" x="573.889004" y="172.356284" style="fill: #dc2626; stroke: #dc2626"/>
     <use xlink:href="#m32bdabd2fe" x="578.213796" y="172.193554" style="fill: #dc2626; stroke: #dc2626"/>
     <use xlink:href="#m32bdabd2fe" x="590.170576" y="171.868092" style="fill: #dc2626; stroke: #dc2626"/>
     <use xlink:href="#m32bdabd2fe" x="590.424975" y="171.705362" style="fill: #dc2626; stroke: #dc2626"/>
     <use xlink:href="#m32bdabd2fe" x="590.424975" y="171.379901" style="fill: #dc2626; stroke: #dc2626"/>
     <use xlink:href="#m32bdabd2fe" x="590.679375" y="171.21717" style="fill: #dc2626; stroke: #dc2626"/>
     <use xlink:href="#m32bdabd2fe" x="590.933774" y="171.054439" style="fill: #dc2626; stroke: #dc2626"/>
     <use xlink:href="#m32bdabd2fe" x="591.188174" y="170.891709" style="fill: #dc2626; stroke: #dc2626"/>
     <use xlink:href="#m32bdabd2fe" x="591.696973" y="170.728978" style="fill: #dc2626; stroke: #dc2626"/>
     <use xlink:href="#m32bdabd2fe" x="592.714571" y="170.566247" style="fill: #dc2626; stroke: #dc2626"/>
     <use xlink:href="#m32bdabd2fe" x="592.968971" y="170.403517" style="fill: #dc2626; stroke: #dc2626"/>
     <use xlink:href="#m32bdabd2fe" x="593.47777" y="170.240786" style="fill: #dc2626; stroke: #dc2626"/>
    </g>
   </g>
   <g id="patch_3">
    <path d="M 60.841406 411.309938 
L 60.841406 23.229938 
" style="fill: none; stroke: #cccccc; stroke-width: 1.25; stroke-linejoin: miter; stroke-linecap: square"/>
   </g>
   <g id="patch_4">
    <path d="M 618.841406 411.309938 
L 618.841406 23.229938 
" style="fill: none; stroke: #cccccc; stroke-width: 1.25; stroke-linejoin: miter; stroke-linecap: square"/>
   </g>
   <g id="patch_5">
    <path d="M 60.841406 411.309937 
L 618.841406 411.309937 
" style="fill: none; stroke: #cccccc; stroke-width: 1.25; stroke-linejoin: miter; stroke-linecap: square"/>
   </g>
   <g id="patch_6">
    <path d="M 60.841406 23.229938 
L 618.841406 23.229938 
" style="fill: none; stroke: #cccccc; stroke-width: 1.25; stroke-linejoin: miter; stroke-linecap: square"/>
   </g>
   <g id="text_17">
    <!-- Pareto Frontiers: Score vs Overhead — DE -->
    <g style="fill: #262626" transform="translate(201.389906 17.229938) scale(0.132 -0.132)">
     <defs>
      <path id="DejaVuSans-33" d="M 1259 4147 
L 1259 2394 
L 2053 2394 
Q 2494 2394 2734 2622 
Q 2975 2850 2975 3272 
Q 2975 3691 2734 3919 
Q 2494 4147 2053 4147 
L 1259 4147 
z
M 628 4666 
L 2053 4666 
Q 2838 4666 3239 4311 
Q 3641 3956 3641 3272 
Q 3641 2581 3239 2228 
Q 2838 1875 2053 1875 
L 1259 1875 
L 1259 0 
L 628 0 
L 628 4666 
z
" transform="scale(0.015625)"/>
      <path id="DejaVuSans-57" d="M 1172 4494 
L 1172 3500 
L 2356 3500 
L 2356 3053 
L 1172 3053 
L 1172 1153 
Q 1172 725 1289 603 
Q 1406 481 1766 481 
L 2356 481 
L 2356 0 
L 1766 0 
Q 1100 0 847 248 
Q 594 497 594 1153 
L 594 3053 
L 172 3053 
L 172 3500 
L 594 3500 
L 594 4494 
L 1172 4494 
z
" transform="scale(0.015625)"/>
      <path id="DejaVuSans-29" d="M 628 4666 
L 3309 4666 
L 3309 4134 
L 1259 4134 
L 1259 2759 
L 3109 2759 
L 3109 2228 
L 1259 2228 
L 1259 0 
L 628 0 
L 628 4666 
z
" transform="scale(0.015625)"/>
      <path id="DejaVuSans-51" d="M 3513 2113 
L 3513 0 
L 2938 0 
L 2938 2094 
Q 2938 2591 2744 2837 
Q 2550 3084 2163 3084 
Q 1697 3084 1428 2787 
Q 1159 2491 1159 1978 
L 1159 0 
L 581 0 
L 581 3500 
L 1159 3500 
L 1159 2956 
Q 1366 3272 1645 3428 
Q 1925 3584 2291 3584 
Q 2894 3584 3203 3211 
Q 3513 2838 3513 2113 
z
" transform="scale(0.015625)"/>
      <path id="DejaVuSans-56" d="M 2834 3397 
L 2834 2853 
Q 2591 2978 2328 3040 
Q 2066 3103 1784 3103 
Q 1356 3103 1142 2972 
Q 928 2841 928 2578 
Q 928 2378 1081 2264 
Q 1234 2150 1697 2047 
L 1894 2003 
Q 2506 1872 2764 1633 
Q 3022 1394 3022 966 
Q 3022 478 2636 193 
Q 2250 -91 1575 -91 
Q 1294 -91 989 -36 
Q 684 19 347 128 
L 347 722 
Q 666 556 975 473 
Q 1284 391 1588 391 
Q 1994 391 2212 530 
Q 2431 669 2431 922 
Q 2431 1156 2273 1281 
Q 2116 1406 1581 1522 
L 1381 1569 
Q 847 1681 609 1914 
Q 372 2147 372 2553 
Q 372 3047 722 3315 
Q 1072 3584 1716 3584 
Q 2034 3584 2315 3537 
Q 2597 3491 2834 3397 
z
" transform="scale(0.015625)"/>
      <path id="DejaVuSans-1d" d="M 750 794 
L 1409 794 
L 1409 0 
L 750 0 
L 750 794 
z
M 750 3309 
L 1409 3309 
L 1409 2516 
L 750 2516 
L 750 3309 
z
" transform="scale(0.015625)"/>
      <path id="DejaVuSans-af6" d="M 313 1978 
L 6088 1978 
L 6088 1528 
L 313 1528 
L 313 1978 
z
" transform="scale(0.015625)"/>
      <path id="DejaVuSans-27" d="M 1259 4147 
L 1259 519 
L 2022 519 
Q 2988 519 3436 956 
Q 3884 1394 3884 2338 
Q 3884 3275 3436 3711 
Q 2988 4147 2022 4147 
L 1259 4147 
z
M 628 4666 
L 1925 4666 
Q 3281 4666 3915 4102 
Q 4550 3538 4550 2338 
Q 4550 1131 3912 565 
Q 3275 0 1925 0 
L 628 0 
L 628 4666 
z
" transform="scale(0.015625)"/>
      <path id="DejaVuSans-28" d="M 628 4666 
L 3578 4666 
L 3578 4134 
L 1259 4134 
L 1259 2753 
L 3481 2753 
L 3481 2222 
L 1259 2222 
L 1259 531 
L 3634 531 
L 3634 0 
L 628 0 
L 628 4666 
z
" transform="scale(0.015625)"/>
     </defs>
     <use xlink:href="#DejaVuSans-33"/>
     <use xlink:href="#DejaVuSans-44" transform="translate(55.8125 0)"/>
     <use xlink:href="#DejaVuSans-55" transform="translate(117.09375 0)"/>
     <use xlink:href="#DejaVuSans-48" transform="translate(156 0)"/>
     <use xlink:href="#DejaVuSans-57" transform="translate(217.53125 0)"/>
     <use xlink:href="#DejaVuSans-52" transform="translate(256.734375 0)"/>
     <use xlink:href="#DejaVuSans-3" transform="translate(317.921875 0)"/>
     <use xlink:href="#DejaVuSans-29" transform="translate(349.703125 0)"/>
     <use xlink:href="#DejaVuSans-55" transform="translate(399.9375 0)"/>
     <use xlink:href="#DejaVuSans-52" transform="translate(438.84375 0)"/>
     <use xlink:href="#DejaVuSans-51" transform="translate(500.03125 0)"/>
     <use xlink:href="#DejaVuSans-57" transform="translate(563.40625 0)"/>
     <use xlink:href="#DejaVuSans-4c" transform="translate(602.609375 0)"/>
     <use xlink:href="#DejaVuSans-48" transform="translate(630.390625 0)"/>
     <use xlink:href="#DejaVuSans-55" transform="translate(691.921875 0)"/>
     <use xlink:href="#DejaVuSans-56" transform="translate(733.03125 0)"/>
     <use xlink:href="#DejaVuSans-1d" transform="translate(785.125 0)"/>
     <use xlink:href="#DejaVuSans-3" transform="translate(818.8125 0)"/>
     <use xlink:href="#DejaVuSans-36" transform="translate(850.59375 0)"/>
     <use xlink:href="#DejaVuSans-46" transform="translate(914.078125 0)"/>
     <use xlink:href="#DejaVuSans-52" transform="translate(969.0625 0)"/>
     <use xlink:href="#DejaVuSans-55" transform="translate(1030.25 0)"/>
     <use xlink:href="#DejaVuSans-48" transform="translate(1069.15625 0)"/>
     <use xlink:href="#DejaVuSans-3" transform="translate(1130.6875 0)"/>
     <use xlink:href="#DejaVuSans-59" transform="translate(1162.46875 0)"/>
     <use xlink:href="#DejaVuSans-56" transform="translate(1221.65625 0)"/>
     <use xlink:href="#DejaVuSans-3" transform="translate(1273.75 0)"/>
     <use xlink:href="#DejaVuSans-32" transform="translate(1305.53125 0)"/>
     <use xlink:href="#DejaVuSans-59" transform="translate(1384.25 0)"/>
     <use xlink:href="#DejaVuSans-48" transform="translate(1443.4375 0)"/>
     <use xlink:href="#DejaVuSans-55" transform="translate(1504.96875 0)"/>
     <use xlink:href="#DejaVuSans-4b" transform="translate(1544.328125 0)"/>
     <use xlink:href="#DejaVuSans-48" transform="translate(1607.703125 0)"/>
     <use xlink:href="#DejaVuSans-44" transform="translate(1669.234375 0)"/>
     <use xlink:href="#DejaVuSans-47" transform="translate(1730.515625 0)"/>
     <use xlink:href="#DejaVuSans-3" transform="translate(1794 0)"/>
     <use xlink:href="#DejaVuSans-af6" transform="translate(1825.78125 0)"/>
     <use xlink:href="#DejaVuSans-3" transform="translate(1925.78125 0)"/>
     <use xlink:href="#DejaVuSans-27" transform="translate(1957.5625 0)"/>
     <use xlink:href="#DejaVuSans-28" transform="translate(2034.5625 0)"/>
    </g>
   </g>
   <g id="legend_1">
    <g id="patch_7">
     <path d="M 465.301406 406.809937 
L 612.541406 406.809937 
Q 614.341406 406.809937 614.341406 405.009937 
L 614.341406 351.907125 
Q 614.341406 350.107125 612.541406 350.107125 
L 465.301406 350.107125 
Q 463.501406 350.107125 463.501406 351.907125 
L 463.501406 405.009937 
Q 463.501406 406.809937 465.301406 406.809937 
z
" style="fill: #ffffff; opacity: 0.8; stroke: #cccccc; stroke-linejoin: miter"/>
    </g>
    <g id="line2d_17">
     <path d="M 467.101406 357.395719 
L 476.101406 357.395719 
L 485.101406 357.395719 
" style="fill: none; stroke: #2563eb; stroke-width: 2; stroke-linecap: round"/>
     <g>
      <use xlink:href="#m3250e861f9" x="476.101406" y="357.395719" style="fill: #2563eb; stroke: #2563eb"/>
     </g>
    </g>
    <g id="text_18">
     <!-- DeepSeek V3 frontier -->
     <g style="fill: #262626" transform="translate(492.301406 360.545719) scale(0.09 -0.09)">
      <defs>
       <path id="DejaVuSans-53" d="M 1159 525 
L 1159 -1331 
L 581 -1331 
L 581 3500 
L 1159 3500 
L 1159 2969 
Q 1341 3281 1617 3432 
Q 1894 3584 2278 3584 
Q 2916 3584 3314 3078 
Q 3713 2572 3713 1747 
Q 3713 922 3314 415 
Q 2916 -91 2278 -91 
Q 1894 -91 1617 61 
Q 1341 213 1159 525 
z
M 3116 1747 
Q 3116 2381 2855 2742 
Q 2594 3103 2138 3103 
Q 1681 3103 1420 2742 
Q 1159 2381 1159 1747 
Q 1159 1113 1420 752 
Q 1681 391 2138 391 
Q 2594 391 2855 752 
Q 3116 1113 3116 1747 
z
" transform="scale(0.015625)"/>
       <path id="DejaVuSans-4e" d="M 581 4863 
L 1159 4863 
L 1159 1991 
L 2875 3500 
L 3609 3500 
L 1753 1863 
L 3688 0 
L 2938 0 
L 1159 1709 
L 1159 0 
L 581 0 
L 581 4863 
z
" transform="scale(0.015625)"/>
       <path id="DejaVuSans-39" d="M 1831 0 
L 50 4666 
L 709 4666 
L 2188 738 
L 3669 4666 
L 4325 4666 
L 2547 0 
L 1831 0 
z
" transform="scale(0.015625)"/>
       <path id="DejaVuSans-16" d="M 2597 2516 
Q 3050 2419 3304 2112 
Q 3559 1806 3559 1356 
Q 3559 666 3084 287 
Q 2609 -91 1734 -91 
Q 1441 -91 1130 -33 
Q 819 25 488 141 
L 488 750 
Q 750 597 1062 519 
Q 1375 441 1716 441 
Q 2309 441 2620 675 
Q 2931 909 2931 1356 
Q 2931 1769 2642 2001 
Q 2353 2234 1838 2234 
L 1294 2234 
L 1294 2753 
L 1863 2753 
Q 2328 2753 2575 2939 
Q 2822 3125 2822 3475 
Q 2822 3834 2567 4026 
Q 2313 4219 1838 4219 
Q 1578 4219 1281 4162 
Q 984 4106 628 3988 
L 628 4550 
Q 988 4650 1302 4700 
Q 1616 4750 1894 4750 
Q 2613 4750 3031 4423 
Q 3450 4097 3450 3541 
Q 3450 3153 3228 2886 
Q 3006 2619 2597 2516 
z
" transform="scale(0.015625)"/>
       <path id="DejaVuSans-49" d="M 2375 4863 
L 2375 4384 
L 1825 4384 
Q 1516 4384 1395 4259 
Q 1275 4134 1275 3809 
L 1275 3500 
L 2222 3500 
L 2222 3053 
L 1275 3053 
L 1275 0 
L 697 0 
L 697 3053 
L 147 3053 
L 147 3500 
L 697 3500 
L 697 3744 
Q 697 4328 969 4595 
Q 1241 4863 1831 4863 
L 2375 4863 
z
" transform="scale(0.015625)"/>
      </defs>
      <use xlink:href="#DejaVuSans-27"/>
      <use xlink:href="#DejaVuSans-48" transform="translate(77 0)"/>
      <use xlink:href="#DejaVuSans-48" transform="translate(138.53125 0)"/>
      <use xlink:href="#DejaVuSans-53" transform="translate(200.0625 0)"/>
      <use xlink:href="#DejaVuSans-36" transform="translate(263.546875 0)"/>
      <use xlink:href="#DejaVuSans-48" transform="translate(327.03125 0)"/>
      <use xlink:href="#DejaVuSans-48" transform="translate(388.5625 0)"/>
      <use xlink:href="#DejaVuSans-4e" transform="translate(450.09375 0)"/>
      <use xlink:href="#DejaVuSans-3" transform="translate(508 0)"/>
      <use xlink:href="#DejaVuSans-39" transform="translate(539.78125 0)"/>
      <use xlink:href="#DejaVuSans-16" transform="translate(608.1875 0)"/>
      <use xlink:href="#DejaVuSans-3" transform="translate(671.8125 0)"/>
      <use xlink:href="#DejaVuSans-49" transform="translate(703.59375 0)"/>
      <use xlink:href="#DejaVuSans-55" transform="translate(738.796875 0)"/>
      <use xlink:href="#DejaVuSans-52" transform="translate(777.703125 0)"/>
      <use xlink:href="#DejaVuSans-51" transform="translate(838.890625 0)"/>
      <use xlink:href="#DejaVuSans-57" transform="translate(902.265625 0)"/>
      <use xlink:href="#DejaVuSans-4c" transform="translate(941.46875 0)"/>
      <use xlink:href="#DejaVuSans-48" transform="translate(969.25 0)"/>
      <use xlink:href="#DejaVuSans-55" transform="translate(1030.78125 0)"/>
     </g>
    </g>
    <g id="PathCollection_1">
     <defs>
      <path id="m8257d48f1c" d="M 0 -7.071068 
L -1.587554 -2.18508 
L -6.724985 -2.18508 
L -2.568716 0.834626 
L -4.156269 5.720614 
L -0 2.700907 
L 4.156269 5.720614 
L 2.568716 0.834626 
L 6.724985 -2.18508 
L 1.587554 -2.18508 
z
" style="stroke: #000000"/>
     </defs>
     <g>
      <use xlink:href="#m8257d48f1c" x="476.101406" y="371.683922" style="fill: #ff0000; stroke: #000000"/>
     </g>
    </g>
    <g id="text_19">
     <!-- DeepSeek V3 best (0.717) -->
     <g style="fill: #262626" transform="translate(492.301406 374.046422) scale(0.09 -0.09)">
      <defs>
       <path id="DejaVuSans-45" d="M 3116 1747 
Q 3116 2381 2855 2742 
Q 2594 3103 2138 3103 
Q 1681 3103 1420 2742 
Q 1159 2381 1159 1747 
Q 1159 1113 1420 752 
Q 1681 391 2138 391 
Q 2594 391 2855 752 
Q 3116 1113 3116 1747 
z
M 1159 2969 
Q 1341 3281 1617 3432 
Q 1894 3584 2278 3584 
Q 2916 3584 3314 3078 
Q 3713 2572 3713 1747 
Q 3713 922 3314 415 
Q 2916 -91 2278 -91 
Q 1894 -91 1617 61 
Q 1341 213 1159 525 
L 1159 0 
L 581 0 
L 581 4863 
L 1159 4863 
L 1159 2969 
z
" transform="scale(0.015625)"/>
      </defs>
      <use xlink:href="#DejaVuSans-27"/>
      <use xlink:href="#DejaVuSans-48" transform="translate(77 0)"/>
      <use xlink:href="#DejaVuSans-48" transform="translate(138.53125 0)"/>
      <use xlink:href="#DejaVuSans-53" transform="translate(200.0625 0)"/>
      <use xlink:href="#DejaVuSans-36" transform="translate(263.546875 0)"/>
      <use xlink:href="#DejaVuSans-48" transform="translate(327.03125 0)"/>
      <use xlink:href="#DejaVuSans-48" transform="translate(388.5625 0)"/>
      <use xlink:href="#DejaVuSans-4e" transform="translate(450.09375 0)"/>
      <use xlink:href="#DejaVuSans-3" transform="translate(508 0)"/>
      <use xlink:href="#DejaVuSans-39" transform="translate(539.78125 0)"/>
      <use xlink:href="#DejaVuSans-16" transform="translate(608.1875 0)"/>
      <use xlink:href="#DejaVuSans-3" transform="translate(671.8125 0)"/>
      <use xlink:href="#DejaVuSans-45" transform="translate(703.59375 0)"/>
      <use xlink:href="#DejaVuSans-48" transform="translate(767.078125 0)"/>
      <use xlink:href="#DejaVuSans-56" transform="translate(828.609375 0)"/>
      <use xlink:href="#DejaVuSans-57" transform="translate(880.703125 0)"/>
      <use xlink:href="#DejaVuSans-3" transform="translate(919.90625 0)"/>
      <use xlink:href="#DejaVuSans-b" transform="translate(951.6875 0)"/>
      <use xlink:href="#DejaVuSans-13" transform="translate(990.703125 0)"/>
      <use xlink:href="#DejaVuSans-11" transform="translate(1054.328125 0)"/>
      <use xlink:href="#DejaVuSans-1a" transform="translate(1086.109375 0)"/>
      <use xlink:href="#DejaVuSans-14" transform="translate(1149.734375 0)"/>
      <use xlink:href="#DejaVuSans-1a" transform="translate(1213.359375 0)"/>
      <use xlink:href="#DejaVuSans-c" transform="translate(1276.984375 0)"/>
     </g>
    </g>
    <g id="line2d_18">
     <path d="M 467.101406 384.397125 
L 476.101406 384.397125 
L 485.101406 384.397125 
" style="fill: none; stroke: #dc2626; stroke-width: 2; stroke-linecap: round"/>
     <g>
      <use xlink:href="#m32bdabd2fe" x="476.101406" y="384.397125" style="fill: #dc2626; stroke: #dc2626"/>
     </g>
    </g>
    <g id="text_20">
     <!-- Kimi K2 frontier -->
     <g style="fill: #262626" transform="translate(492.301406 387.547125) scale(0.09 -0.09)">
      <defs>
       <path id="DejaVuSans-2e" d="M 628 4666 
L 1259 4666 
L 1259 2694 
L 3353 4666 
L 4166 4666 
L 1850 2491 
L 4331 0 
L 3500 0 
L 1259 2247 
L 1259 0 
L 628 0 
L 628 4666 
z
" transform="scale(0.015625)"/>
      </defs>
      <use xlink:href="#DejaVuSans-2e"/>
      <use xlink:href="#DejaVuSans-4c" transform="translate(65.578125 0)"/>
      <use xlink:href="#DejaVuSans-50" transform="translate(93.359375 0)"/>
      <use xlink:href="#DejaVuSans-4c" transform="translate(190.765625 0)"/>
      <use xlink:href="#DejaVuSans-3" transform="translate(218.546875 0)"/>
      <use xlink:href="#DejaVuSans-2e" transform="translate(250.328125 0)"/>
      <use xlink:href="#DejaVuSans-15" transform="translate(315.90625 0)"/>
      <use xlink:href="#DejaVuSans-3" transform="translate(379.53125 0)"/>
      <use xlink:href="#DejaVuSans-49" transform="translate(411.3125 0)"/>
      <use xlink:href="#DejaVuSans-55" transform="translate(446.515625 0)"/>
      <use xlink:href="#DejaVuSans-52" transform="translate(485.421875 0)"/>
      <use xlink:href="#DejaVuSans-51" transform="translate(546.609375 0)"/>
      <use xlink:href="#DejaVuSans-57" transform="translate(609.984375 0)"/>
      <use xlink:href="#DejaVuSans-4c" transform="translate(649.1875 0)"/>
      <use xlink:href="#DejaVuSans-48" transform="translate(676.96875 0)"/>
      <use xlink:href="#DejaVuSans-55" transform="translate(738.5 0)"/>
     </g>
    </g>
    <g id="PathCollection_2">
     <g>
      <use xlink:href="#m8257d48f1c" x="476.101406" y="398.685328" style="fill: #ff0000; stroke: #000000"/>
     </g>
    </g>
    <g id="text_21">
     <!-- Kimi K2 best (0.637) -->
     <g style="fill: #262626" transform="translate(492.301406 401.047828) scale(0.09 -0.09)">
      <use xlink:href="#DejaVuSans-2e"/>
      <use xlink:href="#DejaVuSans-4c" transform="translate(65.578125 0)"/>
      <use xlink:href="#DejaVuSans-50" transform="translate(93.359375 0)"/>
      <use xlink:href="#DejaVuSans-4c" transform="translate(190.765625 0)"/>
      <use xlink:href="#DejaVuSans-3" transform="translate(218.546875 0)"/>
      <use xlink:href="#DejaVuSans-2e" transform="translate(250.328125 0)"/>
      <use xlink:href="#DejaVuSans-15" transform="translate(315.90625 0)"/>
      <use xlink:href="#DejaVuSans-3" transform="translate(379.53125 0)"/>
      <use xlink:href="#DejaVuSans-45" transform="translate(411.3125 0)"/>
      <use xlink:href="#DejaVuSans-48" transform="translate(474.796875 0)"/>
      <use xlink:href="#DejaVuSans-56" transform="translate(536.328125 0)"/>
      <use xlink:href="#DejaVuSans-57" transform="translate(588.421875 0)"/>
      <use xlink:href="#DejaVuSans-3" transform="translate(627.625 0)"/>
      <use xlink:href="#DejaVuSans-b" transform="translate(659.40625 0)"/>
      <use xlink:href="#DejaVuSans-13" transform="translate(698.421875 0)"/>
      <use xlink:href="#DejaVuSans-11" transform="translate(762.046875 0)"/>
      <use xlink:href="#DejaVuSans-19" transform="translate(793.828125 0)"/>
      <use xlink:href="#DejaVuSans-16" transform="translate(857.453125 0)"/>
      <use xlink:href="#DejaVuSans-1a" transform="translate(921.078125 0)"/>
      <use xlink:href="#DejaVuSans-c" transform="translate(984.703125 0)"/>
     </g>
    </g>
   </g>
   <g id="PathCollection_3">
    <g clip-path="url(#pbd223721e4)">
     <use xlink:href="#m8257d48f1c" x="529.62348" y="40.869938" style="fill: #ff0000; stroke: #000000"/>
    </g>
   </g>
   <g id="PathCollection_4">
    <g clip-path="url(#pbd223721e4)">
     <use xlink:href="#m8257d48f1c" x="593.47777" y="170.240786" style="fill: #ff0000; stroke: #000000"/>
    </g>
   </g>
  </g>
 </g>
 <defs>
  <clipPath id="pbd223721e4">
   <rect x="60.841406" y="23.229938" width="558" height="388.08"/>
  </clipPath>
 </defs>
</svg>
