<?xml version="1.0" encoding="utf-8" standalone="no"?>
<!DOCTYPE svg PUBLIC "-//W3C//DTD SVG 1.1//EN"
  "http://www.w3.org/Graphics/SVG/1.1/DTD/svg11.dtd">
<svg xmlns:xlink="http://www.w3.org/1999/xlink" width="633.740031pt" height="457.310969pt" viewBox="0 0 633.740031 457.310969" xmlns="http://www.w3.org/2000/svg" version="1.1">
 <metadata>
  <rdf:RDF xmlns:dc="http://purl.org/dc/elements/1.1/" xmlns:cc="http://creativecommons.org/ns#" xmlns:rdf="http://www.w3.org/1999/02/22-rdf-syntax-ns#">
   <cc:Work>
    <dc:type rdf:resource="http://purl.org/dc/dcmitype/StillImage"/>
    <dc:date>2026-07-14T16:56:58.889838</dc:date>
    <dc:format>image/svg+xml</dc:format>
    <dc:creator>
     <cc:Agent>
      <dc:title>Matplotlib v3.11.0, https://matplotlib.org/</dc:title>
     </cc:Agent>
    </dc:creator>
   </cc:Work>
  </rdf:RDF>
 </metadata>
 <defs>
  <style type="text/css">*{stroke-linejoin: round; stroke-linecap: butt}</style>
 </defs>
 <g id="figure_1">
  <g id="patch_1">
   <path d="M 0 457.310969 
L 633.740031 457.310969 
L 633.740031 0 
L 0 0 
z
" style="fill: #ffffff"/>
  </g>
  <g id="axes_1">
   <g id="patch_2">
    <path d="M 68.540031 411.309937 
L 626.540031 411.309937 
L 626.540031 23.229938 
L 68.540031 23.229938 
z
" style="fill: #ffffff"/>
   </g>
   <g id="matplotlib.axis_1">
    <g id="xtick_1">
     <g id="line2d_1">
      <path d="M 93.903668 411.309937 
L 93.903668 23.229938 
" clip-path="url(#pf81d215bba)" style="fill: none; stroke: #cccccc; stroke-opacity: 0.3; stroke-linecap: round"/>
     </g>
     <g id="text_1">
      <!-- 0 -->
      <g style="fill: #262626" transform="translate(90.054355 430.003102) scale(0.121 -0.121)">
       <defs>
        <path id="DejaVuSans-13" d="M 2034 4250 
Q 1547 4250 1301 3770 
Q 1056 3291 1056 2328 
Q 1056 1369 1301 889 
Q 1547 409 2034 409 
Q 2525 409 2770 889 
Q 3016 1369 3016 2328 
Q 3016 3291 2770 3770 
Q 2525 4250 2034 4250 
z
M 2034 4750 
Q 2819 4750 3233 4129 
Q 3647 3509 3647 2328 
Q 3647 1150 3233 529 
Q 2819 -91 2034 -91 
Q 1250 -91 836 529 
Q 422 1150 422 2328 
Q 422 3509 836 4129 
Q 1250 4750 2034 4750 
z
" transform="scale(0.015625)"/>
       </defs>
       <use xlink:href="#DejaVuSans-13"/>
      </g>
     </g>
    </g>
    <g id="xtick_2">
     <g id="line2d_2">
      <path d="M 163.87232 411.309937 
L 163.87232 23.229938 
" clip-path="url(#pf81d215bba)" style="fill: none; stroke: #cccccc; stroke-opacity: 0.3; stroke-linecap: round"/>
     </g>
     <g id="text_2">
      <!-- 10 -->
      <g style="fill: #262626" transform="translate(156.173695 430.003102) scale(0.121 -0.121)">
       <defs>
        <path id="DejaVuSans-14" d="M 794 531 
L 1825 531 
L 1825 4091 
L 703 3866 
L 703 4441 
L 1819 4666 
L 2450 4666 
L 2450 531 
L 3481 531 
L 3481 0 
L 794 0 
L 794 531 
z
" transform="scale(0.015625)"/>
       </defs>
       <use xlink:href="#DejaVuSans-14"/>
       <use xlink:href="#DejaVuSans-13" transform="translate(63.625 0)"/>
      </g>
     </g>
    </g>
    <g id="xtick_3">
     <g id="line2d_3">
      <path d="M 233.840972 411.309937 
L 233.840972 23.229938 
" clip-path="url(#pf81d215bba)" style="fill: none; stroke: #cccccc; stroke-opacity: 0.3; stroke-linecap: round"/>
     </g>
     <g id="text_3">
      <!-- 20 -->
      <g style="fill: #262626" transform="translate(226.142347 430.003102) scale(0.121 -0.121)">
       <defs>
        <path id="DejaVuSans-15" d="M 1228 531 
L 3431 531 
L 3431 0 
L 469 0 
L 469 531 
Q 828 903 1448 1529 
Q 2069 2156 2228 2338 
Q 2531 2678 2651 2914 
Q 2772 3150 2772 3378 
Q 2772 3750 2511 3984 
Q 2250 4219 1831 4219 
Q 1534 4219 1204 4116 
Q 875 4013 500 3803 
L 500 4441 
Q 881 4594 1212 4672 
Q 1544 4750 1819 4750 
Q 2544 4750 2975 4387 
Q 3406 4025 3406 3419 
Q 3406 3131 3298 2873 
Q 3191 2616 2906 2266 
Q 2828 2175 2409 1742 
Q 1991 1309 1228 531 
z
" transform="scale(0.015625)"/>
       </defs>
       <use xlink:href="#DejaVuSans-15"/>
       <use xlink:href="#DejaVuSans-13" transform="translate(63.625 0)"/>
      </g>
     </g>
    </g>
    <g id="xtick_4">
     <g id="line2d_4">
      <path d="M 303.809624 411.309937 
L 303.809624 23.229938 
" clip-path="url(#pf81d215bba)" style="fill: none; stroke: #cccccc; stroke-opacity: 0.3; stroke-linecap: round"/>
     </g>
     <g id="text_4">
      <!-- 30 -->
      <g style="fill: #262626" transform="translate(296.110999 430.003102) scale(0.121 -0.121)">
       <defs>
        <path id="DejaVuSans-16" d="M 2597 2516 
Q 3050 2419 3304 2112 
Q 3559 1806 3559 1356 
Q 3559 666 3084 287 
Q 2609 -91 1734 -91 
Q 1441 -91 1130 -33 
Q 819 25 488 141 
L 488 750 
Q 750 597 1062 519 
Q 1375 441 1716 441 
Q 2309 441 2620 675 
Q 2931 909 2931 1356 
Q 2931 1769 2642 2001 
Q 2353 2234 1838 2234 
L 1294 2234 
L 1294 2753 
L 1863 2753 
Q 2328 2753 2575 2939 
Q 2822 3125 2822 3475 
Q 2822 3834 2567 4026 
Q 2313 4219 1838 4219 
Q 1578 4219 1281 4162 
Q 984 4106 628 3988 
L 628 4550 
Q 988 4650 1302 4700 
Q 1616 4750 1894 4750 
Q 2613 4750 3031 4423 
Q 3450 4097 3450 3541 
Q 3450 3153 3228 2886 
Q 3006 2619 2597 2516 
z
" transform="scale(0.015625)"/>
       </defs>
       <use xlink:href="#DejaVuSans-16"/>
       <use xlink:href="#DejaVuSans-13" transform="translate(63.625 0)"/>
      </g>
     </g>
    </g>
    <g id="xtick_5">
     <g id="line2d_5">
      <path d="M 373.778276 411.309937 
L 373.778276 23.229938 
" clip-path="url(#pf81d215bba)" style="fill: none; stroke: #cccccc; stroke-opacity: 0.3; stroke-linecap: round"/>
     </g>
     <g id="text_5">
      <!-- 40 -->
      <g style="fill: #262626" transform="translate(366.079651 430.003102) scale(0.121 -0.121)">
       <defs>
        <path id="DejaVuSans-17" d="M 2419 4116 
L 825 1625 
L 2419 1625 
L 2419 4116 
z
M 2253 4666 
L 3047 4666 
L 3047 1625 
L 3713 1625 
L 3713 1100 
L 3047 1100 
L 3047 0 
L 2419 0 
L 2419 1100 
L 313 1100 
L 313 1709 
L 2253 4666 
z
" transform="scale(0.015625)"/>
       </defs>
       <use xlink:href="#DejaVuSans-17"/>
       <use xlink:href="#DejaVuSans-13" transform="translate(63.625 0)"/>
      </g>
     </g>
    </g>
    <g id="xtick_6">
     <g id="line2d_6">
      <path d="M 443.746928 411.309937 
L 443.746928 23.229938 
" clip-path="url(#pf81d215bba)" style="fill: none; stroke: #cccccc; stroke-opacity: 0.3; stroke-linecap: round"/>
     </g>
     <g id="text_6">
      <!-- 50 -->
      <g style="fill: #262626" transform="translate(436.048303 430.003102) scale(0.121 -0.121)">
       <defs>
        <path id="DejaVuSans-18" d="M 691 4666 
L 3169 4666 
L 3169 4134 
L 1269 4134 
L 1269 2991 
Q 1406 3038 1543 3061 
Q 1681 3084 1819 3084 
Q 2600 3084 3056 2656 
Q 3513 2228 3513 1497 
Q 3513 744 3044 326 
Q 2575 -91 1722 -91 
Q 1428 -91 1123 -41 
Q 819 9 494 109 
L 494 744 
Q 775 591 1075 516 
Q 1375 441 1709 441 
Q 2250 441 2565 725 
Q 2881 1009 2881 1497 
Q 2881 1984 2565 2268 
Q 2250 2553 1709 2553 
Q 1456 2553 1204 2497 
Q 953 2441 691 2322 
L 691 4666 
z
" transform="scale(0.015625)"/>
       </defs>
       <use xlink:href="#DejaVuSans-18"/>
       <use xlink:href="#DejaVuSans-13" transform="translate(63.625 0)"/>
      </g>
     </g>
    </g>
    <g id="xtick_7">
     <g id="line2d_7">
      <path d="M 513.71558 411.309937 
L 513.71558 23.229938 
" clip-path="url(#pf81d215bba)" style="fill: none; stroke: #cccccc; stroke-opacity: 0.3; stroke-linecap: round"/>
     </g>
     <g id="text_7">
      <!-- 60 -->
      <g style="fill: #262626" transform="translate(506.016955 430.003102) scale(0.121 -0.121)">
       <defs>
        <path id="DejaVuSans-19" d="M 2113 2584 
Q 1688 2584 1439 2293 
Q 1191 2003 1191 1497 
Q 1191 994 1439 701 
Q 1688 409 2113 409 
Q 2538 409 2786 701 
Q 3034 994 3034 1497 
Q 3034 2003 2786 2293 
Q 2538 2584 2113 2584 
z
M 3366 4563 
L 3366 3988 
Q 3128 4100 2886 4159 
Q 2644 4219 2406 4219 
Q 1781 4219 1451 3797 
Q 1122 3375 1075 2522 
Q 1259 2794 1537 2939 
Q 1816 3084 2150 3084 
Q 2853 3084 3261 2657 
Q 3669 2231 3669 1497 
Q 3669 778 3244 343 
Q 2819 -91 2113 -91 
Q 1303 -91 875 529 
Q 447 1150 447 2328 
Q 447 3434 972 4092 
Q 1497 4750 2381 4750 
Q 2619 4750 2861 4703 
Q 3103 4656 3366 4563 
z
" transform="scale(0.015625)"/>
       </defs>
       <use xlink:href="#DejaVuSans-19"/>
       <use xlink:href="#DejaVuSans-13" transform="translate(63.625 0)"/>
      </g>
     </g>
    </g>
    <g id="xtick_8">
     <g id="line2d_8">
      <path d="M 583.684232 411.309937 
L 583.684232 23.229938 
" clip-path="url(#pf81d215bba)" style="fill: none; stroke: #cccccc; stroke-opacity: 0.3; stroke-linecap: round"/>
     </g>
     <g id="text_8">
      <!-- 70 -->
      <g style="fill: #262626" transform="translate(575.985607 430.003102) scale(0.121 -0.121)">
       <defs>
        <path id="DejaVuSans-1a" d="M 525 4666 
L 3525 4666 
L 3525 4397 
L 1831 0 
L 1172 0 
L 2766 4134 
L 525 4134 
L 525 4666 
z
" transform="scale(0.015625)"/>
       </defs>
       <use xlink:href="#DejaVuSans-1a"/>
       <use xlink:href="#DejaVuSans-13" transform="translate(63.625 0)"/>
      </g>
     </g>
    </g>
    <g id="text_9">
     <!-- Time Overhead (%) -->
     <g style="fill: #262626" transform="translate(283.533437 446.939875) scale(0.132 -0.132)">
      <defs>
       <path id="DejaVuSans-37" d="M -19 4666 
L 3928 4666 
L 3928 4134 
L 2272 4134 
L 2272 0 
L 1638 0 
L 1638 4134 
L -19 4134 
L -19 4666 
z
" transform="scale(0.015625)"/>
       <path id="DejaVuSans-4c" d="M 603 3500 
L 1178 3500 
L 1178 0 
L 603 0 
L 603 3500 
z
M 603 4863 
L 1178 4863 
L 1178 4134 
L 603 4134 
L 603 4863 
z
" transform="scale(0.015625)"/>
       <path id="DejaVuSans-50" d="M 3328 2828 
Q 3544 3216 3844 3400 
Q 4144 3584 4550 3584 
Q 5097 3584 5394 3201 
Q 5691 2819 5691 2113 
L 5691 0 
L 5113 0 
L 5113 2094 
Q 5113 2597 4934 2840 
Q 4756 3084 4391 3084 
Q 3944 3084 3684 2787 
Q 3425 2491 3425 1978 
L 3425 0 
L 2847 0 
L 2847 2094 
Q 2847 2600 2669 2842 
Q 2491 3084 2119 3084 
Q 1678 3084 1418 2786 
Q 1159 2488 1159 1978 
L 1159 0 
L 581 0 
L 581 3500 
L 1159 3500 
L 1159 2956 
Q 1356 3278 1631 3431 
Q 1906 3584 2284 3584 
Q 2666 3584 2933 3390 
Q 3200 3197 3328 2828 
z
" transform="scale(0.015625)"/>
       <path id="DejaVuSans-48" d="M 3597 1894 
L 3597 1613 
L 953 1613 
Q 991 1019 1311 708 
Q 1631 397 2203 397 
Q 2534 397 2845 478 
Q 3156 559 3463 722 
L 3463 178 
Q 3153 47 2828 -22 
Q 2503 -91 2169 -91 
Q 1331 -91 842 396 
Q 353 884 353 1716 
Q 353 2575 817 3079 
Q 1281 3584 2069 3584 
Q 2775 3584 3186 3129 
Q 3597 2675 3597 1894 
z
M 3022 2063 
Q 3016 2534 2758 2815 
Q 2500 3097 2075 3097 
Q 1594 3097 1305 2825 
Q 1016 2553 972 2059 
L 3022 2063 
z
" transform="scale(0.015625)"/>
       <path id="DejaVuSans-3" transform="scale(0.015625)"/>
       <path id="DejaVuSans-32" d="M 2522 4238 
Q 1834 4238 1429 3725 
Q 1025 3213 1025 2328 
Q 1025 1447 1429 934 
Q 1834 422 2522 422 
Q 3209 422 3611 934 
Q 4013 1447 4013 2328 
Q 4013 3213 3611 3725 
Q 3209 4238 2522 4238 
z
M 2522 4750 
Q 3503 4750 4090 4092 
Q 4678 3434 4678 2328 
Q 4678 1225 4090 567 
Q 3503 -91 2522 -91 
Q 1538 -91 948 565 
Q 359 1222 359 2328 
Q 359 3434 948 4092 
Q 1538 4750 2522 4750 
z
" transform="scale(0.015625)"/>
       <path id="DejaVuSans-59" d="M 191 3500 
L 800 3500 
L 1894 563 
L 2988 3500 
L 3597 3500 
L 2284 0 
L 1503 0 
L 191 3500 
z
" transform="scale(0.015625)"/>
       <path id="DejaVuSans-55" d="M 2631 2963 
Q 2534 3019 2420 3045 
Q 2306 3072 2169 3072 
Q 1681 3072 1420 2755 
Q 1159 2438 1159 1844 
L 1159 0 
L 581 0 
L 581 3500 
L 1159 3500 
L 1159 2956 
Q 1341 3275 1631 3429 
Q 1922 3584 2338 3584 
Q 2397 3584 2469 3576 
Q 2541 3569 2628 3553 
L 2631 2963 
z
" transform="scale(0.015625)"/>
       <path id="DejaVuSans-4b" d="M 3513 2113 
L 3513 0 
L 2938 0 
L 2938 2094 
Q 2938 2591 2744 2837 
Q 2550 3084 2163 3084 
Q 1697 3084 1428 2787 
Q 1159 2491 1159 1978 
L 1159 0 
L 581 0 
L 581 4863 
L 1159 4863 
L 1159 2956 
Q 1366 3272 1645 3428 
Q 1925 3584 2291 3584 
Q 2894 3584 3203 3211 
Q 3513 2838 3513 2113 
z
" transform="scale(0.015625)"/>
       <path id="DejaVuSans-44" d="M 2194 1759 
Q 1497 1759 1228 1600 
Q 959 1441 959 1056 
Q 959 750 1161 570 
Q 1363 391 1709 391 
Q 2188 391 2477 730 
Q 2766 1069 2766 1631 
L 2766 1759 
L 2194 1759 
z
M 3341 1997 
L 3341 0 
L 2766 0 
L 2766 531 
Q 2569 213 2275 61 
Q 1981 -91 1556 -91 
Q 1019 -91 701 211 
Q 384 513 384 1019 
Q 384 1609 779 1909 
Q 1175 2209 1959 2209 
L 2766 2209 
L 2766 2266 
Q 2766 2663 2505 2880 
Q 2244 3097 1772 3097 
Q 1472 3097 1187 3025 
Q 903 2953 641 2809 
L 641 3341 
Q 956 3463 1253 3523 
Q 1550 3584 1831 3584 
Q 2591 3584 2966 3190 
Q 3341 2797 3341 1997 
z
" transform="scale(0.015625)"/>
       <path id="DejaVuSans-47" d="M 2906 2969 
L 2906 4863 
L 3481 4863 
L 3481 0 
L 2906 0 
L 2906 525 
Q 2725 213 2448 61 
Q 2172 -91 1784 -91 
Q 1150 -91 751 415 
Q 353 922 353 1747 
Q 353 2572 751 3078 
Q 1150 3584 1784 3584 
Q 2172 3584 2448 3432 
Q 2725 3281 2906 2969 
z
M 947 1747 
Q 947 1113 1208 752 
Q 1469 391 1925 391 
Q 2381 391 2643 752 
Q 2906 1113 2906 1747 
Q 2906 2381 2643 2742 
Q 2381 3103 1925 3103 
Q 1469 3103 1208 2742 
Q 947 2381 947 1747 
z
" transform="scale(0.015625)"/>
       <path id="DejaVuSans-b" d="M 1984 4856 
Q 1566 4138 1362 3434 
Q 1159 2731 1159 2009 
Q 1159 1288 1364 580 
Q 1569 -128 1984 -844 
L 1484 -844 
Q 1016 -109 783 600 
Q 550 1309 550 2009 
Q 550 2706 781 3412 
Q 1013 4119 1484 4856 
L 1984 4856 
z
" transform="scale(0.015625)"/>
       <path id="DejaVuSans-8" d="M 4653 2053 
Q 4381 2053 4226 1822 
Q 4072 1591 4072 1178 
Q 4072 772 4226 539 
Q 4381 306 4653 306 
Q 4919 306 5073 539 
Q 5228 772 5228 1178 
Q 5228 1588 5073 1820 
Q 4919 2053 4653 2053 
z
M 4653 2450 
Q 5147 2450 5437 2106 
Q 5728 1763 5728 1178 
Q 5728 594 5436 251 
Q 5144 -91 4653 -91 
Q 4153 -91 3862 251 
Q 3572 594 3572 1178 
Q 3572 1766 3864 2108 
Q 4156 2450 4653 2450 
z
M 1428 4353 
Q 1159 4353 1004 4120 
Q 850 3888 850 3481 
Q 850 3069 1003 2837 
Q 1156 2606 1428 2606 
Q 1700 2606 1854 2837 
Q 2009 3069 2009 3481 
Q 2009 3884 1853 4118 
Q 1697 4353 1428 4353 
z
M 4250 4750 
L 4750 4750 
L 1831 -91 
L 1331 -91 
L 4250 4750 
z
M 1428 4750 
Q 1922 4750 2215 4408 
Q 2509 4066 2509 3481 
Q 2509 2891 2217 2550 
Q 1925 2209 1428 2209 
Q 931 2209 642 2551 
Q 353 2894 353 3481 
Q 353 4063 643 4406 
Q 934 4750 1428 4750 
z
" transform="scale(0.015625)"/>
       <path id="DejaVuSans-c" d="M 513 4856 
L 1013 4856 
Q 1481 4119 1714 3412 
Q 1947 2706 1947 2009 
Q 1947 1309 1714 600 
Q 1481 -109 1013 -844 
L 513 -844 
Q 928 -128 1133 580 
Q 1338 1288 1338 2009 
Q 1338 2731 1133 3434 
Q 928 4138 513 4856 
z
" transform="scale(0.015625)"/>
      </defs>
      <use xlink:href="#DejaVuSans-37"/>
      <use xlink:href="#DejaVuSans-4c" transform="translate(58 0)"/>
      <use xlink:href="#DejaVuSans-50" transform="translate(85.78125 0)"/>
      <use xlink:href="#DejaVuSans-48" transform="translate(183.1875 0)"/>
      <use xlink:href="#DejaVuSans-3" transform="translate(244.71875 0)"/>
      <use xlink:href="#DejaVuSans-32" transform="translate(276.5 0)"/>
      <use xlink:href="#DejaVuSans-59" transform="translate(355.21875 0)"/>
      <use xlink:href="#DejaVuSans-48" transform="translate(414.40625 0)"/>
      <use xlink:href="#DejaVuSans-55" transform="translate(475.9375 0)"/>
      <use xlink:href="#DejaVuSans-4b" transform="translate(515.296875 0)"/>
      <use xlink:href="#DejaVuSans-48" transform="translate(578.671875 0)"/>
      <use xlink:href="#DejaVuSans-44" transform="translate(640.203125 0)"/>
      <use xlink:href="#DejaVuSans-47" transform="translate(701.484375 0)"/>
      <use xlink:href="#DejaVuSans-3" transform="translate(764.96875 0)"/>
      <use xlink:href="#DejaVuSans-b" transform="translate(796.75 0)"/>
      <use xlink:href="#DejaVuSans-8" transform="translate(835.765625 0)"/>
      <use xlink:href="#DejaVuSans-c" transform="translate(930.78125 0)"/>
     </g>
    </g>
   </g>
   <g id="matplotlib.axis_2">
    <g id="ytick_1">
     <g id="line2d_9">
      <path d="M 68.540031 393.669937 
L 626.540031 393.669937 
" clip-path="url(#pf81d215bba)" style="fill: none; stroke: #cccccc; stroke-opacity: 0.3; stroke-linecap: round"/>
     </g>
     <g id="text_10">
      <!-- 0.500 -->
      <g style="fill: #262626" transform="translate(24.4 398.26652) scale(0.121 -0.121)">
       <defs>
        <path id="DejaVuSans-11" d="M 684 794 
L 1344 794 
L 1344 0 
L 684 0 
L 684 794 
z
" transform="scale(0.015625)"/>
       </defs>
       <use xlink:href="#DejaVuSans-13"/>
       <use xlink:href="#DejaVuSans-11" transform="translate(63.625 0)"/>
       <use xlink:href="#DejaVuSans-18" transform="translate(95.40625 0)"/>
       <use xlink:href="#DejaVuSans-13" transform="translate(159.03125 0)"/>
       <use xlink:href="#DejaVuSans-13" transform="translate(222.65625 0)"/>
      </g>
     </g>
    </g>
    <g id="ytick_2">
     <g id="line2d_10">
      <path d="M 68.540031 336.582559 
L 626.540031 336.582559 
" clip-path="url(#pf81d215bba)" style="fill: none; stroke: #cccccc; stroke-opacity: 0.3; stroke-linecap: round"/>
     </g>
     <g id="text_11">
      <!-- 0.505 -->
      <g style="fill: #262626" transform="translate(24.4 341.179141) scale(0.121 -0.121)">
       <use xlink:href="#DejaVuSans-13"/>
       <use xlink:href="#DejaVuSans-11" transform="translate(63.625 0)"/>
       <use xlink:href="#DejaVuSans-18" transform="translate(95.40625 0)"/>
       <use xlink:href="#DejaVuSans-13" transform="translate(159.03125 0)"/>
       <use xlink:href="#DejaVuSans-18" transform="translate(222.65625 0)"/>
      </g>
     </g>
    </g>
    <g id="ytick_3">
     <g id="line2d_11">
      <path d="M 68.540031 279.49518 
L 626.540031 279.49518 
" clip-path="url(#pf81d215bba)" style="fill: none; stroke: #cccccc; stroke-opacity: 0.3; stroke-linecap: round"/>
     </g>
     <g id="text_12">
      <!-- 0.510 -->
      <g style="fill: #262626" transform="translate(24.4 284.091762) scale(0.121 -0.121)">
       <use xlink:href="#DejaVuSans-13"/>
       <use xlink:href="#DejaVuSans-11" transform="translate(63.625 0)"/>
       <use xlink:href="#DejaVuSans-18" transform="translate(95.40625 0)"/>
       <use xlink:href="#DejaVuSans-14" transform="translate(159.03125 0)"/>
       <use xlink:href="#DejaVuSans-13" transform="translate(222.65625 0)"/>
      </g>
     </g>
    </g>
    <g id="ytick_4">
     <g id="line2d_12">
      <path d="M 68.540031 222.407802 
L 626.540031 222.407802 
" clip-path="url(#pf81d215bba)" style="fill: none; stroke: #cccccc; stroke-opacity: 0.3; stroke-linecap: round"/>
     </g>
     <g id="text_13">
      <!-- 0.515 -->
      <g style="fill: #262626" transform="translate(24.4 227.004384) scale(0.121 -0.121)">
       <use xlink:href="#DejaVuSans-13"/>
       <use xlink:href="#DejaVuSans-11" transform="translate(63.625 0)"/>
       <use xlink:href="#DejaVuSans-18" transform="translate(95.40625 0)"/>
       <use xlink:href="#DejaVuSans-14" transform="translate(159.03125 0)"/>
       <use xlink:href="#DejaVuSans-18" transform="translate(222.65625 0)"/>
      </g>
     </g>
    </g>
    <g id="ytick_5">
     <g id="line2d_13">
      <path d="M 68.540031 165.320423 
L 626.540031 165.320423 
" clip-path="url(#pf81d215bba)" style="fill: none; stroke: #cccccc; stroke-opacity: 0.3; stroke-linecap: round"/>
     </g>
     <g id="text_14">
      <!-- 0.520 -->
      <g style="fill: #262626" transform="translate(24.4 169.917005) scale(0.121 -0.121)">
       <use xlink:href="#DejaVuSans-13"/>
       <use xlink:href="#DejaVuSans-11" transform="translate(63.625 0)"/>
       <use xlink:href="#DejaVuSans-18" transform="translate(95.40625 0)"/>
       <use xlink:href="#DejaVuSans-15" transform="translate(159.03125 0)"/>
       <use xlink:href="#DejaVuSans-13" transform="translate(222.65625 0)"/>
      </g>
     </g>
    </g>
    <g id="ytick_6">
     <g id="line2d_14">
      <path d="M 68.540031 108.233044 
L 626.540031 108.233044 
" clip-path="url(#pf81d215bba)" style="fill: none; stroke: #cccccc; stroke-opacity: 0.3; stroke-linecap: round"/>
     </g>
     <g id="text_15">
      <!-- 0.525 -->
      <g style="fill: #262626" transform="translate(24.4 112.829626) scale(0.121 -0.121)">
       <use xlink:href="#DejaVuSans-13"/>
       <use xlink:href="#DejaVuSans-11" transform="translate(63.625 0)"/>
       <use xlink:href="#DejaVuSans-18" transform="translate(95.40625 0)"/>
       <use xlink:href="#DejaVuSans-15" transform="translate(159.03125 0)"/>
       <use xlink:href="#DejaVuSans-18" transform="translate(222.65625 0)"/>
      </g>
     </g>
    </g>
    <g id="ytick_7">
     <g id="line2d_15">
      <path d="M 68.540031 51.145666 
L 626.540031 51.145666 
" clip-path="url(#pf81d215bba)" style="fill: none; stroke: #cccccc; stroke-opacity: 0.3; stroke-linecap: round"/>
     </g>
     <g id="text_16">
      <!-- 0.530 -->
      <g style="fill: #262626" transform="translate(24.4 55.742248) scale(0.121 -0.121)">
       <use xlink:href="#DejaVuSans-13"/>
       <use xlink:href="#DejaVuSans-11" transform="translate(63.625 0)"/>
       <use xlink:href="#DejaVuSans-18" transform="translate(95.40625 0)"/>
       <use xlink:href="#DejaVuSans-16" transform="translate(159.03125 0)"/>
       <use xlink:href="#DejaVuSans-13" transform="translate(222.65625 0)"/>
      </g>
     </g>
    </g>
    <g id="text_17">
     <!-- Score -->
     <g style="fill: #262626" transform="translate(17.228906 235.756125) rotate(-90) scale(0.132 -0.132)">
      <defs>
       <path id="DejaVuSans-36" d="M 3425 4513 
L 3425 3897 
Q 3066 4069 2747 4153 
Q 2428 4238 2131 4238 
Q 1616 4238 1336 4038 
Q 1056 3838 1056 3469 
Q 1056 3159 1242 3001 
Q 1428 2844 1947 2747 
L 2328 2669 
Q 3034 2534 3370 2195 
Q 3706 1856 3706 1288 
Q 3706 609 3251 259 
Q 2797 -91 1919 -91 
Q 1588 -91 1214 -16 
Q 841 59 441 206 
L 441 856 
Q 825 641 1194 531 
Q 1563 422 1919 422 
Q 2459 422 2753 634 
Q 3047 847 3047 1241 
Q 3047 1584 2836 1778 
Q 2625 1972 2144 2069 
L 1759 2144 
Q 1053 2284 737 2584 
Q 422 2884 422 3419 
Q 422 4038 858 4394 
Q 1294 4750 2059 4750 
Q 2388 4750 2728 4690 
Q 3069 4631 3425 4513 
z
" transform="scale(0.015625)"/>
       <path id="DejaVuSans-46" d="M 3122 3366 
L 3122 2828 
Q 2878 2963 2633 3030 
Q 2388 3097 2138 3097 
Q 1578 3097 1268 2742 
Q 959 2388 959 1747 
Q 959 1106 1268 751 
Q 1578 397 2138 397 
Q 2388 397 2633 464 
Q 2878 531 3122 666 
L 3122 134 
Q 2881 22 2623 -34 
Q 2366 -91 2075 -91 
Q 1284 -91 818 406 
Q 353 903 353 1747 
Q 353 2603 823 3093 
Q 1294 3584 2113 3584 
Q 2378 3584 2631 3529 
Q 2884 3475 3122 3366 
z
" transform="scale(0.015625)"/>
       <path id="DejaVuSans-52" d="M 1959 3097 
Q 1497 3097 1228 2736 
Q 959 2375 959 1747 
Q 959 1119 1226 758 
Q 1494 397 1959 397 
Q 2419 397 2687 759 
Q 2956 1122 2956 1747 
Q 2956 2369 2687 2733 
Q 2419 3097 1959 3097 
z
M 1959 3584 
Q 2709 3584 3137 3096 
Q 3566 2609 3566 1747 
Q 3566 888 3137 398 
Q 2709 -91 1959 -91 
Q 1206 -91 779 398 
Q 353 888 353 1747 
Q 353 2609 779 3096 
Q 1206 3584 1959 3584 
z
" transform="scale(0.015625)"/>
      </defs>
      <use xlink:href="#DejaVuSans-36"/>
      <use xlink:href="#DejaVuSans-46" transform="translate(63.484375 0)"/>
      <use xlink:href="#DejaVuSans-52" transform="translate(118.46875 0)"/>
      <use xlink:href="#DejaVuSans-55" transform="translate(179.65625 0)"/>
      <use xlink:href="#DejaVuSans-48" transform="translate(218.5625 0)"/>
     </g>
    </g>
   </g>
   <g id="line2d_16">
    <path d="M 93.903668 393.669937 
L 94.603354 391.386442 
L 95.303041 387.9612 
L 96.002727 384.535957 
L 96.702414 383.394209 
L 97.4021 382.252462 
L 109.996458 365.126248 
L 123.290501 363.984501 
L 127.488621 362.842753 
L 128.887994 352.567025 
L 132.386426 346.858287 
L 144.281097 344.574792 
L 148.479216 276.069938 
L 171.568871 253.234986 
L 195.358213 230.400035 
L 213.550063 214.415569 
L 223.345674 205.281588 
L 260.429059 181.304889 
L 293.314326 176.737899 
L 314.304922 171.029161 
L 319.202727 169.887413 
L 325.499906 166.462171 
L 335.295517 163.036928 
L 342.992069 161.89518 
L 345.790815 157.32819 
L 356.286113 149.335957 
L 382.874201 145.910714 
L 384.273574 137.918481 
L 405.264169 124.21751 
L 417.858527 119.65052 
L 429.753197 117.367025 
L 444.446614 115.08353 
L 455.641599 110.516539 
L 466.836583 104.807802 
L 474.533135 96.815569 
L 482.229686 89.965083 
L 494.124357 79.689355 
L 499.022163 73.980617 
L 509.517461 70.555374 
L 522.111818 69.413627 
L 523.511191 67.130132 
L 546.600846 65.988384 
L 547.300533 63.704889 
L 549.399592 62.563141 
L 553.597712 61.421394 
L 557.096144 60.279646 
L 557.795831 59.137899 
L 559.195204 56.854404 
L 559.89489 55.712656 
L 560.594577 54.570908 
L 571.089875 52.287413 
L 571.789561 51.145666 
L 573.888621 50.003918 
L 574.588307 48.862171 
L 585.083605 47.720423 
L 585.783291 46.578675 
L 586.482978 45.436928 
L 597.677962 44.29518 
L 598.377649 43.153433 
L 599.077335 42.011685 
L 601.176395 40.869938 
" clip-path="url(#pf81d215bba)" style="fill: none; stroke: #2563eb; stroke-width: 2; stroke-linecap: round"/>
    <defs>
     <path id="m405fe97dc2" d="M 0 2 
C 0.530406 2 1.03916 1.789267 1.414214 1.414214 
C 1.789267 1.03916 2 0.530406 2 0 
C 2 -0.530406 1.789267 -1.03916 1.414214 -1.414214 
C 1.03916 -1.789267 0.530406 -2 0 -2 
C -0.530406 -2 -1.03916 -1.789267 -1.414214 -1.414214 
C -1.789267 -1.03916 -2 -0.530406 -2 0 
C -2 0.530406 -1.789267 1.03916 -1.414214 1.414214 
C -1.03916 1.789267 -0.530406 2 0 2 
z
" style="stroke: #2563eb"/>
    </defs>
    <g clip-path="url(#pf81d215bba)">
     <use xlink:href="#m405fe97dc2" x="93.903668" y="393.669937" style="fill: #2563eb; stroke: #2563eb"/>
     <use xlink:href="#m405fe97dc2" x="94.603354" y="391.386442" style="fill: #2563eb; stroke: #2563eb"/>
     <use xlink:href="#m405fe97dc2" x="95.303041" y="387.9612" style="fill: #2563eb; stroke: #2563eb"/>
     <use xlink:href="#m405fe97dc2" x="96.002727" y="384.535957" style="fill: #2563eb; stroke: #2563eb"/>
     <use xlink:href="#m405fe97dc2" x="96.702414" y="383.394209" style="fill: #2563eb; stroke: #2563eb"/>
     <use xlink:href="#m405fe97dc2" x="97.4021" y="382.252462" style="fill: #2563eb; stroke: #2563eb"/>
     <use xlink:href="#m405fe97dc2" x="109.996458" y="365.126248" style="fill: #2563eb; stroke: #2563eb"/>
     <use xlink:href="#m405fe97dc2" x="123.290501" y="363.984501" style="fill: #2563eb; stroke: #2563eb"/>
     <use xlink:href="#m405fe97dc2" x="127.488621" y="362.842753" style="fill: #2563eb; stroke: #2563eb"/>
     <use xlink:href="#m405fe97dc2" x="128.887994" y="352.567025" style="fill: #2563eb; stroke: #2563eb"/>
     <use xlink:href="#m405fe97dc2" x="132.386426" y="346.858287" style="fill: #2563eb; stroke: #2563eb"/>
     <use xlink:href="#m405fe97dc2" x="144.281097" y="344.574792" style="fill: #2563eb; stroke: #2563eb"/>
     <use xlink:href="#m405fe97dc2" x="148.479216" y="276.069938" style="fill: #2563eb; stroke: #2563eb"/>
     <use xlink:href="#m405fe97dc2" x="171.568871" y="253.234986" style="fill: #2563eb; stroke: #2563eb"/>
     <use xlink:href="#m405fe97dc2" x="195.358213" y="230.400035" style="fill: #2563eb; stroke: #2563eb"/>
     <use xlink:href="#m405fe97dc2" x="213.550063" y="214.415569" style="fill: #2563eb; stroke: #2563eb"/>
     <use xlink:href="#m405fe97dc2" x="223.345674" y="205.281588" style="fill: #2563eb; stroke: #2563eb"/>
     <use xlink:href="#m405fe97dc2" x="260.429059" y="181.304889" style="fill: #2563eb; stroke: #2563eb"/>
     <use xlink:href="#m405fe97dc2" x="293.314326" y="176.737899" style="fill: #2563eb; stroke: #2563eb"/>
     <use xlink:href="#m405fe97dc2" x="314.304922" y="171.029161" style="fill: #2563eb; stroke: #2563eb"/>
     <use xlink:href="#m405fe97dc2" x="319.202727" y="169.887413" style="fill: #2563eb; stroke: #2563eb"/>
     <use xlink:href="#m405fe97dc2" x="325.499906" y="166.462171" style="fill: #2563eb; stroke: #2563eb"/>
     <use xlink:href="#m405fe97dc2" x="335.295517" y="163.036928" style="fill: #2563eb; stroke: #2563eb"/>
     <use xlink:href="#m405fe97dc2" x="342.992069" y="161.89518" style="fill: #2563eb; stroke: #2563eb"/>
     <use xlink:href="#m405fe97dc2" x="345.790815" y="157.32819" style="fill: #2563eb; stroke: #2563eb"/>
     <use xlink:href="#m405fe97dc2" x="356.286113" y="149.335957" style="fill: #2563eb; stroke: #2563eb"/>
     <use xlink:href="#m405fe97dc2" x="382.874201" y="145.910714" style="fill: #2563eb; stroke: #2563eb"/>
     <use xlink:href="#m405fe97dc2" x="384.273574" y="137.918481" style="fill: #2563eb; stroke: #2563eb"/>
     <use xlink:href="#m405fe97dc2" x="405.264169" y="124.21751" style="fill: #2563eb; stroke: #2563eb"/>
     <use xlink:href="#m405fe97dc2" x="417.858527" y="119.65052" style="fill: #2563eb; stroke: #2563eb"/>
     <use xlink:href="#m405fe97dc2" x="429.753197" y="117.367025" style="fill: #2563eb; stroke: #2563eb"/>
     <use xlink:href="#m405fe97dc2" x="444.446614" y="115.08353" style="fill: #2563eb; stroke: #2563eb"/>
     <use xlink:href="#m405fe97dc2" x="455.641599" y="110.516539" style="fill: #2563eb; stroke: #2563eb"/>
     <use xlink:href="#m405fe97dc2" x="466.836583" y="104.807802" style="fill: #2563eb; stroke: #2563eb"/>
     <use xlink:href="#m405fe97dc2" x="474.533135" y="96.815569" style="fill: #2563eb; stroke: #2563eb"/>
     <use xlink:href="#m405fe97dc2" x="482.229686" y="89.965083" style="fill: #2563eb; stroke: #2563eb"/>
     <use xlink:href="#m405fe97dc2" x="494.124357" y="79.689355" style="fill: #2563eb; stroke: #2563eb"/>
     <use xlink:href="#m405fe97dc2" x="499.022163" y="73.980617" style="fill: #2563eb; stroke: #2563eb"/>
     <use xlink:href="#m405fe97dc2" x="509.517461" y="70.555374" style="fill: #2563eb; stroke: #2563eb"/>
     <use xlink:href="#m405fe97dc2" x="522.111818" y="69.413627" style="fill: #2563eb; stroke: #2563eb"/>
     <use xlink:href="#m405fe97dc2" x="523.511191" y="67.130132" style="fill: #2563eb; stroke: #2563eb"/>
     <use xlink:href="#m405fe97dc2" x="546.600846" y="65.988384" style="fill: #2563eb; stroke: #2563eb"/>
     <use xlink:href="#m405fe97dc2" x="547.300533" y="63.704889" style="fill: #2563eb; stroke: #2563eb"/>
     <use xlink:href="#m405fe97dc2" x="549.399592" y="62.563141" style="fill: #2563eb; stroke: #2563eb"/>
     <use xlink:href="#m405fe97dc2" x="553.597712" y="61.421394" style="fill: #2563eb; stroke: #2563eb"/>
     <use xlink:href="#m405fe97dc2" x="557.096144" y="60.279646" style="fill: #2563eb; stroke: #2563eb"/>
     <use xlink:href="#m405fe97dc2" x="557.795831" y="59.137899" style="fill: #2563eb; stroke: #2563eb"/>
     <use xlink:href="#m405fe97dc2" x="559.195204" y="56.854404" style="fill: #2563eb; stroke: #2563eb"/>
     <use xlink:href="#m405fe97dc2" x="559.89489" y="55.712656" style="fill: #2563eb; stroke: #2563eb"/>
     <use xlink:href="#m405fe97dc2" x="560.594577" y="54.570908" style="fill: #2563eb; stroke: #2563eb"/>
     <use xlink:href="#m405fe97dc2" x="571.089875" y="52.287413" style="fill: #2563eb; stroke: #2563eb"/>
     <use xlink:href="#m405fe97dc2" x="571.789561" y="51.145666" style="fill: #2563eb; stroke: #2563eb"/>
     <use xlink:href="#m405fe97dc2" x="573.888621" y="50.003918" style="fill: #2563eb; stroke: #2563eb"/>
     <use xlink:href="#m405fe97dc2" x="574.588307" y="48.862171" style="fill: #2563eb; stroke: #2563eb"/>
     <use xlink:href="#m405fe97dc2" x="585.083605" y="47.720423" style="fill: #2563eb; stroke: #2563eb"/>
     <use xlink:href="#m405fe97dc2" x="585.783291" y="46.578675" style="fill: #2563eb; stroke: #2563eb"/>
     <use xlink:href="#m405fe97dc2" x="586.482978" y="45.436928" style="fill: #2563eb; stroke: #2563eb"/>
     <use xlink:href="#m405fe97dc2" x="597.677962" y="44.29518" style="fill: #2563eb; stroke: #2563eb"/>
     <use xlink:href="#m405fe97dc2" x="598.377649" y="43.153433" style="fill: #2563eb; stroke: #2563eb"/>
     <use xlink:href="#m405fe97dc2" x="599.077335" y="42.011685" style="fill: #2563eb; stroke: #2563eb"/>
     <use xlink:href="#m405fe97dc2" x="601.176395" y="40.869938" style="fill: #2563eb; stroke: #2563eb"/>
    </g>
   </g>
   <g id="line2d_17">
    <path d="M 93.903668 393.669937 
L 94.603354 392.52819 
L 94.603354 391.386442 
L 95.303041 390.244695 
L 95.303041 389.102947 
L 96.002727 386.819452 
L 97.4021 385.677704 
L 98.801473 383.394209 
L 101.600219 378.827219 
L 101.600219 377.685471 
L 103.699279 375.401976 
L 104.398965 374.260229 
L 107.197712 373.118481 
L 107.897398 370.834986 
L 109.296771 369.693238 
L 109.996458 368.551491 
L 112.795204 363.984501 
L 116.993323 362.842753 
L 120.491755 361.701005 
L 120.491755 360.559258 
L 121.191442 358.275763 
L 122.590815 357.134015 
L 122.590815 355.992268 
L 126.788934 353.708772 
L 130.287367 351.425277 
L 130.987053 345.716539 
L 138.683605 343.433044 
L 140.082978 342.291297 
L 140.782664 338.866054 
L 142.182038 337.724306 
L 149.878589 332.015569 
L 156.175768 330.873821 
L 157.575141 327.448578 
L 158.274827 321.73984 
L 160.373887 318.314598 
L 161.77326 317.17285 
L 170.869185 316.031103 
L 172.968244 312.60586 
L 176.466677 311.464112 
L 180.664796 309.180617 
L 184.862915 304.613627 
L 187.661661 301.188384 
L 189.061034 298.904889 
L 201.655392 292.054404 
L 201.655392 290.912656 
L 207.95257 289.770908 
L 210.05163 287.487413 
L 211.451003 282.920423 
L 212.15069 280.636928 
L 212.850376 279.49518 
L 213.550063 278.353433 
L 220.546928 277.211685 
L 221.246614 276.069938 
L 231.042226 274.92819 
L 231.042226 273.786442 
L 231.042226 272.644695 
L 233.840972 271.502947 
L 243.636583 268.077704 
L 245.035956 266.935957 
L 257.630313 264.652462 
L 259.029686 263.510714 
L 263.227806 262.368967 
L 266.026552 261.227219 
L 353.487367 260.085471 
L 355.586426 258.943724 
L 359.084859 257.801976 
L 374.477962 256.660229 
" clip-path="url(#pf81d215bba)" style="fill: none; stroke: #dc2626; stroke-width: 2; stroke-linecap: round"/>
    <defs>
     <path id="m464c55db29" d="M 0 2 
C 0.530406 2 1.03916 1.789267 1.414214 1.414214 
C 1.789267 1.03916 2 0.530406 2 0 
C 2 -0.530406 1.789267 -1.03916 1.414214 -1.414214 
C 1.03916 -1.789267 0.530406 -2 0 -2 
C -0.530406 -2 -1.03916 -1.789267 -1.414214 -1.414214 
C -1.789267 -1.03916 -2 -0.530406 -2 0 
C -2 0.530406 -1.789267 1.03916 -1.414214 1.414214 
C -1.03916 1.789267 -0.530406 2 0 2 
z
" style="stroke: #dc2626"/>
    </defs>
    <g clip-path="url(#pf81d215bba)">
     <use xlink:href="#m464c55db29" x="93.903668" y="393.669937" style="fill: #dc2626; stroke: #dc2626"/>
     <use xlink:href="#m464c55db29" x="94.603354" y="392.52819" style="fill: #dc2626; stroke: #dc2626"/>
     <use xlink:href="#m464c55db29" x="94.603354" y="391.386442" style="fill: #dc2626; stroke: #dc2626"/>
     <use xlink:href="#m464c55db29" x="95.303041" y="390.244695" style="fill: #dc2626; stroke: #dc2626"/>
     <use xlink:href="#m464c55db29" x="95.303041" y="389.102947" style="fill: #dc2626; stroke: #dc2626"/>
     <use xlink:href="#m464c55db29" x="96.002727" y="386.819452" style="fill: #dc2626; stroke: #dc2626"/>
     <use xlink:href="#m464c55db29" x="97.4021" y="385.677704" style="fill: #dc2626; stroke: #dc2626"/>
     <use xlink:href="#m464c55db29" x="98.801473" y="383.394209" style="fill: #dc2626; stroke: #dc2626"/>
     <use xlink:href="#m464c55db29" x="101.600219" y="378.827219" style="fill: #dc2626; stroke: #dc2626"/>
     <use xlink:href="#m464c55db29" x="101.600219" y="377.685471" style="fill: #dc2626; stroke: #dc2626"/>
     <use xlink:href="#m464c55db29" x="103.699279" y="375.401976" style="fill: #dc2626; stroke: #dc2626"/>
     <use xlink:href="#m464c55db29" x="104.398965" y="374.260229" style="fill: #dc2626; stroke: #dc2626"/>
     <use xlink:href="#m464c55db29" x="107.197712" y="373.118481" style="fill: #dc2626; stroke: #dc2626"/>
     <use xlink:href="#m464c55db29" x="107.897398" y="370.834986" style="fill: #dc2626; stroke: #dc2626"/>
     <use xlink:href="#m464c55db29" x="109.296771" y="369.693238" style="fill: #dc2626; stroke: #dc2626"/>
     <use xlink:href="#m464c55db29" x="109.996458" y="368.551491" style="fill: #dc2626; stroke: #dc2626"/>
     <use xlink:href="#m464c55db29" x="112.795204" y="363.984501" style="fill: #dc2626; stroke: #dc2626"/>
     <use xlink:href="#m464c55db29" x="116.993323" y="362.842753" style="fill: #dc2626; stroke: #dc2626"/>
     <use xlink:href="#m464c55db29" x="120.491755" y="361.701005" style="fill: #dc2626; stroke: #dc2626"/>
     <use xlink:href="#m464c55db29" x="120.491755" y="360.559258" style="fill: #dc2626; stroke: #dc2626"/>
     <use xlink:href="#m464c55db29" x="121.191442" y="358.275763" style="fill: #dc2626; stroke: #dc2626"/>
     <use xlink:href="#m464c55db29" x="122.590815" y="357.134015" style="fill: #dc2626; stroke: #dc2626"/>
     <use xlink:href="#m464c55db29" x="122.590815" y="355.992268" style="fill: #dc2626; stroke: #dc2626"/>
     <use xlink:href="#m464c55db29" x="126.788934" y="353.708772" style="fill: #dc2626; stroke: #dc2626"/>
     <use xlink:href="#m464c55db29" x="130.287367" y="351.425277" style="fill: #dc2626; stroke: #dc2626"/>
     <use xlink:href="#m464c55db29" x="130.987053" y="345.716539" style="fill: #dc2626; stroke: #dc2626"/>
     <use xlink:href="#m464c55db29" x="138.683605" y="343.433044" style="fill: #dc2626; stroke: #dc2626"/>
     <use xlink:href="#m464c55db29" x="140.082978" y="342.291297" style="fill: #dc2626; stroke: #dc2626"/>
     <use xlink:href="#m464c55db29" x="140.782664" y="338.866054" style="fill: #dc2626; stroke: #dc2626"/>
     <use xlink:href="#m464c55db29" x="142.182038" y="337.724306" style="fill: #dc2626; stroke: #dc2626"/>
     <use xlink:href="#m464c55db29" x="149.878589" y="332.015569" style="fill: #dc2626; stroke: #dc2626"/>
     <use xlink:href="#m464c55db29" x="156.175768" y="330.873821" style="fill: #dc2626; stroke: #dc2626"/>
     <use xlink:href="#m464c55db29" x="157.575141" y="327.448578" style="fill: #dc2626; stroke: #dc2626"/>
     <use xlink:href="#m464c55db29" x="158.274827" y="321.73984" style="fill: #dc2626; stroke: #dc2626"/>
     <use xlink:href="#m464c55db29" x="160.373887" y="318.314598" style="fill: #dc2626; stroke: #dc2626"/>
     <use xlink:href="#m464c55db29" x="161.77326" y="317.17285" style="fill: #dc2626; stroke: #dc2626"/>
     <use xlink:href="#m464c55db29" x="170.869185" y="316.031103" style="fill: #dc2626; stroke: #dc2626"/>
     <use xlink:href="#m464c55db29" x="172.968244" y="312.60586" style="fill: #dc2626; stroke: #dc2626"/>
     <use xlink:href="#m464c55db29" x="176.466677" y="311.464112" style="fill: #dc2626; stroke: #dc2626"/>
     <use xlink:href="#m464c55db29" x="180.664796" y="309.180617" style="fill: #dc2626; stroke: #dc2626"/>
     <use xlink:href="#m464c55db29" x="184.862915" y="304.613627" style="fill: #dc2626; stroke: #dc2626"/>
     <use xlink:href="#m464c55db29" x="187.661661" y="301.188384" style="fill: #dc2626; stroke: #dc2626"/>
     <use xlink:href="#m464c55db29" x="189.061034" y="298.904889" style="fill: #dc2626; stroke: #dc2626"/>
     <use xlink:href="#m464c55db29" x="201.655392" y="292.054404" style="fill: #dc2626; stroke: #dc2626"/>
     <use xlink:href="#m464c55db29" x="201.655392" y="290.912656" style="fill: #dc2626; stroke: #dc2626"/>
     <use xlink:href="#m464c55db29" x="207.95257" y="289.770908" style="fill: #dc2626; stroke: #dc2626"/>
     <use xlink:href="#m464c55db29" x="210.05163" y="287.487413" style="fill: #dc2626; stroke: #dc2626"/>
     <use xlink:href="#m464c55db29" x="211.451003" y="282.920423" style="fill: #dc2626; stroke: #dc2626"/>
     <use xlink:href="#m464c55db29" x="212.15069" y="280.636928" style="fill: #dc2626; stroke: #dc2626"/>
     <use xlink:href="#m464c55db29" x="212.850376" y="279.49518" style="fill: #dc2626; stroke: #dc2626"/>
     <use xlink:href="#m464c55db29" x="213.550063" y="278.353433" style="fill: #dc2626; stroke: #dc2626"/>
     <use xlink:href="#m464c55db29" x="220.546928" y="277.211685" style="fill: #dc2626; stroke: #dc2626"/>
     <use xlink:href="#m464c55db29" x="221.246614" y="276.069938" style="fill: #dc2626; stroke: #dc2626"/>
     <use xlink:href="#m464c55db29" x="231.042226" y="274.92819" style="fill: #dc2626; stroke: #dc2626"/>
     <use xlink:href="#m464c55db29" x="231.042226" y="273.786442" style="fill: #dc2626; stroke: #dc2626"/>
     <use xlink:href="#m464c55db29" x="231.042226" y="272.644695" style="fill: #dc2626; stroke: #dc2626"/>
     <use xlink:href="#m464c55db29" x="233.840972" y="271.502947" style="fill: #dc2626; stroke: #dc2626"/>
     <use xlink:href="#m464c55db29" x="243.636583" y="268.077704" style="fill: #dc2626; stroke: #dc2626"/>
     <use xlink:href="#m464c55db29" x="245.035956" y="266.935957" style="fill: #dc2626; stroke: #dc2626"/>
     <use xlink:href="#m464c55db29" x="257.630313" y="264.652462" style="fill: #dc2626; stroke: #dc2626"/>
     <use xlink:href="#m464c55db29" x="259.029686" y="263.510714" style="fill: #dc2626; stroke: #dc2626"/>
     <use xlink:href="#m464c55db29" x="263.227806" y="262.368967" style="fill: #dc2626; stroke: #dc2626"/>
     <use xlink:href="#m464c55db29" x="266.026552" y="261.227219" style="fill: #dc2626; stroke: #dc2626"/>
     <use xlink:href="#m464c55db29" x="353.487367" y="260.085471" style="fill: #dc2626; stroke: #dc2626"/>
     <use xlink:href="#m464c55db29" x="355.586426" y="258.943724" style="fill: #dc2626; stroke: #dc2626"/>
     <use xlink:href="#m464c55db29" x="359.084859" y="257.801976" style="fill: #dc2626; stroke: #dc2626"/>
     <use xlink:href="#m464c55db29" x="374.477962" y="256.660229" style="fill: #dc2626; stroke: #dc2626"/>
    </g>
   </g>
   <g id="patch_3">
    <path d="M 68.540031 411.309938 
L 68.540031 23.229938 
" style="fill: none; stroke: #cccccc; stroke-width: 1.25; stroke-linejoin: miter; stroke-linecap: square"/>
   </g>
   <g id="patch_4">
    <path d="M 626.540031 411.309938 
L 626.540031 23.229938 
" style="fill: none; stroke: #cccccc; stroke-width: 1.25; stroke-linejoin: miter; stroke-linecap: square"/>
   </g>
   <g id="patch_5">
    <path d="M 68.540031 411.309937 
L 626.540031 411.309937 
" style="fill: none; stroke: #cccccc; stroke-width: 1.25; stroke-linejoin: miter; stroke-linecap: square"/>
   </g>
   <g id="patch_6">
    <path d="M 68.540031 23.229938 
L 626.540031 23.229938 
" style="fill: none; stroke: #cccccc; stroke-width: 1.25; stroke-linejoin: miter; stroke-linecap: square"/>
   </g>
   <g id="text_18">
    <!-- Pareto Frontiers: Score vs Overhead — CN -->
    <g style="fill: #262626" transform="translate(208.794625 17.229938) scale(0.132 -0.132)">
     <defs>
      <path id="DejaVuSans-33" d="M 1259 4147 
L 1259 2394 
L 2053 2394 
Q 2494 2394 2734 2622 
Q 2975 2850 2975 3272 
Q 2975 3691 2734 3919 
Q 2494 4147 2053 4147 
L 1259 4147 
z
M 628 4666 
L 2053 4666 
Q 2838 4666 3239 4311 
Q 3641 3956 3641 3272 
Q 3641 2581 3239 2228 
Q 2838 1875 2053 1875 
L 1259 1875 
L 1259 0 
L 628 0 
L 628 4666 
z
" transform="scale(0.015625)"/>
      <path id="DejaVuSans-57" d="M 1172 4494 
L 1172 3500 
L 2356 3500 
L 2356 3053 
L 1172 3053 
L 1172 1153 
Q 1172 725 1289 603 
Q 1406 481 1766 481 
L 2356 481 
L 2356 0 
L 1766 0 
Q 1100 0 847 248 
Q 594 497 594 1153 
L 594 3053 
L 172 3053 
L 172 3500 
L 594 3500 
L 594 4494 
L 1172 4494 
z
" transform="scale(0.015625)"/>
      <path id="DejaVuSans-29" d="M 628 4666 
L 3309 4666 
L 3309 4134 
L 1259 4134 
L 1259 2759 
L 3109 2759 
L 3109 2228 
L 1259 2228 
L 1259 0 
L 628 0 
L 628 4666 
z
" transform="scale(0.015625)"/>
      <path id="DejaVuSans-51" d="M 3513 2113 
L 3513 0 
L 2938 0 
L 2938 2094 
Q 2938 2591 2744 2837 
Q 2550 3084 2163 3084 
Q 1697 3084 1428 2787 
Q 1159 2491 1159 1978 
L 1159 0 
L 581 0 
L 581 3500 
L 1159 3500 
L 1159 2956 
Q 1366 3272 1645 3428 
Q 1925 3584 2291 3584 
Q 2894 3584 3203 3211 
Q 3513 2838 3513 2113 
z
" transform="scale(0.015625)"/>
      <path id="DejaVuSans-56" d="M 2834 3397 
L 2834 2853 
Q 2591 2978 2328 3040 
Q 2066 3103 1784 3103 
Q 1356 3103 1142 2972 
Q 928 2841 928 2578 
Q 928 2378 1081 2264 
Q 1234 2150 1697 2047 
L 1894 2003 
Q 2506 1872 2764 1633 
Q 3022 1394 3022 966 
Q 3022 478 2636 193 
Q 2250 -91 1575 -91 
Q 1294 -91 989 -36 
Q 684 19 347 128 
L 347 722 
Q 666 556 975 473 
Q 1284 391 1588 391 
Q 1994 391 2212 530 
Q 2431 669 2431 922 
Q 2431 1156 2273 1281 
Q 2116 1406 1581 1522 
L 1381 1569 
Q 847 1681 609 1914 
Q 372 2147 372 2553 
Q 372 3047 722 3315 
Q 1072 3584 1716 3584 
Q 2034 3584 2315 3537 
Q 2597 3491 2834 3397 
z
" transform="scale(0.015625)"/>
      <path id="DejaVuSans-1d" d="M 750 794 
L 1409 794 
L 1409 0 
L 750 0 
L 750 794 
z
M 750 3309 
L 1409 3309 
L 1409 2516 
L 750 2516 
L 750 3309 
z
" transform="scale(0.015625)"/>
      <path id="DejaVuSans-af6" d="M 313 1978 
L 6088 1978 
L 6088 1528 
L 313 1528 
L 313 1978 
z
" transform="scale(0.015625)"/>
      <path id="DejaVuSans-26" d="M 4122 4306 
L 4122 3641 
Q 3803 3938 3442 4084 
Q 3081 4231 2675 4231 
Q 1875 4231 1450 3742 
Q 1025 3253 1025 2328 
Q 1025 1406 1450 917 
Q 1875 428 2675 428 
Q 3081 428 3442 575 
Q 3803 722 4122 1019 
L 4122 359 
Q 3791 134 3420 21 
Q 3050 -91 2638 -91 
Q 1578 -91 968 557 
Q 359 1206 359 2328 
Q 359 3453 968 4101 
Q 1578 4750 2638 4750 
Q 3056 4750 3426 4639 
Q 3797 4528 4122 4306 
z
" transform="scale(0.015625)"/>
      <path id="DejaVuSans-31" d="M 628 4666 
L 1478 4666 
L 3547 763 
L 3547 4666 
L 4159 4666 
L 4159 0 
L 3309 0 
L 1241 3903 
L 1241 0 
L 628 0 
L 628 4666 
z
" transform="scale(0.015625)"/>
     </defs>
     <use xlink:href="#DejaVuSans-33"/>
     <use xlink:href="#DejaVuSans-44" transform="translate(55.8125 0)"/>
     <use xlink:href="#DejaVuSans-55" transform="translate(117.09375 0)"/>
     <use xlink:href="#DejaVuSans-48" transform="translate(156 0)"/>
     <use xlink:href="#DejaVuSans-57" transform="translate(217.53125 0)"/>
     <use xlink:href="#DejaVuSans-52" transform="translate(256.734375 0)"/>
     <use xlink:href="#DejaVuSans-3" transform="translate(317.921875 0)"/>
     <use xlink:href="#DejaVuSans-29" transform="translate(349.703125 0)"/>
     <use xlink:href="#DejaVuSans-55" transform="translate(399.9375 0)"/>
     <use xlink:href="#DejaVuSans-52" transform="translate(438.84375 0)"/>
     <use xlink:href="#DejaVuSans-51" transform="translate(500.03125 0)"/>
     <use xlink:href="#DejaVuSans-57" transform="translate(563.40625 0)"/>
     <use xlink:href="#DejaVuSans-4c" transform="translate(602.609375 0)"/>
     <use xlink:href="#DejaVuSans-48" transform="translate(630.390625 0)"/>
     <use xlink:href="#DejaVuSans-55" transform="translate(691.921875 0)"/>
     <use xlink:href="#DejaVuSans-56" transform="translate(733.03125 0)"/>
     <use xlink:href="#DejaVuSans-1d" transform="translate(785.125 0)"/>
     <use xlink:href="#DejaVuSans-3" transform="translate(818.8125 0)"/>
     <use xlink:href="#DejaVuSans-36" transform="translate(850.59375 0)"/>
     <use xlink:href="#DejaVuSans-46" transform="translate(914.078125 0)"/>
     <use xlink:href="#DejaVuSans-52" transform="translate(969.0625 0)"/>
     <use xlink:href="#DejaVuSans-55" transform="translate(1030.25 0)"/>
     <use xlink:href="#DejaVuSans-48" transform="translate(1069.15625 0)"/>
     <use xlink:href="#DejaVuSans-3" transform="translate(1130.6875 0)"/>
     <use xlink:href="#DejaVuSans-59" transform="translate(1162.46875 0)"/>
     <use xlink:href="#DejaVuSans-56" transform="translate(1221.65625 0)"/>
     <use xlink:href="#DejaVuSans-3" transform="translate(1273.75 0)"/>
     <use xlink:href="#DejaVuSans-32" transform="translate(1305.53125 0)"/>
     <use xlink:href="#DejaVuSans-59" transform="translate(1384.25 0)"/>
     <use xlink:href="#DejaVuSans-48" transform="translate(1443.4375 0)"/>
     <use xlink:href="#DejaVuSans-55" transform="translate(1504.96875 0)"/>
     <use xlink:href="#DejaVuSans-4b" transform="translate(1544.328125 0)"/>
     <use xlink:href="#DejaVuSans-48" transform="translate(1607.703125 0)"/>
     <use xlink:href="#DejaVuSans-44" transform="translate(1669.234375 0)"/>
     <use xlink:href="#DejaVuSans-47" transform="translate(1730.515625 0)"/>
     <use xlink:href="#DejaVuSans-3" transform="translate(1794 0)"/>
     <use xlink:href="#DejaVuSans-af6" transform="translate(1825.78125 0)"/>
     <use xlink:href="#DejaVuSans-3" transform="translate(1925.78125 0)"/>
     <use xlink:href="#DejaVuSans-26" transform="translate(1957.5625 0)"/>
     <use xlink:href="#DejaVuSans-31" transform="translate(2027.390625 0)"/>
    </g>
   </g>
   <g id="legend_1">
    <g id="patch_7">
     <path d="M 473.000031 406.809937 
L 620.240031 406.809937 
Q 622.040031 406.809937 622.040031 405.009937 
L 622.040031 351.907125 
Q 622.040031 350.107125 620.240031 350.107125 
L 473.000031 350.107125 
Q 471.200031 350.107125 471.200031 351.907125 
L 471.200031 405.009937 
Q 471.200031 406.809937 473.000031 406.809937 
z
" style="fill: #ffffff; opacity: 0.8; stroke: #cccccc; stroke-linejoin: miter"/>
    </g>
    <g id="line2d_18">
     <path d="M 474.800031 357.395719 
L 483.800031 357.395719 
L 492.800031 357.395719 
" style="fill: none; stroke: #2563eb; stroke-width: 2; stroke-linecap: round"/>
     <g>
      <use xlink:href="#m405fe97dc2" x="483.800031" y="357.395719" style="fill: #2563eb; stroke: #2563eb"/>
     </g>
    </g>
    <g id="text_19">
     <!-- DeepSeek V3 frontier -->
     <g style="fill: #262626" transform="translate(500.000031 360.545719) scale(0.09 -0.09)">
      <defs>
       <path id="DejaVuSans-27" d="M 1259 4147 
L 1259 519 
L 2022 519 
Q 2988 519 3436 956 
Q 3884 1394 3884 2338 
Q 3884 3275 3436 3711 
Q 2988 4147 2022 4147 
L 1259 4147 
z
M 628 4666 
L 1925 4666 
Q 3281 4666 3915 4102 
Q 4550 3538 4550 2338 
Q 4550 1131 3912 565 
Q 3275 0 1925 0 
L 628 0 
L 628 4666 
z
" transform="scale(0.015625)"/>
       <path id="DejaVuSans-53" d="M 1159 525 
L 1159 -1331 
L 581 -1331 
L 581 3500 
L 1159 3500 
L 1159 2969 
Q 1341 3281 1617 3432 
Q 1894 3584 2278 3584 
Q 2916 3584 3314 3078 
Q 3713 2572 3713 1747 
Q 3713 922 3314 415 
Q 2916 -91 2278 -91 
Q 1894 -91 1617 61 
Q 1341 213 1159 525 
z
M 3116 1747 
Q 3116 2381 2855 2742 
Q 2594 3103 2138 3103 
Q 1681 3103 1420 2742 
Q 1159 2381 1159 1747 
Q 1159 1113 1420 752 
Q 1681 391 2138 391 
Q 2594 391 2855 752 
Q 3116 1113 3116 1747 
z
" transform="scale(0.015625)"/>
       <path id="DejaVuSans-4e" d="M 581 4863 
L 1159 4863 
L 1159 1991 
L 2875 3500 
L 3609 3500 
L 1753 1863 
L 3688 0 
L 2938 0 
L 1159 1709 
L 1159 0 
L 581 0 
L 581 4863 
z
" transform="scale(0.015625)"/>
       <path id="DejaVuSans-39" d="M 1831 0 
L 50 4666 
L 709 4666 
L 2188 738 
L 3669 4666 
L 4325 4666 
L 2547 0 
L 1831 0 
z
" transform="scale(0.015625)"/>
       <path id="DejaVuSans-49" d="M 2375 4863 
L 2375 4384 
L 1825 4384 
Q 1516 4384 1395 4259 
Q 1275 4134 1275 3809 
L 1275 3500 
L 2222 3500 
L 2222 3053 
L 1275 3053 
L 1275 0 
L 697 0 
L 697 3053 
L 147 3053 
L 147 3500 
L 697 3500 
L 697 3744 
Q 697 4328 969 4595 
Q 1241 4863 1831 4863 
L 2375 4863 
z
" transform="scale(0.015625)"/>
      </defs>
      <use xlink:href="#DejaVuSans-27"/>
      <use xlink:href="#DejaVuSans-48" transform="translate(77 0)"/>
      <use xlink:href="#DejaVuSans-48" transform="translate(138.53125 0)"/>
      <use xlink:href="#DejaVuSans-53" transform="translate(200.0625 0)"/>
      <use xlink:href="#DejaVuSans-36" transform="translate(263.546875 0)"/>
      <use xlink:href="#DejaVuSans-48" transform="translate(327.03125 0)"/>
      <use xlink:href="#DejaVuSans-48" transform="translate(388.5625 0)"/>
      <use xlink:href="#DejaVuSans-4e" transform="translate(450.09375 0)"/>
      <use xlink:href="#DejaVuSans-3" transform="translate(508 0)"/>
      <use xlink:href="#DejaVuSans-39" transform="translate(539.78125 0)"/>
      <use xlink:href="#DejaVuSans-16" transform="translate(608.1875 0)"/>
      <use xlink:href="#DejaVuSans-3" transform="translate(671.8125 0)"/>
      <use xlink:href="#DejaVuSans-49" transform="translate(703.59375 0)"/>
      <use xlink:href="#DejaVuSans-55" transform="translate(738.796875 0)"/>
      <use xlink:href="#DejaVuSans-52" transform="translate(777.703125 0)"/>
      <use xlink:href="#DejaVuSans-51" transform="translate(838.890625 0)"/>
      <use xlink:href="#DejaVuSans-57" transform="translate(902.265625 0)"/>
      <use xlink:href="#DejaVuSans-4c" transform="translate(941.46875 0)"/>
      <use xlink:href="#DejaVuSans-48" transform="translate(969.25 0)"/>
      <use xlink:href="#DejaVuSans-55" transform="translate(1030.78125 0)"/>
     </g>
    </g>
    <g id="PathCollection_1">
     <defs>
      <path id="m5bf5eb1331" d="M 0 -7.071068 
L -1.587554 -2.18508 
L -6.724985 -2.18508 
L -2.568716 0.834626 
L -4.156269 5.720614 
L -0 2.700907 
L 4.156269 5.720614 
L 2.568716 0.834626 
L 6.724985 -2.18508 
L 1.587554 -2.18508 
z
" style="stroke: #000000"/>
     </defs>
     <g>
      <use xlink:href="#m5bf5eb1331" x="483.800031" y="371.683922" style="fill: #ff0000; stroke: #000000"/>
     </g>
    </g>
    <g id="text_20">
     <!-- DeepSeek V3 best (0.531) -->
     <g style="fill: #262626" transform="translate(500.000031 374.046422) scale(0.09 -0.09)">
      <defs>
       <path id="DejaVuSans-45" d="M 3116 1747 
Q 3116 2381 2855 2742 
Q 2594 3103 2138 3103 
Q 1681 3103 1420 2742 
Q 1159 2381 1159 1747 
Q 1159 1113 1420 752 
Q 1681 391 2138 391 
Q 2594 391 2855 752 
Q 3116 1113 3116 1747 
z
M 1159 2969 
Q 1341 3281 1617 3432 
Q 1894 3584 2278 3584 
Q 2916 3584 3314 3078 
Q 3713 2572 3713 1747 
Q 3713 922 3314 415 
Q 2916 -91 2278 -91 
Q 1894 -91 1617 61 
Q 1341 213 1159 525 
L 1159 0 
L 581 0 
L 581 4863 
L 1159 4863 
L 1159 2969 
z
" transform="scale(0.015625)"/>
      </defs>
      <use xlink:href="#DejaVuSans-27"/>
      <use xlink:href="#DejaVuSans-48" transform="translate(77 0)"/>
      <use xlink:href="#DejaVuSans-48" transform="translate(138.53125 0)"/>
      <use xlink:href="#DejaVuSans-53" transform="translate(200.0625 0)"/>
      <use xlink:href="#DejaVuSans-36" transform="translate(263.546875 0)"/>
      <use xlink:href="#DejaVuSans-48" transform="translate(327.03125 0)"/>
      <use xlink:href="#DejaVuSans-48" transform="translate(388.5625 0)"/>
      <use xlink:href="#DejaVuSans-4e" transform="translate(450.09375 0)"/>
      <use xlink:href="#DejaVuSans-3" transform="translate(508 0)"/>
      <use xlink:href="#DejaVuSans-39" transform="translate(539.78125 0)"/>
      <use xlink:href="#DejaVuSans-16" transform="translate(608.1875 0)"/>
      <use xlink:href="#DejaVuSans-3" transform="translate(671.8125 0)"/>
      <use xlink:href="#DejaVuSans-45" transform="translate(703.59375 0)"/>
      <use xlink:href="#DejaVuSans-48" transform="translate(767.078125 0)"/>
      <use xlink:href="#DejaVuSans-56" transform="translate(828.609375 0)"/>
      <use xlink:href="#DejaVuSans-57" transform="translate(880.703125 0)"/>
      <use xlink:href="#DejaVuSans-3" transform="translate(919.90625 0)"/>
      <use xlink:href="#DejaVuSans-b" transform="translate(951.6875 0)"/>
      <use xlink:href="#DejaVuSans-13" transform="translate(990.703125 0)"/>
      <use xlink:href="#DejaVuSans-11" transform="translate(1054.328125 0)"/>
      <use xlink:href="#DejaVuSans-18" transform="translate(1086.109375 0)"/>
      <use xlink:href="#DejaVuSans-16" transform="translate(1149.734375 0)"/>
      <use xlink:href="#DejaVuSans-14" transform="translate(1213.359375 0)"/>
      <use xlink:href="#DejaVuSans-c" transform="translate(1276.984375 0)"/>
     </g>
    </g>
    <g id="line2d_19">
     <path d="M 474.800031 384.397125 
L 483.800031 384.397125 
L 492.800031 384.397125 
" style="fill: none; stroke: #dc2626; stroke-width: 2; stroke-linecap: round"/>
     <g>
      <use xlink:href="#m464c55db29" x="483.800031" y="384.397125" style="fill: #dc2626; stroke: #dc2626"/>
     </g>
    </g>
    <g id="text_21">
     <!-- Kimi K2 frontier -->
     <g style="fill: #262626" transform="translate(500.000031 387.547125) scale(0.09 -0.09)">
      <defs>
       <path id="DejaVuSans-2e" d="M 628 4666 
L 1259 4666 
L 1259 2694 
L 3353 4666 
L 4166 4666 
L 1850 2491 
L 4331 0 
L 3500 0 
L 1259 2247 
L 1259 0 
L 628 0 
L 628 4666 
z
" transform="scale(0.015625)"/>
      </defs>
      <use xlink:href="#DejaVuSans-2e"/>
      <use xlink:href="#DejaVuSans-4c" transform="translate(65.578125 0)"/>
      <use xlink:href="#DejaVuSans-50" transform="translate(93.359375 0)"/>
      <use xlink:href="#DejaVuSans-4c" transform="translate(190.765625 0)"/>
      <use xlink:href="#DejaVuSans-3" transform="translate(218.546875 0)"/>
      <use xlink:href="#DejaVuSans-2e" transform="translate(250.328125 0)"/>
      <use xlink:href="#DejaVuSans-15" transform="translate(315.90625 0)"/>
      <use xlink:href="#DejaVuSans-3" transform="translate(379.53125 0)"/>
      <use xlink:href="#DejaVuSans-49" transform="translate(411.3125 0)"/>
      <use xlink:href="#DejaVuSans-55" transform="translate(446.515625 0)"/>
      <use xlink:href="#DejaVuSans-52" transform="translate(485.421875 0)"/>
      <use xlink:href="#DejaVuSans-51" transform="translate(546.609375 0)"/>
      <use xlink:href="#DejaVuSans-57" transform="translate(609.984375 0)"/>
      <use xlink:href="#DejaVuSans-4c" transform="translate(649.1875 0)"/>
      <use xlink:href="#DejaVuSans-48" transform="translate(676.96875 0)"/>
      <use xlink:href="#DejaVuSans-55" transform="translate(738.5 0)"/>
     </g>
    </g>
    <g id="PathCollection_2">
     <g>
      <use xlink:href="#m5bf5eb1331" x="483.800031" y="398.685328" style="fill: #ff0000; stroke: #000000"/>
     </g>
    </g>
    <g id="text_22">
     <!-- Kimi K2 best (0.512) -->
     <g style="fill: #262626" transform="translate(500.000031 401.047828) scale(0.09 -0.09)">
      <use xlink:href="#DejaVuSans-2e"/>
      <use xlink:href="#DejaVuSans-4c" transform="translate(65.578125 0)"/>
      <use xlink:href="#DejaVuSans-50" transform="translate(93.359375 0)"/>
      <use xlink:href="#DejaVuSans-4c" transform="translate(190.765625 0)"/>
      <use xlink:href="#DejaVuSans-3" transform="translate(218.546875 0)"/>
      <use xlink:href="#DejaVuSans-2e" transform="translate(250.328125 0)"/>
      <use xlink:href="#DejaVuSans-15" transform="translate(315.90625 0)"/>
      <use xlink:href="#DejaVuSans-3" transform="translate(379.53125 0)"/>
      <use xlink:href="#DejaVuSans-45" transform="translate(411.3125 0)"/>
      <use xlink:href="#DejaVuSans-48" transform="translate(474.796875 0)"/>
      <use xlink:href="#DejaVuSans-56" transform="translate(536.328125 0)"/>
      <use xlink:href="#DejaVuSans-57" transform="translate(588.421875 0)"/>
      <use xlink:href="#DejaVuSans-3" transform="translate(627.625 0)"/>
      <use xlink:href="#DejaVuSans-b" transform="translate(659.40625 0)"/>
      <use xlink:href="#DejaVuSans-13" transform="translate(698.421875 0)"/>
      <use xlink:href="#DejaVuSans-11" transform="translate(762.046875 0)"/>
      <use xlink:href="#DejaVuSans-18" transform="translate(793.828125 0)"/>
      <use xlink:href="#DejaVuSans-14" transform="translate(857.453125 0)"/>
      <use xlink:href="#DejaVuSans-15" transform="translate(921.078125 0)"/>
      <use xlink:href="#DejaVuSans-c" transform="translate(984.703125 0)"/>
     </g>
    </g>
   </g>
   <g id="PathCollection_3">
    <g clip-path="url(#pf81d215bba)">
     <use xlink:href="#m5bf5eb1331" x="601.176395" y="40.869938" style="fill: #ff0000; stroke: #000000"/>
    </g>
   </g>
   <g id="PathCollection_4">
    <g clip-path="url(#pf81d215bba)">
     <use xlink:href="#m5bf5eb1331" x="374.477962" y="256.660229" style="fill: #ff0000; stroke: #000000"/>
    </g>
   </g>
  </g>
 </g>
 <defs>
  <clipPath id="pf81d215bba">
   <rect x="68.540031" y="23.229938" width="558" height="388.08"/>
  </clipPath>
 </defs>
</svg>
