<?xml version="1.0" encoding="utf-8" standalone="no"?>
<!DOCTYPE svg PUBLIC "-//W3C//DTD SVG 1.1//EN"
  "http://www.w3.org/Graphics/SVG/1.1/DTD/svg11.dtd">
<svg xmlns:xlink="http://www.w3.org/1999/xlink" width="651.136406pt" height="470.158594pt" viewBox="0 0 651.136406 470.158594" xmlns="http://www.w3.org/2000/svg" version="1.1">
 <metadata>
  <rdf:RDF xmlns:dc="http://purl.org/dc/elements/1.1/" xmlns:cc="http://creativecommons.org/ns#" xmlns:rdf="http://www.w3.org/1999/02/22-rdf-syntax-ns#">
   <cc:Work>
    <dc:type rdf:resource="http://purl.org/dc/dcmitype/StillImage"/>
    <dc:date>2026-07-22T17:12:45.367376</dc:date>
    <dc:format>image/svg+xml</dc:format>
    <dc:creator>
     <cc:Agent>
      <dc:title>Matplotlib v3.11.0, https://matplotlib.org/</dc:title>
     </cc:Agent>
    </dc:creator>
   </cc:Work>
  </rdf:RDF>
 </metadata>
 <defs>
  <style type="text/css">*{stroke-linejoin: round; stroke-linecap: butt}</style>
 </defs>
 <g id="figure_1">
  <g id="patch_1">
   <path d="M 0 470.158594 
L 651.136406 470.158594 
L 651.136406 0 
L 0 0 
z
" style="fill: #ffffff"/>
  </g>
  <g id="axes_1">
   <g id="patch_2">
    <path d="M 85.936406 414.957187 
L 643.936406 414.957187 
L 643.936406 26.877187 
L 85.936406 26.877187 
z
" style="fill: #ffffff"/>
   </g>
   <g id="matplotlib.axis_1">
    <g id="xtick_1">
     <g id="line2d_1">
      <path d="M 111.300043 414.957187 
L 111.300043 26.877187 
" clip-path="url(#pcb2d3ca4d4)" style="fill: none; stroke: #cccccc; stroke-opacity: 0.3; stroke-linecap: round"/>
     </g>
     <g id="text_1">
      <!-- 0 -->
      <g style="fill: #262626" transform="translate(106.05098 436.99332) scale(0.165 -0.165)">
       <defs>
        <path id="DejaVuSans-13" d="M 2034 4250 
Q 1547 4250 1301 3770 
Q 1056 3291 1056 2328 
Q 1056 1369 1301 889 
Q 1547 409 2034 409 
Q 2525 409 2770 889 
Q 3016 1369 3016 2328 
Q 3016 3291 2770 3770 
Q 2525 4250 2034 4250 
z
M 2034 4750 
Q 2819 4750 3233 4129 
Q 3647 3509 3647 2328 
Q 3647 1150 3233 529 
Q 2819 -91 2034 -91 
Q 1250 -91 836 529 
Q 422 1150 422 2328 
Q 422 3509 836 4129 
Q 1250 4750 2034 4750 
z
" transform="scale(0.015625)"/>
       </defs>
       <use xlink:href="#DejaVuSans-13"/>
      </g>
     </g>
    </g>
    <g id="xtick_2">
     <g id="line2d_2">
      <path d="M 181.268695 414.957187 
L 181.268695 26.877187 
" clip-path="url(#pcb2d3ca4d4)" style="fill: none; stroke: #cccccc; stroke-opacity: 0.3; stroke-linecap: round"/>
     </g>
     <g id="text_2">
      <!-- 10 -->
      <g style="fill: #262626" transform="translate(170.77057 436.99332) scale(0.165 -0.165)">
       <defs>
        <path id="DejaVuSans-14" d="M 794 531 
L 1825 531 
L 1825 4091 
L 703 3866 
L 703 4441 
L 1819 4666 
L 2450 4666 
L 2450 531 
L 3481 531 
L 3481 0 
L 794 0 
L 794 531 
z
" transform="scale(0.015625)"/>
       </defs>
       <use xlink:href="#DejaVuSans-14"/>
       <use xlink:href="#DejaVuSans-13" transform="translate(63.625 0)"/>
      </g>
     </g>
    </g>
    <g id="xtick_3">
     <g id="line2d_3">
      <path d="M 251.237347 414.957187 
L 251.237347 26.877187 
" clip-path="url(#pcb2d3ca4d4)" style="fill: none; stroke: #cccccc; stroke-opacity: 0.3; stroke-linecap: round"/>
     </g>
     <g id="text_3">
      <!-- 20 -->
      <g style="fill: #262626" transform="translate(240.739222 436.99332) scale(0.165 -0.165)">
       <defs>
        <path id="DejaVuSans-15" d="M 1228 531 
L 3431 531 
L 3431 0 
L 469 0 
L 469 531 
Q 828 903 1448 1529 
Q 2069 2156 2228 2338 
Q 2531 2678 2651 2914 
Q 2772 3150 2772 3378 
Q 2772 3750 2511 3984 
Q 2250 4219 1831 4219 
Q 1534 4219 1204 4116 
Q 875 4013 500 3803 
L 500 4441 
Q 881 4594 1212 4672 
Q 1544 4750 1819 4750 
Q 2544 4750 2975 4387 
Q 3406 4025 3406 3419 
Q 3406 3131 3298 2873 
Q 3191 2616 2906 2266 
Q 2828 2175 2409 1742 
Q 1991 1309 1228 531 
z
" transform="scale(0.015625)"/>
       </defs>
       <use xlink:href="#DejaVuSans-15"/>
       <use xlink:href="#DejaVuSans-13" transform="translate(63.625 0)"/>
      </g>
     </g>
    </g>
    <g id="xtick_4">
     <g id="line2d_4">
      <path d="M 321.205999 414.957187 
L 321.205999 26.877187 
" clip-path="url(#pcb2d3ca4d4)" style="fill: none; stroke: #cccccc; stroke-opacity: 0.3; stroke-linecap: round"/>
     </g>
     <g id="text_4">
      <!-- 30 -->
      <g style="fill: #262626" transform="translate(310.707874 436.99332) scale(0.165 -0.165)">
       <defs>
        <path id="DejaVuSans-16" d="M 2597 2516 
Q 3050 2419 3304 2112 
Q 3559 1806 3559 1356 
Q 3559 666 3084 287 
Q 2609 -91 1734 -91 
Q 1441 -91 1130 -33 
Q 819 25 488 141 
L 488 750 
Q 750 597 1062 519 
Q 1375 441 1716 441 
Q 2309 441 2620 675 
Q 2931 909 2931 1356 
Q 2931 1769 2642 2001 
Q 2353 2234 1838 2234 
L 1294 2234 
L 1294 2753 
L 1863 2753 
Q 2328 2753 2575 2939 
Q 2822 3125 2822 3475 
Q 2822 3834 2567 4026 
Q 2313 4219 1838 4219 
Q 1578 4219 1281 4162 
Q 984 4106 628 3988 
L 628 4550 
Q 988 4650 1302 4700 
Q 1616 4750 1894 4750 
Q 2613 4750 3031 4423 
Q 3450 4097 3450 3541 
Q 3450 3153 3228 2886 
Q 3006 2619 2597 2516 
z
" transform="scale(0.015625)"/>
       </defs>
       <use xlink:href="#DejaVuSans-16"/>
       <use xlink:href="#DejaVuSans-13" transform="translate(63.625 0)"/>
      </g>
     </g>
    </g>
    <g id="xtick_5">
     <g id="line2d_5">
      <path d="M 391.174651 414.957187 
L 391.174651 26.877187 
" clip-path="url(#pcb2d3ca4d4)" style="fill: none; stroke: #cccccc; stroke-opacity: 0.3; stroke-linecap: round"/>
     </g>
     <g id="text_5">
      <!-- 40 -->
      <g style="fill: #262626" transform="translate(380.676526 436.99332) scale(0.165 -0.165)">
       <defs>
        <path id="DejaVuSans-17" d="M 2419 4116 
L 825 1625 
L 2419 1625 
L 2419 4116 
z
M 2253 4666 
L 3047 4666 
L 3047 1625 
L 3713 1625 
L 3713 1100 
L 3047 1100 
L 3047 0 
L 2419 0 
L 2419 1100 
L 313 1100 
L 313 1709 
L 2253 4666 
z
" transform="scale(0.015625)"/>
       </defs>
       <use xlink:href="#DejaVuSans-17"/>
       <use xlink:href="#DejaVuSans-13" transform="translate(63.625 0)"/>
      </g>
     </g>
    </g>
    <g id="xtick_6">
     <g id="line2d_6">
      <path d="M 461.143303 414.957187 
L 461.143303 26.877187 
" clip-path="url(#pcb2d3ca4d4)" style="fill: none; stroke: #cccccc; stroke-opacity: 0.3; stroke-linecap: round"/>
     </g>
     <g id="text_6">
      <!-- 50 -->
      <g style="fill: #262626" transform="translate(450.645178 436.99332) scale(0.165 -0.165)">
       <defs>
        <path id="DejaVuSans-18" d="M 691 4666 
L 3169 4666 
L 3169 4134 
L 1269 4134 
L 1269 2991 
Q 1406 3038 1543 3061 
Q 1681 3084 1819 3084 
Q 2600 3084 3056 2656 
Q 3513 2228 3513 1497 
Q 3513 744 3044 326 
Q 2575 -91 1722 -91 
Q 1428 -91 1123 -41 
Q 819 9 494 109 
L 494 744 
Q 775 591 1075 516 
Q 1375 441 1709 441 
Q 2250 441 2565 725 
Q 2881 1009 2881 1497 
Q 2881 1984 2565 2268 
Q 2250 2553 1709 2553 
Q 1456 2553 1204 2497 
Q 953 2441 691 2322 
L 691 4666 
z
" transform="scale(0.015625)"/>
       </defs>
       <use xlink:href="#DejaVuSans-18"/>
       <use xlink:href="#DejaVuSans-13" transform="translate(63.625 0)"/>
      </g>
     </g>
    </g>
    <g id="xtick_7">
     <g id="line2d_7">
      <path d="M 531.111955 414.957187 
L 531.111955 26.877187 
" clip-path="url(#pcb2d3ca4d4)" style="fill: none; stroke: #cccccc; stroke-opacity: 0.3; stroke-linecap: round"/>
     </g>
     <g id="text_7">
      <!-- 60 -->
      <g style="fill: #262626" transform="translate(520.61383 436.99332) scale(0.165 -0.165)">
       <defs>
        <path id="DejaVuSans-19" d="M 2113 2584 
Q 1688 2584 1439 2293 
Q 1191 2003 1191 1497 
Q 1191 994 1439 701 
Q 1688 409 2113 409 
Q 2538 409 2786 701 
Q 3034 994 3034 1497 
Q 3034 2003 2786 2293 
Q 2538 2584 2113 2584 
z
M 3366 4563 
L 3366 3988 
Q 3128 4100 2886 4159 
Q 2644 4219 2406 4219 
Q 1781 4219 1451 3797 
Q 1122 3375 1075 2522 
Q 1259 2794 1537 2939 
Q 1816 3084 2150 3084 
Q 2853 3084 3261 2657 
Q 3669 2231 3669 1497 
Q 3669 778 3244 343 
Q 2819 -91 2113 -91 
Q 1303 -91 875 529 
Q 447 1150 447 2328 
Q 447 3434 972 4092 
Q 1497 4750 2381 4750 
Q 2619 4750 2861 4703 
Q 3103 4656 3366 4563 
z
" transform="scale(0.015625)"/>
       </defs>
       <use xlink:href="#DejaVuSans-19"/>
       <use xlink:href="#DejaVuSans-13" transform="translate(63.625 0)"/>
      </g>
     </g>
    </g>
    <g id="xtick_8">
     <g id="line2d_8">
      <path d="M 601.080607 414.957187 
L 601.080607 26.877187 
" clip-path="url(#pcb2d3ca4d4)" style="fill: none; stroke: #cccccc; stroke-opacity: 0.3; stroke-linecap: round"/>
     </g>
     <g id="text_8">
      <!-- 70 -->
      <g style="fill: #262626" transform="translate(590.582482 436.99332) scale(0.165 -0.165)">
       <defs>
        <path id="DejaVuSans-1a" d="M 525 4666 
L 3525 4666 
L 3525 4397 
L 1831 0 
L 1172 0 
L 2766 4134 
L 525 4134 
L 525 4666 
z
" transform="scale(0.015625)"/>
       </defs>
       <use xlink:href="#DejaVuSans-1a"/>
       <use xlink:href="#DejaVuSans-13" transform="translate(63.625 0)"/>
      </g>
     </g>
    </g>
    <g id="text_9">
     <!-- Time Overhead (%) -->
     <g style="fill: #262626" transform="translate(277.654688 458.634375) scale(0.18 -0.18)">
      <defs>
       <path id="DejaVuSans-37" d="M -19 4666 
L 3928 4666 
L 3928 4134 
L 2272 4134 
L 2272 0 
L 1638 0 
L 1638 4134 
L -19 4134 
L -19 4666 
z
" transform="scale(0.015625)"/>
       <path id="DejaVuSans-4c" d="M 603 3500 
L 1178 3500 
L 1178 0 
L 603 0 
L 603 3500 
z
M 603 4863 
L 1178 4863 
L 1178 4134 
L 603 4134 
L 603 4863 
z
" transform="scale(0.015625)"/>
       <path id="DejaVuSans-50" d="M 3328 2828 
Q 3544 3216 3844 3400 
Q 4144 3584 4550 3584 
Q 5097 3584 5394 3201 
Q 5691 2819 5691 2113 
L 5691 0 
L 5113 0 
L 5113 2094 
Q 5113 2597 4934 2840 
Q 4756 3084 4391 3084 
Q 3944 3084 3684 2787 
Q 3425 2491 3425 1978 
L 3425 0 
L 2847 0 
L 2847 2094 
Q 2847 2600 2669 2842 
Q 2491 3084 2119 3084 
Q 1678 3084 1418 2786 
Q 1159 2488 1159 1978 
L 1159 0 
L 581 0 
L 581 3500 
L 1159 3500 
L 1159 2956 
Q 1356 3278 1631 3431 
Q 1906 3584 2284 3584 
Q 2666 3584 2933 3390 
Q 3200 3197 3328 2828 
z
" transform="scale(0.015625)"/>
       <path id="DejaVuSans-48" d="M 3597 1894 
L 3597 1613 
L 953 1613 
Q 991 1019 1311 708 
Q 1631 397 2203 397 
Q 2534 397 2845 478 
Q 3156 559 3463 722 
L 3463 178 
Q 3153 47 2828 -22 
Q 2503 -91 2169 -91 
Q 1331 -91 842 396 
Q 353 884 353 1716 
Q 353 2575 817 3079 
Q 1281 3584 2069 3584 
Q 2775 3584 3186 3129 
Q 3597 2675 3597 1894 
z
M 3022 2063 
Q 3016 2534 2758 2815 
Q 2500 3097 2075 3097 
Q 1594 3097 1305 2825 
Q 1016 2553 972 2059 
L 3022 2063 
z
" transform="scale(0.015625)"/>
       <path id="DejaVuSans-3" transform="scale(0.015625)"/>
       <path id="DejaVuSans-32" d="M 2522 4238 
Q 1834 4238 1429 3725 
Q 1025 3213 1025 2328 
Q 1025 1447 1429 934 
Q 1834 422 2522 422 
Q 3209 422 3611 934 
Q 4013 1447 4013 2328 
Q 4013 3213 3611 3725 
Q 3209 4238 2522 4238 
z
M 2522 4750 
Q 3503 4750 4090 4092 
Q 4678 3434 4678 2328 
Q 4678 1225 4090 567 
Q 3503 -91 2522 -91 
Q 1538 -91 948 565 
Q 359 1222 359 2328 
Q 359 3434 948 4092 
Q 1538 4750 2522 4750 
z
" transform="scale(0.015625)"/>
       <path id="DejaVuSans-59" d="M 191 3500 
L 800 3500 
L 1894 563 
L 2988 3500 
L 3597 3500 
L 2284 0 
L 1503 0 
L 191 3500 
z
" transform="scale(0.015625)"/>
       <path id="DejaVuSans-55" d="M 2631 2963 
Q 2534 3019 2420 3045 
Q 2306 3072 2169 3072 
Q 1681 3072 1420 2755 
Q 1159 2438 1159 1844 
L 1159 0 
L 581 0 
L 581 3500 
L 1159 3500 
L 1159 2956 
Q 1341 3275 1631 3429 
Q 1922 3584 2338 3584 
Q 2397 3584 2469 3576 
Q 2541 3569 2628 3553 
L 2631 2963 
z
" transform="scale(0.015625)"/>
       <path id="DejaVuSans-4b" d="M 3513 2113 
L 3513 0 
L 2938 0 
L 2938 2094 
Q 2938 2591 2744 2837 
Q 2550 3084 2163 3084 
Q 1697 3084 1428 2787 
Q 1159 2491 1159 1978 
L 1159 0 
L 581 0 
L 581 4863 
L 1159 4863 
L 1159 2956 
Q 1366 3272 1645 3428 
Q 1925 3584 2291 3584 
Q 2894 3584 3203 3211 
Q 3513 2838 3513 2113 
z
" transform="scale(0.015625)"/>
       <path id="DejaVuSans-44" d="M 2194 1759 
Q 1497 1759 1228 1600 
Q 959 1441 959 1056 
Q 959 750 1161 570 
Q 1363 391 1709 391 
Q 2188 391 2477 730 
Q 2766 1069 2766 1631 
L 2766 1759 
L 2194 1759 
z
M 3341 1997 
L 3341 0 
L 2766 0 
L 2766 531 
Q 2569 213 2275 61 
Q 1981 -91 1556 -91 
Q 1019 -91 701 211 
Q 384 513 384 1019 
Q 384 1609 779 1909 
Q 1175 2209 1959 2209 
L 2766 2209 
L 2766 2266 
Q 2766 2663 2505 2880 
Q 2244 3097 1772 3097 
Q 1472 3097 1187 3025 
Q 903 2953 641 2809 
L 641 3341 
Q 956 3463 1253 3523 
Q 1550 3584 1831 3584 
Q 2591 3584 2966 3190 
Q 3341 2797 3341 1997 
z
" transform="scale(0.015625)"/>
       <path id="DejaVuSans-47" d="M 2906 2969 
L 2906 4863 
L 3481 4863 
L 3481 0 
L 2906 0 
L 2906 525 
Q 2725 213 2448 61 
Q 2172 -91 1784 -91 
Q 1150 -91 751 415 
Q 353 922 353 1747 
Q 353 2572 751 3078 
Q 1150 3584 1784 3584 
Q 2172 3584 2448 3432 
Q 2725 3281 2906 2969 
z
M 947 1747 
Q 947 1113 1208 752 
Q 1469 391 1925 391 
Q 2381 391 2643 752 
Q 2906 1113 2906 1747 
Q 2906 2381 2643 2742 
Q 2381 3103 1925 3103 
Q 1469 3103 1208 2742 
Q 947 2381 947 1747 
z
" transform="scale(0.015625)"/>
       <path id="DejaVuSans-b" d="M 1984 4856 
Q 1566 4138 1362 3434 
Q 1159 2731 1159 2009 
Q 1159 1288 1364 580 
Q 1569 -128 1984 -844 
L 1484 -844 
Q 1016 -109 783 600 
Q 550 1309 550 2009 
Q 550 2706 781 3412 
Q 1013 4119 1484 4856 
L 1984 4856 
z
" transform="scale(0.015625)"/>
       <path id="DejaVuSans-8" d="M 4653 2053 
Q 4381 2053 4226 1822 
Q 4072 1591 4072 1178 
Q 4072 772 4226 539 
Q 4381 306 4653 306 
Q 4919 306 5073 539 
Q 5228 772 5228 1178 
Q 5228 1588 5073 1820 
Q 4919 2053 4653 2053 
z
M 4653 2450 
Q 5147 2450 5437 2106 
Q 5728 1763 5728 1178 
Q 5728 594 5436 251 
Q 5144 -91 4653 -91 
Q 4153 -91 3862 251 
Q 3572 594 3572 1178 
Q 3572 1766 3864 2108 
Q 4156 2450 4653 2450 
z
M 1428 4353 
Q 1159 4353 1004 4120 
Q 850 3888 850 3481 
Q 850 3069 1003 2837 
Q 1156 2606 1428 2606 
Q 1700 2606 1854 2837 
Q 2009 3069 2009 3481 
Q 2009 3884 1853 4118 
Q 1697 4353 1428 4353 
z
M 4250 4750 
L 4750 4750 
L 1831 -91 
L 1331 -91 
L 4250 4750 
z
M 1428 4750 
Q 1922 4750 2215 4408 
Q 2509 4066 2509 3481 
Q 2509 2891 2217 2550 
Q 1925 2209 1428 2209 
Q 931 2209 642 2551 
Q 353 2894 353 3481 
Q 353 4063 643 4406 
Q 934 4750 1428 4750 
z
" transform="scale(0.015625)"/>
       <path id="DejaVuSans-c" d="M 513 4856 
L 1013 4856 
Q 1481 4119 1714 3412 
Q 1947 2706 1947 2009 
Q 1947 1309 1714 600 
Q 1481 -109 1013 -844 
L 513 -844 
Q 928 -128 1133 580 
Q 1338 1288 1338 2009 
Q 1338 2731 1133 3434 
Q 928 4138 513 4856 
z
" transform="scale(0.015625)"/>
      </defs>
      <use xlink:href="#DejaVuSans-37"/>
      <use xlink:href="#DejaVuSans-4c" transform="translate(58 0)"/>
      <use xlink:href="#DejaVuSans-50" transform="translate(85.78125 0)"/>
      <use xlink:href="#DejaVuSans-48" transform="translate(183.1875 0)"/>
      <use xlink:href="#DejaVuSans-3" transform="translate(244.71875 0)"/>
      <use xlink:href="#DejaVuSans-32" transform="translate(276.5 0)"/>
      <use xlink:href="#DejaVuSans-59" transform="translate(355.21875 0)"/>
      <use xlink:href="#DejaVuSans-48" transform="translate(414.40625 0)"/>
      <use xlink:href="#DejaVuSans-55" transform="translate(475.9375 0)"/>
      <use xlink:href="#DejaVuSans-4b" transform="translate(515.296875 0)"/>
      <use xlink:href="#DejaVuSans-48" transform="translate(578.671875 0)"/>
      <use xlink:href="#DejaVuSans-44" transform="translate(640.203125 0)"/>
      <use xlink:href="#DejaVuSans-47" transform="translate(701.484375 0)"/>
      <use xlink:href="#DejaVuSans-3" transform="translate(764.96875 0)"/>
      <use xlink:href="#DejaVuSans-b" transform="translate(796.75 0)"/>
      <use xlink:href="#DejaVuSans-8" transform="translate(835.765625 0)"/>
      <use xlink:href="#DejaVuSans-c" transform="translate(930.78125 0)"/>
     </g>
    </g>
   </g>
   <g id="matplotlib.axis_2">
    <g id="ytick_1">
     <g id="line2d_9">
      <path d="M 85.936406 397.317187 
L 643.936406 397.317187 
" clip-path="url(#pcb2d3ca4d4)" style="fill: none; stroke: #cccccc; stroke-opacity: 0.3; stroke-linecap: round"/>
     </g>
     <g id="text_10">
      <!-- 0.500 -->
      <g style="fill: #262626" transform="translate(29.2 403.585254) scale(0.165 -0.165)">
       <defs>
        <path id="DejaVuSans-11" d="M 684 794 
L 1344 794 
L 1344 0 
L 684 0 
L 684 794 
z
" transform="scale(0.015625)"/>
       </defs>
       <use xlink:href="#DejaVuSans-13"/>
       <use xlink:href="#DejaVuSans-11" transform="translate(63.625 0)"/>
       <use xlink:href="#DejaVuSans-18" transform="translate(95.40625 0)"/>
       <use xlink:href="#DejaVuSans-13" transform="translate(159.03125 0)"/>
       <use xlink:href="#DejaVuSans-13" transform="translate(222.65625 0)"/>
      </g>
     </g>
    </g>
    <g id="ytick_2">
     <g id="line2d_10">
      <path d="M 85.936406 340.229809 
L 643.936406 340.229809 
" clip-path="url(#pcb2d3ca4d4)" style="fill: none; stroke: #cccccc; stroke-opacity: 0.3; stroke-linecap: round"/>
     </g>
     <g id="text_11">
      <!-- 0.505 -->
      <g style="fill: #262626" transform="translate(29.2 346.497875) scale(0.165 -0.165)">
       <use xlink:href="#DejaVuSans-13"/>
       <use xlink:href="#DejaVuSans-11" transform="translate(63.625 0)"/>
       <use xlink:href="#DejaVuSans-18" transform="translate(95.40625 0)"/>
       <use xlink:href="#DejaVuSans-13" transform="translate(159.03125 0)"/>
       <use xlink:href="#DejaVuSans-18" transform="translate(222.65625 0)"/>
      </g>
     </g>
    </g>
    <g id="ytick_3">
     <g id="line2d_11">
      <path d="M 85.936406 283.14243 
L 643.936406 283.14243 
" clip-path="url(#pcb2d3ca4d4)" style="fill: none; stroke: #cccccc; stroke-opacity: 0.3; stroke-linecap: round"/>
     </g>
     <g id="text_12">
      <!-- 0.510 -->
      <g style="fill: #262626" transform="translate(29.2 289.410497) scale(0.165 -0.165)">
       <use xlink:href="#DejaVuSans-13"/>
       <use xlink:href="#DejaVuSans-11" transform="translate(63.625 0)"/>
       <use xlink:href="#DejaVuSans-18" transform="translate(95.40625 0)"/>
       <use xlink:href="#DejaVuSans-14" transform="translate(159.03125 0)"/>
       <use xlink:href="#DejaVuSans-13" transform="translate(222.65625 0)"/>
      </g>
     </g>
    </g>
    <g id="ytick_4">
     <g id="line2d_12">
      <path d="M 85.936406 226.055052 
L 643.936406 226.055052 
" clip-path="url(#pcb2d3ca4d4)" style="fill: none; stroke: #cccccc; stroke-opacity: 0.3; stroke-linecap: round"/>
     </g>
     <g id="text_13">
      <!-- 0.515 -->
      <g style="fill: #262626" transform="translate(29.2 232.323118) scale(0.165 -0.165)">
       <use xlink:href="#DejaVuSans-13"/>
       <use xlink:href="#DejaVuSans-11" transform="translate(63.625 0)"/>
       <use xlink:href="#DejaVuSans-18" transform="translate(95.40625 0)"/>
       <use xlink:href="#DejaVuSans-14" transform="translate(159.03125 0)"/>
       <use xlink:href="#DejaVuSans-18" transform="translate(222.65625 0)"/>
      </g>
     </g>
    </g>
    <g id="ytick_5">
     <g id="line2d_13">
      <path d="M 85.936406 168.967673 
L 643.936406 168.967673 
" clip-path="url(#pcb2d3ca4d4)" style="fill: none; stroke: #cccccc; stroke-opacity: 0.3; stroke-linecap: round"/>
     </g>
     <g id="text_14">
      <!-- 0.520 -->
      <g style="fill: #262626" transform="translate(29.2 175.235739) scale(0.165 -0.165)">
       <use xlink:href="#DejaVuSans-13"/>
       <use xlink:href="#DejaVuSans-11" transform="translate(63.625 0)"/>
       <use xlink:href="#DejaVuSans-18" transform="translate(95.40625 0)"/>
       <use xlink:href="#DejaVuSans-15" transform="translate(159.03125 0)"/>
       <use xlink:href="#DejaVuSans-13" transform="translate(222.65625 0)"/>
      </g>
     </g>
    </g>
    <g id="ytick_6">
     <g id="line2d_14">
      <path d="M 85.936406 111.880294 
L 643.936406 111.880294 
" clip-path="url(#pcb2d3ca4d4)" style="fill: none; stroke: #cccccc; stroke-opacity: 0.3; stroke-linecap: round"/>
     </g>
     <g id="text_15">
      <!-- 0.525 -->
      <g style="fill: #262626" transform="translate(29.2 118.148361) scale(0.165 -0.165)">
       <use xlink:href="#DejaVuSans-13"/>
       <use xlink:href="#DejaVuSans-11" transform="translate(63.625 0)"/>
       <use xlink:href="#DejaVuSans-18" transform="translate(95.40625 0)"/>
       <use xlink:href="#DejaVuSans-15" transform="translate(159.03125 0)"/>
       <use xlink:href="#DejaVuSans-18" transform="translate(222.65625 0)"/>
      </g>
     </g>
    </g>
    <g id="ytick_7">
     <g id="line2d_15">
      <path d="M 85.936406 54.792916 
L 643.936406 54.792916 
" clip-path="url(#pcb2d3ca4d4)" style="fill: none; stroke: #cccccc; stroke-opacity: 0.3; stroke-linecap: round"/>
     </g>
     <g id="text_16">
      <!-- 0.530 -->
      <g style="fill: #262626" transform="translate(29.2 61.060982) scale(0.165 -0.165)">
       <use xlink:href="#DejaVuSans-13"/>
       <use xlink:href="#DejaVuSans-11" transform="translate(63.625 0)"/>
       <use xlink:href="#DejaVuSans-18" transform="translate(95.40625 0)"/>
       <use xlink:href="#DejaVuSans-16" transform="translate(159.03125 0)"/>
       <use xlink:href="#DejaVuSans-13" transform="translate(222.65625 0)"/>
      </g>
     </g>
    </g>
    <g id="text_17">
     <!-- Score -->
     <g style="fill: #262626" transform="translate(20.875781 246.125625) rotate(-90) scale(0.18 -0.18)">
      <defs>
       <path id="DejaVuSans-36" d="M 3425 4513 
L 3425 3897 
Q 3066 4069 2747 4153 
Q 2428 4238 2131 4238 
Q 1616 4238 1336 4038 
Q 1056 3838 1056 3469 
Q 1056 3159 1242 3001 
Q 1428 2844 1947 2747 
L 2328 2669 
Q 3034 2534 3370 2195 
Q 3706 1856 3706 1288 
Q 3706 609 3251 259 
Q 2797 -91 1919 -91 
Q 1588 -91 1214 -16 
Q 841 59 441 206 
L 441 856 
Q 825 641 1194 531 
Q 1563 422 1919 422 
Q 2459 422 2753 634 
Q 3047 847 3047 1241 
Q 3047 1584 2836 1778 
Q 2625 1972 2144 2069 
L 1759 2144 
Q 1053 2284 737 2584 
Q 422 2884 422 3419 
Q 422 4038 858 4394 
Q 1294 4750 2059 4750 
Q 2388 4750 2728 4690 
Q 3069 4631 3425 4513 
z
" transform="scale(0.015625)"/>
       <path id="DejaVuSans-46" d="M 3122 3366 
L 3122 2828 
Q 2878 2963 2633 3030 
Q 2388 3097 2138 3097 
Q 1578 3097 1268 2742 
Q 959 2388 959 1747 
Q 959 1106 1268 751 
Q 1578 397 2138 397 
Q 2388 397 2633 464 
Q 2878 531 3122 666 
L 3122 134 
Q 2881 22 2623 -34 
Q 2366 -91 2075 -91 
Q 1284 -91 818 406 
Q 353 903 353 1747 
Q 353 2603 823 3093 
Q 1294 3584 2113 3584 
Q 2378 3584 2631 3529 
Q 2884 3475 3122 3366 
z
" transform="scale(0.015625)"/>
       <path id="DejaVuSans-52" d="M 1959 3097 
Q 1497 3097 1228 2736 
Q 959 2375 959 1747 
Q 959 1119 1226 758 
Q 1494 397 1959 397 
Q 2419 397 2687 759 
Q 2956 1122 2956 1747 
Q 2956 2369 2687 2733 
Q 2419 3097 1959 3097 
z
M 1959 3584 
Q 2709 3584 3137 3096 
Q 3566 2609 3566 1747 
Q 3566 888 3137 398 
Q 2709 -91 1959 -91 
Q 1206 -91 779 398 
Q 353 888 353 1747 
Q 353 2609 779 3096 
Q 1206 3584 1959 3584 
z
" transform="scale(0.015625)"/>
      </defs>
      <use xlink:href="#DejaVuSans-36"/>
      <use xlink:href="#DejaVuSans-46" transform="translate(63.484375 0)"/>
      <use xlink:href="#DejaVuSans-52" transform="translate(118.46875 0)"/>
      <use xlink:href="#DejaVuSans-55" transform="translate(179.65625 0)"/>
      <use xlink:href="#DejaVuSans-48" transform="translate(218.5625 0)"/>
     </g>
    </g>
   </g>
   <g id="line2d_16">
    <path d="M 111.300043 397.317187 
L 111.999729 395.033692 
L 112.699416 391.60845 
L 113.399102 388.183207 
L 114.098789 387.041459 
L 114.798475 385.899712 
L 127.392833 368.773498 
L 140.686876 367.631751 
L 144.884996 366.490003 
L 146.284369 356.214275 
L 149.782801 350.505537 
L 161.677472 348.222042 
L 165.875591 279.717187 
L 188.965246 256.882236 
L 212.754588 234.047285 
L 230.946438 218.062819 
L 240.742049 208.928838 
L 277.825434 184.952139 
L 310.710701 180.385149 
L 331.701297 174.676411 
L 336.599102 173.534663 
L 342.896281 170.109421 
L 352.691892 166.684178 
L 360.388444 165.54243 
L 363.18719 160.97544 
L 373.682488 152.983207 
L 400.270576 149.557964 
L 401.669949 141.565731 
L 422.660544 127.86476 
L 435.254902 123.29777 
L 447.149572 121.014275 
L 461.842989 118.73078 
L 473.037974 114.163789 
L 484.232958 108.455052 
L 491.92951 100.462819 
L 499.626061 93.612333 
L 511.520732 83.336605 
L 516.418538 77.627867 
L 526.913836 74.202624 
L 539.508193 73.060877 
L 540.907566 70.777382 
L 563.997221 69.635634 
L 564.696908 67.352139 
L 566.795967 66.210391 
L 570.994087 65.068644 
L 574.492519 63.926896 
L 575.192206 62.785149 
L 576.591579 60.501654 
L 577.291265 59.359906 
L 577.990952 58.218158 
L 588.48625 55.934663 
L 589.185936 54.792916 
L 591.284996 53.651168 
L 591.984682 52.509421 
L 602.47998 51.367673 
L 603.179666 50.225925 
L 603.879353 49.084178 
L 615.074337 47.94243 
L 615.774024 46.800683 
L 616.47371 45.658935 
L 618.57277 44.517187 
" clip-path="url(#pcb2d3ca4d4)" style="fill: none; stroke: #2563eb; stroke-width: 2; stroke-linecap: round"/>
    <defs>
     <path id="m66fe56e502" d="M 0 2 
C 0.530406 2 1.03916 1.789267 1.414214 1.414214 
C 1.789267 1.03916 2 0.530406 2 0 
C 2 -0.530406 1.789267 -1.03916 1.414214 -1.414214 
C 1.03916 -1.789267 0.530406 -2 0 -2 
C -0.530406 -2 -1.03916 -1.789267 -1.414214 -1.414214 
C -1.789267 -1.03916 -2 -0.530406 -2 0 
C -2 0.530406 -1.789267 1.03916 -1.414214 1.414214 
C -1.03916 1.789267 -0.530406 2 0 2 
z
" style="stroke: #2563eb"/>
    </defs>
    <g clip-path="url(#pcb2d3ca4d4)">
     <use xlink:href="#m66fe56e502" x="111.300043" y="397.317187" style="fill: #2563eb; stroke: #2563eb"/>
     <use xlink:href="#m66fe56e502" x="111.999729" y="395.033692" style="fill: #2563eb; stroke: #2563eb"/>
     <use xlink:href="#m66fe56e502" x="112.699416" y="391.60845" style="fill: #2563eb; stroke: #2563eb"/>
     <use xlink:href="#m66fe56e502" x="113.399102" y="388.183207" style="fill: #2563eb; stroke: #2563eb"/>
     <use xlink:href="#m66fe56e502" x="114.098789" y="387.041459" style="fill: #2563eb; stroke: #2563eb"/>
     <use xlink:href="#m66fe56e502" x="114.798475" y="385.899712" style="fill: #2563eb; stroke: #2563eb"/>
     <use xlink:href="#m66fe56e502" x="127.392833" y="368.773498" style="fill: #2563eb; stroke: #2563eb"/>
     <use xlink:href="#m66fe56e502" x="140.686876" y="367.631751" style="fill: #2563eb; stroke: #2563eb"/>
     <use xlink:href="#m66fe56e502" x="144.884996" y="366.490003" style="fill: #2563eb; stroke: #2563eb"/>
     <use xlink:href="#m66fe56e502" x="146.284369" y="356.214275" style="fill: #2563eb; stroke: #2563eb"/>
     <use xlink:href="#m66fe56e502" x="149.782801" y="350.505537" style="fill: #2563eb; stroke: #2563eb"/>
     <use xlink:href="#m66fe56e502" x="161.677472" y="348.222042" style="fill: #2563eb; stroke: #2563eb"/>
     <use xlink:href="#m66fe56e502" x="165.875591" y="279.717187" style="fill: #2563eb; stroke: #2563eb"/>
     <use xlink:href="#m66fe56e502" x="188.965246" y="256.882236" style="fill: #2563eb; stroke: #2563eb"/>
     <use xlink:href="#m66fe56e502" x="212.754588" y="234.047285" style="fill: #2563eb; stroke: #2563eb"/>
     <use xlink:href="#m66fe56e502" x="230.946438" y="218.062819" style="fill: #2563eb; stroke: #2563eb"/>
     <use xlink:href="#m66fe56e502" x="240.742049" y="208.928838" style="fill: #2563eb; stroke: #2563eb"/>
     <use xlink:href="#m66fe56e502" x="277.825434" y="184.952139" style="fill: #2563eb; stroke: #2563eb"/>
     <use xlink:href="#m66fe56e502" x="310.710701" y="180.385149" style="fill: #2563eb; stroke: #2563eb"/>
     <use xlink:href="#m66fe56e502" x="331.701297" y="174.676411" style="fill: #2563eb; stroke: #2563eb"/>
     <use xlink:href="#m66fe56e502" x="336.599102" y="173.534663" style="fill: #2563eb; stroke: #2563eb"/>
     <use xlink:href="#m66fe56e502" x="342.896281" y="170.109421" style="fill: #2563eb; stroke: #2563eb"/>
     <use xlink:href="#m66fe56e502" x="352.691892" y="166.684178" style="fill: #2563eb; stroke: #2563eb"/>
     <use xlink:href="#m66fe56e502" x="360.388444" y="165.54243" style="fill: #2563eb; stroke: #2563eb"/>
     <use xlink:href="#m66fe56e502" x="363.18719" y="160.97544" style="fill: #2563eb; stroke: #2563eb"/>
     <use xlink:href="#m66fe56e502" x="373.682488" y="152.983207" style="fill: #2563eb; stroke: #2563eb"/>
     <use xlink:href="#m66fe56e502" x="400.270576" y="149.557964" style="fill: #2563eb; stroke: #2563eb"/>
     <use xlink:href="#m66fe56e502" x="401.669949" y="141.565731" style="fill: #2563eb; stroke: #2563eb"/>
     <use xlink:href="#m66fe56e502" x="422.660544" y="127.86476" style="fill: #2563eb; stroke: #2563eb"/>
     <use xlink:href="#m66fe56e502" x="435.254902" y="123.29777" style="fill: #2563eb; stroke: #2563eb"/>
     <use xlink:href="#m66fe56e502" x="447.149572" y="121.014275" style="fill: #2563eb; stroke: #2563eb"/>
     <use xlink:href="#m66fe56e502" x="461.842989" y="118.73078" style="fill: #2563eb; stroke: #2563eb"/>
     <use xlink:href="#m66fe56e502" x="473.037974" y="114.163789" style="fill: #2563eb; stroke: #2563eb"/>
     <use xlink:href="#m66fe56e502" x="484.232958" y="108.455052" style="fill: #2563eb; stroke: #2563eb"/>
     <use xlink:href="#m66fe56e502" x="491.92951" y="100.462819" style="fill: #2563eb; stroke: #2563eb"/>
     <use xlink:href="#m66fe56e502" x="499.626061" y="93.612333" style="fill: #2563eb; stroke: #2563eb"/>
     <use xlink:href="#m66fe56e502" x="511.520732" y="83.336605" style="fill: #2563eb; stroke: #2563eb"/>
     <use xlink:href="#m66fe56e502" x="516.418538" y="77.627867" style="fill: #2563eb; stroke: #2563eb"/>
     <use xlink:href="#m66fe56e502" x="526.913836" y="74.202624" style="fill: #2563eb; stroke: #2563eb"/>
     <use xlink:href="#m66fe56e502" x="539.508193" y="73.060877" style="fill: #2563eb; stroke: #2563eb"/>
     <use xlink:href="#m66fe56e502" x="540.907566" y="70.777382" style="fill: #2563eb; stroke: #2563eb"/>
     <use xlink:href="#m66fe56e502" x="563.997221" y="69.635634" style="fill: #2563eb; stroke: #2563eb"/>
     <use xlink:href="#m66fe56e502" x="564.696908" y="67.352139" style="fill: #2563eb; stroke: #2563eb"/>
     <use xlink:href="#m66fe56e502" x="566.795967" y="66.210391" style="fill: #2563eb; stroke: #2563eb"/>
     <use xlink:href="#m66fe56e502" x="570.994087" y="65.068644" style="fill: #2563eb; stroke: #2563eb"/>
     <use xlink:href="#m66fe56e502" x="574.492519" y="63.926896" style="fill: #2563eb; stroke: #2563eb"/>
     <use xlink:href="#m66fe56e502" x="575.192206" y="62.785149" style="fill: #2563eb; stroke: #2563eb"/>
     <use xlink:href="#m66fe56e502" x="576.591579" y="60.501654" style="fill: #2563eb; stroke: #2563eb"/>
     <use xlink:href="#m66fe56e502" x="577.291265" y="59.359906" style="fill: #2563eb; stroke: #2563eb"/>
     <use xlink:href="#m66fe56e502" x="577.990952" y="58.218158" style="fill: #2563eb; stroke: #2563eb"/>
     <use xlink:href="#m66fe56e502" x="588.48625" y="55.934663" style="fill: #2563eb; stroke: #2563eb"/>
     <use xlink:href="#m66fe56e502" x="589.185936" y="54.792916" style="fill: #2563eb; stroke: #2563eb"/>
     <use xlink:href="#m66fe56e502" x="591.284996" y="53.651168" style="fill: #2563eb; stroke: #2563eb"/>
     <use xlink:href="#m66fe56e502" x="591.984682" y="52.509421" style="fill: #2563eb; stroke: #2563eb"/>
     <use xlink:href="#m66fe56e502" x="602.47998" y="51.367673" style="fill: #2563eb; stroke: #2563eb"/>
     <use xlink:href="#m66fe56e502" x="603.179666" y="50.225925" style="fill: #2563eb; stroke: #2563eb"/>
     <use xlink:href="#m66fe56e502" x="603.879353" y="49.084178" style="fill: #2563eb; stroke: #2563eb"/>
     <use xlink:href="#m66fe56e502" x="615.074337" y="47.94243" style="fill: #2563eb; stroke: #2563eb"/>
     <use xlink:href="#m66fe56e502" x="615.774024" y="46.800683" style="fill: #2563eb; stroke: #2563eb"/>
     <use xlink:href="#m66fe56e502" x="616.47371" y="45.658935" style="fill: #2563eb; stroke: #2563eb"/>
     <use xlink:href="#m66fe56e502" x="618.57277" y="44.517187" style="fill: #2563eb; stroke: #2563eb"/>
    </g>
   </g>
   <g id="line2d_17">
    <path d="M 111.300043 397.317187 
L 111.999729 396.17544 
L 111.999729 395.033692 
L 112.699416 393.891945 
L 112.699416 392.750197 
L 113.399102 390.466702 
L 114.798475 389.324954 
L 116.197848 387.041459 
L 118.996594 382.474469 
L 118.996594 381.332721 
L 121.095654 379.049226 
L 121.79534 377.907479 
L 124.594087 376.765731 
L 125.293773 374.482236 
L 126.693146 373.340488 
L 127.392833 372.198741 
L 130.191579 367.631751 
L 134.389698 366.490003 
L 137.88813 365.348255 
L 137.88813 364.206508 
L 138.587817 361.923013 
L 139.98719 360.781265 
L 139.98719 359.639518 
L 144.185309 357.356022 
L 147.683742 355.072527 
L 148.383428 349.363789 
L 156.07998 347.080294 
L 157.479353 345.938547 
L 158.179039 342.513304 
L 159.578413 341.371556 
L 167.274964 335.662819 
L 173.572143 334.521071 
L 174.971516 331.095828 
L 175.671202 325.38709 
L 177.770262 321.961848 
L 179.169635 320.8201 
L 188.26556 319.678353 
L 190.364619 316.25311 
L 193.863052 315.111362 
L 198.061171 312.827867 
L 202.25929 308.260877 
L 205.058036 304.835634 
L 206.457409 302.552139 
L 219.051767 295.701654 
L 219.051767 294.559906 
L 225.348945 293.418158 
L 227.448005 291.134663 
L 228.847378 286.567673 
L 229.547065 284.284178 
L 230.246751 283.14243 
L 230.946438 282.000683 
L 237.943303 280.858935 
L 238.642989 279.717187 
L 248.438601 278.57544 
L 248.438601 277.433692 
L 248.438601 276.291945 
L 251.237347 275.150197 
L 261.032958 271.724954 
L 262.432331 270.583207 
L 275.026688 268.299712 
L 276.426061 267.157964 
L 280.624181 266.016217 
L 283.422927 264.874469 
L 370.883742 263.732721 
L 372.982801 262.590974 
L 376.481234 261.449226 
L 391.874337 260.307479 
" clip-path="url(#pcb2d3ca4d4)" style="fill: none; stroke: #dc2626; stroke-width: 2; stroke-linecap: round"/>
    <defs>
     <path id="mc42b1c8122" d="M 0 2 
C 0.530406 2 1.03916 1.789267 1.414214 1.414214 
C 1.789267 1.03916 2 0.530406 2 0 
C 2 -0.530406 1.789267 -1.03916 1.414214 -1.414214 
C 1.03916 -1.789267 0.530406 -2 0 -2 
C -0.530406 -2 -1.03916 -1.789267 -1.414214 -1.414214 
C -1.789267 -1.03916 -2 -0.530406 -2 0 
C -2 0.530406 -1.789267 1.03916 -1.414214 1.414214 
C -1.03916 1.789267 -0.530406 2 0 2 
z
" style="stroke: #dc2626"/>
    </defs>
    <g clip-path="url(#pcb2d3ca4d4)">
     <use xlink:href="#mc42b1c8122" x="111.300043" y="397.317187" style="fill: #dc2626; stroke: #dc2626"/>
     <use xlink:href="#mc42b1c8122" x="111.999729" y="396.17544" style="fill: #dc2626; stroke: #dc2626"/>
     <use xlink:href="#mc42b1c8122" x="111.999729" y="395.033692" style="fill: #dc2626; stroke: #dc2626"/>
     <use xlink:href="#mc42b1c8122" x="112.699416" y="393.891945" style="fill: #dc2626; stroke: #dc2626"/>
     <use xlink:href="#mc42b1c8122" x="112.699416" y="392.750197" style="fill: #dc2626; stroke: #dc2626"/>
     <use xlink:href="#mc42b1c8122" x="113.399102" y="390.466702" style="fill: #dc2626; stroke: #dc2626"/>
     <use xlink:href="#mc42b1c8122" x="114.798475" y="389.324954" style="fill: #dc2626; stroke: #dc2626"/>
     <use xlink:href="#mc42b1c8122" x="116.197848" y="387.041459" style="fill: #dc2626; stroke: #dc2626"/>
     <use xlink:href="#mc42b1c8122" x="118.996594" y="382.474469" style="fill: #dc2626; stroke: #dc2626"/>
     <use xlink:href="#mc42b1c8122" x="118.996594" y="381.332721" style="fill: #dc2626; stroke: #dc2626"/>
     <use xlink:href="#mc42b1c8122" x="121.095654" y="379.049226" style="fill: #dc2626; stroke: #dc2626"/>
     <use xlink:href="#mc42b1c8122" x="121.79534" y="377.907479" style="fill: #dc2626; stroke: #dc2626"/>
     <use xlink:href="#mc42b1c8122" x="124.594087" y="376.765731" style="fill: #dc2626; stroke: #dc2626"/>
     <use xlink:href="#mc42b1c8122" x="125.293773" y="374.482236" style="fill: #dc2626; stroke: #dc2626"/>
     <use xlink:href="#mc42b1c8122" x="126.693146" y="373.340488" style="fill: #dc2626; stroke: #dc2626"/>
     <use xlink:href="#mc42b1c8122" x="127.392833" y="372.198741" style="fill: #dc2626; stroke: #dc2626"/>
     <use xlink:href="#mc42b1c8122" x="130.191579" y="367.631751" style="fill: #dc2626; stroke: #dc2626"/>
     <use xlink:href="#mc42b1c8122" x="134.389698" y="366.490003" style="fill: #dc2626; stroke: #dc2626"/>
     <use xlink:href="#mc42b1c8122" x="137.88813" y="365.348255" style="fill: #dc2626; stroke: #dc2626"/>
     <use xlink:href="#mc42b1c8122" x="137.88813" y="364.206508" style="fill: #dc2626; stroke: #dc2626"/>
     <use xlink:href="#mc42b1c8122" x="138.587817" y="361.923013" style="fill: #dc2626; stroke: #dc2626"/>
     <use xlink:href="#mc42b1c8122" x="139.98719" y="360.781265" style="fill: #dc2626; stroke: #dc2626"/>
     <use xlink:href="#mc42b1c8122" x="139.98719" y="359.639518" style="fill: #dc2626; stroke: #dc2626"/>
     <use xlink:href="#mc42b1c8122" x="144.185309" y="357.356022" style="fill: #dc2626; stroke: #dc2626"/>
     <use xlink:href="#mc42b1c8122" x="147.683742" y="355.072527" style="fill: #dc2626; stroke: #dc2626"/>
     <use xlink:href="#mc42b1c8122" x="148.383428" y="349.363789" style="fill: #dc2626; stroke: #dc2626"/>
     <use xlink:href="#mc42b1c8122" x="156.07998" y="347.080294" style="fill: #dc2626; stroke: #dc2626"/>
     <use xlink:href="#mc42b1c8122" x="157.479353" y="345.938547" style="fill: #dc2626; stroke: #dc2626"/>
     <use xlink:href="#mc42b1c8122" x="158.179039" y="342.513304" style="fill: #dc2626; stroke: #dc2626"/>
     <use xlink:href="#mc42b1c8122" x="159.578413" y="341.371556" style="fill: #dc2626; stroke: #dc2626"/>
     <use xlink:href="#mc42b1c8122" x="167.274964" y="335.662819" style="fill: #dc2626; stroke: #dc2626"/>
     <use xlink:href="#mc42b1c8122" x="173.572143" y="334.521071" style="fill: #dc2626; stroke: #dc2626"/>
     <use xlink:href="#mc42b1c8122" x="174.971516" y="331.095828" style="fill: #dc2626; stroke: #dc2626"/>
     <use xlink:href="#mc42b1c8122" x="175.671202" y="325.38709" style="fill: #dc2626; stroke: #dc2626"/>
     <use xlink:href="#mc42b1c8122" x="177.770262" y="321.961848" style="fill: #dc2626; stroke: #dc2626"/>
     <use xlink:href="#mc42b1c8122" x="179.169635" y="320.8201" style="fill: #dc2626; stroke: #dc2626"/>
     <use xlink:href="#mc42b1c8122" x="188.26556" y="319.678353" style="fill: #dc2626; stroke: #dc2626"/>
     <use xlink:href="#mc42b1c8122" x="190.364619" y="316.25311" style="fill: #dc2626; stroke: #dc2626"/>
     <use xlink:href="#mc42b1c8122" x="193.863052" y="315.111362" style="fill: #dc2626; stroke: #dc2626"/>
     <use xlink:href="#mc42b1c8122" x="198.061171" y="312.827867" style="fill: #dc2626; stroke: #dc2626"/>
     <use xlink:href="#mc42b1c8122" x="202.25929" y="308.260877" style="fill: #dc2626; stroke: #dc2626"/>
     <use xlink:href="#mc42b1c8122" x="205.058036" y="304.835634" style="fill: #dc2626; stroke: #dc2626"/>
     <use xlink:href="#mc42b1c8122" x="206.457409" y="302.552139" style="fill: #dc2626; stroke: #dc2626"/>
     <use xlink:href="#mc42b1c8122" x="219.051767" y="295.701654" style="fill: #dc2626; stroke: #dc2626"/>
     <use xlink:href="#mc42b1c8122" x="219.051767" y="294.559906" style="fill: #dc2626; stroke: #dc2626"/>
     <use xlink:href="#mc42b1c8122" x="225.348945" y="293.418158" style="fill: #dc2626; stroke: #dc2626"/>
     <use xlink:href="#mc42b1c8122" x="227.448005" y="291.134663" style="fill: #dc2626; stroke: #dc2626"/>
     <use xlink:href="#mc42b1c8122" x="228.847378" y="286.567673" style="fill: #dc2626; stroke: #dc2626"/>
     <use xlink:href="#mc42b1c8122" x="229.547065" y="284.284178" style="fill: #dc2626; stroke: #dc2626"/>
     <use xlink:href="#mc42b1c8122" x="230.246751" y="283.14243" style="fill: #dc2626; stroke: #dc2626"/>
     <use xlink:href="#mc42b1c8122" x="230.946438" y="282.000683" style="fill: #dc2626; stroke: #dc2626"/>
     <use xlink:href="#mc42b1c8122" x="237.943303" y="280.858935" style="fill: #dc2626; stroke: #dc2626"/>
     <use xlink:href="#mc42b1c8122" x="238.642989" y="279.717187" style="fill: #dc2626; stroke: #dc2626"/>
     <use xlink:href="#mc42b1c8122" x="248.438601" y="278.57544" style="fill: #dc2626; stroke: #dc2626"/>
     <use xlink:href="#mc42b1c8122" x="248.438601" y="277.433692" style="fill: #dc2626; stroke: #dc2626"/>
     <use xlink:href="#mc42b1c8122" x="248.438601" y="276.291945" style="fill: #dc2626; stroke: #dc2626"/>
     <use xlink:href="#mc42b1c8122" x="251.237347" y="275.150197" style="fill: #dc2626; stroke: #dc2626"/>
     <use xlink:href="#mc42b1c8122" x="261.032958" y="271.724954" style="fill: #dc2626; stroke: #dc2626"/>
     <use xlink:href="#mc42b1c8122" x="262.432331" y="270.583207" style="fill: #dc2626; stroke: #dc2626"/>
     <use xlink:href="#mc42b1c8122" x="275.026688" y="268.299712" style="fill: #dc2626; stroke: #dc2626"/>
     <use xlink:href="#mc42b1c8122" x="276.426061" y="267.157964" style="fill: #dc2626; stroke: #dc2626"/>
     <use xlink:href="#mc42b1c8122" x="280.624181" y="266.016217" style="fill: #dc2626; stroke: #dc2626"/>
     <use xlink:href="#mc42b1c8122" x="283.422927" y="264.874469" style="fill: #dc2626; stroke: #dc2626"/>
     <use xlink:href="#mc42b1c8122" x="370.883742" y="263.732721" style="fill: #dc2626; stroke: #dc2626"/>
     <use xlink:href="#mc42b1c8122" x="372.982801" y="262.590974" style="fill: #dc2626; stroke: #dc2626"/>
     <use xlink:href="#mc42b1c8122" x="376.481234" y="261.449226" style="fill: #dc2626; stroke: #dc2626"/>
     <use xlink:href="#mc42b1c8122" x="391.874337" y="260.307479" style="fill: #dc2626; stroke: #dc2626"/>
    </g>
   </g>
   <g id="patch_3">
    <path d="M 85.936406 414.957187 
L 85.936406 26.877187 
" style="fill: none; stroke: #cccccc; stroke-width: 1.25; stroke-linejoin: miter; stroke-linecap: square"/>
   </g>
   <g id="patch_4">
    <path d="M 643.936406 414.957187 
L 643.936406 26.877187 
" style="fill: none; stroke: #cccccc; stroke-width: 1.25; stroke-linejoin: miter; stroke-linecap: square"/>
   </g>
   <g id="patch_5">
    <path d="M 85.936406 414.957187 
L 643.936406 414.957187 
" style="fill: none; stroke: #cccccc; stroke-width: 1.25; stroke-linejoin: miter; stroke-linecap: square"/>
   </g>
   <g id="patch_6">
    <path d="M 85.936406 26.877187 
L 643.936406 26.877187 
" style="fill: none; stroke: #cccccc; stroke-width: 1.25; stroke-linejoin: miter; stroke-linecap: square"/>
   </g>
   <g id="text_18">
    <!-- Pareto Frontiers: Score vs Overhead — CN -->
    <g style="fill: #262626" transform="translate(175.738125 20.877187) scale(0.18 -0.18)">
     <defs>
      <path id="DejaVuSans-33" d="M 1259 4147 
L 1259 2394 
L 2053 2394 
Q 2494 2394 2734 2622 
Q 2975 2850 2975 3272 
Q 2975 3691 2734 3919 
Q 2494 4147 2053 4147 
L 1259 4147 
z
M 628 4666 
L 2053 4666 
Q 2838 4666 3239 4311 
Q 3641 3956 3641 3272 
Q 3641 2581 3239 2228 
Q 2838 1875 2053 1875 
L 1259 1875 
L 1259 0 
L 628 0 
L 628 4666 
z
" transform="scale(0.015625)"/>
      <path id="DejaVuSans-57" d="M 1172 4494 
L 1172 3500 
L 2356 3500 
L 2356 3053 
L 1172 3053 
L 1172 1153 
Q 1172 725 1289 603 
Q 1406 481 1766 481 
L 2356 481 
L 2356 0 
L 1766 0 
Q 1100 0 847 248 
Q 594 497 594 1153 
L 594 3053 
L 172 3053 
L 172 3500 
L 594 3500 
L 594 4494 
L 1172 4494 
z
" transform="scale(0.015625)"/>
      <path id="DejaVuSans-29" d="M 628 4666 
L 3309 4666 
L 3309 4134 
L 1259 4134 
L 1259 2759 
L 3109 2759 
L 3109 2228 
L 1259 2228 
L 1259 0 
L 628 0 
L 628 4666 
z
" transform="scale(0.015625)"/>
      <path id="DejaVuSans-51" d="M 3513 2113 
L 3513 0 
L 2938 0 
L 2938 2094 
Q 2938 2591 2744 2837 
Q 2550 3084 2163 3084 
Q 1697 3084 1428 2787 
Q 1159 2491 1159 1978 
L 1159 0 
L 581 0 
L 581 3500 
L 1159 3500 
L 1159 2956 
Q 1366 3272 1645 3428 
Q 1925 3584 2291 3584 
Q 2894 3584 3203 3211 
Q 3513 2838 3513 2113 
z
" transform="scale(0.015625)"/>
      <path id="DejaVuSans-56" d="M 2834 3397 
L 2834 2853 
Q 2591 2978 2328 3040 
Q 2066 3103 1784 3103 
Q 1356 3103 1142 2972 
Q 928 2841 928 2578 
Q 928 2378 1081 2264 
Q 1234 2150 1697 2047 
L 1894 2003 
Q 2506 1872 2764 1633 
Q 3022 1394 3022 966 
Q 3022 478 2636 193 
Q 2250 -91 1575 -91 
Q 1294 -91 989 -36 
Q 684 19 347 128 
L 347 722 
Q 666 556 975 473 
Q 1284 391 1588 391 
Q 1994 391 2212 530 
Q 2431 669 2431 922 
Q 2431 1156 2273 1281 
Q 2116 1406 1581 1522 
L 1381 1569 
Q 847 1681 609 1914 
Q 372 2147 372 2553 
Q 372 3047 722 3315 
Q 1072 3584 1716 3584 
Q 2034 3584 2315 3537 
Q 2597 3491 2834 3397 
z
" transform="scale(0.015625)"/>
      <path id="DejaVuSans-1d" d="M 750 794 
L 1409 794 
L 1409 0 
L 750 0 
L 750 794 
z
M 750 3309 
L 1409 3309 
L 1409 2516 
L 750 2516 
L 750 3309 
z
" transform="scale(0.015625)"/>
      <path id="DejaVuSans-af6" d="M 313 1978 
L 6088 1978 
L 6088 1528 
L 313 1528 
L 313 1978 
z
" transform="scale(0.015625)"/>
      <path id="DejaVuSans-26" d="M 4122 4306 
L 4122 3641 
Q 3803 3938 3442 4084 
Q 3081 4231 2675 4231 
Q 1875 4231 1450 3742 
Q 1025 3253 1025 2328 
Q 1025 1406 1450 917 
Q 1875 428 2675 428 
Q 3081 428 3442 575 
Q 3803 722 4122 1019 
L 4122 359 
Q 3791 134 3420 21 
Q 3050 -91 2638 -91 
Q 1578 -91 968 557 
Q 359 1206 359 2328 
Q 359 3453 968 4101 
Q 1578 4750 2638 4750 
Q 3056 4750 3426 4639 
Q 3797 4528 4122 4306 
z
" transform="scale(0.015625)"/>
      <path id="DejaVuSans-31" d="M 628 4666 
L 1478 4666 
L 3547 763 
L 3547 4666 
L 4159 4666 
L 4159 0 
L 3309 0 
L 1241 3903 
L 1241 0 
L 628 0 
L 628 4666 
z
" transform="scale(0.015625)"/>
     </defs>
     <use xlink:href="#DejaVuSans-33"/>
     <use xlink:href="#DejaVuSans-44" transform="translate(55.8125 0)"/>
     <use xlink:href="#DejaVuSans-55" transform="translate(117.09375 0)"/>
     <use xlink:href="#DejaVuSans-48" transform="translate(156 0)"/>
     <use xlink:href="#DejaVuSans-57" transform="translate(217.53125 0)"/>
     <use xlink:href="#DejaVuSans-52" transform="translate(256.734375 0)"/>
     <use xlink:href="#DejaVuSans-3" transform="translate(317.921875 0)"/>
     <use xlink:href="#DejaVuSans-29" transform="translate(349.703125 0)"/>
     <use xlink:href="#DejaVuSans-55" transform="translate(399.9375 0)"/>
     <use xlink:href="#DejaVuSans-52" transform="translate(438.84375 0)"/>
     <use xlink:href="#DejaVuSans-51" transform="translate(500.03125 0)"/>
     <use xlink:href="#DejaVuSans-57" transform="translate(563.40625 0)"/>
     <use xlink:href="#DejaVuSans-4c" transform="translate(602.609375 0)"/>
     <use xlink:href="#DejaVuSans-48" transform="translate(630.390625 0)"/>
     <use xlink:href="#DejaVuSans-55" transform="translate(691.921875 0)"/>
     <use xlink:href="#DejaVuSans-56" transform="translate(733.03125 0)"/>
     <use xlink:href="#DejaVuSans-1d" transform="translate(785.125 0)"/>
     <use xlink:href="#DejaVuSans-3" transform="translate(818.8125 0)"/>
     <use xlink:href="#DejaVuSans-36" transform="translate(850.59375 0)"/>
     <use xlink:href="#DejaVuSans-46" transform="translate(914.078125 0)"/>
     <use xlink:href="#DejaVuSans-52" transform="translate(969.0625 0)"/>
     <use xlink:href="#DejaVuSans-55" transform="translate(1030.25 0)"/>
     <use xlink:href="#DejaVuSans-48" transform="translate(1069.15625 0)"/>
     <use xlink:href="#DejaVuSans-3" transform="translate(1130.6875 0)"/>
     <use xlink:href="#DejaVuSans-59" transform="translate(1162.46875 0)"/>
     <use xlink:href="#DejaVuSans-56" transform="translate(1221.65625 0)"/>
     <use xlink:href="#DejaVuSans-3" transform="translate(1273.75 0)"/>
     <use xlink:href="#DejaVuSans-32" transform="translate(1305.53125 0)"/>
     <use xlink:href="#DejaVuSans-59" transform="translate(1384.25 0)"/>
     <use xlink:href="#DejaVuSans-48" transform="translate(1443.4375 0)"/>
     <use xlink:href="#DejaVuSans-55" transform="translate(1504.96875 0)"/>
     <use xlink:href="#DejaVuSans-4b" transform="translate(1544.328125 0)"/>
     <use xlink:href="#DejaVuSans-48" transform="translate(1607.703125 0)"/>
     <use xlink:href="#DejaVuSans-44" transform="translate(1669.234375 0)"/>
     <use xlink:href="#DejaVuSans-47" transform="translate(1730.515625 0)"/>
     <use xlink:href="#DejaVuSans-3" transform="translate(1794 0)"/>
     <use xlink:href="#DejaVuSans-af6" transform="translate(1825.78125 0)"/>
     <use xlink:href="#DejaVuSans-3" transform="translate(1925.78125 0)"/>
     <use xlink:href="#DejaVuSans-26" transform="translate(1957.5625 0)"/>
     <use xlink:href="#DejaVuSans-31" transform="translate(2027.390625 0)"/>
    </g>
   </g>
   <g id="legend_1">
    <g id="patch_7">
     <path d="M 490.396406 410.457187 
L 637.636406 410.457187 
Q 639.436406 410.457187 639.436406 408.657187 
L 639.436406 355.554375 
Q 639.436406 353.754375 637.636406 353.754375 
L 490.396406 353.754375 
Q 488.596406 353.754375 488.596406 355.554375 
L 488.596406 408.657187 
Q 488.596406 410.457187 490.396406 410.457187 
z
" style="fill: #ffffff; opacity: 0.8; stroke: #cccccc; stroke-linejoin: miter"/>
    </g>
    <g id="line2d_18">
     <path d="M 492.196406 361.042969 
L 501.196406 361.042969 
L 510.196406 361.042969 
" style="fill: none; stroke: #2563eb; stroke-width: 2; stroke-linecap: round"/>
     <g>
      <use xlink:href="#m66fe56e502" x="501.196406" y="361.042969" style="fill: #2563eb; stroke: #2563eb"/>
     </g>
    </g>
    <g id="text_19">
     <!-- DeepSeek V3 frontier -->
     <g style="fill: #262626" transform="translate(517.396406 364.192969) scale(0.09 -0.09)">
      <defs>
       <path id="DejaVuSans-27" d="M 1259 4147 
L 1259 519 
L 2022 519 
Q 2988 519 3436 956 
Q 3884 1394 3884 2338 
Q 3884 3275 3436 3711 
Q 2988 4147 2022 4147 
L 1259 4147 
z
M 628 4666 
L 1925 4666 
Q 3281 4666 3915 4102 
Q 4550 3538 4550 2338 
Q 4550 1131 3912 565 
Q 3275 0 1925 0 
L 628 0 
L 628 4666 
z
" transform="scale(0.015625)"/>
       <path id="DejaVuSans-53" d="M 1159 525 
L 1159 -1331 
L 581 -1331 
L 581 3500 
L 1159 3500 
L 1159 2969 
Q 1341 3281 1617 3432 
Q 1894 3584 2278 3584 
Q 2916 3584 3314 3078 
Q 3713 2572 3713 1747 
Q 3713 922 3314 415 
Q 2916 -91 2278 -91 
Q 1894 -91 1617 61 
Q 1341 213 1159 525 
z
M 3116 1747 
Q 3116 2381 2855 2742 
Q 2594 3103 2138 3103 
Q 1681 3103 1420 2742 
Q 1159 2381 1159 1747 
Q 1159 1113 1420 752 
Q 1681 391 2138 391 
Q 2594 391 2855 752 
Q 3116 1113 3116 1747 
z
" transform="scale(0.015625)"/>
       <path id="DejaVuSans-4e" d="M 581 4863 
L 1159 4863 
L 1159 1991 
L 2875 3500 
L 3609 3500 
L 1753 1863 
L 3688 0 
L 2938 0 
L 1159 1709 
L 1159 0 
L 581 0 
L 581 4863 
z
" transform="scale(0.015625)"/>
       <path id="DejaVuSans-39" d="M 1831 0 
L 50 4666 
L 709 4666 
L 2188 738 
L 3669 4666 
L 4325 4666 
L 2547 0 
L 1831 0 
z
" transform="scale(0.015625)"/>
       <path id="DejaVuSans-49" d="M 2375 4863 
L 2375 4384 
L 1825 4384 
Q 1516 4384 1395 4259 
Q 1275 4134 1275 3809 
L 1275 3500 
L 2222 3500 
L 2222 3053 
L 1275 3053 
L 1275 0 
L 697 0 
L 697 3053 
L 147 3053 
L 147 3500 
L 697 3500 
L 697 3744 
Q 697 4328 969 4595 
Q 1241 4863 1831 4863 
L 2375 4863 
z
" transform="scale(0.015625)"/>
      </defs>
      <use xlink:href="#DejaVuSans-27"/>
      <use xlink:href="#DejaVuSans-48" transform="translate(77 0)"/>
      <use xlink:href="#DejaVuSans-48" transform="translate(138.53125 0)"/>
      <use xlink:href="#DejaVuSans-53" transform="translate(200.0625 0)"/>
      <use xlink:href="#DejaVuSans-36" transform="translate(263.546875 0)"/>
      <use xlink:href="#DejaVuSans-48" transform="translate(327.03125 0)"/>
      <use xlink:href="#DejaVuSans-48" transform="translate(388.5625 0)"/>
      <use xlink:href="#DejaVuSans-4e" transform="translate(450.09375 0)"/>
      <use xlink:href="#DejaVuSans-3" transform="translate(508 0)"/>
      <use xlink:href="#DejaVuSans-39" transform="translate(539.78125 0)"/>
      <use xlink:href="#DejaVuSans-16" transform="translate(608.1875 0)"/>
      <use xlink:href="#DejaVuSans-3" transform="translate(671.8125 0)"/>
      <use xlink:href="#DejaVuSans-49" transform="translate(703.59375 0)"/>
      <use xlink:href="#DejaVuSans-55" transform="translate(738.796875 0)"/>
      <use xlink:href="#DejaVuSans-52" transform="translate(777.703125 0)"/>
      <use xlink:href="#DejaVuSans-51" transform="translate(838.890625 0)"/>
      <use xlink:href="#DejaVuSans-57" transform="translate(902.265625 0)"/>
      <use xlink:href="#DejaVuSans-4c" transform="translate(941.46875 0)"/>
      <use xlink:href="#DejaVuSans-48" transform="translate(969.25 0)"/>
      <use xlink:href="#DejaVuSans-55" transform="translate(1030.78125 0)"/>
     </g>
    </g>
    <g id="PathCollection_1">
     <defs>
      <path id="mb8c8e9b7a3" d="M 0 -7.071068 
L -1.587554 -2.18508 
L -6.724985 -2.18508 
L -2.568716 0.834626 
L -4.156269 5.720614 
L -0 2.700907 
L 4.156269 5.720614 
L 2.568716 0.834626 
L 6.724985 -2.18508 
L 1.587554 -2.18508 
z
" style="stroke: #000000"/>
     </defs>
     <g>
      <use xlink:href="#mb8c8e9b7a3" x="501.196406" y="375.331172" style="fill: #ff0000; stroke: #000000"/>
     </g>
    </g>
    <g id="text_20">
     <!-- DeepSeek V3 best (0.531) -->
     <g style="fill: #262626" transform="translate(517.396406 377.693672) scale(0.09 -0.09)">
      <defs>
       <path id="DejaVuSans-45" d="M 3116 1747 
Q 3116 2381 2855 2742 
Q 2594 3103 2138 3103 
Q 1681 3103 1420 2742 
Q 1159 2381 1159 1747 
Q 1159 1113 1420 752 
Q 1681 391 2138 391 
Q 2594 391 2855 752 
Q 3116 1113 3116 1747 
z
M 1159 2969 
Q 1341 3281 1617 3432 
Q 1894 3584 2278 3584 
Q 2916 3584 3314 3078 
Q 3713 2572 3713 1747 
Q 3713 922 3314 415 
Q 2916 -91 2278 -91 
Q 1894 -91 1617 61 
Q 1341 213 1159 525 
L 1159 0 
L 581 0 
L 581 4863 
L 1159 4863 
L 1159 2969 
z
" transform="scale(0.015625)"/>
      </defs>
      <use xlink:href="#DejaVuSans-27"/>
      <use xlink:href="#DejaVuSans-48" transform="translate(77 0)"/>
      <use xlink:href="#DejaVuSans-48" transform="translate(138.53125 0)"/>
      <use xlink:href="#DejaVuSans-53" transform="translate(200.0625 0)"/>
      <use xlink:href="#DejaVuSans-36" transform="translate(263.546875 0)"/>
      <use xlink:href="#DejaVuSans-48" transform="translate(327.03125 0)"/>
      <use xlink:href="#DejaVuSans-48" transform="translate(388.5625 0)"/>
      <use xlink:href="#DejaVuSans-4e" transform="translate(450.09375 0)"/>
      <use xlink:href="#DejaVuSans-3" transform="translate(508 0)"/>
      <use xlink:href="#DejaVuSans-39" transform="translate(539.78125 0)"/>
      <use xlink:href="#DejaVuSans-16" transform="translate(608.1875 0)"/>
      <use xlink:href="#DejaVuSans-3" transform="translate(671.8125 0)"/>
      <use xlink:href="#DejaVuSans-45" transform="translate(703.59375 0)"/>
      <use xlink:href="#DejaVuSans-48" transform="translate(767.078125 0)"/>
      <use xlink:href="#DejaVuSans-56" transform="translate(828.609375 0)"/>
      <use xlink:href="#DejaVuSans-57" transform="translate(880.703125 0)"/>
      <use xlink:href="#DejaVuSans-3" transform="translate(919.90625 0)"/>
      <use xlink:href="#DejaVuSans-b" transform="translate(951.6875 0)"/>
      <use xlink:href="#DejaVuSans-13" transform="translate(990.703125 0)"/>
      <use xlink:href="#DejaVuSans-11" transform="translate(1054.328125 0)"/>
      <use xlink:href="#DejaVuSans-18" transform="translate(1086.109375 0)"/>
      <use xlink:href="#DejaVuSans-16" transform="translate(1149.734375 0)"/>
      <use xlink:href="#DejaVuSans-14" transform="translate(1213.359375 0)"/>
      <use xlink:href="#DejaVuSans-c" transform="translate(1276.984375 0)"/>
     </g>
    </g>
    <g id="line2d_19">
     <path d="M 492.196406 388.044375 
L 501.196406 388.044375 
L 510.196406 388.044375 
" style="fill: none; stroke: #dc2626; stroke-width: 2; stroke-linecap: round"/>
     <g>
      <use xlink:href="#mc42b1c8122" x="501.196406" y="388.044375" style="fill: #dc2626; stroke: #dc2626"/>
     </g>
    </g>
    <g id="text_21">
     <!-- Kimi K2 frontier -->
     <g style="fill: #262626" transform="translate(517.396406 391.194375) scale(0.09 -0.09)">
      <defs>
       <path id="DejaVuSans-2e" d="M 628 4666 
L 1259 4666 
L 1259 2694 
L 3353 4666 
L 4166 4666 
L 1850 2491 
L 4331 0 
L 3500 0 
L 1259 2247 
L 1259 0 
L 628 0 
L 628 4666 
z
" transform="scale(0.015625)"/>
      </defs>
      <use xlink:href="#DejaVuSans-2e"/>
      <use xlink:href="#DejaVuSans-4c" transform="translate(65.578125 0)"/>
      <use xlink:href="#DejaVuSans-50" transform="translate(93.359375 0)"/>
      <use xlink:href="#DejaVuSans-4c" transform="translate(190.765625 0)"/>
      <use xlink:href="#DejaVuSans-3" transform="translate(218.546875 0)"/>
      <use xlink:href="#DejaVuSans-2e" transform="translate(250.328125 0)"/>
      <use xlink:href="#DejaVuSans-15" transform="translate(315.90625 0)"/>
      <use xlink:href="#DejaVuSans-3" transform="translate(379.53125 0)"/>
      <use xlink:href="#DejaVuSans-49" transform="translate(411.3125 0)"/>
      <use xlink:href="#DejaVuSans-55" transform="translate(446.515625 0)"/>
      <use xlink:href="#DejaVuSans-52" transform="translate(485.421875 0)"/>
      <use xlink:href="#DejaVuSans-51" transform="translate(546.609375 0)"/>
      <use xlink:href="#DejaVuSans-57" transform="translate(609.984375 0)"/>
      <use xlink:href="#DejaVuSans-4c" transform="translate(649.1875 0)"/>
      <use xlink:href="#DejaVuSans-48" transform="translate(676.96875 0)"/>
      <use xlink:href="#DejaVuSans-55" transform="translate(738.5 0)"/>
     </g>
    </g>
    <g id="PathCollection_2">
     <g>
      <use xlink:href="#mb8c8e9b7a3" x="501.196406" y="402.332578" style="fill: #ff0000; stroke: #000000"/>
     </g>
    </g>
    <g id="text_22">
     <!-- Kimi K2 best (0.512) -->
     <g style="fill: #262626" transform="translate(517.396406 404.695078) scale(0.09 -0.09)">
      <use xlink:href="#DejaVuSans-2e"/>
      <use xlink:href="#DejaVuSans-4c" transform="translate(65.578125 0)"/>
      <use xlink:href="#DejaVuSans-50" transform="translate(93.359375 0)"/>
      <use xlink:href="#DejaVuSans-4c" transform="translate(190.765625 0)"/>
      <use xlink:href="#DejaVuSans-3" transform="translate(218.546875 0)"/>
      <use xlink:href="#DejaVuSans-2e" transform="translate(250.328125 0)"/>
      <use xlink:href="#DejaVuSans-15" transform="translate(315.90625 0)"/>
      <use xlink:href="#DejaVuSans-3" transform="translate(379.53125 0)"/>
      <use xlink:href="#DejaVuSans-45" transform="translate(411.3125 0)"/>
      <use xlink:href="#DejaVuSans-48" transform="translate(474.796875 0)"/>
      <use xlink:href="#DejaVuSans-56" transform="translate(536.328125 0)"/>
      <use xlink:href="#DejaVuSans-57" transform="translate(588.421875 0)"/>
      <use xlink:href="#DejaVuSans-3" transform="translate(627.625 0)"/>
      <use xlink:href="#DejaVuSans-b" transform="translate(659.40625 0)"/>
      <use xlink:href="#DejaVuSans-13" transform="translate(698.421875 0)"/>
      <use xlink:href="#DejaVuSans-11" transform="translate(762.046875 0)"/>
      <use xlink:href="#DejaVuSans-18" transform="translate(793.828125 0)"/>
      <use xlink:href="#DejaVuSans-14" transform="translate(857.453125 0)"/>
      <use xlink:href="#DejaVuSans-15" transform="translate(921.078125 0)"/>
      <use xlink:href="#DejaVuSans-c" transform="translate(984.703125 0)"/>
     </g>
    </g>
   </g>
   <g id="PathCollection_3">
    <g clip-path="url(#pcb2d3ca4d4)">
     <use xlink:href="#mb8c8e9b7a3" x="618.57277" y="44.517187" style="fill: #ff0000; stroke: #000000"/>
    </g>
   </g>
   <g id="PathCollection_4">
    <g clip-path="url(#pcb2d3ca4d4)">
     <use xlink:href="#mb8c8e9b7a3" x="391.874337" y="260.307479" style="fill: #ff0000; stroke: #000000"/>
    </g>
   </g>
  </g>
 </g>
 <defs>
  <clipPath id="pcb2d3ca4d4">
   <rect x="85.936406" y="26.877187" width="558" height="388.08"/>
  </clipPath>
 </defs>
</svg>
