<?xml version="1.0" encoding="utf-8" standalone="no"?>
<!DOCTYPE svg PUBLIC "-//W3C//DTD SVG 1.1//EN"
  "http://www.w3.org/Graphics/SVG/1.1/DTD/svg11.dtd">
<svg xmlns:xlink="http://www.w3.org/1999/xlink" width="863.838281pt" height="581.038594pt" viewBox="0 0 863.838281 581.038594" xmlns="http://www.w3.org/2000/svg" version="1.1">
 <metadata>
  <rdf:RDF xmlns:dc="http://purl.org/dc/elements/1.1/" xmlns:cc="http://creativecommons.org/ns#" xmlns:rdf="http://www.w3.org/1999/02/22-rdf-syntax-ns#">
   <cc:Work>
    <dc:type rdf:resource="http://purl.org/dc/dcmitype/StillImage"/>
    <dc:date>2026-07-16T18:12:42.114628</dc:date>
    <dc:format>image/svg+xml</dc:format>
    <dc:creator>
     <cc:Agent>
      <dc:title>Matplotlib v3.11.0, https://matplotlib.org/</dc:title>
     </cc:Agent>
    </dc:creator>
   </cc:Work>
  </rdf:RDF>
 </metadata>
 <defs>
  <style type="text/css">*{stroke-linejoin: round; stroke-linecap: butt}</style>
 </defs>
 <g id="figure_1">
  <g id="patch_1">
   <path d="M 0 581.038594 
L 863.838281 581.038594 
L 863.838281 0 
L 0 0 
z
" style="fill: #ffffff"/>
  </g>
  <g id="axes_1">
   <g id="patch_2">
    <path d="M 75.438281 525.837188 
L 856.638281 525.837188 
L 856.638281 26.877187 
L 75.438281 26.877187 
z
" style="fill: #ffffff"/>
   </g>
   <g id="matplotlib.axis_1">
    <g id="xtick_1">
     <g id="line2d_1">
      <path d="M 110.947372 525.837188 
L 110.947372 26.877187 
" clip-path="url(#pf7b1c48bad)" style="fill: none; stroke: #cccccc; stroke-opacity: 0.3; stroke-linecap: round"/>
     </g>
     <g id="text_1">
      <!-- 0 -->
      <g style="fill: #262626" transform="translate(105.69831 547.87332) scale(0.165 -0.165)">
       <defs>
        <path id="DejaVuSans-13" d="M 2034 4250 
Q 1547 4250 1301 3770 
Q 1056 3291 1056 2328 
Q 1056 1369 1301 889 
Q 1547 409 2034 409 
Q 2525 409 2770 889 
Q 3016 1369 3016 2328 
Q 3016 3291 2770 3770 
Q 2525 4250 2034 4250 
z
M 2034 4750 
Q 2819 4750 3233 4129 
Q 3647 3509 3647 2328 
Q 3647 1150 3233 529 
Q 2819 -91 2034 -91 
Q 1250 -91 836 529 
Q 422 1150 422 2328 
Q 422 3509 836 4129 
Q 1250 4750 2034 4750 
z
" transform="scale(0.015625)"/>
       </defs>
       <use xlink:href="#DejaVuSans-13"/>
      </g>
     </g>
    </g>
    <g id="xtick_2">
     <g id="line2d_2">
      <path d="M 189.856463 525.837188 
L 189.856463 26.877187 
" clip-path="url(#pf7b1c48bad)" style="fill: none; stroke: #cccccc; stroke-opacity: 0.3; stroke-linecap: round"/>
     </g>
     <g id="text_2">
      <!-- 1 -->
      <g style="fill: #262626" transform="translate(184.607401 547.87332) scale(0.165 -0.165)">
       <defs>
        <path id="DejaVuSans-14" d="M 794 531 
L 1825 531 
L 1825 4091 
L 703 3866 
L 703 4441 
L 1819 4666 
L 2450 4666 
L 2450 531 
L 3481 531 
L 3481 0 
L 794 0 
L 794 531 
z
" transform="scale(0.015625)"/>
       </defs>
       <use xlink:href="#DejaVuSans-14"/>
      </g>
     </g>
    </g>
    <g id="xtick_3">
     <g id="line2d_3">
      <path d="M 268.765554 525.837188 
L 268.765554 26.877187 
" clip-path="url(#pf7b1c48bad)" style="fill: none; stroke: #cccccc; stroke-opacity: 0.3; stroke-linecap: round"/>
     </g>
     <g id="text_3">
      <!-- 2 -->
      <g style="fill: #262626" transform="translate(263.516491 547.87332) scale(0.165 -0.165)">
       <defs>
        <path id="DejaVuSans-15" d="M 1228 531 
L 3431 531 
L 3431 0 
L 469 0 
L 469 531 
Q 828 903 1448 1529 
Q 2069 2156 2228 2338 
Q 2531 2678 2651 2914 
Q 2772 3150 2772 3378 
Q 2772 3750 2511 3984 
Q 2250 4219 1831 4219 
Q 1534 4219 1204 4116 
Q 875 4013 500 3803 
L 500 4441 
Q 881 4594 1212 4672 
Q 1544 4750 1819 4750 
Q 2544 4750 2975 4387 
Q 3406 4025 3406 3419 
Q 3406 3131 3298 2873 
Q 3191 2616 2906 2266 
Q 2828 2175 2409 1742 
Q 1991 1309 1228 531 
z
" transform="scale(0.015625)"/>
       </defs>
       <use xlink:href="#DejaVuSans-15"/>
      </g>
     </g>
    </g>
    <g id="xtick_4">
     <g id="line2d_4">
      <path d="M 347.674645 525.837188 
L 347.674645 26.877187 
" clip-path="url(#pf7b1c48bad)" style="fill: none; stroke: #cccccc; stroke-opacity: 0.3; stroke-linecap: round"/>
     </g>
     <g id="text_4">
      <!-- 3 -->
      <g style="fill: #262626" transform="translate(342.425582 547.87332) scale(0.165 -0.165)">
       <defs>
        <path id="DejaVuSans-16" d="M 2597 2516 
Q 3050 2419 3304 2112 
Q 3559 1806 3559 1356 
Q 3559 666 3084 287 
Q 2609 -91 1734 -91 
Q 1441 -91 1130 -33 
Q 819 25 488 141 
L 488 750 
Q 750 597 1062 519 
Q 1375 441 1716 441 
Q 2309 441 2620 675 
Q 2931 909 2931 1356 
Q 2931 1769 2642 2001 
Q 2353 2234 1838 2234 
L 1294 2234 
L 1294 2753 
L 1863 2753 
Q 2328 2753 2575 2939 
Q 2822 3125 2822 3475 
Q 2822 3834 2567 4026 
Q 2313 4219 1838 4219 
Q 1578 4219 1281 4162 
Q 984 4106 628 3988 
L 628 4550 
Q 988 4650 1302 4700 
Q 1616 4750 1894 4750 
Q 2613 4750 3031 4423 
Q 3450 4097 3450 3541 
Q 3450 3153 3228 2886 
Q 3006 2619 2597 2516 
z
" transform="scale(0.015625)"/>
       </defs>
       <use xlink:href="#DejaVuSans-16"/>
      </g>
     </g>
    </g>
    <g id="xtick_5">
     <g id="line2d_5">
      <path d="M 426.583736 525.837188 
L 426.583736 26.877187 
" clip-path="url(#pf7b1c48bad)" style="fill: none; stroke: #cccccc; stroke-opacity: 0.3; stroke-linecap: round"/>
     </g>
     <g id="text_5">
      <!-- 4 -->
      <g style="fill: #262626" transform="translate(421.334673 547.87332) scale(0.165 -0.165)">
       <defs>
        <path id="DejaVuSans-17" d="M 2419 4116 
L 825 1625 
L 2419 1625 
L 2419 4116 
z
M 2253 4666 
L 3047 4666 
L 3047 1625 
L 3713 1625 
L 3713 1100 
L 3047 1100 
L 3047 0 
L 2419 0 
L 2419 1100 
L 313 1100 
L 313 1709 
L 2253 4666 
z
" transform="scale(0.015625)"/>
       </defs>
       <use xlink:href="#DejaVuSans-17"/>
      </g>
     </g>
    </g>
    <g id="xtick_6">
     <g id="line2d_6">
      <path d="M 505.492827 525.837188 
L 505.492827 26.877187 
" clip-path="url(#pf7b1c48bad)" style="fill: none; stroke: #cccccc; stroke-opacity: 0.3; stroke-linecap: round"/>
     </g>
     <g id="text_6">
      <!-- 5 -->
      <g style="fill: #262626" transform="translate(500.243764 547.87332) scale(0.165 -0.165)">
       <defs>
        <path id="DejaVuSans-18" d="M 691 4666 
L 3169 4666 
L 3169 4134 
L 1269 4134 
L 1269 2991 
Q 1406 3038 1543 3061 
Q 1681 3084 1819 3084 
Q 2600 3084 3056 2656 
Q 3513 2228 3513 1497 
Q 3513 744 3044 326 
Q 2575 -91 1722 -91 
Q 1428 -91 1123 -41 
Q 819 9 494 109 
L 494 744 
Q 775 591 1075 516 
Q 1375 441 1709 441 
Q 2250 441 2565 725 
Q 2881 1009 2881 1497 
Q 2881 1984 2565 2268 
Q 2250 2553 1709 2553 
Q 1456 2553 1204 2497 
Q 953 2441 691 2322 
L 691 4666 
z
" transform="scale(0.015625)"/>
       </defs>
       <use xlink:href="#DejaVuSans-18"/>
      </g>
     </g>
    </g>
    <g id="xtick_7">
     <g id="line2d_7">
      <path d="M 584.401918 525.837188 
L 584.401918 26.877187 
" clip-path="url(#pf7b1c48bad)" style="fill: none; stroke: #cccccc; stroke-opacity: 0.3; stroke-linecap: round"/>
     </g>
     <g id="text_7">
      <!-- 6 -->
      <g style="fill: #262626" transform="translate(579.152855 547.87332) scale(0.165 -0.165)">
       <defs>
        <path id="DejaVuSans-19" d="M 2113 2584 
Q 1688 2584 1439 2293 
Q 1191 2003 1191 1497 
Q 1191 994 1439 701 
Q 1688 409 2113 409 
Q 2538 409 2786 701 
Q 3034 994 3034 1497 
Q 3034 2003 2786 2293 
Q 2538 2584 2113 2584 
z
M 3366 4563 
L 3366 3988 
Q 3128 4100 2886 4159 
Q 2644 4219 2406 4219 
Q 1781 4219 1451 3797 
Q 1122 3375 1075 2522 
Q 1259 2794 1537 2939 
Q 1816 3084 2150 3084 
Q 2853 3084 3261 2657 
Q 3669 2231 3669 1497 
Q 3669 778 3244 343 
Q 2819 -91 2113 -91 
Q 1303 -91 875 529 
Q 447 1150 447 2328 
Q 447 3434 972 4092 
Q 1497 4750 2381 4750 
Q 2619 4750 2861 4703 
Q 3103 4656 3366 4563 
z
" transform="scale(0.015625)"/>
       </defs>
       <use xlink:href="#DejaVuSans-19"/>
      </g>
     </g>
    </g>
    <g id="xtick_8">
     <g id="line2d_8">
      <path d="M 663.311009 525.837188 
L 663.311009 26.877187 
" clip-path="url(#pf7b1c48bad)" style="fill: none; stroke: #cccccc; stroke-opacity: 0.3; stroke-linecap: round"/>
     </g>
     <g id="text_8">
      <!-- 7 -->
      <g style="fill: #262626" transform="translate(658.061946 547.87332) scale(0.165 -0.165)">
       <defs>
        <path id="DejaVuSans-1a" d="M 525 4666 
L 3525 4666 
L 3525 4397 
L 1831 0 
L 1172 0 
L 2766 4134 
L 525 4134 
L 525 4666 
z
" transform="scale(0.015625)"/>
       </defs>
       <use xlink:href="#DejaVuSans-1a"/>
      </g>
     </g>
    </g>
    <g id="xtick_9">
     <g id="line2d_9">
      <path d="M 742.220099 525.837188 
L 742.220099 26.877187 
" clip-path="url(#pf7b1c48bad)" style="fill: none; stroke: #cccccc; stroke-opacity: 0.3; stroke-linecap: round"/>
     </g>
     <g id="text_9">
      <!-- 8 -->
      <g style="fill: #262626" transform="translate(736.971037 547.87332) scale(0.165 -0.165)">
       <defs>
        <path id="DejaVuSans-1b" d="M 2034 2216 
Q 1584 2216 1326 1975 
Q 1069 1734 1069 1313 
Q 1069 891 1326 650 
Q 1584 409 2034 409 
Q 2484 409 2743 651 
Q 3003 894 3003 1313 
Q 3003 1734 2745 1975 
Q 2488 2216 2034 2216 
z
M 1403 2484 
Q 997 2584 770 2862 
Q 544 3141 544 3541 
Q 544 4100 942 4425 
Q 1341 4750 2034 4750 
Q 2731 4750 3128 4425 
Q 3525 4100 3525 3541 
Q 3525 3141 3298 2862 
Q 3072 2584 2669 2484 
Q 3125 2378 3379 2068 
Q 3634 1759 3634 1313 
Q 3634 634 3220 271 
Q 2806 -91 2034 -91 
Q 1263 -91 848 271 
Q 434 634 434 1313 
Q 434 1759 690 2068 
Q 947 2378 1403 2484 
z
M 1172 3481 
Q 1172 3119 1398 2916 
Q 1625 2713 2034 2713 
Q 2441 2713 2670 2916 
Q 2900 3119 2900 3481 
Q 2900 3844 2670 4047 
Q 2441 4250 2034 4250 
Q 1625 4250 1398 4047 
Q 1172 3844 1172 3481 
z
" transform="scale(0.015625)"/>
       </defs>
       <use xlink:href="#DejaVuSans-1b"/>
      </g>
     </g>
    </g>
    <g id="xtick_10">
     <g id="line2d_10">
      <path d="M 821.12919 525.837188 
L 821.12919 26.877187 
" clip-path="url(#pf7b1c48bad)" style="fill: none; stroke: #cccccc; stroke-opacity: 0.3; stroke-linecap: round"/>
     </g>
     <g id="text_10">
      <!-- 9 -->
      <g style="fill: #262626" transform="translate(815.880128 547.87332) scale(0.165 -0.165)">
       <defs>
        <path id="DejaVuSans-1c" d="M 703 97 
L 703 672 
Q 941 559 1184 500 
Q 1428 441 1663 441 
Q 2288 441 2617 861 
Q 2947 1281 2994 2138 
Q 2813 1869 2534 1725 
Q 2256 1581 1919 1581 
Q 1219 1581 811 2004 
Q 403 2428 403 3163 
Q 403 3881 828 4315 
Q 1253 4750 1959 4750 
Q 2769 4750 3195 4129 
Q 3622 3509 3622 2328 
Q 3622 1225 3098 567 
Q 2575 -91 1691 -91 
Q 1453 -91 1209 -44 
Q 966 3 703 97 
z
M 1959 2075 
Q 2384 2075 2632 2365 
Q 2881 2656 2881 3163 
Q 2881 3666 2632 3958 
Q 2384 4250 1959 4250 
Q 1534 4250 1286 3958 
Q 1038 3666 1038 3163 
Q 1038 2656 1286 2365 
Q 1534 2075 1959 2075 
z
" transform="scale(0.015625)"/>
       </defs>
       <use xlink:href="#DejaVuSans-1c"/>
      </g>
     </g>
    </g>
    <g id="text_11">
     <!-- Iteration -->
     <g style="fill: #262626" transform="translate(427.862813 569.514375) scale(0.18 -0.18)">
      <defs>
       <path id="DejaVuSans-2c" d="M 628 4666 
L 1259 4666 
L 1259 0 
L 628 0 
L 628 4666 
z
" transform="scale(0.015625)"/>
       <path id="DejaVuSans-57" d="M 1172 4494 
L 1172 3500 
L 2356 3500 
L 2356 3053 
L 1172 3053 
L 1172 1153 
Q 1172 725 1289 603 
Q 1406 481 1766 481 
L 2356 481 
L 2356 0 
L 1766 0 
Q 1100 0 847 248 
Q 594 497 594 1153 
L 594 3053 
L 172 3053 
L 172 3500 
L 594 3500 
L 594 4494 
L 1172 4494 
z
" transform="scale(0.015625)"/>
       <path id="DejaVuSans-48" d="M 3597 1894 
L 3597 1613 
L 953 1613 
Q 991 1019 1311 708 
Q 1631 397 2203 397 
Q 2534 397 2845 478 
Q 3156 559 3463 722 
L 3463 178 
Q 3153 47 2828 -22 
Q 2503 -91 2169 -91 
Q 1331 -91 842 396 
Q 353 884 353 1716 
Q 353 2575 817 3079 
Q 1281 3584 2069 3584 
Q 2775 3584 3186 3129 
Q 3597 2675 3597 1894 
z
M 3022 2063 
Q 3016 2534 2758 2815 
Q 2500 3097 2075 3097 
Q 1594 3097 1305 2825 
Q 1016 2553 972 2059 
L 3022 2063 
z
" transform="scale(0.015625)"/>
       <path id="DejaVuSans-55" d="M 2631 2963 
Q 2534 3019 2420 3045 
Q 2306 3072 2169 3072 
Q 1681 3072 1420 2755 
Q 1159 2438 1159 1844 
L 1159 0 
L 581 0 
L 581 3500 
L 1159 3500 
L 1159 2956 
Q 1341 3275 1631 3429 
Q 1922 3584 2338 3584 
Q 2397 3584 2469 3576 
Q 2541 3569 2628 3553 
L 2631 2963 
z
" transform="scale(0.015625)"/>
       <path id="DejaVuSans-44" d="M 2194 1759 
Q 1497 1759 1228 1600 
Q 959 1441 959 1056 
Q 959 750 1161 570 
Q 1363 391 1709 391 
Q 2188 391 2477 730 
Q 2766 1069 2766 1631 
L 2766 1759 
L 2194 1759 
z
M 3341 1997 
L 3341 0 
L 2766 0 
L 2766 531 
Q 2569 213 2275 61 
Q 1981 -91 1556 -91 
Q 1019 -91 701 211 
Q 384 513 384 1019 
Q 384 1609 779 1909 
Q 1175 2209 1959 2209 
L 2766 2209 
L 2766 2266 
Q 2766 2663 2505 2880 
Q 2244 3097 1772 3097 
Q 1472 3097 1187 3025 
Q 903 2953 641 2809 
L 641 3341 
Q 956 3463 1253 3523 
Q 1550 3584 1831 3584 
Q 2591 3584 2966 3190 
Q 3341 2797 3341 1997 
z
" transform="scale(0.015625)"/>
       <path id="DejaVuSans-4c" d="M 603 3500 
L 1178 3500 
L 1178 0 
L 603 0 
L 603 3500 
z
M 603 4863 
L 1178 4863 
L 1178 4134 
L 603 4134 
L 603 4863 
z
" transform="scale(0.015625)"/>
       <path id="DejaVuSans-52" d="M 1959 3097 
Q 1497 3097 1228 2736 
Q 959 2375 959 1747 
Q 959 1119 1226 758 
Q 1494 397 1959 397 
Q 2419 397 2687 759 
Q 2956 1122 2956 1747 
Q 2956 2369 2687 2733 
Q 2419 3097 1959 3097 
z
M 1959 3584 
Q 2709 3584 3137 3096 
Q 3566 2609 3566 1747 
Q 3566 888 3137 398 
Q 2709 -91 1959 -91 
Q 1206 -91 779 398 
Q 353 888 353 1747 
Q 353 2609 779 3096 
Q 1206 3584 1959 3584 
z
" transform="scale(0.015625)"/>
       <path id="DejaVuSans-51" d="M 3513 2113 
L 3513 0 
L 2938 0 
L 2938 2094 
Q 2938 2591 2744 2837 
Q 2550 3084 2163 3084 
Q 1697 3084 1428 2787 
Q 1159 2491 1159 1978 
L 1159 0 
L 581 0 
L 581 3500 
L 1159 3500 
L 1159 2956 
Q 1366 3272 1645 3428 
Q 1925 3584 2291 3584 
Q 2894 3584 3203 3211 
Q 3513 2838 3513 2113 
z
" transform="scale(0.015625)"/>
      </defs>
      <use xlink:href="#DejaVuSans-2c"/>
      <use xlink:href="#DejaVuSans-57" transform="translate(29.5 0)"/>
      <use xlink:href="#DejaVuSans-48" transform="translate(68.703125 0)"/>
      <use xlink:href="#DejaVuSans-55" transform="translate(130.234375 0)"/>
      <use xlink:href="#DejaVuSans-44" transform="translate(171.34375 0)"/>
      <use xlink:href="#DejaVuSans-57" transform="translate(232.625 0)"/>
      <use xlink:href="#DejaVuSans-4c" transform="translate(271.828125 0)"/>
      <use xlink:href="#DejaVuSans-52" transform="translate(299.609375 0)"/>
      <use xlink:href="#DejaVuSans-51" transform="translate(360.796875 0)"/>
     </g>
    </g>
   </g>
   <g id="matplotlib.axis_2">
    <g id="ytick_1">
     <g id="line2d_11">
      <path d="M 75.438281 417.198004 
L 856.638281 417.198004 
" clip-path="url(#pf7b1c48bad)" style="fill: none; stroke: #cccccc; stroke-opacity: 0.3; stroke-linecap: round"/>
     </g>
     <g id="text_12">
      <!-- 0.55 -->
      <g style="fill: #262626" transform="translate(29.2 423.46607) scale(0.165 -0.165)">
       <defs>
        <path id="DejaVuSans-11" d="M 684 794 
L 1344 794 
L 1344 0 
L 684 0 
L 684 794 
z
" transform="scale(0.015625)"/>
       </defs>
       <use xlink:href="#DejaVuSans-13"/>
       <use xlink:href="#DejaVuSans-11" transform="translate(63.625 0)"/>
       <use xlink:href="#DejaVuSans-18" transform="translate(95.40625 0)"/>
       <use xlink:href="#DejaVuSans-18" transform="translate(159.03125 0)"/>
      </g>
     </g>
    </g>
    <g id="ytick_2">
     <g id="line2d_12">
      <path d="M 75.438281 306.993922 
L 856.638281 306.993922 
" clip-path="url(#pf7b1c48bad)" style="fill: none; stroke: #cccccc; stroke-opacity: 0.3; stroke-linecap: round"/>
     </g>
     <g id="text_13">
      <!-- 0.60 -->
      <g style="fill: #262626" transform="translate(29.2 313.261989) scale(0.165 -0.165)">
       <use xlink:href="#DejaVuSans-13"/>
       <use xlink:href="#DejaVuSans-11" transform="translate(63.625 0)"/>
       <use xlink:href="#DejaVuSans-19" transform="translate(95.40625 0)"/>
       <use xlink:href="#DejaVuSans-13" transform="translate(159.03125 0)"/>
      </g>
     </g>
    </g>
    <g id="ytick_3">
     <g id="line2d_13">
      <path d="M 75.438281 196.789841 
L 856.638281 196.789841 
" clip-path="url(#pf7b1c48bad)" style="fill: none; stroke: #cccccc; stroke-opacity: 0.3; stroke-linecap: round"/>
     </g>
     <g id="text_14">
      <!-- 0.65 -->
      <g style="fill: #262626" transform="translate(29.2 203.057907) scale(0.165 -0.165)">
       <use xlink:href="#DejaVuSans-13"/>
       <use xlink:href="#DejaVuSans-11" transform="translate(63.625 0)"/>
       <use xlink:href="#DejaVuSans-19" transform="translate(95.40625 0)"/>
       <use xlink:href="#DejaVuSans-18" transform="translate(159.03125 0)"/>
      </g>
     </g>
    </g>
    <g id="ytick_4">
     <g id="line2d_14">
      <path d="M 75.438281 86.585759 
L 856.638281 86.585759 
" clip-path="url(#pf7b1c48bad)" style="fill: none; stroke: #cccccc; stroke-opacity: 0.3; stroke-linecap: round"/>
     </g>
     <g id="text_15">
      <!-- 0.70 -->
      <g style="fill: #262626" transform="translate(29.2 92.853825) scale(0.165 -0.165)">
       <use xlink:href="#DejaVuSans-13"/>
       <use xlink:href="#DejaVuSans-11" transform="translate(63.625 0)"/>
       <use xlink:href="#DejaVuSans-1a" transform="translate(95.40625 0)"/>
       <use xlink:href="#DejaVuSans-13" transform="translate(159.03125 0)"/>
      </g>
     </g>
    </g>
    <g id="text_16">
     <!-- Best Score -->
     <g style="fill: #262626" transform="translate(20.875781 324.355313) rotate(-90) scale(0.18 -0.18)">
      <defs>
       <path id="DejaVuSans-25" d="M 1259 2228 
L 1259 519 
L 2272 519 
Q 2781 519 3026 730 
Q 3272 941 3272 1375 
Q 3272 1813 3026 2020 
Q 2781 2228 2272 2228 
L 1259 2228 
z
M 1259 4147 
L 1259 2741 
L 2194 2741 
Q 2656 2741 2882 2914 
Q 3109 3088 3109 3444 
Q 3109 3797 2882 3972 
Q 2656 4147 2194 4147 
L 1259 4147 
z
M 628 4666 
L 2241 4666 
Q 2963 4666 3353 4366 
Q 3744 4066 3744 3513 
Q 3744 3084 3544 2831 
Q 3344 2578 2956 2516 
Q 3422 2416 3680 2098 
Q 3938 1781 3938 1306 
Q 3938 681 3513 340 
Q 3088 0 2303 0 
L 628 0 
L 628 4666 
z
" transform="scale(0.015625)"/>
       <path id="DejaVuSans-56" d="M 2834 3397 
L 2834 2853 
Q 2591 2978 2328 3040 
Q 2066 3103 1784 3103 
Q 1356 3103 1142 2972 
Q 928 2841 928 2578 
Q 928 2378 1081 2264 
Q 1234 2150 1697 2047 
L 1894 2003 
Q 2506 1872 2764 1633 
Q 3022 1394 3022 966 
Q 3022 478 2636 193 
Q 2250 -91 1575 -91 
Q 1294 -91 989 -36 
Q 684 19 347 128 
L 347 722 
Q 666 556 975 473 
Q 1284 391 1588 391 
Q 1994 391 2212 530 
Q 2431 669 2431 922 
Q 2431 1156 2273 1281 
Q 2116 1406 1581 1522 
L 1381 1569 
Q 847 1681 609 1914 
Q 372 2147 372 2553 
Q 372 3047 722 3315 
Q 1072 3584 1716 3584 
Q 2034 3584 2315 3537 
Q 2597 3491 2834 3397 
z
" transform="scale(0.015625)"/>
       <path id="DejaVuSans-3" transform="scale(0.015625)"/>
       <path id="DejaVuSans-36" d="M 3425 4513 
L 3425 3897 
Q 3066 4069 2747 4153 
Q 2428 4238 2131 4238 
Q 1616 4238 1336 4038 
Q 1056 3838 1056 3469 
Q 1056 3159 1242 3001 
Q 1428 2844 1947 2747 
L 2328 2669 
Q 3034 2534 3370 2195 
Q 3706 1856 3706 1288 
Q 3706 609 3251 259 
Q 2797 -91 1919 -91 
Q 1588 -91 1214 -16 
Q 841 59 441 206 
L 441 856 
Q 825 641 1194 531 
Q 1563 422 1919 422 
Q 2459 422 2753 634 
Q 3047 847 3047 1241 
Q 3047 1584 2836 1778 
Q 2625 1972 2144 2069 
L 1759 2144 
Q 1053 2284 737 2584 
Q 422 2884 422 3419 
Q 422 4038 858 4394 
Q 1294 4750 2059 4750 
Q 2388 4750 2728 4690 
Q 3069 4631 3425 4513 
z
" transform="scale(0.015625)"/>
       <path id="DejaVuSans-46" d="M 3122 3366 
L 3122 2828 
Q 2878 2963 2633 3030 
Q 2388 3097 2138 3097 
Q 1578 3097 1268 2742 
Q 959 2388 959 1747 
Q 959 1106 1268 751 
Q 1578 397 2138 397 
Q 2388 397 2633 464 
Q 2878 531 3122 666 
L 3122 134 
Q 2881 22 2623 -34 
Q 2366 -91 2075 -91 
Q 1284 -91 818 406 
Q 353 903 353 1747 
Q 353 2603 823 3093 
Q 1294 3584 2113 3584 
Q 2378 3584 2631 3529 
Q 2884 3475 3122 3366 
z
" transform="scale(0.015625)"/>
      </defs>
      <use xlink:href="#DejaVuSans-25"/>
      <use xlink:href="#DejaVuSans-48" transform="translate(68.609375 0)"/>
      <use xlink:href="#DejaVuSans-56" transform="translate(130.140625 0)"/>
      <use xlink:href="#DejaVuSans-57" transform="translate(182.234375 0)"/>
      <use xlink:href="#DejaVuSans-3" transform="translate(221.4375 0)"/>
      <use xlink:href="#DejaVuSans-36" transform="translate(253.21875 0)"/>
      <use xlink:href="#DejaVuSans-46" transform="translate(316.703125 0)"/>
      <use xlink:href="#DejaVuSans-52" transform="translate(371.6875 0)"/>
      <use xlink:href="#DejaVuSans-55" transform="translate(432.875 0)"/>
      <use xlink:href="#DejaVuSans-48" transform="translate(471.78125 0)"/>
     </g>
    </g>
   </g>
   <g id="line2d_15">
    <path d="M 110.947372 313.606167 
L 189.856463 305.671473 
L 268.765554 278.781677 
L 347.674645 274.153106 
L 426.583736 272.169432 
L 505.492827 272.169432 
L 584.401918 272.169432 
L 663.311009 272.169432 
L 742.220099 272.169432 
L 821.12919 272.169432 
" clip-path="url(#pf7b1c48bad)" style="fill: none; stroke: #059669; stroke-width: 2; stroke-linecap: round"/>
    <defs>
     <path id="mbb9e76326f" d="M 0 2.5 
C 0.663008 2.5 1.29895 2.236584 1.767767 1.767767 
C 2.236584 1.29895 2.5 0.663008 2.5 0 
C 2.5 -0.663008 2.236584 -1.29895 1.767767 -1.767767 
C 1.29895 -2.236584 0.663008 -2.5 0 -2.5 
C -0.663008 -2.5 -1.29895 -2.236584 -1.767767 -1.767767 
C -2.236584 -1.29895 -2.5 -0.663008 -2.5 0 
C -2.5 0.663008 -2.236584 1.29895 -1.767767 1.767767 
C -1.29895 2.236584 -0.663008 2.5 0 2.5 
z
" style="stroke: #059669"/>
    </defs>
    <g clip-path="url(#pf7b1c48bad)">
     <use xlink:href="#mbb9e76326f" x="110.947372" y="313.606167" style="fill: #059669; stroke: #059669"/>
     <use xlink:href="#mbb9e76326f" x="189.856463" y="305.671473" style="fill: #059669; stroke: #059669"/>
     <use xlink:href="#mbb9e76326f" x="268.765554" y="278.781677" style="fill: #059669; stroke: #059669"/>
     <use xlink:href="#mbb9e76326f" x="347.674645" y="274.153106" style="fill: #059669; stroke: #059669"/>
     <use xlink:href="#mbb9e76326f" x="426.583736" y="272.169432" style="fill: #059669; stroke: #059669"/>
     <use xlink:href="#mbb9e76326f" x="505.492827" y="272.169432" style="fill: #059669; stroke: #059669"/>
     <use xlink:href="#mbb9e76326f" x="584.401918" y="272.169432" style="fill: #059669; stroke: #059669"/>
     <use xlink:href="#mbb9e76326f" x="663.311009" y="272.169432" style="fill: #059669; stroke: #059669"/>
     <use xlink:href="#mbb9e76326f" x="742.220099" y="272.169432" style="fill: #059669; stroke: #059669"/>
     <use xlink:href="#mbb9e76326f" x="821.12919" y="272.169432" style="fill: #059669; stroke: #059669"/>
    </g>
   </g>
   <g id="line2d_16">
    <path d="M 110.947372 83.279636 
L 189.856463 72.259228 
L 268.765554 62.781677 
L 347.674645 49.998004 
L 426.583736 50.218412 
L 505.492827 49.557187 
L 584.401918 49.557187 
L 663.311009 49.557187 
L 742.220099 49.557187 
L 821.12919 49.557187 
" clip-path="url(#pf7b1c48bad)" style="fill: none; stroke: #2563eb; stroke-width: 2; stroke-linecap: round"/>
    <defs>
     <path id="mb718d2f9e2" d="M 0 2.5 
C 0.663008 2.5 1.29895 2.236584 1.767767 1.767767 
C 2.236584 1.29895 2.5 0.663008 2.5 0 
C 2.5 -0.663008 2.236584 -1.29895 1.767767 -1.767767 
C 1.29895 -2.236584 0.663008 -2.5 0 -2.5 
C -0.663008 -2.5 -1.29895 -2.236584 -1.767767 -1.767767 
C -2.236584 -1.29895 -2.5 -0.663008 -2.5 0 
C -2.5 0.663008 -2.236584 1.29895 -1.767767 1.767767 
C -1.29895 2.236584 -0.663008 2.5 0 2.5 
z
" style="stroke: #2563eb"/>
    </defs>
    <g clip-path="url(#pf7b1c48bad)">
     <use xlink:href="#mb718d2f9e2" x="110.947372" y="83.279636" style="fill: #2563eb; stroke: #2563eb"/>
     <use xlink:href="#mb718d2f9e2" x="189.856463" y="72.259228" style="fill: #2563eb; stroke: #2563eb"/>
     <use xlink:href="#mb718d2f9e2" x="268.765554" y="62.781677" style="fill: #2563eb; stroke: #2563eb"/>
     <use xlink:href="#mb718d2f9e2" x="347.674645" y="49.998004" style="fill: #2563eb; stroke: #2563eb"/>
     <use xlink:href="#mb718d2f9e2" x="426.583736" y="50.218412" style="fill: #2563eb; stroke: #2563eb"/>
     <use xlink:href="#mb718d2f9e2" x="505.492827" y="49.557187" style="fill: #2563eb; stroke: #2563eb"/>
     <use xlink:href="#mb718d2f9e2" x="584.401918" y="49.557187" style="fill: #2563eb; stroke: #2563eb"/>
     <use xlink:href="#mb718d2f9e2" x="663.311009" y="49.557187" style="fill: #2563eb; stroke: #2563eb"/>
     <use xlink:href="#mb718d2f9e2" x="742.220099" y="49.557187" style="fill: #2563eb; stroke: #2563eb"/>
     <use xlink:href="#mb718d2f9e2" x="821.12919" y="49.557187" style="fill: #2563eb; stroke: #2563eb"/>
    </g>
   </g>
   <g id="line2d_17">
    <path d="M 110.947372 272.389841 
L 189.856463 184.006167 
L 268.765554 172.544943 
L 347.674645 168.798004 
L 426.583736 167.916371 
L 505.492827 167.475555 
L 584.401918 167.475555 
L 663.311009 167.475555 
L 742.220099 167.475555 
L 821.12919 167.475555 
" clip-path="url(#pf7b1c48bad)" style="fill: none; stroke: #d97706; stroke-width: 2; stroke-linecap: round"/>
    <defs>
     <path id="meaf650e492" d="M 0 2.5 
C 0.663008 2.5 1.29895 2.236584 1.767767 1.767767 
C 2.236584 1.29895 2.5 0.663008 2.5 0 
C 2.5 -0.663008 2.236584 -1.29895 1.767767 -1.767767 
C 1.29895 -2.236584 0.663008 -2.5 0 -2.5 
C -0.663008 -2.5 -1.29895 -2.236584 -1.767767 -1.767767 
C -2.236584 -1.29895 -2.5 -0.663008 -2.5 0 
C -2.5 0.663008 -2.236584 1.29895 -1.767767 1.767767 
C -1.29895 2.236584 -0.663008 2.5 0 2.5 
z
" style="stroke: #d97706"/>
    </defs>
    <g clip-path="url(#pf7b1c48bad)">
     <use xlink:href="#meaf650e492" x="110.947372" y="272.389841" style="fill: #d97706; stroke: #d97706"/>
     <use xlink:href="#meaf650e492" x="189.856463" y="184.006167" style="fill: #d97706; stroke: #d97706"/>
     <use xlink:href="#meaf650e492" x="268.765554" y="172.544943" style="fill: #d97706; stroke: #d97706"/>
     <use xlink:href="#meaf650e492" x="347.674645" y="168.798004" style="fill: #d97706; stroke: #d97706"/>
     <use xlink:href="#meaf650e492" x="426.583736" y="167.916371" style="fill: #d97706; stroke: #d97706"/>
     <use xlink:href="#meaf650e492" x="505.492827" y="167.475555" style="fill: #d97706; stroke: #d97706"/>
     <use xlink:href="#meaf650e492" x="584.401918" y="167.475555" style="fill: #d97706; stroke: #d97706"/>
     <use xlink:href="#meaf650e492" x="663.311009" y="167.475555" style="fill: #d97706; stroke: #d97706"/>
     <use xlink:href="#meaf650e492" x="742.220099" y="167.475555" style="fill: #d97706; stroke: #d97706"/>
     <use xlink:href="#meaf650e492" x="821.12919" y="167.475555" style="fill: #d97706; stroke: #d97706"/>
    </g>
   </g>
   <g id="line2d_18">
    <path d="M 110.947372 447.393922 
L 189.856463 426.455147 
L 268.765554 426.234739 
L 347.674645 424.471473 
L 426.583736 423.369432 
L 505.492827 423.149024 
L 584.401918 423.149024 
L 663.311009 423.149024 
L 742.220099 423.149024 
L 821.12919 423.149024 
" clip-path="url(#pf7b1c48bad)" style="fill: none; stroke: #7c3aed; stroke-width: 2; stroke-linecap: round"/>
    <defs>
     <path id="meb29fbd165" d="M 0 2.5 
C 0.663008 2.5 1.29895 2.236584 1.767767 1.767767 
C 2.236584 1.29895 2.5 0.663008 2.5 0 
C 2.5 -0.663008 2.236584 -1.29895 1.767767 -1.767767 
C 1.29895 -2.236584 0.663008 -2.5 0 -2.5 
C -0.663008 -2.5 -1.29895 -2.236584 -1.767767 -1.767767 
C -2.236584 -1.29895 -2.5 -0.663008 -2.5 0 
C -2.5 0.663008 -2.236584 1.29895 -1.767767 1.767767 
C -1.29895 2.236584 -0.663008 2.5 0 2.5 
z
" style="stroke: #7c3aed"/>
    </defs>
    <g clip-path="url(#pf7b1c48bad)">
     <use xlink:href="#meb29fbd165" x="110.947372" y="447.393922" style="fill: #7c3aed; stroke: #7c3aed"/>
     <use xlink:href="#meb29fbd165" x="189.856463" y="426.455147" style="fill: #7c3aed; stroke: #7c3aed"/>
     <use xlink:href="#meb29fbd165" x="268.765554" y="426.234739" style="fill: #7c3aed; stroke: #7c3aed"/>
     <use xlink:href="#meb29fbd165" x="347.674645" y="424.471473" style="fill: #7c3aed; stroke: #7c3aed"/>
     <use xlink:href="#meb29fbd165" x="426.583736" y="423.369432" style="fill: #7c3aed; stroke: #7c3aed"/>
     <use xlink:href="#meb29fbd165" x="505.492827" y="423.149024" style="fill: #7c3aed; stroke: #7c3aed"/>
     <use xlink:href="#meb29fbd165" x="584.401918" y="423.149024" style="fill: #7c3aed; stroke: #7c3aed"/>
     <use xlink:href="#meb29fbd165" x="663.311009" y="423.149024" style="fill: #7c3aed; stroke: #7c3aed"/>
     <use xlink:href="#meb29fbd165" x="742.220099" y="423.149024" style="fill: #7c3aed; stroke: #7c3aed"/>
     <use xlink:href="#meb29fbd165" x="821.12919" y="423.149024" style="fill: #7c3aed; stroke: #7c3aed"/>
    </g>
   </g>
   <g id="line2d_19">
    <path d="M 110.947372 488.830657 
L 189.856463 466.789841 
L 268.765554 460.398004 
L 347.674645 459.957187 
L 426.583736 459.736779 
L 505.492827 459.516371 
L 584.401918 459.295963 
L 663.311009 459.295963 
L 742.220099 459.295963 
L 821.12919 459.295963 
" clip-path="url(#pf7b1c48bad)" style="fill: none; stroke: #dc2626; stroke-width: 2; stroke-linecap: round"/>
    <defs>
     <path id="m25f6980fbc" d="M 0 2.5 
C 0.663008 2.5 1.29895 2.236584 1.767767 1.767767 
C 2.236584 1.29895 2.5 0.663008 2.5 0 
C 2.5 -0.663008 2.236584 -1.29895 1.767767 -1.767767 
C 1.29895 -2.236584 0.663008 -2.5 0 -2.5 
C -0.663008 -2.5 -1.29895 -2.236584 -1.767767 -1.767767 
C -2.236584 -1.29895 -2.5 -0.663008 -2.5 0 
C -2.5 0.663008 -2.236584 1.29895 -1.767767 1.767767 
C -1.29895 2.236584 -0.663008 2.5 0 2.5 
z
" style="stroke: #dc2626"/>
    </defs>
    <g clip-path="url(#pf7b1c48bad)">
     <use xlink:href="#m25f6980fbc" x="110.947372" y="488.830657" style="fill: #dc2626; stroke: #dc2626"/>
     <use xlink:href="#m25f6980fbc" x="189.856463" y="466.789841" style="fill: #dc2626; stroke: #dc2626"/>
     <use xlink:href="#m25f6980fbc" x="268.765554" y="460.398004" style="fill: #dc2626; stroke: #dc2626"/>
     <use xlink:href="#m25f6980fbc" x="347.674645" y="459.957187" style="fill: #dc2626; stroke: #dc2626"/>
     <use xlink:href="#m25f6980fbc" x="426.583736" y="459.736779" style="fill: #dc2626; stroke: #dc2626"/>
     <use xlink:href="#m25f6980fbc" x="505.492827" y="459.516371" style="fill: #dc2626; stroke: #dc2626"/>
     <use xlink:href="#m25f6980fbc" x="584.401918" y="459.295963" style="fill: #dc2626; stroke: #dc2626"/>
     <use xlink:href="#m25f6980fbc" x="663.311009" y="459.295963" style="fill: #dc2626; stroke: #dc2626"/>
     <use xlink:href="#m25f6980fbc" x="742.220099" y="459.295963" style="fill: #dc2626; stroke: #dc2626"/>
     <use xlink:href="#m25f6980fbc" x="821.12919" y="459.295963" style="fill: #dc2626; stroke: #dc2626"/>
    </g>
   </g>
   <g id="line2d_20">
    <path d="M 110.947372 404.855147 
L 189.856463 396.259228 
L 268.765554 390.0878 
L 347.674645 388.104126 
L 426.583736 386.781677 
L 505.492827 386.340861 
L 584.401918 385.900045 
L 663.311009 385.900045 
L 742.220099 386.120453 
L 821.12919 385.900045 
" clip-path="url(#pf7b1c48bad)" style="fill: none; stroke-dasharray: 7.4,3.2; stroke-dashoffset: 0; stroke: #059669; stroke-width: 2"/>
    <g clip-path="url(#pf7b1c48bad)">
     <use xlink:href="#mbb9e76326f" x="110.947372" y="404.855147" style="fill: #059669; stroke: #059669"/>
     <use xlink:href="#mbb9e76326f" x="189.856463" y="396.259228" style="fill: #059669; stroke: #059669"/>
     <use xlink:href="#mbb9e76326f" x="268.765554" y="390.0878" style="fill: #059669; stroke: #059669"/>
     <use xlink:href="#mbb9e76326f" x="347.674645" y="388.104126" style="fill: #059669; stroke: #059669"/>
     <use xlink:href="#mbb9e76326f" x="426.583736" y="386.781677" style="fill: #059669; stroke: #059669"/>
     <use xlink:href="#mbb9e76326f" x="505.492827" y="386.340861" style="fill: #059669; stroke: #059669"/>
     <use xlink:href="#mbb9e76326f" x="584.401918" y="385.900045" style="fill: #059669; stroke: #059669"/>
     <use xlink:href="#mbb9e76326f" x="663.311009" y="385.900045" style="fill: #059669; stroke: #059669"/>
     <use xlink:href="#mbb9e76326f" x="742.220099" y="386.120453" style="fill: #059669; stroke: #059669"/>
     <use xlink:href="#mbb9e76326f" x="821.12919" y="385.900045" style="fill: #059669; stroke: #059669"/>
    </g>
   </g>
   <g id="line2d_21">
    <path d="M 110.947372 231.393922 
L 189.856463 229.410249 
L 268.765554 228.0878 
L 347.674645 226.765351 
L 426.583736 225.222494 
L 505.492827 225.222494 
L 584.401918 224.781677 
L 663.311009 224.781677 
L 742.220099 224.781677 
L 821.12919 224.781677 
" clip-path="url(#pf7b1c48bad)" style="fill: none; stroke-dasharray: 7.4,3.2; stroke-dashoffset: 0; stroke: #2563eb; stroke-width: 2"/>
    <g clip-path="url(#pf7b1c48bad)">
     <use xlink:href="#mb718d2f9e2" x="110.947372" y="231.393922" style="fill: #2563eb; stroke: #2563eb"/>
     <use xlink:href="#mb718d2f9e2" x="189.856463" y="229.410249" style="fill: #2563eb; stroke: #2563eb"/>
     <use xlink:href="#mb718d2f9e2" x="268.765554" y="228.0878" style="fill: #2563eb; stroke: #2563eb"/>
     <use xlink:href="#mb718d2f9e2" x="347.674645" y="226.765351" style="fill: #2563eb; stroke: #2563eb"/>
     <use xlink:href="#mb718d2f9e2" x="426.583736" y="225.222494" style="fill: #2563eb; stroke: #2563eb"/>
     <use xlink:href="#mb718d2f9e2" x="505.492827" y="225.222494" style="fill: #2563eb; stroke: #2563eb"/>
     <use xlink:href="#mb718d2f9e2" x="584.401918" y="224.781677" style="fill: #2563eb; stroke: #2563eb"/>
     <use xlink:href="#mb718d2f9e2" x="663.311009" y="224.781677" style="fill: #2563eb; stroke: #2563eb"/>
     <use xlink:href="#mb718d2f9e2" x="742.220099" y="224.781677" style="fill: #2563eb; stroke: #2563eb"/>
     <use xlink:href="#mb718d2f9e2" x="821.12919" y="224.781677" style="fill: #2563eb; stroke: #2563eb"/>
    </g>
   </g>
   <g id="line2d_22">
    <path d="M 110.947372 358.128616 
L 189.856463 353.940861 
L 268.765554 347.549024 
L 347.674645 345.565351 
L 426.583736 345.344943 
L 505.492827 344.904126 
L 584.401918 344.904126 
L 663.311009 344.904126 
L 742.220099 344.904126 
L 821.12919 344.904126 
" clip-path="url(#pf7b1c48bad)" style="fill: none; stroke-dasharray: 7.4,3.2; stroke-dashoffset: 0; stroke: #d97706; stroke-width: 2"/>
    <g clip-path="url(#pf7b1c48bad)">
     <use xlink:href="#meaf650e492" x="110.947372" y="358.128616" style="fill: #d97706; stroke: #d97706"/>
     <use xlink:href="#meaf650e492" x="189.856463" y="353.940861" style="fill: #d97706; stroke: #d97706"/>
     <use xlink:href="#meaf650e492" x="268.765554" y="347.549024" style="fill: #d97706; stroke: #d97706"/>
     <use xlink:href="#meaf650e492" x="347.674645" y="345.565351" style="fill: #d97706; stroke: #d97706"/>
     <use xlink:href="#meaf650e492" x="426.583736" y="345.344943" style="fill: #d97706; stroke: #d97706"/>
     <use xlink:href="#meaf650e492" x="505.492827" y="344.904126" style="fill: #d97706; stroke: #d97706"/>
     <use xlink:href="#meaf650e492" x="584.401918" y="344.904126" style="fill: #d97706; stroke: #d97706"/>
     <use xlink:href="#meaf650e492" x="663.311009" y="344.904126" style="fill: #d97706; stroke: #d97706"/>
     <use xlink:href="#meaf650e492" x="742.220099" y="344.904126" style="fill: #d97706; stroke: #d97706"/>
     <use xlink:href="#meaf650e492" x="821.12919" y="344.904126" style="fill: #d97706; stroke: #d97706"/>
    </g>
   </g>
   <g id="line2d_23">
    <path d="M 110.947372 497.426575 
L 189.856463 496.985759 
L 268.765554 493.900045 
L 347.674645 493.23882 
L 426.583736 493.018412 
L 505.492827 492.798004 
L 584.401918 492.798004 
L 663.311009 492.798004 
L 742.220099 492.798004 
L 821.12919 493.018412 
" clip-path="url(#pf7b1c48bad)" style="fill: none; stroke-dasharray: 7.4,3.2; stroke-dashoffset: 0; stroke: #7c3aed; stroke-width: 2"/>
    <g clip-path="url(#pf7b1c48bad)">
     <use xlink:href="#meb29fbd165" x="110.947372" y="497.426575" style="fill: #7c3aed; stroke: #7c3aed"/>
     <use xlink:href="#meb29fbd165" x="189.856463" y="496.985759" style="fill: #7c3aed; stroke: #7c3aed"/>
     <use xlink:href="#meb29fbd165" x="268.765554" y="493.900045" style="fill: #7c3aed; stroke: #7c3aed"/>
     <use xlink:href="#meb29fbd165" x="347.674645" y="493.23882" style="fill: #7c3aed; stroke: #7c3aed"/>
     <use xlink:href="#meb29fbd165" x="426.583736" y="493.018412" style="fill: #7c3aed; stroke: #7c3aed"/>
     <use xlink:href="#meb29fbd165" x="505.492827" y="492.798004" style="fill: #7c3aed; stroke: #7c3aed"/>
     <use xlink:href="#meb29fbd165" x="584.401918" y="492.798004" style="fill: #7c3aed; stroke: #7c3aed"/>
     <use xlink:href="#meb29fbd165" x="663.311009" y="492.798004" style="fill: #7c3aed; stroke: #7c3aed"/>
     <use xlink:href="#meb29fbd165" x="742.220099" y="492.798004" style="fill: #7c3aed; stroke: #7c3aed"/>
     <use xlink:href="#meb29fbd165" x="821.12919" y="493.018412" style="fill: #7c3aed; stroke: #7c3aed"/>
    </g>
   </g>
   <g id="line2d_24">
    <path d="M 110.947372 503.157187 
L 189.856463 502.936779 
L 268.765554 502.055147 
L 347.674645 501.173514 
L 426.583736 501.173514 
L 505.492827 501.173514 
L 584.401918 500.953106 
L 663.311009 500.953106 
L 742.220099 500.953106 
L 821.12919 501.173514 
" clip-path="url(#pf7b1c48bad)" style="fill: none; stroke-dasharray: 7.4,3.2; stroke-dashoffset: 0; stroke: #dc2626; stroke-width: 2"/>
    <g clip-path="url(#pf7b1c48bad)">
     <use xlink:href="#m25f6980fbc" x="110.947372" y="503.157187" style="fill: #dc2626; stroke: #dc2626"/>
     <use xlink:href="#m25f6980fbc" x="189.856463" y="502.936779" style="fill: #dc2626; stroke: #dc2626"/>
     <use xlink:href="#m25f6980fbc" x="268.765554" y="502.055147" style="fill: #dc2626; stroke: #dc2626"/>
     <use xlink:href="#m25f6980fbc" x="347.674645" y="501.173514" style="fill: #dc2626; stroke: #dc2626"/>
     <use xlink:href="#m25f6980fbc" x="426.583736" y="501.173514" style="fill: #dc2626; stroke: #dc2626"/>
     <use xlink:href="#m25f6980fbc" x="505.492827" y="501.173514" style="fill: #dc2626; stroke: #dc2626"/>
     <use xlink:href="#m25f6980fbc" x="584.401918" y="500.953106" style="fill: #dc2626; stroke: #dc2626"/>
     <use xlink:href="#m25f6980fbc" x="663.311009" y="500.953106" style="fill: #dc2626; stroke: #dc2626"/>
     <use xlink:href="#m25f6980fbc" x="742.220099" y="500.953106" style="fill: #dc2626; stroke: #dc2626"/>
     <use xlink:href="#m25f6980fbc" x="821.12919" y="501.173514" style="fill: #dc2626; stroke: #dc2626"/>
    </g>
   </g>
   <g id="patch_3">
    <path d="M 75.438281 525.837188 
L 75.438281 26.877187 
" style="fill: none; stroke: #cccccc; stroke-width: 1.25; stroke-linejoin: miter; stroke-linecap: square"/>
   </g>
   <g id="patch_4">
    <path d="M 856.638281 525.837188 
L 856.638281 26.877187 
" style="fill: none; stroke: #cccccc; stroke-width: 1.25; stroke-linejoin: miter; stroke-linecap: square"/>
   </g>
   <g id="patch_5">
    <path d="M 75.438281 525.837188 
L 856.638281 525.837188 
" style="fill: none; stroke: #cccccc; stroke-width: 1.25; stroke-linejoin: miter; stroke-linecap: square"/>
   </g>
   <g id="patch_6">
    <path d="M 75.438281 26.877187 
L 856.638281 26.877187 
" style="fill: none; stroke: #cccccc; stroke-width: 1.25; stroke-linejoin: miter; stroke-linecap: square"/>
   </g>
   <g id="text_17">
    <!-- Best Score vs Iteration — All Regions &amp; Models -->
    <g style="fill: #262626" transform="translate(255.438281 20.877187) scale(0.18 -0.18)">
     <defs>
      <path id="DejaVuSans-59" d="M 191 3500 
L 800 3500 
L 1894 563 
L 2988 3500 
L 3597 3500 
L 2284 0 
L 1503 0 
L 191 3500 
z
" transform="scale(0.015625)"/>
      <path id="DejaVuSans-af6" d="M 313 1978 
L 6088 1978 
L 6088 1528 
L 313 1528 
L 313 1978 
z
" transform="scale(0.015625)"/>
      <path id="DejaVuSans-24" d="M 2188 4044 
L 1331 1722 
L 3047 1722 
L 2188 4044 
z
M 1831 4666 
L 2547 4666 
L 4325 0 
L 3669 0 
L 3244 1197 
L 1141 1197 
L 716 0 
L 50 0 
L 1831 4666 
z
" transform="scale(0.015625)"/>
      <path id="DejaVuSans-4f" d="M 603 4863 
L 1178 4863 
L 1178 0 
L 603 0 
L 603 4863 
z
" transform="scale(0.015625)"/>
      <path id="DejaVuSans-35" d="M 2841 2188 
Q 3044 2119 3236 1894 
Q 3428 1669 3622 1275 
L 4263 0 
L 3584 0 
L 2988 1197 
Q 2756 1666 2539 1819 
Q 2322 1972 1947 1972 
L 1259 1972 
L 1259 0 
L 628 0 
L 628 4666 
L 2053 4666 
Q 2853 4666 3247 4331 
Q 3641 3997 3641 3322 
Q 3641 2881 3436 2590 
Q 3231 2300 2841 2188 
z
M 1259 4147 
L 1259 2491 
L 2053 2491 
Q 2509 2491 2742 2702 
Q 2975 2913 2975 3322 
Q 2975 3731 2742 3939 
Q 2509 4147 2053 4147 
L 1259 4147 
z
" transform="scale(0.015625)"/>
      <path id="DejaVuSans-4a" d="M 2906 1791 
Q 2906 2416 2648 2759 
Q 2391 3103 1925 3103 
Q 1463 3103 1205 2759 
Q 947 2416 947 1791 
Q 947 1169 1205 825 
Q 1463 481 1925 481 
Q 2391 481 2648 825 
Q 2906 1169 2906 1791 
z
M 3481 434 
Q 3481 -459 3084 -895 
Q 2688 -1331 1869 -1331 
Q 1566 -1331 1297 -1286 
Q 1028 -1241 775 -1147 
L 775 -588 
Q 1028 -725 1275 -790 
Q 1522 -856 1778 -856 
Q 2344 -856 2625 -561 
Q 2906 -266 2906 331 
L 2906 616 
Q 2728 306 2450 153 
Q 2172 0 1784 0 
Q 1141 0 747 490 
Q 353 981 353 1791 
Q 353 2603 747 3093 
Q 1141 3584 1784 3584 
Q 2172 3584 2450 3431 
Q 2728 3278 2906 2969 
L 2906 3500 
L 3481 3500 
L 3481 434 
z
" transform="scale(0.015625)"/>
      <path id="DejaVuSans-9" d="M 1556 2509 
Q 1272 2256 1139 2004 
Q 1006 1753 1006 1478 
Q 1006 1022 1337 719 
Q 1669 416 2169 416 
Q 2466 416 2725 514 
Q 2984 613 3213 813 
L 1556 2509 
z
M 1997 2859 
L 3584 1234 
Q 3769 1513 3872 1830 
Q 3975 2147 3994 2503 
L 4575 2503 
Q 4538 2091 4375 1687 
Q 4213 1284 3922 891 
L 4794 0 
L 4006 0 
L 3559 459 
Q 3234 181 2878 45 
Q 2522 -91 2113 -91 
Q 1359 -91 881 339 
Q 403 769 403 1441 
Q 403 1841 612 2192 
Q 822 2544 1241 2853 
Q 1091 3050 1012 3245 
Q 934 3441 934 3628 
Q 934 4134 1281 4442 
Q 1628 4750 2203 4750 
Q 2463 4750 2720 4694 
Q 2978 4638 3244 4525 
L 3244 3956 
Q 2972 4103 2725 4179 
Q 2478 4256 2266 4256 
Q 1938 4256 1733 4082 
Q 1528 3909 1528 3634 
Q 1528 3475 1620 3314 
Q 1713 3153 1997 2859 
z
" transform="scale(0.015625)"/>
      <path id="DejaVuSans-30" d="M 628 4666 
L 1569 4666 
L 2759 1491 
L 3956 4666 
L 4897 4666 
L 4897 0 
L 4281 0 
L 4281 4097 
L 3078 897 
L 2444 897 
L 1241 4097 
L 1241 0 
L 628 0 
L 628 4666 
z
" transform="scale(0.015625)"/>
      <path id="DejaVuSans-47" d="M 2906 2969 
L 2906 4863 
L 3481 4863 
L 3481 0 
L 2906 0 
L 2906 525 
Q 2725 213 2448 61 
Q 2172 -91 1784 -91 
Q 1150 -91 751 415 
Q 353 922 353 1747 
Q 353 2572 751 3078 
Q 1150 3584 1784 3584 
Q 2172 3584 2448 3432 
Q 2725 3281 2906 2969 
z
M 947 1747 
Q 947 1113 1208 752 
Q 1469 391 1925 391 
Q 2381 391 2643 752 
Q 2906 1113 2906 1747 
Q 2906 2381 2643 2742 
Q 2381 3103 1925 3103 
Q 1469 3103 1208 2742 
Q 947 2381 947 1747 
z
" transform="scale(0.015625)"/>
     </defs>
     <use xlink:href="#DejaVuSans-25"/>
     <use xlink:href="#DejaVuSans-48" transform="translate(68.609375 0)"/>
     <use xlink:href="#DejaVuSans-56" transform="translate(130.140625 0)"/>
     <use xlink:href="#DejaVuSans-57" transform="translate(182.234375 0)"/>
     <use xlink:href="#DejaVuSans-3" transform="translate(221.4375 0)"/>
     <use xlink:href="#DejaVuSans-36" transform="translate(253.21875 0)"/>
     <use xlink:href="#DejaVuSans-46" transform="translate(316.703125 0)"/>
     <use xlink:href="#DejaVuSans-52" transform="translate(371.6875 0)"/>
     <use xlink:href="#DejaVuSans-55" transform="translate(432.875 0)"/>
     <use xlink:href="#DejaVuSans-48" transform="translate(471.78125 0)"/>
     <use xlink:href="#DejaVuSans-3" transform="translate(533.3125 0)"/>
     <use xlink:href="#DejaVuSans-59" transform="translate(565.09375 0)"/>
     <use xlink:href="#DejaVuSans-56" transform="translate(624.28125 0)"/>
     <use xlink:href="#DejaVuSans-3" transform="translate(676.375 0)"/>
     <use xlink:href="#DejaVuSans-2c" transform="translate(708.15625 0)"/>
     <use xlink:href="#DejaVuSans-57" transform="translate(737.65625 0)"/>
     <use xlink:href="#DejaVuSans-48" transform="translate(776.859375 0)"/>
     <use xlink:href="#DejaVuSans-55" transform="translate(838.390625 0)"/>
     <use xlink:href="#DejaVuSans-44" transform="translate(879.5 0)"/>
     <use xlink:href="#DejaVuSans-57" transform="translate(940.78125 0)"/>
     <use xlink:href="#DejaVuSans-4c" transform="translate(979.984375 0)"/>
     <use xlink:href="#DejaVuSans-52" transform="translate(1007.765625 0)"/>
     <use xlink:href="#DejaVuSans-51" transform="translate(1068.953125 0)"/>
     <use xlink:href="#DejaVuSans-3" transform="translate(1132.328125 0)"/>
     <use xlink:href="#DejaVuSans-af6" transform="translate(1164.109375 0)"/>
     <use xlink:href="#DejaVuSans-3" transform="translate(1264.109375 0)"/>
     <use xlink:href="#DejaVuSans-24" transform="translate(1295.890625 0)"/>
     <use xlink:href="#DejaVuSans-4f" transform="translate(1364.296875 0)"/>
     <use xlink:href="#DejaVuSans-4f" transform="translate(1392.078125 0)"/>
     <use xlink:href="#DejaVuSans-3" transform="translate(1419.859375 0)"/>
     <use xlink:href="#DejaVuSans-35" transform="translate(1451.640625 0)"/>
     <use xlink:href="#DejaVuSans-48" transform="translate(1516.640625 0)"/>
     <use xlink:href="#DejaVuSans-4a" transform="translate(1578.171875 0)"/>
     <use xlink:href="#DejaVuSans-4c" transform="translate(1641.65625 0)"/>
     <use xlink:href="#DejaVuSans-52" transform="translate(1669.4375 0)"/>
     <use xlink:href="#DejaVuSans-51" transform="translate(1730.625 0)"/>
     <use xlink:href="#DejaVuSans-56" transform="translate(1794 0)"/>
     <use xlink:href="#DejaVuSans-3" transform="translate(1846.09375 0)"/>
     <use xlink:href="#DejaVuSans-9" transform="translate(1877.875 0)"/>
     <use xlink:href="#DejaVuSans-3" transform="translate(1955.859375 0)"/>
     <use xlink:href="#DejaVuSans-30" transform="translate(1987.640625 0)"/>
     <use xlink:href="#DejaVuSans-52" transform="translate(2073.921875 0)"/>
     <use xlink:href="#DejaVuSans-47" transform="translate(2135.109375 0)"/>
     <use xlink:href="#DejaVuSans-48" transform="translate(2198.59375 0)"/>
     <use xlink:href="#DejaVuSans-4f" transform="translate(2260.125 0)"/>
     <use xlink:href="#DejaVuSans-56" transform="translate(2287.90625 0)"/>
    </g>
   </g>
   <g id="legend_1">
    <g id="patch_7">
     <path d="M 371.628281 93.280312 
L 560.448281 93.280312 
Q 562.048281 93.280312 562.048281 91.680312 
L 562.048281 32.477188 
Q 562.048281 30.877187 560.448281 30.877187 
L 371.628281 30.877187 
Q 370.028281 30.877187 370.028281 32.477188 
L 370.028281 91.680312 
Q 370.028281 93.280312 371.628281 93.280312 
z
" style="fill: #ffffff; opacity: 0.8; stroke: #cccccc; stroke-linejoin: miter"/>
    </g>
    <g id="line2d_25">
     <path d="M 373.228281 37.355937 
L 381.228281 37.355937 
L 389.228281 37.355937 
" style="fill: none; stroke: #059669; stroke-width: 2; stroke-linecap: round"/>
     <g>
      <use xlink:href="#mbb9e76326f" x="381.228281" y="37.355937" style="fill: #059669; stroke: #059669"/>
     </g>
    </g>
    <g id="text_18">
     <!-- SE (DeepSeek V3) -->
     <g style="fill: #262626" transform="translate(395.628281 40.155937) scale(0.08 -0.08)">
      <defs>
       <path id="DejaVuSans-28" d="M 628 4666 
L 3578 4666 
L 3578 4134 
L 1259 4134 
L 1259 2753 
L 3481 2753 
L 3481 2222 
L 1259 2222 
L 1259 531 
L 3634 531 
L 3634 0 
L 628 0 
L 628 4666 
z
" transform="scale(0.015625)"/>
       <path id="DejaVuSans-b" d="M 1984 4856 
Q 1566 4138 1362 3434 
Q 1159 2731 1159 2009 
Q 1159 1288 1364 580 
Q 1569 -128 1984 -844 
L 1484 -844 
Q 1016 -109 783 600 
Q 550 1309 550 2009 
Q 550 2706 781 3412 
Q 1013 4119 1484 4856 
L 1984 4856 
z
" transform="scale(0.015625)"/>
       <path id="DejaVuSans-27" d="M 1259 4147 
L 1259 519 
L 2022 519 
Q 2988 519 3436 956 
Q 3884 1394 3884 2338 
Q 3884 3275 3436 3711 
Q 2988 4147 2022 4147 
L 1259 4147 
z
M 628 4666 
L 1925 4666 
Q 3281 4666 3915 4102 
Q 4550 3538 4550 2338 
Q 4550 1131 3912 565 
Q 3275 0 1925 0 
L 628 0 
L 628 4666 
z
" transform="scale(0.015625)"/>
       <path id="DejaVuSans-53" d="M 1159 525 
L 1159 -1331 
L 581 -1331 
L 581 3500 
L 1159 3500 
L 1159 2969 
Q 1341 3281 1617 3432 
Q 1894 3584 2278 3584 
Q 2916 3584 3314 3078 
Q 3713 2572 3713 1747 
Q 3713 922 3314 415 
Q 2916 -91 2278 -91 
Q 1894 -91 1617 61 
Q 1341 213 1159 525 
z
M 3116 1747 
Q 3116 2381 2855 2742 
Q 2594 3103 2138 3103 
Q 1681 3103 1420 2742 
Q 1159 2381 1159 1747 
Q 1159 1113 1420 752 
Q 1681 391 2138 391 
Q 2594 391 2855 752 
Q 3116 1113 3116 1747 
z
" transform="scale(0.015625)"/>
       <path id="DejaVuSans-4e" d="M 581 4863 
L 1159 4863 
L 1159 1991 
L 2875 3500 
L 3609 3500 
L 1753 1863 
L 3688 0 
L 2938 0 
L 1159 1709 
L 1159 0 
L 581 0 
L 581 4863 
z
" transform="scale(0.015625)"/>
       <path id="DejaVuSans-39" d="M 1831 0 
L 50 4666 
L 709 4666 
L 2188 738 
L 3669 4666 
L 4325 4666 
L 2547 0 
L 1831 0 
z
" transform="scale(0.015625)"/>
       <path id="DejaVuSans-c" d="M 513 4856 
L 1013 4856 
Q 1481 4119 1714 3412 
Q 1947 2706 1947 2009 
Q 1947 1309 1714 600 
Q 1481 -109 1013 -844 
L 513 -844 
Q 928 -128 1133 580 
Q 1338 1288 1338 2009 
Q 1338 2731 1133 3434 
Q 928 4138 513 4856 
z
" transform="scale(0.015625)"/>
      </defs>
      <use xlink:href="#DejaVuSans-36"/>
      <use xlink:href="#DejaVuSans-28" transform="translate(63.484375 0)"/>
      <use xlink:href="#DejaVuSans-3" transform="translate(126.671875 0)"/>
      <use xlink:href="#DejaVuSans-b" transform="translate(158.453125 0)"/>
      <use xlink:href="#DejaVuSans-27" transform="translate(197.46875 0)"/>
      <use xlink:href="#DejaVuSans-48" transform="translate(274.46875 0)"/>
      <use xlink:href="#DejaVuSans-48" transform="translate(336 0)"/>
      <use xlink:href="#DejaVuSans-53" transform="translate(397.53125 0)"/>
      <use xlink:href="#DejaVuSans-36" transform="translate(461.015625 0)"/>
      <use xlink:href="#DejaVuSans-48" transform="translate(524.5 0)"/>
      <use xlink:href="#DejaVuSans-48" transform="translate(586.03125 0)"/>
      <use xlink:href="#DejaVuSans-4e" transform="translate(647.5625 0)"/>
      <use xlink:href="#DejaVuSans-3" transform="translate(705.46875 0)"/>
      <use xlink:href="#DejaVuSans-39" transform="translate(737.25 0)"/>
      <use xlink:href="#DejaVuSans-16" transform="translate(805.65625 0)"/>
      <use xlink:href="#DejaVuSans-c" transform="translate(869.28125 0)"/>
     </g>
    </g>
    <g id="line2d_26">
     <path d="M 373.228281 49.356562 
L 381.228281 49.356562 
L 389.228281 49.356562 
" style="fill: none; stroke: #2563eb; stroke-width: 2; stroke-linecap: round"/>
     <g>
      <use xlink:href="#mb718d2f9e2" x="381.228281" y="49.356562" style="fill: #2563eb; stroke: #2563eb"/>
     </g>
    </g>
    <g id="text_19">
     <!-- DE (DeepSeek V3) -->
     <g style="fill: #262626" transform="translate(395.628281 52.156562) scale(0.08 -0.08)">
      <use xlink:href="#DejaVuSans-27"/>
      <use xlink:href="#DejaVuSans-28" transform="translate(77 0)"/>
      <use xlink:href="#DejaVuSans-3" transform="translate(140.1875 0)"/>
      <use xlink:href="#DejaVuSans-b" transform="translate(171.96875 0)"/>
      <use xlink:href="#DejaVuSans-27" transform="translate(210.984375 0)"/>
      <use xlink:href="#DejaVuSans-48" transform="translate(287.984375 0)"/>
      <use xlink:href="#DejaVuSans-48" transform="translate(349.515625 0)"/>
      <use xlink:href="#DejaVuSans-53" transform="translate(411.046875 0)"/>
      <use xlink:href="#DejaVuSans-36" transform="translate(474.53125 0)"/>
      <use xlink:href="#DejaVuSans-48" transform="translate(538.015625 0)"/>
      <use xlink:href="#DejaVuSans-48" transform="translate(599.546875 0)"/>
      <use xlink:href="#DejaVuSans-4e" transform="translate(661.078125 0)"/>
      <use xlink:href="#DejaVuSans-3" transform="translate(718.984375 0)"/>
      <use xlink:href="#DejaVuSans-39" transform="translate(750.765625 0)"/>
      <use xlink:href="#DejaVuSans-16" transform="translate(819.171875 0)"/>
      <use xlink:href="#DejaVuSans-c" transform="translate(882.796875 0)"/>
     </g>
    </g>
    <g id="line2d_27">
     <path d="M 373.228281 61.357187 
L 381.228281 61.357187 
L 389.228281 61.357187 
" style="fill: none; stroke: #d97706; stroke-width: 2; stroke-linecap: round"/>
     <g>
      <use xlink:href="#meaf650e492" x="381.228281" y="61.357187" style="fill: #d97706; stroke: #d97706"/>
     </g>
    </g>
    <g id="text_20">
     <!-- IT (DeepSeek V3) -->
     <g style="fill: #262626" transform="translate(395.628281 64.157187) scale(0.08 -0.08)">
      <defs>
       <path id="DejaVuSans-37" d="M -19 4666 
L 3928 4666 
L 3928 4134 
L 2272 4134 
L 2272 0 
L 1638 0 
L 1638 4134 
L -19 4134 
L -19 4666 
z
" transform="scale(0.015625)"/>
      </defs>
      <use xlink:href="#DejaVuSans-2c"/>
      <use xlink:href="#DejaVuSans-37" transform="translate(29.5 0)"/>
      <use xlink:href="#DejaVuSans-3" transform="translate(90.578125 0)"/>
      <use xlink:href="#DejaVuSans-b" transform="translate(122.359375 0)"/>
      <use xlink:href="#DejaVuSans-27" transform="translate(161.375 0)"/>
      <use xlink:href="#DejaVuSans-48" transform="translate(238.375 0)"/>
      <use xlink:href="#DejaVuSans-48" transform="translate(299.90625 0)"/>
      <use xlink:href="#DejaVuSans-53" transform="translate(361.4375 0)"/>
      <use xlink:href="#DejaVuSans-36" transform="translate(424.921875 0)"/>
      <use xlink:href="#DejaVuSans-48" transform="translate(488.40625 0)"/>
      <use xlink:href="#DejaVuSans-48" transform="translate(549.9375 0)"/>
      <use xlink:href="#DejaVuSans-4e" transform="translate(611.46875 0)"/>
      <use xlink:href="#DejaVuSans-3" transform="translate(669.375 0)"/>
      <use xlink:href="#DejaVuSans-39" transform="translate(701.15625 0)"/>
      <use xlink:href="#DejaVuSans-16" transform="translate(769.5625 0)"/>
      <use xlink:href="#DejaVuSans-c" transform="translate(833.1875 0)"/>
     </g>
    </g>
    <g id="line2d_28">
     <path d="M 373.228281 73.357812 
L 381.228281 73.357812 
L 389.228281 73.357812 
" style="fill: none; stroke: #7c3aed; stroke-width: 2; stroke-linecap: round"/>
     <g>
      <use xlink:href="#meb29fbd165" x="381.228281" y="73.357812" style="fill: #7c3aed; stroke: #7c3aed"/>
     </g>
    </g>
    <g id="text_21">
     <!-- US (DeepSeek V3) -->
     <g style="fill: #262626" transform="translate(395.628281 76.157812) scale(0.08 -0.08)">
      <defs>
       <path id="DejaVuSans-38" d="M 556 4666 
L 1191 4666 
L 1191 1831 
Q 1191 1081 1462 751 
Q 1734 422 2344 422 
Q 2950 422 3222 751 
Q 3494 1081 3494 1831 
L 3494 4666 
L 4128 4666 
L 4128 1753 
Q 4128 841 3676 375 
Q 3225 -91 2344 -91 
Q 1459 -91 1007 375 
Q 556 841 556 1753 
L 556 4666 
z
" transform="scale(0.015625)"/>
      </defs>
      <use xlink:href="#DejaVuSans-38"/>
      <use xlink:href="#DejaVuSans-36" transform="translate(73.1875 0)"/>
      <use xlink:href="#DejaVuSans-3" transform="translate(136.671875 0)"/>
      <use xlink:href="#DejaVuSans-b" transform="translate(168.453125 0)"/>
      <use xlink:href="#DejaVuSans-27" transform="translate(207.46875 0)"/>
      <use xlink:href="#DejaVuSans-48" transform="translate(284.46875 0)"/>
      <use xlink:href="#DejaVuSans-48" transform="translate(346 0)"/>
      <use xlink:href="#DejaVuSans-53" transform="translate(407.53125 0)"/>
      <use xlink:href="#DejaVuSans-36" transform="translate(471.015625 0)"/>
      <use xlink:href="#DejaVuSans-48" transform="translate(534.5 0)"/>
      <use xlink:href="#DejaVuSans-48" transform="translate(596.03125 0)"/>
      <use xlink:href="#DejaVuSans-4e" transform="translate(657.5625 0)"/>
      <use xlink:href="#DejaVuSans-3" transform="translate(715.46875 0)"/>
      <use xlink:href="#DejaVuSans-39" transform="translate(747.25 0)"/>
      <use xlink:href="#DejaVuSans-16" transform="translate(815.65625 0)"/>
      <use xlink:href="#DejaVuSans-c" transform="translate(879.28125 0)"/>
     </g>
    </g>
    <g id="line2d_29">
     <path d="M 373.228281 85.358437 
L 381.228281 85.358437 
L 389.228281 85.358437 
" style="fill: none; stroke: #dc2626; stroke-width: 2; stroke-linecap: round"/>
     <g>
      <use xlink:href="#m25f6980fbc" x="381.228281" y="85.358437" style="fill: #dc2626; stroke: #dc2626"/>
     </g>
    </g>
    <g id="text_22">
     <!-- CN (DeepSeek V3) -->
     <g style="fill: #262626" transform="translate(395.628281 88.158437) scale(0.08 -0.08)">
      <defs>
       <path id="DejaVuSans-26" d="M 4122 4306 
L 4122 3641 
Q 3803 3938 3442 4084 
Q 3081 4231 2675 4231 
Q 1875 4231 1450 3742 
Q 1025 3253 1025 2328 
Q 1025 1406 1450 917 
Q 1875 428 2675 428 
Q 3081 428 3442 575 
Q 3803 722 4122 1019 
L 4122 359 
Q 3791 134 3420 21 
Q 3050 -91 2638 -91 
Q 1578 -91 968 557 
Q 359 1206 359 2328 
Q 359 3453 968 4101 
Q 1578 4750 2638 4750 
Q 3056 4750 3426 4639 
Q 3797 4528 4122 4306 
z
" transform="scale(0.015625)"/>
       <path id="DejaVuSans-31" d="M 628 4666 
L 1478 4666 
L 3547 763 
L 3547 4666 
L 4159 4666 
L 4159 0 
L 3309 0 
L 1241 3903 
L 1241 0 
L 628 0 
L 628 4666 
z
" transform="scale(0.015625)"/>
      </defs>
      <use xlink:href="#DejaVuSans-26"/>
      <use xlink:href="#DejaVuSans-31" transform="translate(69.828125 0)"/>
      <use xlink:href="#DejaVuSans-3" transform="translate(144.640625 0)"/>
      <use xlink:href="#DejaVuSans-b" transform="translate(176.421875 0)"/>
      <use xlink:href="#DejaVuSans-27" transform="translate(215.4375 0)"/>
      <use xlink:href="#DejaVuSans-48" transform="translate(292.4375 0)"/>
      <use xlink:href="#DejaVuSans-48" transform="translate(353.96875 0)"/>
      <use xlink:href="#DejaVuSans-53" transform="translate(415.5 0)"/>
      <use xlink:href="#DejaVuSans-36" transform="translate(478.984375 0)"/>
      <use xlink:href="#DejaVuSans-48" transform="translate(542.46875 0)"/>
      <use xlink:href="#DejaVuSans-48" transform="translate(604 0)"/>
      <use xlink:href="#DejaVuSans-4e" transform="translate(665.53125 0)"/>
      <use xlink:href="#DejaVuSans-3" transform="translate(723.4375 0)"/>
      <use xlink:href="#DejaVuSans-39" transform="translate(755.21875 0)"/>
      <use xlink:href="#DejaVuSans-16" transform="translate(823.625 0)"/>
      <use xlink:href="#DejaVuSans-c" transform="translate(887.25 0)"/>
     </g>
    </g>
    <g id="line2d_30">
     <path d="M 485.729531 37.355937 
L 493.729531 37.355937 
L 501.729531 37.355937 
" style="fill: none; stroke-dasharray: 7.4,3.2; stroke-dashoffset: 0; stroke: #059669; stroke-width: 2"/>
     <g>
      <use xlink:href="#mbb9e76326f" x="493.729531" y="37.355937" style="fill: #059669; stroke: #059669"/>
     </g>
    </g>
    <g id="text_23">
     <!-- SE (Kimi K2) -->
     <g style="fill: #262626" transform="translate(508.129531 40.155937) scale(0.08 -0.08)">
      <defs>
       <path id="DejaVuSans-2e" d="M 628 4666 
L 1259 4666 
L 1259 2694 
L 3353 4666 
L 4166 4666 
L 1850 2491 
L 4331 0 
L 3500 0 
L 1259 2247 
L 1259 0 
L 628 0 
L 628 4666 
z
" transform="scale(0.015625)"/>
       <path id="DejaVuSans-50" d="M 3328 2828 
Q 3544 3216 3844 3400 
Q 4144 3584 4550 3584 
Q 5097 3584 5394 3201 
Q 5691 2819 5691 2113 
L 5691 0 
L 5113 0 
L 5113 2094 
Q 5113 2597 4934 2840 
Q 4756 3084 4391 3084 
Q 3944 3084 3684 2787 
Q 3425 2491 3425 1978 
L 3425 0 
L 2847 0 
L 2847 2094 
Q 2847 2600 2669 2842 
Q 2491 3084 2119 3084 
Q 1678 3084 1418 2786 
Q 1159 2488 1159 1978 
L 1159 0 
L 581 0 
L 581 3500 
L 1159 3500 
L 1159 2956 
Q 1356 3278 1631 3431 
Q 1906 3584 2284 3584 
Q 2666 3584 2933 3390 
Q 3200 3197 3328 2828 
z
" transform="scale(0.015625)"/>
      </defs>
      <use xlink:href="#DejaVuSans-36"/>
      <use xlink:href="#DejaVuSans-28" transform="translate(63.484375 0)"/>
      <use xlink:href="#DejaVuSans-3" transform="translate(126.671875 0)"/>
      <use xlink:href="#DejaVuSans-b" transform="translate(158.453125 0)"/>
      <use xlink:href="#DejaVuSans-2e" transform="translate(197.46875 0)"/>
      <use xlink:href="#DejaVuSans-4c" transform="translate(263.046875 0)"/>
      <use xlink:href="#DejaVuSans-50" transform="translate(290.828125 0)"/>
      <use xlink:href="#DejaVuSans-4c" transform="translate(388.234375 0)"/>
      <use xlink:href="#DejaVuSans-3" transform="translate(416.015625 0)"/>
      <use xlink:href="#DejaVuSans-2e" transform="translate(447.796875 0)"/>
      <use xlink:href="#DejaVuSans-15" transform="translate(513.375 0)"/>
      <use xlink:href="#DejaVuSans-c" transform="translate(577 0)"/>
     </g>
    </g>
    <g id="line2d_31">
     <path d="M 485.729531 49.356562 
L 493.729531 49.356562 
L 501.729531 49.356562 
" style="fill: none; stroke-dasharray: 7.4,3.2; stroke-dashoffset: 0; stroke: #2563eb; stroke-width: 2"/>
     <g>
      <use xlink:href="#mb718d2f9e2" x="493.729531" y="49.356562" style="fill: #2563eb; stroke: #2563eb"/>
     </g>
    </g>
    <g id="text_24">
     <!-- DE (Kimi K2) -->
     <g style="fill: #262626" transform="translate(508.129531 52.156562) scale(0.08 -0.08)">
      <use xlink:href="#DejaVuSans-27"/>
      <use xlink:href="#DejaVuSans-28" transform="translate(77 0)"/>
      <use xlink:href="#DejaVuSans-3" transform="translate(140.1875 0)"/>
      <use xlink:href="#DejaVuSans-b" transform="translate(171.96875 0)"/>
      <use xlink:href="#DejaVuSans-2e" transform="translate(210.984375 0)"/>
      <use xlink:href="#DejaVuSans-4c" transform="translate(276.5625 0)"/>
      <use xlink:href="#DejaVuSans-50" transform="translate(304.34375 0)"/>
      <use xlink:href="#DejaVuSans-4c" transform="translate(401.75 0)"/>
      <use xlink:href="#DejaVuSans-3" transform="translate(429.53125 0)"/>
      <use xlink:href="#DejaVuSans-2e" transform="translate(461.3125 0)"/>
      <use xlink:href="#DejaVuSans-15" transform="translate(526.890625 0)"/>
      <use xlink:href="#DejaVuSans-c" transform="translate(590.515625 0)"/>
     </g>
    </g>
    <g id="line2d_32">
     <path d="M 485.729531 61.357187 
L 493.729531 61.357187 
L 501.729531 61.357187 
" style="fill: none; stroke-dasharray: 7.4,3.2; stroke-dashoffset: 0; stroke: #d97706; stroke-width: 2"/>
     <g>
      <use xlink:href="#meaf650e492" x="493.729531" y="61.357187" style="fill: #d97706; stroke: #d97706"/>
     </g>
    </g>
    <g id="text_25">
     <!-- IT (Kimi K2) -->
     <g style="fill: #262626" transform="translate(508.129531 64.157187) scale(0.08 -0.08)">
      <use xlink:href="#DejaVuSans-2c"/>
      <use xlink:href="#DejaVuSans-37" transform="translate(29.5 0)"/>
      <use xlink:href="#DejaVuSans-3" transform="translate(90.578125 0)"/>
      <use xlink:href="#DejaVuSans-b" transform="translate(122.359375 0)"/>
      <use xlink:href="#DejaVuSans-2e" transform="translate(161.375 0)"/>
      <use xlink:href="#DejaVuSans-4c" transform="translate(226.953125 0)"/>
      <use xlink:href="#DejaVuSans-50" transform="translate(254.734375 0)"/>
      <use xlink:href="#DejaVuSans-4c" transform="translate(352.140625 0)"/>
      <use xlink:href="#DejaVuSans-3" transform="translate(379.921875 0)"/>
      <use xlink:href="#DejaVuSans-2e" transform="translate(411.703125 0)"/>
      <use xlink:href="#DejaVuSans-15" transform="translate(477.28125 0)"/>
      <use xlink:href="#DejaVuSans-c" transform="translate(540.90625 0)"/>
     </g>
    </g>
    <g id="line2d_33">
     <path d="M 485.729531 73.357812 
L 493.729531 73.357812 
L 501.729531 73.357812 
" style="fill: none; stroke-dasharray: 7.4,3.2; stroke-dashoffset: 0; stroke: #7c3aed; stroke-width: 2"/>
     <g>
      <use xlink:href="#meb29fbd165" x="493.729531" y="73.357812" style="fill: #7c3aed; stroke: #7c3aed"/>
     </g>
    </g>
    <g id="text_26">
     <!-- US (Kimi K2) -->
     <g style="fill: #262626" transform="translate(508.129531 76.157812) scale(0.08 -0.08)">
      <use xlink:href="#DejaVuSans-38"/>
      <use xlink:href="#DejaVuSans-36" transform="translate(73.1875 0)"/>
      <use xlink:href="#DejaVuSans-3" transform="translate(136.671875 0)"/>
      <use xlink:href="#DejaVuSans-b" transform="translate(168.453125 0)"/>
      <use xlink:href="#DejaVuSans-2e" transform="translate(207.46875 0)"/>
      <use xlink:href="#DejaVuSans-4c" transform="translate(273.046875 0)"/>
      <use xlink:href="#DejaVuSans-50" transform="translate(300.828125 0)"/>
      <use xlink:href="#DejaVuSans-4c" transform="translate(398.234375 0)"/>
      <use xlink:href="#DejaVuSans-3" transform="translate(426.015625 0)"/>
      <use xlink:href="#DejaVuSans-2e" transform="translate(457.796875 0)"/>
      <use xlink:href="#DejaVuSans-15" transform="translate(523.375 0)"/>
      <use xlink:href="#DejaVuSans-c" transform="translate(587 0)"/>
     </g>
    </g>
    <g id="line2d_34">
     <path d="M 485.729531 85.358437 
L 493.729531 85.358437 
L 501.729531 85.358437 
" style="fill: none; stroke-dasharray: 7.4,3.2; stroke-dashoffset: 0; stroke: #dc2626; stroke-width: 2"/>
     <g>
      <use xlink:href="#m25f6980fbc" x="493.729531" y="85.358437" style="fill: #dc2626; stroke: #dc2626"/>
     </g>
    </g>
    <g id="text_27">
     <!-- CN (Kimi K2) -->
     <g style="fill: #262626" transform="translate(508.129531 88.158437) scale(0.08 -0.08)">
      <use xlink:href="#DejaVuSans-26"/>
      <use xlink:href="#DejaVuSans-31" transform="translate(69.828125 0)"/>
      <use xlink:href="#DejaVuSans-3" transform="translate(144.640625 0)"/>
      <use xlink:href="#DejaVuSans-b" transform="translate(176.421875 0)"/>
      <use xlink:href="#DejaVuSans-2e" transform="translate(215.4375 0)"/>
      <use xlink:href="#DejaVuSans-4c" transform="translate(281.015625 0)"/>
      <use xlink:href="#DejaVuSans-50" transform="translate(308.796875 0)"/>
      <use xlink:href="#DejaVuSans-4c" transform="translate(406.203125 0)"/>
      <use xlink:href="#DejaVuSans-3" transform="translate(433.984375 0)"/>
      <use xlink:href="#DejaVuSans-2e" transform="translate(465.765625 0)"/>
      <use xlink:href="#DejaVuSans-15" transform="translate(531.34375 0)"/>
      <use xlink:href="#DejaVuSans-c" transform="translate(594.96875 0)"/>
     </g>
    </g>
   </g>
  </g>
 </g>
 <defs>
  <clipPath id="pf7b1c48bad">
   <rect x="75.438281" y="26.877187" width="781.2" height="498.96"/>
  </clipPath>
 </defs>
</svg>
