<?xml version="1.0" encoding="utf-8" standalone="no"?>
<!DOCTYPE svg PUBLIC "-//W3C//DTD SVG 1.1//EN"
  "http://www.w3.org/Graphics/SVG/1.1/DTD/svg11.dtd">
<svg xmlns:xlink="http://www.w3.org/1999/xlink" width="699.060656pt" height="411.066937pt" viewBox="0 0 699.060656 411.066937" xmlns="http://www.w3.org/2000/svg" version="1.1">
 <metadata>
  <rdf:RDF xmlns:dc="http://purl.org/dc/elements/1.1/" xmlns:cc="http://creativecommons.org/ns#" xmlns:rdf="http://www.w3.org/1999/02/22-rdf-syntax-ns#">
   <cc:Work>
    <dc:type rdf:resource="http://purl.org/dc/dcmitype/StillImage"/>
    <dc:date>2026-10-10T11:58:44.266369</dc:date>
    <dc:format>image/svg+xml</dc:format>
    <dc:creator>
     <cc:Agent>
      <dc:title>Matplotlib v3.11.2, https://matplotlib.org/</dc:title>
     </cc:Agent>
    </dc:creator>
   </cc:Work>
  </rdf:RDF>
 </metadata>
 <defs>
  <style type="text/css">*{stroke-linejoin: round; stroke-linecap: butt}</style>
 </defs>
 <g id="figure_1">
  <g id="patch_1">
   <path d="M 0 411.066937 
L 699.060656 411.066937 
L 699.060656 0 
L 0 0 
z
" style="fill: #ffffff"/>
  </g>
  <g id="axes_1">
   <g id="patch_2">
    <path d="M 55.924453 359.315672 
L 691.860656 359.315672 
L 691.860656 25.509469 
L 55.924453 25.509469 
z
" style="fill: #ffffff"/>
   </g>
   <g id="matplotlib.axis_1">
    <g id="xtick_1">
     <g id="line2d_1">
      <path d="M 127.882418 359.315672 
L 127.882418 25.509469 
" clip-path="url(#pca81b377d0)" style="fill: none; stroke: #cccccc; stroke-linecap: round"/>
     </g>
     <g id="text_1">
      <!-- 10 -->
      <g style="fill: #262626" transform="translate(118.434106 380.098191) scale(0.1485 -0.1485)">
       <defs>
        <path id="DejaVuSans-14" d="M 794 531 
L 1825 531 
L 1825 4091 
L 703 3866 
L 703 4441 
L 1819 4666 
L 2450 4666 
L 2450 531 
L 3481 531 
L 3481 0 
L 794 0 
L 794 531 
z
" transform="scale(0.015625)"/>
        <path id="DejaVuSans-13" d="M 2034 4250 
Q 1547 4250 1301 3770 
Q 1056 3291 1056 2328 
Q 1056 1369 1301 889 
Q 1547 409 2034 409 
Q 2525 409 2770 889 
Q 3016 1369 3016 2328 
Q 3016 3291 2770 3770 
Q 2525 4250 2034 4250 
z
M 2034 4750 
Q 2819 4750 3233 4129 
Q 3647 3509 3647 2328 
Q 3647 1150 3233 529 
Q 2819 -91 2034 -91 
Q 1250 -91 836 529 
Q 422 1150 422 2328 
Q 422 3509 836 4129 
Q 1250 4750 2034 4750 
z
" transform="scale(0.015625)"/>
       </defs>
       <use xlink:href="#DejaVuSans-14"/>
       <use xlink:href="#DejaVuSans-13" transform="translate(63.625 0)"/>
      </g>
     </g>
    </g>
    <g id="xtick_2">
     <g id="line2d_2">
      <path d="M 250.887486 359.315672 
L 250.887486 25.509469 
" clip-path="url(#pca81b377d0)" style="fill: none; stroke: #cccccc; stroke-linecap: round"/>
     </g>
     <g id="text_2">
      <!-- 25 -->
      <g style="fill: #262626" transform="translate(241.439174 380.098191) scale(0.1485 -0.1485)">
       <defs>
        <path id="DejaVuSans-15" d="M 1228 531 
L 3431 531 
L 3431 0 
L 469 0 
L 469 531 
Q 828 903 1448 1529 
Q 2069 2156 2228 2338 
Q 2531 2678 2651 2914 
Q 2772 3150 2772 3378 
Q 2772 3750 2511 3984 
Q 2250 4219 1831 4219 
Q 1534 4219 1204 4116 
Q 875 4013 500 3803 
L 500 4441 
Q 881 4594 1212 4672 
Q 1544 4750 1819 4750 
Q 2544 4750 2975 4387 
Q 3406 4025 3406 3419 
Q 3406 3131 3298 2873 
Q 3191 2616 2906 2266 
Q 2828 2175 2409 1742 
Q 1991 1309 1228 531 
z
" transform="scale(0.015625)"/>
        <path id="DejaVuSans-18" d="M 691 4666 
L 3169 4666 
L 3169 4134 
L 1269 4134 
L 1269 2991 
Q 1406 3038 1543 3061 
Q 1681 3084 1819 3084 
Q 2600 3084 3056 2656 
Q 3513 2228 3513 1497 
Q 3513 744 3044 326 
Q 2575 -91 1722 -91 
Q 1428 -91 1123 -41 
Q 819 9 494 109 
L 494 744 
Q 775 591 1075 516 
Q 1375 441 1709 441 
Q 2250 441 2565 725 
Q 2881 1009 2881 1497 
Q 2881 1984 2565 2268 
Q 2250 2553 1709 2553 
Q 1456 2553 1204 2497 
Q 953 2441 691 2322 
L 691 4666 
z
" transform="scale(0.015625)"/>
       </defs>
       <use xlink:href="#DejaVuSans-15"/>
       <use xlink:href="#DejaVuSans-18" transform="translate(63.625 0)"/>
      </g>
     </g>
    </g>
    <g id="xtick_3">
     <g id="line2d_3">
      <path d="M 373.892555 359.315672 
L 373.892555 25.509469 
" clip-path="url(#pca81b377d0)" style="fill: none; stroke: #cccccc; stroke-linecap: round"/>
     </g>
     <g id="text_3">
      <!-- 50 -->
      <g style="fill: #262626" transform="translate(364.444242 380.098191) scale(0.1485 -0.1485)">
       <use xlink:href="#DejaVuSans-18"/>
       <use xlink:href="#DejaVuSans-13" transform="translate(63.625 0)"/>
      </g>
     </g>
    </g>
    <g id="xtick_4">
     <g id="line2d_4">
      <path d="M 496.897623 359.315672 
L 496.897623 25.509469 
" clip-path="url(#pca81b377d0)" style="fill: none; stroke: #cccccc; stroke-linecap: round"/>
     </g>
     <g id="text_4">
      <!-- 100 -->
      <g style="fill: #262626" transform="translate(482.725154 380.098191) scale(0.1485 -0.1485)">
       <use xlink:href="#DejaVuSans-14"/>
       <use xlink:href="#DejaVuSans-13" transform="translate(63.625 0)"/>
       <use xlink:href="#DejaVuSans-13" transform="translate(127.25 0)"/>
      </g>
     </g>
    </g>
    <g id="xtick_5">
     <g id="line2d_5">
      <path d="M 619.902691 359.315672 
L 619.902691 25.509469 
" clip-path="url(#pca81b377d0)" style="fill: none; stroke: #cccccc; stroke-linecap: round"/>
     </g>
     <g id="text_5">
      <!-- 200 -->
      <g style="fill: #262626" transform="translate(605.730223 380.098191) scale(0.1485 -0.1485)">
       <use xlink:href="#DejaVuSans-15"/>
       <use xlink:href="#DejaVuSans-13" transform="translate(63.625 0)"/>
       <use xlink:href="#DejaVuSans-13" transform="translate(127.25 0)"/>
      </g>
     </g>
    </g>
    <g id="text_6">
     <!-- Overhead-Budget B (%) -->
     <g style="fill: #262626" transform="translate(277.835414 399.975141) scale(0.162 -0.162)">
      <defs>
       <path id="DejaVuSans-32" d="M 2522 4238 
Q 1834 4238 1429 3725 
Q 1025 3213 1025 2328 
Q 1025 1447 1429 934 
Q 1834 422 2522 422 
Q 3209 422 3611 934 
Q 4013 1447 4013 2328 
Q 4013 3213 3611 3725 
Q 3209 4238 2522 4238 
z
M 2522 4750 
Q 3503 4750 4090 4092 
Q 4678 3434 4678 2328 
Q 4678 1225 4090 567 
Q 3503 -91 2522 -91 
Q 1538 -91 948 565 
Q 359 1222 359 2328 
Q 359 3434 948 4092 
Q 1538 4750 2522 4750 
z
" transform="scale(0.015625)"/>
       <path id="DejaVuSans-59" d="M 191 3500 
L 800 3500 
L 1894 563 
L 2988 3500 
L 3597 3500 
L 2284 0 
L 1503 0 
L 191 3500 
z
" transform="scale(0.015625)"/>
       <path id="DejaVuSans-48" d="M 3597 1894 
L 3597 1613 
L 953 1613 
Q 991 1019 1311 708 
Q 1631 397 2203 397 
Q 2534 397 2845 478 
Q 3156 559 3463 722 
L 3463 178 
Q 3153 47 2828 -22 
Q 2503 -91 2169 -91 
Q 1331 -91 842 396 
Q 353 884 353 1716 
Q 353 2575 817 3079 
Q 1281 3584 2069 3584 
Q 2775 3584 3186 3129 
Q 3597 2675 3597 1894 
z
M 3022 2063 
Q 3016 2534 2758 2815 
Q 2500 3097 2075 3097 
Q 1594 3097 1305 2825 
Q 1016 2553 972 2059 
L 3022 2063 
z
" transform="scale(0.015625)"/>
       <path id="DejaVuSans-55" d="M 2631 2963 
Q 2534 3019 2420 3045 
Q 2306 3072 2169 3072 
Q 1681 3072 1420 2755 
Q 1159 2438 1159 1844 
L 1159 0 
L 581 0 
L 581 3500 
L 1159 3500 
L 1159 2956 
Q 1341 3275 1631 3429 
Q 1922 3584 2338 3584 
Q 2397 3584 2469 3576 
Q 2541 3569 2628 3553 
L 2631 2963 
z
" transform="scale(0.015625)"/>
       <path id="DejaVuSans-4b" d="M 3513 2113 
L 3513 0 
L 2938 0 
L 2938 2094 
Q 2938 2591 2744 2837 
Q 2550 3084 2163 3084 
Q 1697 3084 1428 2787 
Q 1159 2491 1159 1978 
L 1159 0 
L 581 0 
L 581 4863 
L 1159 4863 
L 1159 2956 
Q 1366 3272 1645 3428 
Q 1925 3584 2291 3584 
Q 2894 3584 3203 3211 
Q 3513 2838 3513 2113 
z
" transform="scale(0.015625)"/>
       <path id="DejaVuSans-44" d="M 2194 1759 
Q 1497 1759 1228 1600 
Q 959 1441 959 1056 
Q 959 750 1161 570 
Q 1363 391 1709 391 
Q 2188 391 2477 730 
Q 2766 1069 2766 1631 
L 2766 1759 
L 2194 1759 
z
M 3341 1997 
L 3341 0 
L 2766 0 
L 2766 531 
Q 2569 213 2275 61 
Q 1981 -91 1556 -91 
Q 1019 -91 701 211 
Q 384 513 384 1019 
Q 384 1609 779 1909 
Q 1175 2209 1959 2209 
L 2766 2209 
L 2766 2266 
Q 2766 2663 2505 2880 
Q 2244 3097 1772 3097 
Q 1472 3097 1187 3025 
Q 903 2953 641 2809 
L 641 3341 
Q 956 3463 1253 3523 
Q 1550 3584 1831 3584 
Q 2591 3584 2966 3190 
Q 3341 2797 3341 1997 
z
" transform="scale(0.015625)"/>
       <path id="DejaVuSans-47" d="M 2906 2969 
L 2906 4863 
L 3481 4863 
L 3481 0 
L 2906 0 
L 2906 525 
Q 2725 213 2448 61 
Q 2172 -91 1784 -91 
Q 1150 -91 751 415 
Q 353 922 353 1747 
Q 353 2572 751 3078 
Q 1150 3584 1784 3584 
Q 2172 3584 2448 3432 
Q 2725 3281 2906 2969 
z
M 947 1747 
Q 947 1113 1208 752 
Q 1469 391 1925 391 
Q 2381 391 2643 752 
Q 2906 1113 2906 1747 
Q 2906 2381 2643 2742 
Q 2381 3103 1925 3103 
Q 1469 3103 1208 2742 
Q 947 2381 947 1747 
z
" transform="scale(0.015625)"/>
       <path id="DejaVuSans-10" d="M 313 2009 
L 1997 2009 
L 1997 1497 
L 313 1497 
L 313 2009 
z
" transform="scale(0.015625)"/>
       <path id="DejaVuSans-25" d="M 1259 2228 
L 1259 519 
L 2272 519 
Q 2781 519 3026 730 
Q 3272 941 3272 1375 
Q 3272 1813 3026 2020 
Q 2781 2228 2272 2228 
L 1259 2228 
z
M 1259 4147 
L 1259 2741 
L 2194 2741 
Q 2656 2741 2882 2914 
Q 3109 3088 3109 3444 
Q 3109 3797 2882 3972 
Q 2656 4147 2194 4147 
L 1259 4147 
z
M 628 4666 
L 2241 4666 
Q 2963 4666 3353 4366 
Q 3744 4066 3744 3513 
Q 3744 3084 3544 2831 
Q 3344 2578 2956 2516 
Q 3422 2416 3680 2098 
Q 3938 1781 3938 1306 
Q 3938 681 3513 340 
Q 3088 0 2303 0 
L 628 0 
L 628 4666 
z
" transform="scale(0.015625)"/>
       <path id="DejaVuSans-58" d="M 544 1381 
L 544 3500 
L 1119 3500 
L 1119 1403 
Q 1119 906 1312 657 
Q 1506 409 1894 409 
Q 2359 409 2629 706 
Q 2900 1003 2900 1516 
L 2900 3500 
L 3475 3500 
L 3475 0 
L 2900 0 
L 2900 538 
Q 2691 219 2414 64 
Q 2138 -91 1772 -91 
Q 1169 -91 856 284 
Q 544 659 544 1381 
z
M 1991 3584 
L 1991 3584 
z
" transform="scale(0.015625)"/>
       <path id="DejaVuSans-4a" d="M 2906 1791 
Q 2906 2416 2648 2759 
Q 2391 3103 1925 3103 
Q 1463 3103 1205 2759 
Q 947 2416 947 1791 
Q 947 1169 1205 825 
Q 1463 481 1925 481 
Q 2391 481 2648 825 
Q 2906 1169 2906 1791 
z
M 3481 434 
Q 3481 -459 3084 -895 
Q 2688 -1331 1869 -1331 
Q 1566 -1331 1297 -1286 
Q 1028 -1241 775 -1147 
L 775 -588 
Q 1028 -725 1275 -790 
Q 1522 -856 1778 -856 
Q 2344 -856 2625 -561 
Q 2906 -266 2906 331 
L 2906 616 
Q 2728 306 2450 153 
Q 2172 0 1784 0 
Q 1141 0 747 490 
Q 353 981 353 1791 
Q 353 2603 747 3093 
Q 1141 3584 1784 3584 
Q 2172 3584 2450 3431 
Q 2728 3278 2906 2969 
L 2906 3500 
L 3481 3500 
L 3481 434 
z
" transform="scale(0.015625)"/>
       <path id="DejaVuSans-57" d="M 1172 4494 
L 1172 3500 
L 2356 3500 
L 2356 3053 
L 1172 3053 
L 1172 1153 
Q 1172 725 1289 603 
Q 1406 481 1766 481 
L 2356 481 
L 2356 0 
L 1766 0 
Q 1100 0 847 248 
Q 594 497 594 1153 
L 594 3053 
L 172 3053 
L 172 3500 
L 594 3500 
L 594 4494 
L 1172 4494 
z
" transform="scale(0.015625)"/>
       <path id="DejaVuSans-3" transform="scale(0.015625)"/>
       <path id="DejaVuSans-b" d="M 1984 4856 
Q 1566 4138 1362 3434 
Q 1159 2731 1159 2009 
Q 1159 1288 1364 580 
Q 1569 -128 1984 -844 
L 1484 -844 
Q 1016 -109 783 600 
Q 550 1309 550 2009 
Q 550 2706 781 3412 
Q 1013 4119 1484 4856 
L 1984 4856 
z
" transform="scale(0.015625)"/>
       <path id="DejaVuSans-8" d="M 4653 2053 
Q 4381 2053 4226 1822 
Q 4072 1591 4072 1178 
Q 4072 772 4226 539 
Q 4381 306 4653 306 
Q 4919 306 5073 539 
Q 5228 772 5228 1178 
Q 5228 1588 5073 1820 
Q 4919 2053 4653 2053 
z
M 4653 2450 
Q 5147 2450 5437 2106 
Q 5728 1763 5728 1178 
Q 5728 594 5436 251 
Q 5144 -91 4653 -91 
Q 4153 -91 3862 251 
Q 3572 594 3572 1178 
Q 3572 1766 3864 2108 
Q 4156 2450 4653 2450 
z
M 1428 4353 
Q 1159 4353 1004 4120 
Q 850 3888 850 3481 
Q 850 3069 1003 2837 
Q 1156 2606 1428 2606 
Q 1700 2606 1854 2837 
Q 2009 3069 2009 3481 
Q 2009 3884 1853 4118 
Q 1697 4353 1428 4353 
z
M 4250 4750 
L 4750 4750 
L 1831 -91 
L 1331 -91 
L 4250 4750 
z
M 1428 4750 
Q 1922 4750 2215 4408 
Q 2509 4066 2509 3481 
Q 2509 2891 2217 2550 
Q 1925 2209 1428 2209 
Q 931 2209 642 2551 
Q 353 2894 353 3481 
Q 353 4063 643 4406 
Q 934 4750 1428 4750 
z
" transform="scale(0.015625)"/>
       <path id="DejaVuSans-c" d="M 513 4856 
L 1013 4856 
Q 1481 4119 1714 3412 
Q 1947 2706 1947 2009 
Q 1947 1309 1714 600 
Q 1481 -109 1013 -844 
L 513 -844 
Q 928 -128 1133 580 
Q 1338 1288 1338 2009 
Q 1338 2731 1133 3434 
Q 928 4138 513 4856 
z
" transform="scale(0.015625)"/>
      </defs>
      <use xlink:href="#DejaVuSans-32"/>
      <use xlink:href="#DejaVuSans-59" transform="translate(78.71875 0)"/>
      <use xlink:href="#DejaVuSans-48" transform="translate(137.90625 0)"/>
      <use xlink:href="#DejaVuSans-55" transform="translate(199.4375 0)"/>
      <use xlink:href="#DejaVuSans-4b" transform="translate(238.796875 0)"/>
      <use xlink:href="#DejaVuSans-48" transform="translate(302.171875 0)"/>
      <use xlink:href="#DejaVuSans-44" transform="translate(363.703125 0)"/>
      <use xlink:href="#DejaVuSans-47" transform="translate(424.984375 0)"/>
      <use xlink:href="#DejaVuSans-10" transform="translate(488.46875 0)"/>
      <use xlink:href="#DejaVuSans-25" transform="translate(520.984375 0)"/>
      <use xlink:href="#DejaVuSans-58" transform="translate(589.59375 0)"/>
      <use xlink:href="#DejaVuSans-47" transform="translate(652.96875 0)"/>
      <use xlink:href="#DejaVuSans-4a" transform="translate(716.453125 0)"/>
      <use xlink:href="#DejaVuSans-48" transform="translate(779.9375 0)"/>
      <use xlink:href="#DejaVuSans-57" transform="translate(841.46875 0)"/>
      <use xlink:href="#DejaVuSans-3" transform="translate(880.671875 0)"/>
      <use xlink:href="#DejaVuSans-25" transform="translate(912.453125 0)"/>
      <use xlink:href="#DejaVuSans-3" transform="translate(981.0625 0)"/>
      <use xlink:href="#DejaVuSans-b" transform="translate(1012.84375 0)"/>
      <use xlink:href="#DejaVuSans-8" transform="translate(1051.859375 0)"/>
      <use xlink:href="#DejaVuSans-c" transform="translate(1146.875 0)"/>
     </g>
    </g>
   </g>
   <g id="matplotlib.axis_2">
    <g id="ytick_1">
     <g id="line2d_6">
      <path d="M 55.924453 344.142663 
L 691.860656 344.142663 
" clip-path="url(#pca81b377d0)" style="fill: none; stroke: #cccccc; stroke-opacity: 0.3; stroke-linecap: round"/>
     </g>
     <g id="text_7">
      <!-- 0 -->
      <g style="fill: #262626" transform="translate(36.976141 349.783922) scale(0.1485 -0.1485)">
       <use xlink:href="#DejaVuSans-13"/>
      </g>
     </g>
    </g>
    <g id="ytick_2">
     <g id="line2d_7">
      <path d="M 55.924453 270.127983 
L 691.860656 270.127983 
" clip-path="url(#pca81b377d0)" style="fill: none; stroke: #cccccc; stroke-opacity: 0.3; stroke-linecap: round"/>
     </g>
     <g id="text_8">
      <!-- 20 -->
      <g style="fill: #262626" transform="translate(27.527828 275.769243) scale(0.1485 -0.1485)">
       <use xlink:href="#DejaVuSans-15"/>
       <use xlink:href="#DejaVuSans-13" transform="translate(63.625 0)"/>
      </g>
     </g>
    </g>
    <g id="ytick_3">
     <g id="line2d_8">
      <path d="M 55.924453 196.113304 
L 691.860656 196.113304 
" clip-path="url(#pca81b377d0)" style="fill: none; stroke: #cccccc; stroke-opacity: 0.3; stroke-linecap: round"/>
     </g>
     <g id="text_9">
      <!-- 40 -->
      <g style="fill: #262626" transform="translate(27.527828 201.754564) scale(0.1485 -0.1485)">
       <defs>
        <path id="DejaVuSans-17" d="M 2419 4116 
L 825 1625 
L 2419 1625 
L 2419 4116 
z
M 2253 4666 
L 3047 4666 
L 3047 1625 
L 3713 1625 
L 3713 1100 
L 3047 1100 
L 3047 0 
L 2419 0 
L 2419 1100 
L 313 1100 
L 313 1709 
L 2253 4666 
z
" transform="scale(0.015625)"/>
       </defs>
       <use xlink:href="#DejaVuSans-17"/>
       <use xlink:href="#DejaVuSans-13" transform="translate(63.625 0)"/>
      </g>
     </g>
    </g>
    <g id="ytick_4">
     <g id="line2d_9">
      <path d="M 55.924453 122.098625 
L 691.860656 122.098625 
" clip-path="url(#pca81b377d0)" style="fill: none; stroke: #cccccc; stroke-opacity: 0.3; stroke-linecap: round"/>
     </g>
     <g id="text_10">
      <!-- 60 -->
      <g style="fill: #262626" transform="translate(27.527828 127.739885) scale(0.1485 -0.1485)">
       <defs>
        <path id="DejaVuSans-19" d="M 2113 2584 
Q 1688 2584 1439 2293 
Q 1191 2003 1191 1497 
Q 1191 994 1439 701 
Q 1688 409 2113 409 
Q 2538 409 2786 701 
Q 3034 994 3034 1497 
Q 3034 2003 2786 2293 
Q 2538 2584 2113 2584 
z
M 3366 4563 
L 3366 3988 
Q 3128 4100 2886 4159 
Q 2644 4219 2406 4219 
Q 1781 4219 1451 3797 
Q 1122 3375 1075 2522 
Q 1259 2794 1537 2939 
Q 1816 3084 2150 3084 
Q 2853 3084 3261 2657 
Q 3669 2231 3669 1497 
Q 3669 778 3244 343 
Q 2819 -91 2113 -91 
Q 1303 -91 875 529 
Q 447 1150 447 2328 
Q 447 3434 972 4092 
Q 1497 4750 2381 4750 
Q 2619 4750 2861 4703 
Q 3103 4656 3366 4563 
z
" transform="scale(0.015625)"/>
       </defs>
       <use xlink:href="#DejaVuSans-19"/>
       <use xlink:href="#DejaVuSans-13" transform="translate(63.625 0)"/>
      </g>
     </g>
    </g>
    <g id="ytick_5">
     <g id="line2d_10">
      <path d="M 55.924453 48.083946 
L 691.860656 48.083946 
" clip-path="url(#pca81b377d0)" style="fill: none; stroke: #cccccc; stroke-opacity: 0.3; stroke-linecap: round"/>
     </g>
     <g id="text_11">
      <!-- 80 -->
      <g style="fill: #262626" transform="translate(27.527828 53.725206) scale(0.1485 -0.1485)">
       <defs>
        <path id="DejaVuSans-1b" d="M 2034 2216 
Q 1584 2216 1326 1975 
Q 1069 1734 1069 1313 
Q 1069 891 1326 650 
Q 1584 409 2034 409 
Q 2484 409 2743 651 
Q 3003 894 3003 1313 
Q 3003 1734 2745 1975 
Q 2488 2216 2034 2216 
z
M 1403 2484 
Q 997 2584 770 2862 
Q 544 3141 544 3541 
Q 544 4100 942 4425 
Q 1341 4750 2034 4750 
Q 2731 4750 3128 4425 
Q 3525 4100 3525 3541 
Q 3525 3141 3298 2862 
Q 3072 2584 2669 2484 
Q 3125 2378 3379 2068 
Q 3634 1759 3634 1313 
Q 3634 634 3220 271 
Q 2806 -91 2034 -91 
Q 1263 -91 848 271 
Q 434 634 434 1313 
Q 434 1759 690 2068 
Q 947 2378 1403 2484 
z
M 1172 3481 
Q 1172 3119 1398 2916 
Q 1625 2713 2034 2713 
Q 2441 2713 2670 2916 
Q 2900 3119 2900 3481 
Q 2900 3844 2670 4047 
Q 2441 4250 2034 4250 
Q 1625 4250 1398 4047 
Q 1172 3844 1172 3481 
z
" transform="scale(0.015625)"/>
       </defs>
       <use xlink:href="#DejaVuSans-1b"/>
       <use xlink:href="#DejaVuSans-13" transform="translate(63.625 0)"/>
      </g>
     </g>
    </g>
    <g id="text_12">
     <!-- Beste Margin (θ_p - θ_r) [gCO₂/kWh] -->
     <g style="fill: #262626" transform="translate(19.636031 338.902336) rotate(-90) scale(0.162 -0.162)">
      <defs>
       <path id="DejaVuSans-56" d="M 2834 3397 
L 2834 2853 
Q 2591 2978 2328 3040 
Q 2066 3103 1784 3103 
Q 1356 3103 1142 2972 
Q 928 2841 928 2578 
Q 928 2378 1081 2264 
Q 1234 2150 1697 2047 
L 1894 2003 
Q 2506 1872 2764 1633 
Q 3022 1394 3022 966 
Q 3022 478 2636 193 
Q 2250 -91 1575 -91 
Q 1294 -91 989 -36 
Q 684 19 347 128 
L 347 722 
Q 666 556 975 473 
Q 1284 391 1588 391 
Q 1994 391 2212 530 
Q 2431 669 2431 922 
Q 2431 1156 2273 1281 
Q 2116 1406 1581 1522 
L 1381 1569 
Q 847 1681 609 1914 
Q 372 2147 372 2553 
Q 372 3047 722 3315 
Q 1072 3584 1716 3584 
Q 2034 3584 2315 3537 
Q 2597 3491 2834 3397 
z
" transform="scale(0.015625)"/>
       <path id="DejaVuSans-30" d="M 628 4666 
L 1569 4666 
L 2759 1491 
L 3956 4666 
L 4897 4666 
L 4897 0 
L 4281 0 
L 4281 4097 
L 3078 897 
L 2444 897 
L 1241 4097 
L 1241 0 
L 628 0 
L 628 4666 
z
" transform="scale(0.015625)"/>
       <path id="DejaVuSans-4c" d="M 603 3500 
L 1178 3500 
L 1178 0 
L 603 0 
L 603 3500 
z
M 603 4863 
L 1178 4863 
L 1178 4134 
L 603 4134 
L 603 4863 
z
" transform="scale(0.015625)"/>
       <path id="DejaVuSans-51" d="M 3513 2113 
L 3513 0 
L 2938 0 
L 2938 2094 
Q 2938 2591 2744 2837 
Q 2550 3084 2163 3084 
Q 1697 3084 1428 2787 
Q 1159 2491 1159 1978 
L 1159 0 
L 581 0 
L 581 3500 
L 1159 3500 
L 1159 2956 
Q 1366 3272 1645 3428 
Q 1925 3584 2291 3584 
Q 2894 3584 3203 3211 
Q 3513 2838 3513 2113 
z
" transform="scale(0.015625)"/>
       <path id="DejaVuSans-34c" d="M 2953 2219 
L 963 2219 
Q 1009 1284 1225 888 
Q 1494 400 1959 400 
Q 2428 400 2688 891 
Q 2916 1322 2953 2219 
z
M 2944 2750 
Q 2856 3638 2688 3950 
Q 2419 4444 1959 4444 
Q 1481 4444 1228 3956 
Q 1028 3563 969 2750 
L 2944 2750 
z
M 1959 4913 
Q 2709 4913 3138 4250 
Q 3566 3591 3566 2422 
Q 3566 1256 3138 594 
Q 2709 -72 1959 -72 
Q 1206 -72 781 594 
Q 353 1256 353 2422 
Q 353 3591 781 4250 
Q 1206 4913 1959 4913 
z
" transform="scale(0.015625)"/>
       <path id="DejaVuSans-42" d="M 3263 -1063 
L 3263 -1509 
L -63 -1509 
L -63 -1063 
L 3263 -1063 
z
" transform="scale(0.015625)"/>
       <path id="DejaVuSans-53" d="M 1159 525 
L 1159 -1331 
L 581 -1331 
L 581 3500 
L 1159 3500 
L 1159 2969 
Q 1341 3281 1617 3432 
Q 1894 3584 2278 3584 
Q 2916 3584 3314 3078 
Q 3713 2572 3713 1747 
Q 3713 922 3314 415 
Q 2916 -91 2278 -91 
Q 1894 -91 1617 61 
Q 1341 213 1159 525 
z
M 3116 1747 
Q 3116 2381 2855 2742 
Q 2594 3103 2138 3103 
Q 1681 3103 1420 2742 
Q 1159 2381 1159 1747 
Q 1159 1113 1420 752 
Q 1681 391 2138 391 
Q 2594 391 2855 752 
Q 3116 1113 3116 1747 
z
" transform="scale(0.015625)"/>
       <path id="DejaVuSans-3e" d="M 550 4863 
L 1875 4863 
L 1875 4416 
L 1125 4416 
L 1125 -397 
L 1875 -397 
L 1875 -844 
L 550 -844 
L 550 4863 
z
" transform="scale(0.015625)"/>
       <path id="DejaVuSans-26" d="M 4122 4306 
L 4122 3641 
Q 3803 3938 3442 4084 
Q 3081 4231 2675 4231 
Q 1875 4231 1450 3742 
Q 1025 3253 1025 2328 
Q 1025 1406 1450 917 
Q 1875 428 2675 428 
Q 3081 428 3442 575 
Q 3803 722 4122 1019 
L 4122 359 
Q 3791 134 3420 21 
Q 3050 -91 2638 -91 
Q 1578 -91 968 557 
Q 359 1206 359 2328 
Q 359 3453 968 4101 
Q 1578 4750 2638 4750 
Q 3056 4750 3426 4639 
Q 3797 4528 4122 4306 
z
" transform="scale(0.015625)"/>
       <path id="DejaVuSans-b5d" d="M 838 356 
L 2163 356 
L 2163 0 
L 294 0 
L 294 343 
Q 400 440 597 615 
Q 1672 1568 1672 1862 
Q 1672 2068 1509 2194 
Q 1347 2321 1081 2321 
Q 919 2321 728 2266 
Q 538 2212 313 2103 
L 313 2487 
Q 553 2575 761 2618 
Q 969 2662 1147 2662 
Q 1600 2662 1872 2456 
Q 2144 2250 2144 1912 
Q 2144 1478 1109 590 
Q 934 440 838 356 
z
" transform="scale(0.015625)"/>
       <path id="DejaVuSans-12" d="M 1625 4666 
L 2156 4666 
L 531 -594 
L 0 -594 
L 1625 4666 
z
" transform="scale(0.015625)"/>
       <path id="DejaVuSans-4e" d="M 581 4863 
L 1159 4863 
L 1159 1991 
L 2875 3500 
L 3609 3500 
L 1753 1863 
L 3688 0 
L 2938 0 
L 1159 1709 
L 1159 0 
L 581 0 
L 581 4863 
z
" transform="scale(0.015625)"/>
       <path id="DejaVuSans-3a" d="M 213 4666 
L 850 4666 
L 1831 722 
L 2809 4666 
L 3519 4666 
L 4500 722 
L 5478 4666 
L 6119 4666 
L 4947 0 
L 4153 0 
L 3169 4050 
L 2175 0 
L 1381 0 
L 213 4666 
z
" transform="scale(0.015625)"/>
       <path id="DejaVuSans-40" d="M 1947 4863 
L 1947 -844 
L 622 -844 
L 622 -397 
L 1369 -397 
L 1369 4416 
L 622 4416 
L 622 4863 
L 1947 4863 
z
" transform="scale(0.015625)"/>
      </defs>
      <use xlink:href="#DejaVuSans-25"/>
      <use xlink:href="#DejaVuSans-48" transform="translate(68.609375 0)"/>
      <use xlink:href="#DejaVuSans-56" transform="translate(130.140625 0)"/>
      <use xlink:href="#DejaVuSans-57" transform="translate(182.234375 0)"/>
      <use xlink:href="#DejaVuSans-48" transform="translate(221.4375 0)"/>
      <use xlink:href="#DejaVuSans-3" transform="translate(282.96875 0)"/>
      <use xlink:href="#DejaVuSans-30" transform="translate(314.75 0)"/>
      <use xlink:href="#DejaVuSans-44" transform="translate(401.03125 0)"/>
      <use xlink:href="#DejaVuSans-55" transform="translate(462.3125 0)"/>
      <use xlink:href="#DejaVuSans-4a" transform="translate(501.671875 0)"/>
      <use xlink:href="#DejaVuSans-4c" transform="translate(565.15625 0)"/>
      <use xlink:href="#DejaVuSans-51" transform="translate(592.9375 0)"/>
      <use xlink:href="#DejaVuSans-3" transform="translate(656.3125 0)"/>
      <use xlink:href="#DejaVuSans-b" transform="translate(688.09375 0)"/>
      <use xlink:href="#DejaVuSans-34c" transform="translate(727.109375 0)"/>
      <use xlink:href="#DejaVuSans-42" transform="translate(788.296875 0)"/>
      <use xlink:href="#DejaVuSans-53" transform="translate(838.296875 0)"/>
      <use xlink:href="#DejaVuSans-3" transform="translate(901.78125 0)"/>
      <use xlink:href="#DejaVuSans-10" transform="translate(933.5625 0)"/>
      <use xlink:href="#DejaVuSans-3" transform="translate(969.640625 0)"/>
      <use xlink:href="#DejaVuSans-34c" transform="translate(1001.421875 0)"/>
      <use xlink:href="#DejaVuSans-42" transform="translate(1062.609375 0)"/>
      <use xlink:href="#DejaVuSans-55" transform="translate(1112.609375 0)"/>
      <use xlink:href="#DejaVuSans-c" transform="translate(1153.71875 0)"/>
      <use xlink:href="#DejaVuSans-3" transform="translate(1192.734375 0)"/>
      <use xlink:href="#DejaVuSans-3e" transform="translate(1224.515625 0)"/>
      <use xlink:href="#DejaVuSans-4a" transform="translate(1263.53125 0)"/>
      <use xlink:href="#DejaVuSans-26" transform="translate(1327.015625 0)"/>
      <use xlink:href="#DejaVuSans-32" transform="translate(1396.84375 0)"/>
      <use xlink:href="#DejaVuSans-b5d" transform="translate(1475.5625 0)"/>
      <use xlink:href="#DejaVuSans-12" transform="translate(1515.65625 0)"/>
      <use xlink:href="#DejaVuSans-4e" transform="translate(1549.34375 0)"/>
      <use xlink:href="#DejaVuSans-3a" transform="translate(1607.25 0)"/>
      <use xlink:href="#DejaVuSans-4b" transform="translate(1706.125 0)"/>
      <use xlink:href="#DejaVuSans-40" transform="translate(1769.5 0)"/>
     </g>
    </g>
   </g>
   <g id="FillBetweenPolyCollection_1">
    <defs>
     <path id="m613774e922" d="M 155.790647 -70.625009 
L 99.974189 -70.625009 
L 98.837202 -71.110964 
L 97.715477 -71.596919 
L 96.613956 -72.082874 
L 95.537578 -72.568829 
L 94.491223 -73.054784 
L 93.479671 -73.540739 
L 92.507545 -74.026694 
L 91.57927 -74.512649 
L 90.69902 -74.998603 
L 89.870671 -75.484558 
L 89.097764 -75.970513 
L 88.383457 -76.456468 
L 87.730496 -76.942423 
L 87.141178 -77.428378 
L 86.617328 -77.914333 
L 86.160277 -78.400288 
L 85.770847 -78.886243 
L 85.449343 -79.372198 
L 85.195551 -79.858153 
L 85.008742 -80.344108 
L 84.88768 -80.830063 
L 84.830644 -81.316018 
L 84.835449 -81.801973 
L 84.89947 -82.287928 
L 85.019684 -82.773883 
L 85.192701 -83.259838 
L 85.414807 -83.745793 
L 85.682015 -84.231748 
L 85.990105 -84.717703 
L 86.33468 -85.203658 
L 86.711214 -85.689613 
L 87.115103 -86.175568 
L 87.54172 -86.661523 
L 87.986457 -87.147478 
L 88.444782 -87.633433 
L 88.912278 -88.119388 
L 89.38469 -88.605342 
L 89.857965 -89.091297 
L 90.328285 -89.577252 
L 90.792103 -90.063207 
L 91.246169 -90.549162 
L 91.687553 -91.035117 
L 92.113668 -91.521072 
L 92.522279 -92.007027 
L 92.911518 -92.492982 
L 93.279886 -92.978937 
L 93.626258 -93.464892 
L 93.94988 -93.950847 
L 94.250356 -94.436802 
L 94.527649 -94.922757 
L 94.782056 -95.408712 
L 95.014201 -95.894667 
L 95.225007 -96.380622 
L 95.415681 -96.866577 
L 95.587686 -97.352532 
L 95.742716 -97.838487 
L 95.882669 -98.324442 
L 96.009618 -98.810397 
L 96.125783 -99.296352 
L 96.233499 -99.782307 
L 96.335188 -100.268262 
L 96.43333 -100.754217 
L 96.53043 -101.240172 
L 96.628997 -101.726127 
L 96.731507 -102.212081 
L 96.840385 -102.698036 
L 96.957978 -103.183991 
L 97.08653 -103.669946 
L 97.228164 -104.155901 
L 97.384864 -104.641856 
L 97.558454 -105.127811 
L 97.750591 -105.613766 
L 97.962747 -106.099721 
L 98.196201 -106.585676 
L 98.452037 -107.071631 
L 98.731133 -107.557586 
L 99.034163 -108.043541 
L 99.361594 -108.529496 
L 99.713692 -109.015451 
L 100.090522 -109.501406 
L 100.491959 -109.987361 
L 100.917688 -110.473316 
L 101.367222 -110.959271 
L 101.839902 -111.445226 
L 102.334917 -111.931181 
L 102.851312 -112.417136 
L 103.387998 -112.903091 
L 103.94377 -113.389046 
L 104.517316 -113.875001 
L 105.107231 -114.360956 
L 105.712033 -114.846911 
L 106.33017 -115.332866 
L 106.960038 -115.818821 
L 107.599992 -116.304775 
L 108.248354 -116.79073 
L 108.903429 -117.276685 
L 109.563513 -117.76264 
L 110.226905 -118.248595 
L 110.891913 -118.73455 
L 144.872923 -118.73455 
L 144.872923 -118.73455 
L 145.537932 -118.248595 
L 146.201323 -117.76264 
L 146.861407 -117.276685 
L 147.516483 -116.79073 
L 148.164845 -116.304775 
L 148.804798 -115.818821 
L 149.434666 -115.332866 
L 150.052804 -114.846911 
L 150.657605 -114.360956 
L 151.24752 -113.875001 
L 151.821066 -113.389046 
L 152.376838 -112.903091 
L 152.913524 -112.417136 
L 153.429919 -111.931181 
L 153.924934 -111.445226 
L 154.397615 -110.959271 
L 154.847148 -110.473316 
L 155.272877 -109.987361 
L 155.674314 -109.501406 
L 156.051145 -109.015451 
L 156.403242 -108.529496 
L 156.730673 -108.043541 
L 157.033703 -107.557586 
L 157.312799 -107.071631 
L 157.568635 -106.585676 
L 157.80209 -106.099721 
L 158.014245 -105.613766 
L 158.206382 -105.127811 
L 158.379972 -104.641856 
L 158.536672 -104.155901 
L 158.678306 -103.669946 
L 158.806858 -103.183991 
L 158.924451 -102.698036 
L 159.033329 -102.212081 
L 159.135839 -101.726127 
L 159.234406 -101.240172 
L 159.331507 -100.754217 
L 159.429648 -100.268262 
L 159.531337 -99.782307 
L 159.639053 -99.296352 
L 159.755218 -98.810397 
L 159.882167 -98.324442 
L 160.02212 -97.838487 
L 160.17715 -97.352532 
L 160.349155 -96.866577 
L 160.539829 -96.380622 
L 160.750635 -95.894667 
L 160.98278 -95.408712 
L 161.237187 -94.922757 
L 161.51448 -94.436802 
L 161.814957 -93.950847 
L 162.138578 -93.464892 
L 162.48495 -92.978937 
L 162.853319 -92.492982 
L 163.242557 -92.007027 
L 163.651168 -91.521072 
L 164.077283 -91.035117 
L 164.518667 -90.549162 
L 164.972733 -90.063207 
L 165.436551 -89.577252 
L 165.906871 -89.091297 
L 166.380146 -88.605342 
L 166.852559 -88.119388 
L 167.320054 -87.633433 
L 167.778379 -87.147478 
L 168.223116 -86.661523 
L 168.649733 -86.175568 
L 169.053623 -85.689613 
L 169.430157 -85.203658 
L 169.774732 -84.717703 
L 170.082822 -84.231748 
L 170.350029 -83.745793 
L 170.572135 -83.259838 
L 170.745152 -82.773883 
L 170.865366 -82.287928 
L 170.929388 -81.801973 
L 170.934192 -81.316018 
L 170.877156 -80.830063 
L 170.756095 -80.344108 
L 170.569285 -79.858153 
L 170.315493 -79.372198 
L 169.993989 -78.886243 
L 169.604559 -78.400288 
L 169.147508 -77.914333 
L 168.623658 -77.428378 
L 168.03434 -76.942423 
L 167.381379 -76.456468 
L 166.667072 -75.970513 
L 165.894165 -75.484558 
L 165.065816 -74.998603 
L 164.185566 -74.512649 
L 163.257291 -74.026694 
L 162.285166 -73.540739 
L 161.273613 -73.054784 
L 160.227258 -72.568829 
L 159.15088 -72.082874 
L 158.049359 -71.596919 
L 156.927634 -71.110964 
L 155.790647 -70.625009 
z
" style="stroke: #000000; stroke-opacity: 0.6"/>
    </defs>
    <g clip-path="url(#pca81b377d0)">
     <use xlink:href="#m613774e922" x="0" y="411.066937" style="fill: #2563eb; fill-opacity: 0.6; stroke: #000000; stroke-opacity: 0.6"/>
    </g>
   </g>
   <g id="FillBetweenPolyCollection_2">
    <defs>
     <path id="m35e7c6eba0" d="M 282.960568 -66.924275 
L 218.814405 -66.924275 
L 217.549488 -68.269996 
L 216.340062 -69.615718 
L 215.193017 -70.961439 
L 214.114621 -72.307161 
L 213.11046 -73.652882 
L 212.185403 -74.998603 
L 211.34357 -76.344325 
L 210.588327 -77.690046 
L 209.922295 -79.035768 
L 209.347364 -80.381489 
L 208.864736 -81.727211 
L 208.47496 -83.072932 
L 208.17799 -84.418654 
L 207.973239 -85.764375 
L 207.859641 -87.110096 
L 207.835712 -88.455818 
L 207.899614 -89.801539 
L 208.049206 -91.147261 
L 208.282101 -92.492982 
L 208.59571 -93.838704 
L 208.987282 -95.184425 
L 209.453936 -96.530147 
L 209.992681 -97.875868 
L 210.600438 -99.221589 
L 211.274044 -100.567311 
L 212.010258 -101.913032 
L 212.805757 -103.258754 
L 213.657129 -104.604475 
L 214.560867 -105.950197 
L 215.513353 -107.295918 
L 216.510854 -108.641639 
L 217.549506 -109.987361 
L 218.625312 -111.333082 
L 219.734137 -112.678804 
L 220.871708 -114.024525 
L 222.033617 -115.370247 
L 223.215338 -116.715968 
L 224.412237 -118.06169 
L 225.619597 -119.407411 
L 226.832644 -120.753132 
L 228.04658 -122.098854 
L 229.256613 -123.444575 
L 230.458004 -124.790297 
L 231.646101 -126.136018 
L 232.816383 -127.48174 
L 233.964505 -128.827461 
L 235.086337 -130.173183 
L 236.178 -131.518904 
L 237.23591 -132.864625 
L 238.256799 -134.210347 
L 239.237752 -135.556068 
L 240.17622 -136.90179 
L 241.07004 -138.247511 
L 241.917438 -139.593233 
L 242.717037 -140.938954 
L 243.467846 -142.284675 
L 244.169253 -143.630397 
L 244.821005 -144.976118 
L 245.423186 -146.32184 
L 245.976195 -147.667561 
L 246.48071 -149.013283 
L 246.93766 -150.359004 
L 247.348192 -151.704726 
L 247.713633 -153.050447 
L 248.035461 -154.396168 
L 248.315275 -155.74189 
L 248.554764 -157.087611 
L 248.75568 -158.433333 
L 248.919822 -159.779054 
L 249.049017 -161.124776 
L 249.145106 -162.470497 
L 249.209938 -163.816219 
L 249.245366 -165.16194 
L 249.253246 -166.507661 
L 249.235445 -167.853383 
L 249.193843 -169.199104 
L 249.130345 -170.544826 
L 249.046886 -171.890547 
L 248.945447 -173.236269 
L 248.828059 -174.58199 
L 248.69681 -175.927711 
L 248.553853 -177.273433 
L 248.401403 -178.619154 
L 248.241736 -179.964876 
L 248.077181 -181.310597 
L 247.91011 -182.656319 
L 247.742917 -184.00204 
L 247.578001 -185.347762 
L 247.41774 -186.693483 
L 247.264462 -188.039204 
L 247.120412 -189.384926 
L 246.987723 -190.730647 
L 246.868381 -192.076369 
L 246.764189 -193.42209 
L 246.67674 -194.767812 
L 246.607388 -196.113533 
L 246.55722 -197.459255 
L 246.527039 -198.804976 
L 246.51735 -200.150697 
L 255.257623 -200.150697 
L 255.257623 -200.150697 
L 255.247934 -198.804976 
L 255.217753 -197.459255 
L 255.167585 -196.113533 
L 255.098233 -194.767812 
L 255.010784 -193.42209 
L 254.906592 -192.076369 
L 254.787249 -190.730647 
L 254.654561 -189.384926 
L 254.510511 -188.039204 
L 254.357232 -186.693483 
L 254.196972 -185.347762 
L 254.032056 -184.00204 
L 253.864863 -182.656319 
L 253.697791 -181.310597 
L 253.533237 -179.964876 
L 253.37357 -178.619154 
L 253.221119 -177.273433 
L 253.078162 -175.927711 
L 252.946914 -174.58199 
L 252.829525 -173.236269 
L 252.728087 -171.890547 
L 252.644628 -170.544826 
L 252.58113 -169.199104 
L 252.539528 -167.853383 
L 252.521727 -166.507661 
L 252.529607 -165.16194 
L 252.565035 -163.816219 
L 252.629866 -162.470497 
L 252.725955 -161.124776 
L 252.85515 -159.779054 
L 253.019293 -158.433333 
L 253.220209 -157.087611 
L 253.459697 -155.74189 
L 253.739512 -154.396168 
L 254.06134 -153.050447 
L 254.426781 -151.704726 
L 254.837312 -150.359004 
L 255.294263 -149.013283 
L 255.798778 -147.667561 
L 256.351787 -146.32184 
L 256.953968 -144.976118 
L 257.60572 -143.630397 
L 258.307126 -142.284675 
L 259.057936 -140.938954 
L 259.857535 -139.593233 
L 260.704933 -138.247511 
L 261.598753 -136.90179 
L 262.537221 -135.556068 
L 263.518174 -134.210347 
L 264.539063 -132.864625 
L 265.596972 -131.518904 
L 266.688636 -130.173183 
L 267.810468 -128.827461 
L 268.95859 -127.48174 
L 270.128872 -126.136018 
L 271.316969 -124.790297 
L 272.51836 -123.444575 
L 273.728393 -122.098854 
L 274.942328 -120.753132 
L 276.155376 -119.407411 
L 277.362736 -118.06169 
L 278.559635 -116.715968 
L 279.741356 -115.370247 
L 280.903265 -114.024525 
L 282.040835 -112.678804 
L 283.149661 -111.333082 
L 284.225467 -109.987361 
L 285.264119 -108.641639 
L 286.26162 -107.295918 
L 287.214106 -105.950197 
L 288.117843 -104.604475 
L 288.969216 -103.258754 
L 289.764715 -101.913032 
L 290.500929 -100.567311 
L 291.174535 -99.221589 
L 291.782292 -97.875868 
L 292.321037 -96.530147 
L 292.78769 -95.184425 
L 293.179262 -93.838704 
L 293.492871 -92.492982 
L 293.725766 -91.147261 
L 293.875358 -89.801539 
L 293.93926 -88.455818 
L 293.915332 -87.110096 
L 293.801734 -85.764375 
L 293.596983 -84.418654 
L 293.300012 -83.072932 
L 292.910237 -81.727211 
L 292.427608 -80.381489 
L 291.852678 -79.035768 
L 291.186645 -77.690046 
L 290.431403 -76.344325 
L 289.58957 -74.998603 
L 288.664513 -73.652882 
L 287.660352 -72.307161 
L 286.581956 -70.961439 
L 285.43491 -69.615718 
L 284.225485 -68.269996 
L 282.960568 -66.924275 
z
" style="stroke: #000000; stroke-opacity: 0.6"/>
    </defs>
    <g clip-path="url(#pca81b377d0)">
     <use xlink:href="#m35e7c6eba0" x="0" y="411.066937" style="fill: #2563eb; fill-opacity: 0.6; stroke: #000000; stroke-opacity: 0.6"/>
    </g>
   </g>
   <g id="FillBetweenPolyCollection_3">
    <defs>
     <path id="m7bf3f48230" d="M 397.027349 -66.924275 
L 350.75776 -66.924275 
L 349.49783 -67.821422 
L 348.239394 -68.71857 
L 346.987488 -69.615718 
L 345.747137 -70.512865 
L 344.523342 -71.410013 
L 343.321074 -72.307161 
L 342.145267 -73.204308 
L 341.000825 -74.101456 
L 339.892621 -74.998603 
L 338.825508 -75.895751 
L 337.804325 -76.792899 
L 336.8339 -77.690046 
L 335.919052 -78.587194 
L 335.064585 -79.484342 
L 334.275279 -80.381489 
L 333.555868 -81.278637 
L 332.911018 -82.175785 
L 332.345284 -83.072932 
L 331.863068 -83.97008 
L 331.468565 -84.867227 
L 331.165703 -85.764375 
L 330.958074 -86.661523 
L 330.848865 -87.55867 
L 330.840781 -88.455818 
L 330.935971 -89.352966 
L 331.135955 -90.250113 
L 331.441558 -91.147261 
L 331.852843 -92.044408 
L 332.369058 -92.941556 
L 332.988597 -93.838704 
L 333.708964 -94.735851 
L 334.526762 -95.632999 
L 335.437688 -96.530147 
L 336.436552 -97.427294 
L 337.517305 -98.324442 
L 338.673093 -99.221589 
L 339.89632 -100.118737 
L 341.178727 -101.015885 
L 342.511486 -101.913032 
L 343.885313 -102.81018 
L 345.290574 -103.707328 
L 346.717418 -104.604475 
L 348.155904 -105.501623 
L 349.596128 -106.39877 
L 351.02836 -107.295918 
L 352.443168 -108.193066 
L 353.83154 -109.090213 
L 355.184997 -109.987361 
L 356.495692 -110.884509 
L 357.756506 -111.781656 
L 358.961114 -112.678804 
L 360.10405 -113.575951 
L 361.180747 -114.473099 
L 362.187563 -115.370247 
L 363.121794 -116.267394 
L 363.981661 -117.164542 
L 364.766295 -118.06169 
L 365.475697 -118.958837 
L 366.11069 -119.855985 
L 366.672861 -120.753132 
L 367.164491 -121.65028 
L 367.588477 -122.547428 
L 367.948251 -123.444575 
L 368.247694 -124.341723 
L 368.491049 -125.238871 
L 368.68283 -126.136018 
L 368.827739 -127.033166 
L 368.930581 -127.930313 
L 368.996186 -128.827461 
L 369.029335 -129.724609 
L 369.034696 -130.621756 
L 369.016768 -131.518904 
L 368.979827 -132.416052 
L 368.92789 -133.313199 
L 368.864685 -134.210347 
L 368.793626 -135.107494 
L 368.717804 -136.004642 
L 368.639984 -136.90179 
L 368.562606 -137.798937 
L 368.487801 -138.696085 
L 368.417405 -139.593233 
L 368.352984 -140.49038 
L 368.295859 -141.387528 
L 368.247132 -142.284675 
L 368.207719 -143.181823 
L 368.178372 -144.078971 
L 368.15971 -144.976118 
L 368.152238 -145.873266 
L 368.156372 -146.770414 
L 368.172448 -147.667561 
L 368.200734 -148.564709 
L 368.241441 -149.461856 
L 368.294715 -150.359004 
L 368.360643 -151.256152 
L 368.43924 -152.153299 
L 368.530445 -153.050447 
L 368.634107 -153.947595 
L 368.74998 -154.844742 
L 368.877704 -155.74189 
L 378.907405 -155.74189 
L 378.907405 -155.74189 
L 379.03513 -154.844742 
L 379.151002 -153.947595 
L 379.254665 -153.050447 
L 379.34587 -152.153299 
L 379.424467 -151.256152 
L 379.490394 -150.359004 
L 379.543669 -149.461856 
L 379.584375 -148.564709 
L 379.612662 -147.667561 
L 379.628737 -146.770414 
L 379.632871 -145.873266 
L 379.6254 -144.976118 
L 379.606738 -144.078971 
L 379.577391 -143.181823 
L 379.537977 -142.284675 
L 379.489251 -141.387528 
L 379.432126 -140.49038 
L 379.367705 -139.593233 
L 379.297309 -138.696085 
L 379.222503 -137.798937 
L 379.145125 -136.90179 
L 379.067305 -136.004642 
L 378.991483 -135.107494 
L 378.920424 -134.210347 
L 378.857219 -133.313199 
L 378.805283 -132.416052 
L 378.768342 -131.518904 
L 378.750413 -130.621756 
L 378.755775 -129.724609 
L 378.788924 -128.827461 
L 378.854528 -127.930313 
L 378.95737 -127.033166 
L 379.102279 -126.136018 
L 379.294061 -125.238871 
L 379.537415 -124.341723 
L 379.836859 -123.444575 
L 380.196633 -122.547428 
L 380.620618 -121.65028 
L 381.112248 -120.753132 
L 381.67442 -119.855985 
L 382.309413 -118.958837 
L 383.018815 -118.06169 
L 383.803448 -117.164542 
L 384.663316 -116.267394 
L 385.597546 -115.370247 
L 386.604362 -114.473099 
L 387.681059 -113.575951 
L 388.823995 -112.678804 
L 390.028603 -111.781656 
L 391.289417 -110.884509 
L 392.600113 -109.987361 
L 393.953569 -109.090213 
L 395.341941 -108.193066 
L 396.756749 -107.295918 
L 398.188982 -106.39877 
L 399.629206 -105.501623 
L 401.067691 -104.604475 
L 402.494536 -103.707328 
L 403.899797 -102.81018 
L 405.273623 -101.913032 
L 406.606383 -101.015885 
L 407.888789 -100.118737 
L 409.112016 -99.221589 
L 410.267805 -98.324442 
L 411.348558 -97.427294 
L 412.347421 -96.530147 
L 413.258347 -95.632999 
L 414.076145 -94.735851 
L 414.796513 -93.838704 
L 415.416051 -92.941556 
L 415.932267 -92.044408 
L 416.343551 -91.147261 
L 416.649154 -90.250113 
L 416.849139 -89.352966 
L 416.944329 -88.455818 
L 416.936244 -87.55867 
L 416.827035 -86.661523 
L 416.619407 -85.764375 
L 416.316545 -84.867227 
L 415.922042 -83.97008 
L 415.439825 -83.072932 
L 414.874091 -82.175785 
L 414.229241 -81.278637 
L 413.509831 -80.381489 
L 412.720525 -79.484342 
L 411.866057 -78.587194 
L 410.951209 -77.690046 
L 409.980784 -76.792899 
L 408.959601 -75.895751 
L 407.892488 -74.998603 
L 406.784284 -74.101456 
L 405.639842 -73.204308 
L 404.464036 -72.307161 
L 403.261768 -71.410013 
L 402.037973 -70.512865 
L 400.797621 -69.615718 
L 399.545715 -68.71857 
L 398.28728 -67.821422 
L 397.027349 -66.924275 
z
" style="stroke: #000000; stroke-opacity: 0.6"/>
    </defs>
    <g clip-path="url(#pca81b377d0)">
     <use xlink:href="#m7bf3f48230" x="0" y="411.066937" style="fill: #2563eb; fill-opacity: 0.6; stroke: #000000; stroke-opacity: 0.6"/>
    </g>
   </g>
   <g id="FillBetweenPolyCollection_4">
    <defs>
     <path id="m430b3f0bc5" d="M 531.963062 -66.924275 
L 461.832184 -66.924275 
L 460.32184 -69.989529 
L 458.935531 -73.054784 
L 457.689711 -76.120038 
L 456.599159 -79.185292 
L 455.676713 -82.250547 
L 454.933049 -85.315801 
L 454.376508 -88.381056 
L 454.012983 -91.44631 
L 453.845849 -94.511564 
L 453.875954 -97.576819 
L 454.101651 -100.642073 
L 454.518883 -103.707328 
L 455.121302 -106.772582 
L 455.900424 -109.837836 
L 456.845816 -112.903091 
L 457.94531 -115.968345 
L 459.185232 -119.033599 
L 460.550648 -122.098854 
L 462.025623 -125.164108 
L 463.593487 -128.229363 
L 465.237099 -131.294617 
L 466.939115 -134.359871 
L 468.682251 -137.425126 
L 470.449532 -140.49038 
L 472.224535 -143.555635 
L 473.991612 -146.620889 
L 475.736093 -149.686143 
L 477.444465 -152.751398 
L 479.104525 -155.816652 
L 480.7055 -158.881907 
L 482.238139 -161.947161 
L 483.694763 -165.012415 
L 485.069292 -168.07767 
L 486.357228 -171.142924 
L 487.555612 -174.208179 
L 488.662947 -177.273433 
L 489.679099 -180.338687 
L 490.605173 -183.403942 
L 491.443372 -186.469196 
L 492.196845 -189.53445 
L 492.869526 -192.599705 
L 493.465973 -195.664959 
L 493.99121 -198.730214 
L 494.450572 -201.795468 
L 494.849568 -204.860722 
L 495.193748 -207.925977 
L 495.488597 -210.991231 
L 495.739436 -214.056486 
L 495.951343 -217.12174 
L 496.129097 -220.186994 
L 496.27713 -223.252249 
L 496.399498 -226.317503 
L 496.499867 -229.382758 
L 496.58151 -232.448012 
L 496.647308 -235.513266 
L 496.699765 -238.578521 
L 496.74103 -241.643775 
L 496.772913 -244.70903 
L 496.796916 -247.774284 
L 496.814254 -250.839538 
L 496.825884 -253.904793 
L 496.832527 -256.970047 
L 496.834695 -260.035301 
L 496.83271 -263.100556 
L 496.826726 -266.16581 
L 496.816746 -269.231065 
L 496.802646 -272.296319 
L 496.784185 -275.361573 
L 496.761027 -278.426828 
L 496.732758 -281.492082 
L 496.698904 -284.557337 
L 496.658952 -287.622591 
L 496.612373 -290.687845 
L 496.558642 -293.7531 
L 496.497268 -296.818354 
L 496.427819 -299.883609 
L 496.349952 -302.948863 
L 496.263442 -306.014117 
L 496.168208 -309.079372 
L 496.064347 -312.144626 
L 495.952152 -315.20988 
L 495.832136 -318.275135 
L 495.705047 -321.340389 
L 495.571879 -324.405644 
L 495.433868 -327.470898 
L 495.292488 -330.536152 
L 495.149432 -333.601407 
L 495.006584 -336.666661 
L 494.865988 -339.731916 
L 494.729794 -342.79717 
L 494.600215 -345.862424 
L 494.479464 -348.927679 
L 494.369691 -351.992933 
L 494.272922 -355.058188 
L 494.190999 -358.123442 
L 494.125518 -361.188696 
L 494.077777 -364.253951 
L 494.048739 -367.319205 
L 494.038994 -370.38446 
L 499.756252 -370.38446 
L 499.756252 -370.38446 
L 499.746507 -367.319205 
L 499.717469 -364.253951 
L 499.669728 -361.188696 
L 499.604247 -358.123442 
L 499.522324 -355.058188 
L 499.425555 -351.992933 
L 499.315782 -348.927679 
L 499.195031 -345.862424 
L 499.065452 -342.79717 
L 498.929258 -339.731916 
L 498.788662 -336.666661 
L 498.645814 -333.601407 
L 498.502758 -330.536152 
L 498.361377 -327.470898 
L 498.223367 -324.405644 
L 498.090199 -321.340389 
L 497.96311 -318.275135 
L 497.843094 -315.20988 
L 497.730899 -312.144626 
L 497.627038 -309.079372 
L 497.531804 -306.014117 
L 497.445294 -302.948863 
L 497.367427 -299.883609 
L 497.297978 -296.818354 
L 497.236604 -293.7531 
L 497.182873 -290.687845 
L 497.136294 -287.622591 
L 497.096342 -284.557337 
L 497.062488 -281.492082 
L 497.034219 -278.426828 
L 497.011061 -275.361573 
L 496.9926 -272.296319 
L 496.9785 -269.231065 
L 496.96852 -266.16581 
L 496.962536 -263.100556 
L 496.96055 -260.035301 
L 496.962719 -256.970047 
L 496.969362 -253.904793 
L 496.980992 -250.839538 
L 496.99833 -247.774284 
L 497.022333 -244.70903 
L 497.054216 -241.643775 
L 497.095481 -238.578521 
L 497.147938 -235.513266 
L 497.213736 -232.448012 
L 497.295378 -229.382758 
L 497.395748 -226.317503 
L 497.518116 -223.252249 
L 497.666149 -220.186994 
L 497.843903 -217.12174 
L 498.05581 -214.056486 
L 498.306649 -210.991231 
L 498.601498 -207.925977 
L 498.945678 -204.860722 
L 499.344674 -201.795468 
L 499.804036 -198.730214 
L 500.329272 -195.664959 
L 500.92572 -192.599705 
L 501.598401 -189.53445 
L 502.351874 -186.469196 
L 503.190073 -183.403942 
L 504.116147 -180.338687 
L 505.132299 -177.273433 
L 506.239634 -174.208179 
L 507.438018 -171.142924 
L 508.725954 -168.07767 
L 510.100483 -165.012415 
L 511.557107 -161.947161 
L 513.089746 -158.881907 
L 514.690721 -155.816652 
L 516.350781 -152.751398 
L 518.059153 -149.686143 
L 519.803634 -146.620889 
L 521.570711 -143.555635 
L 523.345714 -140.49038 
L 525.112995 -137.425126 
L 526.856131 -134.359871 
L 528.558147 -131.294617 
L 530.201759 -128.229363 
L 531.769623 -125.164108 
L 533.244598 -122.098854 
L 534.610014 -119.033599 
L 535.849936 -115.968345 
L 536.94943 -112.903091 
L 537.894822 -109.837836 
L 538.673944 -106.772582 
L 539.276363 -103.707328 
L 539.693595 -100.642073 
L 539.919292 -97.576819 
L 539.949397 -94.511564 
L 539.782263 -91.44631 
L 539.418738 -88.381056 
L 538.862197 -85.315801 
L 538.118533 -82.250547 
L 537.196087 -79.185292 
L 536.105535 -76.120038 
L 534.859715 -73.054784 
L 533.473406 -69.989529 
L 531.963062 -66.924275 
z
" style="stroke: #000000; stroke-opacity: 0.6"/>
    </defs>
    <g clip-path="url(#pca81b377d0)">
     <use xlink:href="#m430b3f0bc5" x="0" y="411.066937" style="fill: #2563eb; fill-opacity: 0.6; stroke: #000000; stroke-opacity: 0.6"/>
    </g>
   </g>
   <g id="FillBetweenPolyCollection_5">
    <defs>
     <path id="m47ab03b35e" d="M 649.440156 -66.924275 
L 590.365227 -66.924275 
L 589.35069 -67.784041 
L 588.373079 -68.643808 
L 587.434945 -69.503574 
L 586.538292 -70.363341 
L 585.68457 -71.223107 
L 584.874696 -72.082874 
L 584.109076 -72.94264 
L 583.387649 -73.802407 
L 582.709938 -74.662173 
L 582.075118 -75.52194 
L 581.482082 -76.381706 
L 580.929522 -77.241473 
L 580.416013 -78.101239 
L 579.940092 -78.961006 
L 579.500342 -79.820772 
L 579.095469 -80.680538 
L 578.72437 -81.540305 
L 578.386199 -82.400071 
L 578.08041 -83.259838 
L 577.806803 -84.119604 
L 577.56554 -84.979371 
L 577.357154 -85.839137 
L 577.182546 -86.698904 
L 577.042956 -87.55867 
L 576.939926 -88.418437 
L 576.875253 -89.278203 
L 576.850917 -90.13797 
L 576.869013 -90.997736 
L 576.931663 -91.857503 
L 577.040929 -92.717269 
L 577.198726 -93.577036 
L 577.406722 -94.436802 
L 577.66626 -95.296569 
L 577.978265 -96.156335 
L 578.343182 -97.016101 
L 578.760902 -97.875868 
L 579.230724 -98.735634 
L 579.751312 -99.595401 
L 580.320684 -100.455167 
L 580.93621 -101.314934 
L 581.59463 -102.1747 
L 582.292089 -103.034467 
L 583.024193 -103.894233 
L 583.786072 -104.754 
L 584.572466 -105.613766 
L 585.377817 -106.473533 
L 586.196376 -107.333299 
L 587.022306 -108.193066 
L 587.849799 -109.052832 
L 588.67319 -109.912599 
L 589.487065 -110.772365 
L 590.28637 -111.632132 
L 591.066498 -112.491898 
L 591.823384 -113.351665 
L 592.553567 -114.211431 
L 593.254251 -115.071197 
L 593.923339 -115.930964 
L 594.559457 -116.79073 
L 595.161953 -117.650497 
L 595.730882 -118.510263 
L 596.266978 -119.37003 
L 596.771596 -120.229796 
L 597.24666 -121.089563 
L 597.694576 -121.949329 
L 598.11816 -122.809096 
L 598.520534 -123.668862 
L 598.90504 -124.528629 
L 599.275137 -125.388395 
L 599.634307 -126.248162 
L 599.985964 -127.107928 
L 600.333367 -127.967695 
L 600.67955 -128.827461 
L 601.02725 -129.687228 
L 601.378859 -130.546994 
L 601.736384 -131.406761 
L 602.101419 -132.266527 
L 602.475134 -133.126293 
L 602.85828 -133.98606 
L 603.251194 -134.845826 
L 603.653832 -135.705593 
L 604.065799 -136.565359 
L 604.486393 -137.425126 
L 604.914651 -138.284892 
L 605.349403 -139.144659 
L 605.789323 -140.004425 
L 606.232986 -140.864192 
L 606.678917 -141.723958 
L 607.125637 -142.583725 
L 607.57171 -143.443491 
L 608.015777 -144.303258 
L 608.456583 -145.163024 
L 608.893005 -146.022791 
L 609.324063 -146.882557 
L 609.748926 -147.742324 
L 610.166918 -148.60209 
L 610.577505 -149.461856 
L 610.980293 -150.321623 
L 611.375004 -151.181389 
L 611.761465 -152.041156 
L 628.043917 -152.041156 
L 628.043917 -152.041156 
L 628.430379 -151.181389 
L 628.82509 -150.321623 
L 629.227877 -149.461856 
L 629.638465 -148.60209 
L 630.056456 -147.742324 
L 630.48132 -146.882557 
L 630.912377 -146.022791 
L 631.348799 -145.163024 
L 631.789606 -144.303258 
L 632.233672 -143.443491 
L 632.679746 -142.583725 
L 633.126466 -141.723958 
L 633.572396 -140.864192 
L 634.016059 -140.004425 
L 634.45598 -139.144659 
L 634.890731 -138.284892 
L 635.318989 -137.425126 
L 635.739583 -136.565359 
L 636.151551 -135.705593 
L 636.554189 -134.845826 
L 636.947103 -133.98606 
L 637.330248 -133.126293 
L 637.703964 -132.266527 
L 638.068999 -131.406761 
L 638.426523 -130.546994 
L 638.778132 -129.687228 
L 639.125832 -128.827461 
L 639.472015 -127.967695 
L 639.819419 -127.107928 
L 640.171075 -126.248162 
L 640.530245 -125.388395 
L 640.900342 -124.528629 
L 641.284849 -123.668862 
L 641.687223 -122.809096 
L 642.110806 -121.949329 
L 642.558723 -121.089563 
L 643.033786 -120.229796 
L 643.538405 -119.37003 
L 644.0745 -118.510263 
L 644.64343 -117.650497 
L 645.245926 -116.79073 
L 645.882043 -115.930964 
L 646.551132 -115.071197 
L 647.251815 -114.211431 
L 647.981999 -113.351665 
L 648.738885 -112.491898 
L 649.519013 -111.632132 
L 650.318317 -110.772365 
L 651.132193 -109.912599 
L 651.955584 -109.052832 
L 652.783077 -108.193066 
L 653.609007 -107.333299 
L 654.427565 -106.473533 
L 655.232917 -105.613766 
L 656.019311 -104.754 
L 656.78119 -103.894233 
L 657.513293 -103.034467 
L 658.210753 -102.1747 
L 658.869172 -101.314934 
L 659.484698 -100.455167 
L 660.054071 -99.595401 
L 660.574659 -98.735634 
L 661.04448 -97.875868 
L 661.462201 -97.016101 
L 661.827117 -96.156335 
L 662.139123 -95.296569 
L 662.39866 -94.436802 
L 662.606657 -93.577036 
L 662.764453 -92.717269 
L 662.87372 -91.857503 
L 662.93637 -90.997736 
L 662.954465 -90.13797 
L 662.93013 -89.278203 
L 662.865456 -88.418437 
L 662.762427 -87.55867 
L 662.622836 -86.698904 
L 662.448228 -85.839137 
L 662.239843 -84.979371 
L 661.998579 -84.119604 
L 661.724972 -83.259838 
L 661.419184 -82.400071 
L 661.081012 -81.540305 
L 660.709914 -80.680538 
L 660.305041 -79.820772 
L 659.865291 -78.961006 
L 659.38937 -78.101239 
L 658.875861 -77.241473 
L 658.323301 -76.381706 
L 657.730264 -75.52194 
L 657.095444 -74.662173 
L 656.417734 -73.802407 
L 655.696307 -72.94264 
L 654.930687 -72.082874 
L 654.120813 -71.223107 
L 653.267091 -70.363341 
L 652.370437 -69.503574 
L 651.432303 -68.643808 
L 650.454692 -67.784041 
L 649.440156 -66.924275 
z
" style="stroke: #000000; stroke-opacity: 0.6"/>
    </defs>
    <g clip-path="url(#pca81b377d0)">
     <use xlink:href="#m47ab03b35e" x="0" y="411.066937" style="fill: #2563eb; fill-opacity: 0.6; stroke: #000000; stroke-opacity: 0.6"/>
    </g>
   </g>
   <g id="LineCollection_1">
    <path d="M 106.356531 292.332387 
L 149.408305 292.332387 
" clip-path="url(#pca81b377d0)" style="fill: none; stroke: #4c72b0; stroke-width: 1.5"/>
    <path d="M 229.361599 210.91624 
L 272.413373 210.91624 
" clip-path="url(#pca81b377d0)" style="fill: none; stroke: #4c72b0; stroke-width: 1.5"/>
    <path d="M 352.366668 255.325048 
L 395.418442 255.325048 
" clip-path="url(#pca81b377d0)" style="fill: none; stroke: #4c72b0; stroke-width: 1.5"/>
    <path d="M 475.371736 40.682478 
L 518.42351 40.682478 
" clip-path="url(#pca81b377d0)" style="fill: none; stroke: #4c72b0; stroke-width: 1.5"/>
    <path d="M 598.376804 259.025782 
L 641.428578 259.025782 
" clip-path="url(#pca81b377d0)" style="fill: none; stroke: #4c72b0; stroke-width: 1.5"/>
   </g>
   <g id="LineCollection_2">
    <path d="M 106.356531 340.441929 
L 149.408305 340.441929 
" clip-path="url(#pca81b377d0)" style="fill: none; stroke: #4c72b0; stroke-width: 1.5"/>
    <path d="M 229.361599 344.142663 
L 272.413373 344.142663 
" clip-path="url(#pca81b377d0)" style="fill: none; stroke: #4c72b0; stroke-width: 1.5"/>
    <path d="M 352.366668 344.142663 
L 395.418442 344.142663 
" clip-path="url(#pca81b377d0)" style="fill: none; stroke: #4c72b0; stroke-width: 1.5"/>
    <path d="M 475.371736 344.142663 
L 518.42351 344.142663 
" clip-path="url(#pca81b377d0)" style="fill: none; stroke: #4c72b0; stroke-width: 1.5"/>
    <path d="M 598.376804 344.142663 
L 641.428578 344.142663 
" clip-path="url(#pca81b377d0)" style="fill: none; stroke: #4c72b0; stroke-width: 1.5"/>
   </g>
   <g id="LineCollection_3">
    <path d="M 127.882418 340.441929 
L 127.882418 292.332387 
" clip-path="url(#pca81b377d0)" style="fill: none; stroke: #4c72b0; stroke-width: 1.5"/>
    <path d="M 250.887486 344.142663 
L 250.887486 210.91624 
" clip-path="url(#pca81b377d0)" style="fill: none; stroke: #4c72b0; stroke-width: 1.5"/>
    <path d="M 373.892555 344.142663 
L 373.892555 255.325048 
" clip-path="url(#pca81b377d0)" style="fill: none; stroke: #4c72b0; stroke-width: 1.5"/>
    <path d="M 496.897623 344.142663 
L 496.897623 40.682478 
" clip-path="url(#pca81b377d0)" style="fill: none; stroke: #4c72b0; stroke-width: 1.5"/>
    <path d="M 619.902691 344.142663 
L 619.902691 259.025782 
" clip-path="url(#pca81b377d0)" style="fill: none; stroke: #4c72b0; stroke-width: 1.5"/>
   </g>
   <g id="LineCollection_4">
    <path d="M 106.356531 321.938259 
L 149.408305 321.938259 
" clip-path="url(#pca81b377d0)" style="fill: none; stroke: #4c72b0; stroke-width: 1.5"/>
    <path d="M 229.361599 318.237525 
L 272.413373 318.237525 
" clip-path="url(#pca81b377d0)" style="fill: none; stroke: #4c72b0; stroke-width: 1.5"/>
    <path d="M 352.366668 321.938259 
L 395.418442 321.938259 
" clip-path="url(#pca81b377d0)" style="fill: none; stroke: #4c72b0; stroke-width: 1.5"/>
    <path d="M 475.371736 314.536791 
L 518.42351 314.536791 
" clip-path="url(#pca81b377d0)" style="fill: none; stroke: #4c72b0; stroke-width: 1.5"/>
    <path d="M 598.376804 314.536791 
L 641.428578 314.536791 
" clip-path="url(#pca81b377d0)" style="fill: none; stroke: #4c72b0; stroke-width: 1.5"/>
   </g>
   <g id="line2d_11">
    <path d="M 55.924453 307.135323 
L 691.860656 307.135323 
" clip-path="url(#pca81b377d0)" style="fill: none; stroke-dasharray: 5.55,2.4; stroke-dashoffset: 0; stroke: #059669; stroke-width: 1.5"/>
   </g>
   <g id="line2d_12">
    <path d="M 55.924453 270.127983 
L 691.860656 270.127983 
" clip-path="url(#pca81b377d0)" style="fill: none; stroke-dasharray: 1.5,2.475; stroke-dashoffset: 0; stroke: #d97706; stroke-width: 1.5"/>
   </g>
   <g id="patch_3">
    <path d="M 55.924453 359.315672 
L 55.924453 25.509469 
" style="fill: none; stroke: #cccccc; stroke-width: 1.25; stroke-linejoin: miter; stroke-linecap: square"/>
   </g>
   <g id="patch_4">
    <path d="M 691.860656 359.315672 
L 691.860656 25.509469 
" style="fill: none; stroke: #cccccc; stroke-width: 1.25; stroke-linejoin: miter; stroke-linecap: square"/>
   </g>
   <g id="patch_5">
    <path d="M 55.924453 359.315672 
L 691.860656 359.315672 
" style="fill: none; stroke: #cccccc; stroke-width: 1.25; stroke-linejoin: miter; stroke-linecap: square"/>
   </g>
   <g id="patch_6">
    <path d="M 55.924453 25.509469 
L 691.860656 25.509469 
" style="fill: none; stroke: #cccccc; stroke-width: 1.25; stroke-linejoin: miter; stroke-linecap: square"/>
   </g>
   <g id="PathCollection_1">
    <defs>
     <path id="m1e18549b2b" d="M 0 2.12132 
C 0.562581 2.12132 1.102195 1.897805 1.5 1.5 
C 1.897805 1.102195 2.12132 0.562581 2.12132 0 
C 2.12132 -0.562581 1.897805 -1.102195 1.5 -1.5 
C 1.102195 -1.897805 0.562581 -2.12132 0 -2.12132 
C -0.562581 -2.12132 -1.102195 -1.897805 -1.5 -1.5 
C -1.897805 -1.102195 -2.12132 -0.562581 -2.12132 0 
C -2.12132 0.562581 -1.897805 1.102195 -1.5 1.5 
C -1.102195 1.897805 -0.562581 2.12132 0 2.12132 
z
" style="stroke: #ffffff; stroke-opacity: 0.7; stroke-width: 0.4"/>
    </defs>
    <g clip-path="url(#pca81b377d0)">
     <use xlink:href="#m1e18549b2b" x="127.882418" y="310.836057" style="fill: #059669; fill-opacity: 0.7; stroke: #ffffff; stroke-opacity: 0.7; stroke-width: 0.4"/>
     <use xlink:href="#m1e18549b2b" x="127.882418" y="321.938259" style="fill: #059669; fill-opacity: 0.7; stroke: #ffffff; stroke-opacity: 0.7; stroke-width: 0.4"/>
     <use xlink:href="#m1e18549b2b" x="127.882418" y="333.040461" style="fill: #059669; fill-opacity: 0.7; stroke: #ffffff; stroke-opacity: 0.7; stroke-width: 0.4"/>
     <use xlink:href="#m1e18549b2b" x="127.882418" y="307.135323" style="fill: #059669; fill-opacity: 0.7; stroke: #ffffff; stroke-opacity: 0.7; stroke-width: 0.4"/>
     <use xlink:href="#m1e18549b2b" x="127.882418" y="318.237525" style="fill: #059669; fill-opacity: 0.7; stroke: #ffffff; stroke-opacity: 0.7; stroke-width: 0.4"/>
     <use xlink:href="#m1e18549b2b" x="127.882418" y="303.434589" style="fill: #059669; fill-opacity: 0.7; stroke: #ffffff; stroke-opacity: 0.7; stroke-width: 0.4"/>
     <use xlink:href="#m1e18549b2b" x="127.882418" y="329.339727" style="fill: #059669; fill-opacity: 0.7; stroke: #ffffff; stroke-opacity: 0.7; stroke-width: 0.4"/>
     <use xlink:href="#m1e18549b2b" x="127.882418" y="292.332387" style="fill: #059669; fill-opacity: 0.7; stroke: #ffffff; stroke-opacity: 0.7; stroke-width: 0.4"/>
     <use xlink:href="#m1e18549b2b" x="127.882418" y="299.733855" style="fill: #059669; fill-opacity: 0.7; stroke: #ffffff; stroke-opacity: 0.7; stroke-width: 0.4"/>
     <use xlink:href="#m1e18549b2b" x="127.882418" y="333.040461" style="fill: #059669; fill-opacity: 0.7; stroke: #ffffff; stroke-opacity: 0.7; stroke-width: 0.4"/>
     <use xlink:href="#m1e18549b2b" x="127.882418" y="329.339727" style="fill: #059669; fill-opacity: 0.7; stroke: #ffffff; stroke-opacity: 0.7; stroke-width: 0.4"/>
     <use xlink:href="#m1e18549b2b" x="127.882418" y="340.441929" style="fill: #059669; fill-opacity: 0.7; stroke: #ffffff; stroke-opacity: 0.7; stroke-width: 0.4"/>
     <use xlink:href="#m1e18549b2b" x="127.882418" y="333.040461" style="fill: #059669; fill-opacity: 0.7; stroke: #ffffff; stroke-opacity: 0.7; stroke-width: 0.4"/>
    </g>
   </g>
   <g id="PathCollection_2">
    <defs>
     <path id="md7e3e23fb8" d="M 0 2.12132 
C 0.562581 2.12132 1.102195 1.897805 1.5 1.5 
C 1.897805 1.102195 2.12132 0.562581 2.12132 0 
C 2.12132 -0.562581 1.897805 -1.102195 1.5 -1.5 
C 1.102195 -1.897805 0.562581 -2.12132 0 -2.12132 
C -0.562581 -2.12132 -1.102195 -1.897805 -1.5 -1.5 
C -1.897805 -1.102195 -2.12132 -0.562581 -2.12132 0 
C -2.12132 0.562581 -1.897805 1.102195 -1.5 1.5 
C -1.102195 1.897805 -0.562581 2.12132 0 2.12132 
z
" style="stroke: #ffffff; stroke-opacity: 0.7; stroke-width: 0.4"/>
    </defs>
    <g clip-path="url(#pca81b377d0)">
     <use xlink:href="#md7e3e23fb8" x="250.887486" y="288.631653" style="fill: #0891b2; fill-opacity: 0.7; stroke: #ffffff; stroke-opacity: 0.7; stroke-width: 0.4"/>
     <use xlink:href="#md7e3e23fb8" x="250.887486" y="303.434589" style="fill: #0891b2; fill-opacity: 0.7; stroke: #ffffff; stroke-opacity: 0.7; stroke-width: 0.4"/>
     <use xlink:href="#md7e3e23fb8" x="250.887486" y="336.741195" style="fill: #0891b2; fill-opacity: 0.7; stroke: #ffffff; stroke-opacity: 0.7; stroke-width: 0.4"/>
     <use xlink:href="#md7e3e23fb8" x="250.887486" y="318.237525" style="fill: #0891b2; fill-opacity: 0.7; stroke: #ffffff; stroke-opacity: 0.7; stroke-width: 0.4"/>
     <use xlink:href="#md7e3e23fb8" x="250.887486" y="321.938259" style="fill: #0891b2; fill-opacity: 0.7; stroke: #ffffff; stroke-opacity: 0.7; stroke-width: 0.4"/>
     <use xlink:href="#md7e3e23fb8" x="250.887486" y="210.91624" style="fill: #0891b2; fill-opacity: 0.7; stroke: #ffffff; stroke-opacity: 0.7; stroke-width: 0.4"/>
     <use xlink:href="#md7e3e23fb8" x="250.887486" y="318.237525" style="fill: #0891b2; fill-opacity: 0.7; stroke: #ffffff; stroke-opacity: 0.7; stroke-width: 0.4"/>
     <use xlink:href="#md7e3e23fb8" x="250.887486" y="307.135323" style="fill: #0891b2; fill-opacity: 0.7; stroke: #ffffff; stroke-opacity: 0.7; stroke-width: 0.4"/>
     <use xlink:href="#md7e3e23fb8" x="250.887486" y="292.332387" style="fill: #0891b2; fill-opacity: 0.7; stroke: #ffffff; stroke-opacity: 0.7; stroke-width: 0.4"/>
     <use xlink:href="#md7e3e23fb8" x="250.887486" y="344.142663" style="fill: #0891b2; fill-opacity: 0.7; stroke: #ffffff; stroke-opacity: 0.7; stroke-width: 0.4"/>
     <use xlink:href="#md7e3e23fb8" x="250.887486" y="344.142663" style="fill: #0891b2; fill-opacity: 0.7; stroke: #ffffff; stroke-opacity: 0.7; stroke-width: 0.4"/>
     <use xlink:href="#md7e3e23fb8" x="250.887486" y="333.040461" style="fill: #0891b2; fill-opacity: 0.7; stroke: #ffffff; stroke-opacity: 0.7; stroke-width: 0.4"/>
     <use xlink:href="#md7e3e23fb8" x="250.887486" y="340.441929" style="fill: #0891b2; fill-opacity: 0.7; stroke: #ffffff; stroke-opacity: 0.7; stroke-width: 0.4"/>
     <use xlink:href="#md7e3e23fb8" x="250.887486" y="307.135323" style="fill: #0891b2; fill-opacity: 0.7; stroke: #ffffff; stroke-opacity: 0.7; stroke-width: 0.4"/>
     <use xlink:href="#md7e3e23fb8" x="250.887486" y="329.339727" style="fill: #0891b2; fill-opacity: 0.7; stroke: #ffffff; stroke-opacity: 0.7; stroke-width: 0.4"/>
    </g>
   </g>
   <g id="PathCollection_3">
    <defs>
     <path id="m5c6e272053" d="M 0 2.12132 
C 0.562581 2.12132 1.102195 1.897805 1.5 1.5 
C 1.897805 1.102195 2.12132 0.562581 2.12132 0 
C 2.12132 -0.562581 1.897805 -1.102195 1.5 -1.5 
C 1.102195 -1.897805 0.562581 -2.12132 0 -2.12132 
C -0.562581 -2.12132 -1.102195 -1.897805 -1.5 -1.5 
C -1.897805 -1.102195 -2.12132 -0.562581 -2.12132 0 
C -2.12132 0.562581 -1.897805 1.102195 -1.5 1.5 
C -1.102195 1.897805 -0.562581 2.12132 0 2.12132 
z
" style="stroke: #ffffff; stroke-opacity: 0.7; stroke-width: 0.4"/>
    </defs>
    <g clip-path="url(#pca81b377d0)">
     <use xlink:href="#m5c6e272053" x="373.892555" y="325.638993" style="fill: #2563eb; fill-opacity: 0.7; stroke: #ffffff; stroke-opacity: 0.7; stroke-width: 0.4"/>
     <use xlink:href="#m5c6e272053" x="373.892555" y="255.325048" style="fill: #2563eb; fill-opacity: 0.7; stroke: #ffffff; stroke-opacity: 0.7; stroke-width: 0.4"/>
     <use xlink:href="#m5c6e272053" x="373.892555" y="310.836057" style="fill: #2563eb; fill-opacity: 0.7; stroke: #ffffff; stroke-opacity: 0.7; stroke-width: 0.4"/>
     <use xlink:href="#m5c6e272053" x="373.892555" y="314.536791" style="fill: #2563eb; fill-opacity: 0.7; stroke: #ffffff; stroke-opacity: 0.7; stroke-width: 0.4"/>
     <use xlink:href="#m5c6e272053" x="373.892555" y="321.938259" style="fill: #2563eb; fill-opacity: 0.7; stroke: #ffffff; stroke-opacity: 0.7; stroke-width: 0.4"/>
     <use xlink:href="#m5c6e272053" x="373.892555" y="307.135323" style="fill: #2563eb; fill-opacity: 0.7; stroke: #ffffff; stroke-opacity: 0.7; stroke-width: 0.4"/>
     <use xlink:href="#m5c6e272053" x="373.892555" y="329.339727" style="fill: #2563eb; fill-opacity: 0.7; stroke: #ffffff; stroke-opacity: 0.7; stroke-width: 0.4"/>
     <use xlink:href="#m5c6e272053" x="373.892555" y="310.836057" style="fill: #2563eb; fill-opacity: 0.7; stroke: #ffffff; stroke-opacity: 0.7; stroke-width: 0.4"/>
     <use xlink:href="#m5c6e272053" x="373.892555" y="318.237525" style="fill: #2563eb; fill-opacity: 0.7; stroke: #ffffff; stroke-opacity: 0.7; stroke-width: 0.4"/>
     <use xlink:href="#m5c6e272053" x="373.892555" y="325.638993" style="fill: #2563eb; fill-opacity: 0.7; stroke: #ffffff; stroke-opacity: 0.7; stroke-width: 0.4"/>
     <use xlink:href="#m5c6e272053" x="373.892555" y="273.828717" style="fill: #2563eb; fill-opacity: 0.7; stroke: #ffffff; stroke-opacity: 0.7; stroke-width: 0.4"/>
     <use xlink:href="#m5c6e272053" x="373.892555" y="340.441929" style="fill: #2563eb; fill-opacity: 0.7; stroke: #ffffff; stroke-opacity: 0.7; stroke-width: 0.4"/>
     <use xlink:href="#m5c6e272053" x="373.892555" y="344.142663" style="fill: #2563eb; fill-opacity: 0.7; stroke: #ffffff; stroke-opacity: 0.7; stroke-width: 0.4"/>
     <use xlink:href="#m5c6e272053" x="373.892555" y="336.741195" style="fill: #2563eb; fill-opacity: 0.7; stroke: #ffffff; stroke-opacity: 0.7; stroke-width: 0.4"/>
     <use xlink:href="#m5c6e272053" x="373.892555" y="340.441929" style="fill: #2563eb; fill-opacity: 0.7; stroke: #ffffff; stroke-opacity: 0.7; stroke-width: 0.4"/>
     <use xlink:href="#m5c6e272053" x="373.892555" y="314.536791" style="fill: #2563eb; fill-opacity: 0.7; stroke: #ffffff; stroke-opacity: 0.7; stroke-width: 0.4"/>
     <use xlink:href="#m5c6e272053" x="373.892555" y="321.938259" style="fill: #2563eb; fill-opacity: 0.7; stroke: #ffffff; stroke-opacity: 0.7; stroke-width: 0.4"/>
     <use xlink:href="#m5c6e272053" x="373.892555" y="329.339727" style="fill: #2563eb; fill-opacity: 0.7; stroke: #ffffff; stroke-opacity: 0.7; stroke-width: 0.4"/>
    </g>
   </g>
   <g id="PathCollection_4">
    <defs>
     <path id="m3d492fba06" d="M 0 2.12132 
C 0.562581 2.12132 1.102195 1.897805 1.5 1.5 
C 1.897805 1.102195 2.12132 0.562581 2.12132 0 
C 2.12132 -0.562581 1.897805 -1.102195 1.5 -1.5 
C 1.102195 -1.897805 0.562581 -2.12132 0 -2.12132 
C -0.562581 -2.12132 -1.102195 -1.897805 -1.5 -1.5 
C -1.897805 -1.102195 -2.12132 -0.562581 -2.12132 0 
C -2.12132 0.562581 -1.897805 1.102195 -1.5 1.5 
C -1.102195 1.897805 -0.562581 2.12132 0 2.12132 
z
" style="stroke: #ffffff; stroke-opacity: 0.7; stroke-width: 0.4"/>
    </defs>
    <g clip-path="url(#pca81b377d0)">
     <use xlink:href="#m3d492fba06" x="496.897623" y="314.536791" style="fill: #d97706; fill-opacity: 0.7; stroke: #ffffff; stroke-opacity: 0.7; stroke-width: 0.4"/>
     <use xlink:href="#m3d492fba06" x="496.897623" y="281.230185" style="fill: #d97706; fill-opacity: 0.7; stroke: #ffffff; stroke-opacity: 0.7; stroke-width: 0.4"/>
     <use xlink:href="#m3d492fba06" x="496.897623" y="325.638993" style="fill: #d97706; fill-opacity: 0.7; stroke: #ffffff; stroke-opacity: 0.7; stroke-width: 0.4"/>
     <use xlink:href="#m3d492fba06" x="496.897623" y="281.230185" style="fill: #d97706; fill-opacity: 0.7; stroke: #ffffff; stroke-opacity: 0.7; stroke-width: 0.4"/>
     <use xlink:href="#m3d492fba06" x="496.897623" y="292.332387" style="fill: #d97706; fill-opacity: 0.7; stroke: #ffffff; stroke-opacity: 0.7; stroke-width: 0.4"/>
     <use xlink:href="#m3d492fba06" x="496.897623" y="40.682478" style="fill: #d97706; fill-opacity: 0.7; stroke: #ffffff; stroke-opacity: 0.7; stroke-width: 0.4"/>
     <use xlink:href="#m3d492fba06" x="496.897623" y="344.142663" style="fill: #d97706; fill-opacity: 0.7; stroke: #ffffff; stroke-opacity: 0.7; stroke-width: 0.4"/>
     <use xlink:href="#m3d492fba06" x="496.897623" y="284.930919" style="fill: #d97706; fill-opacity: 0.7; stroke: #ffffff; stroke-opacity: 0.7; stroke-width: 0.4"/>
     <use xlink:href="#m3d492fba06" x="496.897623" y="310.836057" style="fill: #d97706; fill-opacity: 0.7; stroke: #ffffff; stroke-opacity: 0.7; stroke-width: 0.4"/>
     <use xlink:href="#m3d492fba06" x="496.897623" y="314.536791" style="fill: #d97706; fill-opacity: 0.7; stroke: #ffffff; stroke-opacity: 0.7; stroke-width: 0.4"/>
     <use xlink:href="#m3d492fba06" x="496.897623" y="277.529451" style="fill: #d97706; fill-opacity: 0.7; stroke: #ffffff; stroke-opacity: 0.7; stroke-width: 0.4"/>
     <use xlink:href="#m3d492fba06" x="496.897623" y="299.733855" style="fill: #d97706; fill-opacity: 0.7; stroke: #ffffff; stroke-opacity: 0.7; stroke-width: 0.4"/>
     <use xlink:href="#m3d492fba06" x="496.897623" y="340.441929" style="fill: #d97706; fill-opacity: 0.7; stroke: #ffffff; stroke-opacity: 0.7; stroke-width: 0.4"/>
     <use xlink:href="#m3d492fba06" x="496.897623" y="344.142663" style="fill: #d97706; fill-opacity: 0.7; stroke: #ffffff; stroke-opacity: 0.7; stroke-width: 0.4"/>
     <use xlink:href="#m3d492fba06" x="496.897623" y="344.142663" style="fill: #d97706; fill-opacity: 0.7; stroke: #ffffff; stroke-opacity: 0.7; stroke-width: 0.4"/>
     <use xlink:href="#m3d492fba06" x="496.897623" y="336.741195" style="fill: #d97706; fill-opacity: 0.7; stroke: #ffffff; stroke-opacity: 0.7; stroke-width: 0.4"/>
     <use xlink:href="#m3d492fba06" x="496.897623" y="333.040461" style="fill: #d97706; fill-opacity: 0.7; stroke: #ffffff; stroke-opacity: 0.7; stroke-width: 0.4"/>
     <use xlink:href="#m3d492fba06" x="496.897623" y="314.536791" style="fill: #d97706; fill-opacity: 0.7; stroke: #ffffff; stroke-opacity: 0.7; stroke-width: 0.4"/>
     <use xlink:href="#m3d492fba06" x="496.897623" y="318.237525" style="fill: #d97706; fill-opacity: 0.7; stroke: #ffffff; stroke-opacity: 0.7; stroke-width: 0.4"/>
    </g>
   </g>
   <g id="PathCollection_5">
    <defs>
     <path id="mb419e8119f" d="M 0 2.12132 
C 0.562581 2.12132 1.102195 1.897805 1.5 1.5 
C 1.897805 1.102195 2.12132 0.562581 2.12132 0 
C 2.12132 -0.562581 1.897805 -1.102195 1.5 -1.5 
C 1.102195 -1.897805 0.562581 -2.12132 0 -2.12132 
C -0.562581 -2.12132 -1.102195 -1.897805 -1.5 -1.5 
C -1.897805 -1.102195 -2.12132 -0.562581 -2.12132 0 
C -2.12132 0.562581 -1.897805 1.102195 -1.5 1.5 
C -1.102195 1.897805 -0.562581 2.12132 0 2.12132 
z
" style="stroke: #ffffff; stroke-opacity: 0.7; stroke-width: 0.4"/>
    </defs>
    <g clip-path="url(#pca81b377d0)">
     <use xlink:href="#mb419e8119f" x="619.902691" y="314.536791" style="fill: #dc2626; fill-opacity: 0.7; stroke: #ffffff; stroke-opacity: 0.7; stroke-width: 0.4"/>
     <use xlink:href="#mb419e8119f" x="619.902691" y="281.230185" style="fill: #dc2626; fill-opacity: 0.7; stroke: #ffffff; stroke-opacity: 0.7; stroke-width: 0.4"/>
     <use xlink:href="#mb419e8119f" x="619.902691" y="325.638993" style="fill: #dc2626; fill-opacity: 0.7; stroke: #ffffff; stroke-opacity: 0.7; stroke-width: 0.4"/>
     <use xlink:href="#mb419e8119f" x="619.902691" y="281.230185" style="fill: #dc2626; fill-opacity: 0.7; stroke: #ffffff; stroke-opacity: 0.7; stroke-width: 0.4"/>
     <use xlink:href="#mb419e8119f" x="619.902691" y="259.025782" style="fill: #dc2626; fill-opacity: 0.7; stroke: #ffffff; stroke-opacity: 0.7; stroke-width: 0.4"/>
     <use xlink:href="#mb419e8119f" x="619.902691" y="340.441929" style="fill: #dc2626; fill-opacity: 0.7; stroke: #ffffff; stroke-opacity: 0.7; stroke-width: 0.4"/>
     <use xlink:href="#mb419e8119f" x="619.902691" y="310.836057" style="fill: #dc2626; fill-opacity: 0.7; stroke: #ffffff; stroke-opacity: 0.7; stroke-width: 0.4"/>
     <use xlink:href="#mb419e8119f" x="619.902691" y="325.638993" style="fill: #dc2626; fill-opacity: 0.7; stroke: #ffffff; stroke-opacity: 0.7; stroke-width: 0.4"/>
     <use xlink:href="#mb419e8119f" x="619.902691" y="299.733855" style="fill: #dc2626; fill-opacity: 0.7; stroke: #ffffff; stroke-opacity: 0.7; stroke-width: 0.4"/>
     <use xlink:href="#mb419e8119f" x="619.902691" y="310.836057" style="fill: #dc2626; fill-opacity: 0.7; stroke: #ffffff; stroke-opacity: 0.7; stroke-width: 0.4"/>
     <use xlink:href="#mb419e8119f" x="619.902691" y="314.536791" style="fill: #dc2626; fill-opacity: 0.7; stroke: #ffffff; stroke-opacity: 0.7; stroke-width: 0.4"/>
     <use xlink:href="#mb419e8119f" x="619.902691" y="281.230185" style="fill: #dc2626; fill-opacity: 0.7; stroke: #ffffff; stroke-opacity: 0.7; stroke-width: 0.4"/>
     <use xlink:href="#mb419e8119f" x="619.902691" y="340.441929" style="fill: #dc2626; fill-opacity: 0.7; stroke: #ffffff; stroke-opacity: 0.7; stroke-width: 0.4"/>
     <use xlink:href="#mb419e8119f" x="619.902691" y="344.142663" style="fill: #dc2626; fill-opacity: 0.7; stroke: #ffffff; stroke-opacity: 0.7; stroke-width: 0.4"/>
     <use xlink:href="#mb419e8119f" x="619.902691" y="344.142663" style="fill: #dc2626; fill-opacity: 0.7; stroke: #ffffff; stroke-opacity: 0.7; stroke-width: 0.4"/>
     <use xlink:href="#mb419e8119f" x="619.902691" y="336.741195" style="fill: #dc2626; fill-opacity: 0.7; stroke: #ffffff; stroke-opacity: 0.7; stroke-width: 0.4"/>
     <use xlink:href="#mb419e8119f" x="619.902691" y="329.339727" style="fill: #dc2626; fill-opacity: 0.7; stroke: #ffffff; stroke-opacity: 0.7; stroke-width: 0.4"/>
     <use xlink:href="#mb419e8119f" x="619.902691" y="314.536791" style="fill: #dc2626; fill-opacity: 0.7; stroke: #ffffff; stroke-opacity: 0.7; stroke-width: 0.4"/>
     <use xlink:href="#mb419e8119f" x="619.902691" y="307.135323" style="fill: #dc2626; fill-opacity: 0.7; stroke: #ffffff; stroke-opacity: 0.7; stroke-width: 0.4"/>
    </g>
   </g>
   <g id="text_13">
    <!-- Verteilung der besten Margins je Budget -->
    <g style="fill: #262626" transform="translate(210.376336 19.509469) scale(0.162 -0.162)">
     <defs>
      <path id="DejaVuSans-39" d="M 1831 0 
L 50 4666 
L 709 4666 
L 2188 738 
L 3669 4666 
L 4325 4666 
L 2547 0 
L 1831 0 
z
" transform="scale(0.015625)"/>
      <path id="DejaVuSans-4f" d="M 603 4863 
L 1178 4863 
L 1178 0 
L 603 0 
L 603 4863 
z
" transform="scale(0.015625)"/>
      <path id="DejaVuSans-45" d="M 3116 1747 
Q 3116 2381 2855 2742 
Q 2594 3103 2138 3103 
Q 1681 3103 1420 2742 
Q 1159 2381 1159 1747 
Q 1159 1113 1420 752 
Q 1681 391 2138 391 
Q 2594 391 2855 752 
Q 3116 1113 3116 1747 
z
M 1159 2969 
Q 1341 3281 1617 3432 
Q 1894 3584 2278 3584 
Q 2916 3584 3314 3078 
Q 3713 2572 3713 1747 
Q 3713 922 3314 415 
Q 2916 -91 2278 -91 
Q 1894 -91 1617 61 
Q 1341 213 1159 525 
L 1159 0 
L 581 0 
L 581 4863 
L 1159 4863 
L 1159 2969 
z
" transform="scale(0.015625)"/>
      <path id="DejaVuSans-4d" d="M 603 3500 
L 1178 3500 
L 1178 -63 
Q 1178 -731 923 -1031 
Q 669 -1331 103 -1331 
L -116 -1331 
L -116 -844 
L 38 -844 
Q 366 -844 484 -692 
Q 603 -541 603 -63 
L 603 3500 
z
M 603 4863 
L 1178 4863 
L 1178 4134 
L 603 4134 
L 603 4863 
z
" transform="scale(0.015625)"/>
     </defs>
     <use xlink:href="#DejaVuSans-39"/>
     <use xlink:href="#DejaVuSans-48" transform="translate(60.640625 0)"/>
     <use xlink:href="#DejaVuSans-55" transform="translate(122.171875 0)"/>
     <use xlink:href="#DejaVuSans-57" transform="translate(163.28125 0)"/>
     <use xlink:href="#DejaVuSans-48" transform="translate(202.484375 0)"/>
     <use xlink:href="#DejaVuSans-4c" transform="translate(264.015625 0)"/>
     <use xlink:href="#DejaVuSans-4f" transform="translate(291.796875 0)"/>
     <use xlink:href="#DejaVuSans-58" transform="translate(319.578125 0)"/>
     <use xlink:href="#DejaVuSans-51" transform="translate(382.953125 0)"/>
     <use xlink:href="#DejaVuSans-4a" transform="translate(446.328125 0)"/>
     <use xlink:href="#DejaVuSans-3" transform="translate(509.8125 0)"/>
     <use xlink:href="#DejaVuSans-47" transform="translate(541.59375 0)"/>
     <use xlink:href="#DejaVuSans-48" transform="translate(605.078125 0)"/>
     <use xlink:href="#DejaVuSans-55" transform="translate(666.609375 0)"/>
     <use xlink:href="#DejaVuSans-3" transform="translate(707.71875 0)"/>
     <use xlink:href="#DejaVuSans-45" transform="translate(739.5 0)"/>
     <use xlink:href="#DejaVuSans-48" transform="translate(802.984375 0)"/>
     <use xlink:href="#DejaVuSans-56" transform="translate(864.515625 0)"/>
     <use xlink:href="#DejaVuSans-57" transform="translate(916.609375 0)"/>
     <use xlink:href="#DejaVuSans-48" transform="translate(955.8125 0)"/>
     <use xlink:href="#DejaVuSans-51" transform="translate(1017.34375 0)"/>
     <use xlink:href="#DejaVuSans-3" transform="translate(1080.71875 0)"/>
     <use xlink:href="#DejaVuSans-30" transform="translate(1112.5 0)"/>
     <use xlink:href="#DejaVuSans-44" transform="translate(1198.78125 0)"/>
     <use xlink:href="#DejaVuSans-55" transform="translate(1260.0625 0)"/>
     <use xlink:href="#DejaVuSans-4a" transform="translate(1299.421875 0)"/>
     <use xlink:href="#DejaVuSans-4c" transform="translate(1362.90625 0)"/>
     <use xlink:href="#DejaVuSans-51" transform="translate(1390.6875 0)"/>
     <use xlink:href="#DejaVuSans-56" transform="translate(1454.0625 0)"/>
     <use xlink:href="#DejaVuSans-3" transform="translate(1506.15625 0)"/>
     <use xlink:href="#DejaVuSans-4d" transform="translate(1537.9375 0)"/>
     <use xlink:href="#DejaVuSans-48" transform="translate(1565.71875 0)"/>
     <use xlink:href="#DejaVuSans-3" transform="translate(1627.25 0)"/>
     <use xlink:href="#DejaVuSans-25" transform="translate(1659.03125 0)"/>
     <use xlink:href="#DejaVuSans-58" transform="translate(1727.640625 0)"/>
     <use xlink:href="#DejaVuSans-47" transform="translate(1791.015625 0)"/>
     <use xlink:href="#DejaVuSans-4a" transform="translate(1854.5 0)"/>
     <use xlink:href="#DejaVuSans-48" transform="translate(1917.984375 0)"/>
     <use xlink:href="#DejaVuSans-57" transform="translate(1979.515625 0)"/>
    </g>
   </g>
   <g id="legend_1">
    <g id="patch_7">
     <path d="M 550.899352 81.941789 
L 681.465656 81.941789 
Q 684.435656 81.941789 684.435656 78.971789 
L 684.435656 35.904469 
Q 684.435656 32.934469 681.465656 32.934469 
L 550.899352 32.934469 
Q 547.929352 32.934469 547.929352 35.904469 
L 547.929352 78.971789 
Q 547.929352 81.941789 550.899352 81.941789 
z
" style="fill: #ffffff; opacity: 0.8; stroke: #cccccc; stroke-linejoin: miter"/>
    </g>
    <g id="line2d_13">
     <path d="M 553.869352 44.960648 
L 568.719352 44.960648 
L 583.569352 44.960648 
" style="fill: none; stroke-dasharray: 5.55,2.4; stroke-dashoffset: 0; stroke: #059669; stroke-width: 1.5"/>
    </g>
    <g id="text_14">
     <!-- ≤10 (klein) -->
     <g style="fill: #262626" transform="translate(595.449352 50.158148) scale(0.1485 -0.1485)">
      <defs>
       <path id="DejaVuSans-cee" d="M 4684 3175 
L 1684 2309 
L 4684 1453 
L 4684 897 
L 678 2047 
L 678 2578 
L 4684 3725 
L 4684 3175 
z
M 678 531 
L 4684 531 
L 4684 0 
L 678 0 
L 678 531 
z
" transform="scale(0.015625)"/>
      </defs>
      <use xlink:href="#DejaVuSans-cee"/>
      <use xlink:href="#DejaVuSans-14" transform="translate(83.796875 0)"/>
      <use xlink:href="#DejaVuSans-13" transform="translate(147.421875 0)"/>
      <use xlink:href="#DejaVuSans-3" transform="translate(211.046875 0)"/>
      <use xlink:href="#DejaVuSans-b" transform="translate(242.828125 0)"/>
      <use xlink:href="#DejaVuSans-4e" transform="translate(281.84375 0)"/>
      <use xlink:href="#DejaVuSans-4f" transform="translate(339.75 0)"/>
      <use xlink:href="#DejaVuSans-48" transform="translate(367.53125 0)"/>
      <use xlink:href="#DejaVuSans-4c" transform="translate(429.0625 0)"/>
      <use xlink:href="#DejaVuSans-51" transform="translate(456.84375 0)"/>
      <use xlink:href="#DejaVuSans-c" transform="translate(520.21875 0)"/>
     </g>
    </g>
    <g id="line2d_14">
     <path d="M 553.869352 67.236809 
L 568.719352 67.236809 
L 583.569352 67.236809 
" style="fill: none; stroke-dasharray: 1.5,2.475; stroke-dashoffset: 0; stroke: #d97706; stroke-width: 1.5"/>
    </g>
    <g id="text_15">
     <!-- ≤20 (klein) -->
     <g style="fill: #262626" transform="translate(595.449352 72.434309) scale(0.1485 -0.1485)">
      <use xlink:href="#DejaVuSans-cee"/>
      <use xlink:href="#DejaVuSans-15" transform="translate(83.796875 0)"/>
      <use xlink:href="#DejaVuSans-13" transform="translate(147.421875 0)"/>
      <use xlink:href="#DejaVuSans-3" transform="translate(211.046875 0)"/>
      <use xlink:href="#DejaVuSans-b" transform="translate(242.828125 0)"/>
      <use xlink:href="#DejaVuSans-4e" transform="translate(281.84375 0)"/>
      <use xlink:href="#DejaVuSans-4f" transform="translate(339.75 0)"/>
      <use xlink:href="#DejaVuSans-48" transform="translate(367.53125 0)"/>
      <use xlink:href="#DejaVuSans-4c" transform="translate(429.0625 0)"/>
      <use xlink:href="#DejaVuSans-51" transform="translate(456.84375 0)"/>
      <use xlink:href="#DejaVuSans-c" transform="translate(520.21875 0)"/>
     </g>
    </g>
   </g>
  </g>
 </g>
 <defs>
  <clipPath id="pca81b377d0">
   <rect x="55.924453" y="25.509469" width="635.936203" height="333.806203"/>
  </clipPath>
 </defs>
</svg>
