<svg xmlns="http://www.w3.org/2000/svg" xmlns:xlink="http://www.w3.org/1999/xlink" contentStyleType="text/css" data-diagram-type="ACTIVITY" height="1741px" preserveAspectRatio="none" style="width:1013px;height:1741px;background:#FFFFFF;" version="1.1" viewBox="0 0 1013 1741" width="1013px" zoomAndPan="magnify"><defs/><g><path d="M414.3735,10 L414.3735,55.412 A0,0 0 0 0 414.3735,55.412 L583.8842,55.412 A0,0 0 0 0 583.8842,55.412 L583.8842,36.706 L603.8842,32.706 L583.8842,28.706 L583.8842,20 L573.8842,10 L414.3735,10 A0,0 0 0 0 414.3735,10" fill="#FEFFDD" style="stroke:#181818;stroke-width:0.5;"/><path d="M573.8842,10 L573.8842,20 L583.8842,20 L573.8842,10" fill="#FEFFDD" style="stroke:#181818;stroke-width:0.5;"/><text fill="#000000" font-family="sans-serif" font-size="13" lengthAdjust="spacing" textLength="148.5107" x="420.3735" y="28.897">&#8592; continued from Part 1</text><text fill="#000000" font-family="sans-serif" font-size="13" lengthAdjust="spacing" textLength="93.8211" x="420.3735" y="46.603">(Data available)</text><ellipse cx="613.8842" cy="32.706" fill="#2FB344" rx="10" ry="10" style="stroke:#222222;stroke-width:1;"/><rect fill="none" height="160.1003" style="stroke:#000000;stroke-width:1.5;" width="199.4932" x="514.1377" y="65.412"/><path d="M643.2772,65.412 L643.2772,77.4799 L633.2772,87.4799 L514.1377,87.4799" fill="none" style="stroke:#000000;stroke-width:1.5;"/><text fill="#000000" font-family="sans-serif" font-size="14" lengthAdjust="spacing" textLength="119.1395" x="517.1377" y="81.378">Simulation Engine</text><rect fill="#F7F9FB" height="36.3441" rx="12.5" ry="12.5" style="stroke:#2E3A46;stroke-width:0.5;" width="130.7128" x="548.5279" y="104.4799"/><text fill="#000000" font-family="sans-serif" font-size="12" lengthAdjust="spacing" textLength="110.7128" x="558.5279" y="127.308">Initialize Simulation</text><rect fill="#F7F9FB" height="52.6882" rx="12.5" ry="12.5" style="stroke:#2E3A46;stroke-width:0.5;" width="179.4932" x="524.1377" y="160.8241"/><text fill="#000000" font-family="sans-serif" font-size="12" lengthAdjust="spacing" textLength="159.4932" x="534.1377" y="183.6522">Compute baseline reference</text><text fill="#000000" font-family="sans-serif" font-size="12" lengthAdjust="spacing" textLength="146.641" x="534.1377" y="199.9963">for uninterrupted training</text><rect fill="none" height="87.412" style="stroke:#000000;stroke-width:1.5;" width="156.5328" x="535.6178" y="279.5123"/><path d="M621.2735,279.5123 L621.2735,291.5802 L611.2735,301.5802 L535.6178,301.5802" fill="none" style="stroke:#000000;stroke-width:1.5;"/><text fill="#000000" font-family="sans-serif" font-size="14" lengthAdjust="spacing" textLength="75.6557" x="538.6178" y="295.4782">Grid Replay</text><rect fill="#F7F9FB" height="36.3441" rx="12.5" ry="12.5" style="stroke:#2E3A46;stroke-width:0.5;" width="136.5328" x="545.6178" y="318.5802"/><text fill="#000000" font-family="sans-serif" font-size="12" lengthAdjust="spacing" textLength="116.5328" x="555.6178" y="341.4083">Read co2_intensity(t)</text><polygon fill="#FFF3BF" points="573.9215,386.9243,653.847,386.9243,665.847,398.9243,653.847,410.9243,573.9215,410.9243,561.9215,398.9243,573.9215,386.9243" style="stroke:#B08900;stroke-width:0.5;"/><text fill="#000000" font-family="sans-serif" font-size="11" lengthAdjust="spacing" textLength="79.9255" x="573.9215" y="403.1923">Grid data valid?</text><text fill="#000000" font-family="sans-serif" font-size="11" lengthAdjust="spacing" textLength="17.0829" x="544.8386" y="395.7013">yes</text><text fill="#000000" font-family="sans-serif" font-size="11" lengthAdjust="spacing" textLength="13.4529" x="665.847" y="395.7013">no</text><rect fill="none" height="414.4444" style="stroke:#000000;stroke-width:1.5;" width="709.1239" x="11" y="420.9243"/><path d="M111.5517,420.9243 L111.5517,432.9922 L101.5517,442.9922 L11,442.9922" fill="none" style="stroke:#000000;stroke-width:1.5;"/><text fill="#000000" font-family="sans-serif" font-size="14" lengthAdjust="spacing" textLength="90.5517" x="14" y="436.8903">Policy Control</text><rect fill="#F7F9FB" height="36.3441" rx="12.5" ry="12.5" style="stroke:#2E3A46;stroke-width:0.5;" width="180.0571" x="280.7573" y="459.9922"/><text fill="#000000" font-family="sans-serif" font-size="12" lengthAdjust="spacing" textLength="160.0571" x="290.7573" y="482.8203">Evaluate PauseResumeLogic</text><polygon fill="#FFF3BF" points="291.801,531.3364,449.7708,531.3364,461.7708,543.3364,449.7708,555.3364,291.801,555.3364,279.801,543.3364,291.801,531.3364" style="stroke:#B08900;stroke-width:0.5;"/><text fill="#000000" font-family="sans-serif" font-size="11" lengthAdjust="spacing" textLength="157.9698" x="291.801" y="547.6043">co2_intensity(t) &gt; theta_pause?</text><text fill="#000000" font-family="sans-serif" font-size="11" lengthAdjust="spacing" textLength="31.2068" x="248.5942" y="540.1134">pause</text><text fill="#000000" font-family="sans-serif" font-size="11" lengthAdjust="spacing" textLength="45.3417" x="461.7708" y="540.1134">continue</text><polygon fill="#FFF3BF" points="121.6905,565.3364,274.4134,565.3364,286.4134,577.3364,274.4134,589.3364,121.6905,589.3364,109.6905,577.3364,121.6905,565.3364" style="stroke:#B08900;stroke-width:0.5;"/><text fill="#000000" font-family="sans-serif" font-size="11" lengthAdjust="spacing" textLength="152.7229" x="121.6905" y="581.6043">At allowed pause granularity?</text><text fill="#000000" font-family="sans-serif" font-size="11" lengthAdjust="spacing" textLength="17.0829" x="92.6076" y="574.1134">yes</text><text fill="#000000" font-family="sans-serif" font-size="11" lengthAdjust="spacing" textLength="13.4529" x="286.4134" y="574.1134">no</text><rect fill="#F7F9FB" height="36.3441" rx="12.5" ry="12.5" style="stroke:#2E3A46;stroke-width:0.5;" width="145.6409" x="26.87" y="599.3364"/><text fill="#000000" font-family="sans-serif" font-size="12" lengthAdjust="spacing" textLength="125.6409" x="36.87" y="622.1644">Trigger Checkpointing</text><rect fill="#F7F9FB" height="36.3441" rx="12.5" ry="12.5" style="stroke:#2E3A46;stroke-width:0.5;" width="132.9808" x="33.2001" y="670.6805"/><text fill="#000000" font-family="sans-serif" font-size="12" lengthAdjust="spacing" textLength="112.9808" x="43.2001" y="693.5086">Set is_paused = true</text><rect fill="#F7F9FB" height="36.3441" rx="12.5" ry="12.5" style="stroke:#2E3A46;stroke-width:0.5;" width="153.3809" x="23" y="727.0246"/><text fill="#000000" font-family="sans-serif" font-size="12" lengthAdjust="spacing" textLength="133.3809" x="33" y="749.8527">Increment pause_count</text><rect fill="#F7F9FB" height="52.6882" rx="12.5" ry="12.5" style="stroke:#2E3A46;stroke-width:0.5;" width="145.0049" x="223.9109" y="599.3364"/><text fill="#000000" font-family="sans-serif" font-size="12" lengthAdjust="spacing" textLength="125.0049" x="233.9109" y="622.1644">Defer pause until next</text><text fill="#000000" font-family="sans-serif" font-size="12" lengthAdjust="spacing" textLength="119.3768" x="233.9109" y="638.5086">checkpoint boundary</text><polygon fill="#FFF3BF" points="198.0519,769.3687,210.0519,781.3687,198.0519,793.3687,186.0519,781.3687,198.0519,769.3687" style="stroke:#B08900;stroke-width:0.5;"/><rect fill="#F7F9FB" height="36.3441" rx="12.5" ry="12.5" style="stroke:#2E3A46;stroke-width:0.5;" width="135.9808" x="475.5294" y="614.8273"/><text fill="#000000" font-family="sans-serif" font-size="12" lengthAdjust="spacing" textLength="115.9808" x="485.5294" y="637.6554">Set is_paused = false</text><polygon fill="#FFF3BF" points="410.9158,565.3364,676.1239,565.3364,688.1239,577.3364,676.1239,589.3364,410.9158,589.3364,398.9158,577.3364,410.9158,565.3364" style="stroke:#B08900;stroke-width:0.5;"/><text fill="#000000" font-family="sans-serif" font-size="11" lengthAdjust="spacing" textLength="39.3027" x="547.5199" y="601.0953">resume</text><text fill="#000000" font-family="sans-serif" font-size="11" lengthAdjust="spacing" textLength="265.2081" x="410.9158" y="581.6043">is_paused and co2_intensity(t) &lt; resume_threshold?</text><polygon fill="#FFF3BF" points="543.5199,676.6624,555.5199,688.6624,543.5199,700.6624,531.5199,688.6624,543.5199,676.6624" style="stroke:#B08900;stroke-width:0.5;"/><polygon fill="#FFF3BF" points="370.7859,799.3687,382.7859,811.3687,370.7859,823.3687,358.7859,811.3687,370.7859,799.3687" style="stroke:#B08900;stroke-width:0.5;"/><rect fill="none" height="336.7885" style="stroke:#000000;stroke-width:1.5;" width="443.2504" x="152.6107" y="845.3687"/><path d="M281.7502,845.3687 L281.7502,857.4366 L271.7502,867.4366 L152.6107,867.4366" fill="none" style="stroke:#000000;stroke-width:1.5;"/><text fill="#000000" font-family="sans-serif" font-size="14" lengthAdjust="spacing" textLength="119.1395" x="155.6107" y="861.3346">Simulation Engine</text><polygon fill="#FFF3BF" points="342.9176,884.4366,398.6542,884.4366,410.6542,896.4366,398.6542,908.4366,342.9176,908.4366,330.9176,896.4366,342.9176,884.4366" style="stroke:#B08900;stroke-width:0.5;"/><text fill="#000000" font-family="sans-serif" font-size="11" lengthAdjust="spacing" textLength="55.7366" x="342.9176" y="900.7046">is_paused?</text><text fill="#000000" font-family="sans-serif" font-size="11" lengthAdjust="spacing" textLength="17.0829" x="313.8347" y="893.2136">yes</text><text fill="#000000" font-family="sans-serif" font-size="11" lengthAdjust="spacing" textLength="13.4529" x="410.6542" y="893.2136">no</text><rect fill="#F7F9FB" height="36.3441" rx="12.5" ry="12.5" style="stroke:#2E3A46;stroke-width:0.5;" width="184.7252" x="172.6107" y="918.4366"/><text fill="#000000" font-family="sans-serif" font-size="12" lengthAdjust="spacing" textLength="164.7252" x="182.6107" y="941.2647">Accumulate paused wall time</text><rect fill="#F7F9FB" height="52.6882" rx="12.5" ry="12.5" style="stroke:#2E3A46;stroke-width:0.5;" width="172.0051" x="178.9708" y="974.7807"/><text fill="#000000" font-family="sans-serif" font-size="12" lengthAdjust="spacing" textLength="143.677" x="188.9708" y="997.6088">Add paused energy using</text><text fill="#000000" font-family="sans-serif" font-size="12" lengthAdjust="spacing" textLength="152.0051" x="188.9708" y="1013.9529">gpu_power_pause and pue</text><rect fill="#F7F9FB" height="36.3441" rx="12.5" ry="12.5" style="stroke:#2E3A46;stroke-width:0.5;" width="193.6892" x="379.7539" y="918.4366"/><text fill="#000000" font-family="sans-serif" font-size="12" lengthAdjust="spacing" textLength="173.6892" x="389.7539" y="941.2647">Advance training_progress_pct</text><rect fill="#F7F9FB" height="52.6882" rx="12.5" ry="12.5" style="stroke:#2E3A46;stroke-width:0.5;" width="164.493" x="394.352" y="974.7807"/><text fill="#000000" font-family="sans-serif" font-size="12" lengthAdjust="spacing" textLength="135.037" x="404.352" y="997.6088">Add active energy using</text><text fill="#000000" font-family="sans-serif" font-size="12" lengthAdjust="spacing" textLength="144.493" x="404.352" y="1013.9529">gpu_power_train and pue</text><rect fill="#F7F9FB" height="36.3441" rx="12.5" ry="12.5" style="stroke:#2E3A46;stroke-width:0.5;" width="198.5253" x="377.3359" y="1047.469"/><text fill="#000000" font-family="sans-serif" font-size="12" lengthAdjust="spacing" textLength="178.5253" x="387.3359" y="1070.297">Update accumulated_emissions</text><polygon fill="#FFF3BF" points="370.7859,1089.8131,382.7859,1101.8131,370.7859,1113.8131,358.7859,1101.8131,370.7859,1089.8131" style="stroke:#B08900;stroke-width:0.5;"/><rect fill="#F7F9FB" height="36.3441" rx="12.5" ry="12.5" style="stroke:#2E3A46;stroke-width:0.5;" width="204.6933" x="268.4392" y="1133.8131"/><text fill="#000000" font-family="sans-serif" font-size="12" lengthAdjust="spacing" textLength="184.6933" x="278.4392" y="1156.6412">Advance elapsed_wall_time by dt</text><rect fill="none" height="183.1003" style="stroke:#000000;stroke-width:1.5;" width="233.7174" x="740.1239" y="420.9243"/><path d="M869.2634,420.9243 L869.2634,432.9922 L859.2634,442.9922 L740.1239,442.9922" fill="none" style="stroke:#000000;stroke-width:1.5;"/><text fill="#000000" font-family="sans-serif" font-size="14" lengthAdjust="spacing" textLength="119.1395" x="743.1239" y="436.8903">Simulation Engine</text><rect fill="#F7F9FB" height="52.6882" rx="12.5" ry="12.5" style="stroke:#2E3A46;stroke-width:0.5;" width="190.7732" x="761.596" y="459.9922"/><text fill="#000000" font-family="sans-serif" font-size="12" lengthAdjust="spacing" textLength="170.7732" x="771.596" y="482.8203">Handle missing or invalid data</text><text fill="#000000" font-family="sans-serif" font-size="12" lengthAdjust="spacing" textLength="102.8647" x="771.596" y="499.1644">using fallback rule</text><rect fill="#F7F9FB" height="36.3441" rx="12.5" ry="12.5" style="stroke:#2E3A46;stroke-width:0.5;" width="213.7174" x="750.1239" y="547.6805"/><text fill="#000000" font-family="sans-serif" font-size="12" lengthAdjust="spacing" textLength="193.7174" x="760.1239" y="570.5086">Advance simulation conservatively</text><polygon fill="#FFF3BF" points="613.8842,1188.1572,625.8842,1200.1572,613.8842,1212.1572,601.8842,1200.1572,613.8842,1188.1572" style="stroke:#B08900;stroke-width:0.5;"/><polygon fill="#FFF3BF" points="613.8842,245.5123,625.8842,257.5123,613.8842,269.5123,601.8842,257.5123,613.8842,245.5123" style="stroke:#B08900;stroke-width:0.5;"/><polygon fill="#FFF3BF" points="537.6108,1232.1572,690.1577,1232.1572,702.1577,1244.1572,690.1577,1256.1572,537.6108,1256.1572,525.6108,1244.1572,537.6108,1232.1572" style="stroke:#B08900;stroke-width:0.5;"/><text fill="#000000" font-family="sans-serif" font-size="11" lengthAdjust="spacing" textLength="13.4529" x="617.8842" y="1267.9161">no</text><text fill="#000000" font-family="sans-serif" font-size="11" lengthAdjust="spacing" textLength="152.5469" x="537.6108" y="1248.4252">training_progress_pct &lt; 100%</text><text fill="#000000" font-family="sans-serif" font-size="11" lengthAdjust="spacing" textLength="17.0829" x="702.1577" y="1240.9342">yes</text><rect fill="none" height="409.4767" style="stroke:#000000;stroke-width:1.5;" width="469.5713" x="381.7266" y="1279.4161"/><path d="M445.3884,1279.4161 L445.3884,1291.484 L435.3884,1301.484 L381.7266,1301.484" fill="none" style="stroke:#000000;stroke-width:1.5;"/><text fill="#000000" font-family="sans-serif" font-size="14" lengthAdjust="spacing" textLength="53.6618" x="384.7266" y="1295.382">Outputs</text><rect fill="#F7F9FB" height="36.3441" rx="12.5" ry="12.5" style="stroke:#2E3A46;stroke-width:0.5;" width="169.2451" x="529.2617" y="1318.484"/><text fill="#000000" font-family="sans-serif" font-size="12" lengthAdjust="spacing" textLength="149.2451" x="539.2617" y="1341.3121">Compute CO2_savings_pct</text><rect fill="#F7F9FB" height="36.3441" rx="12.5" ry="12.5" style="stroke:#2E3A46;stroke-width:0.5;" width="182.0011" x="522.8837" y="1374.8281"/><text fill="#000000" font-family="sans-serif" font-size="12" lengthAdjust="spacing" textLength="162.0011" x="532.8837" y="1397.6562">Compute time_overhead_pct</text><rect fill="#F7F9FB" height="36.3441" rx="12.5" ry="12.5" style="stroke:#2E3A46;stroke-width:0.5;" width="105.5726" x="561.0979" y="1431.1722"/><text fill="#000000" font-family="sans-serif" font-size="12" lengthAdjust="spacing" textLength="85.5726" x="571.0979" y="1454.0003">Compute score</text><polygon fill="#FFF3BF" points="497.3511,1487.5164,730.4174,1487.5164,742.4174,1499.5164,730.4174,1511.5164,497.3511,1511.5164,485.3511,1499.5164,497.3511,1487.5164" style="stroke:#B08900;stroke-width:0.5;"/><text fill="#000000" font-family="sans-serif" font-size="11" lengthAdjust="spacing" textLength="233.0663" x="497.3511" y="1503.7843">time_overhead_pct &lt;= overhead_budget_pct?</text><text fill="#000000" font-family="sans-serif" font-size="11" lengthAdjust="spacing" textLength="17.0829" x="468.2682" y="1496.2934">yes</text><text fill="#000000" font-family="sans-serif" font-size="11" lengthAdjust="spacing" textLength="13.4529" x="742.4174" y="1496.2934">no</text><rect fill="#F7F9FB" height="36.3441" rx="12.5" ry="12.5" style="stroke:#2E3A46;stroke-width:0.5;" width="147.2489" x="401.7266" y="1521.5164"/><text fill="#000000" font-family="sans-serif" font-size="12" lengthAdjust="spacing" textLength="127.2489" x="411.7266" y="1544.3444">Mark policy as feasible</text><rect fill="#F7F9FB" height="36.3441" rx="12.5" ry="12.5" style="stroke:#2E3A46;stroke-width:0.5;" width="157.761" x="673.5369" y="1521.5164"/><text fill="#000000" font-family="sans-serif" font-size="12" lengthAdjust="spacing" textLength="137.761" x="683.5369" y="1544.3444">Mark policy as infeasible</text><polygon fill="#FFF3BF" points="613.8842,1563.8605,625.8842,1575.8605,613.8842,1587.8605,601.8842,1575.8605,613.8842,1563.8605" style="stroke:#B08900;stroke-width:0.5;"/><rect fill="#F7F9FB" height="69.0323" rx="12.5" ry="12.5" style="stroke:#2E3A46;stroke-width:0.5;" width="185.4092" x="521.1796" y="1607.8605"/><text fill="#000000" font-family="sans-serif" font-size="12" lengthAdjust="spacing" textLength="163.0092" x="531.1796" y="1630.6886">Store Results for comparison</text><text fill="#000000" font-family="sans-serif" font-size="12" lengthAdjust="spacing" textLength="151.6211" x="531.1796" y="1647.0327">across thresholds, regions,</text><text fill="#000000" font-family="sans-serif" font-size="12" lengthAdjust="spacing" textLength="165.4092" x="531.1796" y="1663.3768">start times, and architectures</text><ellipse cx="613.8842" cy="1719.8928" fill="none" rx="11" ry="11" style="stroke:#222222;stroke-width:1;"/><ellipse cx="613.8842" cy="1719.8928" fill="#222222" rx="6" ry="6" style="stroke:#222222;stroke-width:1;"/><line style="stroke:#181818;stroke-width:1;" x1="613.8842" x2="613.8842" y1="140.8241" y2="160.8241"/><polygon fill="#181818" points="609.8842,150.8241,613.8842,160.8241,617.8842,150.8241,613.8842,154.8241" style="stroke:#181818;stroke-width:1;"/><line style="stroke:#181818;stroke-width:1;" x1="613.8842" x2="613.8842" y1="42.706" y2="104.4799"/><polygon fill="#181818" points="609.8842,94.4799,613.8842,104.4799,617.8842,94.4799,613.8842,98.4799" style="stroke:#181818;stroke-width:1;"/><line style="stroke:#181818;stroke-width:1;" x1="99.6905" x2="99.6905" y1="635.6805" y2="670.6805"/><polygon fill="#181818" points="95.6905,660.6805,99.6905,670.6805,103.6905,660.6805,99.6905,664.6805" style="stroke:#181818;stroke-width:1;"/><line style="stroke:#181818;stroke-width:1;" x1="99.6905" x2="99.6905" y1="707.0246" y2="727.0246"/><polygon fill="#181818" points="95.6905,717.0246,99.6905,727.0246,103.6905,717.0246,99.6905,721.0246" style="stroke:#181818;stroke-width:1;"/><line style="stroke:#181818;stroke-width:1;" x1="109.6905" x2="99.6905" y1="577.3364" y2="577.3364"/><line style="stroke:#181818;stroke-width:1;" x1="99.6905" x2="99.6905" y1="577.3364" y2="599.3364"/><polygon fill="#181818" points="95.6905,589.3364,99.6905,599.3364,103.6905,589.3364,99.6905,593.3364" style="stroke:#181818;stroke-width:1;"/><line style="stroke:#181818;stroke-width:1;" x1="286.4134" x2="296.4134" y1="577.3364" y2="577.3364"/><line style="stroke:#181818;stroke-width:1;" x1="296.4134" x2="296.4134" y1="577.3364" y2="599.3364"/><polygon fill="#181818" points="292.4134,589.3364,296.4134,599.3364,300.4134,589.3364,296.4134,593.3364" style="stroke:#181818;stroke-width:1;"/><line style="stroke:#181818;stroke-width:1;" x1="99.6905" x2="99.6905" y1="763.3687" y2="781.3687"/><line style="stroke:#181818;stroke-width:1;" x1="99.6905" x2="186.0519" y1="781.3687" y2="781.3687"/><polygon fill="#181818" points="176.0519,777.3687,186.0519,781.3687,176.0519,785.3687,180.0519,781.3687" style="stroke:#181818;stroke-width:1;"/><line style="stroke:#181818;stroke-width:1;" x1="296.4134" x2="296.4134" y1="652.0246" y2="781.3687"/><line style="stroke:#181818;stroke-width:1;" x1="296.4134" x2="210.0519" y1="781.3687" y2="781.3687"/><polygon fill="#181818" points="220.0519,777.3687,210.0519,781.3687,220.0519,785.3687,216.0519,781.3687" style="stroke:#181818;stroke-width:1;"/><line style="stroke:#181818;stroke-width:1;" x1="543.5199" x2="543.5199" y1="589.3364" y2="614.8273"/><polygon fill="#181818" points="539.5199,604.8273,543.5199,614.8273,547.5199,604.8273,543.5199,608.8273" style="stroke:#181818;stroke-width:1;"/><line style="stroke:#181818;stroke-width:1;" x1="688.1239" x2="700.1239" y1="577.3364" y2="577.3364"/><polygon fill="#181818" points="696.1239,622.9994,700.1239,632.9994,704.1239,622.9994,700.1239,626.9994" style="stroke:#181818;stroke-width:1;"/><line style="stroke:#181818;stroke-width:1;" x1="700.1239" x2="700.1239" y1="577.3364" y2="688.6624"/><line style="stroke:#181818;stroke-width:1;" x1="700.1239" x2="555.5199" y1="688.6624" y2="688.6624"/><polygon fill="#181818" points="565.5199,684.6624,555.5199,688.6624,565.5199,692.6624,561.5199,688.6624" style="stroke:#181818;stroke-width:1;"/><line style="stroke:#181818;stroke-width:1;" x1="543.5199" x2="543.5199" y1="651.1714" y2="676.6624"/><polygon fill="#181818" points="539.5199,666.6624,543.5199,676.6624,547.5199,666.6624,543.5199,670.6624" style="stroke:#181818;stroke-width:1;"/><line style="stroke:#181818;stroke-width:1;" x1="279.801" x2="198.0519" y1="543.3364" y2="543.3364"/><line style="stroke:#181818;stroke-width:1;" x1="198.0519" x2="198.0519" y1="543.3364" y2="565.3364"/><polygon fill="#181818" points="194.0519,555.3364,198.0519,565.3364,202.0519,555.3364,198.0519,559.3364" style="stroke:#181818;stroke-width:1;"/><line style="stroke:#181818;stroke-width:1;" x1="461.7708" x2="543.5199" y1="543.3364" y2="543.3364"/><line style="stroke:#181818;stroke-width:1;" x1="543.5199" x2="543.5199" y1="543.3364" y2="565.3364"/><polygon fill="#181818" points="539.5199,555.3364,543.5199,565.3364,547.5199,555.3364,543.5199,559.3364" style="stroke:#181818;stroke-width:1;"/><line style="stroke:#181818;stroke-width:1;" x1="198.0519" x2="198.0519" y1="793.3687" y2="811.3687"/><line style="stroke:#181818;stroke-width:1;" x1="198.0519" x2="358.7859" y1="811.3687" y2="811.3687"/><polygon fill="#181818" points="348.7859,807.3687,358.7859,811.3687,348.7859,815.3687,352.7859,811.3687" style="stroke:#181818;stroke-width:1;"/><line style="stroke:#181818;stroke-width:1;" x1="543.5199" x2="543.5199" y1="700.6624" y2="811.3687"/><line style="stroke:#181818;stroke-width:1;" x1="543.5199" x2="382.7859" y1="811.3687" y2="811.3687"/><polygon fill="#181818" points="392.7859,807.3687,382.7859,811.3687,392.7859,815.3687,388.7859,811.3687" style="stroke:#181818;stroke-width:1;"/><line style="stroke:#181818;stroke-width:1;" x1="370.7859" x2="370.7859" y1="496.3364" y2="531.3364"/><polygon fill="#181818" points="366.7859,521.3364,370.7859,531.3364,374.7859,521.3364,370.7859,525.3364" style="stroke:#181818;stroke-width:1;"/><line style="stroke:#181818;stroke-width:1;" x1="264.9733" x2="264.9733" y1="954.7807" y2="974.7807"/><polygon fill="#181818" points="260.9733,964.7807,264.9733,974.7807,268.9733,964.7807,264.9733,968.7807" style="stroke:#181818;stroke-width:1;"/><line style="stroke:#181818;stroke-width:1;" x1="476.5985" x2="476.5985" y1="954.7807" y2="974.7807"/><polygon fill="#181818" points="472.5985,964.7807,476.5985,974.7807,480.5985,964.7807,476.5985,968.7807" style="stroke:#181818;stroke-width:1;"/><line style="stroke:#181818;stroke-width:1;" x1="476.5985" x2="476.5985" y1="1027.469" y2="1047.469"/><polygon fill="#181818" points="472.5985,1037.469,476.5985,1047.469,480.5985,1037.469,476.5985,1041.469" style="stroke:#181818;stroke-width:1;"/><line style="stroke:#181818;stroke-width:1;" x1="330.9176" x2="264.9733" y1="896.4366" y2="896.4366"/><line style="stroke:#181818;stroke-width:1;" x1="264.9733" x2="264.9733" y1="896.4366" y2="918.4366"/><polygon fill="#181818" points="260.9733,908.4366,264.9733,918.4366,268.9733,908.4366,264.9733,912.4366" style="stroke:#181818;stroke-width:1;"/><line style="stroke:#181818;stroke-width:1;" x1="410.6542" x2="476.5985" y1="896.4366" y2="896.4366"/><line style="stroke:#181818;stroke-width:1;" x1="476.5985" x2="476.5985" y1="896.4366" y2="918.4366"/><polygon fill="#181818" points="472.5985,908.4366,476.5985,918.4366,480.5985,908.4366,476.5985,912.4366" style="stroke:#181818;stroke-width:1;"/><line style="stroke:#181818;stroke-width:1;" x1="264.9733" x2="264.9733" y1="1027.469" y2="1101.8131"/><line style="stroke:#181818;stroke-width:1;" x1="264.9733" x2="358.7859" y1="1101.8131" y2="1101.8131"/><polygon fill="#181818" points="348.7859,1097.8131,358.7859,1101.8131,348.7859,1105.8131,352.7859,1101.8131" style="stroke:#181818;stroke-width:1;"/><line style="stroke:#181818;stroke-width:1;" x1="476.5985" x2="476.5985" y1="1083.8131" y2="1101.8131"/><line style="stroke:#181818;stroke-width:1;" x1="476.5985" x2="382.7859" y1="1101.8131" y2="1101.8131"/><polygon fill="#181818" points="392.7859,1097.8131,382.7859,1101.8131,392.7859,1105.8131,388.7859,1101.8131" style="stroke:#181818;stroke-width:1;"/><line style="stroke:#181818;stroke-width:1;" x1="370.7859" x2="370.7859" y1="1113.8131" y2="1133.8131"/><polygon fill="#181818" points="366.7859,1123.8131,370.7859,1133.8131,374.7859,1123.8131,370.7859,1127.8131" style="stroke:#181818;stroke-width:1;"/><line style="stroke:#181818;stroke-width:1;" x1="370.7859" x2="370.7859" y1="823.3687" y2="884.4366"/><polygon fill="#181818" points="366.7859,874.4366,370.7859,884.4366,374.7859,874.4366,370.7859,878.4366" style="stroke:#181818;stroke-width:1;"/><line style="stroke:#181818;stroke-width:1;" x1="856.9826" x2="856.9826" y1="512.6805" y2="547.6805"/><polygon fill="#181818" points="852.9826,537.6805,856.9826,547.6805,860.9826,537.6805,856.9826,541.6805" style="stroke:#181818;stroke-width:1;"/><line style="stroke:#181818;stroke-width:1;" x1="561.9215" x2="370.7859" y1="398.9243" y2="398.9243"/><line style="stroke:#181818;stroke-width:1;" x1="370.7859" x2="370.7859" y1="398.9243" y2="459.9922"/><polygon fill="#181818" points="366.7859,449.9922,370.7859,459.9922,374.7859,449.9922,370.7859,453.9922" style="stroke:#181818;stroke-width:1;"/><line style="stroke:#181818;stroke-width:1;" x1="665.847" x2="856.9826" y1="398.9243" y2="398.9243"/><line style="stroke:#181818;stroke-width:1;" x1="856.9826" x2="856.9826" y1="398.9243" y2="459.9922"/><polygon fill="#181818" points="852.9826,449.9922,856.9826,459.9922,860.9826,449.9922,856.9826,453.9922" style="stroke:#181818;stroke-width:1;"/><line style="stroke:#181818;stroke-width:1;" x1="370.7859" x2="370.7859" y1="1170.1572" y2="1200.1572"/><line style="stroke:#181818;stroke-width:1;" x1="370.7859" x2="601.8842" y1="1200.1572" y2="1200.1572"/><polygon fill="#181818" points="591.8842,1196.1572,601.8842,1200.1572,591.8842,1204.1572,595.8842,1200.1572" style="stroke:#181818;stroke-width:1;"/><line style="stroke:#181818;stroke-width:1;" x1="856.9826" x2="856.9826" y1="584.0246" y2="1200.1572"/><line style="stroke:#181818;stroke-width:1;" x1="856.9826" x2="625.8842" y1="1200.1572" y2="1200.1572"/><polygon fill="#181818" points="635.8842,1196.1572,625.8842,1200.1572,635.8842,1204.1572,631.8842,1200.1572" style="stroke:#181818;stroke-width:1;"/><line style="stroke:#181818;stroke-width:1;" x1="613.8842" x2="613.8842" y1="354.9243" y2="386.9243"/><polygon fill="#181818" points="609.8842,376.9243,613.8842,386.9243,617.8842,376.9243,613.8842,380.9243" style="stroke:#181818;stroke-width:1;"/><line style="stroke:#181818;stroke-width:1;" x1="613.8842" x2="613.8842" y1="269.5123" y2="318.5802"/><polygon fill="#181818" points="609.8842,308.5802,613.8842,318.5802,617.8842,308.5802,613.8842,312.5802" style="stroke:#181818;stroke-width:1;"/><line style="stroke:#181818;stroke-width:1;" x1="702.1577" x2="987.8413" y1="1244.1572" y2="1244.1572"/><polygon fill="#181818" points="983.8413,779.8347,987.8413,769.8347,991.8413,779.8347,987.8413,775.8347" style="stroke:#181818;stroke-width:1;"/><line style="stroke:#181818;stroke-width:1;" x1="987.8413" x2="987.8413" y1="257.5123" y2="1244.1572"/><line style="stroke:#181818;stroke-width:1;" x1="987.8413" x2="625.8842" y1="257.5123" y2="257.5123"/><polygon fill="#181818" points="635.8842,253.5123,625.8842,257.5123,635.8842,261.5123,631.8842,257.5123" style="stroke:#181818;stroke-width:1;"/><line style="stroke:#181818;stroke-width:1;" x1="613.8842" x2="613.8842" y1="1212.1572" y2="1232.1572"/><polygon fill="#181818" points="609.8842,1222.1572,613.8842,1232.1572,617.8842,1222.1572,613.8842,1226.1572" style="stroke:#181818;stroke-width:1;"/><line style="stroke:#181818;stroke-width:1;" x1="613.8842" x2="613.8842" y1="213.5123" y2="245.5123"/><polygon fill="#181818" points="609.8842,235.5123,613.8842,245.5123,617.8842,235.5123,613.8842,239.5123" style="stroke:#181818;stroke-width:1;"/><line style="stroke:#181818;stroke-width:1;" x1="613.8842" x2="613.8842" y1="1354.8281" y2="1374.8281"/><polygon fill="#181818" points="609.8842,1364.8281,613.8842,1374.8281,617.8842,1364.8281,613.8842,1368.8281" style="stroke:#181818;stroke-width:1;"/><line style="stroke:#181818;stroke-width:1;" x1="613.8842" x2="613.8842" y1="1411.1722" y2="1431.1722"/><polygon fill="#181818" points="609.8842,1421.1722,613.8842,1431.1722,617.8842,1421.1722,613.8842,1425.1722" style="stroke:#181818;stroke-width:1;"/><line style="stroke:#181818;stroke-width:1;" x1="485.3511" x2="475.3511" y1="1499.5164" y2="1499.5164"/><line style="stroke:#181818;stroke-width:1;" x1="475.3511" x2="475.3511" y1="1499.5164" y2="1521.5164"/><polygon fill="#181818" points="471.3511,1511.5164,475.3511,1521.5164,479.3511,1511.5164,475.3511,1515.5164" style="stroke:#181818;stroke-width:1;"/><line style="stroke:#181818;stroke-width:1;" x1="742.4174" x2="752.4174" y1="1499.5164" y2="1499.5164"/><line style="stroke:#181818;stroke-width:1;" x1="752.4174" x2="752.4174" y1="1499.5164" y2="1521.5164"/><polygon fill="#181818" points="748.4174,1511.5164,752.4174,1521.5164,756.4174,1511.5164,752.4174,1515.5164" style="stroke:#181818;stroke-width:1;"/><line style="stroke:#181818;stroke-width:1;" x1="475.3511" x2="475.3511" y1="1557.8605" y2="1575.8605"/><line style="stroke:#181818;stroke-width:1;" x1="475.3511" x2="601.8842" y1="1575.8605" y2="1575.8605"/><polygon fill="#181818" points="591.8842,1571.8605,601.8842,1575.8605,591.8842,1579.8605,595.8842,1575.8605" style="stroke:#181818;stroke-width:1;"/><line style="stroke:#181818;stroke-width:1;" x1="752.4174" x2="752.4174" y1="1557.8605" y2="1575.8605"/><line style="stroke:#181818;stroke-width:1;" x1="752.4174" x2="625.8842" y1="1575.8605" y2="1575.8605"/><polygon fill="#181818" points="635.8842,1571.8605,625.8842,1575.8605,635.8842,1579.8605,631.8842,1575.8605" style="stroke:#181818;stroke-width:1;"/><line style="stroke:#181818;stroke-width:1;" x1="613.8842" x2="613.8842" y1="1467.5164" y2="1487.5164"/><polygon fill="#181818" points="609.8842,1477.5164,613.8842,1487.5164,617.8842,1477.5164,613.8842,1481.5164" style="stroke:#181818;stroke-width:1;"/><line style="stroke:#181818;stroke-width:1;" x1="613.8842" x2="613.8842" y1="1587.8605" y2="1607.8605"/><polygon fill="#181818" points="609.8842,1597.8605,613.8842,1607.8605,617.8842,1597.8605,613.8842,1601.8605" style="stroke:#181818;stroke-width:1;"/><line style="stroke:#181818;stroke-width:1;" x1="613.8842" x2="613.8842" y1="1256.1572" y2="1318.484"/><polygon fill="#181818" points="609.8842,1308.484,613.8842,1318.484,617.8842,1308.484,613.8842,1312.484" style="stroke:#181818;stroke-width:1;"/><line style="stroke:#181818;stroke-width:1;" x1="613.8842" x2="613.8842" y1="1676.8928" y2="1708.8928"/><polygon fill="#181818" points="609.8842,1698.8928,613.8842,1708.8928,617.8842,1698.8928,613.8842,1702.8928" style="stroke:#181818;stroke-width:1;"/><!--SRC=[ZLLDZzis4BthLmmIjBM179prTfkranPhxweDa291jhqP4CRYM2QM8WMIyiODSisvlx6_f4DAbcKhM_GcSRxUl7aS_k2bLmGVq7gucC6zB6k5NXeDxuofu7luIAvMtYM9Uv2wGeibh35_AAofjLWQPImyRgMddjrjKPX7gGlOe79z2-PUxgJVm-S4O66i8DkaU7vnDxsvl0gdPycVfp-br-aYMWxEFovUfUar7zrxndt8a2wcbvTyUDU5tbvDfrTBFhgLM1ejXhdJTBf8UmvzI8l9g-l99Fd2hOSoIQAD9r2qyHpmpzU_8JVQIrsJW8qrPSFXIxQDRj4Zu0wbmhMYSK9QG0XE4gQ12G_qFkjHVQSBgUbPP6NsLhC3AlaNzQOn3vQbAQkQ8QpHaU80iBGXIpgdbTumubfBxSdQklACoLkKV53CGmUMAiA0kmVWLoi5ZxTIk6zASucFX8BxkiX29kruL2C_3iKv1u3Sm2X6YT3WZa6ANyRWjwHXj2StZZbw5JuO9VCzB9adQzIX29UvuzWQVT1TxIX8hAHtff3vlFK8bSvXmC-XbCUi2a5TuVWtRkEQo1iFg9HvP1QY5GgBcfcqd6W8kCNqXvL5GHQMMyeVAYF3R8jvt-EUF4ZNb1VmXXckwSJXhSujbQHzKpRBMMh-w45y6M2apKdPsp335YPxImMQFlcLpZiOi0wAHRllPT92Rf9-reCMJuaueaKzd2kyPWK5wZE_vO-jKSTnDeRnVxKVB_SJcBhlg9iJKJoX-m7aRmzgTfFdTKn0q29vv5c3bsKFo-n6Y8EPDDbY3xNZSQvqKTLPnSgmJPN8ItKSut14d6g7VCMw-vHLrXHC3-FC_Ld9kD_eoP8nnNb93lsp4g4Vx5eJ6PNIEUR8pPCXlHqcKbXnZrcW80iKm7eFeaNr9Jdlv_zDOVOR8-Gt8IBW9SwRHUfusUEzN-dOLnY_2Yy1s5frpNJ8t34_IzEHtM6WHkrxs697xMeAZmZN77sJPHRgoydakp7Bhv53sAPDM_sD-hxsl1zTkqSFstBv_Y9pkEEStSGwMw0iCpkoMzvx0wlBZOsT1LqENE7r6-Z-rxKeo8VZeMndlwDzWAhPXUXWG-Zakk7iT3xddbAV-BOAcDrxndLuc25i_fmHytPpHgyqvjOu1zsLTY_ubXT1IYzMEhvaiMq-3a94cuVNE_Srky-RnyvKoRy0]--></g></svg>