<svg xmlns="http://www.w3.org/2000/svg" xmlns:xlink="http://www.w3.org/1999/xlink" contentStyleType="text/css" data-diagram-type="ACTIVITY" height="808px" preserveAspectRatio="none" style="width:729px;height:808px;background:#FFFFFF;" version="1.1" viewBox="0 0 729 808" width="729px" zoomAndPan="magnify"><defs/><g><ellipse cx="256.9167" cy="20" fill="#2FB344" rx="10" ry="10" style="stroke:#222222;stroke-width:1;"/><rect fill="none" height="557.6504" style="stroke:#000000;stroke-width:1.5;" width="570.1144" x="148.8181" y="40"/><path d="M237.4978,40 L237.4978,52.0679 L227.4978,62.0679 L148.8181,62.0679" fill="none" style="stroke:#000000;stroke-width:1.5;"/><text fill="#000000" font-family="sans-serif" font-size="14" lengthAdjust="spacing" textLength="78.6797" x="151.8181" y="55.9659">Study Setup</text><path d="M355.1192,72.0679 L355.1192,161.598 L335.1192,165.598 L355.1192,169.598 L355.1192,259.1281 A0,0 0 0 0 355.1192,259.1281 L596.2094,259.1281 A0,0 0 0 0 596.2094,259.1281 L596.2094,82.0679 L586.2094,72.0679 L355.1192,72.0679 A0,0 0 0 0 355.1192,72.0679" fill="#FEFFDD" style="stroke:#181818;stroke-width:0.5;"/><path d="M586.2094,72.0679 L586.2094,82.0679 L596.2094,82.0679 L586.2094,72.0679" fill="#FEFFDD" style="stroke:#181818;stroke-width:0.5;"/><text fill="#000000" font-family="sans-serif" font-size="13" lengthAdjust="spacing" textLength="150.6311" x="361.1192" y="90.9649">class TrainingRunProfile:</text><text fill="#000000" font-family="sans-serif" font-size="13" lengthAdjust="spacing" textLength="102.4401" x="367.8792" y="108.6709">model_name: str</text><text fill="#000000" font-family="sans-serif" font-size="13" lengthAdjust="spacing" textLength="113.7501" x="367.8792" y="126.377">model_params: int</text><text fill="#000000" font-family="sans-serif" font-size="13" lengthAdjust="spacing" textLength="115.3361" x="367.8792" y="144.083">dataset_tokens: int</text><text fill="#000000" font-family="sans-serif" font-size="13" lengthAdjust="spacing" textLength="87.6071" x="367.8792" y="161.789">gpu_count: int</text><text fill="#000000" font-family="sans-serif" font-size="13" lengthAdjust="spacing" textLength="137.6311" x="367.8792" y="179.495">gpu_power_train: float</text><text fill="#000000" font-family="sans-serif" font-size="13" lengthAdjust="spacing" textLength="145.7691" x="367.8792" y="197.201">gpu_power_pause: float</text><text fill="#000000" font-family="sans-serif" font-size="13" lengthAdjust="spacing" textLength="57.9021" x="367.8792" y="214.907">pue: float</text><text fill="#000000" font-family="sans-serif" font-size="13" lengthAdjust="spacing" textLength="198.1722" x="367.8792" y="232.6131">checkpoint_overhead_time: float</text><text fill="#000000" font-family="sans-serif" font-size="13" lengthAdjust="spacing" textLength="213.3302" x="367.8792" y="250.3191">checkpoint_overhead_energy: float</text><rect fill="#F7F9FB" height="36.3441" rx="12.5" ry="12.5" style="stroke:#2E3A46;stroke-width:0.5;" width="156.405" x="178.7143" y="147.4259"/><text fill="#000000" font-family="sans-serif" font-size="12" lengthAdjust="spacing" textLength="136.405" x="188.7143" y="170.254">Load TrainingRunProfile</text><path d="M359.3313,269.1281 L359.3313,340.9521 L339.3313,344.9521 L359.3313,348.9521 L359.3313,420.7762 A0,0 0 0 0 359.3313,420.7762 L708.9325,420.7762 A0,0 0 0 0 708.9325,420.7762 L708.9325,279.1281 L698.9325,269.1281 L359.3313,269.1281 A0,0 0 0 0 359.3313,269.1281" fill="#FEFFDD" style="stroke:#181818;stroke-width:0.5;"/><path d="M698.9325,269.1281 L698.9325,279.1281 L708.9325,279.1281 L698.9325,269.1281" fill="#FEFFDD" style="stroke:#181818;stroke-width:0.5;"/><text fill="#000000" font-family="sans-serif" font-size="13" lengthAdjust="spacing" textLength="159.7571" x="365.3313" y="288.0251">class ScenarioParameters:</text><text fill="#000000" font-family="sans-serif" font-size="13" lengthAdjust="spacing" textLength="202.2672" x="372.0913" y="305.7311">region: str  # e.g., "DE", "ES", "FR"</text><text fill="#000000" font-family="sans-serif" font-size="13" lengthAdjust="spacing" textLength="123.2921" x="372.0913" y="323.4371">start_time: datetime</text><text fill="#000000" font-family="sans-serif" font-size="13" lengthAdjust="spacing" textLength="235.6642" x="372.0913" y="341.1431">pause_threshold: float  # gCO2eq/kWh</text><text fill="#000000" font-family="sans-serif" font-size="13" lengthAdjust="spacing" textLength="245.5052" x="372.0913" y="358.8492">hysteresis_margin: float  # gCO2eq/kWh</text><text fill="#000000" font-family="sans-serif" font-size="13" lengthAdjust="spacing" textLength="271.2193" x="372.0913" y="376.5552">pause_granularity: enum (Batch, Epoch, etc.)</text><text fill="#000000" font-family="sans-serif" font-size="13" lengthAdjust="spacing" textLength="181.7012" x="372.0913" y="394.2612">historical_year: int # e.g. 2024</text><text fill="#000000" font-family="sans-serif" font-size="13" lengthAdjust="spacing" textLength="321.8412" x="372.0913" y="411.9672">overhead_budget_pct: float # tolerance for overhead</text><rect fill="#F7F9FB" height="36.3441" rx="12.5" ry="12.5" style="stroke:#2E3A46;stroke-width:0.5;" width="164.829" x="174.5022" y="326.7801"/><text fill="#000000" font-family="sans-serif" font-size="12" lengthAdjust="spacing" textLength="144.829" x="184.5022" y="349.6082">Load ScenarioParameters</text><path d="M375.0154,430.7762 L375.0154,476.0413 L355.0154,480.0413 L375.0154,484.0413 L375.0154,529.3063 A0,0 0 0 0 375.0154,529.3063 L641.2476,529.3063 A0,0 0 0 0 641.2476,529.3063 L641.2476,440.7762 L631.2476,430.7762 L375.0154,430.7762 A0,0 0 0 0 375.0154,430.7762" fill="#FEFFDD" style="stroke:#181818;stroke-width:0.5;"/><path d="M631.2476,430.7762 L631.2476,440.7762 L641.2476,440.7762 L631.2476,430.7762" fill="#FEFFDD" style="stroke:#181818;stroke-width:0.5;"/><text fill="#000000" font-family="sans-serif" font-size="13" lengthAdjust="spacing" textLength="183.1182" x="381.0154" y="449.6732">Example time point (CSV row):</text><text fill="#000000" font-family="sans-serif" font-size="13" lengthAdjust="spacing" textLength="229.1382" x="381.0154" y="467.3792">zone=DE, requested_day=2024-06-05,</text><text fill="#000000" font-family="sans-serif" font-size="13" lengthAdjust="spacing" textLength="236.7172" x="381.0154" y="485.0853">timestamp=2024-06-05T00:00:00.000Z,</text><text fill="#000000" font-family="sans-serif" font-size="13" lengthAdjust="spacing" textLength="245.2322" x="381.0154" y="502.7913">carbonIntensity=248, isEstimated=False,</text><text fill="#000000" font-family="sans-serif" font-size="13" lengthAdjust="spacing" textLength="120.1461" x="381.0154" y="520.4973">estimationMethod=</text><rect fill="#F7F9FB" height="52.6882" rx="12.5" ry="12.5" style="stroke:#2E3A46;stroke-width:0.5;" width="196.1973" x="158.8181" y="453.6971"/><text fill="#000000" font-family="sans-serif" font-size="12" lengthAdjust="spacing" textLength="149.0891" x="168.8181" y="476.5252">Fetch GridData time series</text><text fill="#000000" font-family="sans-serif" font-size="12" lengthAdjust="spacing" textLength="176.1973" x="168.8181" y="492.8693">for the selected region/window</text><rect fill="#F7F9FB" height="36.3441" rx="12.5" ry="12.5" style="stroke:#2E3A46;stroke-width:0.5;" width="180.8131" x="166.5102" y="549.3063"/><text fill="#000000" font-family="sans-serif" font-size="12" lengthAdjust="spacing" textLength="160.8131" x="176.5102" y="572.1344">Validate data availability flag</text><polygon fill="#FFF3BF" points="218.1365,617.6504,295.697,617.6504,307.697,629.6504,295.697,641.6504,218.1365,641.6504,206.1365,629.6504,218.1365,617.6504" style="stroke:#B08900;stroke-width:0.5;"/><text fill="#000000" font-family="sans-serif" font-size="11" lengthAdjust="spacing" textLength="77.5605" x="218.1365" y="633.9184">Data available?</text><text fill="#000000" font-family="sans-serif" font-size="11" lengthAdjust="spacing" textLength="17.0829" x="189.0536" y="626.4274">yes</text><text fill="#000000" font-family="sans-serif" font-size="11" lengthAdjust="spacing" textLength="13.4529" x="307.697" y="626.4274">no</text><path d="M175.2369,655.9695 L175.2369,665.8225 L155.2369,669.8225 L175.2369,673.8225 L175.2369,683.6755 A0,0 0 0 0 175.2369,683.6755 L326.2746,683.6755 A0,0 0 0 0 326.2746,683.6755 L326.2746,665.9695 L316.2746,655.9695 L175.2369,655.9695 A0,0 0 0 0 175.2369,655.9695" fill="#FEFFDD" style="stroke:#181818;stroke-width:0.5;"/><path d="M316.2746,655.9695 L316.2746,665.9695 L326.2746,665.9695 L316.2746,655.9695" fill="#FEFFDD" style="stroke:#181818;stroke-width:0.5;"/><text fill="#000000" font-family="sans-serif" font-size="13" lengthAdjust="spacing" textLength="130.0377" x="181.2369" y="674.8665">&#8594; continued in Part 2</text><rect fill="#F7F9FB" height="36.3441" rx="12.5" ry="12.5" style="stroke:#2E3A46;stroke-width:0.5;" width="144.2369" x="11" y="651.6504"/><text fill="#000000" font-family="sans-serif" font-size="12" lengthAdjust="spacing" textLength="124.2369" x="21" y="674.4785">Proceed to Simulation</text><rect fill="none" height="103.7561" style="stroke:#000000;stroke-width:1.5;" width="168.8809" x="346.2746" y="651.6504"/><path d="M409.9364,651.6504 L409.9364,663.7183 L399.9364,673.7183 L346.2746,673.7183" fill="none" style="stroke:#000000;stroke-width:1.5;"/><text fill="#000000" font-family="sans-serif" font-size="14" lengthAdjust="spacing" textLength="53.6618" x="349.2746" y="667.6163">Outputs</text><rect fill="#F7F9FB" height="52.6882" rx="12.5" ry="12.5" style="stroke:#2E3A46;stroke-width:0.5;" width="148.8809" x="356.2746" y="690.7183"/><text fill="#000000" font-family="sans-serif" font-size="12" lengthAdjust="spacing" textLength="117.9249" x="366.2746" y="713.5464">Abort run and report</text><text fill="#000000" font-family="sans-serif" font-size="12" lengthAdjust="spacing" textLength="128.8809" x="366.2746" y="729.8905">missing-data condition</text><ellipse cx="430.715" cy="786.4066" fill="none" rx="11" ry="11" style="stroke:#222222;stroke-width:1;"/><ellipse cx="430.715" cy="786.4066" fill="#222222" rx="6" ry="6" style="stroke:#222222;stroke-width:1;"/><line style="stroke:#181818;stroke-width:1;" x1="256.9167" x2="256.9167" y1="183.7701" y2="326.7801"/><polygon fill="#181818" points="252.9167,316.7801,256.9167,326.7801,260.9167,316.7801,256.9167,320.7801" style="stroke:#181818;stroke-width:1;"/><line style="stroke:#181818;stroke-width:1;" x1="256.9167" x2="256.9167" y1="363.1242" y2="453.6971"/><polygon fill="#181818" points="252.9167,443.6971,256.9167,453.6971,260.9167,443.6971,256.9167,447.6971" style="stroke:#181818;stroke-width:1;"/><line style="stroke:#181818;stroke-width:1;" x1="256.9167" x2="256.9167" y1="506.3854" y2="549.3063"/><polygon fill="#181818" points="252.9167,539.3063,256.9167,549.3063,260.9167,539.3063,256.9167,543.3063" style="stroke:#181818;stroke-width:1;"/><line style="stroke:#181818;stroke-width:1;" x1="256.9167" x2="256.9167" y1="30" y2="147.4259"/><polygon fill="#181818" points="252.9167,137.4259,256.9167,147.4259,260.9167,137.4259,256.9167,141.4259" style="stroke:#181818;stroke-width:1;"/><line style="stroke:#181818;stroke-width:1;" x1="430.715" x2="430.715" y1="743.4066" y2="775.4066"/><polygon fill="#181818" points="426.715,765.4066,430.715,775.4066,434.715,765.4066,430.715,769.4066" style="stroke:#181818;stroke-width:1;"/><line style="stroke:#181818;stroke-width:1;" x1="206.1365" x2="83.1184" y1="629.6504" y2="629.6504"/><line style="stroke:#181818;stroke-width:1;" x1="83.1184" x2="83.1184" y1="629.6504" y2="651.6504"/><polygon fill="#181818" points="79.1184,641.6504,83.1184,651.6504,87.1184,641.6504,83.1184,645.6504" style="stroke:#181818;stroke-width:1;"/><line style="stroke:#181818;stroke-width:1;" x1="307.697" x2="430.715" y1="629.6504" y2="629.6504"/><line style="stroke:#181818;stroke-width:1;" x1="430.715" x2="430.715" y1="629.6504" y2="690.7183"/><polygon fill="#181818" points="426.715,680.7183,430.715,690.7183,434.715,680.7183,430.715,684.7183" style="stroke:#181818;stroke-width:1;"/><line style="stroke:#181818;stroke-width:1;" x1="256.9167" x2="256.9167" y1="585.6504" y2="617.6504"/><polygon fill="#181818" points="252.9167,607.6504,256.9167,617.6504,260.9167,607.6504,256.9167,611.6504" style="stroke:#181818;stroke-width:1;"/><!--SRC=[ZLJXQjj84FwlfnWSk7F0INIsaoOkveXZgnpqQAXB3uw2M6l7qkBLhhexIiuzylSUu1wnJz9PIKuT9uM2aQMPJz_CzursVYL56k5ME8BV9h14gYlu1UQ217mKMab1ofeeyXjbAk542IkHRN9dQoDlhBOExWj5k9VtXP3sNfaSraBx_Op8IDqfsiA_4S3CEeckfJWQBaRNuuiGFI0_IbubLycioUp0vxFB9BdYq9Auwnr3CXkDnnnSFBuwlnYDBcuuD5UYj4O-vqwIqIpP0-otD8ilh-8uUc3feKmKiGRsYis0tf9gkMszwZLY9c-jaF312MLO-FlQt3gxLXfVSyvOGd0gBuWV038jl7y1Ecco0AMLg5CZIfo09_SasjZe9w0CTN4UZ_18ATaDcYUPlAhJZCNIOR2oz-XI2WrCOAsjU9wiHEtnQRAg3m9PWTcciioTsZjq1GgPaYf_0eK6NRxzZaCZ6vCUVLncQ8HJzZR8HKBdV-ZZS-ZEHuSvpwhn4E08y3G_7K1llkZnTR4Cr-HzhyCs4-wwPqSntErq1ojIAXpwmchPTHqOyvjtG_nyjlchwA35rdC3w9LFI-7oHtjV1BUykHEcrYo0s0yqTGdzcQ2i6C2Yik4FAJiztl4hJzQfJEXqYy8rS-sKmJ0UZZlOey-hMkRyQLGPxHev0h8QkMQ6iEQFV0Sz64B2LGjuuvHira1m0pmwXVwJ2QzH4PurPeIoy_cC3poV-XVcjFX7b1Llc8Qb-HAWVxFy2CxU7xUp-c8DJkUB0LDzhf4zbAaKsscGT19VdCJdWmOM27XGPRMN-H37a-Pt6iVntoqk4svbpH-6-42mhzFX-780oYyy4_1ivJG9Qwd5OXja0NyY5LPE3vpeDY0svmp4dL1Qh9GEEsojHVuwh0UrXlvyBwtnz-DWaO7-5dqOteIFU8Ri5LbOgf877Yg-uDNN__w7p1fIfcQqCkrQ7ZvjQgEqZf0bGD_OGB-tcDxLLDNaswN4XQzNbWbSRK2OCAgA7p-PKddFk-Ua4SNrfDhryn25ms2hYEkfTVGD]--></g></svg>