<svg xmlns="http://www.w3.org/2000/svg" xmlns:xlink="http://www.w3.org/1999/xlink" contentStyleType="text/css" data-diagram-type="ACTIVITY" height="2348px" preserveAspectRatio="none" style="width:1367px;height:2348px;background:#FFFFFF;" version="1.1" viewBox="0 0 1367 2348" width="1367px" zoomAndPan="magnify"><defs/><g><ellipse cx="863.083" cy="20" fill="#2FB344" rx="10" ry="10" style="stroke:#222222;stroke-width:1;"/><rect fill="none" height="557.6504" style="stroke:#000000;stroke-width:1.5;" width="601.0284" x="754.9843" y="40"/><path d="M843.664,40 L843.664,52.0679 L833.664,62.0679 L754.9843,62.0679" fill="none" style="stroke:#000000;stroke-width:1.5;"/><text fill="#000000" font-family="sans-serif" font-size="14" lengthAdjust="spacing" textLength="78.6797" x="757.9843" y="55.9659">Study Setup</text><path d="M961.2855,72.0679 L961.2855,161.598 L941.2855,165.598 L961.2855,169.598 L961.2855,259.1281 A0,0 0 0 0 961.2855,259.1281 L1202.3756,259.1281 A0,0 0 0 0 1202.3756,259.1281 L1202.3756,82.0679 L1192.3756,72.0679 L961.2855,72.0679 A0,0 0 0 0 961.2855,72.0679" fill="#FEFFDD" style="stroke:#181818;stroke-width:0.5;"/><path d="M1192.3756,72.0679 L1192.3756,82.0679 L1202.3756,82.0679 L1192.3756,72.0679" fill="#FEFFDD" style="stroke:#181818;stroke-width:0.5;"/><text fill="#000000" font-family="sans-serif" font-size="13" lengthAdjust="spacing" textLength="150.6311" x="967.2855" y="90.9649">class TrainingRunProfile:</text><text fill="#000000" font-family="sans-serif" font-size="13" lengthAdjust="spacing" textLength="102.4401" x="974.0455" y="108.6709">model_name: str</text><text fill="#000000" font-family="sans-serif" font-size="13" lengthAdjust="spacing" textLength="113.7501" x="974.0455" y="126.377">model_params: int</text><text fill="#000000" font-family="sans-serif" font-size="13" lengthAdjust="spacing" textLength="115.3361" x="974.0455" y="144.083">dataset_tokens: int</text><text fill="#000000" font-family="sans-serif" font-size="13" lengthAdjust="spacing" textLength="87.6071" x="974.0455" y="161.789">gpu_count: int</text><text fill="#000000" font-family="sans-serif" font-size="13" lengthAdjust="spacing" textLength="137.6311" x="974.0455" y="179.495">gpu_power_train: float</text><text fill="#000000" font-family="sans-serif" font-size="13" lengthAdjust="spacing" textLength="145.7691" x="974.0455" y="197.201">gpu_power_pause: float</text><text fill="#000000" font-family="sans-serif" font-size="13" lengthAdjust="spacing" textLength="57.9021" x="974.0455" y="214.907">pue: float</text><text fill="#000000" font-family="sans-serif" font-size="13" lengthAdjust="spacing" textLength="198.1722" x="974.0455" y="232.6131">checkpoint_overhead_time: float</text><text fill="#000000" font-family="sans-serif" font-size="13" lengthAdjust="spacing" textLength="213.3302" x="974.0455" y="250.3191">checkpoint_overhead_energy: float</text><rect fill="#F7F9FB" height="36.3441" rx="12.5" ry="12.5" style="stroke:#2E3A46;stroke-width:0.5;" width="156.405" x="784.8805" y="147.4259"/><text fill="#000000" font-family="sans-serif" font-size="12" lengthAdjust="spacing" textLength="136.405" x="794.8805" y="170.254">Load TrainingRunProfile</text><path d="M965.4975,269.1281 L965.4975,340.9521 L945.4975,344.9521 L965.4975,348.9521 L965.4975,420.7762 A0,0 0 0 0 965.4975,420.7762 L1346.0127,420.7762 A0,0 0 0 0 1346.0127,420.7762 L1346.0127,279.1281 L1336.0127,269.1281 L965.4975,269.1281 A0,0 0 0 0 965.4975,269.1281" fill="#FEFFDD" style="stroke:#181818;stroke-width:0.5;"/><path d="M1336.0127,269.1281 L1336.0127,279.1281 L1346.0127,279.1281 L1336.0127,269.1281" fill="#FEFFDD" style="stroke:#181818;stroke-width:0.5;"/><text fill="#000000" font-family="sans-serif" font-size="13" lengthAdjust="spacing" textLength="159.7571" x="971.4975" y="288.0251">class ScenarioParameters:</text><text fill="#000000" font-family="sans-serif" font-size="13" lengthAdjust="spacing" textLength="202.2672" x="978.2575" y="305.7311">region: str  # e.g., "DE", "ES", "FR"</text><text fill="#000000" font-family="sans-serif" font-size="13" lengthAdjust="spacing" textLength="123.2921" x="978.2575" y="323.4371">start_time: datetime</text><text fill="#000000" font-family="sans-serif" font-size="13" lengthAdjust="spacing" textLength="235.6642" x="978.2575" y="341.1431">pause_threshold: float  # gCO2eq/kWh</text><text fill="#000000" font-family="sans-serif" font-size="13" lengthAdjust="spacing" textLength="245.5052" x="978.2575" y="358.8492">hysteresis_margin: float  # gCO2eq/kWh</text><text fill="#000000" font-family="sans-serif" font-size="13" lengthAdjust="spacing" textLength="271.2193" x="978.2575" y="376.5552">pause_granularity: enum (Batch, Epoch, etc.)</text><text fill="#000000" font-family="sans-serif" font-size="13" lengthAdjust="spacing" textLength="181.7012" x="978.2575" y="394.2612">historical_year: int # e.g. 2024</text><text fill="#000000" font-family="sans-serif" font-size="13" lengthAdjust="spacing" textLength="352.7552" x="978.2575" y="411.9672">overhead_budget_pct: float # tolerance for time overhead</text><rect fill="#F7F9FB" height="36.3441" rx="12.5" ry="12.5" style="stroke:#2E3A46;stroke-width:0.5;" width="164.829" x="780.6685" y="326.7801"/><text fill="#000000" font-family="sans-serif" font-size="12" lengthAdjust="spacing" textLength="144.829" x="790.6685" y="349.6082">Load ScenarioParameters</text><path d="M981.1816,430.7762 L981.1816,476.0413 L961.1816,480.0413 L981.1816,484.0413 L981.1816,529.3063 A0,0 0 0 0 981.1816,529.3063 L1247.4138,529.3063 A0,0 0 0 0 1247.4138,529.3063 L1247.4138,440.7762 L1237.4138,430.7762 L981.1816,430.7762 A0,0 0 0 0 981.1816,430.7762" fill="#FEFFDD" style="stroke:#181818;stroke-width:0.5;"/><path d="M1237.4138,430.7762 L1237.4138,440.7762 L1247.4138,440.7762 L1237.4138,430.7762" fill="#FEFFDD" style="stroke:#181818;stroke-width:0.5;"/><text fill="#000000" font-family="sans-serif" font-size="13" lengthAdjust="spacing" textLength="183.1182" x="987.1816" y="449.6732">Example time point (CSV row):</text><text fill="#000000" font-family="sans-serif" font-size="13" lengthAdjust="spacing" textLength="229.1382" x="987.1816" y="467.3792">zone=DE, requested_day=2024-06-05,</text><text fill="#000000" font-family="sans-serif" font-size="13" lengthAdjust="spacing" textLength="236.7172" x="987.1816" y="485.0853">timestamp=2024-06-05T00:00:00.000Z,</text><text fill="#000000" font-family="sans-serif" font-size="13" lengthAdjust="spacing" textLength="245.2322" x="987.1816" y="502.7913">carbonIntensity=248, isEstimated=False,</text><text fill="#000000" font-family="sans-serif" font-size="13" lengthAdjust="spacing" textLength="120.1461" x="987.1816" y="520.4973">estimationMethod=</text><rect fill="#F7F9FB" height="52.6882" rx="12.5" ry="12.5" style="stroke:#2E3A46;stroke-width:0.5;" width="196.1973" x="764.9843" y="453.6971"/><text fill="#000000" font-family="sans-serif" font-size="12" lengthAdjust="spacing" textLength="149.0891" x="774.9843" y="476.5252">Fetch GridData time series</text><text fill="#000000" font-family="sans-serif" font-size="12" lengthAdjust="spacing" textLength="176.1973" x="774.9843" y="492.8693">for the selected region/window</text><rect fill="#F7F9FB" height="36.3441" rx="12.5" ry="12.5" style="stroke:#2E3A46;stroke-width:0.5;" width="180.8131" x="772.6764" y="549.3063"/><text fill="#000000" font-family="sans-serif" font-size="12" lengthAdjust="spacing" textLength="160.8131" x="782.6764" y="572.1344">Validate data availability flag</text><polygon fill="#FFF3BF" points="824.3027,617.6504,901.8632,617.6504,913.8632,629.6504,901.8632,641.6504,824.3027,641.6504,812.3027,629.6504,824.3027,617.6504" style="stroke:#B08900;stroke-width:0.5;"/><text fill="#000000" font-family="sans-serif" font-size="11" lengthAdjust="spacing" textLength="77.5605" x="824.3027" y="633.9184">Data available?</text><text fill="#000000" font-family="sans-serif" font-size="11" lengthAdjust="spacing" textLength="17.0829" x="795.2199" y="626.4274">yes</text><text fill="#000000" font-family="sans-serif" font-size="11" lengthAdjust="spacing" textLength="13.4529" x="913.8632" y="626.4274">no</text><rect fill="none" height="180.7561" style="stroke:#000000;stroke-width:1.5;" width="199.4932" x="514.1377" y="651.6504"/><path d="M643.2772,651.6504 L643.2772,663.7183 L633.2772,673.7183 L514.1377,673.7183" fill="none" style="stroke:#000000;stroke-width:1.5;"/><text fill="#000000" font-family="sans-serif" font-size="14" lengthAdjust="spacing" textLength="119.1395" x="517.1377" y="667.6163">Simulation Engine</text><rect fill="#F7F9FB" height="36.3441" rx="12.5" ry="12.5" style="stroke:#2E3A46;stroke-width:0.5;" width="130.7128" x="548.5279" y="690.7183"/><text fill="#000000" font-family="sans-serif" font-size="12" lengthAdjust="spacing" textLength="110.7128" x="558.5279" y="713.5464">Initialize Simulation</text><rect fill="#F7F9FB" height="52.6882" rx="12.5" ry="12.5" style="stroke:#2E3A46;stroke-width:0.5;" width="179.4932" x="524.1377" y="762.0624"/><text fill="#000000" font-family="sans-serif" font-size="12" lengthAdjust="spacing" textLength="159.4932" x="534.1377" y="784.8905">Compute baseline reference</text><text fill="#000000" font-family="sans-serif" font-size="12" lengthAdjust="spacing" textLength="146.641" x="534.1377" y="801.2346">for uninterrupted training</text><rect fill="none" height="87.412" style="stroke:#000000;stroke-width:1.5;" width="156.5328" x="535.6178" y="886.4066"/><path d="M621.2735,886.4066 L621.2735,898.4745 L611.2735,908.4745 L535.6178,908.4745" fill="none" style="stroke:#000000;stroke-width:1.5;"/><text fill="#000000" font-family="sans-serif" font-size="14" lengthAdjust="spacing" textLength="75.6557" x="538.6178" y="902.3725">Grid Replay</text><rect fill="#F7F9FB" height="36.3441" rx="12.5" ry="12.5" style="stroke:#2E3A46;stroke-width:0.5;" width="136.5328" x="545.6178" y="925.4745"/><text fill="#000000" font-family="sans-serif" font-size="12" lengthAdjust="spacing" textLength="116.5328" x="555.6178" y="948.3026">Read co2_intensity(t)</text><polygon fill="#FFF3BF" points="573.9215,993.8186,653.847,993.8186,665.847,1005.8186,653.847,1017.8186,573.9215,1017.8186,561.9215,1005.8186,573.9215,993.8186" style="stroke:#B08900;stroke-width:0.5;"/><text fill="#000000" font-family="sans-serif" font-size="11" lengthAdjust="spacing" textLength="79.9255" x="573.9215" y="1010.0866">Grid data valid?</text><text fill="#000000" font-family="sans-serif" font-size="11" lengthAdjust="spacing" textLength="17.0829" x="544.8386" y="1002.5956">yes</text><text fill="#000000" font-family="sans-serif" font-size="11" lengthAdjust="spacing" textLength="13.4529" x="665.847" y="1002.5956">no</text><rect fill="none" height="414.4444" style="stroke:#000000;stroke-width:1.5;" width="709.1239" x="11" y="1027.8186"/><path d="M111.5517,1027.8186 L111.5517,1039.8865 L101.5517,1049.8865 L11,1049.8865" fill="none" style="stroke:#000000;stroke-width:1.5;"/><text fill="#000000" font-family="sans-serif" font-size="14" lengthAdjust="spacing" textLength="90.5517" x="14" y="1043.7845">Policy Control</text><rect fill="#F7F9FB" height="36.3441" rx="12.5" ry="12.5" style="stroke:#2E3A46;stroke-width:0.5;" width="180.0571" x="280.7573" y="1066.8865"/><text fill="#000000" font-family="sans-serif" font-size="12" lengthAdjust="spacing" textLength="160.0571" x="290.7573" y="1089.7146">Evaluate PauseResumeLogic</text><polygon fill="#FFF3BF" points="291.801,1138.2306,449.7708,1138.2306,461.7708,1150.2306,449.7708,1162.2306,291.801,1162.2306,279.801,1150.2306,291.801,1138.2306" style="stroke:#B08900;stroke-width:0.5;"/><text fill="#000000" font-family="sans-serif" font-size="11" lengthAdjust="spacing" textLength="157.9698" x="291.801" y="1154.4986">co2_intensity(t) &gt; theta_pause?</text><text fill="#000000" font-family="sans-serif" font-size="11" lengthAdjust="spacing" textLength="31.2068" x="248.5942" y="1147.0076">pause</text><text fill="#000000" font-family="sans-serif" font-size="11" lengthAdjust="spacing" textLength="45.3417" x="461.7708" y="1147.0076">continue</text><polygon fill="#FFF3BF" points="121.6905,1172.2306,274.4134,1172.2306,286.4134,1184.2306,274.4134,1196.2306,121.6905,1196.2306,109.6905,1184.2306,121.6905,1172.2306" style="stroke:#B08900;stroke-width:0.5;"/><text fill="#000000" font-family="sans-serif" font-size="11" lengthAdjust="spacing" textLength="152.7229" x="121.6905" y="1188.4986">At allowed pause granularity?</text><text fill="#000000" font-family="sans-serif" font-size="11" lengthAdjust="spacing" textLength="17.0829" x="92.6076" y="1181.0076">yes</text><text fill="#000000" font-family="sans-serif" font-size="11" lengthAdjust="spacing" textLength="13.4529" x="286.4134" y="1181.0076">no</text><rect fill="#F7F9FB" height="36.3441" rx="12.5" ry="12.5" style="stroke:#2E3A46;stroke-width:0.5;" width="145.6409" x="26.87" y="1206.2306"/><text fill="#000000" font-family="sans-serif" font-size="12" lengthAdjust="spacing" textLength="125.6409" x="36.87" y="1229.0587">Trigger Checkpointing</text><rect fill="#F7F9FB" height="36.3441" rx="12.5" ry="12.5" style="stroke:#2E3A46;stroke-width:0.5;" width="132.9808" x="33.2001" y="1277.5747"/><text fill="#000000" font-family="sans-serif" font-size="12" lengthAdjust="spacing" textLength="112.9808" x="43.2001" y="1300.4028">Set is_paused = true</text><rect fill="#F7F9FB" height="36.3441" rx="12.5" ry="12.5" style="stroke:#2E3A46;stroke-width:0.5;" width="153.3809" x="23" y="1333.9188"/><text fill="#000000" font-family="sans-serif" font-size="12" lengthAdjust="spacing" textLength="133.3809" x="33" y="1356.7469">Increment pause_count</text><rect fill="#F7F9FB" height="52.6882" rx="12.5" ry="12.5" style="stroke:#2E3A46;stroke-width:0.5;" width="145.0049" x="223.9109" y="1206.2306"/><text fill="#000000" font-family="sans-serif" font-size="12" lengthAdjust="spacing" textLength="125.0049" x="233.9109" y="1229.0587">Defer pause until next</text><text fill="#000000" font-family="sans-serif" font-size="12" lengthAdjust="spacing" textLength="119.3768" x="233.9109" y="1245.4028">checkpoint boundary</text><polygon fill="#FFF3BF" points="198.0519,1376.263,210.0519,1388.263,198.0519,1400.263,186.0519,1388.263,198.0519,1376.263" style="stroke:#B08900;stroke-width:0.5;"/><rect fill="#F7F9FB" height="36.3441" rx="12.5" ry="12.5" style="stroke:#2E3A46;stroke-width:0.5;" width="135.9808" x="475.5294" y="1221.7216"/><text fill="#000000" font-family="sans-serif" font-size="12" lengthAdjust="spacing" textLength="115.9808" x="485.5294" y="1244.5497">Set is_paused = false</text><polygon fill="#FFF3BF" points="410.9158,1172.2306,676.1239,1172.2306,688.1239,1184.2306,676.1239,1196.2306,410.9158,1196.2306,398.9158,1184.2306,410.9158,1172.2306" style="stroke:#B08900;stroke-width:0.5;"/><text fill="#000000" font-family="sans-serif" font-size="11" lengthAdjust="spacing" textLength="39.3027" x="547.5199" y="1207.9895">resume</text><text fill="#000000" font-family="sans-serif" font-size="11" lengthAdjust="spacing" textLength="265.2081" x="410.9158" y="1188.4986">is_paused and co2_intensity(t) &lt; resume_threshold?</text><polygon fill="#FFF3BF" points="543.5199,1283.5566,555.5199,1295.5566,543.5199,1307.5566,531.5199,1295.5566,543.5199,1283.5566" style="stroke:#B08900;stroke-width:0.5;"/><polygon fill="#FFF3BF" points="370.7859,1406.263,382.7859,1418.263,370.7859,1430.263,358.7859,1418.263,370.7859,1406.263" style="stroke:#B08900;stroke-width:0.5;"/><rect fill="none" height="336.7885" style="stroke:#000000;stroke-width:1.5;" width="443.2504" x="152.6107" y="1452.263"/><path d="M281.7502,1452.263 L281.7502,1464.3309 L271.7502,1474.3309 L152.6107,1474.3309" fill="none" style="stroke:#000000;stroke-width:1.5;"/><text fill="#000000" font-family="sans-serif" font-size="14" lengthAdjust="spacing" textLength="119.1395" x="155.6107" y="1468.2289">Simulation Engine</text><polygon fill="#FFF3BF" points="342.9176,1491.3309,398.6542,1491.3309,410.6542,1503.3309,398.6542,1515.3309,342.9176,1515.3309,330.9176,1503.3309,342.9176,1491.3309" style="stroke:#B08900;stroke-width:0.5;"/><text fill="#000000" font-family="sans-serif" font-size="11" lengthAdjust="spacing" textLength="55.7366" x="342.9176" y="1507.5988">is_paused?</text><text fill="#000000" font-family="sans-serif" font-size="11" lengthAdjust="spacing" textLength="17.0829" x="313.8347" y="1500.1079">yes</text><text fill="#000000" font-family="sans-serif" font-size="11" lengthAdjust="spacing" textLength="13.4529" x="410.6542" y="1500.1079">no</text><rect fill="#F7F9FB" height="36.3441" rx="12.5" ry="12.5" style="stroke:#2E3A46;stroke-width:0.5;" width="184.7252" x="172.6107" y="1525.3309"/><text fill="#000000" font-family="sans-serif" font-size="12" lengthAdjust="spacing" textLength="164.7252" x="182.6107" y="1548.159">Accumulate paused wall time</text><rect fill="#F7F9FB" height="52.6882" rx="12.5" ry="12.5" style="stroke:#2E3A46;stroke-width:0.5;" width="172.0051" x="178.9708" y="1581.675"/><text fill="#000000" font-family="sans-serif" font-size="12" lengthAdjust="spacing" textLength="143.677" x="188.9708" y="1604.5031">Add paused energy using</text><text fill="#000000" font-family="sans-serif" font-size="12" lengthAdjust="spacing" textLength="152.0051" x="188.9708" y="1620.8472">gpu_power_pause and pue</text><rect fill="#F7F9FB" height="36.3441" rx="12.5" ry="12.5" style="stroke:#2E3A46;stroke-width:0.5;" width="193.6892" x="379.7539" y="1525.3309"/><text fill="#000000" font-family="sans-serif" font-size="12" lengthAdjust="spacing" textLength="173.6892" x="389.7539" y="1548.159">Advance training_progress_pct</text><rect fill="#F7F9FB" height="52.6882" rx="12.5" ry="12.5" style="stroke:#2E3A46;stroke-width:0.5;" width="164.493" x="394.352" y="1581.675"/><text fill="#000000" font-family="sans-serif" font-size="12" lengthAdjust="spacing" textLength="135.037" x="404.352" y="1604.5031">Add active energy using</text><text fill="#000000" font-family="sans-serif" font-size="12" lengthAdjust="spacing" textLength="144.493" x="404.352" y="1620.8472">gpu_power_train and pue</text><rect fill="#F7F9FB" height="36.3441" rx="12.5" ry="12.5" style="stroke:#2E3A46;stroke-width:0.5;" width="198.5253" x="377.3359" y="1654.3632"/><text fill="#000000" font-family="sans-serif" font-size="12" lengthAdjust="spacing" textLength="178.5253" x="387.3359" y="1677.1913">Update accumulated_emissions</text><polygon fill="#FFF3BF" points="370.7859,1696.7073,382.7859,1708.7073,370.7859,1720.7073,358.7859,1708.7073,370.7859,1696.7073" style="stroke:#B08900;stroke-width:0.5;"/><rect fill="#F7F9FB" height="36.3441" rx="12.5" ry="12.5" style="stroke:#2E3A46;stroke-width:0.5;" width="204.6933" x="268.4392" y="1740.7073"/><text fill="#000000" font-family="sans-serif" font-size="12" lengthAdjust="spacing" textLength="184.6933" x="278.4392" y="1763.5354">Advance elapsed_wall_time by dt</text><rect fill="none" height="183.1003" style="stroke:#000000;stroke-width:1.5;" width="233.7174" x="740.1239" y="1027.8186"/><path d="M869.2634,1027.8186 L869.2634,1039.8865 L859.2634,1049.8865 L740.1239,1049.8865" fill="none" style="stroke:#000000;stroke-width:1.5;"/><text fill="#000000" font-family="sans-serif" font-size="14" lengthAdjust="spacing" textLength="119.1395" x="743.1239" y="1043.7845">Simulation Engine</text><rect fill="#F7F9FB" height="52.6882" rx="12.5" ry="12.5" style="stroke:#2E3A46;stroke-width:0.5;" width="190.7732" x="761.596" y="1066.8865"/><text fill="#000000" font-family="sans-serif" font-size="12" lengthAdjust="spacing" textLength="170.7732" x="771.596" y="1089.7146">Handle missing or invalid data</text><text fill="#000000" font-family="sans-serif" font-size="12" lengthAdjust="spacing" textLength="102.8647" x="771.596" y="1106.0587">using fallback rule</text><rect fill="#F7F9FB" height="36.3441" rx="12.5" ry="12.5" style="stroke:#2E3A46;stroke-width:0.5;" width="213.7174" x="750.1239" y="1154.5747"/><text fill="#000000" font-family="sans-serif" font-size="12" lengthAdjust="spacing" textLength="193.7174" x="760.1239" y="1177.4028">Advance simulation conservatively</text><polygon fill="#FFF3BF" points="613.8842,1795.0515,625.8842,1807.0515,613.8842,1819.0515,601.8842,1807.0515,613.8842,1795.0515" style="stroke:#B08900;stroke-width:0.5;"/><polygon fill="#FFF3BF" points="613.8842,852.4066,625.8842,864.4066,613.8842,876.4066,601.8842,864.4066,613.8842,852.4066" style="stroke:#B08900;stroke-width:0.5;"/><polygon fill="#FFF3BF" points="537.6108,1839.0515,690.1577,1839.0515,702.1577,1851.0515,690.1577,1863.0515,537.6108,1863.0515,525.6108,1851.0515,537.6108,1839.0515" style="stroke:#B08900;stroke-width:0.5;"/><text fill="#000000" font-family="sans-serif" font-size="11" lengthAdjust="spacing" textLength="13.4529" x="617.8842" y="1874.8104">no</text><text fill="#000000" font-family="sans-serif" font-size="11" lengthAdjust="spacing" textLength="152.5469" x="537.6108" y="1855.3194">training_progress_pct &lt; 100%</text><text fill="#000000" font-family="sans-serif" font-size="11" lengthAdjust="spacing" textLength="17.0829" x="702.1577" y="1847.8285">yes</text><rect fill="none" height="409.4767" style="stroke:#000000;stroke-width:1.5;" width="469.5713" x="381.7266" y="1886.3104"/><path d="M445.3884,1886.3104 L445.3884,1898.3783 L435.3884,1908.3783 L381.7266,1908.3783" fill="none" style="stroke:#000000;stroke-width:1.5;"/><text fill="#000000" font-family="sans-serif" font-size="14" lengthAdjust="spacing" textLength="53.6618" x="384.7266" y="1902.2763">Outputs</text><rect fill="#F7F9FB" height="36.3441" rx="12.5" ry="12.5" style="stroke:#2E3A46;stroke-width:0.5;" width="169.2451" x="529.2617" y="1925.3783"/><text fill="#000000" font-family="sans-serif" font-size="12" lengthAdjust="spacing" textLength="149.2451" x="539.2617" y="1948.2064">Compute CO2_savings_pct</text><rect fill="#F7F9FB" height="36.3441" rx="12.5" ry="12.5" style="stroke:#2E3A46;stroke-width:0.5;" width="182.0011" x="522.8837" y="1981.7224"/><text fill="#000000" font-family="sans-serif" font-size="12" lengthAdjust="spacing" textLength="162.0011" x="532.8837" y="2004.5505">Compute time_overhead_pct</text><rect fill="#F7F9FB" height="36.3441" rx="12.5" ry="12.5" style="stroke:#2E3A46;stroke-width:0.5;" width="105.5726" x="561.0979" y="2038.0665"/><text fill="#000000" font-family="sans-serif" font-size="12" lengthAdjust="spacing" textLength="85.5726" x="571.0979" y="2060.8946">Compute score</text><polygon fill="#FFF3BF" points="497.3511,2094.4106,730.4174,2094.4106,742.4174,2106.4106,730.4174,2118.4106,497.3511,2118.4106,485.3511,2106.4106,497.3511,2094.4106" style="stroke:#B08900;stroke-width:0.5;"/><text fill="#000000" font-family="sans-serif" font-size="11" lengthAdjust="spacing" textLength="233.0663" x="497.3511" y="2110.6786">time_overhead_pct &lt;= overhead_budget_pct?</text><text fill="#000000" font-family="sans-serif" font-size="11" lengthAdjust="spacing" textLength="17.0829" x="468.2682" y="2103.1876">yes</text><text fill="#000000" font-family="sans-serif" font-size="11" lengthAdjust="spacing" textLength="13.4529" x="742.4174" y="2103.1876">no</text><rect fill="#F7F9FB" height="36.3441" rx="12.5" ry="12.5" style="stroke:#2E3A46;stroke-width:0.5;" width="147.2489" x="401.7266" y="2128.4106"/><text fill="#000000" font-family="sans-serif" font-size="12" lengthAdjust="spacing" textLength="127.2489" x="411.7266" y="2151.2387">Mark policy as feasible</text><rect fill="#F7F9FB" height="36.3441" rx="12.5" ry="12.5" style="stroke:#2E3A46;stroke-width:0.5;" width="157.761" x="673.5369" y="2128.4106"/><text fill="#000000" font-family="sans-serif" font-size="12" lengthAdjust="spacing" textLength="137.761" x="683.5369" y="2151.2387">Mark policy as infeasible</text><polygon fill="#FFF3BF" points="613.8842,2170.7547,625.8842,2182.7547,613.8842,2194.7547,601.8842,2182.7547,613.8842,2170.7547" style="stroke:#B08900;stroke-width:0.5;"/><rect fill="#F7F9FB" height="69.0323" rx="12.5" ry="12.5" style="stroke:#2E3A46;stroke-width:0.5;" width="185.4092" x="521.1796" y="2214.7547"/><text fill="#000000" font-family="sans-serif" font-size="12" lengthAdjust="spacing" textLength="163.0092" x="531.1796" y="2237.5828">Store Results for comparison</text><text fill="#000000" font-family="sans-serif" font-size="12" lengthAdjust="spacing" textLength="151.6211" x="531.1796" y="2253.9269">across thresholds, regions,</text><text fill="#000000" font-family="sans-serif" font-size="12" lengthAdjust="spacing" textLength="165.4092" x="531.1796" y="2270.2711">start times, and architectures</text><ellipse cx="613.8842" cy="2326.7871" fill="none" rx="11" ry="11" style="stroke:#222222;stroke-width:1;"/><ellipse cx="613.8842" cy="2326.7871" fill="#222222" rx="6" ry="6" style="stroke:#222222;stroke-width:1;"/><rect fill="none" height="111.7561" style="stroke:#000000;stroke-width:1.5;" width="168.8809" x="1027.8413" y="651.6504"/><path d="M1091.5031,651.6504 L1091.5031,663.7183 L1081.5031,673.7183 L1027.8413,673.7183" fill="none" style="stroke:#000000;stroke-width:1.5;"/><text fill="#000000" font-family="sans-serif" font-size="14" lengthAdjust="spacing" textLength="53.6618" x="1030.8413" y="667.6163">Outputs</text><rect fill="#F7F9FB" height="52.6882" rx="12.5" ry="12.5" style="stroke:#2E3A46;stroke-width:0.5;" width="148.8809" x="1037.8413" y="690.7183"/><text fill="#000000" font-family="sans-serif" font-size="12" lengthAdjust="spacing" textLength="117.9249" x="1047.8413" y="713.5464">Abort run and report</text><text fill="#000000" font-family="sans-serif" font-size="12" lengthAdjust="spacing" textLength="128.8809" x="1047.8413" y="729.8905">missing-data condition</text><ellipse cx="1112.2817" cy="809.4066" fill="none" rx="11" ry="11" style="stroke:#222222;stroke-width:1;"/><ellipse cx="1112.2817" cy="809.4066" fill="#222222" rx="6" ry="6" style="stroke:#222222;stroke-width:1;"/><line style="stroke:#181818;stroke-width:1;" x1="863.083" x2="863.083" y1="183.7701" y2="326.7801"/><polygon fill="#181818" points="859.083,316.7801,863.083,326.7801,867.083,316.7801,863.083,320.7801" style="stroke:#181818;stroke-width:1;"/><line style="stroke:#181818;stroke-width:1;" x1="863.083" x2="863.083" y1="363.1242" y2="453.6971"/><polygon fill="#181818" points="859.083,443.6971,863.083,453.6971,867.083,443.6971,863.083,447.6971" style="stroke:#181818;stroke-width:1;"/><line style="stroke:#181818;stroke-width:1;" x1="863.083" x2="863.083" y1="506.3854" y2="549.3063"/><polygon fill="#181818" points="859.083,539.3063,863.083,549.3063,867.083,539.3063,863.083,543.3063" style="stroke:#181818;stroke-width:1;"/><line style="stroke:#181818;stroke-width:1;" x1="863.083" x2="863.083" y1="30" y2="147.4259"/><polygon fill="#181818" points="859.083,137.4259,863.083,147.4259,867.083,137.4259,863.083,141.4259" style="stroke:#181818;stroke-width:1;"/><line style="stroke:#181818;stroke-width:1;" x1="613.8842" x2="613.8842" y1="727.0624" y2="762.0624"/><polygon fill="#181818" points="609.8842,752.0624,613.8842,762.0624,617.8842,752.0624,613.8842,756.0624" style="stroke:#181818;stroke-width:1;"/><line style="stroke:#181818;stroke-width:1;" x1="99.6905" x2="99.6905" y1="1242.5747" y2="1277.5747"/><polygon fill="#181818" points="95.6905,1267.5747,99.6905,1277.5747,103.6905,1267.5747,99.6905,1271.5747" style="stroke:#181818;stroke-width:1;"/><line style="stroke:#181818;stroke-width:1;" x1="99.6905" x2="99.6905" y1="1313.9188" y2="1333.9188"/><polygon fill="#181818" points="95.6905,1323.9188,99.6905,1333.9188,103.6905,1323.9188,99.6905,1327.9188" style="stroke:#181818;stroke-width:1;"/><line style="stroke:#181818;stroke-width:1;" x1="109.6905" x2="99.6905" y1="1184.2306" y2="1184.2306"/><line style="stroke:#181818;stroke-width:1;" x1="99.6905" x2="99.6905" y1="1184.2306" y2="1206.2306"/><polygon fill="#181818" points="95.6905,1196.2306,99.6905,1206.2306,103.6905,1196.2306,99.6905,1200.2306" style="stroke:#181818;stroke-width:1;"/><line style="stroke:#181818;stroke-width:1;" x1="286.4134" x2="296.4134" y1="1184.2306" y2="1184.2306"/><line style="stroke:#181818;stroke-width:1;" x1="296.4134" x2="296.4134" y1="1184.2306" y2="1206.2306"/><polygon fill="#181818" points="292.4134,1196.2306,296.4134,1206.2306,300.4134,1196.2306,296.4134,1200.2306" style="stroke:#181818;stroke-width:1;"/><line style="stroke:#181818;stroke-width:1;" x1="99.6905" x2="99.6905" y1="1370.263" y2="1388.263"/><line style="stroke:#181818;stroke-width:1;" x1="99.6905" x2="186.0519" y1="1388.263" y2="1388.263"/><polygon fill="#181818" points="176.0519,1384.263,186.0519,1388.263,176.0519,1392.263,180.0519,1388.263" style="stroke:#181818;stroke-width:1;"/><line style="stroke:#181818;stroke-width:1;" x1="296.4134" x2="296.4134" y1="1258.9188" y2="1388.263"/><line style="stroke:#181818;stroke-width:1;" x1="296.4134" x2="210.0519" y1="1388.263" y2="1388.263"/><polygon fill="#181818" points="220.0519,1384.263,210.0519,1388.263,220.0519,1392.263,216.0519,1388.263" style="stroke:#181818;stroke-width:1;"/><line style="stroke:#181818;stroke-width:1;" x1="543.5199" x2="543.5199" y1="1196.2306" y2="1221.7216"/><polygon fill="#181818" points="539.5199,1211.7216,543.5199,1221.7216,547.5199,1211.7216,543.5199,1215.7216" style="stroke:#181818;stroke-width:1;"/><line style="stroke:#181818;stroke-width:1;" x1="688.1239" x2="700.1239" y1="1184.2306" y2="1184.2306"/><polygon fill="#181818" points="696.1239,1229.8936,700.1239,1239.8936,704.1239,1229.8936,700.1239,1233.8936" style="stroke:#181818;stroke-width:1;"/><line style="stroke:#181818;stroke-width:1;" x1="700.1239" x2="700.1239" y1="1184.2306" y2="1295.5566"/><line style="stroke:#181818;stroke-width:1;" x1="700.1239" x2="555.5199" y1="1295.5566" y2="1295.5566"/><polygon fill="#181818" points="565.5199,1291.5566,555.5199,1295.5566,565.5199,1299.5566,561.5199,1295.5566" style="stroke:#181818;stroke-width:1;"/><line style="stroke:#181818;stroke-width:1;" x1="543.5199" x2="543.5199" y1="1258.0657" y2="1283.5566"/><polygon fill="#181818" points="539.5199,1273.5566,543.5199,1283.5566,547.5199,1273.5566,543.5199,1277.5566" style="stroke:#181818;stroke-width:1;"/><line style="stroke:#181818;stroke-width:1;" x1="279.801" x2="198.0519" y1="1150.2306" y2="1150.2306"/><line style="stroke:#181818;stroke-width:1;" x1="198.0519" x2="198.0519" y1="1150.2306" y2="1172.2306"/><polygon fill="#181818" points="194.0519,1162.2306,198.0519,1172.2306,202.0519,1162.2306,198.0519,1166.2306" style="stroke:#181818;stroke-width:1;"/><line style="stroke:#181818;stroke-width:1;" x1="461.7708" x2="543.5199" y1="1150.2306" y2="1150.2306"/><line style="stroke:#181818;stroke-width:1;" x1="543.5199" x2="543.5199" y1="1150.2306" y2="1172.2306"/><polygon fill="#181818" points="539.5199,1162.2306,543.5199,1172.2306,547.5199,1162.2306,543.5199,1166.2306" style="stroke:#181818;stroke-width:1;"/><line style="stroke:#181818;stroke-width:1;" x1="198.0519" x2="198.0519" y1="1400.263" y2="1418.263"/><line style="stroke:#181818;stroke-width:1;" x1="198.0519" x2="358.7859" y1="1418.263" y2="1418.263"/><polygon fill="#181818" points="348.7859,1414.263,358.7859,1418.263,348.7859,1422.263,352.7859,1418.263" style="stroke:#181818;stroke-width:1;"/><line style="stroke:#181818;stroke-width:1;" x1="543.5199" x2="543.5199" y1="1307.5566" y2="1418.263"/><line style="stroke:#181818;stroke-width:1;" x1="543.5199" x2="382.7859" y1="1418.263" y2="1418.263"/><polygon fill="#181818" points="392.7859,1414.263,382.7859,1418.263,392.7859,1422.263,388.7859,1418.263" style="stroke:#181818;stroke-width:1;"/><line style="stroke:#181818;stroke-width:1;" x1="370.7859" x2="370.7859" y1="1103.2306" y2="1138.2306"/><polygon fill="#181818" points="366.7859,1128.2306,370.7859,1138.2306,374.7859,1128.2306,370.7859,1132.2306" style="stroke:#181818;stroke-width:1;"/><line style="stroke:#181818;stroke-width:1;" x1="264.9733" x2="264.9733" y1="1561.675" y2="1581.675"/><polygon fill="#181818" points="260.9733,1571.675,264.9733,1581.675,268.9733,1571.675,264.9733,1575.675" style="stroke:#181818;stroke-width:1;"/><line style="stroke:#181818;stroke-width:1;" x1="476.5985" x2="476.5985" y1="1561.675" y2="1581.675"/><polygon fill="#181818" points="472.5985,1571.675,476.5985,1581.675,480.5985,1571.675,476.5985,1575.675" style="stroke:#181818;stroke-width:1;"/><line style="stroke:#181818;stroke-width:1;" x1="476.5985" x2="476.5985" y1="1634.3632" y2="1654.3632"/><polygon fill="#181818" points="472.5985,1644.3632,476.5985,1654.3632,480.5985,1644.3632,476.5985,1648.3632" style="stroke:#181818;stroke-width:1;"/><line style="stroke:#181818;stroke-width:1;" x1="330.9176" x2="264.9733" y1="1503.3309" y2="1503.3309"/><line style="stroke:#181818;stroke-width:1;" x1="264.9733" x2="264.9733" y1="1503.3309" y2="1525.3309"/><polygon fill="#181818" points="260.9733,1515.3309,264.9733,1525.3309,268.9733,1515.3309,264.9733,1519.3309" style="stroke:#181818;stroke-width:1;"/><line style="stroke:#181818;stroke-width:1;" x1="410.6542" x2="476.5985" y1="1503.3309" y2="1503.3309"/><line style="stroke:#181818;stroke-width:1;" x1="476.5985" x2="476.5985" y1="1503.3309" y2="1525.3309"/><polygon fill="#181818" points="472.5985,1515.3309,476.5985,1525.3309,480.5985,1515.3309,476.5985,1519.3309" style="stroke:#181818;stroke-width:1;"/><line style="stroke:#181818;stroke-width:1;" x1="264.9733" x2="264.9733" y1="1634.3632" y2="1708.7073"/><line style="stroke:#181818;stroke-width:1;" x1="264.9733" x2="358.7859" y1="1708.7073" y2="1708.7073"/><polygon fill="#181818" points="348.7859,1704.7073,358.7859,1708.7073,348.7859,1712.7073,352.7859,1708.7073" style="stroke:#181818;stroke-width:1;"/><line style="stroke:#181818;stroke-width:1;" x1="476.5985" x2="476.5985" y1="1690.7073" y2="1708.7073"/><line style="stroke:#181818;stroke-width:1;" x1="476.5985" x2="382.7859" y1="1708.7073" y2="1708.7073"/><polygon fill="#181818" points="392.7859,1704.7073,382.7859,1708.7073,392.7859,1712.7073,388.7859,1708.7073" style="stroke:#181818;stroke-width:1;"/><line style="stroke:#181818;stroke-width:1;" x1="370.7859" x2="370.7859" y1="1720.7073" y2="1740.7073"/><polygon fill="#181818" points="366.7859,1730.7073,370.7859,1740.7073,374.7859,1730.7073,370.7859,1734.7073" style="stroke:#181818;stroke-width:1;"/><line style="stroke:#181818;stroke-width:1;" x1="370.7859" x2="370.7859" y1="1430.263" y2="1491.3309"/><polygon fill="#181818" points="366.7859,1481.3309,370.7859,1491.3309,374.7859,1481.3309,370.7859,1485.3309" style="stroke:#181818;stroke-width:1;"/><line style="stroke:#181818;stroke-width:1;" x1="856.9826" x2="856.9826" y1="1119.5747" y2="1154.5747"/><polygon fill="#181818" points="852.9826,1144.5747,856.9826,1154.5747,860.9826,1144.5747,856.9826,1148.5747" style="stroke:#181818;stroke-width:1;"/><line style="stroke:#181818;stroke-width:1;" x1="561.9215" x2="370.7859" y1="1005.8186" y2="1005.8186"/><line style="stroke:#181818;stroke-width:1;" x1="370.7859" x2="370.7859" y1="1005.8186" y2="1066.8865"/><polygon fill="#181818" points="366.7859,1056.8865,370.7859,1066.8865,374.7859,1056.8865,370.7859,1060.8865" style="stroke:#181818;stroke-width:1;"/><line style="stroke:#181818;stroke-width:1;" x1="665.847" x2="856.9826" y1="1005.8186" y2="1005.8186"/><line style="stroke:#181818;stroke-width:1;" x1="856.9826" x2="856.9826" y1="1005.8186" y2="1066.8865"/><polygon fill="#181818" points="852.9826,1056.8865,856.9826,1066.8865,860.9826,1056.8865,856.9826,1060.8865" style="stroke:#181818;stroke-width:1;"/><line style="stroke:#181818;stroke-width:1;" x1="370.7859" x2="370.7859" y1="1777.0515" y2="1807.0515"/><line style="stroke:#181818;stroke-width:1;" x1="370.7859" x2="601.8842" y1="1807.0515" y2="1807.0515"/><polygon fill="#181818" points="591.8842,1803.0515,601.8842,1807.0515,591.8842,1811.0515,595.8842,1807.0515" style="stroke:#181818;stroke-width:1;"/><line style="stroke:#181818;stroke-width:1;" x1="856.9826" x2="856.9826" y1="1190.9188" y2="1807.0515"/><line style="stroke:#181818;stroke-width:1;" x1="856.9826" x2="625.8842" y1="1807.0515" y2="1807.0515"/><polygon fill="#181818" points="635.8842,1803.0515,625.8842,1807.0515,635.8842,1811.0515,631.8842,1807.0515" style="stroke:#181818;stroke-width:1;"/><line style="stroke:#181818;stroke-width:1;" x1="613.8842" x2="613.8842" y1="961.8186" y2="993.8186"/><polygon fill="#181818" points="609.8842,983.8186,613.8842,993.8186,617.8842,983.8186,613.8842,987.8186" style="stroke:#181818;stroke-width:1;"/><line style="stroke:#181818;stroke-width:1;" x1="613.8842" x2="613.8842" y1="876.4066" y2="925.4745"/><polygon fill="#181818" points="609.8842,915.4745,613.8842,925.4745,617.8842,915.4745,613.8842,919.4745" style="stroke:#181818;stroke-width:1;"/><line style="stroke:#181818;stroke-width:1;" x1="702.1577" x2="995.8413" y1="1851.0515" y2="1851.0515"/><polygon fill="#181818" points="991.8413,1386.729,995.8413,1376.729,999.8413,1386.729,995.8413,1382.729" style="stroke:#181818;stroke-width:1;"/><line style="stroke:#181818;stroke-width:1;" x1="995.8413" x2="995.8413" y1="864.4066" y2="1851.0515"/><line style="stroke:#181818;stroke-width:1;" x1="995.8413" x2="625.8842" y1="864.4066" y2="864.4066"/><polygon fill="#181818" points="635.8842,860.4066,625.8842,864.4066,635.8842,868.4066,631.8842,864.4066" style="stroke:#181818;stroke-width:1;"/><line style="stroke:#181818;stroke-width:1;" x1="613.8842" x2="613.8842" y1="1819.0515" y2="1839.0515"/><polygon fill="#181818" points="609.8842,1829.0515,613.8842,1839.0515,617.8842,1829.0515,613.8842,1833.0515" style="stroke:#181818;stroke-width:1;"/><line style="stroke:#181818;stroke-width:1;" x1="613.8842" x2="613.8842" y1="814.7507" y2="852.4066"/><polygon fill="#181818" points="609.8842,842.4066,613.8842,852.4066,617.8842,842.4066,613.8842,846.4066" style="stroke:#181818;stroke-width:1;"/><line style="stroke:#181818;stroke-width:1;" x1="613.8842" x2="613.8842" y1="1961.7224" y2="1981.7224"/><polygon fill="#181818" points="609.8842,1971.7224,613.8842,1981.7224,617.8842,1971.7224,613.8842,1975.7224" style="stroke:#181818;stroke-width:1;"/><line style="stroke:#181818;stroke-width:1;" x1="613.8842" x2="613.8842" y1="2018.0665" y2="2038.0665"/><polygon fill="#181818" points="609.8842,2028.0665,613.8842,2038.0665,617.8842,2028.0665,613.8842,2032.0665" style="stroke:#181818;stroke-width:1;"/><line style="stroke:#181818;stroke-width:1;" x1="485.3511" x2="475.3511" y1="2106.4106" y2="2106.4106"/><line style="stroke:#181818;stroke-width:1;" x1="475.3511" x2="475.3511" y1="2106.4106" y2="2128.4106"/><polygon fill="#181818" points="471.3511,2118.4106,475.3511,2128.4106,479.3511,2118.4106,475.3511,2122.4106" style="stroke:#181818;stroke-width:1;"/><line style="stroke:#181818;stroke-width:1;" x1="742.4174" x2="752.4174" y1="2106.4106" y2="2106.4106"/><line style="stroke:#181818;stroke-width:1;" x1="752.4174" x2="752.4174" y1="2106.4106" y2="2128.4106"/><polygon fill="#181818" points="748.4174,2118.4106,752.4174,2128.4106,756.4174,2118.4106,752.4174,2122.4106" style="stroke:#181818;stroke-width:1;"/><line style="stroke:#181818;stroke-width:1;" x1="475.3511" x2="475.3511" y1="2164.7547" y2="2182.7547"/><line style="stroke:#181818;stroke-width:1;" x1="475.3511" x2="601.8842" y1="2182.7547" y2="2182.7547"/><polygon fill="#181818" points="591.8842,2178.7547,601.8842,2182.7547,591.8842,2186.7547,595.8842,2182.7547" style="stroke:#181818;stroke-width:1;"/><line style="stroke:#181818;stroke-width:1;" x1="752.4174" x2="752.4174" y1="2164.7547" y2="2182.7547"/><line style="stroke:#181818;stroke-width:1;" x1="752.4174" x2="625.8842" y1="2182.7547" y2="2182.7547"/><polygon fill="#181818" points="635.8842,2178.7547,625.8842,2182.7547,635.8842,2186.7547,631.8842,2182.7547" style="stroke:#181818;stroke-width:1;"/><line style="stroke:#181818;stroke-width:1;" x1="613.8842" x2="613.8842" y1="2074.4106" y2="2094.4106"/><polygon fill="#181818" points="609.8842,2084.4106,613.8842,2094.4106,617.8842,2084.4106,613.8842,2088.4106" style="stroke:#181818;stroke-width:1;"/><line style="stroke:#181818;stroke-width:1;" x1="613.8842" x2="613.8842" y1="2194.7547" y2="2214.7547"/><polygon fill="#181818" points="609.8842,2204.7547,613.8842,2214.7547,617.8842,2204.7547,613.8842,2208.7547" style="stroke:#181818;stroke-width:1;"/><line style="stroke:#181818;stroke-width:1;" x1="613.8842" x2="613.8842" y1="1863.0515" y2="1925.3783"/><polygon fill="#181818" points="609.8842,1915.3783,613.8842,1925.3783,617.8842,1915.3783,613.8842,1919.3783" style="stroke:#181818;stroke-width:1;"/><line style="stroke:#181818;stroke-width:1;" x1="613.8842" x2="613.8842" y1="2283.7871" y2="2315.7871"/><polygon fill="#181818" points="609.8842,2305.7871,613.8842,2315.7871,617.8842,2305.7871,613.8842,2309.7871" style="stroke:#181818;stroke-width:1;"/><line style="stroke:#181818;stroke-width:1;" x1="1112.2817" x2="1112.2817" y1="743.4066" y2="798.4066"/><polygon fill="#181818" points="1108.2817,788.4066,1112.2817,798.4066,1116.2817,788.4066,1112.2817,792.4066" style="stroke:#181818;stroke-width:1;"/><line style="stroke:#181818;stroke-width:1;" x1="812.3027" x2="613.8842" y1="629.6504" y2="629.6504"/><line style="stroke:#181818;stroke-width:1;" x1="613.8842" x2="613.8842" y1="629.6504" y2="690.7183"/><polygon fill="#181818" points="609.8842,680.7183,613.8842,690.7183,617.8842,680.7183,613.8842,684.7183" style="stroke:#181818;stroke-width:1;"/><line style="stroke:#181818;stroke-width:1;" x1="913.8632" x2="1112.2817" y1="629.6504" y2="629.6504"/><line style="stroke:#181818;stroke-width:1;" x1="1112.2817" x2="1112.2817" y1="629.6504" y2="690.7183"/><polygon fill="#181818" points="1108.2817,680.7183,1112.2817,690.7183,1116.2817,680.7183,1112.2817,684.7183" style="stroke:#181818;stroke-width:1;"/><line style="stroke:#181818;stroke-width:1;" x1="863.083" x2="863.083" y1="585.6504" y2="617.6504"/><polygon fill="#181818" points="859.083,607.6504,863.083,617.6504,867.083,607.6504,863.083,611.6504" style="stroke:#181818;stroke-width:1;"/><!--SRC=[ZLTjRzis4FxkNt58CCm6d5HBqgorwmtnsrOWHOEuwu1z4MZfB1EXI9MadAf3__kEr8jbsUqA14xCEzuzzzmRyxFbLY3CtbzTi6Uc4Uxlty47pRZaCe4LJtF1B5SI7dFPwvadBZEcMGfh5ZqbMkKodYcXD3nlkSMMt6nPh9wTZGqJfYrXaUKxRWlujmSmLJf6NPeulrfStztSkjEEyVFbhylNowcNrCelfw-MozTqjB9Cszh2SdfzSqE7Y-Rg_FRw-dP6HtFEKYNZOzlBvVLqsL9eGve6hru7GUyhXUxSz7eK0p7c23bRsJmkO8KspyvyCADxnUA6F2BiGQiD5pWccLGMGVDaQ-aBG2IOCITKHruAaAeOHIXPYYCmLX-SUXhD2BYqrNdCB3DeGwkUK1v8aYmF8mhMTWypzOmwj0x023P2iMDXndA3Xy8ixnn4MuoUCaMsGxL3lKKMXvQdFw254dLIxFLGnfwaXiTLX99fhXvSk6XHcs_oUAnQywWneLnv3W7E0I-Joo6SpHTdzBbOkS_burcbwpDSeIT6qVrLn-se2ErMezag4LUedSM4EWS_lNZwUrkfRWj30D1m4wPC9msz9vLBkubcajfCKrECY8SyXVwKsMWxX4Mct2-qqUMWji-DLPf7J8G5CktpMaK6Ly7LJQNMyBpEuuHA8uji3UGSh198FYE43HMvYxFHxsHYIQwty8VcyPngh5Grg3aQalhBMtSWCB8OLso_eBQdtZ-HhSLdbcOqRRmPNm_Gdwq-WbRFWp9ZNvJ4oNmn95EVSYGcup1cnSG5TX7SNWGlXrxD6Q1qfLbByY48HlxdCWY2VqgzYEcrac-bfROWTYTNDw-6mCt2a07AS3nPkk5Kwc9vI06yGxjLyQH3nKSck2iBtst0TemBjkR2JRADOCdO3Gc-WVwy9HRu-y1H9A5Ve74fRC-F_N1TI2eKBAS8kNehIONSVS7M11wNifbAivnGhAdZ1LqYfZPKRvHCBtSvoMccK0tgF7D9iTMGSVS9ekk93AlMRA5nEOP7p0GhQXpaxP5A0Y9r5VAQmxuTZ2lfpvNSfvzAagHXHh-HT1eL1yXWH8ELwGAOPAAWtYXDU3W0ZZNltZExSpntQUk0VL22HmNCbBHQYJrUGhoW-xbBquFhhKSqUOhtAk7HkD5n_henmM_EeMNbr6lS-s-3vcPvzyu24u9cP5msCBGQ-1Jm2ja7QeG4DSoQQLXbfQL3suJgimGHmuIIbsD7vQsCDAP8lLDE3p_Uspf89GrzgJhkvwvEAi1qWmkG-DaUwEpdDApTXgIC7HYMCT_q3jrGOYcC_8YZVH1C7bSGlA4gT9dPpzI6k58m-3ul_b7n7MojRrMH_LZh7S7_LZv7Tr6KUoC85QfdAWe_cSO7Ud5SAvGh3t93UM-fT3Qk9onhf_rKGidkpa_mkhsfyrH2t1atweyG-4SN_Zy2R-qO0LdvA_F3ZpLXqmfFkJ74eHdtJgUX0Oc2PSH0w2Zo6nRM1SGDpA-zKs7-QBv6Vn9UsYeU3JquQU1mwQU87oYDde_QLOvmZrVGkMX5s40rUrTKsxJhTinH9ueEM1zeCqtT-vSWz4zcWwhzbo3uQK0LNDQHsobbf8SRuNrkQRQRPW_KivwU3Q5XExBRocuZTNpktrN7SXCfNKNgIlj87TvCJZqNJbN-w1tJJxIv_VHb1ZR835_NF7OJsDNcigFV5CjeHMyQ13UjXJL-PqI4dYQgKT9hi4WhUkaruy8CgzU6ARUtVxoLxuAXhr-c8_SlIMHpkj7iFdexPRqspk-mVxTMP5BdPJzGdkchbrI5Tk7NbTjilDxFNniNFhJ_0000]--></g></svg>