<svg xmlns="http://www.w3.org/2000/svg" xmlns:xlink="http://www.w3.org/1999/xlink" contentStyleType="text/css" data-diagram-type="CLASS" height="779px" preserveAspectRatio="none" style="width:1491px;height:779px;background:#FFFFFF;" version="1.1" viewBox="0 0 1491 779" width="1491px" zoomAndPan="magnify"><?plantuml $version$?><defs/><g><!--cluster Inputs_Constants--><g class="cluster" data-qualified-name="Inputs_Constants" data-source-line="3" id="ent0001"><path d="M716.5,568.89 L835.7275,568.89 A3.75,3.75 0 0 1 838.2275,571.39 L845.2275,590.9886 L1473.5,590.9886 A2.5,2.5 0 0 1 1476,593.4886 L1476,761.98 A2.5,2.5 0 0 1 1473.5,764.48 L716.5,764.48 A2.5,2.5 0 0 1 714,761.98 L714,571.39 A2.5,2.5 0 0 1 716.5,568.89" fill="none" style="stroke:#000000;stroke-width:1.5;"/><line style="stroke:#000000;stroke-width:1.5;" x1="714" x2="845.2275" y1="590.9886" y2="590.9886"/><text fill="#000000" font-family="sans-serif" font-size="14" font-weight="700" lengthAdjust="spacing" textLength="118.2275" x="718" y="584.0218">Inputs_Constants</text></g><!--cluster Policy_Controls--><g class="cluster" data-qualified-name="Policy_Controls" data-source-line="29" id="ent0005"><path d="M506.5,183.2 L614.0791,183.2 A3.75,3.75 0 0 1 616.5791,185.7 L623.5791,205.2986 L1096.5,205.2986 A2.5,2.5 0 0 1 1099,207.7986 L1099,518.39 A2.5,2.5 0 0 1 1096.5,520.89 L506.5,520.89 A2.5,2.5 0 0 1 504,518.39 L504,185.7 A2.5,2.5 0 0 1 506.5,183.2" fill="none" style="stroke:#000000;stroke-width:1.5;"/><line style="stroke:#000000;stroke-width:1.5;" x1="504" x2="623.5791" y1="205.2986" y2="205.2986"/><text fill="#000000" font-family="sans-serif" font-size="14" font-weight="700" lengthAdjust="spacing" textLength="106.5791" x="508" y="198.3318">Policy_Controls</text></g><!--cluster Execution--><g class="cluster" data-qualified-name="Execution" data-source-line="50" id="ent0009"><path d="M8.5,6 L76.4033,6 A3.75,3.75 0 0 1 78.9033,8.5 L85.9033,28.0986 L477.5,28.0986 A2.5,2.5 0 0 1 480,30.5986 L480,344.09 A2.5,2.5 0 0 1 477.5,346.59 L8.5,346.59 A2.5,2.5 0 0 1 6,344.09 L6,8.5 A2.5,2.5 0 0 1 8.5,6" fill="none" style="stroke:#000000;stroke-width:1.5;"/><line style="stroke:#000000;stroke-width:1.5;" x1="6" x2="85.9033" y1="28.0986" y2="28.0986"/><text fill="#000000" font-family="sans-serif" font-size="14" font-weight="700" lengthAdjust="spacing" textLength="66.9033" x="10" y="21.1318">Execution</text></g><!--class TrainingRunProfile--><g class="entity" data-qualified-name="Inputs_Constants.TrainingRunProfile" data-source-line="4" id="ent0002"><rect fill="#F1F1F1" height="144.5918" rx="2.5" ry="2.5" style="stroke:#181818;stroke-width:0.5;" width="228.3438" x="729.83" y="603.89"/><ellipse cx="781.7797" cy="619.89" fill="#ADD1B2" rx="11" ry="11" style="stroke:#181818;stroke-width:1;"/><path d="M782.0141,626.5619 Q780.811,626.5619 779.9203,626.1088 Q779.0453,625.6556 778.561,624.8431 Q778.0766,624.015 778.0766,622.89 L778.0766,617.4838 Q778.0766,616.3588 778.561,615.5463 Q779.0453,614.7181 779.9203,614.265 Q780.811,613.8119 782.0141,613.8119 Q783.2016,613.8119 784.0766,614.265 Q784.9672,614.7181 785.4672,615.5463 Q785.9672,616.3588 785.9672,617.4838 L783.811,617.4838 Q783.811,616.6088 783.3422,616.1556 Q782.8891,615.6869 782.0141,615.6869 Q781.1547,615.6869 780.6703,616.1556 Q780.2016,616.6088 780.2016,617.4838 L780.2016,622.89 Q780.2016,623.7494 780.6703,624.2181 Q781.1547,624.6869 782.0141,624.6869 Q782.8891,624.6869 783.3422,624.2181 Q783.811,623.7494 783.811,622.89 L785.9672,622.89 Q785.9672,624.015 785.4672,624.8431 Q784.9672,625.6556 784.0766,626.1088 Q783.2016,626.5619 782.0141,626.5619 Z " fill="#000000"/><text fill="#000000" font-family="sans-serif" font-size="14" lengthAdjust="spacing" textLength="115.9443" x="802.2797" y="624.9725">TrainingRunProfile</text><line style="stroke:#181818;stroke-width:0.5;" x1="730.83" x2="957.1738" y1="635.89" y2="635.89"/><g data-visibility-modifier="PRIVATE_FIELD"><rect fill="none" height="6" style="stroke:#C82930;stroke-width:1;" width="6" x="737.83" y="646.4393"/></g><text fill="#000000" font-family="sans-serif" font-size="14" lengthAdjust="spacing" textLength="134.627" x="749.83" y="653.0218">model_params: count</text><g data-visibility-modifier="PRIVATE_FIELD"><rect fill="none" height="6" style="stroke:#C82930;stroke-width:1;" width="6" x="737.83" y="662.5379"/></g><text fill="#000000" font-family="sans-serif" font-size="14" lengthAdjust="spacing" textLength="136.9854" x="749.83" y="669.1205">dataset_tokens: count</text><g data-visibility-modifier="PRIVATE_FIELD"><rect fill="none" height="6" style="stroke:#C82930;stroke-width:1;" width="6" x="737.83" y="678.6366"/></g><text fill="#000000" font-family="sans-serif" font-size="14" lengthAdjust="spacing" textLength="107.4199" x="749.83" y="685.2191">gpu_count: count</text><g data-visibility-modifier="PRIVATE_FIELD"><rect fill="none" height="6" style="stroke:#C82930;stroke-width:1;" width="6" x="737.83" y="694.7352"/></g><text fill="#000000" font-family="sans-serif" font-size="14" lengthAdjust="spacing" textLength="191.4336" x="749.83" y="701.3177">gpu_power_train: W_per_GPU</text><g data-visibility-modifier="PRIVATE_FIELD"><rect fill="none" height="6" style="stroke:#C82930;stroke-width:1;" width="6" x="737.83" y="710.8338"/></g><text fill="#000000" font-family="sans-serif" font-size="14" lengthAdjust="spacing" textLength="202.3438" x="749.83" y="717.4164">gpu_power_pause: W_per_GPU</text><g data-visibility-modifier="PRIVATE_FIELD"><rect fill="none" height="6" style="stroke:#C82930;stroke-width:1;" width="6" x="737.83" y="726.9325"/></g><text fill="#000000" font-family="sans-serif" font-size="14" lengthAdjust="spacing" textLength="58.3721" x="749.83" y="733.515">pue: ratio</text><line style="stroke:#181818;stroke-width:0.5;" x1="730.83" x2="957.1738" y1="740.4818" y2="740.4818"/></g><!--class GridData--><g class="entity" data-qualified-name="Inputs_Constants.GridData" data-source-line="13" id="ent0003"><rect fill="#F1F1F1" height="96.2959" rx="2.5" ry="2.5" style="stroke:#181818;stroke-width:0.5;" width="243.123" x="1216.44" y="628.04"/><ellipse cx="1305.7413" cy="644.04" fill="#ADD1B2" rx="11" ry="11" style="stroke:#181818;stroke-width:1;"/><path d="M1305.9756,650.7119 Q1304.7725,650.7119 1303.8819,650.2588 Q1303.0069,649.8056 1302.5225,648.9931 Q1302.0381,648.165 1302.0381,647.04 L1302.0381,641.6338 Q1302.0381,640.5088 1302.5225,639.6963 Q1303.0069,638.8681 1303.8819,638.415 Q1304.7725,637.9619 1305.9756,637.9619 Q1307.1631,637.9619 1308.0381,638.415 Q1308.9288,638.8681 1309.4288,639.6963 Q1309.9288,640.5088 1309.9288,641.6338 L1307.7725,641.6338 Q1307.7725,640.7588 1307.3038,640.3056 Q1306.8506,639.8369 1305.9756,639.8369 Q1305.1163,639.8369 1304.6319,640.3056 Q1304.1631,640.7588 1304.1631,641.6338 L1304.1631,647.04 Q1304.1631,647.8994 1304.6319,648.3681 Q1305.1163,648.8369 1305.9756,648.8369 Q1306.8506,648.8369 1307.3038,648.3681 Q1307.7725,647.8994 1307.7725,647.04 L1309.9288,647.04 Q1309.9288,648.165 1309.4288,648.9931 Q1308.9288,649.8056 1308.0381,650.2588 Q1307.1631,650.7119 1305.9756,650.7119 Z " fill="#000000"/><text fill="#000000" font-family="sans-serif" font-size="14" lengthAdjust="spacing" textLength="56.0205" x="1326.2413" y="649.1225">GridData</text><line style="stroke:#181818;stroke-width:0.5;" x1="1217.44" x2="1458.563" y1="660.04" y2="660.04"/><g data-visibility-modifier="PRIVATE_FIELD"><rect fill="none" height="6" style="stroke:#C82930;stroke-width:1;" width="6" x="1224.44" y="670.5893"/></g><text fill="#000000" font-family="sans-serif" font-size="14" lengthAdjust="spacing" textLength="217.123" x="1236.44" y="677.1718">co2_intensity_t: gCO2eq_per_kWh</text><g data-visibility-modifier="PRIVATE_FIELD"><rect fill="none" height="6" style="stroke:#C82930;stroke-width:1;" width="6" x="1224.44" y="686.6879"/></g><text fill="#000000" font-family="sans-serif" font-size="14" lengthAdjust="spacing" textLength="209.2959" x="1236.44" y="693.2705">electricity_price_t: EUR_per_kWh</text><g data-visibility-modifier="PRIVATE_FIELD"><rect fill="none" height="6" style="stroke:#C82930;stroke-width:1;" width="6" x="1224.44" y="702.7866"/></g><text fill="#000000" font-family="sans-serif" font-size="14" lengthAdjust="spacing" textLength="175.9023" x="1236.44" y="709.3691">data_availability_flag_t: bool</text><line style="stroke:#181818;stroke-width:0.5;" x1="1217.44" x2="1458.563" y1="716.3359" y2="716.3359"/></g><!--class ScenarioParameters--><g class="entity" data-qualified-name="Inputs_Constants.ScenarioParameters" data-source-line="19" id="ent0004"><rect fill="#F1F1F1" height="144.5918" rx="2.5" ry="2.5" style="stroke:#181818;stroke-width:0.5;" width="187.9023" x="993.05" y="603.89"/><ellipse cx="1020.7801" cy="619.89" fill="#ADD1B2" rx="11" ry="11" style="stroke:#181818;stroke-width:1;"/><path d="M1021.0145,626.5619 Q1019.8113,626.5619 1018.9207,626.1088 Q1018.0457,625.6556 1017.5613,624.8431 Q1017.077,624.015 1017.077,622.89 L1017.077,617.4838 Q1017.077,616.3588 1017.5613,615.5463 Q1018.0457,614.7181 1018.9207,614.265 Q1019.8113,613.8119 1021.0145,613.8119 Q1022.202,613.8119 1023.077,614.265 Q1023.9676,614.7181 1024.4676,615.5463 Q1024.9676,616.3588 1024.9676,617.4838 L1022.8113,617.4838 Q1022.8113,616.6088 1022.3426,616.1556 Q1021.8895,615.6869 1021.0145,615.6869 Q1020.1551,615.6869 1019.6707,616.1556 Q1019.202,616.6088 1019.202,617.4838 L1019.202,622.89 Q1019.202,623.7494 1019.6707,624.2181 Q1020.1551,624.6869 1021.0145,624.6869 Q1021.8895,624.6869 1022.3426,624.2181 Q1022.8113,623.7494 1022.8113,622.89 L1024.9676,622.89 Q1024.9676,624.015 1024.4676,624.8431 Q1023.9676,625.6556 1023.077,626.1088 Q1022.202,626.5619 1021.0145,626.5619 Z " fill="#000000"/><text fill="#000000" font-family="sans-serif" font-size="14" lengthAdjust="spacing" textLength="127.6133" x="1037.609" y="624.9725">ScenarioParameters</text><line style="stroke:#181818;stroke-width:0.5;" x1="994.05" x2="1179.9523" y1="635.89" y2="635.89"/><g data-visibility-modifier="PRIVATE_FIELD"><rect fill="none" height="6" style="stroke:#C82930;stroke-width:1;" width="6" x="1001.05" y="646.4393"/></g><text fill="#000000" font-family="sans-serif" font-size="14" lengthAdjust="spacing" textLength="108.9443" x="1013.05" y="653.0218">threshold_set: list</text><g data-visibility-modifier="PRIVATE_FIELD"><rect fill="none" height="6" style="stroke:#C82930;stroke-width:1;" width="6" x="1001.05" y="662.5379"/></g><text fill="#000000" font-family="sans-serif" font-size="14" lengthAdjust="spacing" textLength="114.3721" x="1013.05" y="669.1205">hysteresis_set: list</text><g data-visibility-modifier="PRIVATE_FIELD"><rect fill="none" height="6" style="stroke:#C82930;stroke-width:1;" width="6" x="1001.05" y="678.6366"/></g><text fill="#000000" font-family="sans-serif" font-size="14" lengthAdjust="spacing" textLength="97.2686" x="1013.05" y="685.2191">regions_set: list</text><g data-visibility-modifier="PRIVATE_FIELD"><rect fill="none" height="6" style="stroke:#C82930;stroke-width:1;" width="6" x="1001.05" y="694.7352"/></g><text fill="#000000" font-family="sans-serif" font-size="14" lengthAdjust="spacing" textLength="119.8135" x="1013.05" y="701.3177">start_times_set: list</text><g data-visibility-modifier="PRIVATE_FIELD"><rect fill="none" height="6" style="stroke:#C82930;stroke-width:1;" width="6" x="1001.05" y="710.8338"/></g><text fill="#000000" font-family="sans-serif" font-size="14" lengthAdjust="spacing" textLength="122.1514" x="1013.05" y="717.4164">historical_years: list</text><g data-visibility-modifier="PRIVATE_FIELD"><rect fill="none" height="6" style="stroke:#C82930;stroke-width:1;" width="6" x="1001.05" y="726.9325"/></g><text fill="#000000" font-family="sans-serif" font-size="14" lengthAdjust="spacing" textLength="161.9023" x="1013.05" y="733.515">overhead_budget_pct: pct</text><line style="stroke:#181818;stroke-width:0.5;" x1="994.05" x2="1179.9523" y1="740.4818" y2="740.4818"/></g><!--class Policy--><g class="entity" data-qualified-name="Policy_Controls.Policy" data-source-line="30" id="ent0006"><rect fill="#F1F1F1" height="112.3945" rx="2.5" ry="2.5" style="stroke:#181818;stroke-width:0.5;" width="226.7988" x="539.6" y="218.2"/><ellipse cx="630.0771" cy="234.2" fill="#ADD1B2" rx="11" ry="11" style="stroke:#181818;stroke-width:1;"/><path d="M630.3114,240.8719 Q629.1083,240.8719 628.2177,240.4188 Q627.3427,239.9656 626.8583,239.1531 Q626.3739,238.325 626.3739,237.2 L626.3739,231.7938 Q626.3739,230.6688 626.8583,229.8563 Q627.3427,229.0281 628.2177,228.575 Q629.1083,228.1219 630.3114,228.1219 Q631.4989,228.1219 632.3739,228.575 Q633.2646,229.0281 633.7646,229.8563 Q634.2646,230.6688 634.2646,231.7938 L632.1083,231.7938 Q632.1083,230.9188 631.6396,230.4656 Q631.1864,229.9969 630.3114,229.9969 Q629.4521,229.9969 628.9677,230.4656 Q628.4989,230.9188 628.4989,231.7938 L628.4989,237.2 Q628.4989,238.0594 628.9677,238.5281 Q629.4521,238.9969 630.3114,238.9969 Q631.1864,238.9969 631.6396,238.5281 Q632.1083,238.0594 632.1083,237.2 L634.2646,237.2 Q634.2646,238.325 633.7646,239.1531 Q633.2646,239.9656 632.3739,240.4188 Q631.4989,240.8719 630.3114,240.8719 Z " fill="#000000"/><text fill="#000000" font-family="sans-serif" font-size="14" lengthAdjust="spacing" textLength="37.3447" x="650.5771" y="239.2825">Policy</text><line style="stroke:#181818;stroke-width:0.5;" x1="540.6" x2="765.3988" y1="250.2" y2="250.2"/><g data-visibility-modifier="PRIVATE_FIELD"><rect fill="none" height="6" style="stroke:#C82930;stroke-width:1;" width="6" x="547.6" y="260.7493"/></g><text fill="#000000" font-family="sans-serif" font-size="14" lengthAdjust="spacing" textLength="200.7988" x="559.6" y="267.3318">theta_pause: gCO2eq_per_kWh</text><g data-visibility-modifier="PRIVATE_FIELD"><rect fill="none" height="6" style="stroke:#C82930;stroke-width:1;" width="6" x="547.6" y="276.8479"/></g><text fill="#000000" font-family="sans-serif" font-size="14" lengthAdjust="spacing" textLength="187.5508" x="559.6" y="283.4305">delta_hyst: gCO2eq_per_kWh</text><g data-visibility-modifier="PRIVATE_FIELD"><rect fill="none" height="6" style="stroke:#C82930;stroke-width:1;" width="6" x="547.6" y="292.9466"/></g><text fill="#000000" font-family="sans-serif" font-size="14" lengthAdjust="spacing" textLength="80.9307" x="559.6" y="299.5291">region: string</text><g data-visibility-modifier="PRIVATE_FIELD"><rect fill="none" height="6" style="stroke:#C82930;stroke-width:1;" width="6" x="547.6" y="309.0452"/></g><text fill="#000000" font-family="sans-serif" font-size="14" lengthAdjust="spacing" textLength="154.0957" x="559.6" y="315.6277">pause_granularity: enum</text><line style="stroke:#181818;stroke-width:0.5;" x1="540.6" x2="765.3988" y1="322.5945" y2="322.5945"/></g><!--class PauseResumeLogic--><g class="entity" data-qualified-name="Policy_Controls.PauseResumeLogic" data-source-line="37" id="ent0007"><rect fill="#F1F1F1" height="96.2959" rx="2.5" ry="2.5" style="stroke:#181818;stroke-width:0.5;" width="261.792" x="821.1" y="408.59"/><ellipse cx="885.098" cy="424.59" fill="#ADD1B2" rx="11" ry="11" style="stroke:#181818;stroke-width:1;"/><path d="M885.3324,431.2619 Q884.1293,431.2619 883.2387,430.8088 Q882.3637,430.3556 881.8793,429.5431 Q881.3949,428.715 881.3949,427.59 L881.3949,422.1838 Q881.3949,421.0588 881.8793,420.2463 Q882.3637,419.4181 883.2387,418.965 Q884.1293,418.5119 885.3324,418.5119 Q886.5199,418.5119 887.3949,418.965 Q888.2855,419.4181 888.7855,420.2463 Q889.2855,421.0588 889.2855,422.1838 L887.1293,422.1838 Q887.1293,421.3088 886.6605,420.8556 Q886.2074,420.3869 885.3324,420.3869 Q884.473,420.3869 883.9887,420.8556 Q883.5199,421.3088 883.5199,422.1838 L883.5199,427.59 Q883.5199,428.4494 883.9887,428.9181 Q884.473,429.3869 885.3324,429.3869 Q886.2074,429.3869 886.6605,428.9181 Q887.1293,428.4494 887.1293,427.59 L889.2855,427.59 Q889.2855,428.715 888.7855,429.5431 Q888.2855,430.3556 887.3949,430.8088 Q886.5199,431.2619 885.3324,431.2619 Z " fill="#000000"/><text fill="#000000" font-family="sans-serif" font-size="14" lengthAdjust="spacing" textLength="125.2959" x="905.598" y="429.6725">PauseResumeLogic</text><line style="stroke:#181818;stroke-width:0.5;" x1="822.1" x2="1081.892" y1="440.59" y2="440.59"/><g data-visibility-modifier="PRIVATE_FIELD"><rect fill="none" height="6" style="stroke:#C82930;stroke-width:1;" width="6" x="829.1" y="451.1393"/></g><text fill="#000000" font-family="sans-serif" font-size="14" lengthAdjust="spacing" textLength="235.792" x="841.1" y="457.7218">resume_threshold: gCO2eq_per_kWh</text><g data-visibility-modifier="PRIVATE_FIELD"><rect fill="none" height="6" style="stroke:#C82930;stroke-width:1;" width="6" x="829.1" y="467.2379"/></g><text fill="#000000" font-family="sans-serif" font-size="14" lengthAdjust="spacing" textLength="98.0752" x="841.1" y="473.8205">is_paused: bool</text><line style="stroke:#181818;stroke-width:0.5;" x1="822.1" x2="1081.892" y1="480.7873" y2="480.7873"/><g data-visibility-modifier="PUBLIC_METHOD"><ellipse cx="832.1" cy="494.3366" fill="#84BE84" rx="3" ry="3" style="stroke:#038048;stroke-width:1;"/></g><text fill="#000000" font-family="sans-serif" font-size="14" lengthAdjust="spacing" textLength="182.875" x="841.1" y="497.9191">evaluate(gridIntensity): action</text></g><!--class Checkpointing--><g class="entity" data-qualified-name="Policy_Controls.Checkpointing" data-source-line="43" id="ent0008"><rect fill="#F1F1F1" height="96.2959" rx="2.5" ry="2.5" style="stroke:#181818;stroke-width:0.5;" width="266.4883" x="519.76" y="408.59"/><ellipse cx="604.3923" cy="424.59" fill="#ADD1B2" rx="11" ry="11" style="stroke:#181818;stroke-width:1;"/><path d="M604.6267,431.2619 Q603.4236,431.2619 602.5329,430.8088 Q601.6579,430.3556 601.1736,429.5431 Q600.6892,428.715 600.6892,427.59 L600.6892,422.1838 Q600.6892,421.0588 601.1736,420.2463 Q601.6579,419.4181 602.5329,418.965 Q603.4236,418.5119 604.6267,418.5119 Q605.8142,418.5119 606.6892,418.965 Q607.5798,419.4181 608.0798,420.2463 Q608.5798,421.0588 608.5798,422.1838 L606.4236,422.1838 Q606.4236,421.3088 605.9548,420.8556 Q605.5017,420.3869 604.6267,420.3869 Q603.7673,420.3869 603.2829,420.8556 Q602.8142,421.3088 602.8142,422.1838 L602.8142,427.59 Q602.8142,428.4494 603.2829,428.9181 Q603.7673,429.3869 604.6267,429.3869 Q605.5017,429.3869 605.9548,428.9181 Q606.4236,428.4494 606.4236,427.59 L608.5798,427.59 Q608.5798,428.715 608.0798,429.5431 Q607.5798,430.3556 606.6892,430.8088 Q605.8142,431.2619 604.6267,431.2619 Z " fill="#000000"/><text fill="#000000" font-family="sans-serif" font-size="14" lengthAdjust="spacing" textLength="88.7236" x="624.8923" y="429.6725">Checkpointing</text><line style="stroke:#181818;stroke-width:0.5;" x1="520.76" x2="785.2483" y1="440.59" y2="440.59"/><g data-visibility-modifier="PRIVATE_FIELD"><rect fill="none" height="6" style="stroke:#C82930;stroke-width:1;" width="6" x="527.76" y="451.1393"/></g><text fill="#000000" font-family="sans-serif" font-size="14" lengthAdjust="spacing" textLength="108.165" x="539.76" y="457.7218">granularity: enum</text><g data-visibility-modifier="PRIVATE_FIELD"><rect fill="none" height="6" style="stroke:#C82930;stroke-width:1;" width="6" x="527.76" y="467.2379"/></g><text fill="#000000" font-family="sans-serif" font-size="14" lengthAdjust="spacing" textLength="210.1299" x="539.76" y="473.8205">overhead_time: s_per_checkpoint</text><g data-visibility-modifier="PRIVATE_FIELD"><rect fill="none" height="6" style="stroke:#C82930;stroke-width:1;" width="6" x="527.76" y="483.3366"/></g><text fill="#000000" font-family="sans-serif" font-size="14" lengthAdjust="spacing" textLength="240.4883" x="539.76" y="489.9191">overhead_energy: Wh_per_checkpoint</text><line style="stroke:#181818;stroke-width:0.5;" x1="520.76" x2="785.2483" y1="496.8859" y2="496.8859"/></g><!--class Simulation--><g class="entity" data-qualified-name="Execution.Simulation" data-source-line="51" id="ent0010"><rect fill="#F1F1F1" height="80.1973" rx="2.5" ry="2.5" style="stroke:#181818;stroke-width:0.5;" width="283.5439" x="180.23" y="41"/><ellipse cx="285.0694" cy="57" fill="#ADD1B2" rx="11" ry="11" style="stroke:#181818;stroke-width:1;"/><path d="M285.3037,63.6719 Q284.1006,63.6719 283.21,63.2188 Q282.335,62.7656 281.8506,61.9531 Q281.3662,61.125 281.3662,60 L281.3662,54.5938 Q281.3662,53.4688 281.8506,52.6563 Q282.335,51.8281 283.21,51.375 Q284.1006,50.9219 285.3037,50.9219 Q286.4912,50.9219 287.3662,51.375 Q288.2569,51.8281 288.7569,52.6563 Q289.2569,53.4688 289.2569,54.5938 L287.1006,54.5938 Q287.1006,53.7188 286.6319,53.2656 Q286.1787,52.7969 285.3037,52.7969 Q284.4444,52.7969 283.96,53.2656 Q283.4912,53.7188 283.4912,54.5938 L283.4912,60 Q283.4912,60.8594 283.96,61.3281 Q284.4444,61.7969 285.3037,61.7969 Q286.1787,61.7969 286.6319,61.3281 Q287.1006,60.8594 287.1006,60 L289.2569,60 Q289.2569,61.125 288.7569,61.9531 Q288.2569,62.7656 287.3662,63.2188 Q286.4912,63.6719 285.3037,63.6719 Z " fill="#000000"/><text fill="#000000" font-family="sans-serif" font-size="14" lengthAdjust="spacing" textLength="65.3652" x="305.5694" y="62.0825">Simulation</text><line style="stroke:#181818;stroke-width:0.5;" x1="181.23" x2="462.7739" y1="73" y2="73"/><line style="stroke:#181818;stroke-width:0.5;" x1="181.23" x2="462.7739" y1="81" y2="81"/><g data-visibility-modifier="PUBLIC_METHOD"><ellipse cx="191.23" cy="94.5493" fill="#84BE84" rx="3" ry="3" style="stroke:#038048;stroke-width:1;"/></g><text fill="#000000" font-family="sans-serif" font-size="14" lengthAdjust="spacing" textLength="257.5439" x="200.23" y="98.1318">run(policy, profile, grid, scenario): Results</text><g data-visibility-modifier="PUBLIC_METHOD"><ellipse cx="191.23" cy="110.6479" fill="#84BE84" rx="3" ry="3" style="stroke:#038048;stroke-width:1;"/></g><text fill="#000000" font-family="sans-serif" font-size="14" lengthAdjust="spacing" textLength="105.0615" x="200.23" y="114.2305">step(dt): updates</text></g><!--class InternalState--><g class="entity" data-qualified-name="Execution.InternalState" data-source-line="56" id="ent0011"><rect fill="#F1F1F1" height="112.3945" rx="2.5" ry="2.5" style="stroke:#181818;stroke-width:0.5;" width="235.3301" x="22.33" y="218.2"/><ellipse cx="96.0522" cy="234.2" fill="#ADD1B2" rx="11" ry="11" style="stroke:#181818;stroke-width:1;"/><path d="M96.2865,240.8719 Q95.0834,240.8719 94.1928,240.4188 Q93.3178,239.9656 92.8334,239.1531 Q92.349,238.325 92.349,237.2 L92.349,231.7938 Q92.349,230.6688 92.8334,229.8563 Q93.3178,229.0281 94.1928,228.575 Q95.0834,228.1219 96.2865,228.1219 Q97.474,228.1219 98.349,228.575 Q99.2397,229.0281 99.7397,229.8563 Q100.2397,230.6688 100.2397,231.7938 L98.0834,231.7938 Q98.0834,230.9188 97.6147,230.4656 Q97.1615,229.9969 96.2865,229.9969 Q95.4272,229.9969 94.9428,230.4656 Q94.474,230.9188 94.474,231.7938 L94.474,237.2 Q94.474,238.0594 94.9428,238.5281 Q95.4272,238.9969 96.2865,238.9969 Q97.1615,238.9969 97.6147,238.5281 Q98.0834,238.0594 98.0834,237.2 L100.2397,237.2 Q100.2397,238.325 99.7397,239.1531 Q99.2397,239.9656 98.349,240.4188 Q97.474,240.8719 96.2865,240.8719 Z " fill="#000000"/><text fill="#000000" font-family="sans-serif" font-size="14" lengthAdjust="spacing" textLength="79.3857" x="116.5522" y="239.2825">InternalState</text><line style="stroke:#181818;stroke-width:0.5;" x1="23.33" x2="256.6601" y1="250.2" y2="250.2"/><g data-visibility-modifier="PRIVATE_FIELD"><rect fill="none" height="6" style="stroke:#C82930;stroke-width:1;" width="6" x="30.33" y="260.7493"/></g><text fill="#000000" font-family="sans-serif" font-size="14" lengthAdjust="spacing" textLength="161.0889" x="42.33" y="267.3318">training_progress_pct: pct</text><g data-visibility-modifier="PRIVATE_FIELD"><rect fill="none" height="6" style="stroke:#C82930;stroke-width:1;" width="6" x="30.33" y="276.8479"/></g><text fill="#000000" font-family="sans-serif" font-size="14" lengthAdjust="spacing" textLength="130.7441" x="42.33" y="283.4305">elapsed_wall_time: h</text><g data-visibility-modifier="PRIVATE_FIELD"><rect fill="none" height="6" style="stroke:#C82930;stroke-width:1;" width="6" x="30.33" y="292.9466"/></g><text fill="#000000" font-family="sans-serif" font-size="14" lengthAdjust="spacing" textLength="209.3301" x="42.33" y="299.5291">accumulated_emissions: gCO2eq</text><g data-visibility-modifier="PRIVATE_FIELD"><rect fill="none" height="6" style="stroke:#C82930;stroke-width:1;" width="6" x="30.33" y="309.0452"/></g><text fill="#000000" font-family="sans-serif" font-size="14" lengthAdjust="spacing" textLength="122.2061" x="42.33" y="315.6277">pause_count: count</text><line style="stroke:#181818;stroke-width:0.5;" x1="23.33" x2="256.6601" y1="322.5945" y2="322.5945"/></g><!--class Metrics--><g class="entity" data-qualified-name="Execution.Metrics" data-source-line="63" id="ent0012"><rect fill="#F1F1F1" height="96.2959" rx="2.5" ry="2.5" style="stroke:#181818;stroke-width:0.5;" width="171.5303" x="292.23" y="226.25"/><ellipse cx="351.19" cy="242.25" fill="#ADD1B2" rx="11" ry="11" style="stroke:#181818;stroke-width:1;"/><path d="M351.4243,248.9219 Q350.2212,248.9219 349.3306,248.4688 Q348.4556,248.0156 347.9712,247.2031 Q347.4868,246.375 347.4868,245.25 L347.4868,239.8438 Q347.4868,238.7188 347.9712,237.9063 Q348.4556,237.0781 349.3306,236.625 Q350.2212,236.1719 351.4243,236.1719 Q352.6118,236.1719 353.4868,236.625 Q354.3775,237.0781 354.8775,237.9063 Q355.3775,238.7188 355.3775,239.8438 L353.2212,239.8438 Q353.2212,238.9688 352.7525,238.5156 Q352.2993,238.0469 351.4243,238.0469 Q350.565,238.0469 350.0806,238.5156 Q349.6118,238.9688 349.6118,239.8438 L349.6118,245.25 Q349.6118,246.1094 350.0806,246.5781 Q350.565,247.0469 351.4243,247.0469 Q352.2993,247.0469 352.7525,246.5781 Q353.2212,246.1094 353.2212,245.25 L355.3775,245.25 Q355.3775,246.375 354.8775,247.2031 Q354.3775,248.0156 353.4868,248.4688 Q352.6118,248.9219 351.4243,248.9219 Z " fill="#000000"/><text fill="#000000" font-family="sans-serif" font-size="14" lengthAdjust="spacing" textLength="45.1104" x="371.69" y="247.3325">Metrics</text><line style="stroke:#181818;stroke-width:0.5;" x1="293.23" x2="462.7603" y1="258.25" y2="258.25"/><g data-visibility-modifier="PRIVATE_FIELD"><rect fill="none" height="6" style="stroke:#C82930;stroke-width:1;" width="6" x="300.23" y="268.7993"/></g><text fill="#000000" font-family="sans-serif" font-size="14" lengthAdjust="spacing" textLength="136.958" x="312.23" y="275.3818">CO2_savings_pct: pct</text><g data-visibility-modifier="PRIVATE_FIELD"><rect fill="none" height="6" style="stroke:#C82930;stroke-width:1;" width="6" x="300.23" y="284.8979"/></g><text fill="#000000" font-family="sans-serif" font-size="14" lengthAdjust="spacing" textLength="145.5303" x="312.23" y="291.4805">time_overhead_pct: pct</text><g data-visibility-modifier="PRIVATE_FIELD"><rect fill="none" height="6" style="stroke:#C82930;stroke-width:1;" width="6" x="300.23" y="300.9966"/></g><text fill="#000000" font-family="sans-serif" font-size="14" lengthAdjust="spacing" textLength="68.4756" x="312.23" y="307.5791">score: float</text><line style="stroke:#181818;stroke-width:0.5;" x1="293.23" x2="462.7603" y1="314.5459" y2="314.5459"/></g><!--link Simulation to TrainingRunProfile--><g class="link" data-entity-1="ent0010" data-entity-2="ent0002" data-link-type="dependency" data-source-line="71" id="lnk13"><path codeLine="71" d="M464.06,84.65 C692.93,90.07 1123.12,106.18 1176,151.2 C1244.4,209.42 1284.75,489.61 1221,552.89 C1211.33,562.48 988.68,555.92 976,560.89 C951.72,570.39 932.6345,583.1308 912.9745,600.2108" fill="none" id="Simulation-to-TrainingRunProfile" style="stroke:#181818;stroke-width:1;"/><polygon fill="#181818" points="909.2,603.49,918.6175,600.6071,912.9745,600.2108,913.3708,594.5679,909.2,603.49" style="stroke:#181818;stroke-width:1;stroke-linejoin:miter;stroke-miterlimit:10;"/><text fill="#000000" font-family="sans-serif" font-size="13" lengthAdjust="spacing" textLength="27.46" x="1251.92" y="375.7838">uses</text></g><!--link Simulation to GridData--><g class="link" data-entity-1="ent0010" data-entity-2="ent0003" data-link-type="dependency" data-source-line="72" id="lnk14"><path codeLine="72" d="M463.96,85.25 C678.42,91.35 1074.27,108.18 1209,151.2 C1391.73,209.55 1365.441,504.8083 1347.291,622.6683" fill="none" id="Simulation-to-GridData" style="stroke:#181818;stroke-width:1;"/><polygon fill="#181818" points="1346.53,627.61,1351.8532,619.3237,1347.291,622.6683,1343.9464,618.106,1346.53,627.61" style="stroke:#181818;stroke-width:1;stroke-linejoin:miter;stroke-miterlimit:10;"/><text fill="#000000" font-family="sans-serif" font-size="13" lengthAdjust="spacing" textLength="59.249" x="1355.59" y="375.7838">consumes</text></g><!--link Simulation to Policy--><g class="link" data-entity-1="ent0010" data-entity-2="ent0006" data-link-type="dependency" data-source-line="73" id="lnk15"><path codeLine="73" d="M390.18,121.5 C438.25,149.28 498.981,184.378 552.341,215.218" fill="none" id="Simulation-to-Policy" style="stroke:#181818;stroke-width:1;"/><polygon fill="#181818" points="556.67,217.72,550.8794,209.7532,552.341,215.218,546.8762,216.6796,556.67,217.72" style="stroke:#181818;stroke-width:1;stroke-linejoin:miter;stroke-miterlimit:10;"/><text fill="#000000" font-family="sans-serif" font-size="13" lengthAdjust="spacing" textLength="41.1963" x="468.68" y="164.3938">applies</text></g><!--link Simulation to ScenarioParameters--><g class="link" data-entity-1="ent0010" data-entity-2="ent0004" data-link-type="dependency" data-source-line="74" id="lnk16"><path codeLine="74" d="M464.14,89.08 C676.87,101 1057.66,128.61 1099,175.2 C1203.88,293.4 1155.2321,491.5243 1117.3821,598.9143" fill="none" id="Simulation-to-ScenarioParameters" style="stroke:#181818;stroke-width:1;"/><polygon fill="#181818" points="1115.72,603.63,1122.4842,596.4714,1117.3821,598.9143,1114.9392,593.8121,1115.72,603.63" style="stroke:#181818;stroke-width:1;stroke-linejoin:miter;stroke-miterlimit:10;"/><text fill="#000000" font-family="sans-serif" font-size="13" lengthAdjust="spacing" textLength="75.8799" x="1162.6" y="375.7838">configuredBy</text></g><!--link Simulation to InternalState--><g class="link" data-entity-1="ent0010" data-entity-2="ent0011" data-link-type="dependency" data-source-line="75" id="lnk17"><path codeLine="75" d="M284.73,121.27 C258.21,149.15 225.6567,183.3678 196.1867,214.3378" fill="none" id="Simulation-to-InternalState" style="stroke:#181818;stroke-width:1;"/><polygon fill="#181818" points="192.74,217.96,201.8418,214.1975,196.1867,214.3378,196.0464,208.6827,192.74,217.96" style="stroke:#181818;stroke-width:1;stroke-linejoin:miter;stroke-miterlimit:10;"/><text fill="#000000" font-family="sans-serif" font-size="13" lengthAdjust="spacing" textLength="46.2617" x="253.65" y="164.3938">updates</text></g><!--link Simulation to Metrics--><g class="link" data-entity-1="ent0010" data-entity-2="ent0012" data-link-type="dependency" data-source-line="76" id="lnk18"><path codeLine="76" d="M333.47,121.27 C342.33,151.55 353.2355,188.7913 362.6655,221.0113" fill="none" id="Simulation-to-Metrics" style="stroke:#181818;stroke-width:1;"/><polygon fill="#181818" points="364.07,225.81,365.3809,216.0488,362.6655,221.0113,357.703,218.2959,364.07,225.81" style="stroke:#181818;stroke-width:1;stroke-linejoin:miter;stroke-miterlimit:10;"/><text fill="#000000" font-family="sans-serif" font-size="13" lengthAdjust="spacing" textLength="53.479" x="347.65" y="164.3938">produces</text></g><!--reverse link Policy to PauseResumeLogic--><g class="link" data-entity-1="ent0006" data-entity-2="ent0007" data-link-type="composition" data-source-line="78" id="lnk19"><path codeLine="78" d="M755.4262,337.1768 C796.4362,361.9068 833.96,384.54 873.27,408.25" fill="none" id="Policy-backto-PauseResumeLogic" style="stroke:#181818;stroke-width:1;"/><polygon fill="#181818" points="745.15,330.98,748.2225,337.5038,755.4262,337.1768,752.3537,330.653,745.15,330.98" style="stroke:#181818;stroke-width:1;stroke-linejoin:miter;stroke-miterlimit:10;"/><text fill="#000000" font-family="sans-serif" font-size="13" lengthAdjust="spacing" textLength="48.4199" x="821.4" y="375.7838">contains</text></g><!--reverse link Policy to Checkpointing--><g class="link" data-entity-1="ent0006" data-entity-2="ent0008" data-link-type="composition" data-source-line="79" id="lnk20"><path codeLine="79" d="M653,342.98 C653,367.71 653,384.54 653,408.25" fill="none" id="Policy-backto-Checkpointing" style="stroke:#181818;stroke-width:1;"/><polygon fill="#181818" points="653,330.98,649,336.98,653,342.98,657,336.98,653,330.98" style="stroke:#181818;stroke-width:1;stroke-linejoin:miter;stroke-miterlimit:10;"/><text fill="#000000" font-family="sans-serif" font-size="13" lengthAdjust="spacing" textLength="27.46" x="654" y="375.7838">uses</text></g><!--link Checkpointing to TrainingRunProfile--><g class="link" data-entity-1="ent0008" data-entity-2="ent0002" data-link-type="dependency" data-source-line="80" id="lnk21"><path codeLine="80" d="M694.68,505.19 C719.93,533.93 749.3199,567.4038 777.6799,599.6838" fill="none" id="Checkpointing-to-TrainingRunProfile" style="stroke:#181818;stroke-width:1;"/><polygon fill="#181818" points="780.98,603.44,778.0448,594.0387,777.6799,599.6838,772.0348,599.3188,780.98,603.44" style="stroke:#181818;stroke-width:1;stroke-linejoin:miter;stroke-miterlimit:10;"/><text fill="#000000" font-family="sans-serif" font-size="13" lengthAdjust="spacing" textLength="67.2217" x="732.39" y="550.0838">dependsOn</text></g><!--link PauseResumeLogic to GridData--><g class="link" data-entity-1="ent0007" data-entity-2="ent0003" data-link-type="dependency" data-source-line="81" id="lnk22"><path codeLine="81" d="M1083.09,504.54 C1121.26,520.31 1162.27,539.43 1198,560.89 C1229.61,579.87 1257.9193,602.2264 1283.3893,624.4064" fill="none" id="PauseResumeLogic-to-GridData" style="stroke:#181818;stroke-width:1;"/><polygon fill="#181818" points="1287.16,627.69,1282.9997,618.763,1283.3893,624.4064,1277.7459,624.796,1287.16,627.69" style="stroke:#181818;stroke-width:1;stroke-linejoin:miter;stroke-miterlimit:10;"/><text fill="#000000" font-family="sans-serif" font-size="13" lengthAdjust="spacing" textLength="32.519" x="1180.28" y="550.0838">reads</text></g><!--link InternalState to Checkpointing--><g class="link" data-entity-1="ent0011" data-entity-2="ent0008" data-link-type="dependency" data-source-line="82" id="lnk23"><path codeLine="82" d="M226.83,330.9 C242.5,339.58 258.96,347.88 275,354.59 C353.5,387.41 440.7964,411.2127 514.4664,428.1027" fill="none" id="InternalState-to-Checkpointing" style="stroke:#181818;stroke-width:1;"/><polygon fill="#181818" points="519.34,429.22,511.4615,423.3099,514.4664,428.1027,509.6737,431.1076,519.34,429.22" style="stroke:#181818;stroke-width:1;stroke-linejoin:miter;stroke-miterlimit:10;"/><text fill="#000000" font-family="sans-serif" font-size="13" lengthAdjust="spacing" textLength="43.3481" x="335.75" y="375.7838">triggers</text></g><?plantuml-src TLHDJnin4Btlhx1wWRRamZ677We88O68e8YZDNWdkrOSs_NOeH7YltUysTtiHxZam_Dil_VcZS-YZWR5rUFb0juXeBY_Vn1_0cYhRIMUzJOPYDfPSMM0I5nhg09iYyA3sa25uixw54bUEKiHR2JnKGYX6cntobEog-3Mcg_9HI4MOkjADD837qLBeLooiQsK484mokWsQ2UroYVP_9ylU_UEGSPyurAyIiz_RbSlCu27H3W7-CIB8UlaXS-YLt0RT7dDX7hUobrARICpqt4lcKV5nk7VvhZDQzsYqA2AGQkCyVoD6NdpyZI1PQaITg0Dl6cJmMi3LSQ-EMV6J9uLMWZQhR9b635GpodM0QbsffJisr8OJPqnzPuOYQHfLWfOSLFdwzp4mERhBSvhDVzqB0UCt2C46XNT3aEDKCgtL5RSFwzuCtyqCZwFULavezK-voK6PuPnELG6if3jQHjsqcQE42Eoo2y01v5B5XKuXbslyucIGsmvsO5TNmgqQJksUvL1JqXfY_Ukqgfd5PersNl-nStiU7DFsVTIY9y2Ts0IH3olE5TtNOo-BmMeF69Z2bSrgertdBOyYDtzftYFxC-jOyKD7zKVCKMXnL3n2Q_r73XgrxURVwXIPlTjqAh1i_3HQWl9dlkcWnV27wRzGcIT5uBQxBBGRAc9rExXTFhpCl9wyZmCI6C7iaF1WdcEN3lcedrLUB9SnLsWOTGEqmUUdPVlO4nhHzSMK2erpBcCMqsKPw1huIWVasTcmEe1ysWVnu_tIe8TCvenoPVBtlD9aPGBJ6rj7FIkdx511r-frfwAWS-BnQzJ3ofRHpW3zkzMLc1pOcUGTjeuUzuRFQ-VU72QmzQwIW7Bt_lfXd6tZYsTm3hxbZabPLACA5ekFnQB-U0rbqRMJKFOU3XQ4yQBNnfMeaTRqgCjPfTDl0lSDYh6mZ9aUZihgYfsw3y0?></g></svg>