<svg xmlns="http://www.w3.org/2000/svg" xmlns:xlink="http://www.w3.org/1999/xlink" contentStyleType="text/css" data-diagram-type="SEQUENCE" height="753px" preserveAspectRatio="none" style="width:581px;height:753px;background:#FFFFFF;" version="1.1" viewBox="0 0 581 753" width="581px" zoomAndPan="magnify"><defs/><g><g><title>CO. Monitor</title><rect fill="#FFFFFF" height="520.6721" style="stroke:#181818;stroke-width:1;" width="10" x="200.996" y="122.8419"/></g><g><title>Policy Engine</title><rect fill="#FFFFFF" height="488.9661" style="stroke:#181818;stroke-width:1;" width="10" x="350.3371" y="154.5479"/></g><rect fill="none" height="466.9661" style="stroke:#000000;stroke-width:1.5;" width="564.081" x="10" y="169.5479"/><g><title>Scheduler</title><rect fill="#000000" fill-opacity="0.00000" height="564.3781" width="8" x="51.7529" y="89.1358"/><line style="stroke:#181818;stroke-width:0.5;stroke-dasharray:5,5;" x1="55" x2="55" y1="89.1358" y2="653.5139"/></g><g><title>CO. Monitor</title><rect fill="#000000" fill-opacity="0.00000" height="564.3781" width="8" x="201.996" y="89.1358"/><line style="stroke:#181818;stroke-width:0.5;stroke-dasharray:5,5;" x1="205.4662" x2="205.4662" y1="89.1358" y2="653.5139"/></g><g><title>Policy Engine</title><rect fill="#000000" fill-opacity="0.00000" height="564.3781" width="8" x="351.3371" y="89.1358"/><line style="stroke:#181818;stroke-width:0.5;stroke-dasharray:5,5;" x1="354.9023" x2="354.9023" y1="89.1358" y2="653.5139"/></g><g><title>State</title><rect fill="#000000" fill-opacity="0.00000" height="564.3781" width="8" x="496.1672" y="89.1358"/><line style="stroke:#181818;stroke-width:0.5;stroke-dasharray:5,5;" x1="499.2535" x2="499.2535" y1="89.1358" y2="653.5139"/></g><g class="participant participant-head" data-participant="S"><text fill="#000000" font-family="sans-serif" font-size="14" lengthAdjust="spacing" textLength="65.5057" x="20" y="85.0339">Scheduler</text><ellipse cx="55.7529" cy="18.5679" fill="#E2E2F0" rx="8" ry="8" style="stroke:#181818;stroke-width:0.5;"/><path d="M55.7529,26.5679 L55.7529,53.5679 M42.7529,34.5679 L68.7529,34.5679 M55.7529,53.5679 L42.7529,68.5679 M55.7529,53.5679 L68.7529,68.5679" fill="none" style="stroke:#181818;stroke-width:0.5;"/></g><g class="participant participant-tail" data-participant="S"><text fill="#000000" font-family="sans-serif" font-size="14" lengthAdjust="spacing" textLength="65.5057" x="20" y="667.4799">Scheduler</text><ellipse cx="55.7529" cy="680.0818" fill="#E2E2F0" rx="8" ry="8" style="stroke:#181818;stroke-width:0.5;"/><path d="M55.7529,688.0818 L55.7529,715.0818 M42.7529,696.0818 L68.7529,696.0818 M55.7529,715.0818 L42.7529,730.0818 M55.7529,715.0818 L68.7529,730.0818" fill="none" style="stroke:#181818;stroke-width:0.5;"/></g><g class="participant participant-head" data-participant="M"><rect fill="#E2E2F0" height="33.0679" rx="2.5" ry="2.5" style="stroke:#181818;stroke-width:0.5;" width="95.0597" x="158.4662" y="55.0679"/><text fill="#000000" font-family="sans-serif" font-size="14" lengthAdjust="spacing" textLength="81.0597" x="165.4662" y="77.0339">CO&#8322; Monitor</text></g><g class="participant participant-tail" data-participant="M"><rect fill="#E2E2F0" height="33.0679" rx="2.5" ry="2.5" style="stroke:#181818;stroke-width:0.5;" width="95.0597" x="158.4662" y="652.5139"/><text fill="#000000" font-family="sans-serif" font-size="14" lengthAdjust="spacing" textLength="81.0597" x="165.4662" y="674.4799">CO&#8322; Monitor</text></g><g class="participant participant-head" data-participant="P"><rect fill="#E2E2F0" height="33.0679" rx="2.5" ry="2.5" style="stroke:#181818;stroke-width:0.5;" width="100.8696" x="304.9023" y="55.0679"/><text fill="#000000" font-family="sans-serif" font-size="14" lengthAdjust="spacing" textLength="86.8696" x="311.9023" y="77.0339">Policy Engine</text></g><g class="participant participant-tail" data-participant="P"><rect fill="#E2E2F0" height="33.0679" rx="2.5" ry="2.5" style="stroke:#181818;stroke-width:0.5;" width="100.8696" x="304.9023" y="652.5139"/><text fill="#000000" font-family="sans-serif" font-size="14" lengthAdjust="spacing" textLength="86.8696" x="311.9023" y="674.4799">Policy Engine</text></g><g class="participant participant-head" data-participant="DB"><text fill="#000000" font-family="sans-serif" font-size="14" lengthAdjust="spacing" textLength="33.5439" x="480.3953" y="65.9659">State</text><text fill="#000000" font-family="sans-serif" font-size="14" lengthAdjust="spacing" textLength="121.8275" x="436.2535" y="85.0339">(paused / running)</text><path d="M482.1672,15 C482.1672,5 500.1672,5 500.1672,5 C500.1672,5 518.1672,5 518.1672,15 L518.1672,41 C518.1672,51 500.1672,51 500.1672,51 C500.1672,51 482.1672,51 482.1672,41 L482.1672,15" fill="#E2E2F0" style="stroke:#181818;stroke-width:0.5;"/><path d="M482.1672,15 C482.1672,25 500.1672,25 500.1672,25 C500.1672,25 518.1672,25 518.1672,15" fill="none" style="stroke:#181818;stroke-width:0.5;"/></g><g class="participant participant-tail" data-participant="DB"><text fill="#000000" font-family="sans-serif" font-size="14" lengthAdjust="spacing" textLength="33.5439" x="480.3953" y="667.4799">State</text><text fill="#000000" font-family="sans-serif" font-size="14" lengthAdjust="spacing" textLength="121.8275" x="436.2535" y="686.5478">(paused / running)</text><path d="M482.1672,700.6498 C482.1672,690.6498 500.1672,690.6498 500.1672,690.6498 C500.1672,690.6498 518.1672,690.6498 518.1672,700.6498 L518.1672,726.6498 C518.1672,736.6498 500.1672,736.6498 500.1672,736.6498 C500.1672,736.6498 482.1672,736.6498 482.1672,726.6498 L482.1672,700.6498" fill="#E2E2F0" style="stroke:#181818;stroke-width:0.5;"/><path d="M482.1672,700.6498 C482.1672,710.6498 500.1672,710.6498 500.1672,710.6498 C500.1672,710.6498 518.1672,710.6498 518.1672,700.6498" fill="none" style="stroke:#181818;stroke-width:0.5;"/></g><g><title>CO. Monitor</title><rect fill="#FFFFFF" height="520.6721" style="stroke:#181818;stroke-width:1;" width="10" x="200.996" y="122.8419"/></g><g><title>Policy Engine</title><rect fill="#FFFFFF" height="488.9661" style="stroke:#181818;stroke-width:1;" width="10" x="350.3371" y="154.5479"/></g><g class="message" data-participant-1="S" data-participant-2="M"><polygon fill="#181818" points="188.996,118.8419,198.996,122.8419,188.996,126.8419,192.996,122.8419" style="stroke:#181818;stroke-width:1;"/><line style="stroke:#181818;stroke-width:1;" x1="55.7529" x2="194.996" y1="122.8419" y2="122.8419"/><text fill="#000000" font-family="sans-serif" font-size="13" lengthAdjust="spacing" textLength="126.2431" x="62.7529" y="117.0328">Read co2_intensity(t)</text></g><g class="message" data-participant-1="M" data-participant-2="P"><polygon fill="#181818" points="338.3371,150.5479,348.3371,154.5479,338.3371,158.5479,342.3371,154.5479" style="stroke:#181818;stroke-width:1;"/><line style="stroke:#181818;stroke-width:1;" x1="210.996" x2="344.3371" y1="154.5479" y2="154.5479"/><text fill="#000000" font-family="sans-serif" font-size="13" lengthAdjust="spacing" textLength="120.3411" x="217.996" y="148.7389">Evaluate thresholds</text></g><path d="M10,169.5479 L72.303,169.5479 L72.303,179.2539 L62.303,189.2539 L10,189.2539 L10,169.5479" fill="#EEEEEE" style="stroke:#000000;stroke-width:1.5;"/><rect fill="none" height="466.9661" style="stroke:#000000;stroke-width:1.5;" width="564.081" x="10" y="169.5479"/><text fill="#000000" font-family="sans-serif" font-size="13" font-weight="bold" lengthAdjust="spacing" textLength="17.303" x="25" y="184.4449">alt</text><text fill="#000000" font-family="sans-serif" font-size="11" font-weight="bold" lengthAdjust="spacing" textLength="291.4539" x="87.303" y="183.3068">[co2_intensity(t) &gt; theta_pause AND state == running]</text><g class="message" data-participant-1="P" data-participant-2="DB"><polygon fill="#181818" points="488.1672,208.9599,498.1672,212.9599,488.1672,216.9599,492.1672,212.9599" style="stroke:#181818;stroke-width:1;"/><line style="stroke:#181818;stroke-width:1;" x1="360.3371" x2="494.1672" y1="212.9599" y2="212.9599"/><text fill="#000000" font-family="sans-serif" font-size="13" lengthAdjust="spacing" textLength="111.8521" x="367.3371" y="207.1509">Set state = paused</text></g><g class="message" data-participant-1="P" data-participant-2="S"><line style="stroke:#181818;stroke-width:1;" x1="56.7529" x2="66.7529" y1="244.6659" y2="240.6659"/><line style="stroke:#181818;stroke-width:1;" x1="56.7529" x2="66.7529" y1="244.6659" y2="248.6659"/><line style="stroke:#181818;stroke-width:1;stroke-dasharray:2,2;" x1="55.7529" x2="349.3371" y1="244.6659" y2="244.6659"/><text fill="#000000" font-family="sans-serif" font-size="13" lengthAdjust="spacing" textLength="169.7542" x="72.7529" y="238.8569">Trigger Checkpoint &amp; Pause</text></g><path d="M365,257.6659 L365,320.6659 L561,320.6659 L561,267.6659 L551,257.6659 L365,257.6659" fill="#FEFFDD" style="stroke:#181818;stroke-width:0.5;"/><path d="M551,257.6659 L551,267.6659 L561,267.6659 L551,257.6659" fill="#FEFFDD" style="stroke:#181818;stroke-width:0.5;"/><text fill="#000000" font-family="sans-serif" font-size="13" lengthAdjust="spacing" textLength="101.0491" x="371" y="276.5629">Pause condition:</text><text fill="#000000" font-family="sans-serif" font-size="13" lengthAdjust="spacing" textLength="151.2421" x="371" y="294.2689">carbon intensity exceeds</text><text fill="#000000" font-family="sans-serif" font-size="13" lengthAdjust="spacing" textLength="175.7342" x="371" y="311.975">&#952;_pause (e.g. 200 gCO&#8322;/kWh)</text><line style="stroke:#000000;stroke-width:1;stroke-dasharray:2,2;" x1="10" x2="574.081" y1="326.784" y2="326.784"/><text fill="#000000" font-family="sans-serif" font-size="11" font-weight="bold" lengthAdjust="spacing" textLength="296.0959" x="15" y="338.5429">[co2_intensity(t) &lt; theta_resume AND state == paused]</text><g class="message" data-participant-1="P" data-participant-2="DB"><polygon fill="#181818" points="488.1672,362.4719,498.1672,366.4719,488.1672,370.4719,492.1672,366.4719" style="stroke:#181818;stroke-width:1;"/><line style="stroke:#181818;stroke-width:1;" x1="360.3371" x2="494.1672" y1="366.4719" y2="366.4719"/><text fill="#000000" font-family="sans-serif" font-size="13" lengthAdjust="spacing" textLength="115.8301" x="367.3371" y="360.6629">Set state = running</text></g><g class="message" data-participant-1="P" data-participant-2="S"><line style="stroke:#181818;stroke-width:1;" x1="56.7529" x2="66.7529" y1="398.1779" y2="394.1779"/><line style="stroke:#181818;stroke-width:1;" x1="56.7529" x2="66.7529" y1="398.1779" y2="402.1779"/><line style="stroke:#181818;stroke-width:1;stroke-dasharray:2,2;" x1="55.7529" x2="349.3371" y1="398.1779" y2="398.1779"/><text fill="#000000" font-family="sans-serif" font-size="13" lengthAdjust="spacing" textLength="103.2071" x="72.7529" y="392.3689">Resume Training</text></g><path d="M365,411.1779 L365,491.1779 L563,491.1779 L563,421.1779 L553,411.1779 L365,411.1779" fill="#FEFFDD" style="stroke:#181818;stroke-width:0.5;"/><path d="M553,411.1779 L553,421.1779 L563,421.1779 L553,411.1779" fill="#FEFFDD" style="stroke:#181818;stroke-width:0.5;"/><text fill="#000000" font-family="sans-serif" font-size="13" lengthAdjust="spacing" textLength="113.4641" x="371" y="430.0749">Resume condition:</text><text fill="#000000" font-family="sans-serif" font-size="13" lengthAdjust="spacing" textLength="177.5022" x="371" y="447.7809">carbon intensity drops below</text><text fill="#000000" font-family="sans-serif" font-size="13" lengthAdjust="spacing" textLength="59.943" x="371" y="465.4869">&#952;_resume</text><text fill="#000000" font-family="sans-serif" font-size="13" lengthAdjust="spacing" textLength="114.1791" x="371" y="483.1929">e.g. 180 gCO&#8322;/kWh</text><line style="stroke:#000000;stroke-width:1;stroke-dasharray:2,2;" x1="10" x2="574.081" y1="498.002" y2="498.002"/><text fill="#000000" font-family="sans-serif" font-size="11" font-weight="bold" lengthAdjust="spacing" textLength="264.5239" x="15" y="509.7609">[theta_resume &#8804; co2_intensity(t) &#8804; theta_pause]</text><g class="message" data-participant-1="P" data-participant-2="S"><line style="stroke:#181818;stroke-width:1;" x1="56.7529" x2="66.7529" y1="537.6899" y2="533.6899"/><line style="stroke:#181818;stroke-width:1;" x1="56.7529" x2="66.7529" y1="537.6899" y2="541.6899"/><line style="stroke:#181818;stroke-width:1;stroke-dasharray:2,2;" x1="55.7529" x2="349.3371" y1="537.6899" y2="537.6899"/><text fill="#000000" font-family="sans-serif" font-size="13" lengthAdjust="spacing" textLength="99.6711" x="72.7529" y="531.8809">No state change</text></g><path d="M365,550.6899 L365,630.6899 L549,630.6899 L549,560.6899 L539,550.6899 L365,550.6899" fill="#FEFFDD" style="stroke:#181818;stroke-width:0.5;"/><path d="M539,550.6899 L539,560.6899 L549,560.6899 L539,550.6899" fill="#FEFFDD" style="stroke:#181818;stroke-width:0.5;"/><text fill="#000000" font-family="sans-serif" font-size="13" lengthAdjust="spacing" textLength="100.5551" x="371" y="569.5869">Hysteresis Zone:</text><text fill="#000000" font-family="sans-serif" font-size="13" lengthAdjust="spacing" textLength="163.0982" x="371" y="587.2929">System holds current state</text><text fill="#000000" font-family="sans-serif" font-size="13" lengthAdjust="spacing" textLength="139.1001" x="371" y="604.9989">to avoid rapid toggling</text><text fill="#000000" font-family="sans-serif" font-size="13" lengthAdjust="spacing" textLength="115.7391" x="371" y="622.7049">(flutter prevention)</text><!--SRC=[XPD1Rjim44NtFCN0YzPUE4wpAep6G6q7wA9EXIX0WQ90G9CJYZ1D2YHbrzliUeyUegVe8NAIZYYvaQe2rK8GPpx9_sP6hwEE1k73AKJq67IOBdb02Hcl0ixkC5HxX8zEQS5Os6bRSi_tiELYfxohh5mvupmS2nsnamy5b-wehO97RW8onaKaMIuAb9L13pn0pXY9enQwv3R2QFNf-Ua9DivgaevgnQOlo9pHuWGtLccBIP0noIFVac4OvP57_6h7PMrSmWnyPIqvc2JbUibO3jC5REPmXro2S5SFsaQqGSVJE4vgX_f0Hz2jR5ChipdS7BYfwbWig3Q5CpAyw3AYCd5m42n8ZP4_92Fm_dODeRO6rzTdImmWgszOB-UGOppdeR7UPAUB1UHpkFTQAQhNga2nAnrT1A-Qtf3CEjf6WYAI6Q0d9SYHbJfgP-SfABZVEWj_F09-4uX4KYT__MnzZl52NS3LvIMer8ZPxdCn8GbQcUvX34qw-o_QTosjRoQbXzlb6TBsYj7YjlDsxxbkSmF6Ll8_IEbT6M2BnXtFe8t5j4gmRzvsOOUiFR3dxp-6y7Mmq-mUogrhIKN1hVfdkrv-ElZYB3OaUHtSGnes49NtQDkQfNHqm0zEI_2yf7TqIfccKW3ZHrD5EX5AZmVQHjNfjP0-69FOcU3EOiD-0m00]--></g></svg>