<svg xmlns="http://www.w3.org/2000/svg" xmlns:xlink="http://www.w3.org/1999/xlink" contentStyleType="text/css" data-diagram-type="ACTIVITY" height="1076px" preserveAspectRatio="none" style="width:531px;height:1076px;background:#FFFFFF;" version="1.1" viewBox="0 0 531 1076" width="531px" zoomAndPan="magnify"><defs/><g><ellipse cx="255.6424" cy="20" fill="#2FB344" rx="10" ry="10" style="stroke:#222222;stroke-width:1;"/><rect fill="#F7F9FB" height="36.3441" rx="12.5" ry="12.5" style="stroke:#2E3A46;stroke-width:0.5;" width="121.5567" x="194.8641" y="50"/><text fill="#000000" font-family="sans-serif" font-size="12" lengthAdjust="spacing" textLength="101.5567" x="204.8641" y="72.8281">Initialize sim state</text><rect fill="#F7F9FB" height="36.3441" rx="12.5" ry="12.5" style="stroke:#2E3A46;stroke-width:0.5;" width="202.3173" x="154.4838" y="106.3441"/><text fill="#000000" font-family="sans-serif" font-size="12" lengthAdjust="spacing" textLength="182.3173" x="164.4838" y="129.1722">Compute baseline (never-pause)</text><rect fill="none" height="814.3118" style="stroke:#000000;stroke-width:1.5;" width="509.7509" x="11" y="152.6882"/><path d="M133.1816,152.6882 L133.1816,164.7561 L123.1816,174.7561 L11,174.7561" fill="none" style="stroke:#000000;stroke-width:1.5;"/><text fill="#000000" font-family="sans-serif" font-size="14" lengthAdjust="spacing" textLength="112.1816" x="14" y="168.6542">Grid Replay Loop</text><rect fill="#F7F9FB" height="36.3441" rx="12.5" ry="12.5" style="stroke:#2E3A46;stroke-width:0.5;" width="136.5328" x="187.376" y="235.7561"/><text fill="#000000" font-family="sans-serif" font-size="12" lengthAdjust="spacing" textLength="116.5328" x="197.376" y="258.5842">Read co2_intensity(t)</text><polygon fill="#FFF3BF" points="201.2478,292.1003,310.037,292.1003,322.037,304.1003,310.037,316.1003,201.2478,316.1003,189.2478,304.1003,201.2478,292.1003" style="stroke:#B08900;stroke-width:0.5;"/><text fill="#000000" font-family="sans-serif" font-size="11" lengthAdjust="spacing" textLength="108.7892" x="201.2478" y="308.3682">co2(t) &gt; theta_pause?</text><text fill="#000000" font-family="sans-serif" font-size="11" lengthAdjust="spacing" textLength="31.2068" x="158.041" y="300.8773">pause</text><text fill="#000000" font-family="sans-serif" font-size="11" lengthAdjust="spacing" textLength="45.3417" x="322.037" y="300.8773">continue</text><rect fill="#F7F9FB" height="36.3441" rx="12.5" ry="12.5" style="stroke:#2E3A46;stroke-width:0.5;" width="111.8847" x="96.1922" y="375.5912"/><text fill="#000000" font-family="sans-serif" font-size="12" lengthAdjust="spacing" textLength="91.8847" x="106.1922" y="398.4193">Checkpoint save</text><rect fill="#F7F9FB" height="36.3441" rx="12.5" ry="12.5" style="stroke:#2E3A46;stroke-width:0.5;" width="125.7207" x="89.2742" y="446.9353"/><text fill="#000000" font-family="sans-serif" font-size="12" lengthAdjust="spacing" textLength="105.7207" x="99.2742" y="469.7634">Enter paused state</text><polygon fill="#FFF3BF" points="100.0389,326.1003,204.2302,326.1003,216.2302,338.1003,204.2302,350.1003,100.0389,350.1003,88.0389,338.1003,100.0389,326.1003" style="stroke:#B08900;stroke-width:0.5;"/><text fill="#000000" font-family="sans-serif" font-size="11" lengthAdjust="spacing" textLength="17.0829" x="156.1346" y="361.8592">yes</text><text fill="#000000" font-family="sans-serif" font-size="11" lengthAdjust="spacing" textLength="104.1913" x="100.0389" y="342.3682">not already paused?</text><polygon fill="#FFF3BF" points="152.1346,503.2794,164.1346,515.2794,152.1346,527.2794,140.1346,515.2794,152.1346,503.2794" style="stroke:#B08900;stroke-width:0.5;"/><rect fill="#F7F9FB" height="36.3441" rx="12.5" ry="12.5" style="stroke:#2E3A46;stroke-width:0.5;" width="112.3766" x="302.962" y="375.5912"/><text fill="#000000" font-family="sans-serif" font-size="12" lengthAdjust="spacing" textLength="92.3766" x="312.962" y="398.4193">Load checkpoint</text><rect fill="#F7F9FB" height="36.3441" rx="12.5" ry="12.5" style="stroke:#2E3A46;stroke-width:0.5;" width="128.7208" x="294.7899" y="446.9353"/><text fill="#000000" font-family="sans-serif" font-size="12" lengthAdjust="spacing" textLength="108.7208" x="304.7899" y="469.7634">Enter training state</text><polygon fill="#FFF3BF" points="268.9949,326.1003,449.3056,326.1003,461.3056,338.1003,449.3056,350.1003,268.9949,350.1003,256.9949,338.1003,268.9949,326.1003" style="stroke:#B08900;stroke-width:0.5;"/><text fill="#000000" font-family="sans-serif" font-size="11" lengthAdjust="spacing" textLength="39.3027" x="363.1503" y="361.8592">resume</text><text fill="#000000" font-family="sans-serif" font-size="11" lengthAdjust="spacing" textLength="180.3107" x="268.9949" y="342.3682">paused and co2(t) &lt; theta_resume?</text><polygon fill="#FFF3BF" points="359.1503,503.2794,371.1503,515.2794,359.1503,527.2794,347.1503,515.2794,359.1503,503.2794" style="stroke:#B08900;stroke-width:0.5;"/><polygon fill="#FFF3BF" points="255.6424,533.2794,267.6424,545.2794,255.6424,557.2794,243.6424,545.2794,255.6424,533.2794" style="stroke:#B08900;stroke-width:0.5;"/><polygon fill="#FFF3BF" points="227.7741,577.2794,283.5107,577.2794,295.5107,589.2794,283.5107,601.2794,227.7741,601.2794,215.7741,589.2794,227.7741,577.2794" style="stroke:#B08900;stroke-width:0.5;"/><text fill="#000000" font-family="sans-serif" font-size="11" lengthAdjust="spacing" textLength="55.7366" x="227.7741" y="593.5474">is_paused?</text><text fill="#000000" font-family="sans-serif" font-size="11" lengthAdjust="spacing" textLength="17.0829" x="198.6913" y="586.0565">yes</text><text fill="#000000" font-family="sans-serif" font-size="11" lengthAdjust="spacing" textLength="13.4529" x="295.5107" y="586.0565">no</text><rect fill="#F7F9FB" height="36.3441" rx="12.5" ry="12.5" style="stroke:#2E3A46;stroke-width:0.5;" width="163.641" x="51.8842" y="611.2794"/><text fill="#000000" font-family="sans-serif" font-size="12" lengthAdjust="spacing" textLength="143.641" x="61.8842" y="634.1075">Accumulate idle wall time</text><rect fill="#F7F9FB" height="36.3441" rx="12.5" ry="12.5" style="stroke:#2E3A46;stroke-width:0.5;" width="221.4094" x="23" y="667.6235"/><text fill="#000000" font-family="sans-serif" font-size="12" lengthAdjust="spacing" textLength="201.4094" x="33" y="690.4516">Add idle energy (gpu_power_pause)</text><rect fill="#F7F9FB" height="36.3441" rx="12.5" ry="12.5" style="stroke:#2E3A46;stroke-width:0.5;" width="168.6811" x="293.2396" y="611.2794"/><text fill="#000000" font-family="sans-serif" font-size="12" lengthAdjust="spacing" textLength="148.6811" x="303.2396" y="634.1075">Advance training progress</text><rect fill="#F7F9FB" height="36.3441" rx="12.5" ry="12.5" style="stroke:#2E3A46;stroke-width:0.5;" width="226.3414" x="264.4094" y="667.6235"/><text fill="#000000" font-family="sans-serif" font-size="12" lengthAdjust="spacing" textLength="206.3414" x="274.4094" y="690.4516">Add active energy (gpu_power_train)</text><rect fill="#F7F9FB" height="36.3441" rx="12.5" ry="12.5" style="stroke:#2E3A46;stroke-width:0.5;" width="145.3889" x="304.8857" y="723.9677"/><text fill="#000000" font-family="sans-serif" font-size="12" lengthAdjust="spacing" textLength="125.3889" x="314.8857" y="746.7958">Accumulate emissions</text><polygon fill="#FFF3BF" points="255.6424,766.3118,267.6424,778.3118,255.6424,790.3118,243.6424,778.3118,255.6424,766.3118" style="stroke:#B08900;stroke-width:0.5;"/><rect fill="#F7F9FB" height="36.3441" rx="12.5" ry="12.5" style="stroke:#2E3A46;stroke-width:0.5;" width="153.2849" x="179" y="810.3118"/><text fill="#000000" font-family="sans-serif" font-size="12" lengthAdjust="spacing" textLength="133.2849" x="189" y="833.1399">Advance wall time by dt</text><rect fill="#F7F9FB" height="36.3441" rx="12.5" ry="12.5" style="stroke:#2E3A46;stroke-width:0.5;" width="184.4612" x="163.4118" y="866.6559"/><text fill="#000000" font-family="sans-serif" font-size="12" lengthAdjust="spacing" textLength="164.4612" x="173.4118" y="889.484">Advance to next timestep t+1</text><polygon fill="#FFF3BF" points="255.6424,191.7561,267.6424,203.7561,255.6424,215.7561,243.6424,203.7561,255.6424,191.7561" style="stroke:#B08900;stroke-width:0.5;"/><polygon fill="#FFF3BF" points="200.0433,923,311.2415,923,323.2415,935,311.2415,947,200.0433,947,188.0433,935,200.0433,923" style="stroke:#B08900;stroke-width:0.5;"/><text fill="#000000" font-family="sans-serif" font-size="11" lengthAdjust="spacing" textLength="13.4529" x="259.6424" y="958.7589">no</text><text fill="#000000" font-family="sans-serif" font-size="11" lengthAdjust="spacing" textLength="111.1982" x="200.0433" y="939.268">tokens_remaining &gt; 0</text><text fill="#000000" font-family="sans-serif" font-size="11" lengthAdjust="spacing" textLength="17.0829" x="323.2415" y="931.777">yes</text><rect fill="#F7F9FB" height="36.3441" rx="12.5" ry="12.5" style="stroke:#2E3A46;stroke-width:0.5;" width="248.6616" x="131.3116" y="987"/><text fill="#000000" font-family="sans-serif" font-size="12" lengthAdjust="spacing" textLength="228.6616" x="141.3116" y="1009.8281">Compute KPIs (savings, overhead, score)</text><ellipse cx="255.6424" cy="1054.3441" fill="none" rx="11" ry="11" style="stroke:#222222;stroke-width:1;"/><ellipse cx="255.6424" cy="1054.3441" fill="#222222" rx="6" ry="6" style="stroke:#222222;stroke-width:1;"/><line style="stroke:#181818;stroke-width:1;" x1="255.6424" x2="255.6424" y1="30" y2="50"/><polygon fill="#181818" points="251.6424,40,255.6424,50,259.6424,40,255.6424,44" style="stroke:#181818;stroke-width:1;"/><line style="stroke:#181818;stroke-width:1;" x1="255.6424" x2="255.6424" y1="86.3441" y2="106.3441"/><polygon fill="#181818" points="251.6424,96.3441,255.6424,106.3441,259.6424,96.3441,255.6424,100.3441" style="stroke:#181818;stroke-width:1;"/><line style="stroke:#181818;stroke-width:1;" x1="152.1346" x2="152.1346" y1="411.9353" y2="446.9353"/><polygon fill="#181818" points="148.1346,436.9353,152.1346,446.9353,156.1346,436.9353,152.1346,440.9353" style="stroke:#181818;stroke-width:1;"/><line style="stroke:#181818;stroke-width:1;" x1="152.1346" x2="152.1346" y1="350.1003" y2="375.5912"/><polygon fill="#181818" points="148.1346,365.5912,152.1346,375.5912,156.1346,365.5912,152.1346,369.5912" style="stroke:#181818;stroke-width:1;"/><line style="stroke:#181818;stroke-width:1;" x1="216.2302" x2="228.2302" y1="338.1003" y2="338.1003"/><polygon fill="#181818" points="224.2302,419.4353,228.2302,429.4353,232.2302,419.4353,228.2302,423.4353" style="stroke:#181818;stroke-width:1;"/><line style="stroke:#181818;stroke-width:1;" x1="228.2302" x2="228.2302" y1="338.1003" y2="515.2794"/><line style="stroke:#181818;stroke-width:1;" x1="228.2302" x2="164.1346" y1="515.2794" y2="515.2794"/><polygon fill="#181818" points="174.1346,511.2794,164.1346,515.2794,174.1346,519.2794,170.1346,515.2794" style="stroke:#181818;stroke-width:1;"/><line style="stroke:#181818;stroke-width:1;" x1="152.1346" x2="152.1346" y1="483.2794" y2="503.2794"/><polygon fill="#181818" points="148.1346,493.2794,152.1346,503.2794,156.1346,493.2794,152.1346,497.2794" style="stroke:#181818;stroke-width:1;"/><line style="stroke:#181818;stroke-width:1;" x1="359.1503" x2="359.1503" y1="411.9353" y2="446.9353"/><polygon fill="#181818" points="355.1503,436.9353,359.1503,446.9353,363.1503,436.9353,359.1503,440.9353" style="stroke:#181818;stroke-width:1;"/><line style="stroke:#181818;stroke-width:1;" x1="359.1503" x2="359.1503" y1="350.1003" y2="375.5912"/><polygon fill="#181818" points="355.1503,365.5912,359.1503,375.5912,363.1503,365.5912,359.1503,369.5912" style="stroke:#181818;stroke-width:1;"/><line style="stroke:#181818;stroke-width:1;" x1="461.3056" x2="473.3056" y1="338.1003" y2="338.1003"/><polygon fill="#181818" points="469.3056,419.4353,473.3056,429.4353,477.3056,419.4353,473.3056,423.4353" style="stroke:#181818;stroke-width:1;"/><line style="stroke:#181818;stroke-width:1;" x1="473.3056" x2="473.3056" y1="338.1003" y2="515.2794"/><line style="stroke:#181818;stroke-width:1;" x1="473.3056" x2="371.1503" y1="515.2794" y2="515.2794"/><polygon fill="#181818" points="381.1503,511.2794,371.1503,515.2794,381.1503,519.2794,377.1503,515.2794" style="stroke:#181818;stroke-width:1;"/><line style="stroke:#181818;stroke-width:1;" x1="359.1503" x2="359.1503" y1="483.2794" y2="503.2794"/><polygon fill="#181818" points="355.1503,493.2794,359.1503,503.2794,363.1503,493.2794,359.1503,497.2794" style="stroke:#181818;stroke-width:1;"/><line style="stroke:#181818;stroke-width:1;" x1="189.2478" x2="152.1346" y1="304.1003" y2="304.1003"/><line style="stroke:#181818;stroke-width:1;" x1="152.1346" x2="152.1346" y1="304.1003" y2="326.1003"/><polygon fill="#181818" points="148.1346,316.1003,152.1346,326.1003,156.1346,316.1003,152.1346,320.1003" style="stroke:#181818;stroke-width:1;"/><line style="stroke:#181818;stroke-width:1;" x1="322.037" x2="359.1503" y1="304.1003" y2="304.1003"/><line style="stroke:#181818;stroke-width:1;" x1="359.1503" x2="359.1503" y1="304.1003" y2="326.1003"/><polygon fill="#181818" points="355.1503,316.1003,359.1503,326.1003,363.1503,316.1003,359.1503,320.1003" style="stroke:#181818;stroke-width:1;"/><line style="stroke:#181818;stroke-width:1;" x1="152.1346" x2="152.1346" y1="527.2794" y2="545.2794"/><line style="stroke:#181818;stroke-width:1;" x1="152.1346" x2="243.6424" y1="545.2794" y2="545.2794"/><polygon fill="#181818" points="233.6424,541.2794,243.6424,545.2794,233.6424,549.2794,237.6424,545.2794" style="stroke:#181818;stroke-width:1;"/><line style="stroke:#181818;stroke-width:1;" x1="359.1503" x2="359.1503" y1="527.2794" y2="545.2794"/><line style="stroke:#181818;stroke-width:1;" x1="359.1503" x2="267.6424" y1="545.2794" y2="545.2794"/><polygon fill="#181818" points="277.6424,541.2794,267.6424,545.2794,277.6424,549.2794,273.6424,545.2794" style="stroke:#181818;stroke-width:1;"/><line style="stroke:#181818;stroke-width:1;" x1="255.6424" x2="255.6424" y1="272.1003" y2="292.1003"/><polygon fill="#181818" points="251.6424,282.1003,255.6424,292.1003,259.6424,282.1003,255.6424,286.1003" style="stroke:#181818;stroke-width:1;"/><line style="stroke:#181818;stroke-width:1;" x1="133.7047" x2="133.7047" y1="647.6235" y2="667.6235"/><polygon fill="#181818" points="129.7047,657.6235,133.7047,667.6235,137.7047,657.6235,133.7047,661.6235" style="stroke:#181818;stroke-width:1;"/><line style="stroke:#181818;stroke-width:1;" x1="377.5801" x2="377.5801" y1="647.6235" y2="667.6235"/><polygon fill="#181818" points="373.5801,657.6235,377.5801,667.6235,381.5801,657.6235,377.5801,661.6235" style="stroke:#181818;stroke-width:1;"/><line style="stroke:#181818;stroke-width:1;" x1="377.5801" x2="377.5801" y1="703.9677" y2="723.9677"/><polygon fill="#181818" points="373.5801,713.9677,377.5801,723.9677,381.5801,713.9677,377.5801,717.9677" style="stroke:#181818;stroke-width:1;"/><line style="stroke:#181818;stroke-width:1;" x1="215.7741" x2="133.7047" y1="589.2794" y2="589.2794"/><line style="stroke:#181818;stroke-width:1;" x1="133.7047" x2="133.7047" y1="589.2794" y2="611.2794"/><polygon fill="#181818" points="129.7047,601.2794,133.7047,611.2794,137.7047,601.2794,133.7047,605.2794" style="stroke:#181818;stroke-width:1;"/><line style="stroke:#181818;stroke-width:1;" x1="295.5107" x2="377.5801" y1="589.2794" y2="589.2794"/><line style="stroke:#181818;stroke-width:1;" x1="377.5801" x2="377.5801" y1="589.2794" y2="611.2794"/><polygon fill="#181818" points="373.5801,601.2794,377.5801,611.2794,381.5801,601.2794,377.5801,605.2794" style="stroke:#181818;stroke-width:1;"/><line style="stroke:#181818;stroke-width:1;" x1="133.7047" x2="133.7047" y1="703.9677" y2="778.3118"/><line style="stroke:#181818;stroke-width:1;" x1="133.7047" x2="243.6424" y1="778.3118" y2="778.3118"/><polygon fill="#181818" points="233.6424,774.3118,243.6424,778.3118,233.6424,782.3118,237.6424,778.3118" style="stroke:#181818;stroke-width:1;"/><line style="stroke:#181818;stroke-width:1;" x1="377.5801" x2="377.5801" y1="760.3118" y2="778.3118"/><line style="stroke:#181818;stroke-width:1;" x1="377.5801" x2="267.6424" y1="778.3118" y2="778.3118"/><polygon fill="#181818" points="277.6424,774.3118,267.6424,778.3118,277.6424,782.3118,273.6424,778.3118" style="stroke:#181818;stroke-width:1;"/><line style="stroke:#181818;stroke-width:1;" x1="255.6424" x2="255.6424" y1="557.2794" y2="577.2794"/><polygon fill="#181818" points="251.6424,567.2794,255.6424,577.2794,259.6424,567.2794,255.6424,571.2794" style="stroke:#181818;stroke-width:1;"/><line style="stroke:#181818;stroke-width:1;" x1="255.6424" x2="255.6424" y1="790.3118" y2="810.3118"/><polygon fill="#181818" points="251.6424,800.3118,255.6424,810.3118,259.6424,800.3118,255.6424,804.3118" style="stroke:#181818;stroke-width:1;"/><line style="stroke:#181818;stroke-width:1;" x1="255.6424" x2="255.6424" y1="846.6559" y2="866.6559"/><polygon fill="#181818" points="251.6424,856.6559,255.6424,866.6559,259.6424,856.6559,255.6424,860.6559" style="stroke:#181818;stroke-width:1;"/><line style="stroke:#181818;stroke-width:1;" x1="255.6424" x2="255.6424" y1="215.7561" y2="235.7561"/><polygon fill="#181818" points="251.6424,225.7561,255.6424,235.7561,259.6424,225.7561,255.6424,229.7561" style="stroke:#181818;stroke-width:1;"/><line style="stroke:#181818;stroke-width:1;" x1="323.2415" x2="504.7509" y1="935" y2="935"/><polygon fill="#181818" points="500.7509,591.6326,504.7509,581.6326,508.7509,591.6326,504.7509,587.6326" style="stroke:#181818;stroke-width:1;"/><line style="stroke:#181818;stroke-width:1;" x1="504.7509" x2="504.7509" y1="203.7561" y2="935"/><line style="stroke:#181818;stroke-width:1;" x1="504.7509" x2="267.6424" y1="203.7561" y2="203.7561"/><polygon fill="#181818" points="277.6424,199.7561,267.6424,203.7561,277.6424,207.7561,273.6424,203.7561" style="stroke:#181818;stroke-width:1;"/><line style="stroke:#181818;stroke-width:1;" x1="255.6424" x2="255.6424" y1="903" y2="923"/><polygon fill="#181818" points="251.6424,913,255.6424,923,259.6424,913,255.6424,917" style="stroke:#181818;stroke-width:1;"/><line style="stroke:#181818;stroke-width:1;" x1="255.6424" x2="255.6424" y1="142.6882" y2="191.7561"/><polygon fill="#181818" points="251.6424,181.7561,255.6424,191.7561,259.6424,181.7561,255.6424,185.7561" style="stroke:#181818;stroke-width:1;"/><line style="stroke:#181818;stroke-width:1;" x1="255.6424" x2="255.6424" y1="947" y2="987"/><polygon fill="#181818" points="251.6424,977,255.6424,987,259.6424,977,255.6424,981" style="stroke:#181818;stroke-width:1;"/><line style="stroke:#181818;stroke-width:1;" x1="255.6424" x2="255.6424" y1="1023.3441" y2="1043.3441"/><polygon fill="#181818" points="251.6424,1033.3441,255.6424,1043.3441,259.6424,1033.3441,255.6424,1037.3441" style="stroke:#181818;stroke-width:1;"/><!--SRC=[TLJRRjim37ttLn3jmnoi0xAcovfaw12dyL2i3qFt0O5gCOaGMn8aEfbNxDz7ouxZtjva7VBm78hq1rWOX_33AGaFQ7DHmRqnDehyJcahd2ZWKMIxZJEbbWkJ6mU7hIBiuNuhf3aelO6ro7qV4HcflQ8AdYA0n3Y9hg4ulroEvbVZ-lO5-NdwDPsaIK2EmL-IwpITyDLl4ewE36aokhhYosMNUZiUZSOBlhfLeZ1QlkPEqr6IzWBwafBXzMGuZFwnzRfC54tlj28bSlKNmIlsIO9m5aqNfh0b8VV5OwuqGgnnZ-wJ5QN7mInYxyI9HiFPoxQUXKuuj2Y83m3J1nGICdEvKffGUsvMJCmHGBM6c26-W1kWBP9OXHhV1_MNXhYf66ARQ6q8HEwOiu80oYwsGd-CvBABBMOxQxWeUB5dLnsoP1skJJvQRY3KKgt36VcPQscQb2wV2MZpX0wcQkNVMkKEVLcSf3UVFKNtfcv49-kL8d92wNh8tjCKJbtVb5-ztu3fFClAeioP29JC4GuYpu5KqV5Evr8s46fqcmhYZIrNrXpGhOxlVEg4DYTckHSwmvDSwyo6pVfdp64ntk8EQOFP6pgnKDxpKBL4FRjTpSu5F5OWsnQU51dG-8T2W2UqG1y_Xq5hnh5UQxORazdn7F9p5Qs16nWEGFccWL1FMF3BUz9jmizVTupp876ylm33sx3b6Rm0d_7FfHvdJ_nF-Gy0]--></g></svg>