<svg xmlns="http://www.w3.org/2000/svg" xmlns:xlink="http://www.w3.org/1999/xlink" contentStyleType="text/css" data-diagram-type="ACTIVITY" height="2388px" preserveAspectRatio="none" style="width:1367px;height:2388px;background:#FFFFFF;" version="1.1" viewBox="0 0 1367 2388" width="1367px" zoomAndPan="magnify"><title>CO2-aware LLM Training Simulation Run</title><defs/><g><g class="title" data-source-line="1"><text fill="#000000" font-family="sans-serif" font-size="14" font-weight="bold" lengthAdjust="spacing" textLength="280.181" x="541.9159" y="34.9659">CO2-aware LLM Training Simulation Run</text></g><ellipse cx="863.083" cy="60.0679" fill="#2FB344" rx="10" ry="10" style="stroke:#222222;stroke-width:1;"/><rect fill="none" height="557.6504" style="stroke:#000000;stroke-width:1.5;" width="601.0284" x="754.9843" y="80.0679"/><path d="M843.664,80.0679 L843.664,92.1358 L833.664,102.1358 L754.9843,102.1358" fill="none" style="stroke:#000000;stroke-width:1.5;"/><text fill="#000000" font-family="sans-serif" font-size="14" lengthAdjust="spacing" textLength="78.6797" x="757.9843" y="96.0339">Study Setup</text><path d="M961.2855,112.1358 L961.2855,201.6659 L941.2855,205.6659 L961.2855,209.6659 L961.2855,299.196 A0,0 0 0 0 961.2855,299.196 L1202.3756,299.196 A0,0 0 0 0 1202.3756,299.196 L1202.3756,122.1358 L1192.3756,112.1358 L961.2855,112.1358 A0,0 0 0 0 961.2855,112.1358" fill="#FEFFDD" style="stroke:#181818;stroke-width:0.5;"/><path d="M1192.3756,112.1358 L1192.3756,122.1358 L1202.3756,122.1358 L1192.3756,112.1358" fill="#FEFFDD" style="stroke:#181818;stroke-width:0.5;"/><text fill="#000000" font-family="sans-serif" font-size="13" lengthAdjust="spacing" textLength="150.6311" x="967.2855" y="131.0328">class TrainingRunProfile:</text><text fill="#000000" font-family="sans-serif" font-size="13" lengthAdjust="spacing" textLength="102.4401" x="974.0455" y="148.7389">model_name: str</text><text fill="#000000" font-family="sans-serif" font-size="13" lengthAdjust="spacing" textLength="113.7501" x="974.0455" y="166.4449">model_params: int</text><text fill="#000000" font-family="sans-serif" font-size="13" lengthAdjust="spacing" textLength="115.3361" x="974.0455" y="184.1509">dataset_tokens: int</text><text fill="#000000" font-family="sans-serif" font-size="13" lengthAdjust="spacing" textLength="87.6071" x="974.0455" y="201.8569">gpu_count: int</text><text fill="#000000" font-family="sans-serif" font-size="13" lengthAdjust="spacing" textLength="137.6311" x="974.0455" y="219.5629">gpu_power_train: float</text><text fill="#000000" font-family="sans-serif" font-size="13" lengthAdjust="spacing" textLength="145.7691" x="974.0455" y="237.2689">gpu_power_pause: float</text><text fill="#000000" font-family="sans-serif" font-size="13" lengthAdjust="spacing" textLength="57.9021" x="974.0455" y="254.975">pue: float</text><text fill="#000000" font-family="sans-serif" font-size="13" lengthAdjust="spacing" textLength="198.1722" x="974.0455" y="272.681">checkpoint_overhead_time: float</text><text fill="#000000" font-family="sans-serif" font-size="13" lengthAdjust="spacing" textLength="213.3302" x="974.0455" y="290.387">checkpoint_overhead_energy: float</text><rect fill="#F7F9FB" height="36.3441" rx="12.5" ry="12.5" style="stroke:#2E3A46;stroke-width:0.5;" width="156.405" x="784.8805" y="187.4939"/><text fill="#000000" font-family="sans-serif" font-size="12" lengthAdjust="spacing" textLength="136.405" x="794.8805" y="210.3219">Load TrainingRunProfile</text><path d="M965.4975,309.196 L965.4975,381.0201 L945.4975,385.0201 L965.4975,389.0201 L965.4975,460.8441 A0,0 0 0 0 965.4975,460.8441 L1346.0127,460.8441 A0,0 0 0 0 1346.0127,460.8441 L1346.0127,319.196 L1336.0127,309.196 L965.4975,309.196 A0,0 0 0 0 965.4975,309.196" fill="#FEFFDD" style="stroke:#181818;stroke-width:0.5;"/><path d="M1336.0127,309.196 L1336.0127,319.196 L1346.0127,319.196 L1336.0127,309.196" fill="#FEFFDD" style="stroke:#181818;stroke-width:0.5;"/><text fill="#000000" font-family="sans-serif" font-size="13" lengthAdjust="spacing" textLength="159.7571" x="971.4975" y="328.093">class ScenarioParameters:</text><text fill="#000000" font-family="sans-serif" font-size="13" lengthAdjust="spacing" textLength="202.2672" x="978.2575" y="345.799">region: str  # e.g., "DE", "ES", "FR"</text><text fill="#000000" font-family="sans-serif" font-size="13" lengthAdjust="spacing" textLength="123.2921" x="978.2575" y="363.505">start_time: datetime</text><text fill="#000000" font-family="sans-serif" font-size="13" lengthAdjust="spacing" textLength="235.6642" x="978.2575" y="381.2111">pause_threshold: float  # gCO2eq/kWh</text><text fill="#000000" font-family="sans-serif" font-size="13" lengthAdjust="spacing" textLength="245.5052" x="978.2575" y="398.9171">hysteresis_margin: float  # gCO2eq/kWh</text><text fill="#000000" font-family="sans-serif" font-size="13" lengthAdjust="spacing" textLength="271.2193" x="978.2575" y="416.6231">pause_granularity: enum (Batch, Epoch, etc.)</text><text fill="#000000" font-family="sans-serif" font-size="13" lengthAdjust="spacing" textLength="181.7012" x="978.2575" y="434.3291">historical_year: int # e.g. 2024</text><text fill="#000000" font-family="sans-serif" font-size="13" lengthAdjust="spacing" textLength="352.7552" x="978.2575" y="452.0351">overhead_budget_pct: float # tolerance for time overhead</text><rect fill="#F7F9FB" height="36.3441" rx="12.5" ry="12.5" style="stroke:#2E3A46;stroke-width:0.5;" width="164.829" x="780.6685" y="366.848"/><text fill="#000000" font-family="sans-serif" font-size="12" lengthAdjust="spacing" textLength="144.829" x="790.6685" y="389.6761">Load ScenarioParameters</text><path d="M981.1816,470.8441 L981.1816,516.1092 L961.1816,520.1092 L981.1816,524.1092 L981.1816,569.3742 A0,0 0 0 0 981.1816,569.3742 L1247.4138,569.3742 A0,0 0 0 0 1247.4138,569.3742 L1247.4138,480.8441 L1237.4138,470.8441 L981.1816,470.8441 A0,0 0 0 0 981.1816,470.8441" fill="#FEFFDD" style="stroke:#181818;stroke-width:0.5;"/><path d="M1237.4138,470.8441 L1237.4138,480.8441 L1247.4138,480.8441 L1237.4138,470.8441" fill="#FEFFDD" style="stroke:#181818;stroke-width:0.5;"/><text fill="#000000" font-family="sans-serif" font-size="13" lengthAdjust="spacing" textLength="183.1182" x="987.1816" y="489.7411">Example time point (CSV row):</text><text fill="#000000" font-family="sans-serif" font-size="13" lengthAdjust="spacing" textLength="229.1382" x="987.1816" y="507.4472">zone=DE, requested_day=2024-06-05,</text><text fill="#000000" font-family="sans-serif" font-size="13" lengthAdjust="spacing" textLength="236.7172" x="987.1816" y="525.1532">timestamp=2024-06-05T00:00:00.000Z,</text><text fill="#000000" font-family="sans-serif" font-size="13" lengthAdjust="spacing" textLength="245.2322" x="987.1816" y="542.8592">carbonIntensity=248, isEstimated=False,</text><text fill="#000000" font-family="sans-serif" font-size="13" lengthAdjust="spacing" textLength="120.1461" x="987.1816" y="560.5652">estimationMethod=</text><rect fill="#F7F9FB" height="52.6882" rx="12.5" ry="12.5" style="stroke:#2E3A46;stroke-width:0.5;" width="196.1973" x="764.9843" y="493.7651"/><text fill="#000000" font-family="sans-serif" font-size="12" lengthAdjust="spacing" textLength="149.0891" x="774.9843" y="516.5931">Fetch GridData time series</text><text fill="#000000" font-family="sans-serif" font-size="12" lengthAdjust="spacing" textLength="176.1973" x="774.9843" y="532.9373">for the selected region/window</text><rect fill="#F7F9FB" height="36.3441" rx="12.5" ry="12.5" style="stroke:#2E3A46;stroke-width:0.5;" width="180.8131" x="772.6764" y="589.3742"/><text fill="#000000" font-family="sans-serif" font-size="12" lengthAdjust="spacing" textLength="160.8131" x="782.6764" y="612.2023">Validate data availability flag</text><polygon fill="#FFF3BF" points="824.3027,657.7183,901.8632,657.7183,913.8632,669.7183,901.8632,681.7183,824.3027,681.7183,812.3027,669.7183,824.3027,657.7183" style="stroke:#B08900;stroke-width:0.5;"/><text fill="#000000" font-family="sans-serif" font-size="11" lengthAdjust="spacing" textLength="77.5605" x="824.3027" y="673.9863">Data available?</text><text fill="#000000" font-family="sans-serif" font-size="11" lengthAdjust="spacing" textLength="17.0829" x="795.2199" y="666.4954">yes</text><text fill="#000000" font-family="sans-serif" font-size="11" lengthAdjust="spacing" textLength="13.4529" x="913.8632" y="666.4954">no</text><rect fill="none" height="180.7561" style="stroke:#000000;stroke-width:1.5;" width="199.4932" x="514.1377" y="691.7183"/><path d="M643.2772,691.7183 L643.2772,703.7862 L633.2772,713.7862 L514.1377,713.7862" fill="none" style="stroke:#000000;stroke-width:1.5;"/><text fill="#000000" font-family="sans-serif" font-size="14" lengthAdjust="spacing" textLength="119.1395" x="517.1377" y="707.6843">Simulation Engine</text><rect fill="#F7F9FB" height="36.3441" rx="12.5" ry="12.5" style="stroke:#2E3A46;stroke-width:0.5;" width="130.7128" x="548.5279" y="730.7862"/><text fill="#000000" font-family="sans-serif" font-size="12" lengthAdjust="spacing" textLength="110.7128" x="558.5279" y="753.6143">Initialize Simulation</text><rect fill="#F7F9FB" height="52.6882" rx="12.5" ry="12.5" style="stroke:#2E3A46;stroke-width:0.5;" width="179.4932" x="524.1377" y="802.1304"/><text fill="#000000" font-family="sans-serif" font-size="12" lengthAdjust="spacing" textLength="159.4932" x="534.1377" y="824.9584">Compute baseline reference</text><text fill="#000000" font-family="sans-serif" font-size="12" lengthAdjust="spacing" textLength="146.641" x="534.1377" y="841.3026">for uninterrupted training</text><rect fill="none" height="87.412" style="stroke:#000000;stroke-width:1.5;" width="156.5328" x="535.6178" y="926.4745"/><path d="M621.2735,926.4745 L621.2735,938.5424 L611.2735,948.5424 L535.6178,948.5424" fill="none" style="stroke:#000000;stroke-width:1.5;"/><text fill="#000000" font-family="sans-serif" font-size="14" lengthAdjust="spacing" textLength="75.6557" x="538.6178" y="942.4404">Grid Replay</text><rect fill="#F7F9FB" height="36.3441" rx="12.5" ry="12.5" style="stroke:#2E3A46;stroke-width:0.5;" width="136.5328" x="545.6178" y="965.5424"/><text fill="#000000" font-family="sans-serif" font-size="12" lengthAdjust="spacing" textLength="116.5328" x="555.6178" y="988.3705">Read co2_intensity(t)</text><polygon fill="#FFF3BF" points="573.9215,1033.8865,653.847,1033.8865,665.847,1045.8865,653.847,1057.8865,573.9215,1057.8865,561.9215,1045.8865,573.9215,1033.8865" style="stroke:#B08900;stroke-width:0.5;"/><text fill="#000000" font-family="sans-serif" font-size="11" lengthAdjust="spacing" textLength="79.9255" x="573.9215" y="1050.1545">Grid data valid?</text><text fill="#000000" font-family="sans-serif" font-size="11" lengthAdjust="spacing" textLength="17.0829" x="544.8386" y="1042.6635">yes</text><text fill="#000000" font-family="sans-serif" font-size="11" lengthAdjust="spacing" textLength="13.4529" x="665.847" y="1042.6635">no</text><rect fill="none" height="414.4444" style="stroke:#000000;stroke-width:1.5;" width="709.1239" x="11" y="1067.8865"/><path d="M111.5517,1067.8865 L111.5517,1079.9544 L101.5517,1089.9544 L11,1089.9544" fill="none" style="stroke:#000000;stroke-width:1.5;"/><text fill="#000000" font-family="sans-serif" font-size="14" lengthAdjust="spacing" textLength="90.5517" x="14" y="1083.8524">Policy Control</text><rect fill="#F7F9FB" height="36.3441" rx="12.5" ry="12.5" style="stroke:#2E3A46;stroke-width:0.5;" width="180.0571" x="280.7573" y="1106.9544"/><text fill="#000000" font-family="sans-serif" font-size="12" lengthAdjust="spacing" textLength="160.0571" x="290.7573" y="1129.7825">Evaluate PauseResumeLogic</text><polygon fill="#FFF3BF" points="291.801,1178.2985,449.7708,1178.2985,461.7708,1190.2985,449.7708,1202.2985,291.801,1202.2985,279.801,1190.2985,291.801,1178.2985" style="stroke:#B08900;stroke-width:0.5;"/><text fill="#000000" font-family="sans-serif" font-size="11" lengthAdjust="spacing" textLength="157.9698" x="291.801" y="1194.5665">co2_intensity(t) &gt; theta_pause?</text><text fill="#000000" font-family="sans-serif" font-size="11" lengthAdjust="spacing" textLength="31.2068" x="248.5942" y="1187.0756">pause</text><text fill="#000000" font-family="sans-serif" font-size="11" lengthAdjust="spacing" textLength="45.3417" x="461.7708" y="1187.0756">continue</text><polygon fill="#FFF3BF" points="121.6905,1212.2985,274.4134,1212.2985,286.4134,1224.2985,274.4134,1236.2985,121.6905,1236.2985,109.6905,1224.2985,121.6905,1212.2985" style="stroke:#B08900;stroke-width:0.5;"/><text fill="#000000" font-family="sans-serif" font-size="11" lengthAdjust="spacing" textLength="152.7229" x="121.6905" y="1228.5665">At allowed pause granularity?</text><text fill="#000000" font-family="sans-serif" font-size="11" lengthAdjust="spacing" textLength="17.0829" x="92.6076" y="1221.0756">yes</text><text fill="#000000" font-family="sans-serif" font-size="11" lengthAdjust="spacing" textLength="13.4529" x="286.4134" y="1221.0756">no</text><rect fill="#F7F9FB" height="36.3441" rx="12.5" ry="12.5" style="stroke:#2E3A46;stroke-width:0.5;" width="145.6409" x="26.87" y="1246.2985"/><text fill="#000000" font-family="sans-serif" font-size="12" lengthAdjust="spacing" textLength="125.6409" x="36.87" y="1269.1266">Trigger Checkpointing</text><rect fill="#F7F9FB" height="36.3441" rx="12.5" ry="12.5" style="stroke:#2E3A46;stroke-width:0.5;" width="132.9808" x="33.2001" y="1317.6427"/><text fill="#000000" font-family="sans-serif" font-size="12" lengthAdjust="spacing" textLength="112.9808" x="43.2001" y="1340.4707">Set is_paused = true</text><rect fill="#F7F9FB" height="36.3441" rx="12.5" ry="12.5" style="stroke:#2E3A46;stroke-width:0.5;" width="153.3809" x="23" y="1373.9868"/><text fill="#000000" font-family="sans-serif" font-size="12" lengthAdjust="spacing" textLength="133.3809" x="33" y="1396.8149">Increment pause_count</text><rect fill="#F7F9FB" height="52.6882" rx="12.5" ry="12.5" style="stroke:#2E3A46;stroke-width:0.5;" width="145.0049" x="223.9109" y="1246.2985"/><text fill="#000000" font-family="sans-serif" font-size="12" lengthAdjust="spacing" textLength="125.0049" x="233.9109" y="1269.1266">Defer pause until next</text><text fill="#000000" font-family="sans-serif" font-size="12" lengthAdjust="spacing" textLength="119.3768" x="233.9109" y="1285.4707">checkpoint boundary</text><polygon fill="#FFF3BF" points="198.0519,1416.3309,210.0519,1428.3309,198.0519,1440.3309,186.0519,1428.3309,198.0519,1416.3309" style="stroke:#B08900;stroke-width:0.5;"/><rect fill="#F7F9FB" height="36.3441" rx="12.5" ry="12.5" style="stroke:#2E3A46;stroke-width:0.5;" width="135.9808" x="475.5294" y="1261.7895"/><text fill="#000000" font-family="sans-serif" font-size="12" lengthAdjust="spacing" textLength="115.9808" x="485.5294" y="1284.6176">Set is_paused = false</text><polygon fill="#FFF3BF" points="410.9158,1212.2985,676.1239,1212.2985,688.1239,1224.2985,676.1239,1236.2985,410.9158,1236.2985,398.9158,1224.2985,410.9158,1212.2985" style="stroke:#B08900;stroke-width:0.5;"/><text fill="#000000" font-family="sans-serif" font-size="11" lengthAdjust="spacing" textLength="39.3027" x="547.5199" y="1248.0574">resume</text><text fill="#000000" font-family="sans-serif" font-size="11" lengthAdjust="spacing" textLength="265.2081" x="410.9158" y="1228.5665">is_paused and co2_intensity(t) &lt; resume_threshold?</text><polygon fill="#FFF3BF" points="543.5199,1323.6245,555.5199,1335.6245,543.5199,1347.6245,531.5199,1335.6245,543.5199,1323.6245" style="stroke:#B08900;stroke-width:0.5;"/><polygon fill="#FFF3BF" points="370.7859,1446.3309,382.7859,1458.3309,370.7859,1470.3309,358.7859,1458.3309,370.7859,1446.3309" style="stroke:#B08900;stroke-width:0.5;"/><rect fill="none" height="336.7885" style="stroke:#000000;stroke-width:1.5;" width="443.2504" x="152.6107" y="1492.3309"/><path d="M281.7502,1492.3309 L281.7502,1504.3988 L271.7502,1514.3988 L152.6107,1514.3988" fill="none" style="stroke:#000000;stroke-width:1.5;"/><text fill="#000000" font-family="sans-serif" font-size="14" lengthAdjust="spacing" textLength="119.1395" x="155.6107" y="1508.2968">Simulation Engine</text><polygon fill="#FFF3BF" points="342.9176,1531.3988,398.6542,1531.3988,410.6542,1543.3988,398.6542,1555.3988,342.9176,1555.3988,330.9176,1543.3988,342.9176,1531.3988" style="stroke:#B08900;stroke-width:0.5;"/><text fill="#000000" font-family="sans-serif" font-size="11" lengthAdjust="spacing" textLength="55.7366" x="342.9176" y="1547.6668">is_paused?</text><text fill="#000000" font-family="sans-serif" font-size="11" lengthAdjust="spacing" textLength="17.0829" x="313.8347" y="1540.1758">yes</text><text fill="#000000" font-family="sans-serif" font-size="11" lengthAdjust="spacing" textLength="13.4529" x="410.6542" y="1540.1758">no</text><rect fill="#F7F9FB" height="36.3441" rx="12.5" ry="12.5" style="stroke:#2E3A46;stroke-width:0.5;" width="184.7252" x="172.6107" y="1565.3988"/><text fill="#000000" font-family="sans-serif" font-size="12" lengthAdjust="spacing" textLength="164.7252" x="182.6107" y="1588.2269">Accumulate paused wall time</text><rect fill="#F7F9FB" height="52.6882" rx="12.5" ry="12.5" style="stroke:#2E3A46;stroke-width:0.5;" width="172.0051" x="178.9708" y="1621.7429"/><text fill="#000000" font-family="sans-serif" font-size="12" lengthAdjust="spacing" textLength="143.677" x="188.9708" y="1644.571">Add paused energy using</text><text fill="#000000" font-family="sans-serif" font-size="12" lengthAdjust="spacing" textLength="152.0051" x="188.9708" y="1660.9151">gpu_power_pause and pue</text><rect fill="#F7F9FB" height="36.3441" rx="12.5" ry="12.5" style="stroke:#2E3A46;stroke-width:0.5;" width="193.6892" x="379.7539" y="1565.3988"/><text fill="#000000" font-family="sans-serif" font-size="12" lengthAdjust="spacing" textLength="173.6892" x="389.7539" y="1588.2269">Advance training_progress_pct</text><rect fill="#F7F9FB" height="52.6882" rx="12.5" ry="12.5" style="stroke:#2E3A46;stroke-width:0.5;" width="164.493" x="394.352" y="1621.7429"/><text fill="#000000" font-family="sans-serif" font-size="12" lengthAdjust="spacing" textLength="135.037" x="404.352" y="1644.571">Add active energy using</text><text fill="#000000" font-family="sans-serif" font-size="12" lengthAdjust="spacing" textLength="144.493" x="404.352" y="1660.9151">gpu_power_train and pue</text><rect fill="#F7F9FB" height="36.3441" rx="12.5" ry="12.5" style="stroke:#2E3A46;stroke-width:0.5;" width="198.5253" x="377.3359" y="1694.4311"/><text fill="#000000" font-family="sans-serif" font-size="12" lengthAdjust="spacing" textLength="178.5253" x="387.3359" y="1717.2592">Update accumulated_emissions</text><polygon fill="#FFF3BF" points="370.7859,1736.7753,382.7859,1748.7753,370.7859,1760.7753,358.7859,1748.7753,370.7859,1736.7753" style="stroke:#B08900;stroke-width:0.5;"/><rect fill="#F7F9FB" height="36.3441" rx="12.5" ry="12.5" style="stroke:#2E3A46;stroke-width:0.5;" width="204.6933" x="268.4392" y="1780.7753"/><text fill="#000000" font-family="sans-serif" font-size="12" lengthAdjust="spacing" textLength="184.6933" x="278.4392" y="1803.6033">Advance elapsed_wall_time by dt</text><rect fill="none" height="183.1003" style="stroke:#000000;stroke-width:1.5;" width="233.7174" x="740.1239" y="1067.8865"/><path d="M869.2634,1067.8865 L869.2634,1079.9544 L859.2634,1089.9544 L740.1239,1089.9544" fill="none" style="stroke:#000000;stroke-width:1.5;"/><text fill="#000000" font-family="sans-serif" font-size="14" lengthAdjust="spacing" textLength="119.1395" x="743.1239" y="1083.8524">Simulation Engine</text><rect fill="#F7F9FB" height="52.6882" rx="12.5" ry="12.5" style="stroke:#2E3A46;stroke-width:0.5;" width="190.7732" x="761.596" y="1106.9544"/><text fill="#000000" font-family="sans-serif" font-size="12" lengthAdjust="spacing" textLength="170.7732" x="771.596" y="1129.7825">Handle missing or invalid data</text><text fill="#000000" font-family="sans-serif" font-size="12" lengthAdjust="spacing" textLength="102.8647" x="771.596" y="1146.1266">using fallback rule</text><rect fill="#F7F9FB" height="36.3441" rx="12.5" ry="12.5" style="stroke:#2E3A46;stroke-width:0.5;" width="213.7174" x="750.1239" y="1194.6427"/><text fill="#000000" font-family="sans-serif" font-size="12" lengthAdjust="spacing" textLength="193.7174" x="760.1239" y="1217.4707">Advance simulation conservatively</text><polygon fill="#FFF3BF" points="613.8842,1835.1194,625.8842,1847.1194,613.8842,1859.1194,601.8842,1847.1194,613.8842,1835.1194" style="stroke:#B08900;stroke-width:0.5;"/><polygon fill="#FFF3BF" points="613.8842,892.4745,625.8842,904.4745,613.8842,916.4745,601.8842,904.4745,613.8842,892.4745" style="stroke:#B08900;stroke-width:0.5;"/><polygon fill="#FFF3BF" points="537.6108,1879.1194,690.1577,1879.1194,702.1577,1891.1194,690.1577,1903.1194,537.6108,1903.1194,525.6108,1891.1194,537.6108,1879.1194" style="stroke:#B08900;stroke-width:0.5;"/><text fill="#000000" font-family="sans-serif" font-size="11" lengthAdjust="spacing" textLength="13.4529" x="617.8842" y="1914.8783">no</text><text fill="#000000" font-family="sans-serif" font-size="11" lengthAdjust="spacing" textLength="152.5469" x="537.6108" y="1895.3873">training_progress_pct &lt; 100%</text><text fill="#000000" font-family="sans-serif" font-size="11" lengthAdjust="spacing" textLength="17.0829" x="702.1577" y="1887.8964">yes</text><rect fill="none" height="409.4767" style="stroke:#000000;stroke-width:1.5;" width="469.5713" x="381.7266" y="1926.3783"/><path d="M445.3884,1926.3783 L445.3884,1938.4462 L435.3884,1948.4462 L381.7266,1948.4462" fill="none" style="stroke:#000000;stroke-width:1.5;"/><text fill="#000000" font-family="sans-serif" font-size="14" lengthAdjust="spacing" textLength="53.6618" x="384.7266" y="1942.3442">Outputs</text><rect fill="#F7F9FB" height="36.3441" rx="12.5" ry="12.5" style="stroke:#2E3A46;stroke-width:0.5;" width="169.2451" x="529.2617" y="1965.4462"/><text fill="#000000" font-family="sans-serif" font-size="12" lengthAdjust="spacing" textLength="149.2451" x="539.2617" y="1988.2743">Compute CO2_savings_pct</text><rect fill="#F7F9FB" height="36.3441" rx="12.5" ry="12.5" style="stroke:#2E3A46;stroke-width:0.5;" width="182.0011" x="522.8837" y="2021.7903"/><text fill="#000000" font-family="sans-serif" font-size="12" lengthAdjust="spacing" textLength="162.0011" x="532.8837" y="2044.6184">Compute time_overhead_pct</text><rect fill="#F7F9FB" height="36.3441" rx="12.5" ry="12.5" style="stroke:#2E3A46;stroke-width:0.5;" width="105.5726" x="561.0979" y="2078.1344"/><text fill="#000000" font-family="sans-serif" font-size="12" lengthAdjust="spacing" textLength="85.5726" x="571.0979" y="2100.9625">Compute score</text><polygon fill="#FFF3BF" points="497.3511,2134.4785,730.4174,2134.4785,742.4174,2146.4785,730.4174,2158.4785,497.3511,2158.4785,485.3511,2146.4785,497.3511,2134.4785" style="stroke:#B08900;stroke-width:0.5;"/><text fill="#000000" font-family="sans-serif" font-size="11" lengthAdjust="spacing" textLength="233.0663" x="497.3511" y="2150.7465">time_overhead_pct &lt;= overhead_budget_pct?</text><text fill="#000000" font-family="sans-serif" font-size="11" lengthAdjust="spacing" textLength="17.0829" x="468.2682" y="2143.2556">yes</text><text fill="#000000" font-family="sans-serif" font-size="11" lengthAdjust="spacing" textLength="13.4529" x="742.4174" y="2143.2556">no</text><rect fill="#F7F9FB" height="36.3441" rx="12.5" ry="12.5" style="stroke:#2E3A46;stroke-width:0.5;" width="147.2489" x="401.7266" y="2168.4785"/><text fill="#000000" font-family="sans-serif" font-size="12" lengthAdjust="spacing" textLength="127.2489" x="411.7266" y="2191.3066">Mark policy as feasible</text><rect fill="#F7F9FB" height="36.3441" rx="12.5" ry="12.5" style="stroke:#2E3A46;stroke-width:0.5;" width="157.761" x="673.5369" y="2168.4785"/><text fill="#000000" font-family="sans-serif" font-size="12" lengthAdjust="spacing" textLength="137.761" x="683.5369" y="2191.3066">Mark policy as infeasible</text><polygon fill="#FFF3BF" points="613.8842,2210.8227,625.8842,2222.8227,613.8842,2234.8227,601.8842,2222.8227,613.8842,2210.8227" style="stroke:#B08900;stroke-width:0.5;"/><rect fill="#F7F9FB" height="69.0323" rx="12.5" ry="12.5" style="stroke:#2E3A46;stroke-width:0.5;" width="185.4092" x="521.1796" y="2254.8227"/><text fill="#000000" font-family="sans-serif" font-size="12" lengthAdjust="spacing" textLength="163.0092" x="531.1796" y="2277.6507">Store Results for comparison</text><text fill="#000000" font-family="sans-serif" font-size="12" lengthAdjust="spacing" textLength="151.6211" x="531.1796" y="2293.9949">across thresholds, regions,</text><text fill="#000000" font-family="sans-serif" font-size="12" lengthAdjust="spacing" textLength="165.4092" x="531.1796" y="2310.339">start times, and architectures</text><ellipse cx="613.8842" cy="2366.855" fill="none" rx="11" ry="11" style="stroke:#222222;stroke-width:1;"/><ellipse cx="613.8842" cy="2366.855" fill="#222222" rx="6" ry="6" style="stroke:#222222;stroke-width:1;"/><rect fill="none" height="111.7561" style="stroke:#000000;stroke-width:1.5;" width="168.8809" x="1027.8413" y="691.7183"/><path d="M1091.5031,691.7183 L1091.5031,703.7862 L1081.5031,713.7862 L1027.8413,713.7862" fill="none" style="stroke:#000000;stroke-width:1.5;"/><text fill="#000000" font-family="sans-serif" font-size="14" lengthAdjust="spacing" textLength="53.6618" x="1030.8413" y="707.6843">Outputs</text><rect fill="#F7F9FB" height="52.6882" rx="12.5" ry="12.5" style="stroke:#2E3A46;stroke-width:0.5;" width="148.8809" x="1037.8413" y="730.7862"/><text fill="#000000" font-family="sans-serif" font-size="12" lengthAdjust="spacing" textLength="117.9249" x="1047.8413" y="753.6143">Abort run and report</text><text fill="#000000" font-family="sans-serif" font-size="12" lengthAdjust="spacing" textLength="128.8809" x="1047.8413" y="769.9584">missing-data condition</text><ellipse cx="1112.2817" cy="849.4745" fill="none" rx="11" ry="11" style="stroke:#222222;stroke-width:1;"/><ellipse cx="1112.2817" cy="849.4745" fill="#222222" rx="6" ry="6" style="stroke:#222222;stroke-width:1;"/><line style="stroke:#181818;stroke-width:1;" x1="863.083" x2="863.083" y1="223.838" y2="366.848"/><polygon fill="#181818" points="859.083,356.848,863.083,366.848,867.083,356.848,863.083,360.848" style="stroke:#181818;stroke-width:1;"/><line style="stroke:#181818;stroke-width:1;" x1="863.083" x2="863.083" y1="403.1921" y2="493.7651"/><polygon fill="#181818" points="859.083,483.7651,863.083,493.7651,867.083,483.7651,863.083,487.7651" style="stroke:#181818;stroke-width:1;"/><line style="stroke:#181818;stroke-width:1;" x1="863.083" x2="863.083" y1="546.4533" y2="589.3742"/><polygon fill="#181818" points="859.083,579.3742,863.083,589.3742,867.083,579.3742,863.083,583.3742" style="stroke:#181818;stroke-width:1;"/><line style="stroke:#181818;stroke-width:1;" x1="863.083" x2="863.083" y1="70.0679" y2="187.4939"/><polygon fill="#181818" points="859.083,177.4939,863.083,187.4939,867.083,177.4939,863.083,181.4939" style="stroke:#181818;stroke-width:1;"/><line style="stroke:#181818;stroke-width:1;" x1="613.8842" x2="613.8842" y1="767.1304" y2="802.1304"/><polygon fill="#181818" points="609.8842,792.1304,613.8842,802.1304,617.8842,792.1304,613.8842,796.1304" style="stroke:#181818;stroke-width:1;"/><line style="stroke:#181818;stroke-width:1;" x1="99.6905" x2="99.6905" y1="1282.6427" y2="1317.6427"/><polygon fill="#181818" points="95.6905,1307.6427,99.6905,1317.6427,103.6905,1307.6427,99.6905,1311.6427" style="stroke:#181818;stroke-width:1;"/><line style="stroke:#181818;stroke-width:1;" x1="99.6905" x2="99.6905" y1="1353.9868" y2="1373.9868"/><polygon fill="#181818" points="95.6905,1363.9868,99.6905,1373.9868,103.6905,1363.9868,99.6905,1367.9868" style="stroke:#181818;stroke-width:1;"/><line style="stroke:#181818;stroke-width:1;" x1="109.6905" x2="99.6905" y1="1224.2985" y2="1224.2985"/><line style="stroke:#181818;stroke-width:1;" x1="99.6905" x2="99.6905" y1="1224.2985" y2="1246.2985"/><polygon fill="#181818" points="95.6905,1236.2985,99.6905,1246.2985,103.6905,1236.2985,99.6905,1240.2985" style="stroke:#181818;stroke-width:1;"/><line style="stroke:#181818;stroke-width:1;" x1="286.4134" x2="296.4134" y1="1224.2985" y2="1224.2985"/><line style="stroke:#181818;stroke-width:1;" x1="296.4134" x2="296.4134" y1="1224.2985" y2="1246.2985"/><polygon fill="#181818" points="292.4134,1236.2985,296.4134,1246.2985,300.4134,1236.2985,296.4134,1240.2985" style="stroke:#181818;stroke-width:1;"/><line style="stroke:#181818;stroke-width:1;" x1="99.6905" x2="99.6905" y1="1410.3309" y2="1428.3309"/><line style="stroke:#181818;stroke-width:1;" x1="99.6905" x2="186.0519" y1="1428.3309" y2="1428.3309"/><polygon fill="#181818" points="176.0519,1424.3309,186.0519,1428.3309,176.0519,1432.3309,180.0519,1428.3309" style="stroke:#181818;stroke-width:1;"/><line style="stroke:#181818;stroke-width:1;" x1="296.4134" x2="296.4134" y1="1298.9868" y2="1428.3309"/><line style="stroke:#181818;stroke-width:1;" x1="296.4134" x2="210.0519" y1="1428.3309" y2="1428.3309"/><polygon fill="#181818" points="220.0519,1424.3309,210.0519,1428.3309,220.0519,1432.3309,216.0519,1428.3309" style="stroke:#181818;stroke-width:1;"/><line style="stroke:#181818;stroke-width:1;" x1="543.5199" x2="543.5199" y1="1236.2985" y2="1261.7895"/><polygon fill="#181818" points="539.5199,1251.7895,543.5199,1261.7895,547.5199,1251.7895,543.5199,1255.7895" style="stroke:#181818;stroke-width:1;"/><line style="stroke:#181818;stroke-width:1;" x1="688.1239" x2="700.1239" y1="1224.2985" y2="1224.2985"/><polygon fill="#181818" points="696.1239,1269.9615,700.1239,1279.9615,704.1239,1269.9615,700.1239,1273.9615" style="stroke:#181818;stroke-width:1;"/><line style="stroke:#181818;stroke-width:1;" x1="700.1239" x2="700.1239" y1="1224.2985" y2="1335.6245"/><line style="stroke:#181818;stroke-width:1;" x1="700.1239" x2="555.5199" y1="1335.6245" y2="1335.6245"/><polygon fill="#181818" points="565.5199,1331.6245,555.5199,1335.6245,565.5199,1339.6245,561.5199,1335.6245" style="stroke:#181818;stroke-width:1;"/><line style="stroke:#181818;stroke-width:1;" x1="543.5199" x2="543.5199" y1="1298.1336" y2="1323.6245"/><polygon fill="#181818" points="539.5199,1313.6245,543.5199,1323.6245,547.5199,1313.6245,543.5199,1317.6245" style="stroke:#181818;stroke-width:1;"/><line style="stroke:#181818;stroke-width:1;" x1="279.801" x2="198.0519" y1="1190.2985" y2="1190.2985"/><line style="stroke:#181818;stroke-width:1;" x1="198.0519" x2="198.0519" y1="1190.2985" y2="1212.2985"/><polygon fill="#181818" points="194.0519,1202.2985,198.0519,1212.2985,202.0519,1202.2985,198.0519,1206.2985" style="stroke:#181818;stroke-width:1;"/><line style="stroke:#181818;stroke-width:1;" x1="461.7708" x2="543.5199" y1="1190.2985" y2="1190.2985"/><line style="stroke:#181818;stroke-width:1;" x1="543.5199" x2="543.5199" y1="1190.2985" y2="1212.2985"/><polygon fill="#181818" points="539.5199,1202.2985,543.5199,1212.2985,547.5199,1202.2985,543.5199,1206.2985" style="stroke:#181818;stroke-width:1;"/><line style="stroke:#181818;stroke-width:1;" x1="198.0519" x2="198.0519" y1="1440.3309" y2="1458.3309"/><line style="stroke:#181818;stroke-width:1;" x1="198.0519" x2="358.7859" y1="1458.3309" y2="1458.3309"/><polygon fill="#181818" points="348.7859,1454.3309,358.7859,1458.3309,348.7859,1462.3309,352.7859,1458.3309" style="stroke:#181818;stroke-width:1;"/><line style="stroke:#181818;stroke-width:1;" x1="543.5199" x2="543.5199" y1="1347.6245" y2="1458.3309"/><line style="stroke:#181818;stroke-width:1;" x1="543.5199" x2="382.7859" y1="1458.3309" y2="1458.3309"/><polygon fill="#181818" points="392.7859,1454.3309,382.7859,1458.3309,392.7859,1462.3309,388.7859,1458.3309" style="stroke:#181818;stroke-width:1;"/><line style="stroke:#181818;stroke-width:1;" x1="370.7859" x2="370.7859" y1="1143.2985" y2="1178.2985"/><polygon fill="#181818" points="366.7859,1168.2985,370.7859,1178.2985,374.7859,1168.2985,370.7859,1172.2985" style="stroke:#181818;stroke-width:1;"/><line style="stroke:#181818;stroke-width:1;" x1="264.9733" x2="264.9733" y1="1601.7429" y2="1621.7429"/><polygon fill="#181818" points="260.9733,1611.7429,264.9733,1621.7429,268.9733,1611.7429,264.9733,1615.7429" style="stroke:#181818;stroke-width:1;"/><line style="stroke:#181818;stroke-width:1;" x1="476.5985" x2="476.5985" y1="1601.7429" y2="1621.7429"/><polygon fill="#181818" points="472.5985,1611.7429,476.5985,1621.7429,480.5985,1611.7429,476.5985,1615.7429" style="stroke:#181818;stroke-width:1;"/><line style="stroke:#181818;stroke-width:1;" x1="476.5985" x2="476.5985" y1="1674.4311" y2="1694.4311"/><polygon fill="#181818" points="472.5985,1684.4311,476.5985,1694.4311,480.5985,1684.4311,476.5985,1688.4311" style="stroke:#181818;stroke-width:1;"/><line style="stroke:#181818;stroke-width:1;" x1="330.9176" x2="264.9733" y1="1543.3988" y2="1543.3988"/><line style="stroke:#181818;stroke-width:1;" x1="264.9733" x2="264.9733" y1="1543.3988" y2="1565.3988"/><polygon fill="#181818" points="260.9733,1555.3988,264.9733,1565.3988,268.9733,1555.3988,264.9733,1559.3988" style="stroke:#181818;stroke-width:1;"/><line style="stroke:#181818;stroke-width:1;" x1="410.6542" x2="476.5985" y1="1543.3988" y2="1543.3988"/><line style="stroke:#181818;stroke-width:1;" x1="476.5985" x2="476.5985" y1="1543.3988" y2="1565.3988"/><polygon fill="#181818" points="472.5985,1555.3988,476.5985,1565.3988,480.5985,1555.3988,476.5985,1559.3988" style="stroke:#181818;stroke-width:1;"/><line style="stroke:#181818;stroke-width:1;" x1="264.9733" x2="264.9733" y1="1674.4311" y2="1748.7753"/><line style="stroke:#181818;stroke-width:1;" x1="264.9733" x2="358.7859" y1="1748.7753" y2="1748.7753"/><polygon fill="#181818" points="348.7859,1744.7753,358.7859,1748.7753,348.7859,1752.7753,352.7859,1748.7753" style="stroke:#181818;stroke-width:1;"/><line style="stroke:#181818;stroke-width:1;" x1="476.5985" x2="476.5985" y1="1730.7753" y2="1748.7753"/><line style="stroke:#181818;stroke-width:1;" x1="476.5985" x2="382.7859" y1="1748.7753" y2="1748.7753"/><polygon fill="#181818" points="392.7859,1744.7753,382.7859,1748.7753,392.7859,1752.7753,388.7859,1748.7753" style="stroke:#181818;stroke-width:1;"/><line style="stroke:#181818;stroke-width:1;" x1="370.7859" x2="370.7859" y1="1760.7753" y2="1780.7753"/><polygon fill="#181818" points="366.7859,1770.7753,370.7859,1780.7753,374.7859,1770.7753,370.7859,1774.7753" style="stroke:#181818;stroke-width:1;"/><line style="stroke:#181818;stroke-width:1;" x1="370.7859" x2="370.7859" y1="1470.3309" y2="1531.3988"/><polygon fill="#181818" points="366.7859,1521.3988,370.7859,1531.3988,374.7859,1521.3988,370.7859,1525.3988" style="stroke:#181818;stroke-width:1;"/><line style="stroke:#181818;stroke-width:1;" x1="856.9826" x2="856.9826" y1="1159.6427" y2="1194.6427"/><polygon fill="#181818" points="852.9826,1184.6427,856.9826,1194.6427,860.9826,1184.6427,856.9826,1188.6427" style="stroke:#181818;stroke-width:1;"/><line style="stroke:#181818;stroke-width:1;" x1="561.9215" x2="370.7859" y1="1045.8865" y2="1045.8865"/><line style="stroke:#181818;stroke-width:1;" x1="370.7859" x2="370.7859" y1="1045.8865" y2="1106.9544"/><polygon fill="#181818" points="366.7859,1096.9544,370.7859,1106.9544,374.7859,1096.9544,370.7859,1100.9544" style="stroke:#181818;stroke-width:1;"/><line style="stroke:#181818;stroke-width:1;" x1="665.847" x2="856.9826" y1="1045.8865" y2="1045.8865"/><line style="stroke:#181818;stroke-width:1;" x1="856.9826" x2="856.9826" y1="1045.8865" y2="1106.9544"/><polygon fill="#181818" points="852.9826,1096.9544,856.9826,1106.9544,860.9826,1096.9544,856.9826,1100.9544" style="stroke:#181818;stroke-width:1;"/><line style="stroke:#181818;stroke-width:1;" x1="370.7859" x2="370.7859" y1="1817.1194" y2="1847.1194"/><line style="stroke:#181818;stroke-width:1;" x1="370.7859" x2="601.8842" y1="1847.1194" y2="1847.1194"/><polygon fill="#181818" points="591.8842,1843.1194,601.8842,1847.1194,591.8842,1851.1194,595.8842,1847.1194" style="stroke:#181818;stroke-width:1;"/><line style="stroke:#181818;stroke-width:1;" x1="856.9826" x2="856.9826" y1="1230.9868" y2="1847.1194"/><line style="stroke:#181818;stroke-width:1;" x1="856.9826" x2="625.8842" y1="1847.1194" y2="1847.1194"/><polygon fill="#181818" points="635.8842,1843.1194,625.8842,1847.1194,635.8842,1851.1194,631.8842,1847.1194" style="stroke:#181818;stroke-width:1;"/><line style="stroke:#181818;stroke-width:1;" x1="613.8842" x2="613.8842" y1="1001.8865" y2="1033.8865"/><polygon fill="#181818" points="609.8842,1023.8865,613.8842,1033.8865,617.8842,1023.8865,613.8842,1027.8865" style="stroke:#181818;stroke-width:1;"/><line style="stroke:#181818;stroke-width:1;" x1="613.8842" x2="613.8842" y1="916.4745" y2="965.5424"/><polygon fill="#181818" points="609.8842,955.5424,613.8842,965.5424,617.8842,955.5424,613.8842,959.5424" style="stroke:#181818;stroke-width:1;"/><line style="stroke:#181818;stroke-width:1;" x1="702.1577" x2="995.8413" y1="1891.1194" y2="1891.1194"/><polygon fill="#181818" points="991.8413,1426.7969,995.8413,1416.7969,999.8413,1426.7969,995.8413,1422.7969" style="stroke:#181818;stroke-width:1;"/><line style="stroke:#181818;stroke-width:1;" x1="995.8413" x2="995.8413" y1="904.4745" y2="1891.1194"/><line style="stroke:#181818;stroke-width:1;" x1="995.8413" x2="625.8842" y1="904.4745" y2="904.4745"/><polygon fill="#181818" points="635.8842,900.4745,625.8842,904.4745,635.8842,908.4745,631.8842,904.4745" style="stroke:#181818;stroke-width:1;"/><line style="stroke:#181818;stroke-width:1;" x1="613.8842" x2="613.8842" y1="1859.1194" y2="1879.1194"/><polygon fill="#181818" points="609.8842,1869.1194,613.8842,1879.1194,617.8842,1869.1194,613.8842,1873.1194" style="stroke:#181818;stroke-width:1;"/><line style="stroke:#181818;stroke-width:1;" x1="613.8842" x2="613.8842" y1="854.8186" y2="892.4745"/><polygon fill="#181818" points="609.8842,882.4745,613.8842,892.4745,617.8842,882.4745,613.8842,886.4745" style="stroke:#181818;stroke-width:1;"/><line style="stroke:#181818;stroke-width:1;" x1="613.8842" x2="613.8842" y1="2001.7903" y2="2021.7903"/><polygon fill="#181818" points="609.8842,2011.7903,613.8842,2021.7903,617.8842,2011.7903,613.8842,2015.7903" style="stroke:#181818;stroke-width:1;"/><line style="stroke:#181818;stroke-width:1;" x1="613.8842" x2="613.8842" y1="2058.1344" y2="2078.1344"/><polygon fill="#181818" points="609.8842,2068.1344,613.8842,2078.1344,617.8842,2068.1344,613.8842,2072.1344" style="stroke:#181818;stroke-width:1;"/><line style="stroke:#181818;stroke-width:1;" x1="485.3511" x2="475.3511" y1="2146.4785" y2="2146.4785"/><line style="stroke:#181818;stroke-width:1;" x1="475.3511" x2="475.3511" y1="2146.4785" y2="2168.4785"/><polygon fill="#181818" points="471.3511,2158.4785,475.3511,2168.4785,479.3511,2158.4785,475.3511,2162.4785" style="stroke:#181818;stroke-width:1;"/><line style="stroke:#181818;stroke-width:1;" x1="742.4174" x2="752.4174" y1="2146.4785" y2="2146.4785"/><line style="stroke:#181818;stroke-width:1;" x1="752.4174" x2="752.4174" y1="2146.4785" y2="2168.4785"/><polygon fill="#181818" points="748.4174,2158.4785,752.4174,2168.4785,756.4174,2158.4785,752.4174,2162.4785" style="stroke:#181818;stroke-width:1;"/><line style="stroke:#181818;stroke-width:1;" x1="475.3511" x2="475.3511" y1="2204.8227" y2="2222.8227"/><line style="stroke:#181818;stroke-width:1;" x1="475.3511" x2="601.8842" y1="2222.8227" y2="2222.8227"/><polygon fill="#181818" points="591.8842,2218.8227,601.8842,2222.8227,591.8842,2226.8227,595.8842,2222.8227" style="stroke:#181818;stroke-width:1;"/><line style="stroke:#181818;stroke-width:1;" x1="752.4174" x2="752.4174" y1="2204.8227" y2="2222.8227"/><line style="stroke:#181818;stroke-width:1;" x1="752.4174" x2="625.8842" y1="2222.8227" y2="2222.8227"/><polygon fill="#181818" points="635.8842,2218.8227,625.8842,2222.8227,635.8842,2226.8227,631.8842,2222.8227" style="stroke:#181818;stroke-width:1;"/><line style="stroke:#181818;stroke-width:1;" x1="613.8842" x2="613.8842" y1="2114.4785" y2="2134.4785"/><polygon fill="#181818" points="609.8842,2124.4785,613.8842,2134.4785,617.8842,2124.4785,613.8842,2128.4785" style="stroke:#181818;stroke-width:1;"/><line style="stroke:#181818;stroke-width:1;" x1="613.8842" x2="613.8842" y1="2234.8227" y2="2254.8227"/><polygon fill="#181818" points="609.8842,2244.8227,613.8842,2254.8227,617.8842,2244.8227,613.8842,2248.8227" style="stroke:#181818;stroke-width:1;"/><line style="stroke:#181818;stroke-width:1;" x1="613.8842" x2="613.8842" y1="1903.1194" y2="1965.4462"/><polygon fill="#181818" points="609.8842,1955.4462,613.8842,1965.4462,617.8842,1955.4462,613.8842,1959.4462" style="stroke:#181818;stroke-width:1;"/><line style="stroke:#181818;stroke-width:1;" x1="613.8842" x2="613.8842" y1="2323.855" y2="2355.855"/><polygon fill="#181818" points="609.8842,2345.855,613.8842,2355.855,617.8842,2345.855,613.8842,2349.855" style="stroke:#181818;stroke-width:1;"/><line style="stroke:#181818;stroke-width:1;" x1="1112.2817" x2="1112.2817" y1="783.4745" y2="838.4745"/><polygon fill="#181818" points="1108.2817,828.4745,1112.2817,838.4745,1116.2817,828.4745,1112.2817,832.4745" style="stroke:#181818;stroke-width:1;"/><line style="stroke:#181818;stroke-width:1;" x1="812.3027" x2="613.8842" y1="669.7183" y2="669.7183"/><line style="stroke:#181818;stroke-width:1;" x1="613.8842" x2="613.8842" y1="669.7183" y2="730.7862"/><polygon fill="#181818" points="609.8842,720.7862,613.8842,730.7862,617.8842,720.7862,613.8842,724.7862" style="stroke:#181818;stroke-width:1;"/><line style="stroke:#181818;stroke-width:1;" x1="913.8632" x2="1112.2817" y1="669.7183" y2="669.7183"/><line style="stroke:#181818;stroke-width:1;" x1="1112.2817" x2="1112.2817" y1="669.7183" y2="730.7862"/><polygon fill="#181818" points="1108.2817,720.7862,1112.2817,730.7862,1116.2817,720.7862,1112.2817,724.7862" style="stroke:#181818;stroke-width:1;"/><line style="stroke:#181818;stroke-width:1;" x1="863.083" x2="863.083" y1="625.7183" y2="657.7183"/><polygon fill="#181818" points="859.083,647.7183,863.083,657.7183,867.083,647.7183,863.083,651.7183" style="stroke:#181818;stroke-width:1;"/><!--SRC=[ZLTjRzis4FxkNt58CCm6d5HBqgorwmtnsrOWHOEuwu1z4MZfB1EXI9MadAf3__kEr8jbsUqA14xCEzuzzzmROxaL2BFtLnVicMc4-_jty44pBhbCOCNJN33BbOJ7NFPwvedBZ6cMmff5JubMkOndIYWDprjkiIKtMnQhPsTZmuHfIrXa-OxR0lxj0KoLZb6N9iwl5jTtDxVkj6FyVFdhylLowYMryilfg-NoDHsjBDEsjh2SNj_SqE6YkJg_lRw-dT7HdBDKoVZOzd9vFLss5DgGfi6hrq7G-qgXEpUz7iLWkIVaR6Npk80LsZmxyy6CxXMB6_A8i0UjDbpWc6HIMGJDawsbBm2HOCQSK1rvAK2gOXIXP2cEm5XzSEffD2FWqbRdCRFCe0sjUa9v84coF8meMDizpDGpwj0w02FO2CMEXHdB3HuAixnp46qnUieKsGxL3lKMMHnQdlw05ahKIR7NGnbxaXeULn5AfhbwSE6YHMs-oUEnQisZneHovJa4E0UyJ2w7S3PVdD7dOkK-buzdbQxFS8MU64NtLnsteoAqMurcgqHSeNOM4-eS_FJYwUzjfRej3050mqsOCfqqz9vKBkqccabgCqrDCI8UyXJwKsQZxH0McNA_q4QNWze-DrPf7Z4H5iYqpsiL6Lm5LpULMiFpEeyJAeqiiZMGSx1A8FcC43PKv2xEHh-JYIMvti8VciTpgh5IrQ3cQ4ZgBs_TWS38Obon_OBQddh_HBOMdrcQqRJnPdmzG7-s-WXQFG_AZ7rH4YVpnP1CVSgHc8p3c1KJ5zX5S7iHl1nwDMU0qfLcBSc781ZvdyiW2FufzIAcrqg-bPRQWjYTNDsy6W8t2qC6ACFnPEc6KwcBvI45y0xjLiMJ3XKVcU2kB7ot0TinBjYQ2pV9De8bOpSa-0RwyvPOuEy3Hv64Ve76fR0zF_R3TI6fKB2S8kJghIGLSlS5MnDuNCfcAiroGh6cZXTqYPZQKBrHChtSvIIdcK8rgFFC9SLMGyRT9uYk9pAiMhE5nkKO7Z4JhAXnaBT7AWc8r5N8QmxxTZ2kf3zNSfz-AacIXXdzHj9fL1mWWn4DLgOBO9A9WdgZDE7X03ZMl7lFxCxntAMj0_P12HuLC5FIQYNsU0dnWkxdBaqFhhSUqUGftgk4H-D6n_dhnWI_EOUMbLElSU-_3PgRvTqx2qm8cf5nsS3GQk1Jm2ja7wWH4jGmQwPXbPMM3cqJgiyIH0mJIbwE7PMtCjAO8lLEEJtyU6_h89KqzANgk9-xEga0qmqkGE9dUw2pdzEmTXkICdPWMCPyqpjqGucbCF8ZZlP1C7bSGV26gj1bPZzJ6-9AmU3xlFX7nNUmjRvLHVPZhNS4_rlv7Dr5KUwD85Iedgae_6GQ7-Z5SQrGhZp83UMzfTBPk9wmh9tsKmabkpi_mUlsfivJ2N5dtAW_Gk0VNVZ_2BorOmHavQ_C3p_MX4qhFEN648Tct3kTXWOa2fOH0w6Zo6zOM1SGDp2_zaw5-QFv6lr9U6chU3JquAI1mwMV8dwWD7e-QbSvmZrUGUUY5M43rUnTKMtJhjinHvqeEc1zeCqqTUzVWj0_cGsgzb-2uAS1LN1PHswdb94UReJtkQNPRfezKCzwUZQ4Xkt8RYkxZTJnkNzN7SjDf7GLgIlj8tLuCpdrN3XL-QDtJ3_HvlRJbndO83DyNVFOJM1NcykEVbCienMzQH3Sj1RM-9qH4NgQg4P9hy4YhUYbrumBCwnU6wRStlxnLhuBXhv-cOxSloIHpUb6i_lexPJrsZY_m_xTMf59dPVzG7cchrvI5Tg5NrTki_5wFtzjNFZG_WC0]--></g></svg>