<svg xmlns="http://www.w3.org/2000/svg" xmlns:xlink="http://www.w3.org/1999/xlink" contentStyleType="text/css" data-diagram-type="CLASS" height="834px" preserveAspectRatio="none" style="width:1523px;height:834px;background:#FFFFFF;" version="1.1" viewBox="0 0 1523 834" width="1523px" zoomAndPan="magnify"><defs/><g><!--cluster Inputs_Constants--><g class="cluster" data-entity="Inputs_Constants" data-source-line="3" data-uid="ent0002" id="cluster_Inputs_Constants"><path d="M742.5,611.212 L865.3835,611.212 A3.75,3.75 0 0 1 867.8835,613.712 L874.8835,636.2799 L1513.5,636.2799 A2.5,2.5 0 0 1 1516,638.7799 L1516,825.122 A2.5,2.5 0 0 1 1513.5,827.622 L742.5,827.622 A2.5,2.5 0 0 1 740,825.122 L740,613.712 A2.5,2.5 0 0 1 742.5,611.212" fill="none" style="stroke:#000000;stroke-width:1.5;"/><line style="stroke:#000000;stroke-width:1.5;" x1="740" x2="874.8835" y1="636.2799" y2="636.2799"/><text fill="#000000" font-family="sans-serif" font-size="14" font-weight="bold" lengthAdjust="spacing" textLength="121.8835" x="744" y="628.1779">Inputs_Constants</text></g><!--cluster Policy_Controls--><g class="cluster" data-entity="Policy_Controls" data-source-line="29" data-uid="ent0006" id="cluster_Policy_Controls"><path d="M520.5,195.742 L627.3956,195.742 A3.75,3.75 0 0 1 629.8956,198.242 L636.8956,220.8099 L1128.5,220.8099 A2.5,2.5 0 0 1 1131,223.3099 L1131,557.712 A2.5,2.5 0 0 1 1128.5,560.212 L520.5,560.212 A2.5,2.5 0 0 1 518,557.712 L518,198.242 A2.5,2.5 0 0 1 520.5,195.742" fill="none" style="stroke:#000000;stroke-width:1.5;"/><line style="stroke:#000000;stroke-width:1.5;" x1="518" x2="636.8956" y1="220.8099" y2="220.8099"/><text fill="#000000" font-family="sans-serif" font-size="14" font-weight="bold" lengthAdjust="spacing" textLength="105.8956" x="522" y="212.7079">Policy_Controls</text></g><!--cluster Execution--><g class="cluster" data-entity="Execution" data-source-line="50" data-uid="ent0010" id="cluster_Execution"><path d="M8.5,6.602 L78.2257,6.602 A3.75,3.75 0 0 1 80.7257,9.102 L87.7257,31.6699 L491.5,31.6699 A2.5,2.5 0 0 1 494,34.1699 L494,371.512 A2.5,2.5 0 0 1 491.5,374.012 L8.5,374.012 A2.5,2.5 0 0 1 6,371.512 L6,9.102 A2.5,2.5 0 0 1 8.5,6.602" fill="none" style="stroke:#000000;stroke-width:1.5;"/><line style="stroke:#000000;stroke-width:1.5;" x1="6" x2="87.7257" y1="31.6699" y2="31.6699"/><text fill="#000000" font-family="sans-serif" font-size="14" font-weight="bold" lengthAdjust="spacing" textLength="68.7257" x="10" y="23.5679">Execution</text></g><!--class TrainingRunProfile--><g class="entity" data-entity="TrainingRunProfile" data-source-line="4" data-uid="ent0003" id="entity_TrainingRunProfile"><rect fill="#F1F1F1" height="162.4075" rx="2.5" ry="2.5" style="stroke:#181818;stroke-width:0.5;" width="229.8112" x="756.09" y="649.212"/><ellipse cx="805.1318" cy="665.212" fill="#ADD1B2" rx="11" ry="11" style="stroke:#181818;stroke-width:1;"/><path d="M804.6006,672.1339 Q802.8506,672.1339 801.71,671.3995 Q800.585,670.6495 800.0225,669.3057 Q799.4756,667.9464 799.4756,666.1495 Q799.4756,664.1182 800.1318,662.6651 Q800.7881,661.212 802.0693,660.4307 Q803.3506,659.6495 805.2256,659.6495 Q806.1162,659.6495 806.7881,659.837 Q807.46,660.0089 808.1475,660.3526 L807.335,662.3682 Q806.71,662.0557 806.1631,661.9307 Q805.6318,661.8057 805.1475,661.8057 Q803.9756,661.8057 803.2725,662.337 Q802.5693,662.8682 802.2725,663.8214 Q801.9756,664.7745 801.9756,666.0401 Q801.9756,668.0557 802.6943,669.0245 Q803.4131,669.9776 805.0068,669.9776 Q805.6006,669.9776 806.2256,669.8214 Q806.8506,669.6651 807.6787,669.2901 L807.6787,671.5089 Q806.9443,671.8214 806.1475,671.9776 Q805.3662,672.1339 804.6006,672.1339 Z " fill="#000000"/><text fill="#000000" font-family="sans-serif" font-size="14" lengthAdjust="spacing" textLength="123.2275" x="825.6318" y="670.644">TrainingRunProfile</text><line style="stroke:#181818;stroke-width:0.5;" x1="757.09" x2="984.9012" y1="681.212" y2="681.212"/><rect fill="none" height="6" style="stroke:#C82930;stroke-width:1;" width="6" x="764.09" y="693.2459"/><text fill="#000000" font-family="sans-serif" font-size="14" lengthAdjust="spacing" textLength="142.7295" x="776.09" y="700.1779">model_params: count</text><rect fill="none" height="6" style="stroke:#C82930;stroke-width:1;" width="6" x="764.09" y="712.3139"/><text fill="#000000" font-family="sans-serif" font-size="14" lengthAdjust="spacing" textLength="144.4375" x="776.09" y="719.2458">dataset_tokens: count</text><rect fill="none" height="6" style="stroke:#C82930;stroke-width:1;" width="6" x="764.09" y="731.3818"/><text fill="#000000" font-family="sans-serif" font-size="14" lengthAdjust="spacing" textLength="114.5755" x="776.09" y="738.3138">gpu_count: count</text><rect fill="none" height="6" style="stroke:#C82930;stroke-width:1;" width="6" x="764.09" y="750.4497"/><text fill="#000000" font-family="sans-serif" font-size="14" lengthAdjust="spacing" textLength="195.0472" x="776.09" y="757.3817">gpu_power_train: W_per_GPU</text><rect fill="none" height="6" style="stroke:#C82930;stroke-width:1;" width="6" x="764.09" y="769.5176"/><text fill="#000000" font-family="sans-serif" font-size="14" lengthAdjust="spacing" textLength="203.8112" x="776.09" y="776.4496">gpu_power_pause: W_per_GPU</text><rect fill="none" height="6" style="stroke:#C82930;stroke-width:1;" width="6" x="764.09" y="788.5855"/><text fill="#000000" font-family="sans-serif" font-size="14" lengthAdjust="spacing" textLength="63.3218" x="776.09" y="795.5175">pue: ratio</text><line style="stroke:#181818;stroke-width:0.5;" x1="757.09" x2="984.9012" y1="803.6195" y2="803.6195"/></g><!--class GridData--><g class="entity" data-entity="GridData" data-source-line="13" data-uid="ent0004" id="entity_GridData"><rect fill="#F1F1F1" height="105.2038" rx="2.5" ry="2.5" style="stroke:#181818;stroke-width:0.5;" width="247.2271" x="1252.39" y="677.812"/><ellipse cx="1342.1647" cy="693.812" fill="#ADD1B2" rx="11" ry="11" style="stroke:#181818;stroke-width:1;"/><path d="M1341.6334,700.7339 Q1339.8834,700.7339 1338.7428,699.9995 Q1337.6178,699.2495 1337.0553,697.9057 Q1336.5084,696.5464 1336.5084,694.7495 Q1336.5084,692.7182 1337.1647,691.2651 Q1337.8209,689.812 1339.1022,689.0307 Q1340.3834,688.2495 1342.2584,688.2495 Q1343.149,688.2495 1343.8209,688.437 Q1344.4928,688.6089 1345.1803,688.9526 L1344.3678,690.9682 Q1343.7428,690.6557 1343.1959,690.5307 Q1342.6647,690.4057 1342.1803,690.4057 Q1341.0084,690.4057 1340.3053,690.937 Q1339.6022,691.4682 1339.3053,692.4214 Q1339.0084,693.3745 1339.0084,694.6401 Q1339.0084,696.6557 1339.7272,697.6245 Q1340.4459,698.5776 1342.0397,698.5776 Q1342.6334,698.5776 1343.2584,698.4214 Q1343.8834,698.2651 1344.7115,697.8901 L1344.7115,700.1089 Q1343.9772,700.4214 1343.1803,700.5776 Q1342.399,700.7339 1341.6334,700.7339 Z " fill="#000000"/><text fill="#000000" font-family="sans-serif" font-size="14" lengthAdjust="spacing" textLength="59.1778" x="1362.6647" y="699.244">GridData</text><line style="stroke:#181818;stroke-width:0.5;" x1="1253.39" x2="1498.6171" y1="709.812" y2="709.812"/><rect fill="none" height="6" style="stroke:#C82930;stroke-width:1;" width="6" x="1260.39" y="721.8459"/><text fill="#000000" font-family="sans-serif" font-size="14" lengthAdjust="spacing" textLength="221.2271" x="1272.39" y="728.7779">co2_intensity_t: gCO2eq_per_kWh</text><rect fill="none" height="6" style="stroke:#C82930;stroke-width:1;" width="6" x="1260.39" y="740.9139"/><text fill="#000000" font-family="sans-serif" font-size="14" lengthAdjust="spacing" textLength="211.1891" x="1272.39" y="747.8458">electricity_price_t: EUR_per_kWh</text><rect fill="none" height="6" style="stroke:#C82930;stroke-width:1;" width="6" x="1260.39" y="759.9818"/><text fill="#000000" font-family="sans-serif" font-size="14" lengthAdjust="spacing" textLength="184.0573" x="1272.39" y="766.9138">data_availability_flag_t: bool</text><line style="stroke:#181818;stroke-width:0.5;" x1="1253.39" x2="1498.6171" y1="775.0157" y2="775.0157"/></g><!--class ScenarioParameters--><g class="entity" data-entity="ScenarioParameters" data-source-line="19" data-uid="ent0005" id="entity_ScenarioParameters"><rect fill="#F1F1F1" height="162.4075" rx="2.5" ry="2.5" style="stroke:#181818;stroke-width:0.5;" width="196.2953" x="1020.85" y="649.212"/><ellipse cx="1049.9079" cy="665.212" fill="#ADD1B2" rx="11" ry="11" style="stroke:#181818;stroke-width:1;"/><path d="M1049.3767,672.1339 Q1047.6267,672.1339 1046.4861,671.3995 Q1045.3611,670.6495 1044.7986,669.3057 Q1044.2517,667.9464 1044.2517,666.1495 Q1044.2517,664.1182 1044.9079,662.6651 Q1045.5642,661.212 1046.8454,660.4307 Q1048.1267,659.6495 1050.0017,659.6495 Q1050.8923,659.6495 1051.5642,659.837 Q1052.2361,660.0089 1052.9236,660.3526 L1052.1111,662.3682 Q1051.4861,662.0557 1050.9392,661.9307 Q1050.4079,661.8057 1049.9236,661.8057 Q1048.7517,661.8057 1048.0486,662.337 Q1047.3454,662.8682 1047.0486,663.8214 Q1046.7517,664.7745 1046.7517,666.0401 Q1046.7517,668.0557 1047.4704,669.0245 Q1048.1892,669.9776 1049.7829,669.9776 Q1050.3767,669.9776 1051.0017,669.8214 Q1051.6267,669.6651 1052.4548,669.2901 L1052.4548,671.5089 Q1051.7204,671.8214 1050.9236,671.9776 Q1050.1423,672.1339 1049.3767,672.1339 Z " fill="#000000"/><text fill="#000000" font-family="sans-serif" font-size="14" lengthAdjust="spacing" textLength="133.0555" x="1067.0319" y="670.644">ScenarioParameters</text><line style="stroke:#181818;stroke-width:0.5;" x1="1021.85" x2="1216.1453" y1="681.212" y2="681.212"/><rect fill="none" height="6" style="stroke:#C82930;stroke-width:1;" width="6" x="1028.85" y="693.2459"/><text fill="#000000" font-family="sans-serif" font-size="14" lengthAdjust="spacing" textLength="115.6816" x="1040.85" y="700.1779">threshold_set: list</text><rect fill="none" height="6" style="stroke:#C82930;stroke-width:1;" width="6" x="1028.85" y="712.3139"/><text fill="#000000" font-family="sans-serif" font-size="14" lengthAdjust="spacing" textLength="118.3976" x="1040.85" y="719.2458">hysteresis_set: list</text><rect fill="none" height="6" style="stroke:#C82930;stroke-width:1;" width="6" x="1028.85" y="731.3818"/><text fill="#000000" font-family="sans-serif" font-size="14" lengthAdjust="spacing" textLength="101.9756" x="1040.85" y="738.3138">regions_set: list</text><rect fill="none" height="6" style="stroke:#C82930;stroke-width:1;" width="6" x="1028.85" y="750.4497"/><text fill="#000000" font-family="sans-serif" font-size="14" lengthAdjust="spacing" textLength="125.2715" x="1040.85" y="757.3817">start_times_set: list</text><rect fill="none" height="6" style="stroke:#C82930;stroke-width:1;" width="6" x="1028.85" y="769.5176"/><text fill="#000000" font-family="sans-serif" font-size="14" lengthAdjust="spacing" textLength="128.0435" x="1040.85" y="776.4496">historical_years: list</text><rect fill="none" height="6" style="stroke:#C82930;stroke-width:1;" width="6" x="1028.85" y="788.5855"/><text fill="#000000" font-family="sans-serif" font-size="14" lengthAdjust="spacing" textLength="170.2953" x="1040.85" y="795.5175">overhead_budget_pct: pct</text><line style="stroke:#181818;stroke-width:0.5;" x1="1021.85" x2="1216.1453" y1="803.6195" y2="803.6195"/></g><!--class OptimizationPolicy--><g class="entity" data-entity="OptimizationPolicy" data-source-line="30" data-uid="ent0007" id="entity_OptimizationPolicy"><rect fill="#F1F1F1" height="124.2717" rx="2.5" ry="2.5" style="stroke:#181818;stroke-width:0.5;" width="230.6092" x="556.7" y="233.742"/><ellipse cx="606.1758" cy="249.742" fill="#ADD1B2" rx="11" ry="11" style="stroke:#181818;stroke-width:1;"/><path d="M605.6446,256.6639 Q603.8946,256.6639 602.754,255.9295 Q601.629,255.1795 601.0665,253.8357 Q600.5196,252.4764 600.5196,250.6795 Q600.5196,248.6482 601.1758,247.1951 Q601.8321,245.742 603.1133,244.9607 Q604.3946,244.1795 606.2696,244.1795 Q607.1602,244.1795 607.8321,244.367 Q608.504,244.5389 609.1915,244.8826 L608.379,246.8982 Q607.754,246.5857 607.2071,246.4607 Q606.6758,246.3357 606.1915,246.3357 Q605.0196,246.3357 604.3165,246.867 Q603.6133,247.3982 603.3165,248.3514 Q603.0196,249.3045 603.0196,250.5701 Q603.0196,252.5857 603.7383,253.5545 Q604.4571,254.5076 606.0508,254.5076 Q606.6446,254.5076 607.2696,254.3514 Q607.8946,254.1951 608.7227,253.8201 L608.7227,256.0389 Q607.9883,256.3514 607.1915,256.5076 Q606.4102,256.6639 605.6446,256.6639 Z " fill="#000000"/><text fill="#000000" font-family="sans-serif" font-size="14" lengthAdjust="spacing" textLength="123.1575" x="626.6758" y="255.174">OptimizationPolicy</text><line style="stroke:#181818;stroke-width:0.5;" x1="557.7" x2="786.3092" y1="265.742" y2="265.742"/><rect fill="none" height="6" style="stroke:#C82930;stroke-width:1;" width="6" x="564.7" y="277.7759"/><text fill="#000000" font-family="sans-serif" font-size="14" lengthAdjust="spacing" textLength="204.6092" x="576.7" y="284.7079">theta_pause: gCO2eq_per_kWh</text><rect fill="none" height="6" style="stroke:#C82930;stroke-width:1;" width="6" x="564.7" y="296.8439"/><text fill="#000000" font-family="sans-serif" font-size="14" lengthAdjust="spacing" textLength="190.9592" x="576.7" y="303.7758">delta_hyst: gCO2eq_per_kWh</text><rect fill="none" height="6" style="stroke:#C82930;stroke-width:1;" width="6" x="564.7" y="315.9118"/><text fill="#000000" font-family="sans-serif" font-size="14" lengthAdjust="spacing" textLength="88.8297" x="576.7" y="322.8438">region: string</text><rect fill="none" height="6" style="stroke:#C82930;stroke-width:1;" width="6" x="564.7" y="334.9797"/><text fill="#000000" font-family="sans-serif" font-size="14" lengthAdjust="spacing" textLength="164.2194" x="576.7" y="341.9117">pause_granularity: enum</text><line style="stroke:#181818;stroke-width:0.5;" x1="557.7" x2="786.3092" y1="350.0136" y2="350.0136"/></g><!--class PauseResumeLogic--><g class="entity" data-entity="PauseResumeLogic" data-source-line="37" data-uid="ent0008" id="entity_PauseResumeLogic"><rect fill="#F1F1F1" height="105.2038" rx="2.5" ry="2.5" style="stroke:#181818;stroke-width:0.5;" width="269.837" x="845.08" y="439.012"/><ellipse cx="912.1118" cy="455.012" fill="#ADD1B2" rx="11" ry="11" style="stroke:#181818;stroke-width:1;"/><path d="M911.5805,461.9339 Q909.8305,461.9339 908.6899,461.1995 Q907.5649,460.4495 907.0024,459.1057 Q906.4555,457.7464 906.4555,455.9495 Q906.4555,453.9182 907.1118,452.4651 Q907.768,451.012 909.0493,450.2307 Q910.3305,449.4495 912.2055,449.4495 Q913.0961,449.4495 913.768,449.637 Q914.4399,449.8089 915.1274,450.1526 L914.3149,452.1682 Q913.6899,451.8557 913.143,451.7307 Q912.6118,451.6057 912.1274,451.6057 Q910.9555,451.6057 910.2524,452.137 Q909.5493,452.6682 909.2524,453.6214 Q908.9555,454.5745 908.9555,455.8401 Q908.9555,457.8557 909.6743,458.8245 Q910.393,459.7776 911.9868,459.7776 Q912.5805,459.7776 913.2055,459.6214 Q913.8305,459.4651 914.6586,459.0901 L914.6586,461.3089 Q913.9243,461.6214 913.1274,461.7776 Q912.3461,461.9339 911.5805,461.9339 Z " fill="#000000"/><text fill="#000000" font-family="sans-serif" font-size="14" lengthAdjust="spacing" textLength="127.2735" x="932.6118" y="460.444">PauseResumeLogic</text><line style="stroke:#181818;stroke-width:0.5;" x1="846.08" x2="1113.917" y1="471.012" y2="471.012"/><rect fill="none" height="6" style="stroke:#C82930;stroke-width:1;" width="6" x="853.08" y="483.0459"/><text fill="#000000" font-family="sans-serif" font-size="14" lengthAdjust="spacing" textLength="243.837" x="865.08" y="489.9779">resume_threshold: gCO2eq_per_kWh</text><rect fill="none" height="6" style="stroke:#C82930;stroke-width:1;" width="6" x="853.08" y="502.1139"/><text fill="#000000" font-family="sans-serif" font-size="14" lengthAdjust="spacing" textLength="101.4156" x="865.08" y="509.0458">is_paused: bool</text><line style="stroke:#181818;stroke-width:0.5;" x1="846.08" x2="1113.917" y1="517.1478" y2="517.1478"/><ellipse cx="856.08" cy="532.1818" fill="#84BE84" rx="3" ry="3" style="stroke:#038048;stroke-width:1;"/><text fill="#000000" font-family="sans-serif" font-size="14" lengthAdjust="spacing" textLength="196.2092" x="865.08" y="536.1138">evaluate(gridIntensity): action</text></g><!--class Checkpointing--><g class="entity" data-entity="Checkpointing" data-source-line="43" data-uid="ent0009" id="entity_Checkpointing"><rect fill="#F1F1F1" height="105.2038" rx="2.5" ry="2.5" style="stroke:#181818;stroke-width:0.5;" width="276.109" x="533.95" y="439.012"/><ellipse cx="620.3227" cy="455.012" fill="#ADD1B2" rx="11" ry="11" style="stroke:#181818;stroke-width:1;"/><path d="M619.7914,461.9339 Q618.0414,461.9339 616.9008,461.1995 Q615.7758,460.4495 615.2133,459.1057 Q614.6664,457.7464 614.6664,455.9495 Q614.6664,453.9182 615.3227,452.4651 Q615.9789,451.012 617.2602,450.2307 Q618.5414,449.4495 620.4164,449.4495 Q621.3071,449.4495 621.9789,449.637 Q622.6508,449.8089 623.3383,450.1526 L622.5258,452.1682 Q621.9008,451.8557 621.3539,451.7307 Q620.8227,451.6057 620.3383,451.6057 Q619.1664,451.6057 618.4633,452.137 Q617.7602,452.6682 617.4633,453.6214 Q617.1664,454.5745 617.1664,455.8401 Q617.1664,457.8557 617.8852,458.8245 Q618.6039,459.7776 620.1977,459.7776 Q620.7914,459.7776 621.4164,459.6214 Q622.0414,459.4651 622.8696,459.0901 L622.8696,461.3089 Q622.1352,461.6214 621.3383,461.7776 Q620.5571,461.9339 619.7914,461.9339 Z " fill="#000000"/><text fill="#000000" font-family="sans-serif" font-size="14" lengthAdjust="spacing" textLength="94.8636" x="640.8227" y="460.444">Checkpointing</text><line style="stroke:#181818;stroke-width:0.5;" x1="534.95" x2="809.059" y1="471.012" y2="471.012"/><rect fill="none" height="6" style="stroke:#C82930;stroke-width:1;" width="6" x="541.95" y="483.0459"/><text fill="#000000" font-family="sans-serif" font-size="14" lengthAdjust="spacing" textLength="118.2855" x="553.95" y="489.9779">granularity: enum</text><rect fill="none" height="6" style="stroke:#C82930;stroke-width:1;" width="6" x="541.95" y="502.1139"/><text fill="#000000" font-family="sans-serif" font-size="14" lengthAdjust="spacing" textLength="218.8191" x="553.95" y="509.0458">overhead_time: s_per_checkpoint</text><rect fill="none" height="6" style="stroke:#C82930;stroke-width:1;" width="6" x="541.95" y="521.1818"/><text fill="#000000" font-family="sans-serif" font-size="14" lengthAdjust="spacing" textLength="250.109" x="553.95" y="528.1138">overhead_energy: Wh_per_checkpoint</text><line style="stroke:#181818;stroke-width:0.5;" x1="534.95" x2="809.059" y1="536.2157" y2="536.2157"/></g><!--class Simulation--><g class="entity" data-entity="Simulation" data-source-line="51" data-uid="ent0011" id="entity_Simulation"><rect fill="#F1F1F1" height="86.1358" rx="2.5" ry="2.5" style="stroke:#181818;stroke-width:0.5;" width="297.6549" x="180.17" y="44.602"/><ellipse cx="289.6006" cy="60.602" fill="#ADD1B2" rx="11" ry="11" style="stroke:#181818;stroke-width:1;"/><path d="M289.0693,67.5239 Q287.3193,67.5239 286.1787,66.7895 Q285.0537,66.0395 284.4912,64.6957 Q283.9443,63.3364 283.9443,61.5395 Q283.9443,59.5082 284.6006,58.0551 Q285.2568,56.602 286.5381,55.8207 Q287.8193,55.0395 289.6943,55.0395 Q290.585,55.0395 291.2568,55.227 Q291.9287,55.3989 292.6162,55.7426 L291.8037,57.7582 Q291.1787,57.4457 290.6318,57.3207 Q290.1006,57.1957 289.6162,57.1957 Q288.4443,57.1957 287.7412,57.727 Q287.0381,58.2582 286.7412,59.2114 Q286.4443,60.1645 286.4443,61.4301 Q286.4443,63.4457 287.1631,64.4145 Q287.8818,65.3676 289.4756,65.3676 Q290.0693,65.3676 290.6943,65.2114 Q291.3193,65.0551 292.1475,64.6801 L292.1475,66.8989 Q291.4131,67.2114 290.6162,67.3676 Q289.835,67.5239 289.0693,67.5239 Z " fill="#000000"/><text fill="#000000" font-family="sans-serif" font-size="14" lengthAdjust="spacing" textLength="70.2937" x="310.1006" y="66.034">Simulation</text><line style="stroke:#181818;stroke-width:0.5;" x1="181.17" x2="476.8249" y1="76.602" y2="76.602"/><line style="stroke:#181818;stroke-width:0.5;" x1="181.17" x2="476.8249" y1="84.602" y2="84.602"/><ellipse cx="191.17" cy="99.6359" fill="#84BE84" rx="3" ry="3" style="stroke:#038048;stroke-width:1;"/><text fill="#000000" font-family="sans-serif" font-size="14" lengthAdjust="spacing" textLength="271.6549" x="200.17" y="103.5679">run(policy, profile, grid, scenario): Results</text><ellipse cx="191.17" cy="118.7039" fill="#84BE84" rx="3" ry="3" style="stroke:#038048;stroke-width:1;"/><text fill="#000000" font-family="sans-serif" font-size="14" lengthAdjust="spacing" textLength="111.1036" x="200.17" y="122.6358">step(dt): updates</text></g><!--class InternalState--><g class="entity" data-entity="InternalState" data-source-line="56" data-uid="ent0012" id="entity_InternalState"><rect fill="#F1F1F1" height="124.2717" rx="2.5" ry="2.5" style="stroke:#181818;stroke-width:0.5;" width="242.6772" x="21.66" y="233.742"/><ellipse cx="95.8527" cy="249.742" fill="#ADD1B2" rx="11" ry="11" style="stroke:#181818;stroke-width:1;"/><path d="M95.3215,256.6639 Q93.5715,256.6639 92.4309,255.9295 Q91.3059,255.1795 90.7434,253.8357 Q90.1965,252.4764 90.1965,250.6795 Q90.1965,248.6482 90.8527,247.1951 Q91.509,245.742 92.7902,244.9607 Q94.0715,244.1795 95.9465,244.1795 Q96.8371,244.1795 97.509,244.367 Q98.1809,244.5389 98.8684,244.8826 L98.0559,246.8982 Q97.4309,246.5857 96.884,246.4607 Q96.3527,246.3357 95.8684,246.3357 Q94.6965,246.3357 93.9934,246.867 Q93.2902,247.3982 92.9934,248.3514 Q92.6965,249.3045 92.6965,250.5701 Q92.6965,252.5857 93.4152,253.5545 Q94.134,254.5076 95.7277,254.5076 Q96.3215,254.5076 96.9465,254.3514 Q97.5715,254.1951 98.3996,253.8201 L98.3996,256.0389 Q97.6652,256.3514 96.8684,256.5076 Q96.0871,256.6639 95.3215,256.6639 Z " fill="#000000"/><text fill="#000000" font-family="sans-serif" font-size="14" lengthAdjust="spacing" textLength="85.7917" x="116.3527" y="255.174">InternalState</text><line style="stroke:#181818;stroke-width:0.5;" x1="22.66" x2="263.3372" y1="265.742" y2="265.742"/><rect fill="none" height="6" style="stroke:#C82930;stroke-width:1;" width="6" x="29.66" y="277.7759"/><text fill="#000000" font-family="sans-serif" font-size="14" lengthAdjust="spacing" textLength="170.9814" x="41.66" y="284.7079">training_progress_pct: pct</text><rect fill="none" height="6" style="stroke:#C82930;stroke-width:1;" width="6" x="29.66" y="296.8439"/><text fill="#000000" font-family="sans-serif" font-size="14" lengthAdjust="spacing" textLength="135.3935" x="41.66" y="303.7758">elapsed_wall_time: h</text><rect fill="none" height="6" style="stroke:#C82930;stroke-width:1;" width="6" x="29.66" y="315.9118"/><text fill="#000000" font-family="sans-serif" font-size="14" lengthAdjust="spacing" textLength="216.6772" x="41.66" y="322.8438">accumulated_emissions: gCO2eq</text><rect fill="none" height="6" style="stroke:#C82930;stroke-width:1;" width="6" x="29.66" y="334.9797"/><text fill="#000000" font-family="sans-serif" font-size="14" lengthAdjust="spacing" textLength="128.4215" x="41.66" y="341.9117">pause_count: count</text><line style="stroke:#181818;stroke-width:0.5;" x1="22.66" x2="263.3372" y1="350.0136" y2="350.0136"/></g><!--class Metrics--><g class="entity" data-entity="Metrics" data-source-line="63" data-uid="ent0013" id="entity_Metrics"><rect fill="#F1F1F1" height="105.2038" rx="2.5" ry="2.5" style="stroke:#181818;stroke-width:0.5;" width="178.5154" x="299.74" y="243.272"/><ellipse cx="360.5138" cy="259.272" fill="#ADD1B2" rx="11" ry="11" style="stroke:#181818;stroke-width:1;"/><path d="M359.9825,266.1939 Q358.2325,266.1939 357.0919,265.4595 Q355.9669,264.7095 355.4044,263.3657 Q354.8575,262.0064 354.8575,260.2095 Q354.8575,258.1782 355.5138,256.7251 Q356.17,255.272 357.4513,254.4907 Q358.7325,253.7095 360.6075,253.7095 Q361.4982,253.7095 362.17,253.897 Q362.8419,254.0689 363.5294,254.4126 L362.7169,256.4282 Q362.0919,256.1157 361.545,255.9907 Q361.0138,255.8657 360.5294,255.8657 Q359.3575,255.8657 358.6544,256.397 Q357.9513,256.9282 357.6544,257.8814 Q357.3575,258.8345 357.3575,260.1001 Q357.3575,262.1157 358.0763,263.0845 Q358.795,264.0376 360.3888,264.0376 Q360.9825,264.0376 361.6075,263.8814 Q362.2325,263.7251 363.0607,263.3501 L363.0607,265.5689 Q362.3263,265.8814 361.5294,266.0376 Q360.7482,266.1939 359.9825,266.1939 Z " fill="#000000"/><text fill="#000000" font-family="sans-serif" font-size="14" lengthAdjust="spacing" textLength="48.4678" x="381.0138" y="264.704">Metrics</text><line style="stroke:#181818;stroke-width:0.5;" x1="300.74" x2="477.2554" y1="275.272" y2="275.272"/><rect fill="none" height="6" style="stroke:#C82930;stroke-width:1;" width="6" x="307.74" y="287.3059"/><text fill="#000000" font-family="sans-serif" font-size="14" lengthAdjust="spacing" textLength="137.6335" x="319.74" y="294.2379">CO2_savings_pct: pct</text><rect fill="none" height="6" style="stroke:#C82930;stroke-width:1;" width="6" x="307.74" y="306.3739"/><text fill="#000000" font-family="sans-serif" font-size="14" lengthAdjust="spacing" textLength="152.5154" x="319.74" y="313.3058">time_overhead_pct: pct</text><rect fill="none" height="6" style="stroke:#C82930;stroke-width:1;" width="6" x="307.74" y="325.4418"/><text fill="#000000" font-family="sans-serif" font-size="14" lengthAdjust="spacing" textLength="72.7717" x="319.74" y="332.3738">score: float</text><line style="stroke:#181818;stroke-width:0.5;" x1="300.74" x2="477.2554" y1="340.4757" y2="340.4757"/></g><!--link Simulation to TrainingRunProfile--><g class="link" data-entity-1="Simulation" data-entity-2="TrainingRunProfile" data-source-line="71" data-uid="lnk14" id="link_Simulation_TrainingRunProfile"><path codeLine="71" d="M478.03,91.572 C714.26,97.542 1153.65,114.742 1208,160.742 C1282.22,223.562 1328.8,526.492 1260,595.212 C1249.89,605.312 1016.17,597.692 1003,603.212 C978.44,613.512 960.1314,626.511 940.7814,644.881" fill="none" id="Simulation-to-TrainingRunProfile" style="stroke:#181818;stroke-width:1;"/><polygon fill="#181818" points="936.43,649.012,945.7111,645.7164,940.0562,645.5695,940.2031,639.9145,936.43,649.012" style="stroke:#181818;stroke-width:1;"/><text fill="#000000" font-family="sans-serif" font-size="13" lengthAdjust="spacing" textLength="27.82" x="1291.98" y="404.909">uses</text></g><!--link Simulation to GridData--><g class="link" data-entity-1="Simulation" data-entity-2="GridData" data-source-line="72" data-uid="lnk15" id="link_Simulation_GridData"><path codeLine="72" d="M477.9,91.992 C699.33,98.362 1104.13,115.882 1242,160.742 C1439.25,224.922 1407.8421,543.5312 1386.8321,671.5012" fill="none" id="Simulation-to-GridData" style="stroke:#181818;stroke-width:1;"/><polygon fill="#181818" points="1385.86,677.422,1391.2652,669.1889,1386.6701,672.488,1383.3709,667.8928,1385.86,677.422" style="stroke:#181818;stroke-width:1;"/><text fill="#000000" font-family="sans-serif" font-size="13" lengthAdjust="spacing" textLength="62.1141" x="1398.32" y="404.909">consumes</text></g><!--link Simulation to OptimizationPolicy--><g class="link" data-entity-1="Simulation" data-entity-2="OptimizationPolicy" data-source-line="73" data-uid="lnk16" id="link_Simulation_OptimizationPolicy"><path codeLine="73" d="M399.67,131.082 C428.87,148.612 463.07,169.152 494,187.742 C518.58,202.512 539.9089,215.3486 564.7389,230.2886" fill="none" id="Simulation-to-OptimizationPolicy" style="stroke:#181818;stroke-width:1;"/><polygon fill="#181818" points="569.88,233.382,564.2306,225.3145,565.5957,230.8042,560.1061,232.1693,569.88,233.382" style="stroke:#181818;stroke-width:1;"/><text fill="#000000" font-family="sans-serif" font-size="13" lengthAdjust="spacing" textLength="43.55" x="481.63" y="175.639">applies</text></g><!--link Simulation to ScenarioParameters--><g class="link" data-entity-1="Simulation" data-entity-2="ScenarioParameters" data-source-line="74" data-uid="lnk17" id="link_Simulation_ScenarioParameters"><path codeLine="74" d="M477.98,96.572 C698,109.772 1088.55,139.722 1131,187.742 C1243.46,314.942 1193.3332,526.3923 1152.8232,643.3823" fill="none" id="Simulation-to-ScenarioParameters" style="stroke:#181818;stroke-width:1;"/><polygon fill="#181818" points="1150.86,649.052,1157.5847,641.8562,1152.496,644.3272,1150.0251,639.2386,1150.86,649.052" style="stroke:#181818;stroke-width:1;"/><text fill="#000000" font-family="sans-serif" font-size="13" lengthAdjust="spacing" textLength="81.7701" x="1199.9" y="404.909">configuredBy</text></g><!--link Simulation to InternalState--><g class="link" data-entity-1="Simulation" data-entity-2="InternalState" data-source-line="75" data-uid="lnk18" id="link_Simulation_InternalState"><path codeLine="75" d="M290.91,130.902 C264.23,160.472 232.1888,196.0068 202.3488,229.0868" fill="none" id="Simulation-to-InternalState" style="stroke:#181818;stroke-width:1;"/><polygon fill="#181818" points="198.33,233.542,207.3284,229.5384,201.679,229.8293,201.3881,224.1799,198.33,233.542" style="stroke:#181818;stroke-width:1;"/><text fill="#000000" font-family="sans-serif" font-size="13" lengthAdjust="spacing" textLength="49.569" x="264.53" y="175.639">updates</text></g><!--link Simulation to Metrics--><g class="link" data-entity-1="Simulation" data-entity-2="Metrics" data-source-line="76" data-uid="lnk19" id="link_Simulation_Metrics"><path codeLine="76" d="M341.29,130.902 C350.71,163.302 362.1042,202.4408 372.1742,237.0608" fill="none" id="Simulation-to-Metrics" style="stroke:#181818;stroke-width:1;"/><polygon fill="#181818" points="373.85,242.822,375.1771,233.063,372.4535,238.021,367.4955,235.2973,373.85,242.822" style="stroke:#181818;stroke-width:1;"/><text fill="#000000" font-family="sans-serif" font-size="13" lengthAdjust="spacing" textLength="57.0571" x="356.41" y="175.639">produces</text></g><!--reverse link OptimizationPolicy to PauseResumeLogic--><g class="link" data-entity-1="OptimizationPolicy" data-entity-2="PauseResumeLogic" data-source-line="78" data-uid="lnk20" id="link_OptimizationPolicy_PauseResumeLogic"><path codeLine="78" d="M780.037,364.8322 C821.077,390.6522 858.12,413.952 897.38,438.642" fill="none" id="OptimizationPolicy-backto-PauseResumeLogic" style="stroke:#181818;stroke-width:1;"/><polygon fill="#181818" points="769.88,358.442,772.8284,365.0228,780.037,364.8322,777.0886,358.2514,769.88,358.442" style="stroke:#181818;stroke-width:1;"/><text fill="#000000" font-family="sans-serif" font-size="13" lengthAdjust="spacing" textLength="51.7401" x="845.44" y="404.909">contains</text></g><!--reverse link OptimizationPolicy to Checkpointing--><g class="link" data-entity-1="OptimizationPolicy" data-entity-2="Checkpointing" data-source-line="79" data-uid="lnk21" id="link_OptimizationPolicy_Checkpointing"><path codeLine="79" d="M672,370.442 C672,396.262 672,413.952 672,438.642" fill="none" id="OptimizationPolicy-backto-Checkpointing" style="stroke:#181818;stroke-width:1;"/><polygon fill="#181818" points="672,358.442,668,364.442,672,370.442,676,364.442,672,358.442" style="stroke:#181818;stroke-width:1;"/><text fill="#000000" font-family="sans-serif" font-size="13" lengthAdjust="spacing" textLength="27.82" x="673" y="404.909">uses</text></g><!--link Checkpointing to TrainingRunProfile--><g class="link" data-entity-1="Checkpointing" data-entity-2="TrainingRunProfile" data-source-line="80" data-uid="lnk22" id="link_Checkpointing_TrainingRunProfile"><path codeLine="80" d="M715.67,544.582 C741.41,575.212 770.6702,610.0283 799.7002,644.5783" fill="none" id="Checkpointing-to-TrainingRunProfile" style="stroke:#181818;stroke-width:1;"/><polygon fill="#181818" points="803.56,649.172,800.8328,639.7082,800.3435,645.3439,794.7079,644.8546,803.56,649.172" style="stroke:#181818;stroke-width:1;"/><text fill="#000000" font-family="sans-serif" font-size="13" lengthAdjust="spacing" textLength="71.0971" x="754.68" y="591.109">dependsOn</text></g><!--link PauseResumeLogic to GridData--><g class="link" data-entity-1="PauseResumeLogic" data-entity-2="GridData" data-source-line="81" data-uid="lnk23" id="link_PauseResumeLogic_GridData"><path codeLine="81" d="M1115.16,541.712 C1155.11,558.712 1198.02,579.532 1235,603.212 C1267.78,624.212 1296.108,648.6503 1321.718,673.3103" fill="none" id="PauseResumeLogic-to-GridData" style="stroke:#181818;stroke-width:1;"/><polygon fill="#181818" points="1326.04,677.472,1322.3314,668.348,1322.4383,674.0039,1316.7825,674.1108,1326.04,677.472" style="stroke:#181818;stroke-width:1;"/><text fill="#000000" font-family="sans-serif" font-size="13" lengthAdjust="spacing" textLength="34.216" x="1216.81" y="591.109">reads</text></g><!--link InternalState to Checkpointing--><g class="link" data-entity-1="InternalState" data-entity-2="Checkpointing" data-source-line="82" data-uid="lnk24" id="link_InternalState_Checkpointing"><path codeLine="82" d="M235.68,358.472 C250.79,367.092 266.56,375.292 282,382.012 C362.72,417.142 451.974,442.5088 528.044,460.6688" fill="none" id="InternalState-to-Checkpointing" style="stroke:#181818;stroke-width:1;"/><polygon fill="#181818" points="533.88,462.062,526.0548,456.0815,529.0167,460.901,524.1972,463.8628,533.88,462.062" style="stroke:#181818;stroke-width:1;"/><text fill="#000000" font-family="sans-serif" font-size="13" lengthAdjust="spacing" textLength="48.334" x="344.49" y="404.909">triggers</text></g><!--SRC=[TLHDJ-Cm4BtdLrXSO7VfXMCFUrX020b41OiuMeCpJQowjjTZb-qY_lkEqoHjalRI3_lPy-QzDpwFEXeKrqzNC_Y0WEBXuL7y3g2jjfLuqUja86fdnRK18d6ZeGgmBWeFQWKLYdlhKoHvxIn5i974Po64Qh3TBS_9Be9RQYwJDuMOYRKhqKWFV1NDXNB9ndQdX0Y4KKQtGZlQgtoIpV_fidSV66JC5UVYJNh-SxTudG0y9C8fm2TU3BbFNlWg-WxkWYvlc53FMxahgMraPZfk9VEeM3ZyqrotUgjR51fKCMYLCPw_CIDlNvz7iDogX0re0-_QPF3IG9MnxywP8PCNXHQ2Teii6KOCr7EATK2gdIabwpONHbCdJBqbHY9fccm5hDZKwJgR65XylSRfNiq_7RS3HcuH0WqstGP3ZL3AzrHMx9zNV9W_cZQ-zdbPEAFLDkSb1cSEu_BakQp-rwHjXpfe4LcgrhoZadES694RFW7ODJpd1WD7ilCztoWvq9PJ7jY1kK2RraFf5ndqZ9JM-E0ghNfMeLcJlVudAhFwJPsozrM87m8tO194lAWuO_TTfBxD1QWim932TOrgvHqdBmzbL_yOxu4LsKRkkE6Z-Yl6ABGOAhxXhPu21zQTtVv5bJAximFR3fw8pxQtaEo5Rnoy57ut-PSYztafgCqnDvebDP7QCvnKVr56Na-U1mDfg41MA5WmBv7tzhbeNnYUCbUn2tGOkzqaWcVbvGSOqyhHsG9AfOOvR-DQ4-Lvw2mSv6Fqv1omUiGyvljHvBEIOCEC9anoSTbhFjeavG9JMne7lUhdBD1ELwgrf-90vzdivx77bQKZd03xDontO7DY9v0ZaySvzDxeAVR8GzHSlDHL2bZ-seuF39tRspk2TLBESsBAf1XH7E7rVJQR3cH38B8UTEh8S81QeOQB9qKjqQCjwSaMay8ZVGDRIyMmuGmPL-TEgugL-my0]--></g></svg>