<svg xmlns="http://www.w3.org/2000/svg" xmlns:xlink="http://www.w3.org/1999/xlink" contentStyleType="text/css" data-diagram-type="CLASS" height="874px" preserveAspectRatio="none" style="width:1523px;height:874px;background:#FFFFFF;" version="1.1" viewBox="0 0 1523 874" width="1523px" zoomAndPan="magnify"><title>CO2-aware LLM Training Simulation Class Diagram</title><defs/><g><g class="title" data-source-line="1"><text fill="#000000" font-family="sans-serif" font-size="14" font-weight="bold" lengthAdjust="spacing" textLength="352.0007" x="578.4997" y="24.9659">CO2-aware LLM Training Simulation Class Diagram</text></g><!--cluster Inputs_Constants--><g class="cluster" data-entity="Inputs_Constants" data-source-line="3" data-uid="ent0002" id="cluster_Inputs_Constants"><path d="M742.5,651.2799 L865.3835,651.2799 A3.75,3.75 0 0 1 867.8835,653.7799 L874.8835,676.3478 L1513.5,676.3478 A2.5,2.5 0 0 1 1516,678.8478 L1516,865.1899 A2.5,2.5 0 0 1 1513.5,867.6899 L742.5,867.6899 A2.5,2.5 0 0 1 740,865.1899 L740,653.7799 A2.5,2.5 0 0 1 742.5,651.2799" fill="none" style="stroke:#000000;stroke-width:1.5;"/><line style="stroke:#000000;stroke-width:1.5;" x1="740" x2="874.8835" y1="676.3478" y2="676.3478"/><text fill="#000000" font-family="sans-serif" font-size="14" font-weight="bold" lengthAdjust="spacing" textLength="121.8835" x="744" y="668.2458">Inputs_Constants</text></g><!--cluster Policy_Controls--><g class="cluster" data-entity="Policy_Controls" data-source-line="29" data-uid="ent0006" id="cluster_Policy_Controls"><path d="M520.5,235.8099 L627.3956,235.8099 A3.75,3.75 0 0 1 629.8956,238.3099 L636.8956,260.8778 L1128.5,260.8778 A2.5,2.5 0 0 1 1131,263.3778 L1131,597.7799 A2.5,2.5 0 0 1 1128.5,600.2799 L520.5,600.2799 A2.5,2.5 0 0 1 518,597.7799 L518,238.3099 A2.5,2.5 0 0 1 520.5,235.8099" fill="none" style="stroke:#000000;stroke-width:1.5;"/><line style="stroke:#000000;stroke-width:1.5;" x1="518" x2="636.8956" y1="260.8778" y2="260.8778"/><text fill="#000000" font-family="sans-serif" font-size="14" font-weight="bold" lengthAdjust="spacing" textLength="105.8956" x="522" y="252.7758">Policy_Controls</text></g><!--cluster Execution--><g class="cluster" data-entity="Execution" data-source-line="50" data-uid="ent0010" id="cluster_Execution"><path d="M8.5,46.6699 L78.2257,46.6699 A3.75,3.75 0 0 1 80.7257,49.1699 L87.7257,71.7378 L491.5,71.7378 A2.5,2.5 0 0 1 494,74.2378 L494,411.5799 A2.5,2.5 0 0 1 491.5,414.0799 L8.5,414.0799 A2.5,2.5 0 0 1 6,411.5799 L6,49.1699 A2.5,2.5 0 0 1 8.5,46.6699" fill="none" style="stroke:#000000;stroke-width:1.5;"/><line style="stroke:#000000;stroke-width:1.5;" x1="6" x2="87.7257" y1="71.7378" y2="71.7378"/><text fill="#000000" font-family="sans-serif" font-size="14" font-weight="bold" lengthAdjust="spacing" textLength="68.7257" x="10" y="63.6358">Execution</text></g><!--class TrainingRunProfile--><g class="entity" data-entity="TrainingRunProfile" data-source-line="4" data-uid="ent0003" id="entity_TrainingRunProfile"><rect fill="#F1F1F1" height="162.4075" rx="2.5" ry="2.5" style="stroke:#181818;stroke-width:0.5;" width="229.8112" x="756.09" y="689.2799"/><ellipse cx="805.1318" cy="705.2799" fill="#ADD1B2" rx="11" ry="11" style="stroke:#181818;stroke-width:1;"/><path d="M804.6006,712.2018 Q802.8506,712.2018 801.71,711.4674 Q800.585,710.7174 800.0225,709.3736 Q799.4756,708.0143 799.4756,706.2174 Q799.4756,704.1861 800.1318,702.733 Q800.7881,701.2799 802.0693,700.4986 Q803.3506,699.7174 805.2256,699.7174 Q806.1162,699.7174 806.7881,699.9049 Q807.46,700.0768 808.1475,700.4205 L807.335,702.4361 Q806.71,702.1236 806.1631,701.9986 Q805.6318,701.8736 805.1475,701.8736 Q803.9756,701.8736 803.2725,702.4049 Q802.5693,702.9361 802.2725,703.8893 Q801.9756,704.8424 801.9756,706.108 Q801.9756,708.1236 802.6943,709.0924 Q803.4131,710.0455 805.0068,710.0455 Q805.6006,710.0455 806.2256,709.8893 Q806.8506,709.733 807.6787,709.358 L807.6787,711.5768 Q806.9443,711.8893 806.1475,712.0455 Q805.3662,712.2018 804.6006,712.2018 Z " fill="#000000"/><text fill="#000000" font-family="sans-serif" font-size="14" lengthAdjust="spacing" textLength="123.2275" x="825.6318" y="710.7119">TrainingRunProfile</text><line style="stroke:#181818;stroke-width:0.5;" x1="757.09" x2="984.9012" y1="721.2799" y2="721.2799"/><rect fill="none" height="6" style="stroke:#C82930;stroke-width:1;" width="6" x="764.09" y="733.3139"/><text fill="#000000" font-family="sans-serif" font-size="14" lengthAdjust="spacing" textLength="142.7295" x="776.09" y="740.2458">model_params: count</text><rect fill="none" height="6" style="stroke:#C82930;stroke-width:1;" width="6" x="764.09" y="752.3818"/><text fill="#000000" font-family="sans-serif" font-size="14" lengthAdjust="spacing" textLength="144.4375" x="776.09" y="759.3138">dataset_tokens: count</text><rect fill="none" height="6" style="stroke:#C82930;stroke-width:1;" width="6" x="764.09" y="771.4497"/><text fill="#000000" font-family="sans-serif" font-size="14" lengthAdjust="spacing" textLength="114.5755" x="776.09" y="778.3817">gpu_count: count</text><rect fill="none" height="6" style="stroke:#C82930;stroke-width:1;" width="6" x="764.09" y="790.5176"/><text fill="#000000" font-family="sans-serif" font-size="14" lengthAdjust="spacing" textLength="195.0472" x="776.09" y="797.4496">gpu_power_train: W_per_GPU</text><rect fill="none" height="6" style="stroke:#C82930;stroke-width:1;" width="6" x="764.09" y="809.5855"/><text fill="#000000" font-family="sans-serif" font-size="14" lengthAdjust="spacing" textLength="203.8112" x="776.09" y="816.5175">gpu_power_pause: W_per_GPU</text><rect fill="none" height="6" style="stroke:#C82930;stroke-width:1;" width="6" x="764.09" y="828.6534"/><text fill="#000000" font-family="sans-serif" font-size="14" lengthAdjust="spacing" textLength="63.3218" x="776.09" y="835.5854">pue: ratio</text><line style="stroke:#181818;stroke-width:0.5;" x1="757.09" x2="984.9012" y1="843.6874" y2="843.6874"/></g><!--class GridData--><g class="entity" data-entity="GridData" data-source-line="13" data-uid="ent0004" id="entity_GridData"><rect fill="#F1F1F1" height="105.2038" rx="2.5" ry="2.5" style="stroke:#181818;stroke-width:0.5;" width="247.2271" x="1252.39" y="717.8799"/><ellipse cx="1342.1647" cy="733.8799" fill="#ADD1B2" rx="11" ry="11" style="stroke:#181818;stroke-width:1;"/><path d="M1341.6334,740.8018 Q1339.8834,740.8018 1338.7428,740.0674 Q1337.6178,739.3174 1337.0553,737.9736 Q1336.5084,736.6143 1336.5084,734.8174 Q1336.5084,732.7861 1337.1647,731.333 Q1337.8209,729.8799 1339.1022,729.0986 Q1340.3834,728.3174 1342.2584,728.3174 Q1343.149,728.3174 1343.8209,728.5049 Q1344.4928,728.6768 1345.1803,729.0205 L1344.3678,731.0361 Q1343.7428,730.7236 1343.1959,730.5986 Q1342.6647,730.4736 1342.1803,730.4736 Q1341.0084,730.4736 1340.3053,731.0049 Q1339.6022,731.5361 1339.3053,732.4893 Q1339.0084,733.4424 1339.0084,734.708 Q1339.0084,736.7236 1339.7272,737.6924 Q1340.4459,738.6455 1342.0397,738.6455 Q1342.6334,738.6455 1343.2584,738.4893 Q1343.8834,738.333 1344.7115,737.958 L1344.7115,740.1768 Q1343.9772,740.4893 1343.1803,740.6455 Q1342.399,740.8018 1341.6334,740.8018 Z " fill="#000000"/><text fill="#000000" font-family="sans-serif" font-size="14" lengthAdjust="spacing" textLength="59.1778" x="1362.6647" y="739.3119">GridData</text><line style="stroke:#181818;stroke-width:0.5;" x1="1253.39" x2="1498.6171" y1="749.8799" y2="749.8799"/><rect fill="none" height="6" style="stroke:#C82930;stroke-width:1;" width="6" x="1260.39" y="761.9139"/><text fill="#000000" font-family="sans-serif" font-size="14" lengthAdjust="spacing" textLength="221.2271" x="1272.39" y="768.8458">co2_intensity_t: gCO2eq_per_kWh</text><rect fill="none" height="6" style="stroke:#C82930;stroke-width:1;" width="6" x="1260.39" y="780.9818"/><text fill="#000000" font-family="sans-serif" font-size="14" lengthAdjust="spacing" textLength="211.1891" x="1272.39" y="787.9138">electricity_price_t: EUR_per_kWh</text><rect fill="none" height="6" style="stroke:#C82930;stroke-width:1;" width="6" x="1260.39" y="800.0497"/><text fill="#000000" font-family="sans-serif" font-size="14" lengthAdjust="spacing" textLength="184.0573" x="1272.39" y="806.9817">data_availability_flag_t: bool</text><line style="stroke:#181818;stroke-width:0.5;" x1="1253.39" x2="1498.6171" y1="815.0836" y2="815.0836"/></g><!--class ScenarioParameters--><g class="entity" data-entity="ScenarioParameters" data-source-line="19" data-uid="ent0005" id="entity_ScenarioParameters"><rect fill="#F1F1F1" height="162.4075" rx="2.5" ry="2.5" style="stroke:#181818;stroke-width:0.5;" width="196.2953" x="1020.85" y="689.2799"/><ellipse cx="1049.9079" cy="705.2799" fill="#ADD1B2" rx="11" ry="11" style="stroke:#181818;stroke-width:1;"/><path d="M1049.3767,712.2018 Q1047.6267,712.2018 1046.4861,711.4674 Q1045.3611,710.7174 1044.7986,709.3736 Q1044.2517,708.0143 1044.2517,706.2174 Q1044.2517,704.1861 1044.9079,702.733 Q1045.5642,701.2799 1046.8454,700.4986 Q1048.1267,699.7174 1050.0017,699.7174 Q1050.8923,699.7174 1051.5642,699.9049 Q1052.2361,700.0768 1052.9236,700.4205 L1052.1111,702.4361 Q1051.4861,702.1236 1050.9392,701.9986 Q1050.4079,701.8736 1049.9236,701.8736 Q1048.7517,701.8736 1048.0486,702.4049 Q1047.3454,702.9361 1047.0486,703.8893 Q1046.7517,704.8424 1046.7517,706.108 Q1046.7517,708.1236 1047.4704,709.0924 Q1048.1892,710.0455 1049.7829,710.0455 Q1050.3767,710.0455 1051.0017,709.8893 Q1051.6267,709.733 1052.4548,709.358 L1052.4548,711.5768 Q1051.7204,711.8893 1050.9236,712.0455 Q1050.1423,712.2018 1049.3767,712.2018 Z " fill="#000000"/><text fill="#000000" font-family="sans-serif" font-size="14" lengthAdjust="spacing" textLength="133.0555" x="1067.0319" y="710.7119">ScenarioParameters</text><line style="stroke:#181818;stroke-width:0.5;" x1="1021.85" x2="1216.1453" y1="721.2799" y2="721.2799"/><rect fill="none" height="6" style="stroke:#C82930;stroke-width:1;" width="6" x="1028.85" y="733.3139"/><text fill="#000000" font-family="sans-serif" font-size="14" lengthAdjust="spacing" textLength="115.6816" x="1040.85" y="740.2458">threshold_set: list</text><rect fill="none" height="6" style="stroke:#C82930;stroke-width:1;" width="6" x="1028.85" y="752.3818"/><text fill="#000000" font-family="sans-serif" font-size="14" lengthAdjust="spacing" textLength="118.3976" x="1040.85" y="759.3138">hysteresis_set: list</text><rect fill="none" height="6" style="stroke:#C82930;stroke-width:1;" width="6" x="1028.85" y="771.4497"/><text fill="#000000" font-family="sans-serif" font-size="14" lengthAdjust="spacing" textLength="101.9756" x="1040.85" y="778.3817">regions_set: list</text><rect fill="none" height="6" style="stroke:#C82930;stroke-width:1;" width="6" x="1028.85" y="790.5176"/><text fill="#000000" font-family="sans-serif" font-size="14" lengthAdjust="spacing" textLength="125.2715" x="1040.85" y="797.4496">start_times_set: list</text><rect fill="none" height="6" style="stroke:#C82930;stroke-width:1;" width="6" x="1028.85" y="809.5855"/><text fill="#000000" font-family="sans-serif" font-size="14" lengthAdjust="spacing" textLength="128.0435" x="1040.85" y="816.5175">historical_years: list</text><rect fill="none" height="6" style="stroke:#C82930;stroke-width:1;" width="6" x="1028.85" y="828.6534"/><text fill="#000000" font-family="sans-serif" font-size="14" lengthAdjust="spacing" textLength="170.2953" x="1040.85" y="835.5854">overhead_budget_pct: pct</text><line style="stroke:#181818;stroke-width:0.5;" x1="1021.85" x2="1216.1453" y1="843.6874" y2="843.6874"/></g><!--class OptimizationPolicy--><g class="entity" data-entity="OptimizationPolicy" data-source-line="30" data-uid="ent0007" id="entity_OptimizationPolicy"><rect fill="#F1F1F1" height="124.2717" rx="2.5" ry="2.5" style="stroke:#181818;stroke-width:0.5;" width="230.6092" x="556.7" y="273.8099"/><ellipse cx="606.1758" cy="289.8099" fill="#ADD1B2" rx="11" ry="11" style="stroke:#181818;stroke-width:1;"/><path d="M605.6446,296.7318 Q603.8946,296.7318 602.754,295.9974 Q601.629,295.2474 601.0665,293.9036 Q600.5196,292.5443 600.5196,290.7474 Q600.5196,288.7161 601.1758,287.263 Q601.8321,285.8099 603.1133,285.0286 Q604.3946,284.2474 606.2696,284.2474 Q607.1602,284.2474 607.8321,284.4349 Q608.504,284.6068 609.1915,284.9505 L608.379,286.9661 Q607.754,286.6536 607.2071,286.5286 Q606.6758,286.4036 606.1915,286.4036 Q605.0196,286.4036 604.3165,286.9349 Q603.6133,287.4661 603.3165,288.4193 Q603.0196,289.3724 603.0196,290.638 Q603.0196,292.6536 603.7383,293.6224 Q604.4571,294.5755 606.0508,294.5755 Q606.6446,294.5755 607.2696,294.4193 Q607.8946,294.263 608.7227,293.888 L608.7227,296.1068 Q607.9883,296.4193 607.1915,296.5755 Q606.4102,296.7318 605.6446,296.7318 Z " fill="#000000"/><text fill="#000000" font-family="sans-serif" font-size="14" lengthAdjust="spacing" textLength="123.1575" x="626.6758" y="295.2419">OptimizationPolicy</text><line style="stroke:#181818;stroke-width:0.5;" x1="557.7" x2="786.3092" y1="305.8099" y2="305.8099"/><rect fill="none" height="6" style="stroke:#C82930;stroke-width:1;" width="6" x="564.7" y="317.8439"/><text fill="#000000" font-family="sans-serif" font-size="14" lengthAdjust="spacing" textLength="204.6092" x="576.7" y="324.7758">theta_pause: gCO2eq_per_kWh</text><rect fill="none" height="6" style="stroke:#C82930;stroke-width:1;" width="6" x="564.7" y="336.9118"/><text fill="#000000" font-family="sans-serif" font-size="14" lengthAdjust="spacing" textLength="190.9592" x="576.7" y="343.8438">delta_hyst: gCO2eq_per_kWh</text><rect fill="none" height="6" style="stroke:#C82930;stroke-width:1;" width="6" x="564.7" y="355.9797"/><text fill="#000000" font-family="sans-serif" font-size="14" lengthAdjust="spacing" textLength="88.8297" x="576.7" y="362.9117">region: string</text><rect fill="none" height="6" style="stroke:#C82930;stroke-width:1;" width="6" x="564.7" y="375.0476"/><text fill="#000000" font-family="sans-serif" font-size="14" lengthAdjust="spacing" textLength="164.2194" x="576.7" y="381.9796">pause_granularity: enum</text><line style="stroke:#181818;stroke-width:0.5;" x1="557.7" x2="786.3092" y1="390.0816" y2="390.0816"/></g><!--class PauseResumeLogic--><g class="entity" data-entity="PauseResumeLogic" data-source-line="37" data-uid="ent0008" id="entity_PauseResumeLogic"><rect fill="#F1F1F1" height="105.2038" rx="2.5" ry="2.5" style="stroke:#181818;stroke-width:0.5;" width="269.837" x="845.08" y="479.0799"/><ellipse cx="912.1118" cy="495.0799" fill="#ADD1B2" rx="11" ry="11" style="stroke:#181818;stroke-width:1;"/><path d="M911.5805,502.0018 Q909.8305,502.0018 908.6899,501.2674 Q907.5649,500.5174 907.0024,499.1736 Q906.4555,497.8143 906.4555,496.0174 Q906.4555,493.9861 907.1118,492.533 Q907.768,491.0799 909.0493,490.2986 Q910.3305,489.5174 912.2055,489.5174 Q913.0961,489.5174 913.768,489.7049 Q914.4399,489.8768 915.1274,490.2205 L914.3149,492.2361 Q913.6899,491.9236 913.143,491.7986 Q912.6118,491.6736 912.1274,491.6736 Q910.9555,491.6736 910.2524,492.2049 Q909.5493,492.7361 909.2524,493.6893 Q908.9555,494.6424 908.9555,495.908 Q908.9555,497.9236 909.6743,498.8924 Q910.393,499.8455 911.9868,499.8455 Q912.5805,499.8455 913.2055,499.6893 Q913.8305,499.533 914.6586,499.158 L914.6586,501.3768 Q913.9243,501.6893 913.1274,501.8455 Q912.3461,502.0018 911.5805,502.0018 Z " fill="#000000"/><text fill="#000000" font-family="sans-serif" font-size="14" lengthAdjust="spacing" textLength="127.2735" x="932.6118" y="500.5119">PauseResumeLogic</text><line style="stroke:#181818;stroke-width:0.5;" x1="846.08" x2="1113.917" y1="511.0799" y2="511.0799"/><rect fill="none" height="6" style="stroke:#C82930;stroke-width:1;" width="6" x="853.08" y="523.1139"/><text fill="#000000" font-family="sans-serif" font-size="14" lengthAdjust="spacing" textLength="243.837" x="865.08" y="530.0458">resume_threshold: gCO2eq_per_kWh</text><rect fill="none" height="6" style="stroke:#C82930;stroke-width:1;" width="6" x="853.08" y="542.1818"/><text fill="#000000" font-family="sans-serif" font-size="14" lengthAdjust="spacing" textLength="101.4156" x="865.08" y="549.1138">is_paused: bool</text><line style="stroke:#181818;stroke-width:0.5;" x1="846.08" x2="1113.917" y1="557.2157" y2="557.2157"/><ellipse cx="856.08" cy="572.2497" fill="#84BE84" rx="3" ry="3" style="stroke:#038048;stroke-width:1;"/><text fill="#000000" font-family="sans-serif" font-size="14" lengthAdjust="spacing" textLength="196.2092" x="865.08" y="576.1817">evaluate(gridIntensity): action</text></g><!--class Checkpointing--><g class="entity" data-entity="Checkpointing" data-source-line="43" data-uid="ent0009" id="entity_Checkpointing"><rect fill="#F1F1F1" height="105.2038" rx="2.5" ry="2.5" style="stroke:#181818;stroke-width:0.5;" width="276.109" x="533.95" y="479.0799"/><ellipse cx="620.3227" cy="495.0799" fill="#ADD1B2" rx="11" ry="11" style="stroke:#181818;stroke-width:1;"/><path d="M619.7914,502.0018 Q618.0414,502.0018 616.9008,501.2674 Q615.7758,500.5174 615.2133,499.1736 Q614.6664,497.8143 614.6664,496.0174 Q614.6664,493.9861 615.3227,492.533 Q615.9789,491.0799 617.2602,490.2986 Q618.5414,489.5174 620.4164,489.5174 Q621.3071,489.5174 621.9789,489.7049 Q622.6508,489.8768 623.3383,490.2205 L622.5258,492.2361 Q621.9008,491.9236 621.3539,491.7986 Q620.8227,491.6736 620.3383,491.6736 Q619.1664,491.6736 618.4633,492.2049 Q617.7602,492.7361 617.4633,493.6893 Q617.1664,494.6424 617.1664,495.908 Q617.1664,497.9236 617.8852,498.8924 Q618.6039,499.8455 620.1977,499.8455 Q620.7914,499.8455 621.4164,499.6893 Q622.0414,499.533 622.8696,499.158 L622.8696,501.3768 Q622.1352,501.6893 621.3383,501.8455 Q620.5571,502.0018 619.7914,502.0018 Z " fill="#000000"/><text fill="#000000" font-family="sans-serif" font-size="14" lengthAdjust="spacing" textLength="94.8636" x="640.8227" y="500.5119">Checkpointing</text><line style="stroke:#181818;stroke-width:0.5;" x1="534.95" x2="809.059" y1="511.0799" y2="511.0799"/><rect fill="none" height="6" style="stroke:#C82930;stroke-width:1;" width="6" x="541.95" y="523.1139"/><text fill="#000000" font-family="sans-serif" font-size="14" lengthAdjust="spacing" textLength="118.2855" x="553.95" y="530.0458">granularity: enum</text><rect fill="none" height="6" style="stroke:#C82930;stroke-width:1;" width="6" x="541.95" y="542.1818"/><text fill="#000000" font-family="sans-serif" font-size="14" lengthAdjust="spacing" textLength="218.8191" x="553.95" y="549.1138">overhead_time: s_per_checkpoint</text><rect fill="none" height="6" style="stroke:#C82930;stroke-width:1;" width="6" x="541.95" y="561.2497"/><text fill="#000000" font-family="sans-serif" font-size="14" lengthAdjust="spacing" textLength="250.109" x="553.95" y="568.1817">overhead_energy: Wh_per_checkpoint</text><line style="stroke:#181818;stroke-width:0.5;" x1="534.95" x2="809.059" y1="576.2836" y2="576.2836"/></g><!--class Simulation--><g class="entity" data-entity="Simulation" data-source-line="51" data-uid="ent0011" id="entity_Simulation"><rect fill="#F1F1F1" height="86.1358" rx="2.5" ry="2.5" style="stroke:#181818;stroke-width:0.5;" width="297.6549" x="180.17" y="84.6699"/><ellipse cx="289.6006" cy="100.6699" fill="#ADD1B2" rx="11" ry="11" style="stroke:#181818;stroke-width:1;"/><path d="M289.0693,107.5918 Q287.3193,107.5918 286.1787,106.8574 Q285.0537,106.1074 284.4912,104.7636 Q283.9443,103.4043 283.9443,101.6074 Q283.9443,99.5761 284.6006,98.123 Q285.2568,96.6699 286.5381,95.8886 Q287.8193,95.1074 289.6943,95.1074 Q290.585,95.1074 291.2568,95.2949 Q291.9287,95.4668 292.6162,95.8105 L291.8037,97.8261 Q291.1787,97.5136 290.6318,97.3886 Q290.1006,97.2636 289.6162,97.2636 Q288.4443,97.2636 287.7412,97.7949 Q287.0381,98.3261 286.7412,99.2793 Q286.4443,100.2324 286.4443,101.498 Q286.4443,103.5136 287.1631,104.4824 Q287.8818,105.4355 289.4756,105.4355 Q290.0693,105.4355 290.6943,105.2793 Q291.3193,105.123 292.1475,104.748 L292.1475,106.9668 Q291.4131,107.2793 290.6162,107.4355 Q289.835,107.5918 289.0693,107.5918 Z " fill="#000000"/><text fill="#000000" font-family="sans-serif" font-size="14" lengthAdjust="spacing" textLength="70.2937" x="310.1006" y="106.1019">Simulation</text><line style="stroke:#181818;stroke-width:0.5;" x1="181.17" x2="476.8249" y1="116.6699" y2="116.6699"/><line style="stroke:#181818;stroke-width:0.5;" x1="181.17" x2="476.8249" y1="124.6699" y2="124.6699"/><ellipse cx="191.17" cy="139.7039" fill="#84BE84" rx="3" ry="3" style="stroke:#038048;stroke-width:1;"/><text fill="#000000" font-family="sans-serif" font-size="14" lengthAdjust="spacing" textLength="271.6549" x="200.17" y="143.6358">run(policy, profile, grid, scenario): Results</text><ellipse cx="191.17" cy="158.7718" fill="#84BE84" rx="3" ry="3" style="stroke:#038048;stroke-width:1;"/><text fill="#000000" font-family="sans-serif" font-size="14" lengthAdjust="spacing" textLength="111.1036" x="200.17" y="162.7038">step(dt): updates</text></g><!--class InternalState--><g class="entity" data-entity="InternalState" data-source-line="56" data-uid="ent0012" id="entity_InternalState"><rect fill="#F1F1F1" height="124.2717" rx="2.5" ry="2.5" style="stroke:#181818;stroke-width:0.5;" width="242.6772" x="21.66" y="273.8099"/><ellipse cx="95.8527" cy="289.8099" fill="#ADD1B2" rx="11" ry="11" style="stroke:#181818;stroke-width:1;"/><path d="M95.3215,296.7318 Q93.5715,296.7318 92.4309,295.9974 Q91.3059,295.2474 90.7434,293.9036 Q90.1965,292.5443 90.1965,290.7474 Q90.1965,288.7161 90.8527,287.263 Q91.509,285.8099 92.7902,285.0286 Q94.0715,284.2474 95.9465,284.2474 Q96.8371,284.2474 97.509,284.4349 Q98.1809,284.6068 98.8684,284.9505 L98.0559,286.9661 Q97.4309,286.6536 96.884,286.5286 Q96.3527,286.4036 95.8684,286.4036 Q94.6965,286.4036 93.9934,286.9349 Q93.2902,287.4661 92.9934,288.4193 Q92.6965,289.3724 92.6965,290.638 Q92.6965,292.6536 93.4152,293.6224 Q94.134,294.5755 95.7277,294.5755 Q96.3215,294.5755 96.9465,294.4193 Q97.5715,294.263 98.3996,293.888 L98.3996,296.1068 Q97.6652,296.4193 96.8684,296.5755 Q96.0871,296.7318 95.3215,296.7318 Z " fill="#000000"/><text fill="#000000" font-family="sans-serif" font-size="14" lengthAdjust="spacing" textLength="85.7917" x="116.3527" y="295.2419">InternalState</text><line style="stroke:#181818;stroke-width:0.5;" x1="22.66" x2="263.3372" y1="305.8099" y2="305.8099"/><rect fill="none" height="6" style="stroke:#C82930;stroke-width:1;" width="6" x="29.66" y="317.8439"/><text fill="#000000" font-family="sans-serif" font-size="14" lengthAdjust="spacing" textLength="170.9814" x="41.66" y="324.7758">training_progress_pct: pct</text><rect fill="none" height="6" style="stroke:#C82930;stroke-width:1;" width="6" x="29.66" y="336.9118"/><text fill="#000000" font-family="sans-serif" font-size="14" lengthAdjust="spacing" textLength="135.3935" x="41.66" y="343.8438">elapsed_wall_time: h</text><rect fill="none" height="6" style="stroke:#C82930;stroke-width:1;" width="6" x="29.66" y="355.9797"/><text fill="#000000" font-family="sans-serif" font-size="14" lengthAdjust="spacing" textLength="216.6772" x="41.66" y="362.9117">accumulated_emissions: gCO2eq</text><rect fill="none" height="6" style="stroke:#C82930;stroke-width:1;" width="6" x="29.66" y="375.0476"/><text fill="#000000" font-family="sans-serif" font-size="14" lengthAdjust="spacing" textLength="128.4215" x="41.66" y="381.9796">pause_count: count</text><line style="stroke:#181818;stroke-width:0.5;" x1="22.66" x2="263.3372" y1="390.0816" y2="390.0816"/></g><!--class Metrics--><g class="entity" data-entity="Metrics" data-source-line="63" data-uid="ent0013" id="entity_Metrics"><rect fill="#F1F1F1" height="105.2038" rx="2.5" ry="2.5" style="stroke:#181818;stroke-width:0.5;" width="178.5154" x="299.74" y="283.3399"/><ellipse cx="360.5138" cy="299.3399" fill="#ADD1B2" rx="11" ry="11" style="stroke:#181818;stroke-width:1;"/><path d="M359.9825,306.2618 Q358.2325,306.2618 357.0919,305.5274 Q355.9669,304.7774 355.4044,303.4336 Q354.8575,302.0743 354.8575,300.2774 Q354.8575,298.2461 355.5138,296.793 Q356.17,295.3399 357.4513,294.5586 Q358.7325,293.7774 360.6075,293.7774 Q361.4982,293.7774 362.17,293.9649 Q362.8419,294.1368 363.5294,294.4805 L362.7169,296.4961 Q362.0919,296.1836 361.545,296.0586 Q361.0138,295.9336 360.5294,295.9336 Q359.3575,295.9336 358.6544,296.4649 Q357.9513,296.9961 357.6544,297.9493 Q357.3575,298.9024 357.3575,300.168 Q357.3575,302.1836 358.0763,303.1524 Q358.795,304.1055 360.3888,304.1055 Q360.9825,304.1055 361.6075,303.9493 Q362.2325,303.793 363.0607,303.418 L363.0607,305.6368 Q362.3263,305.9493 361.5294,306.1055 Q360.7482,306.2618 359.9825,306.2618 Z " fill="#000000"/><text fill="#000000" font-family="sans-serif" font-size="14" lengthAdjust="spacing" textLength="48.4678" x="381.0138" y="304.7719">Metrics</text><line style="stroke:#181818;stroke-width:0.5;" x1="300.74" x2="477.2554" y1="315.3399" y2="315.3399"/><rect fill="none" height="6" style="stroke:#C82930;stroke-width:1;" width="6" x="307.74" y="327.3739"/><text fill="#000000" font-family="sans-serif" font-size="14" lengthAdjust="spacing" textLength="137.6335" x="319.74" y="334.3058">CO2_savings_pct: pct</text><rect fill="none" height="6" style="stroke:#C82930;stroke-width:1;" width="6" x="307.74" y="346.4418"/><text fill="#000000" font-family="sans-serif" font-size="14" lengthAdjust="spacing" textLength="152.5154" x="319.74" y="353.3738">time_overhead_pct: pct</text><rect fill="none" height="6" style="stroke:#C82930;stroke-width:1;" width="6" x="307.74" y="365.5097"/><text fill="#000000" font-family="sans-serif" font-size="14" lengthAdjust="spacing" textLength="72.7717" x="319.74" y="372.4417">score: float</text><line style="stroke:#181818;stroke-width:0.5;" x1="300.74" x2="477.2554" y1="380.5436" y2="380.5436"/></g><!--link Simulation to TrainingRunProfile--><g class="link" data-entity-1="Simulation" data-entity-2="TrainingRunProfile" data-source-line="71" data-uid="lnk14" id="link_Simulation_TrainingRunProfile"><path codeLine="71" d="M478.03,131.6399 C714.26,137.6099 1153.65,154.8099 1208,200.8099 C1282.22,263.6299 1328.8,566.5599 1260,635.2799 C1249.89,645.3799 1016.17,637.7599 1003,643.2799 C978.44,653.5799 960.1314,666.5789 940.7814,684.9489" fill="none" id="Simulation-to-TrainingRunProfile" style="stroke:#181818;stroke-width:1;"/><polygon fill="#181818" points="936.43,689.0799,945.7111,685.7843,940.0562,685.6374,940.2031,679.9824,936.43,689.0799" style="stroke:#181818;stroke-width:1;"/><text fill="#000000" font-family="sans-serif" font-size="13" lengthAdjust="spacing" textLength="27.82" x="1291.98" y="444.9769">uses</text></g><!--link Simulation to GridData--><g class="link" data-entity-1="Simulation" data-entity-2="GridData" data-source-line="72" data-uid="lnk15" id="link_Simulation_GridData"><path codeLine="72" d="M477.9,132.0599 C699.33,138.4299 1104.13,155.9499 1242,200.8099 C1439.25,264.9899 1407.8421,583.5992 1386.8321,711.5692" fill="none" id="Simulation-to-GridData" style="stroke:#181818;stroke-width:1;"/><polygon fill="#181818" points="1385.86,717.4899,1391.2652,709.2568,1386.6701,712.556,1383.3709,707.9608,1385.86,717.4899" style="stroke:#181818;stroke-width:1;"/><text fill="#000000" font-family="sans-serif" font-size="13" lengthAdjust="spacing" textLength="62.1141" x="1398.32" y="444.9769">consumes</text></g><!--link Simulation to OptimizationPolicy--><g class="link" data-entity-1="Simulation" data-entity-2="OptimizationPolicy" data-source-line="73" data-uid="lnk16" id="link_Simulation_OptimizationPolicy"><path codeLine="73" d="M399.67,171.1499 C428.87,188.6799 463.07,209.2199 494,227.8099 C518.58,242.5799 539.9089,255.4165 564.7389,270.3565" fill="none" id="Simulation-to-OptimizationPolicy" style="stroke:#181818;stroke-width:1;"/><polygon fill="#181818" points="569.88,273.4499,564.2306,265.3824,565.5957,270.8721,560.1061,272.2373,569.88,273.4499" style="stroke:#181818;stroke-width:1;"/><text fill="#000000" font-family="sans-serif" font-size="13" lengthAdjust="spacing" textLength="43.55" x="481.63" y="215.7069">applies</text></g><!--link Simulation to ScenarioParameters--><g class="link" data-entity-1="Simulation" data-entity-2="ScenarioParameters" data-source-line="74" data-uid="lnk17" id="link_Simulation_ScenarioParameters"><path codeLine="74" d="M477.98,136.6399 C698,149.8399 1088.55,179.7899 1131,227.8099 C1243.46,355.0099 1193.3332,566.4602 1152.8232,683.4502" fill="none" id="Simulation-to-ScenarioParameters" style="stroke:#181818;stroke-width:1;"/><polygon fill="#181818" points="1150.86,689.1199,1157.5847,681.9242,1152.496,684.3951,1150.0251,679.3065,1150.86,689.1199" style="stroke:#181818;stroke-width:1;"/><text fill="#000000" font-family="sans-serif" font-size="13" lengthAdjust="spacing" textLength="81.7701" x="1199.9" y="444.9769">configuredBy</text></g><!--link Simulation to InternalState--><g class="link" data-entity-1="Simulation" data-entity-2="InternalState" data-source-line="75" data-uid="lnk18" id="link_Simulation_InternalState"><path codeLine="75" d="M290.91,170.9699 C264.23,200.5399 232.1888,236.0747 202.3488,269.1547" fill="none" id="Simulation-to-InternalState" style="stroke:#181818;stroke-width:1;"/><polygon fill="#181818" points="198.33,273.6099,207.3284,269.6063,201.679,269.8972,201.3881,264.2479,198.33,273.6099" style="stroke:#181818;stroke-width:1;"/><text fill="#000000" font-family="sans-serif" font-size="13" lengthAdjust="spacing" textLength="49.569" x="264.53" y="215.7069">updates</text></g><!--link Simulation to Metrics--><g class="link" data-entity-1="Simulation" data-entity-2="Metrics" data-source-line="76" data-uid="lnk19" id="link_Simulation_Metrics"><path codeLine="76" d="M341.29,170.9699 C350.71,203.3699 362.1042,242.5087 372.1742,277.1287" fill="none" id="Simulation-to-Metrics" style="stroke:#181818;stroke-width:1;"/><polygon fill="#181818" points="373.85,282.8899,375.1771,273.1309,372.4535,278.0889,367.4955,275.3652,373.85,282.8899" style="stroke:#181818;stroke-width:1;"/><text fill="#000000" font-family="sans-serif" font-size="13" lengthAdjust="spacing" textLength="57.0571" x="356.41" y="215.7069">produces</text></g><!--reverse link OptimizationPolicy to PauseResumeLogic--><g class="link" data-entity-1="OptimizationPolicy" data-entity-2="PauseResumeLogic" data-source-line="78" data-uid="lnk20" id="link_OptimizationPolicy_PauseResumeLogic"><path codeLine="78" d="M780.037,404.9001 C821.077,430.7201 858.12,454.0199 897.38,478.7099" fill="none" id="OptimizationPolicy-backto-PauseResumeLogic" style="stroke:#181818;stroke-width:1;"/><polygon fill="#181818" points="769.88,398.5099,772.8284,405.0907,780.037,404.9001,777.0886,398.3193,769.88,398.5099" style="stroke:#181818;stroke-width:1;"/><text fill="#000000" font-family="sans-serif" font-size="13" lengthAdjust="spacing" textLength="51.7401" x="845.44" y="444.9769">contains</text></g><!--reverse link OptimizationPolicy to Checkpointing--><g class="link" data-entity-1="OptimizationPolicy" data-entity-2="Checkpointing" data-source-line="79" data-uid="lnk21" id="link_OptimizationPolicy_Checkpointing"><path codeLine="79" d="M672,410.5099 C672,436.3299 672,454.0199 672,478.7099" fill="none" id="OptimizationPolicy-backto-Checkpointing" style="stroke:#181818;stroke-width:1;"/><polygon fill="#181818" points="672,398.5099,668,404.5099,672,410.5099,676,404.5099,672,398.5099" style="stroke:#181818;stroke-width:1;"/><text fill="#000000" font-family="sans-serif" font-size="13" lengthAdjust="spacing" textLength="27.82" x="673" y="444.9769">uses</text></g><!--link Checkpointing to TrainingRunProfile--><g class="link" data-entity-1="Checkpointing" data-entity-2="TrainingRunProfile" data-source-line="80" data-uid="lnk22" id="link_Checkpointing_TrainingRunProfile"><path codeLine="80" d="M715.67,584.6499 C741.41,615.2799 770.6702,650.0962 799.7002,684.6462" fill="none" id="Checkpointing-to-TrainingRunProfile" style="stroke:#181818;stroke-width:1;"/><polygon fill="#181818" points="803.56,689.2399,800.8328,679.7762,800.3435,685.4118,794.7079,684.9225,803.56,689.2399" style="stroke:#181818;stroke-width:1;"/><text fill="#000000" font-family="sans-serif" font-size="13" lengthAdjust="spacing" textLength="71.0971" x="754.68" y="631.1769">dependsOn</text></g><!--link PauseResumeLogic to GridData--><g class="link" data-entity-1="PauseResumeLogic" data-entity-2="GridData" data-source-line="81" data-uid="lnk23" id="link_PauseResumeLogic_GridData"><path codeLine="81" d="M1115.16,581.7799 C1155.11,598.7799 1198.02,619.5999 1235,643.2799 C1267.78,664.2799 1296.108,688.7182 1321.718,713.3782" fill="none" id="PauseResumeLogic-to-GridData" style="stroke:#181818;stroke-width:1;"/><polygon fill="#181818" points="1326.04,717.5399,1322.3314,708.416,1322.4383,714.0718,1316.7825,714.1787,1326.04,717.5399" style="stroke:#181818;stroke-width:1;"/><text fill="#000000" font-family="sans-serif" font-size="13" lengthAdjust="spacing" textLength="34.216" x="1216.81" y="631.1769">reads</text></g><!--link InternalState to Checkpointing--><g class="link" data-entity-1="InternalState" data-entity-2="Checkpointing" data-source-line="82" data-uid="lnk24" id="link_InternalState_Checkpointing"><path codeLine="82" d="M235.68,398.5399 C250.79,407.1599 266.56,415.3599 282,422.0799 C362.72,457.2099 451.974,482.5767 528.044,500.7367" fill="none" id="InternalState-to-Checkpointing" style="stroke:#181818;stroke-width:1;"/><polygon fill="#181818" points="533.88,502.1299,526.0548,496.1494,529.0167,500.9689,524.1972,503.9307,533.88,502.1299" style="stroke:#181818;stroke-width:1;"/><text fill="#000000" font-family="sans-serif" font-size="13" lengthAdjust="spacing" textLength="48.334" x="344.49" y="444.9769">triggers</text></g><!--SRC=[TLJBRjim4BphAuXUchRn9KSVUgWJ104In4WQv4XigBL4c2PPBkdK3VBlNSgIR4dsnGzoo9sTcMNKqQ1OF5xDu1q2Yllx1_4xWBRQLk9PRvA1g9qL2mD4ubf35M1J51xK6YeKTzQdI7BXB4MmaSH78OHgiDqjJyakWrjfBfCtXPY9ZIlHI0zy5Ss5Sid6TgU428HHHhT6EzghV9BD_-coT-yOPCmLv-9LUlvpktoP03mamYd09ruCkKzU-2pw3cw3Bg-PKCzRkIkfRMHcEkuaywXOEFpJNBT-hLiK6bGnQ9Kndhyn8szUdaQmtAg4BMW3RzfayCf0bR5lpfaXasU55e9soomPHWpKSufrGAgTAINhDXT6KoTClID68ccQR0MisDJfEfiOM7ozmUbUpJyTjmD6xX023JRT5aEDKCgtL5RidrTyc3-QDZuFULawezKkvoK6PuxZykYvhFxNf6sFEceHMQhMl9EISvmOaHi-0zWtFES60qUoyptVA3dGbbCUs86vG9isG-cN6VI4b3PuxogjUbQXMPEz_cSgi_fDdRBtLOWV0hTW4aIyg3XZTrsaliq5g2p0aCAYHhNsZfENXxAhVuhtm8fi8tVSy57z5MCKMWmLt_1QJu43wxxS_4MLChilHxOTFH4VRMyXsGlVE7Wf_7xoBqNkyr9GcsDkD4jg8hLdEAd-eeoydZmF1j9GWQnGi62U8-yTSj6-C3nbhc8Nw3Xs-qa4pyhBTp2cbQEp1PHA3NFUneqcolFGMJZ8n-Z9EMBrW7dC3wF8PoN1bXbDcEJYijTyj4dA1QQsCWvwrR-oG7jTgTQUYYETPxEVfnvNbevm0kpViDo1pOcTG4vC7kVGUwEds1CFKNFnIbSfOFbhDpumTEvWxmZMIJdFYIcJOaHnWjVtsMmwa0s1o7hGkIF30Mg56YwU5RL4ZxQaHrjC2e_q3Mmj5SE6CsHSdJkjAbRkFm00]--></g></svg>